<svg width="16" height="16" viewBox="0 0 16 16" fill="none" xmlns="http://www.w3.org/2000/svg">
<path d="M0 8C0 3.58172 3.58172 0 8 0C12.4183 0 16 3.58172 16 8C16 12.4183 12.4183 16 8 16C3.58172 16 0 12.4183 0 8Z" fill="#00AF6C"/>
<path d="M10.7927 5.73964C10.8683 5.80946 10.9076 5.89382 10.9105 5.99273C10.9134 6.09164 10.8799 6.17891 10.8101 6.25455L6.98757 10.2516C6.91775 10.3273 6.83193 10.3651 6.73011 10.3651C6.6283 10.3651 6.54248 10.3302 6.47266 10.2604L5.19848 8.98618C5.12866 8.91636 5.09375 8.83055 5.09375 8.72873C5.09375 8.62691 5.12866 8.54109 5.19848 8.47127C5.2683 8.40146 5.35411 8.36655 5.45593 8.36655C5.55775 8.36655 5.64357 8.40146 5.71339 8.47127L6.71702 9.48364L10.2865 5.74836C10.3505 5.67855 10.4334 5.64218 10.5352 5.63927C10.637 5.63636 10.7228 5.66982 10.7927 5.73964Z" fill="#EFFBF6"/>
</svg>
