<svg width="150" height="150" viewBox="0 0 150 150" fill="none" xmlns="http://www.w3.org/2000/svg">
<path d="M76.0382 62.3133C56.6683 42.9458 35.429 32.7823 28.5967 39.6121C27.847 40.3974 27.2953 41.3499 26.9873 42.391L26.8774 42.2811L20.3524 69.0207L13.8549 95.6803L6.15294 127.248L1.27734 147.24L30.1436 136.317L66.8593 122.425L96.1504 111.342L96.1154 111.307C97.0959 110.994 97.9931 110.464 98.7394 109.755C105.572 102.922 95.4082 81.6832 76.0382 62.3133Z" fill="#DD1C4B"/>
<path d="M76.0389 62.3053C56.6696 42.936 35.4298 32.7722 28.5983 39.6036C21.7669 46.4351 31.9308 67.6749 51.3 87.0441C70.6692 106.413 91.9091 116.577 98.7405 109.746C105.572 102.914 95.4081 81.6745 76.0389 62.3053Z" fill="#D1E3EE"/>
<path d="M93.4914 112.206C89.994 112.267 86.5241 111.579 83.3154 110.187L59.3747 119.246L22.6465 133.126L2.95169 140.578L1.27734 147.443L30.1436 136.519L66.8593 122.627L93.7413 112.456L93.4914 112.206Z" fill="#B21D48"/>
<path d="M123.729 92.4636C123.43 92.4627 123.133 92.4092 122.852 92.3062C110.165 87.5533 96.4516 86.2207 83.0875 88.4427L74.1609 89.9296C72.7946 90.1245 71.5289 89.1749 71.3339 87.8085C71.1456 86.4884 72.0268 85.253 73.3363 85.0015L82.2653 83.5021C96.4954 81.1377 111.097 82.5556 124.606 87.613C125.905 88.0797 126.58 89.511 126.113 90.8099C125.752 91.8132 124.795 92.4773 123.729 92.4636Z" fill="#FFBF41"/>
<path d="M78.75 77.4696C77.3699 77.4615 76.2575 76.336 76.2657 74.9559C76.2713 74.0032 76.818 73.1366 77.6754 72.7215L130.155 47.7312C131.401 47.1377 132.893 47.6669 133.486 48.9132C134.08 50.1596 133.551 51.6509 132.304 52.2444L79.8246 77.2347C79.4885 77.3918 79.1214 77.4721 78.75 77.4696Z" fill="#FFBF41"/>
<path d="M49.5247 72.4715C49.1952 72.4722 48.8687 72.4069 48.5651 72.2791C47.2912 71.7478 46.6892 70.2846 47.2206 69.0107V69.0104L50.8542 60.2913C56.4448 46.9324 57.7484 32.1669 54.5852 18.0352C54.261 16.6936 55.086 15.3435 56.4273 15.0192C57.769 14.695 59.1191 15.52 59.4433 16.8613C59.4505 16.891 59.4571 16.9207 59.4633 16.9507C62.852 32.0888 61.4548 47.9058 55.4649 62.2155L51.8288 70.9346C51.4408 71.8646 50.5324 72.4706 49.5247 72.4715Z" fill="#FFBF41"/>
<path d="M136.225 102.46C138.985 102.46 141.223 100.222 141.223 97.4619C141.223 94.7016 138.985 92.4639 136.225 92.4639C133.464 92.4639 131.227 94.7016 131.227 97.4619C131.227 100.222 133.464 102.46 136.225 102.46Z" fill="#D5557E"/>
<path d="M76.2481 32.4873C79.0084 32.4873 81.2461 30.2496 81.2461 27.4893C81.2461 24.7289 79.0084 22.4912 76.2481 22.4912C73.4877 22.4912 71.25 24.7289 71.25 27.4893C71.25 30.2496 73.4877 32.4873 76.2481 32.4873Z" fill="#DD95C1"/>
<path d="M53.7598 9.99611C50.9993 9.99611 48.7617 7.75854 48.7617 4.99805C48.7617 2.23757 50.9993 0 53.7598 0C56.5203 0 58.7578 2.23757 58.7578 4.99805C58.7578 7.75854 56.5203 9.99611 53.7598 9.99611Z" fill="#7FCCCB"/>
<path d="M123.729 19.9922C122.349 19.9922 121.23 18.8733 121.23 17.4932V14.9941C121.23 13.6141 122.349 12.4951 123.729 12.4951C125.11 12.4951 126.229 13.6141 126.229 14.9941V17.4932C126.229 18.8733 125.11 19.9922 123.729 19.9922Z" fill="#2276BB"/>
<path d="M123.729 7.49708C122.349 7.49708 121.23 6.37814 121.23 4.99805V2.49903C121.23 1.11894 122.349 0 123.729 0C125.11 0 126.229 1.11894 126.229 2.49903V4.99805C126.229 6.37814 125.11 7.49708 123.729 7.49708Z" fill="#2276BB"/>
<path d="M131.229 12.4951H128.729C127.349 12.4951 126.23 11.3762 126.23 9.9961C126.23 8.61601 127.349 7.49707 128.729 7.49707H131.229C132.609 7.49707 133.728 8.61601 133.728 9.9961C133.728 11.3762 132.609 12.4951 131.229 12.4951Z" fill="#2276BB"/>
<path d="M118.732 12.4951H116.233C114.853 12.4951 113.734 11.3762 113.734 9.9961C113.734 8.61601 114.853 7.49707 116.233 7.49707H118.732C120.113 7.49707 121.231 8.61601 121.231 9.9961C121.231 11.3762 120.113 12.4951 118.732 12.4951Z" fill="#2276BB"/>
<path d="M21.1151 72.4719C20.8352 71.4023 20.5853 70.3227 20.3529 69.2231L13.8555 95.8828L14.3553 101.978C15.4445 114.973 21.0267 127.181 30.1416 136.507L66.8598 122.627C66.6599 122.565 66.4525 122.52 66.2526 122.452C43.9878 114.104 27.159 95.4695 21.1151 72.4719Z" fill="white"/>
<path d="M66.8616 122.627C66.6617 122.565 66.4543 122.52 66.2544 122.452C63.8491 121.542 61.4931 120.505 59.1971 119.346L26.125 131.859C27.3789 133.485 28.7212 135.041 30.1459 136.52L66.8616 122.627Z" fill="#F6F6E7"/>
<path d="M106.239 29.936V42.4836H93.6914V29.936H106.239Z" fill="#C9DA53"/>
<path d="M61.2562 74.971C59.8761 74.9706 58.7575 73.8514 58.7578 72.4713C58.7581 71.7635 59.0583 71.089 59.5844 70.6152L84.5746 48.1239C85.6183 47.2208 87.1964 47.3348 88.0995 48.3785C88.9776 49.3931 88.8976 50.92 87.9183 51.8375L62.9281 74.3287C62.4695 74.742 61.8738 74.9706 61.2562 74.971Z" fill="#FFBF41"/>
<path d="M133.726 64.9746C132.346 64.9746 131.227 63.8557 131.227 62.4756V59.9766C131.227 58.5965 132.346 57.4775 133.726 57.4775C135.106 57.4775 136.225 58.5965 136.225 59.9766V62.4756C136.225 63.8557 135.106 64.9746 133.726 64.9746Z" fill="#FFDB43"/>
<path d="M142.563 61.3137C141.9 61.3156 141.264 61.0519 140.796 60.5815L139.03 58.8147C138.071 57.8219 138.098 56.2397 139.091 55.281C140.059 54.3458 141.595 54.3458 142.563 55.281L144.33 57.0478C145.306 58.024 145.306 59.6062 144.329 60.5821C143.861 61.0503 143.226 61.3137 142.563 61.3137Z" fill="#FFDB43"/>
<path d="M146.221 52.4795H143.722C142.342 52.4795 141.223 51.3606 141.223 49.9805C141.223 48.6004 142.342 47.4814 143.722 47.4814H146.221C147.601 47.4814 148.72 48.6004 148.72 49.9805C148.72 51.3606 147.601 52.4795 146.221 52.4795Z" fill="#FFDB43"/>
<path d="M140.795 45.4125C139.415 45.4122 138.297 44.2933 138.297 42.9129C138.297 42.2503 138.56 41.615 139.028 41.1467L140.795 39.3799C141.788 38.4209 143.37 38.4484 144.329 39.4411C145.264 40.4095 145.264 41.9448 144.329 42.9135L142.562 44.6803C142.094 45.1489 141.458 45.4125 140.795 45.4125Z" fill="#FFDB43"/>
<path d="M133.726 42.4834C132.346 42.4834 131.227 41.3645 131.227 39.9844V37.4854C131.227 36.1053 132.346 34.9863 133.726 34.9863C135.106 34.9863 136.225 36.1053 136.225 37.4854V39.9844C136.225 41.3645 135.106 42.4834 133.726 42.4834Z" fill="#FFDB43"/>
<path d="M126.657 45.4123C125.994 45.4123 125.359 45.1487 124.89 44.6801L123.123 42.9133C122.165 41.9206 122.192 40.3384 123.185 39.3797C124.153 38.4444 125.688 38.4444 126.657 39.3797L128.424 41.1465C129.4 42.1227 129.399 43.7049 128.423 44.6807C127.955 45.149 127.32 45.4123 126.657 45.4123Z" fill="#FFDB43"/>
<path d="M13.7725 2.49902L17.6335 10.3235L26.2676 11.578L20.02 17.6681L21.4945 26.2673L13.7725 22.2063L6.05048 26.2673L7.52491 17.6681L1.27734 11.578L9.91148 10.3235L13.7725 2.49902Z" fill="#FFDB43"/>
<path d="M147.93 135.362C146.741 131.15 144.004 127.543 140.268 125.264L139.238 123.719C133.465 115.086 124.387 109.216 114.145 107.493C112.779 107.298 111.513 108.248 111.318 109.614C111.13 110.934 112.011 112.17 113.321 112.421C120.708 113.675 127.44 117.428 132.391 123.052C128.228 123.801 124.588 126.301 122.395 129.917C119.703 134.737 121.429 140.826 126.249 143.518C131.07 146.209 137.159 144.483 139.85 139.663C140.878 137.679 141.433 135.483 141.472 133.248C144.131 137.11 144.344 142.153 142.019 146.226C141.315 147.413 141.707 148.946 142.894 149.65C144.081 150.354 145.614 149.963 146.318 148.775C146.341 148.737 146.362 148.699 146.383 148.66C148.653 144.611 149.21 139.823 147.93 135.362ZM135.492 137.224C134.158 139.641 131.118 140.519 128.701 139.185C126.284 137.851 125.407 134.811 126.74 132.394C126.748 132.381 126.755 132.367 126.763 132.353C128.238 129.939 130.725 128.32 133.53 127.95C133.965 127.938 134.395 128.038 134.78 128.24C136.889 129.417 137.001 134.52 135.492 137.224Z" fill="#2BB3CE"/>
</svg>
