<?xml version="1.0" standalone="no"?>
<!DOCTYPE svg PUBLIC "-//W3C//DTD SVG 1.1//EN" "http://www.w3.org/Graphics/SVG/1.1/DTD/svg11.dtd" >
<svg xmlns="http://www.w3.org/2000/svg" xmlns:xlink="http://www.w3.org/1999/xlink" version="1.1">
<metadata>
Created by FontForge 20170731 at Tue Oct 25 17:02:14 2011
 By Aleksey,,,
Copyright (c) 2008 - 2011 Linotype GmbH, www.linotype.com. All rights reserved. This font software may not be reproduced, modified, disclosed or transferred without the express written approval of Linotype GmbH.
</metadata>
<defs>
<font id="DINNextLTArabic-UltraLight" horiz-adv-x="522" >
  <font-face 
    font-family="DIN Next LT Arabic Ultra Light"
    font-weight="250"
    font-stretch="normal"
    units-per-em="1000"
    panose-1="2 11 2 3 2 2 3 5 2 3"
    ascent="800"
    descent="-200"
    x-height="474"
    cap-height="680"
    bbox="-181.571 -420 1145 1389"
    underline-thickness="50"
    underline-position="-150"
    unicode-range="U+000D-FEFC"
  />
<missing-glyph horiz-adv-x="464" 
d="M0 670q0 10 10 10h444q10 0 10 -10v-660q0 -10 -10 -10h-444q-10 0 -10 10v660zM30 34q0 -6 6 -6h392q6 0 6 6v612q0 6 -6 6h-392q-6 0 -6 -6v-612zM221 217q-10 0 -10 10v25q0 24 5 39.5t19 32.5l31 37q14 16 22.5 28.5t13 23t6 20.5t1.5 22q0 38 -23.5 59t-58.5 21
q-32 0 -55 -18t-32 -59q-2 -9 -12 -8l-7 1q-10 2 -8 11q8 44 38.5 71.5t75.5 27.5q51 0 80.5 -30.5t29.5 -75.5q0 -32 -10.5 -54t-33.5 -50l-31 -37q-8 -10 -12.5 -17t-7 -13.5t-3 -14t-0.5 -17.5v-25q0 -10 -10 -10h-8zM205 151q0 10 10 10h19q10 0 10 -10v-28
q0 -10 -10 -10h-19q-10 0 -10 10v28z" />
    <glyph glyph-name="aLam.init_aAlifMadda.fina" unicode="&#xfedf;&#xfe82;" horiz-adv-x="625" arabic-form="isolated" 
d="M60 0q-9 0 -9 9v14q0 7 9 7h208v500q0 9 9 9h12q9 0 9 -9v-500h135q27 0 43.5 6t25 18.5t11.5 33t3 49.5v535q0 9 9 9h12q9 0 9 -9v-548q0 -42 -9.5 -66.5t-24.5 -37.5t-33.5 -16.5t-36.5 -3.5h-382zM113 627q5 17 14 26.5t18.5 14.5t19 6.5t16.5 1.5q26 0 50.5 -9
t49 -20t50 -20t52.5 -9q21 0 30.5 7t9.5 30q0 9 9 9h10q9 0 9 -9q0 -38 -20 -51t-48 -13q-27 0 -53 9t-51 20t-49.5 20t-48.5 9q-15 0 -25.5 -6.5t-16.5 -23.5q-2 -8 -8 -6l-15 5q-5 2 -3 9z" />
    <glyph glyph-name="aLam.medi_aAlifMadda.fina" unicode="&#xfee0;&#xfe82;" horiz-adv-x="648" arabic-form="final" 
d="M59 0q-9 0 -9 9v14q0 7 9 7h208v500q0 9 9 9h12q10 0 10 -9v-500h135q27 0 43 6t25 18.5t11.5 33t2.5 49.5v535q0 9 9 9h12q10 0 10 -9v-557q0 -44 28.5 -64.5t75.5 -20.5q20 0 29.5 -2.5t9.5 -12.5q0 -9 -9.5 -12t-29.5 -3q-26 0 -45 5t-33 12.5t-22.5 16.5t-13.5 18
q-7 -18 -17.5 -28t-23.5 -15.5t-26.5 -7t-26.5 -1.5h-383zM111 627q5 17 14 26.5t18.5 14.5t19 6.5t16.5 1.5q26 0 50.5 -9t49 -20t50 -20t52.5 -9q21 0 30.5 7t9.5 30q0 9 9 9h10q9 0 9 -9q0 -38 -20 -51t-48 -13q-27 0 -53 9t-51 20t-49.5 20t-48.5 9q-15 0 -25.5 -6.5
t-16.5 -23.5q-2 -8 -8 -6l-15 5q-5 2 -3 9z" />
    <glyph glyph-name="aLam.init_aAlifHamza.fina" unicode="&#xfedf;&#xfe84;" horiz-adv-x="625" arabic-form="isolated" 
d="M60 0q-9 0 -9 9v14q0 7 9 7h208v500q0 9 9 9h12q9 0 9 -9v-500h135q27 0 43.5 6t25 18.5t11.5 33t3 49.5v535q0 9 9 9h12q9 0 9 -9v-548q0 -42 -9.5 -66.5t-24.5 -37.5t-33.5 -16.5t-36.5 -3.5h-382zM240 637q-8 14 -14.5 30t-6.5 41q0 11 4 26.5t14 30t27.5 24.5
t45.5 10q23 0 42.5 -10t32.5 -27q3 -3 -1 -7l-11 -10q-6 -2 -9 2q-13 14 -25.5 20.5t-30.5 6.5q-29 0 -45.5 -18.5t-16.5 -47.5q0 -26 9 -43t20 -28h113q5 0 5 -6v-14q0 -6 -5 -6h-188q-5 0 -5 6v14q0 6 5 6h40z" />
    <glyph glyph-name="aLam.medi_aAlifHamza.fina" unicode="&#xfee0;&#xfe84;" horiz-adv-x="648" arabic-form="final" 
d="M59 0q-9 0 -9 9v14q0 7 9 7h208v500q0 9 9 9h12q10 0 10 -9v-500h135q27 0 43 6t25 18.5t11.5 33t2.5 49.5v535q0 9 9 9h12q10 0 10 -9v-557q0 -44 28.5 -64.5t75.5 -20.5q20 0 29.5 -2.5t9.5 -12.5q0 -9 -9.5 -12t-29.5 -3q-26 0 -45 5t-33 12.5t-22.5 16.5t-13.5 18
q-7 -18 -17.5 -28t-23.5 -15.5t-26.5 -7t-26.5 -1.5h-383zM240 637q-8 14 -14.5 30t-6.5 41q0 11 4 26.5t14 30t27.5 24.5t45.5 10q23 0 42.5 -10t32.5 -27q3 -3 -1 -7l-11 -10q-6 -2 -9 2q-13 14 -25.5 20.5t-30.5 6.5q-29 0 -45.5 -18.5t-16.5 -47.5q0 -26 9 -43t20 -28
h113q5 0 5 -6v-14q0 -6 -5 -6h-188q-5 0 -5 6v14q0 6 5 6h40z" />
    <glyph glyph-name="aLam.init_aAlifHamzabelow.fina" unicode="&#xfedf;&#xfe88;" horiz-adv-x="625" arabic-form="isolated" 
d="M60 0q-9 0 -9 9v14q0 7 9 7h208v500q0 9 9 9h12q9 0 9 -9v-500h135q27 0 43.5 6t25 18.5t11.5 33t3 49.5v535q0 9 9 9h12q9 0 9 -9v-548q0 -42 -9.5 -66.5t-24.5 -37.5t-33.5 -16.5t-36.5 -3.5h-382zM243 -235q-8 14 -14.5 30t-6.5 41q0 10 4 26t14 30t27.5 24.5
t45.5 10.5q23 0 42.5 -10t32.5 -27q3 -3 -1 -7l-11 -11q-6 -2 -9 2q-13 14 -25.5 21t-30.5 7q-29 0 -45.5 -19t-16.5 -47q0 -26 9 -43t20 -28h113q5 0 5 -6v-14q0 -6 -5 -6h-188q-5 0 -5 6v14q0 6 5 6h40z" />
    <glyph glyph-name="aLam.medi_aAlifHamzabelow.fina" unicode="&#xfee0;&#xfe88;" horiz-adv-x="648" arabic-form="final" 
d="M59 0q-9 0 -9 9v14q0 7 9 7h208v500q0 9 9 9h12q10 0 10 -9v-500h135q27 0 43 6t25 18.5t11.5 33t2.5 49.5v535q0 9 9 9h12q10 0 10 -9v-557q0 -44 28.5 -64.5t75.5 -20.5q20 0 29.5 -2.5t9.5 -12.5q0 -9 -9.5 -12t-29.5 -3q-26 0 -45 5t-33 12.5t-22.5 16.5t-13.5 18
q-7 -18 -17.5 -28t-23.5 -15.5t-26.5 -7t-26.5 -1.5h-383zM243 -235q-8 14 -14.5 30t-6.5 41q0 10 4 26t14 30t27.5 24.5t45.5 10.5q23 0 42.5 -10t32.5 -27q3 -3 -1 -7l-11 -11q-6 -2 -9 2q-13 14 -25.5 21t-30.5 7q-29 0 -45.5 -19t-16.5 -47q0 -26 9 -43t20 -28h113
q5 0 5 -6v-14q0 -6 -5 -6h-188q-5 0 -5 6v14q0 6 5 6h40z" />
    <glyph glyph-name="aLam.init_aAlif.fina" unicode="&#xfedf;&#xfe8e;" horiz-adv-x="625" arabic-form="isolated" 
d="M60 0q-9 0 -9 9v14q0 7 9 7h208v500q0 9 9 9h12q9 0 9 -9v-500h135q27 0 43.5 6t25 18.5t11.5 33t3 49.5v535q0 9 9 9h12q9 0 9 -9v-548q0 -42 -9.5 -66.5t-24.5 -37.5t-33.5 -16.5t-36.5 -3.5h-382z" />
    <glyph glyph-name="aLam.medi_aAlif.fina" unicode="&#xfee0;&#xfe8e;" horiz-adv-x="648" arabic-form="final" 
d="M59 0q-9 0 -9 9v14q0 7 9 7h208v500q0 9 9 9h12q10 0 10 -9v-500h135q27 0 43 6t25 18.5t11.5 33t2.5 49.5v535q0 9 9 9h12q10 0 10 -9v-557q0 -44 28.5 -64.5t75.5 -20.5q20 0 29.5 -2.5t9.5 -12.5q0 -9 -9.5 -12t-29.5 -3q-26 0 -45 5t-33 12.5t-22.5 16.5t-13.5 18
q-7 -18 -17.5 -28t-23.5 -15.5t-26.5 -7t-26.5 -1.5h-383z" />
    <glyph glyph-name="aLam.init_aAlifWasla.fina" unicode="&#xfedf;&#xfb51;" horiz-adv-x="625" 
d="M60 0q-9 0 -9 9v14q0 7 9 7h208v500q0 9 9 9h12q9 0 9 -9v-500h135q27 0 43.5 6t25 18.5t11.5 33t3 49.5v535q0 9 9 9h12q9 0 9 -9v-548q0 -42 -9.5 -66.5t-24.5 -37.5t-33.5 -16.5t-36.5 -3.5h-382zM211 622q8 0 9.5 6t1.5 14v89q0 6 5 6h12q5 0 5 -6v-14
q14 7 34.5 13.5t39.5 6.5q40 0 58.5 -19.5t18.5 -54.5q0 -33 -12.5 -47t-44.5 -14h-139q-6 0 -6 6v8q0 6 6 6h12zM318 715q-23 0 -40 -5.5t-34 -13.5v-49q0 -4 -1 -12.5t-3 -12.5h97q21 0 29 7.5t8 33.5q0 24 -14 38t-42 14z" />
    <glyph glyph-name="aLam.medi_aAlifWasla.fina" unicode="&#xfee0;&#xfb51;" horiz-adv-x="648" 
d="M59 0q-9 0 -9 9v14q0 7 9 7h208v500q0 9 9 9h12q10 0 10 -9v-500h135q27 0 43 6t25 18.5t11.5 33t2.5 49.5v535q0 9 9 9h12q10 0 10 -9v-557q0 -44 28.5 -64.5t75.5 -20.5q20 0 29.5 -2.5t9.5 -12.5q0 -9 -9.5 -12t-29.5 -3q-26 0 -45 5t-33 12.5t-22.5 16.5t-13.5 18
q-7 -18 -17.5 -28t-23.5 -15.5t-26.5 -7t-26.5 -1.5h-383zM211 622q8 0 9.5 6t1.5 14v89q0 6 5 6h12q5 0 5 -6v-14q14 7 34.5 13.5t39.5 6.5q40 0 58.5 -19.5t18.5 -54.5q0 -33 -12.5 -47t-44.5 -14h-139q-6 0 -6 6v8q0 6 6 6h12zM318 715q-23 0 -40 -5.5t-34 -13.5v-49
q0 -4 -1 -12.5t-3 -12.5h97q21 0 29 7.5t8 33.5q0 24 -14 38t-42 14z" />
    <glyph glyph-name="aHamza" unicode="&#x621;" horiz-adv-x="353" arabic-form="isolated" 
d="M106 30q-20 22 -34 57.5t-14 70.5q0 21 6.5 46.5t22.5 47t44 36.5t71 15q37 0 66 -13.5t45 -33.5q6 -7 0 -13l-14 -11q-3 -2 -5.5 -0.5t-4.5 3.5q-15 15 -38 26.5t-52 11.5t-49.5 -10t-33.5 -26t-19.5 -36.5t-6.5 -40.5q0 -44 18.5 -79t40.5 -51h170q9 0 9 -10v-10
q0 -10 -9 -10h-284q-9 0 -9 10v10q0 10 9 10h71z" />
    <glyph glyph-name="aAlifMadda" unicode="&#x622;" horiz-adv-x="192" arabic-form="isolated" 
d="M90 0q-9 0 -9 9v663q0 9 9 9h12q9 0 9 -9v-663q0 -9 -9 -9h-12zM-68 783q5 17 14 26.5t18.5 14.5t19 6.5t16.5 1.5q26 0 50.5 -9t49 -20t50 -20t52.5 -9q21 0 30.5 7t9.5 30q0 9 9 9h10q9 0 9 -9q0 -38 -20 -51t-48 -13q-27 0 -53 9t-51 20t-49.5 20t-48.5 9
q-15 0 -25.5 -6.5t-16.5 -23.5q-2 -8 -8 -6l-15 5q-5 2 -3 9z" />
    <glyph glyph-name="aAlifHamza" unicode="&#x623;" horiz-adv-x="192" arabic-form="isolated" 
d="M90 0q-9 0 -9 9v663q0 9 9 9h12q9 0 9 -9v-663q0 -9 -9 -9h-12zM44 763q-8 14 -14.5 30t-6.5 41q0 11 4 26.5t14 30t27.5 24.5t45.5 10q23 0 42.5 -10t32.5 -27q3 -3 -1 -7l-11 -10q-6 -2 -9 2q-13 14 -25.5 20.5t-30.5 6.5q-29 0 -45.5 -18.5t-16.5 -47.5q0 -26 9 -43
t20 -28h113q5 0 5 -6v-14q0 -6 -5 -6h-188q-5 0 -5 6v14q0 6 5 6h40z" />
    <glyph glyph-name="aWawHamza" unicode="&#x624;" horiz-adv-x="475" arabic-form="isolated" 
d="M405 -75q0 -27 -5 -49.5t-16.5 -38.5t-30.5 -25t-48 -9h-155q-9 0 -9 9v12q0 9 9 9h153q37 0 54.5 19.5t17.5 72.5v75h-120q-43 0 -76 9t-56 31.5t-35 59.5t-12 94q0 51 13 92t35.5 69.5t53 44t65.5 15.5q88 0 125 -55.5t37 -156.5v-278zM243 385q-60 0 -98.5 -46
t-38.5 -146q0 -89 34 -126t109 -37h126v169q0 88 -29.5 137t-102.5 49zM162 509q-8 14 -14.5 30t-6.5 41q0 11 4 26.5t14 30t28 24.5t46 10q23 0 42.5 -10t32.5 -27q3 -3 -1 -7l-11 -10q-6 -2 -9 2q-13 14 -25.5 20.5t-30.5 6.5q-30 0 -46.5 -18.5t-16.5 -47.5q0 -26 9 -43
t20 -28h114q5 0 5 -6v-14q0 -6 -5 -6h-189q-5 0 -5 6v14q0 6 5 6h40z" />
    <glyph glyph-name="aAlifHamzabelow" unicode="&#x625;" horiz-adv-x="192" arabic-form="isolated" 
d="M90 0q-9 0 -9 9v663q0 9 9 9h12q9 0 9 -9v-663q0 -9 -9 -9h-12zM45 -235q-8 14 -14.5 30t-6.5 41q0 10 4 26t14 30t27.5 24.5t45.5 10.5q23 0 42.5 -10t32.5 -27q3 -3 -1 -7l-11 -11q-6 -2 -9 2q-13 14 -25.5 21t-30.5 7q-29 0 -45.5 -19t-16.5 -47q0 -26 9 -43t20 -28
h113q5 0 5 -6v-14q0 -6 -5 -6h-188q-5 0 -5 6v14q0 6 5 6h40z" />
    <glyph glyph-name="aYehHamza" unicode="&#x626;" horiz-adv-x="753" arabic-form="isolated" 
d="M655 -94q0 -51 -29.5 -77t-85.5 -26h-257q-115 0 -174 57t-59 157q0 33 6.5 62.5t16 54t21 44.5t21.5 35q4 5 9 2l11 -7q6 -3 2 -9q-9 -15 -19.5 -33t-19.5 -40.5t-15 -48.5t-6 -56q0 -91 54.5 -139.5t148.5 -48.5h245q31 0 51 5t30.5 14.5t14.5 22.5t4 29q0 17 -9 33.5
t-23 32.5t-32 30.5t-36 28.5q-23 17 -46 36.5t-41.5 41t-30 47t-11.5 54.5q0 17 6 39t21.5 41.5t42.5 33t69 13.5q33 0 59.5 -8t46.5 -19.5t33.5 -22.5t19.5 -17q4 -3 1 -8l-13 -16q-4 -2 -10 3q-26 24 -58.5 41t-82.5 17q-44 0 -74.5 -24.5t-30.5 -74.5q0 -24 10 -44.5
t26 -39t37 -36t42 -33.5q22 -17 42.5 -33.5t36.5 -34.5t25.5 -37.5t9.5 -41.5zM139 332q-8 14 -14.5 30t-6.5 41q0 11 4 26.5t14 30t28 24.5t46 10q23 0 42.5 -10t32.5 -27q3 -3 -1 -7l-11 -10q-6 -2 -9 2q-13 14 -25.5 20.5t-30.5 6.5q-30 0 -46.5 -18.5t-16.5 -47.5
q0 -26 9 -43t20 -28h114q5 0 5 -6v-14q0 -6 -5 -6h-189q-5 0 -5 6v14q0 6 5 6h40z" />
    <glyph glyph-name="aAlif" unicode="&#x627;" horiz-adv-x="192" arabic-form="isolated" 
d="M90 0q-9 0 -9 9v663q0 9 9 9h12q9 0 9 -9v-663q0 -9 -9 -9h-12z" />
    <glyph glyph-name="aBeh" unicode="&#x628;" horiz-adv-x="811" arabic-form="isolated" 
d="M154 0q-43 0 -71 20.5t-28 70.5v232q0 9 9 9h11q10 0 10 -9v-224q0 -36 17 -52.5t54 -16.5h469q27 0 43 6t25 18.5t11.5 33t2.5 49.5v251q0 9 9 9h12q9 0 9 -9v-264q0 -42 -9.5 -66.5t-24 -37.5t-33 -16.5t-36.5 -3.5h-480zM377 -145q-9 0 -9 9v41q0 9 9 9h24q9 0 9 -9
v-41q0 -9 -9 -9h-24z" />
    <glyph glyph-name="aTehMarbuta" unicode="&#x629;" horiz-adv-x="435" arabic-form="isolated" 
d="M210 22q71 0 103 45.5t32 133.5q0 41 -7.5 75t-24 58t-42 37.5t-61.5 13.5q-70 0 -102 -50t-32 -134q0 -88 31 -133.5t103 -45.5zM210 -7q-44 0 -75 14.5t-51 40t-29 61t-9 78.5q0 105 39 166.5t125 61.5q88 0 126.5 -55.5t38.5 -152.5q0 -112 -41 -163t-124 -51z
M146 503q-9 0 -9 9v40q0 9 9 9h24q9 0 9 -9v-40q0 -9 -9 -9h-24zM247 503q-9 0 -9 9v40q0 9 9 9h24q9 0 9 -9v-40q0 -9 -9 -9h-24z" />
    <glyph glyph-name="aTeh" unicode="&#x62a;" horiz-adv-x="811" arabic-form="isolated" 
d="M154 0q-43 0 -71 20.5t-28 70.5v232q0 9 9 9h11q10 0 10 -9v-224q0 -36 17 -52.5t54 -16.5h469q27 0 43 6t25 18.5t11.5 33t2.5 49.5v251q0 9 9 9h12q9 0 9 -9v-264q0 -42 -9.5 -66.5t-24 -37.5t-33 -16.5t-36.5 -3.5h-480zM337 444q-9 0 -9 9v40q0 9 9 9h24q9 0 9 -9
v-40q0 -9 -9 -9h-24zM438 444q-9 0 -9 9v40q0 9 9 9h24q9 0 9 -9v-40q0 -9 -9 -9h-24z" />
    <glyph glyph-name="aTheh" unicode="&#x62b;" horiz-adv-x="811" arabic-form="isolated" 
d="M154 0q-43 0 -71 20.5t-28 70.5v232q0 9 9 9h11q10 0 10 -9v-224q0 -36 17 -52.5t54 -16.5h469q27 0 43 6t25 18.5t11.5 33t2.5 49.5v251q0 9 9 9h12q9 0 9 -9v-264q0 -42 -9.5 -66.5t-24 -37.5t-33 -16.5t-36.5 -3.5h-480zM335 444q-9 0 -9 9v40q0 9 9 9h24q9 0 9 -9
v-40q0 -9 -9 -9h-24zM436 444q-9 0 -9 9v40q0 9 9 9h24q9 0 9 -9v-40q0 -9 -9 -9h-24zM385 553q-9 0 -9 9v40q0 9 9 9h24q9 0 9 -9v-40q0 -9 -9 -9h-24z" />
    <glyph glyph-name="aJim" unicode="&#x62c;" horiz-adv-x="534" arabic-form="isolated" 
d="M148 0q-26 0 -42.5 -7t-25.5 -19t-12.5 -28t-3.5 -35q0 -44 22.5 -61t62.5 -17h83q9 0 9 -9v-12q0 -9 -9 -9h-73q-66 0 -95.5 27t-29.5 81q0 36 9.5 59.5t25 36.5t36 18t41.5 5h203q32 0 51 6.5t28.5 22t12.5 42.5t3 68q0 47 -9 87t-29.5 68.5t-53 44.5t-79.5 16
q-38 0 -70.5 -15t-65.5 -47q-8 -8 -12 -3l-11 10q-6 6 -2 13q13 12 29.5 24.5t37 23t45 17.5t54.5 7q63 0 101.5 -23t59.5 -59.5t28 -80.5t7 -86q0 -45 -4 -76.5t-16.5 -51.5t-36.5 -29t-63 -9h-206zM275 -126q-9 0 -9 10v40q0 9 9 9h24q9 0 9 -9v-40q0 -10 -9 -10h-24z" />
    <glyph glyph-name="aHah" unicode="&#x62d;" horiz-adv-x="534" arabic-form="isolated" 
d="M148 0q-26 0 -42.5 -7t-25.5 -19t-12.5 -28t-3.5 -35q0 -44 22.5 -61t62.5 -17h128q9 0 9 -9v-12q0 -9 -9 -9h-118q-66 0 -95.5 27t-29.5 81q0 36 9.5 59.5t25 36.5t36 18t41.5 5h203q32 0 51 6.5t28.5 22t12.5 42.5t3 68q0 47 -9 87t-29.5 68.5t-53 44.5t-79.5 16
q-38 0 -70.5 -15t-65.5 -47q-8 -8 -12 -3l-11 10q-6 6 -2 13q13 12 29.5 24.5t37 23t45 17.5t54.5 7q63 0 101.5 -23t59.5 -59.5t28 -80.5t7 -86q0 -45 -4 -76.5t-16.5 -51.5t-36.5 -29t-63 -9h-206z" />
    <glyph glyph-name="aKhah" unicode="&#x62e;" horiz-adv-x="534" arabic-form="isolated" 
d="M148 0q-26 0 -42.5 -7t-25.5 -19t-12.5 -28t-3.5 -35q0 -44 22.5 -61t62.5 -17h128q9 0 9 -9v-12q0 -9 -9 -9h-118q-66 0 -95.5 27t-29.5 81q0 36 9.5 59.5t25 36.5t36 18t41.5 5h203q32 0 51 6.5t28.5 22t12.5 42.5t3 68q0 47 -9 87t-29.5 68.5t-53 44.5t-79.5 16
q-38 0 -70.5 -15t-65.5 -47q-8 -8 -12 -3l-11 10q-6 6 -2 13q13 12 29.5 24.5t37 23t45 17.5t54.5 7q63 0 101.5 -23t59.5 -59.5t28 -80.5t7 -86q0 -45 -4 -76.5t-16.5 -51.5t-36.5 -29t-63 -9h-206zM253 503q-9 0 -9 9v40q0 9 9 9h24q9 0 9 -9v-40q0 -9 -9 -9h-24z" />
    <glyph glyph-name="aDal" unicode="&#x62f;" horiz-adv-x="484" arabic-form="isolated" 
d="M414 148q0 -42 -6 -70.5t-21.5 -45.5t-42 -24.5t-67.5 -7.5h-203q-9 0 -9 9v12q0 9 9 9h210q33 0 52.5 5.5t30 19t14 36t3.5 55.5v114q0 62 -31 93.5t-109 31.5h-119q-9 0 -9 9v12q0 9 9 9h122q86 0 126.5 -37.5t40.5 -124.5v-105z" />
    <glyph glyph-name="aDhal" unicode="&#x630;" horiz-adv-x="484" arabic-form="isolated" 
d="M414 148q0 -42 -6 -70.5t-21.5 -45.5t-42 -24.5t-67.5 -7.5h-203q-9 0 -9 9v12q0 9 9 9h210q33 0 52.5 5.5t30 19t14 36t3.5 55.5v114q0 62 -31 93.5t-109 31.5h-119q-9 0 -9 9v12q0 9 9 9h122q86 0 126.5 -37.5t40.5 -124.5v-105zM202 503q-9 0 -9 9v40q0 9 9 9h24
q9 0 9 -9v-40q0 -9 -9 -9h-24z" />
    <glyph glyph-name="aReh" unicode="&#x631;" horiz-adv-x="221" arabic-form="isolated" 
d="M8 -197q-9 0 -9 9v12q0 9 9 9h19q42 0 65 21t23 71v463q0 9 9 9h12q9 0 9 -9v-453q0 -60 -28 -96t-91 -36h-18z" />
    <glyph glyph-name="aZeh" unicode="&#x632;" horiz-adv-x="221" arabic-form="isolated" 
d="M8 -197q-9 0 -9 9v12q0 9 9 9h19q42 0 65 21t23 71v463q0 9 9 9h12q9 0 9 -9v-453q0 -60 -28 -96t-91 -36h-18zM120 503q-9 0 -9 9v40q0 9 9 9h24q9 0 9 -9v-40q0 -9 -9 -9h-24z" />
    <glyph glyph-name="aSin" unicode="&#x633;" horiz-adv-x="1032" arabic-form="isolated" 
d="M50 4q0 33 7.5 64t18 56.5t21.5 45.5t19 31q3 4 7 2l19 -11q3 -2 1 -6q-26 -38 -44.5 -84t-18.5 -94q0 -51 18 -85t46 -54t62.5 -28t66.5 -8q91 0 138.5 45t47.5 134v275q0 9 9 9h12q9 0 9 -9v-170q0 -41 17.5 -64t65.5 -23h33q27 0 43.5 5t25.5 16.5t12 29t3 42.5v164
q0 9 9 9h12q9 0 9 -9v-180q0 -36 24 -56.5t70 -20.5h33q27 0 43.5 6t25.5 18.5t11.5 33t2.5 49.5v251q0 9 9 9h12q9 0 9 -9v-264q0 -42 -9.5 -66.5t-24 -37.5t-33 -16.5t-36.5 -3.5h-54q-34 0 -59.5 15t-33.5 36q-11 -22 -31 -36.5t-61 -14.5h-52q-19 0 -41.5 8t-36.5 28
v-19q0 -40 -9.5 -78.5t-34 -68.5t-66.5 -48.5t-107 -18.5q-53 0 -94 15t-69 41.5t-42.5 63.5t-14.5 81z" />
    <glyph glyph-name="aShin" unicode="&#x634;" horiz-adv-x="1032" arabic-form="isolated" 
d="M50 4q0 33 7.5 64t18 56.5t21.5 45.5t19 31q3 4 7 2l19 -11q3 -2 1 -6q-26 -38 -44.5 -84t-18.5 -94q0 -51 18 -85t46 -54t62.5 -28t66.5 -8q91 0 138.5 45t47.5 134v275q0 9 9 9h12q9 0 9 -9v-170q0 -41 17.5 -64t65.5 -23h33q27 0 43.5 5t25.5 16.5t12 29t3 42.5v164
q0 9 9 9h12q9 0 9 -9v-180q0 -36 24 -56.5t70 -20.5h33q27 0 43.5 6t25.5 18.5t11.5 33t2.5 49.5v251q0 9 9 9h12q9 0 9 -9v-264q0 -42 -9.5 -66.5t-24 -37.5t-33 -16.5t-36.5 -3.5h-54q-34 0 -59.5 15t-33.5 36q-11 -22 -31 -36.5t-61 -14.5h-52q-19 0 -41.5 8t-36.5 28
v-19q0 -40 -9.5 -78.5t-34 -68.5t-66.5 -48.5t-107 -18.5q-53 0 -94 15t-69 41.5t-42.5 63.5t-14.5 81zM640 503q-9 0 -9 9v40q0 9 9 9h24q9 0 9 -9v-40q0 -9 -9 -9h-24zM741 503q-9 0 -9 9v40q0 9 9 9h24q9 0 9 -9v-40q0 -9 -9 -9h-24zM690 612q-9 0 -9 9v40q0 9 9 9h24
q9 0 9 -9v-40q0 -9 -9 -9h-24z" />
    <glyph glyph-name="aSad" unicode="&#x635;" horiz-adv-x="1032" arabic-form="isolated" 
d="M50 4q0 33 7.5 64t18 56.5t21.5 45.5t19 31q3 4 7 2l19 -11q3 -2 1 -6q-26 -38 -44.5 -84t-18.5 -94q0 -51 18 -85t46 -54t62.5 -28t66.5 -8q91 0 138.5 45t47.5 134v369q0 9 9 9h12q9 0 9 -9v-42q27 13 58 27t65 24.5t68.5 17.5t67.5 7q77 0 122 -23t68 -58t29.5 -76
t6.5 -76q0 -63 -11 -99.5t-33.5 -55t-57 -23t-80.5 -4.5h-304q-2 -38 -13.5 -73.5t-36.5 -63t-66 -44t-102 -16.5q-53 0 -94 15t-69 41.5t-42.5 63.5t-14.5 81zM747 384q-32 0 -66.5 -7t-68.5 -18.5t-66 -25.5t-57 -27v-276h311q36 0 63 2.5t44.5 17t26.5 45t9 86.5
q0 46 -9 83.5t-31.5 64t-60.5 41t-95 14.5z" />
    <glyph glyph-name="aDad" unicode="&#x636;" horiz-adv-x="1032" arabic-form="isolated" 
d="M50 4q0 33 7.5 64t18 56.5t21.5 45.5t19 31q3 4 7 2l19 -11q3 -2 1 -6q-26 -38 -44.5 -84t-18.5 -94q0 -51 18 -85t46 -54t62.5 -28t66.5 -8q91 0 138.5 45t47.5 134v369q0 9 9 9h12q9 0 9 -9v-42q27 13 58 27t65 24.5t68.5 17.5t67.5 7q77 0 122 -23t68 -58t29.5 -76
t6.5 -76q0 -63 -11 -99.5t-33.5 -55t-57 -23t-80.5 -4.5h-304q-2 -38 -13.5 -73.5t-36.5 -63t-66 -44t-102 -16.5q-53 0 -94 15t-69 41.5t-42.5 63.5t-14.5 81zM747 384q-32 0 -66.5 -7t-68.5 -18.5t-66 -25.5t-57 -27v-276h311q36 0 63 2.5t44.5 17t26.5 45t9 86.5
q0 46 -9 83.5t-31.5 64t-60.5 41t-95 14.5zM743 503q-9 0 -9 9v40q0 9 9 9h24q9 0 9 -9v-40q0 -9 -9 -9h-24z" />
    <glyph glyph-name="aTah" unicode="&#x637;" horiz-adv-x="714" arabic-form="isolated" 
d="M70 30q25 0 39 6t21 17t8.5 26t1.5 32v560q0 10 9 10h12q9 0 9 -9v-333q27 13 58 27t65 24.5t68.5 17.5t67.5 7q77 0 122 -23t68 -58t29.5 -76t6.5 -76q0 -63 -11 -99.5t-33.5 -55t-57 -23t-80.5 -4.5h-282q-19 0 -32.5 2t-26.5 9q-7 -4 -18 -6.5t-23.5 -3.5t-25 -1
h-21.5t-9 9v12q0 9 9 9h26zM481 30q36 0 63 2.5t45 17t27 45t9 86.5q0 46 -9.5 83.5t-32 64t-60.5 41t-95 14.5q-32 0 -66.5 -7.5t-68.5 -18.5t-66 -25.5t-57 -27.5v-211q0 -16 -4.5 -33t-15.5 -31h331z" />
    <glyph glyph-name="aZah" unicode="&#x638;" horiz-adv-x="714" arabic-form="isolated" 
d="M70 30q25 0 39 6t21 17t8.5 26t1.5 32v560q0 10 9 10h12q9 0 9 -9v-333q27 13 58 27t65 24.5t68.5 17.5t67.5 7q77 0 122 -23t68 -58t29.5 -76t6.5 -76q0 -63 -11 -99.5t-33.5 -55t-57 -23t-80.5 -4.5h-282q-19 0 -32.5 2t-26.5 9q-7 -4 -18 -6.5t-23.5 -3.5t-25 -1
h-21.5t-9 9v12q0 9 9 9h26zM481 30q36 0 63 2.5t45 17t27 45t9 86.5q0 46 -9.5 83.5t-32 64t-60.5 41t-95 14.5q-32 0 -66.5 -7.5t-68.5 -18.5t-66 -25.5t-57 -27.5v-211q0 -16 -4.5 -33t-15.5 -31h331zM394 503q-9 0 -9 9v40q0 9 9 9h24q9 0 9 -9v-40q0 -9 -9 -9h-24z" />
    <glyph glyph-name="aAyn" unicode="&#x639;" horiz-adv-x="543" arabic-form="isolated" 
d="M484 30q9 0 9 -9v-12q0 -9 -9 -9h-330q-26 0 -42.5 -7t-25.5 -19t-12.5 -28t-3.5 -35q0 -44 22.5 -61t62.5 -17h128q9 0 9 -9v-12q0 -9 -9 -9h-118q-66 0 -95.5 27t-29.5 81q0 36 9.5 59.5t25 36.5t36 18t41.5 5h35q-26 18 -41.5 41t-24 46.5t-11.5 45t-3 36.5q0 26 7 60
t27.5 65t57.5 52t97 21q54 0 92.5 -21t62.5 -53q5 -6 -1 -10l-12 -11q-6 -5 -12 1q-23 29 -58 46.5t-73 17.5q-42 0 -71.5 -13.5t-49 -36.5t-28.5 -53.5t-9 -65.5q0 -28 7.5 -54.5t21.5 -48.5t33.5 -39t43.5 -26h241z" />
    <glyph glyph-name="aGhayn" unicode="&#x63a;" horiz-adv-x="543" arabic-form="isolated" 
d="M484 30q9 0 9 -9v-12q0 -9 -9 -9h-330q-26 0 -42.5 -7t-25.5 -19t-12.5 -28t-3.5 -35q0 -44 22.5 -61t62.5 -17h128q9 0 9 -9v-12q0 -9 -9 -9h-118q-66 0 -95.5 27t-29.5 81q0 36 9.5 59.5t25 36.5t36 18t41.5 5h35q-26 18 -41.5 41t-24 46.5t-11.5 45t-3 36.5q0 26 7 60
t27.5 65t57.5 52t97 21q54 0 92.5 -21t62.5 -53q5 -6 -1 -10l-12 -11q-6 -5 -12 1q-23 29 -58 46.5t-73 17.5q-42 0 -71.5 -13.5t-49 -36.5t-28.5 -53.5t-9 -65.5q0 -28 7.5 -54.5t21.5 -48.5t33.5 -39t43.5 -26h241zM287 502q-9 0 -9 9v40q0 9 9 9h24q9 0 9 -9v-40
q0 -9 -9 -9h-24z" />
    <glyph glyph-name="aFeh" unicode="&#x641;" horiz-adv-x="909" arabic-form="isolated" 
d="M581 30q-32 25 -46 65t-14 92q0 105 39 166.5t126 61.5q86 0 125.5 -55.5t39.5 -152.5q0 -112 -41.5 -159.5t-123.5 -47.5h-532q-44 0 -71.5 20.5t-27.5 70.5v232q0 9 9 9h12q9 0 9 -9v-224q0 -36 17 -52.5t55 -16.5h424zM686 29q70 0 102 42t32 130q0 82 -31.5 133
t-102.5 51q-70 0 -102.5 -50t-32.5 -134q0 -88 31.5 -130t103.5 -42zM672 503q-9 0 -9 9v40q0 9 9 9h24q9 0 9 -9v-40q0 -9 -9 -9h-24z" />
    <glyph glyph-name="aQaf" unicode="&#x642;" horiz-adv-x="714" arabic-form="isolated" 
d="M645 -75q0 -29 -4 -52t-16.5 -38.5t-35 -23.5t-58.5 -8h-276q-45 0 -82.5 15t-65 42.5t-42.5 67t-15 89.5q0 33 7.5 64t18 56.5t21.5 45.5t19 31q3 4 7 2l19 -11q3 -2 1 -6q-26 -38 -44.5 -84t-18.5 -94t14 -83.5t39 -59t59 -34.5t74 -11h262q25 0 42 3.5t27 13.5t14 28
t4 47v75h-121q-42 0 -75.5 9t-56 31.5t-34.5 59.5t-12 94q0 51 13 92t35.5 69.5t52.5 44t65 15.5q44 0 75 -14.5t50.5 -41.5t28.5 -66.5t9 -89.5v-278zM482 385q-59 0 -97.5 -46t-38.5 -146q0 -89 34 -126t108 -37h127v169q0 88 -30 137t-103 49zM421 503q-9 0 -9 9v40
q0 9 9 9h24q9 0 9 -9v-40q0 -9 -9 -9h-24zM522 503q-9 0 -9 9v40q0 9 9 9h24q9 0 9 -9v-40q0 -9 -9 -9h-24z" />
    <glyph glyph-name="aKaf" unicode="&#x643;" horiz-adv-x="814" arabic-form="isolated" 
d="M433 292q11 0 15 5t4 17v56q0 14 -6 17.5t-22 3.5h-63q-5 0 -5 5v5q0 1 1.5 4t3.5 5l81 96q2 2 4.5 3.5t5.5 -1.5l8 -7q4 -4 -1 -9l-67 -78h40q29 0 35.5 -12.5t6.5 -25.5v-64q0 -26 -10 -34.5t-31 -8.5h-116q-9 0 -9 9v5q0 9 9 9h116zM154 0q-43 0 -71 20.5t-28 70.5
v232q0 9 9 9h12q10 0 10 -9v-224q0 -36 17 -52.5t54 -16.5h466q27 0 43 6t25 18.5t11.5 33t2.5 49.5v535q0 9 9 9h12q9 0 9 -9v-548q0 -42 -9.5 -66.5t-24 -37.5t-33 -16.5t-36.5 -3.5h-478z" />
    <glyph glyph-name="aLam" unicode="&#x644;" horiz-adv-x="568" arabic-form="isolated" 
d="M50 4q0 33 7.5 64t18 56.5t21.5 45.5t19 31q3 4 7 2l19 -11q3 -2 1 -6q-26 -38 -44.5 -84t-18.5 -94q0 -51 18 -85t46 -54t62 -28t67 -8q90 0 137.5 45t47.5 134v660q0 9 9 9h12q9 0 9 -9v-655q0 -40 -10 -78.5t-34.5 -68.5t-67 -48.5t-106.5 -18.5q-53 0 -94 15
t-69 41.5t-42.5 63.5t-14.5 81z" />
    <glyph glyph-name="aMim" unicode="&#x645;" horiz-adv-x="558" arabic-form="isolated" 
d="M334 -7q-60 0 -98 24.5t-59 78.5q-9 -12 -20.5 -18t-24.5 -12t-25.5 -13t-22.5 -18t-16 -28.5t-6 -43.5v-160h-30v181q0 24 7 40.5t18 28.5t24.5 20t27.5 15q23 11 40.5 24.5t19.5 39.5q-1 12 -1.5 25.5t-0.5 29.5q0 98 39 153t128 55q88 0 126.5 -55.5t38.5 -152.5
q0 -112 -41.5 -163t-123.5 -51zM334 385q-72 0 -104.5 -50t-32.5 -134q0 -88 32.5 -133t104.5 -45q70 0 102 45t32 133q0 82 -31.5 133t-102.5 51z" />
    <glyph glyph-name="aNun" unicode="&#x646;" horiz-adv-x="565" arabic-form="isolated" 
d="M50 4q0 33 7.5 64t18 56.5t21.5 45.5t19 31q3 4 7 2l19 -11q3 -2 1 -6q-26 -38 -44.5 -84t-18.5 -94q0 -51 18 -85t46 -54t62 -28t67 -8q90 0 138.5 45t48.5 134v275q0 9 9 9h12q9 0 9 -9v-270q0 -40 -10 -78.5t-35.5 -68.5t-68 -48.5t-106.5 -18.5q-53 0 -94 15
t-69 41.5t-42.5 63.5t-14.5 81zM276 291q-9 0 -9 9v40q0 9 9 9h24q9 0 9 -9v-40q0 -9 -9 -9h-24z" />
    <glyph glyph-name="aWaw" unicode="&#x648;" horiz-adv-x="475" arabic-form="isolated" 
d="M405 -75q0 -27 -5 -49.5t-16.5 -38.5t-30.5 -25t-48 -9h-155q-9 0 -9 9v12q0 9 9 9h153q37 0 54.5 19.5t17.5 72.5v75h-120q-43 0 -76 9t-56 31.5t-35 59.5t-12 94q0 51 13 92t35.5 69.5t53 44t65.5 15.5q88 0 125 -55.5t37 -156.5v-278zM243 385q-60 0 -98.5 -46
t-38.5 -146q0 -89 34 -126t109 -37h126v169q0 88 -29.5 137t-102.5 49z" />
    <glyph glyph-name="aAlifMaksura" unicode="&#x649;" horiz-adv-x="753" arabic-form="isolated" 
d="M655 -94q0 -51 -29.5 -77t-85.5 -26h-257q-115 0 -174 57t-59 157q0 33 6.5 62.5t16 54t21 44.5t21.5 35q4 5 9 2l11 -7q6 -3 2 -9q-9 -15 -19.5 -33t-19.5 -40.5t-15 -48.5t-6 -56q0 -91 54.5 -139.5t148.5 -48.5h245q31 0 51 5t30.5 14.5t14.5 22.5t4 29q0 17 -9 33.5
t-23 32.5t-32 30.5t-36 28.5q-23 17 -46 36.5t-41.5 41t-30 47t-11.5 54.5q0 17 6 39t21.5 41.5t42.5 33t69 13.5q33 0 59.5 -8t46.5 -19.5t33.5 -22.5t19.5 -17q4 -3 1 -8l-13 -16q-4 -2 -10 3q-26 24 -58.5 41t-82.5 17q-44 0 -74.5 -24.5t-30.5 -74.5q0 -24 10 -44.5
t26 -39t37 -36t42 -33.5q22 -17 42.5 -33.5t36.5 -34.5t25.5 -37.5t9.5 -41.5z" />
    <glyph glyph-name="aYeh" unicode="&#x64a;" horiz-adv-x="753" arabic-form="isolated" 
d="M655 -19q0 -51 -29.5 -77t-85.5 -26h-257q-115 0 -174 57t-59 157q0 33 6.5 62.5t16 54t21 44.5t21.5 35q4 5 9 2l11 -7q6 -3 2 -9q-9 -15 -19.5 -33t-19.5 -40.5t-15 -48.5t-6 -56q0 -91 54.5 -139.5t148.5 -48.5h245q31 0 51 5t30.5 14.5t14.5 22.5t4 29q0 17 -9 33.5
t-23 32.5t-32 30.5t-36 28.5q-23 17 -46 36.5t-41.5 41t-30 47t-11.5 54.5q0 17 6 39t21.5 41.5t42.5 33t69 13.5q33 0 59.5 -8t46.5 -19.5t33.5 -22.5t19.5 -17q4 -3 1 -8l-13 -16q-4 -2 -10 3q-26 24 -58.5 41t-82.5 17q-44 0 -74.5 -24.5t-30.5 -74.5q0 -24 10 -44.5
t26 -39t37 -36t42 -33.5q22 -17 42.5 -33.5t36.5 -34.5t25.5 -37.5t9.5 -41.5zM283 -245q-9 0 -9 9v41q0 9 9 9h24q9 0 9 -9v-41q0 -9 -9 -9h-24zM384 -245q-9 0 -9 9v41q0 9 9 9h24q9 0 9 -9v-41q0 -9 -9 -9h-24z" />
    <glyph glyph-name="aAlifWasla" unicode="&#x671;" horiz-adv-x="192" arabic-form="isolated" 
d="M90 0q-9 0 -9 9v663q0 9 9 9h12q9 0 9 -9v-663q0 -9 -9 -9h-12zM8 782q8 0 9.5 6t1.5 14v89q0 6 5 6h12q5 0 5 -6v-14q14 7 34.5 13.5t39.5 6.5q40 0 58.5 -19.5t18.5 -54.5q0 -33 -12.5 -47t-44.5 -14h-139q-6 0 -6 6v8q0 6 6 6h12zM115 875q-23 0 -40 -5.5t-34 -13.5
v-49q0 -4 -1 -12.5t-3 -12.5h97q21 0 29 7.5t8 33.5q0 24 -14 38t-42 14z" />
    <glyph glyph-name="aTteh" unicode="&#x679;" horiz-adv-x="811" arabic-form="isolated" 
d="M154 0q-43 0 -71 20.5t-28 70.5v232q0 9 9 9h11q10 0 10 -9v-224q0 -36 17 -52.5t54 -16.5h469q27 0 43 6t25 18.5t11.5 33t2.5 49.5v251q0 9 9 9h12q9 0 9 -9v-264q0 -42 -9.5 -66.5t-24 -37.5t-33 -16.5t-36.5 -3.5h-480zM298 460q8 0 9.5 6t1.5 14v173q0 6 5 6h12
q5 0 5 -6v-98q14 7 34.5 13.5t39.5 6.5q40 0 58.5 -19.5t18.5 -54.5q0 -33 -12.5 -47t-44.5 -14h-139q-6 0 -6 6v8q0 6 6 6h12zM405 553q-23 0 -40 -5.5t-34 -13.5v-49q0 -4 -1 -12.5t-3 -12.5h97q21 0 29 7.5t8 33.5q0 23 -14 37.5t-42 14.5z" />
    <glyph glyph-name="aPeh" unicode="&#x67e;" horiz-adv-x="811" arabic-form="isolated" 
d="M154 0q-43 0 -71 20.5t-28 70.5v232q0 9 9 9h11q10 0 10 -9v-224q0 -36 17 -52.5t54 -16.5h469q27 0 43 6t25 18.5t11.5 33t2.5 49.5v251q0 9 9 9h12q9 0 9 -9v-264q0 -42 -9.5 -66.5t-24 -37.5t-33 -16.5t-36.5 -3.5h-480zM329 -145q-9 0 -9 9v41q0 9 9 9h24q9 0 9 -9
v-41q0 -9 -9 -9h-24zM430 -145q-9 0 -9 9v41q0 9 9 9h24q9 0 9 -9v-41q0 -9 -9 -9h-24zM379 -249q-9 0 -9 9v40q0 9 9 9h24q9 0 9 -9v-40q0 -9 -9 -9h-24z" />
    <glyph glyph-name="aTcheh" unicode="&#x686;" horiz-adv-x="534" arabic-form="isolated" 
d="M271 -104q-6 0 -6 6v30q0 7 6 7h18q7 0 7 -7v-30q0 -6 -7 -6h-18zM346 -104q-6 0 -6 6v30q0 7 6 7h18q7 0 7 -7v-30q0 -6 -7 -6h-18zM309 -183q-7 0 -7 6v30q0 7 7 7h18q6 0 6 -7v-30q0 -6 -6 -6h-18zM159 -197q-66 0 -95.5 27t-29.5 81q0 36 9.5 59.5t25 36.5t36 18
t41.5 5h203q32 0 51 6.5t28.5 22t12.5 42.5t3 68q0 47 -9 87t-29.5 68.5t-53 44.5t-79.5 16q-38 0 -70.5 -15t-65.5 -47q-8 -8 -12 -3l-11 10q-6 6 -2 13q13 12 29.5 24.5t37 23t45 17.5t54.5 7q63 0 101.5 -23t59.5 -59.5t28 -80.5t7 -86q0 -45 -4 -76.5t-16.5 -51.5
t-36.5 -29t-63 -9h-206q-26 0 -42.5 -7t-25.5 -19t-12.5 -28t-3.5 -35q0 -44 22.5 -61t62.5 -17h83q9 0 9 -9v-12q0 -9 -9 -9h-73z" />
    <glyph glyph-name="aDdal" unicode="&#x688;" horiz-adv-x="484" arabic-form="isolated" 
d="M414 148q0 -42 -6 -70.5t-21.5 -45.5t-42 -24.5t-67.5 -7.5h-203q-9 0 -9 9v12q0 9 9 9h210q33 0 52.5 5.5t30 19t14 36t3.5 55.5v114q0 62 -31 93.5t-109 31.5h-119q-9 0 -9 9v12q0 9 9 9h122q86 0 126.5 -37.5t40.5 -124.5v-105zM123 526q8 0 9.5 6t1.5 14v173q0 6 5 6
h12q5 0 5 -6v-98q14 7 34.5 13.5t39.5 6.5q40 0 58.5 -19.5t18.5 -54.5q0 -33 -12.5 -47t-44.5 -14h-139q-6 0 -6 6v8q0 6 6 6h12zM230 619q-23 0 -40 -5.5t-34 -13.5v-49q0 -4 -1 -12.5t-3 -12.5h97q21 0 29 7.5t8 33.5q0 23 -14 37.5t-42 14.5z" />
    <glyph glyph-name="aRreh" unicode="&#x691;" horiz-adv-x="221" arabic-form="isolated" 
d="M8 -197q-9 0 -9 9v12q0 9 9 9h19q42 0 65 21t23 71v463q0 9 9 9h12q9 0 9 -9v-453q0 -60 -28 -96t-91 -36h-18zM47 526q8 0 9.5 6t1.5 14v173q0 6 5 6h12q5 0 5 -6v-98q14 7 34.5 13.5t39.5 6.5q40 0 58.5 -19.5t18.5 -54.5q0 -33 -12.5 -47t-44.5 -14h-139q-6 0 -6 6v8
q0 6 6 6h12zM154 619q-23 0 -40 -5.5t-34 -13.5v-49q0 -4 -1 -12.5t-3 -12.5h97q21 0 29 7.5t8 33.5q0 23 -14 37.5t-42 14.5z" />
    <glyph glyph-name="aJeh" unicode="&#x698;" horiz-adv-x="221" arabic-form="isolated" 
d="M8 -197q-9 0 -9 9v12q0 9 9 9h19q42 0 65 21t23 71v463q0 9 9 9h12q9 0 9 -9v-453q0 -60 -28 -96t-91 -36h-18zM69 503q-9 0 -9 9v40q0 9 9 9h24q9 0 9 -9v-40q0 -9 -9 -9h-24zM170 503q-9 0 -9 9v40q0 9 9 9h24q9 0 9 -9v-40q0 -9 -9 -9h-24zM119 612q-9 0 -9 9v40
q0 9 9 9h24q9 0 9 -9v-40q0 -9 -9 -9h-24z" />
    <glyph glyph-name="aVeh" unicode="&#x6a4;" horiz-adv-x="909" arabic-form="isolated" 
d="M581 30q-32 25 -46 65t-14 92q0 105 39 166.5t126 61.5q86 0 125.5 -55.5t39.5 -152.5q0 -112 -41.5 -159.5t-123.5 -47.5h-532q-44 0 -71.5 20.5t-27.5 70.5v232q0 9 9 9h12q9 0 9 -9v-224q0 -36 17 -52.5t55 -16.5h424zM686 29q70 0 102 42t32 130q0 82 -31.5 133
t-102.5 51q-70 0 -102.5 -50t-32.5 -134q0 -88 31.5 -130t103.5 -42zM618 503q-9 0 -9 9v40q0 9 9 9h24q9 0 9 -9v-40q0 -9 -9 -9h-24zM719 503q-9 0 -9 9v40q0 9 9 9h24q9 0 9 -9v-40q0 -9 -9 -9h-24zM668 612q-9 0 -9 9v40q0 9 9 9h24q9 0 9 -9v-40q0 -9 -9 -9h-24z" />
    <glyph glyph-name="aKeheh" unicode="&#x6a9;" horiz-adv-x="806" arabic-form="isolated" 
d="M144 0q-43 0 -71 20.5t-28 70.5v232q0 9 9 9h12q9 0 9 -9v-224q0 -36 17.5 -52.5t54.5 -16.5h473q33 0 52 5.5t29.5 19t13.5 36t3 55.5v96q0 62 -30 93.5t-108 31.5h-174q-9 0 -9 9v12q0 5 1.5 8.5t6.5 9.5l215 252q6 6 12 3l11 -9q6 -4 2 -10l-208 -245h146
q86 0 125.5 -38t39.5 -124v-87q0 -42 -5.5 -70.5t-20.5 -45.5t-41.5 -24.5t-67.5 -7.5h-469z" />
    <glyph glyph-name="aGaf" unicode="&#x6af;" horiz-adv-x="806" arabic-form="isolated" 
d="M144 0q-43 0 -71 20.5t-28 70.5v232q0 9 9 9h12q9 0 9 -9v-224q0 -36 17.5 -52.5t54.5 -16.5h473q33 0 52 5.5t29.5 19t13.5 36t3 55.5v96q0 62 -30 93.5t-108 31.5h-174q-9 0 -9 9v12q0 5 1.5 8.5t6.5 9.5l215 252q6 6 12 3l11 -9q6 -4 2 -10l-208 -245h146
q86 0 125.5 -38t39.5 -124v-87q0 -42 -5.5 -70.5t-20.5 -45.5t-41.5 -24.5t-67.5 -7.5h-469zM360 441q-5 -6 -10 -1l-12 11q-3 3 -1 9l218 255q6 8 12 2l12 -10q2 -2 3 -4t-2 -5z" />
    <glyph glyph-name="aNunGhunna" unicode="&#x6ba;" horiz-adv-x="565" arabic-form="isolated" 
d="M50 4q0 33 7.5 64t18 56.5t21.5 45.5t19 31q3 4 7 2l19 -11q3 -2 1 -6q-26 -38 -44.5 -84t-18.5 -94q0 -51 18 -85t46 -54t62 -28t67 -8q90 0 138.5 45t48.5 134v275q0 9 9 9h12q9 0 9 -9v-270q0 -40 -10 -78.5t-35.5 -68.5t-68 -48.5t-106.5 -18.5q-53 0 -94 15
t-69 41.5t-42.5 63.5t-14.5 81z" />
    <glyph glyph-name="aHehDoachashmi" unicode="&#x6be;" horiz-adv-x="602" arabic-form="isolated" 
d="M147 30q-20 21 -30 50.5t-10 63.5q0 66 37 103t94 37q62 0 96 -37.5t34 -102.5q0 -26 -4 -46t-10 -34t-12 -22.5t-10 -11.5h36q49 0 78 12t44 33t19 50t4 62q0 52 -16.5 89.5t-45 61.5t-68 35.5t-84.5 11.5q-51 0 -90.5 -12t-74.5 -32q-3 -2 -6.5 -3.5t-5.5 2.5v-1l-7 13
q-7 11 0 15h-1q51 26 97 37t91 11q68 0 114.5 -19.5t74.5 -52t40 -73.5t12 -83q0 -47 -8 -82t-28 -58.5t-54.5 -35t-87.5 -11.5h-297q-17 0 -22 -5.5t-5 -21.5v-24q0 -9 -9 -9h-12q-10 0 -10 9v35q0 23 13.5 34.5t36.5 11.5h87zM237 254q-28 0 -47 -10.5t-31 -27t-17 -36
t-5 -36.5q0 -35 9 -57.5t23.5 -35t32 -17t34.5 -4.5q21 0 39.5 3.5t32.5 15.5t22 34.5t8 60.5q0 21 -5 41t-16.5 35.5t-31 24.5t-48.5 9z" />
    <glyph glyph-name="aHehGoal" unicode="&#x6c1;" horiz-adv-x="435" arabic-form="isolated" 
d="M210 22q71 0 103 45.5t32 133.5q0 41 -7.5 75t-24 58t-42 37.5t-61.5 13.5q-70 0 -102 -50t-32 -134q0 -88 31 -133.5t103 -45.5zM210 -7q-44 0 -75 14.5t-51 40t-29 61t-9 78.5q0 105 39 166.5t125 61.5q88 0 126.5 -55.5t38.5 -152.5q0 -112 -41 -163t-124 -51z" />
    <glyph glyph-name="aHehGoalHamzaabove.fina" unicode="&#x6c2;" horiz-adv-x="448" 
d="M448 30q20 0 29.5 -2.5t9.5 -12.5t-9.5 -12.5t-29.5 -2.5h-51q-43 0 -70.5 20.5t-27.5 70.5v276h-84q-77 0 -110.5 -40.5t-33.5 -117.5v-200q0 -9 -9 -9h-12q-9 0 -9 9v201q0 58 15.5 94.5t41 57t58 28t66.5 7.5h98q9 0 9 -9v-289q0 -36 17 -52.5t54 -16.5h48zM155 520
q-8 14 -14.5 30t-6.5 41q0 11 4 26.5t14 30t27.5 24.5t45.5 10q23 0 42.5 -10t32.5 -27q3 -3 -1 -7l-11 -10q-6 -2 -9 2q-13 14 -25.5 20.5t-30.5 6.5q-29 0 -45.5 -18.5t-16.5 -47.5q0 -26 9 -43t20 -28h113q5 0 5 -6v-14q0 -6 -5 -6h-188q-5 0 -5 6v14q0 6 5 6h40z" />
    <glyph glyph-name="aTehMarbutaGoal.fina" unicode="&#x6c3;" horiz-adv-x="445" 
d="M315 415v44q0 9 9 9h12q9 0 9 -9v-359q0 -42 15 -56t44 -14h41q20 0 29.5 -2t9.5 -13t-9.5 -13t-29.5 -2h-48q-12 0 -26 3t-26.5 12.5t-21 28t-8.5 50.5q-17 -19 -44.5 -31.5t-77.5 -12.5q-151 0 -151 174q0 102 41.5 146.5t118.5 44.5h113zM193 80q37 0 60.5 6.5
t37 18.5t19 29t5.5 37v216h-118q-65 0 -95 -39.5t-30 -120.5q0 -73 29 -110t92 -37zM143 537q-9 0 -9 9v40q0 9 9 9h24q9 0 9 -9v-40q0 -9 -9 -9h-24zM244 537q-9 0 -9 9v40q0 9 9 9h24q9 0 9 -9v-40q0 -9 -9 -9h-24z" />
    <glyph glyph-name="aYehFarsi" unicode="&#x6cc;" horiz-adv-x="753" arabic-form="isolated" 
d="M655 -94q0 -51 -29.5 -77t-85.5 -26h-257q-115 0 -174 57t-59 157q0 33 6.5 62.5t16 54t21 44.5t21.5 35q4 5 9 2l11 -7q6 -3 2 -9q-9 -15 -19.5 -33t-19.5 -40.5t-15 -48.5t-6 -56q0 -91 54.5 -139.5t148.5 -48.5h245q31 0 51 5t30.5 14.5t14.5 22.5t4 29q0 17 -9 33.5
t-23 32.5t-32 30.5t-36 28.5q-23 17 -46 36.5t-41.5 41t-30 47t-11.5 54.5q0 17 6 39t21.5 41.5t42.5 33t69 13.5q33 0 59.5 -8t46.5 -19.5t33.5 -22.5t19.5 -17q4 -3 1 -8l-13 -16q-4 -2 -10 3q-26 24 -58.5 41t-82.5 17q-44 0 -74.5 -24.5t-30.5 -74.5q0 -24 10 -44.5
t26 -39t37 -36t42 -33.5q22 -17 42.5 -33.5t36.5 -34.5t25.5 -37.5t9.5 -41.5z" />
    <glyph glyph-name="aYehBarri" unicode="&#x6d2;" horiz-adv-x="727" arabic-form="isolated" 
d="M309 348q-30 -37 -67.5 -60.5t-73.5 -43.5q-24 -12 -45 -24.5t-37 -27t-25.5 -32t-9.5 -39.5q0 -16 5.5 -32t20.5 -29t40.5 -21.5t65.5 -8.5h516q9 0 9 -9v-12q0 -9 -9 -9h-508q-54 0 -87 10.5t-51.5 27.5t-25 38.5t-6.5 44.5q0 30 11.5 51.5t30 39t42.5 31t50 27.5
q38 20 72.5 42t57.5 55q5 6 11 2l14 -9q5 -4 -1 -12z" />
    <glyph glyph-name="aYehBarriHamzaabove" unicode="&#x6d3;" horiz-adv-x="727" arabic-form="isolated" 
d="M309 348q-30 -37 -67.5 -60.5t-73.5 -43.5q-24 -12 -45 -24.5t-37 -27t-25.5 -32t-9.5 -39.5q0 -16 5.5 -32t20.5 -29t40.5 -21.5t65.5 -8.5h516q9 0 9 -9v-12q0 -9 -9 -9h-508q-54 0 -87 10.5t-51.5 27.5t-25 38.5t-6.5 44.5q0 30 11.5 51.5t30 39t42.5 31t50 27.5
q38 20 72.5 42t57.5 55q5 6 11 2l14 -9q5 -4 -1 -12zM60 395q-8 14 -14.5 30t-6.5 41q0 11 4 26.5t14 30t27.5 24.5t45.5 10q23 0 42.5 -10t32.5 -27q3 -3 -1 -7l-11 -10q-6 -2 -9 2q-13 14 -25.5 20.5t-30.5 6.5q-29 0 -45.5 -18.5t-16.5 -47.5q0 -26 9 -43t20 -28h113
q5 0 5 -6v-14q0 -6 -5 -6h-188q-5 0 -5 6v14q0 6 5 6h40z" />
    <glyph glyph-name="aAe.fina" unicode="&#x6d5;" horiz-adv-x="445" 
d="M315 415v44q0 9 9 9h12q9 0 9 -9v-359q0 -42 15 -56t44 -14h41q20 0 29.5 -2t9.5 -13t-9.5 -13t-29.5 -2h-48q-12 0 -26 3t-26.5 12.5t-21 28t-8.5 50.5q-17 -19 -44.5 -31.5t-77.5 -12.5q-151 0 -151 174q0 102 41.5 146.5t118.5 44.5h113zM193 80q37 0 60.5 6.5
t37 18.5t19 29t5.5 37v216h-118q-65 0 -95 -39.5t-30 -120.5q0 -73 29 -110t92 -37z" />
    <glyph glyph-name="aAlifWasla.fina" unicode="&#x671;" horiz-adv-x="218" arabic-form="final" 
d="M81 672q0 9 9 9h12q9 0 9 -9v-573q0 -36 17 -52.5t54 -16.5h37q39 0 39 -13q0 -17 -39 -17h-40q-43 0 -70.5 20.5t-27.5 70.5v581zM18 782q8 0 9.5 6t1.5 14v89q0 6 5 6h12q5 0 5 -6v-14q14 7 34.5 13.5t39.5 6.5q40 0 58.5 -19.5t18.5 -54.5q0 -33 -12.5 -47t-44.5 -14
h-139q-6 0 -6 6v8q0 6 6 6h12zM125 875q-23 0 -40 -5.5t-34 -13.5v-49q0 -4 -1 -12.5t-3 -12.5h97q21 0 29 7.5t8 33.5q0 24 -14 38t-42 14z" />
    <glyph glyph-name="aPeh.fina" unicode="&#x67e;" horiz-adv-x="837" arabic-form="final" 
d="M154 0q-44 0 -71.5 20.5t-27.5 70.5v232q0 9 9 9h12q9 0 9 -9v-224q0 -36 17 -52.5t55 -16.5h466q27 0 43 6t25 18.5t11.5 33t2.5 49.5v251q0 9 9 9h12q9 0 9 -9v-273q0 -44 28.5 -64.5t76.5 -20.5q20 0 29.5 -2.5t9.5 -12.5q0 -9 -9.5 -12t-29.5 -3q-53 0 -79 17.5
t-35 34.5q-7 -18 -17.5 -28t-23.5 -15.5t-26.5 -7t-26.5 -1.5h-478zM331 -145q-9 0 -9 9v41q0 9 9 9h24q9 0 9 -9v-41q0 -9 -9 -9h-24zM432 -145q-9 0 -9 9v41q0 9 9 9h24q9 0 9 -9v-41q0 -9 -9 -9h-24zM381 -249q-9 0 -9 9v40q0 9 9 9h24q9 0 9 -9v-40q0 -9 -9 -9h-24z" />
    <glyph glyph-name="aPeh.init" unicode="&#x67e;" horiz-adv-x="242" arabic-form="initial" 
d="M54 30q27 0 43 6t25 18.5t11.5 33t2.5 49.5v251q0 9 9 9h13q9 0 9 -9v-264q0 -42 -9.5 -66.5t-24.5 -37.5t-33.5 -16.5t-36.5 -3.5h-77q-10 0 -17.5 3t-7.5 11q0 11 9.5 13.5t29.5 2.5h54zM75 -145q-9 0 -9 9v41q0 9 9 9h24q9 0 9 -9v-41q0 -9 -9 -9h-24zM176 -145
q-9 0 -9 9v41q0 9 9 9h24q9 0 9 -9v-41q0 -9 -9 -9h-24zM125 -249q-9 0 -9 9v40q0 9 9 9h24q9 0 9 -9v-40q0 -9 -9 -9h-24z" />
    <glyph glyph-name="aPeh.medi" unicode="&#x67e;" horiz-adv-x="291" arabic-form="medial" 
d="M77 30q27 0 43 6t25 18.5t11.5 33t2.5 49.5v251q0 9 9 9h12q9 0 9 -9v-273q0 -44 28 -64.5t75 -20.5q20 0 29.5 -2.5t9.5 -12.5q0 -9 -9.5 -12t-29.5 -3q-52 0 -78.5 17.5t-35.5 34.5q-7 -18 -17.5 -28t-23.5 -15.5t-26.5 -7t-26.5 -1.5h-98q-10 0 -17.5 3t-7.5 11
q0 11 9.5 13.5t29.5 2.5h77zM113 -145q-9 0 -9 9v41q0 9 9 9h24q9 0 9 -9v-41q0 -9 -9 -9h-24zM214 -145q-9 0 -9 9v41q0 9 9 9h24q9 0 9 -9v-41q0 -9 -9 -9h-24zM163 -249q-9 0 -9 9v40q0 9 9 9h24q9 0 9 -9v-40q0 -9 -9 -9h-24z" />
    <glyph glyph-name="aTteh.fina" unicode="&#x679;" horiz-adv-x="837" arabic-form="final" 
d="M154 0q-44 0 -71.5 20.5t-27.5 70.5v232q0 9 9 9h12q9 0 9 -9v-224q0 -36 17 -52.5t55 -16.5h466q27 0 43 6t25 18.5t11.5 33t2.5 49.5v251q0 9 9 9h12q9 0 9 -9v-273q0 -44 28.5 -64.5t76.5 -20.5q20 0 29.5 -2.5t9.5 -12.5q0 -9 -9.5 -12t-29.5 -3q-53 0 -79 17.5
t-35 34.5q-7 -18 -17.5 -28t-23.5 -15.5t-26.5 -7t-26.5 -1.5h-478zM298 460q8 0 9.5 6t1.5 14v173q0 6 5 6h12q5 0 5 -6v-98q14 7 34.5 13.5t39.5 6.5q40 0 58.5 -19.5t18.5 -54.5q0 -33 -12.5 -47t-44.5 -14h-139q-6 0 -6 6v8q0 6 6 6h12zM405 553q-23 0 -40 -5.5
t-34 -13.5v-49q0 -4 -1 -12.5t-3 -12.5h97q21 0 29 7.5t8 33.5q0 23 -14 37.5t-42 14.5z" />
    <glyph glyph-name="aTteh.init" unicode="&#x679;" horiz-adv-x="247" arabic-form="initial" 
d="M54 30q27 0 43 6t25 18.5t11.5 33t2.5 49.5v251q0 9 9 9h13q9 0 9 -9v-264q0 -42 -9.5 -66.5t-24.5 -37.5t-33.5 -16.5t-36.5 -3.5h-77q-10 0 -17.5 3t-7.5 11q0 11 9.5 13.5t29.5 2.5h54zM58 526q8 0 9.5 6t1.5 14v173q0 6 5 6h12q5 0 5 -6v-98q14 7 34.5 13.5t39.5 6.5
q40 0 58.5 -19.5t18.5 -54.5q0 -33 -12.5 -47t-44.5 -14h-139q-6 0 -6 6v8q0 6 6 6h12zM165 619q-23 0 -40 -5.5t-34 -13.5v-49q0 -4 -1 -12.5t-3 -12.5h97q21 0 29 7.5t8 33.5q0 23 -14 37.5t-42 14.5z" />
    <glyph glyph-name="aTteh.medi" unicode="&#x679;" horiz-adv-x="291" arabic-form="medial" 
d="M77 30q27 0 43 6t25 18.5t11.5 33t2.5 49.5v251q0 9 9 9h12q9 0 9 -9v-273q0 -44 27.5 -64.5t74.5 -20.5q20 0 29.5 -2.5t9.5 -12.5q0 -9 -9.5 -12t-29.5 -3q-52 0 -78 17.5t-35 34.5q-7 -18 -17.5 -28t-23.5 -15.5t-26.5 -7t-26.5 -1.5h-98q-10 0 -17.5 3t-7.5 11
q0 11 9.5 13.5t29.5 2.5h77zM90 526q8 0 9.5 6t1.5 14v173q0 6 5 6h12q5 0 5 -6v-98q14 7 34.5 13.5t39.5 6.5q40 0 58.5 -19.5t18.5 -54.5q0 -33 -12.5 -47t-44.5 -14h-139q-6 0 -6 6v8q0 6 6 6h12zM197 619q-23 0 -40 -5.5t-34 -13.5v-49q0 -4 -1 -12.5t-3 -12.5h97
q21 0 29 7.5t8 33.5q0 23 -14 37.5t-42 14.5z" />
    <glyph glyph-name="aVeh.fina" unicode="&#x6a4;" horiz-adv-x="946" arabic-form="final" 
d="M712 385q-32 0 -59.5 -10.5t-47.5 -30t-31.5 -48t-11.5 -64.5q0 -34 12 -64t33 -55t48 -43.5t57 -28.5q29 10 56 28.5t48 43.5t34 55t13 64q0 33 -11.5 61.5t-32 48.5t-48 31.5t-59.5 11.5zM628 30q6 0 15 1t17 3q-24 13 -47 32.5t-41 44.5t-29 55.5t-11 65.5
q0 34 11 66.5t33.5 58.5t56.5 42t79 16q41 0 74.5 -14t57.5 -39t37 -58t13 -71q0 -35 -12 -65.5t-30.5 -56.5t-42 -46.5t-47.5 -33.5q16 -1 40 -1h40h107q20 0 29.5 -3t9.5 -12q0 -8 -8 -11.5t-31 -3.5h-107q-36 0 -69 3.5t-60 14.5q-15 -7 -33 -10.5t-36.5 -5t-36.5 -2
t-32 -0.5h-421q-44 0 -71.5 20.5t-27.5 70.5v232q0 9 9 9h12q9 0 9 -9v-224q0 -36 17 -52.5t55 -16.5h471zM644 503q-9 0 -9 9v40q0 9 9 9h24q9 0 9 -9v-40q0 -9 -9 -9h-24zM745 503q-9 0 -9 9v40q0 9 9 9h24q9 0 9 -9v-40q0 -9 -9 -9h-24zM694 612q-9 0 -9 9v40q0 9 9 9h24
q9 0 9 -9v-40q0 -9 -9 -9h-24z" />
    <glyph glyph-name="aVeh.init" unicode="&#x6a4;" horiz-adv-x="503" arabic-form="initial" 
d="M174 30q-32 25 -46 65t-14 92q0 105 39 166.5t126 61.5q86 0 125 -55.5t39 -152.5q0 -112 -41 -159.5t-123 -47.5h-279q-21 0 -34 2t-13 13t13.5 13t33.5 2h174zM279 29q70 0 102 42t32 130q0 82 -31.5 133t-102.5 51t-103 -50.5t-32 -133.5q0 -88 31.5 -130t103.5 -42z
M211 503q-9 0 -9 9v40q0 9 9 9h24q9 0 9 -9v-40q0 -9 -9 -9h-24zM312 503q-9 0 -9 9v40q0 9 9 9h24q9 0 9 -9v-40q0 -9 -9 -9h-24zM261 612q-9 0 -9 9v40q0 9 9 9h24q9 0 9 -9v-40q0 -9 -9 -9h-24z" />
    <glyph glyph-name="aVeh.medi" unicode="&#x6a4;" horiz-adv-x="469" arabic-form="medial" 
d="M233 415q42 0 75.5 -14t57 -39t36.5 -58t13 -71q0 -35 -12 -66t-30.5 -57t-42 -46.5t-47.5 -32.5q16 -1 40.5 -1h40.5h106q20 0 30 -3t10 -12q0 -8 -8 -11.5t-32 -3.5h-106q-36 0 -69 3.5t-61 14.5q-15 -7 -32.5 -10.5t-36 -5t-36.5 -2t-32 -0.5h-97q-40 0 -40 14
q0 10 9.5 13t30.5 3h149q6 0 15 1t17 3q-24 12 -47 31.5t-41 44.5t-28.5 55.5t-10.5 66.5q0 34 11 66.5t33.5 58.5t56 42t78.5 16zM233 385q-32 0 -59.5 -10.5t-47.5 -30t-31 -48t-11 -64.5q0 -34 12 -64t32.5 -55t47.5 -43.5t57 -28.5q29 10 56.5 28.5t48.5 43.5t34 55
t13 64q0 33 -11.5 61.5t-32 48.5t-48 31.5t-60.5 11.5zM172 503q-9 0 -9 9v40q0 9 9 9h24q9 0 9 -9v-40q0 -9 -9 -9h-24zM273 503q-9 0 -9 9v40q0 9 9 9h24q9 0 9 -9v-40q0 -9 -9 -9h-24zM222 612q-9 0 -9 9v40q0 9 9 9h24q9 0 9 -9v-40q0 -9 -9 -9h-24z" />
    <glyph glyph-name="aTcheh.fina" unicode="&#x686;" horiz-adv-x="570" arabic-form="final" 
d="M270 -104q-6 0 -6 6v30q0 7 6 7h19q7 0 7 -7v-30q0 -6 -7 -6h-19zM346 -104q-6 0 -6 6v30q0 7 6 7h18q7 0 7 -7v-30q0 -6 -7 -6h-18zM309 -183q-7 0 -7 6v30q0 7 7 7h18q6 0 6 -7v-30q0 -6 -6 -6h-18zM159 -197q-66 0 -96 27t-30 81q0 36 9.5 59.5t25.5 36.5t36.5 18
t41.5 5h197q32 0 51 6.5t28.5 22t12.5 42.5t3 68q0 47 -9 87t-29 68.5t-52.5 44.5t-78.5 16q-40 0 -72.5 -15t-65.5 -47q-8 -8 -12 -3l-11 10q-6 6 -2 13q13 12 29.5 24.5t36.5 23t45 17.5t54 7q63 0 102 -23t60 -59.5t28 -80.5t7 -86q0 -15 -0.5 -30.5t-1.5 -28.5
q1 -32 24 -54.5t60 -22.5h21q20 0 29.5 -2t9.5 -14q0 -10 -9.5 -12t-29.5 -2q-41 0 -70.5 10t-45.5 43q-11 -28 -35.5 -40.5t-71.5 -12.5h-200q-26 0 -42.5 -7t-25.5 -19t-12.5 -28t-3.5 -35q0 -44 22.5 -61t62.5 -17h83q9 0 9 -9v-12q0 -9 -9 -9h-73z" />
    <glyph glyph-name="aTcheh.init" unicode="&#x686;" horiz-adv-x="506" arabic-form="initial" 
d="M245 385q-38 0 -70.5 -15t-65.5 -47q-8 -8 -12 -3l-11 10q-6 6 -2 13q13 12 29.5 24.5t37 23t45 17.5t54.5 7q63 0 101.5 -23t59.5 -59.5t28 -80.5t7 -86q0 -45 -4 -76.5t-16.5 -51.5t-36.5 -29t-63 -9h-326q-20 0 -30 2t-10 13q0 9 9.5 12t30.5 3h321q32 0 51 6.5
t28.5 22t12.5 42.5t3 68q0 47 -9 87t-29.5 68.5t-53 44.5t-79.5 16zM189 -145q-9 0 -9 9v41q0 9 9 9h24q9 0 9 -9v-41q0 -9 -9 -9h-24zM290 -145q-9 0 -9 9v41q0 9 9 9h24q9 0 9 -9v-41q0 -9 -9 -9h-24zM239 -249q-9 0 -9 9v40q0 9 9 9h24q9 0 9 -9v-40q0 -9 -9 -9h-24z" />
    <glyph glyph-name="aTcheh.medi" unicode="&#x686;" horiz-adv-x="547" arabic-form="medial" 
d="M244 385q-38 0 -70 -15t-65 -47q-8 -8 -12 -3l-11 10q-6 6 -2 13q13 12 29.5 24.5t36.5 23t45 17.5t54 7q63 0 102 -23t60 -59.5t28 -80.5t7 -86q0 -15 -0.5 -30.5t-1.5 -28.5q1 -32 24 -54.5t60 -22.5h21q20 0 29.5 -2t9.5 -14q0 -10 -9.5 -12t-29.5 -2q-41 0 -70.5 10
t-45.5 43q-11 -28 -35.5 -40.5t-71.5 -12.5h-327q-20 0 -29.5 2t-9.5 13q0 9 9.5 12t29.5 3h322q32 0 51 6.5t28.5 22t12.5 42.5t3 68q0 47 -9 87t-29.5 68.5t-53 44.5t-80.5 16zM192 -145q-9 0 -9 9v41q0 9 9 9h24q9 0 9 -9v-41q0 -9 -9 -9h-24zM293 -145q-9 0 -9 9v41
q0 9 9 9h24q9 0 9 -9v-41q0 -9 -9 -9h-24zM242 -249q-9 0 -9 9v40q0 9 9 9h24q9 0 9 -9v-40q0 -9 -9 -9h-24z" />
    <glyph glyph-name="aDdal.fina" unicode="&#x688;" horiz-adv-x="517" arabic-form="final" 
d="M401 53q-14 -29 -42.5 -41t-81.5 -12h-203q-9 0 -9 9v12q0 9 9 9h210q33 0 52.5 5.5t30 19t14 36t3.5 55.5v114q0 62 -31 93.5t-110 31.5h-118q-9 0 -9 9v12q0 9 9 9h121q87 0 127.5 -37.5t40.5 -124.5v-136q0 -87 103 -87q20 0 29.5 -2.5t9.5 -12.5q0 -11 -9.5 -13
t-29.5 -2q-41 0 -72 12t-44 41zM123 526q8 0 9.5 6t1.5 14v173q0 6 5 6h12q5 0 5 -6v-98q14 7 34.5 13.5t39.5 6.5q40 0 58.5 -19.5t18.5 -54.5q0 -33 -12.5 -47t-44.5 -14h-139q-6 0 -6 6v8q0 6 6 6h12zM230 619q-23 0 -40 -5.5t-34 -13.5v-49q0 -4 -1 -12.5t-3 -12.5h97
q21 0 29 7.5t8 33.5q0 23 -14 37.5t-42 14.5z" />
    <glyph glyph-name="aJeh.fina" unicode="&#x698;" horiz-adv-x="247" arabic-form="final" 
d="M145 -65q0 -60 -28 -96t-91 -36h-18q-9 0 -9 9v12q0 9 9 9h19q42 0 65 21t23 71v463q0 9 9 9h12q9 0 9 -9v-273q0 -44 27 -64.5t75 -20.5q20 0 29.5 -2.5t9.5 -12.5q0 -9 -9.5 -12t-29.5 -3q-32 0 -57.5 9.5t-44.5 33.5v-108zM69 503q-9 0 -9 9v40q0 9 9 9h24q9 0 9 -9
v-40q0 -9 -9 -9h-24zM170 503q-9 0 -9 9v40q0 9 9 9h24q9 0 9 -9v-40q0 -9 -9 -9h-24zM119 612q-9 0 -9 9v40q0 9 9 9h24q9 0 9 -9v-40q0 -9 -9 -9h-24z" />
    <glyph glyph-name="aRreh.fina" unicode="&#x691;" horiz-adv-x="247" arabic-form="final" 
d="M145 -65q0 -60 -28 -96t-91 -36h-18q-9 0 -9 9v12q0 9 9 9h19q42 0 65 21t23 71v463q0 9 9 9h12q9 0 9 -9v-273q0 -44 27 -64.5t75 -20.5q20 0 29.5 -2.5t9.5 -12.5q0 -9 -9.5 -12t-29.5 -3q-32 0 -57.5 9.5t-44.5 33.5v-108zM48 526q8 0 9.5 6t1.5 14v173q0 6 5 6h12
q5 0 5 -6v-98q14 7 34.5 13.5t39.5 6.5q40 0 58.5 -19.5t18.5 -54.5q0 -33 -12.5 -47t-44.5 -14h-139q-6 0 -6 6v8q0 6 6 6h12zM155 619q-23 0 -40 -5.5t-34 -13.5v-49q0 -4 -1 -12.5t-3 -12.5h97q21 0 29 7.5t8 33.5q0 23 -14 37.5t-42 14.5z" />
    <glyph glyph-name="aKeheh.fina" unicode="&#x6a9;" horiz-adv-x="848" arabic-form="final" 
d="M144 0q-44 0 -71.5 20.5t-27.5 70.5v232q0 9 9 9h12q9 0 9 -9v-224q0 -36 17 -52.5t55 -16.5h469q33 0 52 5.5t29.5 19t13.5 36t3 55.5v96q0 62 -30 93.5t-109 31.5h-173q-9 0 -9 9v12q0 5 1.5 8.5t6.5 9.5l215 252q6 6 12 3l11 -9q6 -4 2 -10l-208 -245h145
q87 0 126.5 -38t39.5 -124v-117q0 -88 105 -88q20 0 29.5 -2.5t9.5 -12.5q0 -11 -9.5 -13t-29.5 -2q-40 0 -71.5 13t-45.5 43q-12 -31 -40.5 -43.5t-82.5 -12.5h-465v0z" />
    <glyph glyph-name="aKeheh.init" unicode="&#x6a9;" horiz-adv-x="500" arabic-form="initial" 
d="M0 0q-40 0 -40 14q0 11 9.5 13.5t30.5 2.5h302q33 0 52 5.5t29.5 19t13.5 36t3 55.5v96q0 62 -30 93.5t-108 31.5h-174q-9 0 -9 9v12q0 5 1.5 8.5t6.5 9.5l215 252q6 6 12 3l11 -9q6 -4 2 -10l-208 -245h146q86 0 125.5 -38t39.5 -124v-87q0 -42 -5.5 -70.5t-20.5 -45.5
t-41.5 -24.5t-67.5 -7.5h-295z" />
    <glyph glyph-name="aKeheh.medi" unicode="&#x6a9;" horiz-adv-x="535" arabic-form="medial" 
d="M429 118q0 -88 106 -88q20 0 29.5 -2.5t9.5 -12.5q0 -11 -9.5 -13t-29.5 -2q-40 0 -71.5 13t-45.5 43q-12 -31 -40.5 -43.5t-82.5 -12.5h-296q-39 0 -39 14q0 11 9.5 13.5t29.5 2.5h303q33 0 52 5.5t29.5 19t13.5 36t3 55.5v96q0 62 -30 93.5t-108 31.5h-174q-9 0 -9 9
v12q0 5 1.5 8.5t6.5 9.5l215 252q6 6 12 3l11 -9q6 -4 2 -10l-208 -245h146q86 0 125.5 -38t39.5 -124v-87q0 -4 -0.5 -7.5t-0.5 -7.5v-15v0z" />
    <glyph glyph-name="aGaf.fina" unicode="&#x6af;" horiz-adv-x="848" arabic-form="final" 
d="M144 0q-44 0 -71.5 20.5t-27.5 70.5v232q0 9 9 9h12q9 0 9 -9v-224q0 -36 17 -52.5t55 -16.5h469q33 0 52 5.5t29.5 19t13.5 36t3 55.5v96q0 62 -30 93.5t-109 31.5h-173q-9 0 -9 9v12q0 5 1.5 8.5t6.5 9.5l215 252q6 6 12 3l11 -9q6 -4 2 -10l-208 -245h145
q87 0 126.5 -38t39.5 -124v-117q0 -88 105 -88q20 0 29.5 -2.5t9.5 -12.5q0 -11 -9.5 -13t-29.5 -2q-40 0 -71.5 13t-45.5 43q-12 -31 -40.5 -43.5t-82.5 -12.5h-465v0zM353 441q-5 -6 -10 -1l-12 11q-3 3 -1 9l218 255q6 8 12 2l12 -10q2 -2 3 -4t-2 -5z" />
    <glyph glyph-name="aGaf.init" unicode="&#x6af;" horiz-adv-x="500" arabic-form="initial" 
d="M0 0q-40 0 -40 14q0 11 9.5 13.5t30.5 2.5h302q33 0 52 5.5t29.5 19t13.5 36t3 55.5v96q0 62 -30 93.5t-108 31.5h-174q-9 0 -9 9v12q0 5 1.5 8.5t6.5 9.5l215 252q6 6 12 3l11 -9q6 -4 2 -10l-208 -245h146q86 0 125.5 -38t39.5 -124v-87q0 -42 -5.5 -70.5t-20.5 -45.5
t-41.5 -24.5t-67.5 -7.5h-295zM37 441q-5 -6 -10 -1l-12 11q-3 3 -1 9l218 255q6 8 12 2l12 -10q2 -2 3 -4t-2 -5z" />
    <glyph glyph-name="aGaf.medi" unicode="&#x6af;" horiz-adv-x="535" arabic-form="medial" 
d="M429 118q0 -88 106 -88q20 0 29.5 -2.5t9.5 -12.5q0 -11 -9.5 -13t-29.5 -2q-40 0 -71.5 13t-45.5 43q-12 -31 -40.5 -43.5t-82.5 -12.5h-296q-39 0 -39 14q0 11 9.5 13.5t29.5 2.5h303q33 0 52 5.5t29.5 19t13.5 36t3 55.5v96q0 62 -30 93.5t-108 31.5h-174q-9 0 -9 9
v12q0 5 1.5 8.5t6.5 9.5l215 252q6 6 12 3l11 -9q6 -4 2 -10l-208 -245h146q86 0 125.5 -38t39.5 -124v-87q0 -4 -0.5 -7.5t-0.5 -7.5v-15v0zM37 441q-5 -6 -10 -1l-12 11q-3 3 -1 9l218 255q6 8 12 2l12 -10q2 -2 3 -4t-2 -5z" />
    <glyph glyph-name="aNunGhunna.fina" unicode="&#x6ba;" horiz-adv-x="591" arabic-form="final" 
d="M80 8q0 -51 18 -85t46 -54t62 -28t66 -8q91 0 139.5 45t48.5 134v275q0 9 9 9h12q9 0 9 -9v-172q0 -44 27 -64.5t74 -20.5q20 0 29.5 -2.5t9.5 -12.5q0 -9 -9.5 -12t-29.5 -3q-42 0 -66 12.5t-37 28.5v-24q0 -40 -10 -78.5t-34.5 -68.5t-67 -48.5t-107.5 -18.5
q-53 0 -93.5 15t-68.5 41.5t-42.5 63.5t-14.5 81q0 33 7.5 64t18 56.5t21.5 45.5t19 31q3 4 7 2l19 -11q3 -2 1 -6q-26 -38 -44.5 -84t-18.5 -94z" />
    <glyph glyph-name="aHehYeh.fina" unicode="&#x6c0;" horiz-adv-x="445" arabic-form="final" 
d="M315 415v44q0 9 9 9h12q9 0 9 -9v-359q0 -42 15 -56t44 -14h41q20 0 29.5 -2t9.5 -13t-9.5 -13t-29.5 -2h-48q-12 0 -26 3t-26.5 12.5t-21 28t-8.5 50.5q-17 -19 -44.5 -31.5t-77.5 -12.5q-151 0 -151 174q0 102 41.5 146.5t118.5 44.5h113zM193 80q37 0 60.5 6.5
t37 18.5t19 29t5.5 37v216h-118q-65 0 -95 -39.5t-30 -120.5q0 -73 29 -110t92 -37zM161 509q-8 14 -14.5 30t-6.5 41q0 11 4 26.5t14 30t28 24.5t46 10q23 0 42.5 -10t32.5 -27q3 -3 -1 -7l-11 -10q-6 -2 -9 2q-13 14 -25.5 20.5t-30.5 6.5q-30 0 -46.5 -18.5t-16.5 -47.5
q0 -26 9 -43t20 -28h114q5 0 5 -6v-14q0 -6 -5 -6h-189q-5 0 -5 6v14q0 6 5 6h40z" />
    <glyph glyph-name="aHehGoal.fina" unicode="&#x6c1;" horiz-adv-x="448" arabic-form="final" 
d="M448 30q20 0 29.5 -2.5t9.5 -12.5t-9.5 -12.5t-29.5 -2.5h-51q-43 0 -70.5 20.5t-27.5 70.5v276h-84q-77 0 -110.5 -40.5t-33.5 -117.5v-200q0 -9 -9 -9h-12q-9 0 -9 9v201q0 58 15.5 94.5t41 57t58 28t66.5 7.5h98q9 0 9 -9v-289q0 -36 17 -52.5t54 -16.5h48z" />
    <glyph glyph-name="aHehGoal.init" unicode="&#x6c1;" horiz-adv-x="249" arabic-form="initial" 
d="M54 30q27 0 43 6t25 18.5t11.5 33t2.5 49.5v251q0 9 9 9h13q9 0 9 -9v-264q0 -39 -8.5 -63.5t-22 -37.5t-30.5 -18t-34 -5q-2 -8 -2.5 -14.5t-0.5 -11.5q0 -38 22.5 -52t60.5 -14h18q9 0 9 -9v-11q0 -8 -9 -10q-5 -1 -6.5 -1h-3.5q-60 0 -90.5 24t-30.5 75q0 4 0.5 11.5
t1.5 12.5h-41q-39 0 -39 14q0 11 9.5 13.5t29.5 2.5h54z" />
    <glyph glyph-name="aHehGoal.medi" unicode="&#x6c1;" horiz-adv-x="395" arabic-form="medial" 
d="M121 30q9 0 9 -9v-71q0 -53 27 -71t75 -18v88q0 15 4 29.5t13.5 26t25 18.5t38.5 7h82q20 0 29.5 -2.5t9.5 -12.5t-9.5 -12.5t-29.5 -2.5h-71q-32 0 -47.5 -12t-15.5 -44v-102q0 -9 -9 -9h-15q-135 0 -135 116v51h-102q-40 0 -40 15q0 9 9.5 12t30.5 3h121z" />
    <glyph glyph-name="aHehDoachashmi.fina" unicode="&#x6be;" arabic-form="final" 
d="M68 0q-17 0 -22 -5.5t-5 -21.5v-24q0 -9 -9 -9h-13q-9 0 -9 9v35q0 23 13.5 34.5t36.5 11.5h61v183q0 94 43.5 148t119.5 54q41 0 71.5 -15t51 -41.5t30.5 -64t10 -82.5q0 -56 -17.5 -102t-45.5 -80h138q20 0 30.5 -3t10.5 -12q0 -10 -10.5 -12.5t-30.5 -2.5h-126
q17 -11 29.5 -31.5t12.5 -51.5q0 -22 -7.5 -42.5t-26.5 -36.5t-50.5 -25.5t-80.5 -9.5q-46 0 -75.5 9.5t-46.5 25.5t-23.5 38t-6.5 47v77h-53zM285 385q-61 0 -97.5 -42.5t-36.5 -128.5v-184h157q28 0 48.5 17t34 43.5t20 58.5t6.5 63q0 80 -32 126.5t-100 46.5zM274 -167
q38 0 63.5 6t41.5 17t22.5 26.5t6.5 33.5q0 15 -4 30t-14 27t-27.5 19.5t-44.5 7.5h-167v-73q0 -56 32 -75t91 -19z" />
    <glyph glyph-name="aHehDoachashmi.init" unicode="&#x6be;" horiz-adv-x="610" arabic-form="initial" 
d="M304 385q-51 0 -90.5 -12t-74.5 -32q-3 -2 -6.5 -3.5t-5.5 2.5v-1l-7 13q-7 11 0 15h-1q51 26 97 37t91 11q69 0 115 -19.5t74 -52t40 -73.5t12 -83q0 -47 -8 -82t-28 -58.5t-54.5 -35t-87.5 -11.5h-371q-20 0 -29.5 2.5t-9.5 12.5t9.5 12.5t29.5 2.5h153
q-20 21 -30 50.5t-10 63.5q0 66 37 103t94 37q62 0 96 -37.5t34 -102.5q0 -26 -4 -46t-10 -34t-12 -22.5t-10 -11.5h36q49 0 78 12t44 33t19 50t4 62q0 52 -16.5 89.5t-45 61.5t-68 35.5t-84.5 11.5zM242 254q-28 0 -47 -10.5t-31 -27t-17 -36t-5 -36.5q0 -35 9 -57.5
t23.5 -35t32 -17t34.5 -4.5q21 0 39.5 3.5t32.5 15.5t22 34.5t8 60.5q0 21 -5 41t-16.5 35.5t-31 24.5t-48.5 9z" />
    <glyph glyph-name="aHehDoachashmi.medi" unicode="&#x6be;" horiz-adv-x="536" arabic-form="medial" 
d="M-40 15q0 10 9.5 12.5t29.5 2.5h135v183q0 94 43.5 148t119.5 54q41 0 71.5 -15t51 -41.5t30.5 -64t10 -82.5q0 -56 -17.5 -102t-45.5 -80h139q20 0 30.5 -3t10.5 -12q0 -10 -10.5 -12.5t-30.5 -2.5h-127q17 -11 29.5 -31.5t12.5 -51.5q0 -22 -7.5 -42.5t-26.5 -36.5
t-50.5 -25.5t-80.5 -9.5q-46 0 -75.5 9.5t-46.5 25.5t-23.5 38t-6.5 47v77h-135q-39 0 -39 15zM298 385q-61 0 -97.5 -42.5t-36.5 -128.5v-184h157q28 0 48.5 17t34 43.5t20 58.5t6.5 63q0 80 -32 126.5t-100 46.5zM287 -167q38 0 63.5 6t41.5 17t22.5 26.5t6.5 33.5
q0 15 -4 30t-14 27t-27.5 19.5t-44.5 7.5h-167v-73q0 -56 32 -75t91 -19z" />
    <glyph glyph-name="aYehBarri.fina" unicode="&#x6d2;" horiz-adv-x="318" arabic-form="final" 
d="M54 -88q0 -48 27 -63.5t72 -15.5h420q9 0 9 -9v-12q0 -9 -9 -9h-420q-39 0 -64 9t-39.5 24t-20.5 35t-6 42q0 39 12.5 62t30.5 35t39 16t38 4h175q20 0 29.5 -3t9.5 -12t-9.5 -12t-29.5 -3h-175q-49 0 -69 -23t-20 -65z" />
    <glyph glyph-name="aYehBarriHamzaabove.fina" unicode="&#x6d3;" horiz-adv-x="318" arabic-form="final" 
d="M54 -88q0 -48 27 -63.5t72 -15.5h420q9 0 9 -9v-12q0 -9 -9 -9h-420q-39 0 -64 9t-39.5 24t-20.5 35t-6 42q0 39 12.5 62t30.5 35t39 16t38 4h175q20 0 29.5 -3t9.5 -12t-9.5 -12t-29.5 -3h-175q-49 0 -69 -23t-20 -65zM98 128q-8 14 -14.5 30t-6.5 41q0 11 4 26.5t14 30
t27.5 24.5t45.5 10q23 0 42.5 -10t32.5 -27q3 -3 -1 -7l-11 -10q-6 -2 -9 2q-13 14 -25.5 20.5t-30.5 6.5q-29 0 -45.5 -18.5t-16.5 -47.5q0 -26 9 -43t20 -28h113q5 0 5 -6v-14q0 -6 -5 -6h-188q-5 0 -5 6v14q0 6 5 6h40z" />
    <glyph glyph-name="aAlifMaksura.init" unicode="&#x649;" horiz-adv-x="247" arabic-form="initial" 
d="M54 30q27 0 43 6t25 18.5t11.5 33t2.5 49.5v251q0 9 9 9h13q9 0 9 -9v-264q0 -42 -9.5 -66.5t-24.5 -37.5t-33.5 -16.5t-36.5 -3.5h-77q-10 0 -17.5 3t-7.5 11q0 11 9.5 13.5t29.5 2.5h54z" />
    <glyph glyph-name="aAlifMaksura.medi" unicode="&#x649;" horiz-adv-x="291" arabic-form="medial" 
d="M77 30q27 0 43 6t25 18.5t11.5 33t2.5 49.5v251q0 9 9 9h12q9 0 9 -9v-273q0 -44 27.5 -64.5t74.5 -20.5q20 0 29.5 -2.5t9.5 -12.5q0 -9 -9.5 -12t-29.5 -3q-52 0 -78 17.5t-35 34.5q-7 -18 -17.5 -28t-23.5 -15.5t-26.5 -7t-26.5 -1.5h-98q-10 0 -17.5 3t-7.5 11
q0 11 9.5 13.5t29.5 2.5h77z" />
    <glyph glyph-name="aYehFarsi.fina" unicode="&#x6cc;" horiz-adv-x="720" arabic-form="final" 
d="M50 17q0 33 7.5 64t18 56.5t21.5 45.5t19 31q3 4 7 2l19 -11q3 -2 1 -6q-26 -38 -44.5 -84t-18.5 -94t14 -83.5t39 -59t59 -34.5t74 -11h280q54 0 75 22t21 60q0 28 -11.5 48t-34 36t-55.5 29.5t-76 30.5l-42 17q-8 3 -5 11l5 14q2 3 5 5.5t6 0.5q16 -6 31.5 -12
t31.5 -13q48 -20 93.5 -36t88.5 -16h42q20 0 29.5 -3t9.5 -12q0 -10 -9.5 -12.5t-29.5 -2.5h-79q11 -13 20.5 -34t9.5 -50q0 -23 -6.5 -43.5t-21.5 -36t-39.5 -24.5t-60.5 -9h-289q-45 0 -82.5 15t-65 42.5t-42.5 67t-15 89.5z" />
    <glyph glyph-name="aYehFarsi.init" unicode="&#x6cc;" horiz-adv-x="242" arabic-form="initial" 
d="M54 30q27 0 43 6t25 18.5t11.5 33t2.5 49.5v251q0 9 9 9h13q9 0 9 -9v-264q0 -42 -9.5 -66.5t-24.5 -37.5t-33.5 -16.5t-36.5 -3.5h-77q-10 0 -17.5 3t-7.5 11q0 11 9.5 13.5t29.5 2.5h54zM73 -145q-9 0 -9 9v41q0 9 9 9h24q9 0 9 -9v-41q0 -9 -9 -9h-24zM174 -145
q-9 0 -9 9v41q0 9 9 9h24q9 0 9 -9v-41q0 -9 -9 -9h-24z" />
    <glyph glyph-name="aYehFarsi.medi" unicode="&#x6cc;" horiz-adv-x="291" arabic-form="medial" 
d="M77 30q27 0 43 6t25 18.5t11.5 33t2.5 49.5v251q0 9 9 9h12q9 0 9 -9v-273q0 -44 28 -64.5t75 -20.5q20 0 29.5 -2.5t9.5 -12.5q0 -9 -9.5 -12t-29.5 -3q-52 0 -78.5 17.5t-35.5 34.5q-7 -18 -17.5 -28t-23.5 -15.5t-26.5 -7t-26.5 -1.5h-98q-10 0 -17.5 3t-7.5 11
q0 11 9.5 13.5t29.5 2.5h77zM112 -145q-9 0 -9 9v41q0 9 9 9h24q9 0 9 -9v-41q0 -9 -9 -9h-24zM213 -145q-9 0 -9 9v41q0 9 9 9h24q9 0 9 -9v-41q0 -9 -9 -9h-24z" />
    <glyph glyph-name="aShadda_aDammatan" unicode="&#xfc5e;" horiz-adv-x="0" arabic-form="isolated" 
d="M-114 889q0 9 10 9h6q9 0 9 -9v-75q0 -20 8.5 -30.5t28.5 -10.5q40 0 40 37v79q0 9 9 9h7q9 0 9 -9v-79q0 -37 42 -37q21 0 28.5 10.5t7.5 30.5v75q0 9 9 9h6q10 0 10 -9v-72q0 -35 -14 -52.5t-47 -17.5q-17 0 -31 5.5t-23 18.5q-9 -12 -23 -18t-30 -6q-29 0 -45.5 15.5
t-16.5 50.5v76zM-147 1085q-9 0 -9 9v10q0 9 9 9q34 0 55 -20t21 -67q0 -28 16 -34t48 -6q24 0 40.5 5t26 12.5t14 16t6.5 14.5h-38q-32 0 -50.5 18t-18.5 47q0 34 20.5 53t49.5 19q31 0 52 -20t21 -68q0 -35 -9 -58.5t-25.5 -38.5t-39 -21.5t-49.5 -6.5q-20 0 -36.5 2
t-29 9.5t-19.5 20.5t-7 36q0 32 -11 45.5t-31 13.5h-6zM85 1062q2 5 2.5 11t0.5 10q0 30 -12.5 46t-32.5 16q-22 0 -32 -15t-10 -31q0 -23 15 -30t31 -7h38z" />
    <glyph glyph-name="aShadda_aKasratan" unicode="&#xfc5f;" horiz-adv-x="0" arabic-form="isolated" 
d="M-114 1057q0 9 10 9h6q9 0 9 -9v-75q0 -20 8.5 -30.5t28.5 -10.5q40 0 40 37v79q0 9 9 9h7q9 0 9 -9v-79q0 -37 42 -37q21 0 28.5 10.5t7.5 30.5v75q0 9 9 9h6q10 0 10 -9v-72q0 -35 -14 -52.5t-47 -17.5q-17 0 -31 5.5t-23 18.5q-9 -12 -23 -18t-30 -6q-29 0 -45.5 15.5
t-16.5 50.5v76zM-131 753q-9 0 -9 9v8q0 9 9 9h256q9 0 9 -9v-8q0 -9 -9 -9h-256zM-131 830q-9 0 -9 10v8q0 9 9 9h256q9 0 9 -9v-8q0 -10 -9 -10h-256z" />
    <glyph glyph-name="aShadda_aFatha" unicode="&#xfc60;" horiz-adv-x="0" arabic-form="isolated" 
d="M-133 963q-9 0 -9 9v8q0 9 9 9h256q9 0 9 -9v-8q0 -9 -9 -9h-256zM-114 889q0 9 10 9h6q9 0 9 -9v-75q0 -20 8.5 -30.5t28.5 -10.5q40 0 40 37v79q0 9 9 9h7q9 0 9 -9v-79q0 -37 42 -37q21 0 28.5 10.5t7.5 30.5v75q0 9 9 9h6q10 0 10 -9v-72q0 -35 -14 -52.5t-47 -17.5
q-17 0 -31 5.5t-23 18.5q-9 -12 -23 -18t-30 -6q-29 0 -45.5 15.5t-16.5 50.5v76z" />
    <glyph glyph-name="aShadda_aDamma" unicode="&#xfc61;" horiz-adv-x="0" arabic-form="isolated" 
d="M47 1060q1 5 1 11.5v11.5q0 30 -11.5 45t-31.5 15q-22 0 -33 -13.5t-11 -30.5q0 -23 14.5 -31t33.5 -8h38zM-45 984q24 0 40.5 4.5t26.5 12t15 16.5t7 17h-40q-33 0 -51.5 17.5t-18.5 47.5q0 29 20.5 50.5t50.5 21.5q29 0 50.5 -21t21.5 -67q0 -36 -8 -60.5t-24 -39.5
t-38.5 -21t-51.5 -6h-28q-9 0 -9 9v10q0 9 9 9h28zM-114 889q0 9 10 9h6q9 0 9 -9v-75q0 -20 8.5 -30.5t28.5 -10.5q40 0 40 37v79q0 9 9 9h7q9 0 9 -9v-79q0 -37 42 -37q21 0 28.5 10.5t7.5 30.5v75q0 9 9 9h6q10 0 10 -9v-72q0 -35 -14 -52.5t-47 -17.5q-17 0 -31 5.5
t-23 18.5q-9 -12 -23 -18t-30 -6q-29 0 -45.5 15.5t-16.5 50.5v76z" />
    <glyph glyph-name="aShadda_aKasra" unicode="&#xfc62;" horiz-adv-x="0" arabic-form="isolated" 
d="M-128 753q-9 0 -9 9v8q0 9 9 9h256q9 0 9 -9v-8q0 -9 -9 -9h-256zM-114 974q0 9 10 9h6q9 0 9 -9v-75q0 -20 8.5 -30.5t28.5 -10.5q40 0 40 37v79q0 9 9 9h7q9 0 9 -9v-79q0 -37 42 -37q21 0 28.5 10.5t7.5 30.5v75q0 9 9 9h6q10 0 10 -9v-72q0 -35 -14 -52.5t-47 -17.5
q-17 0 -31 5.5t-23 18.5q-9 -12 -23 -18t-30 -6q-29 0 -45.5 15.5t-16.5 50.5v76z" />
    <glyph glyph-name="aShadda_aAlifabove" unicode="&#xfc63;" horiz-adv-x="0" arabic-form="isolated" 
d="M-114 889q0 9 10 9h6q9 0 9 -9v-75q0 -20 8.5 -30.5t28.5 -10.5q40 0 40 37v79q0 9 9 9h7q9 0 9 -9v-79q0 -37 42 -37q21 0 28.5 10.5t7.5 30.5v75q0 9 9 9h6q10 0 10 -9v-72q0 -35 -14 -52.5t-47 -17.5q-17 0 -31 5.5t-23 18.5q-9 -12 -23 -18t-30 -6q-29 0 -45.5 15.5
t-16.5 50.5v76zM14 969q0 -9 -9 -9h-12q-9 0 -9 9v125q0 9 9 9h12q9 0 9 -9v-125z" />
    <glyph glyph-name="aAllah" unicode="&#xfdf2;" horiz-adv-x="1225" arabic-form="isolated" 
d="M315 415v44q0 9 9 9h12q9 0 9 -9v-359q0 -42 15 -56t44 -14h109q27 0 43 6t25 18.5t11.5 33t2.5 49.5v535q0 9 9 9h12q9 0 9 -9v-557q0 -42 26.5 -63.5t69.5 -21.5h71q27 0 43 6t25 18.5t11.5 33t2.5 49.5v535q0 9 9 9h12q10 0 10 -9v-548q0 -42 -9.5 -66.5t-24.5 -37.5
t-33.5 -16.5t-36.5 -3.5h-71q-53 0 -79 17.5t-35 34.5q-7 -18 -17.5 -28t-23.5 -15.5t-26.5 -7t-26.5 -1.5h-125q-12 0 -26 3t-26.5 12.5t-21 28t-8.5 50.5q-17 -19 -44.5 -31.5t-76.5 -12.5q-152 0 -152 174q0 102 41.5 146.5t116.5 44.5h115zM194 80q36 0 59.5 6.5
t37 18.5t19 29t5.5 37v216h-117q-126 0 -126 -160q0 -73 29 -110t93 -37zM1123 0q-9 0 -9 9v663q0 9 9 9h12q10 0 10 -9v-663q0 -9 -10 -9h-12z" />
    <glyph glyph-name="aAllahlong" unicode="&#xfdfa;" horiz-adv-x="1057" arabic-form="isolated" 
d="M1017 437q0 -14 -16 -39q-15 -24 -31 -31q-47 -21 -116 -21h-23t-25 2q-24 -47 -38 -47q-4 0 -4 6q0 16 22 47q-43 17 -48 26q-40 -26 -50 -26q8 -141 25 -176q19 -38 87 -39q-22 17 -22 44q0 33 32 76q24 32 61 32q28 0 53 -17q24 -17 24 -31q-26 9 -52 9q-35 0 -65 -14
q-26 -14 -26 -27q0 -14 25 -39q24 -25 44 -29q19 2 68 18q25 8 42 14t25 11l-17 -37q-101 -53 -191 -53q-97 0 -119 73q-30 -65 -57 -65q-26 0 -67 44q-65 -56 -197 -56q-20 0 -37.5 1.5t-32.5 3.5q4 -32 9 -52q9 -36 23 -50q44 -44 176 -44q113 0 165 32q15 37 28 37
q4 0 4 -8q0 -14 -12 -44q6 -13 27 -13q26 0 49 12q21 66 33 66q4 0 4 -11q0 -19 -10 -43q30 -13 44 -13q1 0 4.5 0.5t3.5 3.5q0 4 -8 38l17 36q12 -36 12 -52q0 -67 -44 -67q-23 0 -48 19q-15 -26 -59 -26q-48 0 -48 26q-20 -14 -64 -24q-53 -11 -121 -11q-97 0 -143 28
q-59 34 -60 126l-22 -32q-16 -24 -26 -26q12 -21 12 -41q0 -26 -16 -42q-8 -8 -21 -8q-20 0 -61 23q-13 -30 -42 -47q-3 -2 -9.5 -3t-13.5 -1.5t-13 -1t-9 -1.5l-11 -4q-6 0 -6 5q0 4 24 15q31 12 39 19l34 26q-10 17 -10 40q0 21 18 41q18 21 34 21q2 0 6 -2q17 -10 29 -10
q18 0 36 23l23 42q-39 12 -55 27q-29 26 -41 85q-29 -50 -79 -50q-18 0 -39 8q-16 7 -16 12q0 25 43 58q20 16 41.5 26.5t43.5 17.5l-2 17l20 33q7 -108 21 -141q13 -31 56 -45l-13 132l19 43l17 -180q52 -6 95 -6q104 0 177 40q14 38 19 38q4 0 4 -9q0 -10 -4 -25
q37 -35 59 -35q26 0 42 43l-13 161q-73 0 -90 74q-7 -28 -14 -42q-11 -26 -27 -30l3 -3q35 0 52 -8t17 -30q0 -30 -25 -46q-86 -59 -160 -59q-46 0 -74 23.5t-28 65.5q0 32 16 67q-27 7 -38 43q-18 -51 -57 -51q-47 0 -47 77l-27 -24q-7 -7 -39 -7q-49 0 -49 18q0 11 13 31
q13 22 25 27l76 37v10l17 36l4 -120q1 -42 32 -42q15 0 29.5 10.5t16.5 22.5l-16 114l18 39l28 -161q9 -21 33 -21q23 0 23 13q0 22 -16 74l-10 32t-10 33l13 33q40 -124 40 -157q0 -21 -10 -44q-10 -28 -25 -28q-5 0 -9 3q-7 -20 -7 -39q0 -75 91 -75q71 0 142 48q2 2 2 3
q0 6 -38 12q-59 9 -61 10q-4 3 -4 8q0 10 17 32q60 25 64 53q1 3 1 14q0 49 -5 106.5t-15 124.5l17 56q24 -211 38 -256q18 -57 72 -66l-5 96l21 45l8 -140q28 10 60 36l30 -21q19 -12 39 -15q23 24 65 55q52 38 70 38t41 -14q26 -15 26 -33zM1008 2q0 -50 -39 -108
q-42 -64 -89 -64q-23 0 -59 16q-37 16 -37 23q0 4 5 4q6 0 27 -7q8 -3 18.5 -5.5t18.5 -2.5q68 0 138 106l-7 22q-18 -26 -37 -26q-15 0 -25.5 14t-10.5 31q0 21 15 50q16 31 28 31t32 -24q22 -26 22 -60zM970 639q-36 -13 -116 -51q-96 -47 -96 -61q0 -11 26 -25l-9 -24
q-33 10 -33 40t26 44q128 74 211 102zM476 447q-3 -66 -13 -73l-25 242l22 57zM602 37l-26 -31l-48 35l-28 -36l-50 36l29 35l47 -35l27 33zM989 420q0 7 -18 16q-17 9 -26 9q-21 0 -60 -24q-30 -19 -47 -34q4 -1 20 -1q39 0 82 8q49 10 49 26zM632 -121q0 -20 -2 -30
q-6 -13 -25 -13q-10 0 -14 4q-15 -16 -30 -16q-8 0 -16.5 8.5t-12.5 8.5q-8 0 -37 -17q-29 -18 -70 -18q-44 0 -44 8q0 7 32 7q17 0 29 0.5t17 1.5q15 3 35 16q29 19 40 19q8 0 19 -8t13 -8q15 0 18 17q1 13 11 13q4 0 4 -6t-1 -9q1 -4 11 -6q12 0 12 12q0 16 11 16z
M815 705l-6 -22l-195 -96l4 25zM169 263q-88 -34 -88 -52q0 -10 31 -10q33 0 59 24zM324 665q0 -32 -21 -32q-13 0 -21 8q-18 -15 -30 -15q-21 0 -21 27q0 19 3 27l6 6q0 -37 17 -37q12 0 19 16l-2 23l9 14l4 -30q1 -16 15 -16q11 0 11 12q0 1 -0.5 4.5t-2.5 20.5l7 10
q7 -18 7 -38zM189 487q-10 -5 -20 -9t-21 -8q-34 -17 -34 -25q0 -10 25 -10q29 0 51 13zM214 -39q0 8 -7.5 18.5t-16.5 16.5q-19 14 -34 14q-14 0 -14 -12q0 -13 26 -27q24 -15 39 -15q7 0 7 5zM979 10q-6 32 -26 32q-16 0 -20 -25q4 -18 31 -18q13 0 15 11z" />
    <glyph glyph-name="aAlifMadda.fina" unicode="&#x622;" horiz-adv-x="218" arabic-form="final" 
d="M81 672q0 9 9 9h12q9 0 9 -9v-573q0 -36 17 -52.5t54 -16.5h37q39 0 39 -13q0 -17 -39 -17h-40q-43 0 -70.5 20.5t-27.5 70.5v581zM-66 783q5 17 14 26.5t18.5 14.5t19 6.5t16.5 1.5q26 0 50.5 -9t49 -20t50 -20t52.5 -9q21 0 30.5 7t9.5 30q0 9 9 9h10q9 0 9 -9
q0 -38 -20 -51t-48 -13q-27 0 -53 9t-51 20t-49.5 20t-48.5 9q-15 0 -25.5 -6.5t-16.5 -23.5q-2 -8 -8 -6l-15 5q-5 2 -3 9z" />
    <glyph glyph-name="aAlifHamza.fina" unicode="&#x623;" horiz-adv-x="218" arabic-form="final" 
d="M81 672q0 9 9 9h12q9 0 9 -9v-573q0 -36 17 -52.5t54 -16.5h37q39 0 39 -13q0 -17 -39 -17h-40q-43 0 -70.5 20.5t-27.5 70.5v581zM49 763q-8 14 -14.5 30t-6.5 41q0 11 4 26.5t14 30t27.5 24.5t45.5 10q23 0 42.5 -10t32.5 -27q3 -3 -1 -7l-11 -10q-6 -2 -9 2
q-13 14 -25.5 20.5t-30.5 6.5q-29 0 -45.5 -18.5t-16.5 -47.5q0 -26 9 -43t20 -28h113q5 0 5 -6v-14q0 -6 -5 -6h-188q-5 0 -5 6v14q0 6 5 6h40z" />
    <glyph glyph-name="aWawHamza.fina" unicode="&#x624;" horiz-adv-x="490" arabic-form="final" 
d="M490 30q20 0 30 -2.5t10 -11.5q0 -10 -9.5 -13t-30.5 -3h-85v-75q0 -27 -5 -49.5t-16.5 -38.5t-30.5 -25t-48 -9h-155q-9 0 -9 9v12q0 9 9 9h153q37 0 54.5 19.5t17.5 72.5v75h-121q-42 0 -75.5 9t-56 31.5t-34.5 59.5t-12 94q0 51 13 92t35.5 69.5t52.5 44t65 15.5
q44 0 75 -14.5t50.5 -41.5t28.5 -66.5t9 -89.5v-173h85zM242 385q-59 0 -97.5 -46t-38.5 -146q0 -89 34 -126t108 -37h127v169q0 88 -30 137t-103 49zM175 509q-8 14 -14.5 30t-6.5 41q0 11 4 26.5t14 30t28 24.5t46 10q23 0 42.5 -10t32.5 -27q3 -3 -1 -7l-11 -10
q-6 -2 -9 2q-13 14 -25.5 20.5t-30.5 6.5q-30 0 -46.5 -18.5t-16.5 -47.5q0 -26 9 -43t20 -28h114q5 0 5 -6v-14q0 -6 -5 -6h-189q-5 0 -5 6v14q0 6 5 6h40z" />
    <glyph glyph-name="aAlifHamzabelow.fina" unicode="&#x625;" horiz-adv-x="218" arabic-form="final" 
d="M81 672q0 9 9 9h12q9 0 9 -9v-573q0 -36 17 -52.5t54 -16.5h37q39 0 39 -13q0 -17 -39 -17h-40q-43 0 -70.5 20.5t-27.5 70.5v581zM50 -235q-8 14 -14.5 30t-6.5 41q0 10 4 26t14 30t27.5 24.5t45.5 10.5q23 0 42.5 -10t32.5 -27q3 -3 -1 -7l-11 -11q-6 -2 -9 2
q-13 14 -25.5 21t-30.5 7q-29 0 -45.5 -19t-16.5 -47q0 -26 9 -43t20 -28h113q5 0 5 -6v-14q0 -6 -5 -6h-188q-5 0 -5 6v14q0 6 5 6h40z" />
    <glyph glyph-name="aYehHamza.fina" unicode="&#x626;" horiz-adv-x="720" arabic-form="final" 
d="M50 17q0 33 7.5 64t18 56.5t21.5 45.5t19 31q3 4 7 2l19 -11q3 -2 1 -6q-26 -38 -44.5 -84t-18.5 -94t14 -83.5t39 -59t59 -34.5t74 -11h280q54 0 75 22t21 60q0 28 -11.5 48t-34 36t-55.5 29.5t-76 30.5l-42 17q-8 3 -5 11l5 14q2 3 5 5.5t6 0.5q16 -6 31.5 -12
t31.5 -13q48 -20 93.5 -36t88.5 -16h42q20 0 29.5 -3t9.5 -12q0 -10 -9.5 -12.5t-29.5 -2.5h-79q11 -13 20.5 -34t9.5 -50q0 -23 -6.5 -43.5t-21.5 -36t-39.5 -24.5t-60.5 -9h-289q-45 0 -82.5 15t-65 42.5t-42.5 67t-15 89.5zM139 332q-8 14 -14.5 30t-6.5 41q0 11 4 26.5
t14 30t28 24.5t46 10q23 0 42.5 -10t32.5 -27q3 -3 -1 -7l-11 -10q-6 -2 -9 2q-13 14 -25.5 20.5t-30.5 6.5q-30 0 -46.5 -18.5t-16.5 -47.5q0 -26 9 -43t20 -28h114q5 0 5 -6v-14q0 -6 -5 -6h-189q-5 0 -5 6v14q0 6 5 6h40z" />
    <glyph glyph-name="aYehHamza.init" unicode="&#x626;" horiz-adv-x="247" arabic-form="initial" 
d="M54 30q27 0 43 6t25 18.5t11.5 33t2.5 49.5v251q0 9 9 9h13q9 0 9 -9v-264q0 -42 -9.5 -66.5t-24.5 -37.5t-33.5 -16.5t-36.5 -3.5h-77q-10 0 -17.5 3t-7.5 11q0 11 9.5 13.5t29.5 2.5h54zM93 509q-8 14 -14.5 30t-6.5 41q0 11 4 26.5t14 30t28 24.5t46 10q23 0 42.5 -10
t32.5 -27q3 -3 -1 -7l-11 -10q-6 -2 -9 2q-13 14 -25.5 20.5t-30.5 6.5q-30 0 -46.5 -18.5t-16.5 -47.5q0 -26 9 -43t20 -28h114q5 0 5 -6v-14q0 -6 -5 -6h-189q-5 0 -5 6v14q0 6 5 6h40z" />
    <glyph glyph-name="aYehHamza.medi" unicode="&#x626;" horiz-adv-x="291" arabic-form="medial" 
d="M77 30q27 0 43 6t25 18.5t11.5 33t2.5 49.5v251q0 9 9 9h12q9 0 9 -9v-273q0 -44 27.5 -64.5t74.5 -20.5q20 0 29.5 -2.5t9.5 -12.5q0 -9 -9.5 -12t-29.5 -3q-52 0 -78 17.5t-35 34.5q-7 -18 -17.5 -28t-23.5 -15.5t-26.5 -7t-26.5 -1.5h-98q-10 0 -17.5 3t-7.5 11
q0 11 9.5 13.5t29.5 2.5h77zM120 509q-8 14 -14.5 30t-6.5 41q0 11 4 26.5t14 30t28 24.5t46 10q23 0 42.5 -10t32.5 -27q3 -3 -1 -7l-11 -10q-6 -2 -9 2q-13 14 -25.5 20.5t-30.5 6.5q-30 0 -46.5 -18.5t-16.5 -47.5q0 -26 9 -43t20 -28h114q5 0 5 -6v-14q0 -6 -5 -6h-189
q-5 0 -5 6v14q0 6 5 6h40z" />
    <glyph glyph-name="aAlif.fina" unicode="&#x627;" horiz-adv-x="218" arabic-form="final" 
d="M81 672q0 9 9 9h12q9 0 9 -9v-573q0 -36 17 -52.5t54 -16.5h37q39 0 39 -13q0 -17 -39 -17h-40q-43 0 -70.5 20.5t-27.5 70.5v581z" />
    <glyph glyph-name="aBeh.fina" unicode="&#x628;" horiz-adv-x="837" arabic-form="final" 
d="M154 0q-44 0 -71.5 20.5t-27.5 70.5v232q0 9 9 9h12q9 0 9 -9v-224q0 -36 17 -52.5t55 -16.5h466q27 0 43 6t25 18.5t11.5 33t2.5 49.5v251q0 9 9 9h12q9 0 9 -9v-273q0 -44 28.5 -64.5t76.5 -20.5q20 0 29.5 -2.5t9.5 -12.5q0 -9 -9.5 -12t-29.5 -3q-53 0 -79 17.5
t-35 34.5q-7 -18 -17.5 -28t-23.5 -15.5t-26.5 -7t-26.5 -1.5h-478zM377 -145q-9 0 -9 9v41q0 9 9 9h24q9 0 9 -9v-41q0 -9 -9 -9h-24z" />
    <glyph glyph-name="aBeh.init" unicode="&#x628;" horiz-adv-x="247" arabic-form="initial" 
d="M54 30q27 0 43 6t25 18.5t11.5 33t2.5 49.5v251q0 9 9 9h13q9 0 9 -9v-264q0 -42 -9.5 -66.5t-24.5 -37.5t-33.5 -16.5t-36.5 -3.5h-77q-10 0 -17.5 3t-7.5 11q0 11 9.5 13.5t29.5 2.5h54zM133 -140q-9 0 -9 9v41q0 9 9 9h24q9 0 9 -9v-41q0 -9 -9 -9h-24z" />
    <glyph glyph-name="aBeh.medi" unicode="&#x628;" horiz-adv-x="291" arabic-form="medial" 
d="M77 30q27 0 43 6t25 18.5t11.5 33t2.5 49.5v251q0 9 9 9h12q9 0 9 -9v-273q0 -44 27.5 -64.5t74.5 -20.5q20 0 29.5 -2.5t9.5 -12.5q0 -9 -9.5 -12t-29.5 -3q-52 0 -78 17.5t-35 34.5q-7 -18 -17.5 -28t-23.5 -15.5t-26.5 -7t-26.5 -1.5h-98q-10 0 -17.5 3t-7.5 11
q0 11 9.5 13.5t29.5 2.5h77zM161 -140q-9 0 -9 9v41q0 9 9 9h24q9 0 9 -9v-41q0 -9 -9 -9h-24z" />
    <glyph glyph-name="aTehMarbuta.fina" unicode="&#x629;" horiz-adv-x="445" arabic-form="final" 
d="M315 415v44q0 9 9 9h12q9 0 9 -9v-359q0 -42 15 -56t44 -14h41q20 0 29.5 -2t9.5 -13t-9.5 -13t-29.5 -2h-48q-12 0 -26 3t-26.5 12.5t-21 28t-8.5 50.5q-17 -19 -44.5 -31.5t-77.5 -12.5q-151 0 -151 174q0 102 41.5 146.5t118.5 44.5h113zM193 80q37 0 60.5 6.5
t37 18.5t19 29t5.5 37v216h-118q-65 0 -95 -39.5t-30 -120.5q0 -73 29 -110t92 -37zM156 543q-9 0 -9 9v40q0 9 9 9h24q9 0 9 -9v-40q0 -9 -9 -9h-24zM257 543q-9 0 -9 9v40q0 9 9 9h24q9 0 9 -9v-40q0 -9 -9 -9h-24z" />
    <glyph glyph-name="aTeh.fina" unicode="&#x62a;" horiz-adv-x="837" arabic-form="final" 
d="M154 0q-44 0 -71.5 20.5t-27.5 70.5v232q0 9 9 9h12q9 0 9 -9v-224q0 -36 17 -52.5t55 -16.5h466q27 0 43 6t25 18.5t11.5 33t2.5 49.5v251q0 9 9 9h12q9 0 9 -9v-273q0 -44 28.5 -64.5t76.5 -20.5q20 0 29.5 -2.5t9.5 -12.5q0 -9 -9.5 -12t-29.5 -3q-53 0 -79 17.5
t-35 34.5q-7 -18 -17.5 -28t-23.5 -15.5t-26.5 -7t-26.5 -1.5h-478zM337 444q-9 0 -9 9v40q0 9 9 9h24q9 0 9 -9v-40q0 -9 -9 -9h-24zM438 444q-9 0 -9 9v40q0 9 9 9h24q9 0 9 -9v-40q0 -9 -9 -9h-24z" />
    <glyph glyph-name="aTeh.init" unicode="&#x62a;" horiz-adv-x="242" arabic-form="initial" 
d="M54 30q27 0 43 6t25 18.5t11.5 33t2.5 49.5v251q0 9 9 9h13q9 0 9 -9v-264q0 -42 -9.5 -66.5t-24.5 -37.5t-33.5 -16.5t-36.5 -3.5h-77q-10 0 -17.5 3t-7.5 11q0 11 9.5 13.5t29.5 2.5h54zM90 503q-9 0 -9 9v40q0 9 9 9h24q9 0 9 -9v-40q0 -9 -9 -9h-24zM191 503
q-9 0 -9 9v40q0 9 9 9h24q9 0 9 -9v-40q0 -9 -9 -9h-24z" />
    <glyph glyph-name="aTeh.medi" unicode="&#x62a;" horiz-adv-x="291" arabic-form="medial" 
d="M77 30q27 0 43 6t25 18.5t11.5 33t2.5 49.5v251q0 9 9 9h12q9 0 9 -9v-273q0 -44 28 -64.5t75 -20.5q20 0 29.5 -2.5t9.5 -12.5q0 -9 -9.5 -12t-29.5 -3q-52 0 -78.5 17.5t-35.5 34.5q-7 -18 -17.5 -28t-23.5 -15.5t-26.5 -7t-26.5 -1.5h-98q-10 0 -17.5 3t-7.5 11
q0 11 9.5 13.5t29.5 2.5h77zM112 503q-9 0 -9 9v40q0 9 9 9h24q9 0 9 -9v-40q0 -9 -9 -9h-24zM213 503q-9 0 -9 9v40q0 9 9 9h24q9 0 9 -9v-40q0 -9 -9 -9h-24z" />
    <glyph glyph-name="aTheh.fina" unicode="&#x62b;" horiz-adv-x="837" arabic-form="final" 
d="M154 0q-44 0 -71.5 20.5t-27.5 70.5v232q0 9 9 9h12q9 0 9 -9v-224q0 -36 17 -52.5t55 -16.5h466q27 0 43 6t25 18.5t11.5 33t2.5 49.5v251q0 9 9 9h12q9 0 9 -9v-273q0 -44 28.5 -64.5t76.5 -20.5q20 0 29.5 -2.5t9.5 -12.5q0 -9 -9.5 -12t-29.5 -3q-53 0 -79 17.5
t-35 34.5q-7 -18 -17.5 -28t-23.5 -15.5t-26.5 -7t-26.5 -1.5h-478zM335 444q-9 0 -9 9v40q0 9 9 9h24q9 0 9 -9v-40q0 -9 -9 -9h-24zM436 444q-9 0 -9 9v40q0 9 9 9h24q9 0 9 -9v-40q0 -9 -9 -9h-24zM385 553q-9 0 -9 9v40q0 9 9 9h24q9 0 9 -9v-40q0 -9 -9 -9h-24z" />
    <glyph glyph-name="aTheh.init" unicode="&#x62b;" horiz-adv-x="242" arabic-form="initial" 
d="M54 30q27 0 43 6t25 18.5t11.5 33t2.5 49.5v251q0 9 9 9h13q9 0 9 -9v-264q0 -42 -9.5 -66.5t-24.5 -37.5t-33.5 -16.5t-36.5 -3.5h-77q-10 0 -17.5 3t-7.5 11q0 11 9.5 13.5t29.5 2.5h54zM89 503q-9 0 -9 9v40q0 9 9 9h24q9 0 9 -9v-40q0 -9 -9 -9h-24zM190 503
q-9 0 -9 9v40q0 9 9 9h24q9 0 9 -9v-40q0 -9 -9 -9h-24zM139 612q-9 0 -9 9v40q0 9 9 9h24q9 0 9 -9v-40q0 -9 -9 -9h-24z" />
    <glyph glyph-name="aTheh.medi" unicode="&#x62b;" horiz-adv-x="291" arabic-form="medial" 
d="M77 30q27 0 43 6t25 18.5t11.5 33t2.5 49.5v251q0 9 9 9h12q9 0 9 -9v-273q0 -44 28 -64.5t75 -20.5q20 0 29.5 -2.5t9.5 -12.5q0 -9 -9.5 -12t-29.5 -3q-52 0 -78.5 17.5t-35.5 34.5q-7 -18 -17.5 -28t-23.5 -15.5t-26.5 -7t-26.5 -1.5h-98q-10 0 -17.5 3t-7.5 11
q0 11 9.5 13.5t29.5 2.5h77zM113 503q-9 0 -9 9v40q0 9 9 9h24q9 0 9 -9v-40q0 -9 -9 -9h-24zM214 503q-9 0 -9 9v40q0 9 9 9h24q9 0 9 -9v-40q0 -9 -9 -9h-24zM163 612q-9 0 -9 9v40q0 9 9 9h24q9 0 9 -9v-40q0 -9 -9 -9h-24z" />
    <glyph glyph-name="aJim.fina" unicode="&#x62c;" horiz-adv-x="570" arabic-form="final" 
d="M159 -197q-66 0 -96 27t-30 81q0 36 9.5 59.5t25.5 36.5t36.5 18t41.5 5h197q32 0 51 6.5t28.5 22t12.5 42.5t3 68q0 47 -9 87t-29 68.5t-52.5 44.5t-78.5 16q-40 0 -72.5 -15t-65.5 -47q-8 -8 -12 -3l-11 10q-6 6 -2 13q13 12 29.5 24.5t36.5 23t45 17.5t54 7
q63 0 102 -23t60 -59.5t28 -80.5t7 -86q0 -15 -0.5 -30.5t-1.5 -28.5q1 -32 24 -54.5t60 -22.5h21q20 0 29.5 -2t9.5 -14q0 -10 -9.5 -12t-29.5 -2q-41 0 -70.5 10t-45.5 43q-11 -28 -35.5 -40.5t-71.5 -12.5h-200q-26 0 -42.5 -7t-25.5 -19t-12.5 -28t-3.5 -35
q0 -44 22.5 -61t62.5 -17h83q9 0 9 -9v-12q0 -9 -9 -9h-73zM274 -126q-9 0 -9 10v40q0 9 9 9h25q9 0 9 -9v-40q0 -10 -9 -10h-25z" />
    <glyph glyph-name="aJim.init" unicode="&#x62c;" horiz-adv-x="506" arabic-form="initial" 
d="M245 385q-38 0 -70.5 -15t-65.5 -47q-8 -8 -12 -3l-11 10q-6 6 -2 13q13 12 29.5 24.5t37 23t45 17.5t54.5 7q63 0 101.5 -23t59.5 -59.5t28 -80.5t7 -86q0 -45 -4 -76.5t-16.5 -51.5t-36.5 -29t-63 -9h-326q-20 0 -30 2t-10 13q0 9 9.5 12t30.5 3h321q32 0 51 6.5
t28.5 22t12.5 42.5t3 68q0 47 -9 87t-29.5 68.5t-53 44.5t-79.5 16zM236 -143q-9 0 -9 9v41q0 9 9 9h24q9 0 9 -9v-41q0 -9 -9 -9h-24z" />
    <glyph glyph-name="aJim.medi" unicode="&#x62c;" horiz-adv-x="547" arabic-form="medial" 
d="M244 385q-38 0 -70 -15t-65 -47q-8 -8 -12 -3l-11 10q-6 6 -2 13q13 12 29.5 24.5t36.5 23t45 17.5t54 7q63 0 102 -23t60 -59.5t28 -80.5t7 -86q0 -15 -0.5 -30.5t-1.5 -28.5q1 -32 24 -54.5t60 -22.5h21q20 0 29.5 -2t9.5 -14q0 -10 -9.5 -12t-29.5 -2q-41 0 -70.5 10
t-45.5 43q-11 -28 -35.5 -40.5t-71.5 -12.5h-327q-20 0 -29.5 2t-9.5 13q0 9 9.5 12t29.5 3h322q32 0 51 6.5t28.5 22t12.5 42.5t3 68q0 47 -9 87t-29.5 68.5t-53 44.5t-80.5 16zM244 -143q-9 0 -9 9v41q0 9 9 9h24q9 0 9 -9v-41q0 -9 -9 -9h-24z" />
    <glyph glyph-name="aHah.fina" unicode="&#x62d;" horiz-adv-x="570" arabic-form="final" 
d="M269 385q-40 0 -72.5 -15t-65.5 -47q-8 -8 -12 -3l-11 10q-6 6 -2 13q13 12 29.5 24.5t36.5 23t45 17.5t54 7q63 0 102 -23t60 -59.5t28 -80.5t7 -86q0 -15 -0.5 -30.5t-1.5 -28.5q1 -32 24 -54.5t60 -22.5h21q20 0 29.5 -2t9.5 -14q0 -10 -9.5 -12t-29.5 -2
q-41 0 -70.5 10t-45.5 43q-11 -28 -35.5 -40.5t-71.5 -12.5h-200q-26 0 -42.5 -7t-25.5 -19t-12.5 -28t-3.5 -35q0 -44 22.5 -61t62.5 -17h127q10 0 10 -9v-12q0 -9 -10 -9h-117q-66 0 -96 27t-30 81q0 36 9.5 59.5t25.5 36.5t36.5 18t41.5 5h197q32 0 51 6.5t28.5 22
t12.5 42.5t3 68q0 47 -9 87t-29 68.5t-52.5 44.5t-78.5 16z" />
    <glyph glyph-name="aHah.init" unicode="&#x62d;" horiz-adv-x="506" arabic-form="initial" 
d="M245 385q-38 0 -70.5 -15t-65.5 -47q-8 -8 -12 -3l-11 10q-6 6 -2 13q13 12 29.5 24.5t37 23t45 17.5t54.5 7q63 0 101.5 -23t59.5 -59.5t28 -80.5t7 -86q0 -45 -4 -76.5t-16.5 -51.5t-36.5 -29t-63 -9h-326q-20 0 -30 2t-10 13q0 9 9.5 12t30.5 3h321q32 0 51 6.5
t28.5 22t12.5 42.5t3 68q0 47 -9 87t-29.5 68.5t-53 44.5t-79.5 16z" />
    <glyph glyph-name="aHah.medi" unicode="&#x62d;" horiz-adv-x="547" arabic-form="medial" 
d="M244 385q-38 0 -70 -15t-65 -47q-8 -8 -12 -3l-11 10q-6 6 -2 13q13 12 29.5 24.5t36.5 23t45 17.5t54 7q63 0 102 -23t60 -59.5t28 -80.5t7 -86q0 -15 -0.5 -30.5t-1.5 -28.5q1 -32 24 -54.5t60 -22.5h21q20 0 29.5 -2t9.5 -14q0 -10 -9.5 -12t-29.5 -2q-41 0 -70.5 10
t-45.5 43q-11 -28 -35.5 -40.5t-71.5 -12.5h-327q-20 0 -29.5 2t-9.5 13q0 9 9.5 12t29.5 3h322q32 0 51 6.5t28.5 22t12.5 42.5t3 68q0 47 -9 87t-29.5 68.5t-53 44.5t-80.5 16z" />
    <glyph glyph-name="aKhah.fina" unicode="&#x62e;" horiz-adv-x="570" arabic-form="final" 
d="M269 385q-40 0 -72.5 -15t-65.5 -47q-8 -8 -12 -3l-11 10q-6 6 -2 13q13 12 29.5 24.5t36.5 23t45 17.5t54 7q63 0 102 -23t60 -59.5t28 -80.5t7 -86q0 -15 -0.5 -30.5t-1.5 -28.5q1 -32 24 -54.5t60 -22.5h21q20 0 29.5 -2t9.5 -14q0 -10 -9.5 -12t-29.5 -2
q-41 0 -70.5 10t-45.5 43q-11 -28 -35.5 -40.5t-71.5 -12.5h-200q-26 0 -42.5 -7t-25.5 -19t-12.5 -28t-3.5 -35q0 -44 22.5 -61t62.5 -17h127q10 0 10 -9v-12q0 -9 -10 -9h-117q-66 0 -96 27t-30 81q0 36 9.5 59.5t25.5 36.5t36.5 18t41.5 5h197q32 0 51 6.5t28.5 22
t12.5 42.5t3 68q0 47 -9 87t-29 68.5t-52.5 44.5t-78.5 16zM248 503q-9 0 -9 9v40q0 9 9 9h24q9 0 9 -9v-40q0 -9 -9 -9h-24z" />
    <glyph glyph-name="aKhah.init" unicode="&#x62e;" horiz-adv-x="506" arabic-form="initial" 
d="M245 385q-38 0 -70.5 -15t-65.5 -47q-8 -8 -12 -3l-11 10q-6 6 -2 13q13 12 29.5 24.5t37 23t45 17.5t54.5 7q63 0 101.5 -23t59.5 -59.5t28 -80.5t7 -86q0 -45 -4 -76.5t-16.5 -51.5t-36.5 -29t-63 -9h-326q-20 0 -30 2t-10 13q0 9 9.5 12t30.5 3h321q32 0 51 6.5
t28.5 22t12.5 42.5t3 68q0 47 -9 87t-29.5 68.5t-53 44.5t-79.5 16zM237 502q-9 0 -9 9v40q0 9 9 9h24q9 0 9 -9v-40q0 -9 -9 -9h-24z" />
    <glyph glyph-name="aKhah.medi" unicode="&#x62e;" horiz-adv-x="547" arabic-form="medial" 
d="M244 385q-38 0 -70 -15t-65 -47q-8 -8 -12 -3l-11 10q-6 6 -2 13q13 12 29.5 24.5t36.5 23t45 17.5t54 7q63 0 102 -23t60 -59.5t28 -80.5t7 -86q0 -15 -0.5 -30.5t-1.5 -28.5q1 -32 24 -54.5t60 -22.5h21q20 0 29.5 -2t9.5 -14q0 -10 -9.5 -12t-29.5 -2q-41 0 -70.5 10
t-45.5 43q-11 -28 -35.5 -40.5t-71.5 -12.5h-327q-20 0 -29.5 2t-9.5 13q0 9 9.5 12t29.5 3h322q32 0 51 6.5t28.5 22t12.5 42.5t3 68q0 47 -9 87t-29.5 68.5t-53 44.5t-80.5 16zM237 502q-9 0 -9 9v40q0 9 9 9h24q9 0 9 -9v-40q0 -9 -9 -9h-24z" />
    <glyph glyph-name="aDal.fina" unicode="&#x62f;" horiz-adv-x="517" arabic-form="final" 
d="M401 53q-14 -29 -42.5 -41t-81.5 -12h-203q-9 0 -9 9v12q0 9 9 9h210q33 0 52.5 5.5t30 19t14 36t3.5 55.5v114q0 62 -31 93.5t-110 31.5h-118q-9 0 -9 9v12q0 9 9 9h121q87 0 127.5 -37.5t40.5 -124.5v-136q0 -87 103 -87q20 0 29.5 -2.5t9.5 -12.5q0 -11 -9.5 -13
t-29.5 -2q-41 0 -72 12t-44 41z" />
    <glyph glyph-name="aDhal.fina" unicode="&#x630;" horiz-adv-x="517" arabic-form="final" 
d="M401 53q-14 -29 -42.5 -41t-81.5 -12h-203q-9 0 -9 9v12q0 9 9 9h210q33 0 52.5 5.5t30 19t14 36t3.5 55.5v114q0 62 -31 93.5t-110 31.5h-118q-9 0 -9 9v12q0 9 9 9h121q87 0 127.5 -37.5t40.5 -124.5v-136q0 -87 103 -87q20 0 29.5 -2.5t9.5 -12.5q0 -11 -9.5 -13
t-29.5 -2q-41 0 -72 12t-44 41zM178 503q-9 0 -9 9v40q0 9 9 9h24q9 0 9 -9v-40q0 -9 -9 -9h-24z" />
    <glyph glyph-name="aReh.fina" unicode="&#x631;" horiz-adv-x="247" arabic-form="final" 
d="M145 -65q0 -60 -28 -96t-91 -36h-18q-9 0 -9 9v12q0 9 9 9h19q42 0 65 21t23 71v463q0 9 9 9h12q9 0 9 -9v-273q0 -44 27 -64.5t75 -20.5q20 0 29.5 -2.5t9.5 -12.5q0 -9 -9.5 -12t-29.5 -3q-32 0 -57.5 9.5t-44.5 33.5v-108z" />
    <glyph glyph-name="aZeh.fina" unicode="&#x632;" horiz-adv-x="247" arabic-form="final" 
d="M145 -65q0 -60 -28 -96t-91 -36h-18q-9 0 -9 9v12q0 9 9 9h19q42 0 65 21t23 71v463q0 9 9 9h12q9 0 9 -9v-273q0 -44 27 -64.5t75 -20.5q20 0 29.5 -2.5t9.5 -12.5q0 -9 -9.5 -12t-29.5 -3q-32 0 -57.5 9.5t-44.5 33.5v-108zM119 503q-9 0 -9 9v40q0 9 9 9h24q9 0 9 -9
v-40q0 -9 -9 -9h-24z" />
    <glyph glyph-name="aSin.fina" unicode="&#x633;" horiz-adv-x="1061" arabic-form="final" 
d="M50 4q0 33 7.5 64t18 56.5t21.5 45.5t19 31q3 4 7 2l19 -11q3 -2 1 -6q-26 -38 -44.5 -84t-18.5 -94q0 -51 18 -85t46 -54t62.5 -28t66.5 -8q90 0 138 45t48 134v275q0 9 9 9h12q9 0 9 -9v-170q0 -41 17.5 -64t65.5 -23h33q27 0 43.5 5t25.5 16.5t12 29t3 42.5v164
q0 9 9 9h12q9 0 9 -9v-180q0 -36 24 -56.5t70 -20.5h33q27 0 43.5 6t25.5 18.5t11.5 33t2.5 49.5v251q0 9 9 9h12q9 0 9 -9v-273q0 -44 27.5 -64.5t74.5 -20.5q20 0 29.5 -2.5t9.5 -12.5q0 -9 -9.5 -12t-29.5 -3q-52 0 -77 17.5t-34 34.5q-7 -18 -17.5 -28t-23.5 -15.5
t-27 -7t-27 -1.5h-53q-34 0 -59.5 15t-33.5 36q-11 -22 -31 -36.5t-62 -14.5h-51q-19 0 -41.5 8t-34.5 28h-2v-19q0 -40 -9.5 -78.5t-34 -68.5t-66.5 -48.5t-107 -18.5q-53 0 -94 15t-69 41.5t-42.5 63.5t-14.5 81z" />
    <glyph glyph-name="aSin.init" unicode="&#x633;" horiz-adv-x="730" arabic-form="initial" 
d="M-15 0q-10 0 -17.5 3t-7.5 11q0 11 9.5 13.5t29.5 2.5h74q26 0 42.5 5t25.5 16.5t12 29t3 42.5v164q0 9 9 9h12q9 0 9 -9v-180q0 -41 17.5 -59t65.5 -18h34q26 0 42.5 5t25.5 16.5t12 29t3 42.5v164q0 9 9 9h12q9 0 9 -9v-180q0 -36 24 -56.5t70 -20.5h34q27 0 43 6
t25 18.5t11.5 33t2.5 49.5v251q0 9 9 9h12q9 0 9 -9v-264q0 -42 -9.5 -66.5t-24 -37.5t-33 -16.5t-36.5 -3.5h-54q-34 0 -59.5 15t-33.5 36q-11 -26 -31 -38.5t-61 -12.5h-52q-9 0 -21.5 1t-24.5 6t-23.5 14t-18.5 26q-11 -22 -30 -34.5t-60 -12.5h-99z" />
    <glyph glyph-name="aSin.medi" unicode="&#x633;" horiz-adv-x="758" arabic-form="medial" 
d="M758 0q-52 0 -77 17.5t-34 34.5q-7 -18 -17.5 -28t-23.5 -15.5t-26.5 -7t-26.5 -1.5h-54q-34 0 -59.5 15t-33.5 36q-11 -26 -31 -38.5t-61 -12.5h-52q-9 0 -21.5 1t-24.5 6t-23.5 14t-18.5 26q-11 -22 -30 -34.5t-60 -12.5h-99q-10 0 -17.5 3t-7.5 11q0 11 9.5 13.5
t29.5 2.5h74q26 0 42.5 5t25.5 16.5t12 29t3 42.5v164q0 9 9 9h12q9 0 9 -9v-180q0 -41 17.5 -59t65.5 -18h33q27 0 43.5 5t25.5 16.5t12 29t3 42.5v164q0 9 9 9h12q9 0 9 -9v-180q0 -36 24 -56.5t70 -20.5h33q27 0 43.5 6t25.5 18.5t11.5 33t2.5 49.5v251q0 9 9 9h12
q9 0 9 -9v-273q0 -44 27.5 -64.5t74.5 -20.5q20 0 30 -2.5t10 -12.5q0 -9 -10 -12t-30 -3z" />
    <glyph glyph-name="aShin.fina" unicode="&#x634;" horiz-adv-x="1061" arabic-form="final" 
d="M50 4q0 33 7.5 64t18 56.5t21.5 45.5t19 31q3 4 7 2l19 -11q3 -2 1 -6q-26 -38 -44.5 -84t-18.5 -94q0 -51 18 -85t46 -54t62.5 -28t66.5 -8q90 0 138 45t48 134v275q0 9 9 9h12q9 0 9 -9v-170q0 -41 17.5 -64t65.5 -23h33q27 0 43.5 5t25.5 16.5t12 29t3 42.5v164
q0 9 9 9h12q9 0 9 -9v-180q0 -36 24 -56.5t70 -20.5h33q27 0 43.5 6t25.5 18.5t11.5 33t2.5 49.5v251q0 9 9 9h12q9 0 9 -9v-273q0 -44 27.5 -64.5t74.5 -20.5q20 0 29.5 -2.5t9.5 -12.5q0 -9 -9.5 -12t-29.5 -3q-52 0 -77 17.5t-34 34.5q-7 -18 -17.5 -28t-23.5 -15.5
t-27 -7t-27 -1.5h-53q-34 0 -59.5 15t-33.5 36q-11 -22 -31 -36.5t-62 -14.5h-51q-19 0 -41.5 8t-34.5 28h-2v-19q0 -40 -9.5 -78.5t-34 -68.5t-66.5 -48.5t-107 -18.5q-53 0 -94 15t-69 41.5t-42.5 63.5t-14.5 81zM640 503q-9 0 -9 9v40q0 9 9 9h24q9 0 9 -9v-40
q0 -9 -9 -9h-24zM741 503q-9 0 -9 9v40q0 9 9 9h24q9 0 9 -9v-40q0 -9 -9 -9h-24zM690 612q-9 0 -9 9v40q0 9 9 9h24q9 0 9 -9v-40q0 -9 -9 -9h-24z" />
    <glyph glyph-name="aShin.init" unicode="&#x634;" horiz-adv-x="730" arabic-form="initial" 
d="M-15 0q-10 0 -17.5 3t-7.5 11q0 11 9.5 13.5t29.5 2.5h74q26 0 42.5 5t25.5 16.5t12 29t3 42.5v164q0 9 9 9h12q9 0 9 -9v-180q0 -41 17.5 -59t65.5 -18h34q26 0 42.5 5t25.5 16.5t12 29t3 42.5v164q0 9 9 9h12q9 0 9 -9v-180q0 -36 24 -56.5t70 -20.5h34q27 0 43 6
t25 18.5t11.5 33t2.5 49.5v251q0 9 9 9h12q9 0 9 -9v-264q0 -42 -9.5 -66.5t-24 -37.5t-33 -16.5t-36.5 -3.5h-54q-34 0 -59.5 15t-33.5 36q-11 -26 -31 -38.5t-61 -12.5h-52q-9 0 -21.5 1t-24.5 6t-23.5 14t-18.5 26q-11 -22 -30 -34.5t-60 -12.5h-99zM337 503q-9 0 -9 9
v40q0 9 9 9h24q9 0 9 -9v-40q0 -9 -9 -9h-24zM438 503q-9 0 -9 9v40q0 9 9 9h24q9 0 9 -9v-40q0 -9 -9 -9h-24zM387 612q-9 0 -9 9v40q0 9 9 9h24q9 0 9 -9v-40q0 -9 -9 -9h-24z" />
    <glyph glyph-name="aShin.medi" unicode="&#x634;" horiz-adv-x="758" arabic-form="medial" 
d="M758 0q-52 0 -77 17.5t-34 34.5q-7 -18 -17.5 -28t-23.5 -15.5t-26.5 -7t-26.5 -1.5h-54q-34 0 -59.5 15t-33.5 36q-11 -26 -31 -38.5t-61 -12.5h-52q-9 0 -21.5 1t-24.5 6t-23.5 14t-18.5 26q-11 -22 -30 -34.5t-60 -12.5h-99q-10 0 -17.5 3t-7.5 11q0 11 9.5 13.5
t29.5 2.5h74q26 0 42.5 5t25.5 16.5t12 29t3 42.5v164q0 9 9 9h12q9 0 9 -9v-180q0 -41 17.5 -59t65.5 -18h33q27 0 43.5 5t25.5 16.5t12 29t3 42.5v164q0 9 9 9h12q9 0 9 -9v-180q0 -36 24 -56.5t70 -20.5h33q27 0 43.5 6t25.5 18.5t11.5 33t2.5 49.5v251q0 9 9 9h12
q9 0 9 -9v-273q0 -44 27.5 -64.5t74.5 -20.5q20 0 30 -2.5t10 -12.5q0 -9 -10 -12t-30 -3zM338 503q-9 0 -9 9v40q0 9 9 9h24q9 0 9 -9v-40q0 -9 -9 -9h-24zM439 503q-9 0 -9 9v40q0 9 9 9h24q9 0 9 -9v-40q0 -9 -9 -9h-24zM388 612q-9 0 -9 9v40q0 9 9 9h24q9 0 9 -9v-40
q0 -9 -9 -9h-24z" />
    <glyph glyph-name="aSad.fina" unicode="&#x635;" horiz-adv-x="1068" arabic-form="final" 
d="M50 4q0 33 7.5 64t18 56.5t21.5 45.5t19 31q3 4 7 2l19 -11q3 -2 1 -6q-26 -38 -44.5 -84t-18.5 -94q0 -51 18 -85t46 -54t62.5 -28t66.5 -8q90 0 138 45t48 134v369q0 9 9 9h12q9 0 9 -9v-42q27 13 58 27t65 24.5t68.5 17.5t67.5 7q77 0 122 -23t68 -58t29.5 -76
t6.5 -76q0 -19 -1 -35t-3 -31q0 -86 95 -86h4q39 0 39 -16q0 -10 -9.5 -12t-29.5 -2q-18 0 -36 3t-33.5 9.5t-27 18.5t-17.5 30q-10 -21 -25.5 -33t-35.5 -18t-45.5 -8t-56.5 -2h-304q-2 -38 -13.5 -73.5t-36.5 -63t-66 -44t-102 -16.5q-53 0 -94 15t-69 41.5t-42.5 63.5
t-14.5 81zM747 385q-32 0 -66.5 -7.5t-68.5 -18.5t-66 -25.5t-57 -27.5v-276h311q36 0 63 2.5t45 17t27 45t9 86.5q0 46 -9.5 83.5t-32 64.5t-60.5 41.5t-95 14.5z" />
    <glyph glyph-name="aSad.init" unicode="&#x635;" horiz-adv-x="714" arabic-form="initial" 
d="M191 0q-19 0 -32.5 2t-26.5 9q-7 -4 -18 -6.5t-23 -3.5t-24 -1h-21h-47q-39 0 -39 14q0 16 39 16h73q25 0 39 6t20.5 17t7.5 26t1 32v269q0 10 9 10h12q9 0 9 -9v-42q27 13 58 27t65 24.5t68.5 17.5t67.5 7q77 0 122 -23t68 -58t29.5 -76t6.5 -76q0 -63 -11 -99.5
t-33.5 -55t-57 -23t-80.5 -4.5h-282zM481 30q36 0 63 2.5t44.5 17t26.5 45t9 86.5q0 46 -9 83.5t-31.5 63.5t-60.5 40.5t-95 14.5q-32 0 -66.5 -7t-68.5 -18.5t-66 -25.5t-57 -27v-211q0 -16 -4.5 -33t-15.5 -31h331z" />
    <glyph glyph-name="aSad.medi" unicode="&#x635;" horiz-adv-x="750" arabic-form="medial" 
d="M651 116q0 -86 95 -86h4q40 0 40 -16q0 -10 -10 -12t-30 -2q-18 0 -36 3t-33.5 9.5t-27 18.5t-17.5 30q-20 -41 -60.5 -51t-102.5 -10h-282q-19 0 -32.5 2t-26.5 9q-7 -4 -18 -6.5t-23 -3.5t-24.5 -1h-21.5h-46q-39 0 -39 14q0 16 39 16h71q25 0 39 6t21 17t8.5 26
t1.5 32v269q0 10 9 10h12q9 0 9 -9v-42q27 13 58 27t65 24.5t68.5 17.5t67.5 7q77 0 122 -23t68 -58t29.5 -76t6.5 -76q0 -19 -1 -35t-3 -31zM481 30q36 0 63 2.5t44.5 17t26.5 45t9 86.5q0 46 -9 83.5t-31.5 63.5t-60.5 40.5t-95 14.5q-32 0 -66.5 -7t-68.5 -18.5
t-66 -25.5t-57 -27v-211q0 -16 -4.5 -33t-15.5 -31h331z" />
    <glyph glyph-name="aDad.fina" unicode="&#x636;" horiz-adv-x="1068" arabic-form="final" 
d="M50 4q0 33 7.5 64t18 56.5t21.5 45.5t19 31q3 4 7 2l19 -11q3 -2 1 -6q-26 -38 -44.5 -84t-18.5 -94q0 -51 18 -85t46 -54t62.5 -28t66.5 -8q90 0 138 45t48 134v369q0 9 9 9h12q9 0 9 -9v-42q27 13 58 27t65 24.5t68.5 17.5t67.5 7q77 0 122 -23t68 -58t29.5 -76
t6.5 -76q0 -19 -1 -35t-3 -31q0 -86 95 -86h4q39 0 39 -16q0 -10 -9.5 -12t-29.5 -2q-18 0 -36 3t-33.5 9.5t-27 18.5t-17.5 30q-10 -21 -25.5 -33t-35.5 -18t-45.5 -8t-56.5 -2h-304q-2 -38 -13.5 -73.5t-36.5 -63t-66 -44t-102 -16.5q-53 0 -94 15t-69 41.5t-42.5 63.5
t-14.5 81zM747 385q-32 0 -66.5 -7.5t-68.5 -18.5t-66 -25.5t-57 -27.5v-276h311q36 0 63 2.5t45 17t27 45t9 86.5q0 46 -9.5 83.5t-32 64.5t-60.5 41.5t-95 14.5zM743 503q-9 0 -9 9v40q0 9 9 9h24q9 0 9 -9v-40q0 -9 -9 -9h-24z" />
    <glyph glyph-name="aDad.init" unicode="&#x636;" horiz-adv-x="714" arabic-form="initial" 
d="M191 0q-19 0 -32.5 2t-26.5 9q-7 -4 -18 -6.5t-23 -3.5t-24 -1h-21h-47q-39 0 -39 14q0 16 39 16h73q25 0 39 6t20.5 17t7.5 26t1 32v269q0 10 9 10h12q9 0 9 -9v-42q27 13 58 27t65 24.5t68.5 17.5t67.5 7q77 0 122 -23t68 -58t29.5 -76t6.5 -76q0 -63 -11 -99.5
t-33.5 -55t-57 -23t-80.5 -4.5h-282zM481 30q36 0 63 2.5t44.5 17t26.5 45t9 86.5q0 46 -9 83.5t-31.5 63.5t-60.5 40.5t-95 14.5q-32 0 -66.5 -7t-68.5 -18.5t-66 -25.5t-57 -27v-211q0 -16 -4.5 -33t-15.5 -31h331zM423 503q-9 0 -9 9v40q0 9 9 9h24q9 0 9 -9v-40
q0 -9 -9 -9h-24z" />
    <glyph glyph-name="aDad.medi" unicode="&#x636;" horiz-adv-x="750" arabic-form="medial" 
d="M651 116q0 -86 95 -86h4q40 0 40 -16q0 -10 -10 -12t-30 -2q-18 0 -36 3t-33.5 9.5t-27 18.5t-17.5 30q-20 -41 -60.5 -51t-102.5 -10h-282q-19 0 -32.5 2t-26.5 9q-7 -4 -18 -6.5t-23 -3.5t-24.5 -1h-21.5h-46q-39 0 -39 14q0 16 39 16h71q25 0 39 6t21 17t8.5 26
t1.5 32v269q0 10 9 10h12q9 0 9 -9v-42q27 13 58 27t65 24.5t68.5 17.5t67.5 7q77 0 122 -23t68 -58t29.5 -76t6.5 -76q0 -19 -1 -35t-3 -31zM481 30q36 0 63 2.5t44.5 17t26.5 45t9 86.5q0 46 -9 83.5t-31.5 63.5t-60.5 40.5t-95 14.5q-32 0 -66.5 -7t-68.5 -18.5
t-66 -25.5t-57 -27v-211q0 -16 -4.5 -33t-15.5 -31h331zM423 503q-9 0 -9 9v40q0 9 9 9h24q9 0 9 -9v-40q0 -9 -9 -9h-24z" />
    <glyph glyph-name="aTah.fina" unicode="&#x637;" horiz-adv-x="752" arabic-form="final" 
d="M481 30q36 0 63 2.5t45 17t27 45t9 86.5q0 46 -9.5 83.5t-32 64t-60.5 41t-95 14.5q-32 0 -66.5 -7.5t-68.5 -18.5t-66 -25.5t-57 -27.5v-211q0 -16 -4.5 -33t-15.5 -31h331zM44 0q-9 0 -9 9v12q0 9 9 9h25q25 0 39.5 6t21.5 17t8.5 26t1.5 32v560q0 10 9 10h12q9 0 9 -9
v-333q27 13 58 27t65 24.5t68.5 17.5t67.5 7q77 0 122 -23t68 -58t29.5 -76t6.5 -76q0 -19 -1 -35t-3 -31q0 -86 97 -86h4q39 0 39 -16q0 -10 -9.5 -12t-29.5 -2q-18 0 -36.5 3t-34.5 9.5t-27.5 18.5t-17.5 30q-10 -21 -25.5 -33t-35.5 -18t-45.5 -8t-56.5 -2h-282
q-18 0 -31.5 2t-26.5 9q-14 -8 -36.5 -9.5t-40.5 -1.5h-12z" />
    <glyph glyph-name="aTah.init" unicode="&#x637;" horiz-adv-x="696" arabic-form="initial" 
d="M463 30q36 0 63 2.5t45 17t27 45t9 86.5q0 46 -9.5 83.5t-32 64t-60.5 41t-95 14.5q-32 0 -66.5 -7.5t-68.5 -18.5t-66 -25.5t-57 -27.5v-211q0 -16 -5 -33t-17 -31h333zM-1 0q-20 0 -29.5 3t-9.5 12q0 10 9.5 12.5t29.5 2.5h53q25 0 39 6t21 17t8.5 26t1.5 32v560
q0 10 9 10h12q9 0 9 -9v-333q27 13 58 27t65 24.5t68.5 17.5t67.5 7q77 0 122 -23t68 -58t29.5 -76t6.5 -76q0 -63 -11 -99.5t-33.5 -55t-57 -23t-80.5 -4.5h-282q-19 0 -32.5 2t-26.5 9q-7 -4 -18 -6.5t-23.5 -3.5t-25 -1h-21.5h-27z" />
    <glyph glyph-name="aTah.medi" unicode="&#x637;" horiz-adv-x="732" arabic-form="medial" 
d="M463 30q36 0 63 2.5t45 17t27 45t9 86.5q0 46 -9.5 83.5t-32 64t-60.5 41t-95 14.5q-32 0 -66.5 -7.5t-68.5 -18.5t-66 -25.5t-57 -27.5v-211q0 -16 -5 -33t-17 -31h333zM637 182q0 -19 -1 -35t-3 -31q0 -86 95 -86h4q39 0 39 -16q0 -10 -9.5 -12t-29.5 -2q-18 0 -36 3
t-33.5 9.5t-27 18.5t-17.5 30q-10 -21 -25.5 -33t-35.5 -18t-45.5 -8t-56.5 -2h-282q-19 0 -32.5 2t-26.5 9q-7 -4 -18.5 -6.5t-24 -3.5t-24.5 -1h-21h-27q-20 0 -29.5 3t-9.5 12q0 10 9.5 12.5t29.5 2.5h52q25 0 39.5 6t21.5 17t8.5 26t1.5 32v560q0 10 9 10h12q9 0 9 -9
v-333q27 13 58 27t65 24.5t68.5 17.5t67.5 7q77 0 122 -23t68 -58t29.5 -76t6.5 -76z" />
    <glyph glyph-name="aZah.fina" unicode="&#x638;" horiz-adv-x="752" arabic-form="final" 
d="M481 30q36 0 63 2.5t45 17t27 45t9 86.5q0 46 -9.5 83.5t-32 64t-60.5 41t-95 14.5q-32 0 -66.5 -7.5t-68.5 -18.5t-66 -25.5t-57 -27.5v-211q0 -16 -4.5 -33t-15.5 -31h331zM44 0q-9 0 -9 9v12q0 9 9 9h25q25 0 39.5 6t21.5 17t8.5 26t1.5 32v560q0 10 9 10h12q9 0 9 -9
v-333q27 13 58 27t65 24.5t68.5 17.5t67.5 7q77 0 122 -23t68 -58t29.5 -76t6.5 -76q0 -19 -1 -35t-3 -31q0 -86 97 -86h4q39 0 39 -16q0 -10 -9.5 -12t-29.5 -2q-18 0 -36.5 3t-34.5 9.5t-27.5 18.5t-17.5 30q-10 -21 -25.5 -33t-35.5 -18t-45.5 -8t-56.5 -2h-282
q-18 0 -31.5 2t-26.5 9q-14 -8 -36.5 -9.5t-40.5 -1.5h-12zM398 503q-9 0 -9 9v40q0 9 9 9h24q9 0 9 -9v-40q0 -9 -9 -9h-24z" />
    <glyph glyph-name="aZah.init" unicode="&#x638;" horiz-adv-x="696" arabic-form="initial" 
d="M463 30q36 0 63 2.5t45 17t27 45t9 86.5q0 46 -9.5 83.5t-32 64t-60.5 41t-95 14.5q-32 0 -66.5 -7.5t-68.5 -18.5t-66 -25.5t-57 -27.5v-211q0 -16 -5 -33t-17 -31h333zM-1 0q-20 0 -29.5 3t-9.5 12q0 10 9.5 12.5t29.5 2.5h53q25 0 39 6t21 17t8.5 26t1.5 32v560
q0 10 9 10h12q9 0 9 -9v-333q27 13 58 27t65 24.5t68.5 17.5t67.5 7q77 0 122 -23t68 -58t29.5 -76t6.5 -76q0 -63 -11 -99.5t-33.5 -55t-57 -23t-80.5 -4.5h-282q-19 0 -32.5 2t-26.5 9q-7 -4 -18 -6.5t-23.5 -3.5t-25 -1h-21.5h-27zM385 503q-9 0 -9 9v40q0 9 9 9h24
q9 0 9 -9v-40q0 -9 -9 -9h-24z" />
    <glyph glyph-name="aZah.medi" unicode="&#x638;" horiz-adv-x="732" arabic-form="medial" 
d="M463 30q36 0 63 2.5t45 17t27 45t9 86.5q0 46 -9.5 83.5t-32 64t-60.5 41t-95 14.5q-32 0 -66.5 -7.5t-68.5 -18.5t-66 -25.5t-57 -27.5v-211q0 -16 -5 -33t-17 -31h333zM637 182q0 -19 -1 -35t-3 -31q0 -86 95 -86h4q39 0 39 -16q0 -10 -9.5 -12t-29.5 -2q-18 0 -36 3
t-33.5 9.5t-27 18.5t-17.5 30q-10 -21 -25.5 -33t-35.5 -18t-45.5 -8t-56.5 -2h-282q-19 0 -32.5 2t-26.5 9q-7 -4 -18.5 -6.5t-24 -3.5t-24.5 -1h-21h-27q-20 0 -29.5 3t-9.5 12q0 10 9.5 12.5t29.5 2.5h52q25 0 39.5 6t21.5 17t8.5 26t1.5 32v560q0 10 9 10h12q9 0 9 -9
v-333q27 13 58 27t65 24.5t68.5 17.5t67.5 7q77 0 122 -23t68 -58t29.5 -76t6.5 -76zM389 503q-9 0 -9 9v40q0 9 9 9h24q9 0 9 -9v-40q0 -9 -9 -9h-24z" />
    <glyph glyph-name="aAyn.fina" unicode="&#x639;" horiz-adv-x="527" arabic-form="final" 
d="M282 385q-31 0 -58.5 -6.5t-48.5 -15.5t-35.5 -18t-20.5 -13q31 -22 59 -48.5t52 -59t42.5 -72t29.5 -87.5q24 13 47 34t41 47.5t28.5 57t10.5 63.5q0 57 -40 87.5t-107 30.5zM40 -104q0 34 15.5 57t45.5 40.5t73 31t99 27.5q-10 45 -27.5 82t-40 67.5t-47.5 54.5t-49 43
q-5 4 -9.5 8.5t-4.5 6.5v36q0 4 14.5 14.5t39.5 22t59 20t73 8.5q88 0 133 -38t45 -110q0 -35 -11 -68.5t-29.5 -63t-43 -53.5t-51.5 -40q6 -3 18 -5.5t25.5 -4t27 -2t22.5 -0.5h110q30 0 36.5 -4.5t6.5 -10.5q0 -9 -9 -12t-34 -3h-122q-35 0 -62.5 3.5t-53.5 20.5
q-48 -12 -88.5 -23t-69.5 -25.5t-45.5 -33.5t-16.5 -46q0 -38 23 -50.5t63 -12.5h128q9 0 9 -9v-12q0 -9 -9 -9h-132q-57 0 -84 22.5t-27 70.5z" />
    <glyph glyph-name="aAyn.init" unicode="&#x639;" horiz-adv-x="511" arabic-form="initial" 
d="M264 367q-42 0 -71.5 -13.5t-48.5 -36.5t-28 -53.5t-9 -65.5q0 -28 7.5 -54.5t21 -48.5t33 -39t43.5 -26h240q9 0 9 -9v-12q0 -9 -9 -9h-452q-20 0 -30 2t-10 12q0 11 9.5 13.5t30.5 2.5h156q-26 18 -41.5 41t-24 46.5t-11.5 45t-3 36.5q0 26 7 60t27.5 65t57.5 52t97 21
q54 0 92.5 -21t62.5 -53q5 -6 -1 -10l-12 -11q-6 -5 -12 1q-23 29 -58 46.5t-73 17.5z" />
    <glyph glyph-name="aAyn.medi" unicode="&#x639;" horiz-adv-x="509" arabic-form="medial" 
d="M264 415q88 0 132.5 -38t44.5 -110q0 -35 -11 -68.5t-29.5 -63t-43 -53.5t-51.5 -40q6 -3 18 -5.5t25.5 -4t27 -2t22.5 -0.5h110q30 0 36.5 -4.5t6.5 -10.5q0 -9 -9 -12t-34 -3h-122q-35 0 -64.5 4t-55.5 21q-17 -8 -36.5 -13t-39.5 -7.5t-38.5 -3.5t-32.5 -1h-121
q-23 0 -32 2.5t-9 11.5q0 8 6.5 12t34.5 4h127q39 0 74.5 6.5t55.5 16.5q-10 45 -28 82t-40.5 67t-47.5 54t-49 43q-5 4 -9.5 8.5t-4.5 6.5v36q0 4 14.5 14.5t40 21.5t59.5 20t73 9zM264 385q-31 0 -58.5 -6.5t-48.5 -15.5t-35.5 -18t-20.5 -13q31 -22 59 -48.5t52 -59
t42.5 -72t29.5 -87.5q24 13 47 34t41 47.5t28.5 57t10.5 63.5q0 57 -39 87.5t-108 30.5z" />
    <glyph glyph-name="aGhayn.fina" unicode="&#x63a;" horiz-adv-x="527" arabic-form="final" 
d="M282 385q-31 0 -58.5 -6.5t-48.5 -15.5t-35.5 -18t-20.5 -13q31 -22 59 -48.5t52 -59t42.5 -72t29.5 -87.5q24 13 47 34t41 47.5t28.5 57t10.5 63.5q0 57 -40 87.5t-107 30.5zM40 -104q0 34 15.5 57t45.5 40.5t73 31t99 27.5q-10 45 -27.5 82t-40 67.5t-47.5 54.5t-49 43
q-5 4 -9.5 8.5t-4.5 6.5v36q0 4 14.5 14.5t39.5 22t59 20t73 8.5q88 0 133 -38t45 -110q0 -35 -11 -68.5t-29.5 -63t-43 -53.5t-51.5 -40q6 -3 18 -5.5t25.5 -4t27 -2t22.5 -0.5h110q30 0 36.5 -4.5t6.5 -10.5q0 -9 -9 -12t-34 -3h-122q-35 0 -62.5 3.5t-53.5 20.5
q-48 -12 -88.5 -23t-69.5 -25.5t-45.5 -33.5t-16.5 -46q0 -38 23 -50.5t63 -12.5h128q9 0 9 -9v-12q0 -9 -9 -9h-132q-57 0 -84 22.5t-27 70.5zM291 503q-9 0 -9 9v40q0 9 9 9h24q9 0 9 -9v-40q0 -9 -9 -9h-24z" />
    <glyph glyph-name="aGhayn.init" unicode="&#x63a;" horiz-adv-x="511" arabic-form="initial" 
d="M264 367q-42 0 -71.5 -13.5t-48.5 -36.5t-28 -53.5t-9 -65.5q0 -28 7.5 -54.5t21 -48.5t33 -39t43.5 -26h240q9 0 9 -9v-12q0 -9 -9 -9h-452q-20 0 -30 2t-10 12q0 11 9.5 13.5t30.5 2.5h156q-26 18 -41.5 41t-24 46.5t-11.5 45t-3 36.5q0 26 7 60t27.5 65t57.5 52t97 21
q54 0 92.5 -21t62.5 -53q5 -6 -1 -10l-12 -11q-6 -5 -12 1q-23 29 -58 46.5t-73 17.5zM260 503q-9 0 -9 9v40q0 9 9 9h24q9 0 9 -9v-40q0 -9 -9 -9h-24z" />
    <glyph glyph-name="aGhayn.medi" unicode="&#x63a;" horiz-adv-x="509" arabic-form="medial" 
d="M264 415q88 0 132.5 -38t44.5 -110q0 -35 -11 -68.5t-29.5 -63t-43 -53.5t-51.5 -40q6 -3 18 -5.5t25.5 -4t27 -2t22.5 -0.5h110q30 0 36.5 -4.5t6.5 -10.5q0 -9 -9 -12t-34 -3h-122q-35 0 -64.5 4t-55.5 21q-17 -8 -36.5 -13t-39.5 -7.5t-38.5 -3.5t-32.5 -1h-121
q-23 0 -32 2.5t-9 11.5q0 8 6.5 12t34.5 4h127q39 0 74.5 6.5t55.5 16.5q-10 45 -28 82t-40.5 67t-47.5 54t-49 43q-5 4 -9.5 8.5t-4.5 6.5v36q0 4 14.5 14.5t40 21.5t59.5 20t73 9zM264 385q-31 0 -58.5 -6.5t-48.5 -15.5t-35.5 -18t-20.5 -13q31 -22 59 -48.5t52 -59
t42.5 -72t29.5 -87.5q24 13 47 34t41 47.5t28.5 57t10.5 63.5q0 57 -39 87.5t-108 30.5zM255 503q-9 0 -9 9v40q0 9 9 9h24q9 0 9 -9v-40q0 -9 -9 -9h-24z" />
    <glyph glyph-name="aFeh.fina" unicode="&#x641;" horiz-adv-x="946" arabic-form="final" 
d="M712 385q-32 0 -59.5 -10.5t-47.5 -30t-31.5 -48t-11.5 -64.5q0 -34 12 -64t33 -55t48 -43.5t57 -28.5q29 10 56 28.5t48 43.5t34 55t13 64q0 33 -11.5 61.5t-32 48.5t-48 31.5t-59.5 11.5zM628 30q6 0 15 1t17 3q-24 13 -47 32.5t-41 44.5t-29 55.5t-11 65.5
q0 34 11 66.5t33.5 58.5t56.5 42t79 16q41 0 74.5 -14t57.5 -39t37 -58t13 -71q0 -35 -12 -65.5t-30.5 -56.5t-42 -46.5t-47.5 -33.5q16 -1 40 -1h40h107q20 0 29.5 -3t9.5 -12q0 -8 -8 -11.5t-31 -3.5h-107q-36 0 -69 3.5t-60 14.5q-15 -7 -33 -10.5t-36.5 -5t-36.5 -2
t-32 -0.5h-421q-44 0 -71.5 20.5t-27.5 70.5v232q0 9 9 9h12q9 0 9 -9v-224q0 -36 17 -52.5t55 -16.5h471zM701 503q-9 0 -9 9v40q0 9 9 9h24q9 0 9 -9v-40q0 -9 -9 -9h-24z" />
    <glyph glyph-name="aFeh.init" unicode="&#x641;" horiz-adv-x="503" arabic-form="initial" 
d="M174 30q-32 25 -46 65t-14 92q0 105 39 166.5t126 61.5q86 0 125 -55.5t39 -152.5q0 -112 -41 -159.5t-123 -47.5h-279q-21 0 -34 2t-13 13t13.5 13t33.5 2h174zM279 29q70 0 102 42t32 130q0 82 -31.5 133t-102.5 51t-103 -50.5t-32 -133.5q0 -88 31.5 -130t103.5 -42z
M265 503q-9 0 -9 9v40q0 9 9 9h24q9 0 9 -9v-40q0 -9 -9 -9h-24z" />
    <glyph glyph-name="aFeh.medi" unicode="&#x641;" horiz-adv-x="469" arabic-form="medial" 
d="M233 415q42 0 75.5 -14t57 -39t36.5 -58t13 -71q0 -35 -12 -66t-30.5 -57t-42 -46.5t-47.5 -32.5q16 -1 40.5 -1h40.5h106q20 0 30 -3t10 -12q0 -8 -8 -11.5t-32 -3.5h-106q-36 0 -69 3.5t-61 14.5q-15 -7 -32.5 -10.5t-36 -5t-36.5 -2t-32 -0.5h-97q-40 0 -40 14
q0 10 9.5 13t30.5 3h149q6 0 15 1t17 3q-24 12 -47 31.5t-41 44.5t-28.5 55.5t-10.5 66.5q0 34 11 66.5t33.5 58.5t56 42t78.5 16zM233 385q-32 0 -59.5 -10.5t-47.5 -30t-31 -48t-11 -64.5q0 -34 12 -64t32.5 -55t47.5 -43.5t57 -28.5q29 10 56.5 28.5t48.5 43.5t34 55
t13 64q0 33 -11.5 61.5t-32 48.5t-48 31.5t-60.5 11.5zM218 503q-9 0 -9 9v40q0 9 9 9h24q9 0 9 -9v-40q0 -9 -9 -9h-24z" />
    <glyph glyph-name="aQaf.fina" unicode="&#x642;" horiz-adv-x="730" arabic-form="final" 
d="M482 385q-59 0 -97.5 -46t-38.5 -146q0 -89 34 -126t108 -37h127v169q0 88 -30 137t-103 49zM80 21q0 -48 14 -83.5t39 -59t59 -34.5t74 -11h262q25 0 42 3.5t27 13.5t14 28t4 47v75h-121q-42 0 -75.5 9t-56.5 31.5t-35 59.5t-12 94q0 51 13 92t35.5 69.5t53 44
t65.5 15.5q44 0 75 -14.5t50.5 -41.5t28.5 -66.5t9 -89.5v-173h87q20 0 29.5 -2.5t9.5 -11.5q0 -10 -9.5 -13t-29.5 -3h-87v-75q0 -29 -4 -52t-16.5 -38.5t-35 -23.5t-58.5 -8h-276q-45 0 -82.5 15t-65 42.5t-42.5 67t-15 89.5q0 33 7.5 64t18 56.5t21.5 45.5t19 31q3 4 7 2
l19 -11q3 -2 1 -6q-26 -38 -44.5 -84t-18.5 -94zM410 503q-9 0 -9 9v40q0 9 9 9h24q9 0 9 -9v-40q0 -9 -9 -9h-24zM511 503q-9 0 -9 9v40q0 9 9 9h24q9 0 9 -9v-40q0 -9 -9 -9h-24z" />
    <glyph glyph-name="aQaf.init" unicode="&#x642;" horiz-adv-x="503" arabic-form="initial" 
d="M174 30q-32 25 -46 65t-14 92q0 105 39 166.5t126 61.5q86 0 125 -55.5t39 -152.5q0 -112 -41 -159.5t-123 -47.5h-279q-21 0 -34 2t-13 13t13.5 13t33.5 2h174zM279 29q70 0 102 42t32 130q0 82 -31.5 133t-102.5 51t-103 -50.5t-32 -133.5q0 -88 31.5 -130t103.5 -42z
M211 503q-9 0 -9 9v40q0 9 9 9h24q9 0 9 -9v-40q0 -9 -9 -9h-24zM312 503q-9 0 -9 9v40q0 9 9 9h24q9 0 9 -9v-40q0 -9 -9 -9h-24z" />
    <glyph glyph-name="aQaf.medi" unicode="&#x642;" horiz-adv-x="469" arabic-form="medial" 
d="M233 415q42 0 75.5 -14t57 -39t36.5 -58t13 -71q0 -35 -12 -66t-30.5 -57t-42 -46.5t-47.5 -32.5q16 -1 40.5 -1h40.5h106q20 0 30 -3t10 -12q0 -8 -8 -11.5t-32 -3.5h-106q-36 0 -69 3.5t-61 14.5q-15 -7 -32.5 -10.5t-36 -5t-36.5 -2t-32 -0.5h-97q-40 0 -40 14
q0 10 9.5 13t30.5 3h149q6 0 15 1t17 3q-24 12 -47 31.5t-41 44.5t-28.5 55.5t-10.5 66.5q0 34 11 66.5t33.5 58.5t56 42t78.5 16zM233 385q-32 0 -59.5 -10.5t-47.5 -30t-31 -48t-11 -64.5q0 -34 12 -64t32.5 -55t47.5 -43.5t57 -28.5q29 10 56.5 28.5t48.5 43.5t34 55
t13 64q0 33 -11.5 61.5t-32 48.5t-48 31.5t-60.5 11.5zM169 503q-9 0 -9 9v40q0 9 9 9h24q9 0 9 -9v-40q0 -9 -9 -9h-24zM270 503q-9 0 -9 9v40q0 9 9 9h24q9 0 9 -9v-40q0 -9 -9 -9h-24z" />
    <glyph glyph-name="aKaf.fina" unicode="&#x643;" horiz-adv-x="837" arabic-form="final" 
d="M433 292q11 0 15 5t4 17v56q0 14 -6 17.5t-22 3.5h-63q-6 0 -6 5v5q0 1 2 4t4 5l81 96q2 2 4.5 3.5t5.5 -1.5l8 -7q4 -4 -1 -9l-67 -78h40q29 0 35.5 -12.5t6.5 -25.5v-64q0 -26 -10 -34.5t-31 -8.5h-116q-9 0 -9 9v5q0 9 9 9h116zM154 0q-44 0 -71.5 20.5t-27.5 70.5
v232q0 9 9 9h12q9 0 9 -9v-224q0 -36 17 -52.5t55 -16.5h466q27 0 43 6t25 18.5t11.5 33t2.5 49.5v535q0 9 9 9h12q9 0 9 -9v-557q0 -44 27.5 -64.5t75.5 -20.5q20 0 29.5 -2.5t9.5 -12.5q0 -9 -9.5 -12t-29.5 -3q-26 0 -45 5t-32.5 12.5t-22 16.5t-12.5 18
q-7 -18 -17.5 -28t-23.5 -15.5t-26.5 -7t-26.5 -1.5h-478z" />
    <glyph glyph-name="aKaf.init" unicode="&#x643;" horiz-adv-x="500" arabic-form="initial" 
d="M0 0q-40 0 -40 14q0 11 9.5 13.5t30.5 2.5h302q33 0 52 5.5t29.5 19t13.5 36t3 55.5v96q0 62 -30 93.5t-108 31.5h-174q-9 0 -9 9v12q0 5 1.5 8.5t6.5 9.5l215 252q6 6 12 3l11 -9q6 -4 2 -10l-208 -245h146q86 0 125.5 -38t39.5 -124v-87q0 -42 -5.5 -70.5t-20.5 -45.5
t-41.5 -24.5t-67.5 -7.5h-295z" />
    <glyph glyph-name="aKaf.medi" unicode="&#x643;" horiz-adv-x="535" arabic-form="medial" 
d="M429 118q0 -88 106 -88q20 0 29.5 -2.5t9.5 -12.5q0 -11 -9.5 -13t-29.5 -2q-40 0 -71.5 13t-45.5 43q-12 -31 -40.5 -43.5t-82.5 -12.5h-296q-39 0 -39 14q0 11 9.5 13.5t29.5 2.5h303q33 0 52 5.5t29.5 19t13.5 36t3 55.5v96q0 62 -30 93.5t-108 31.5h-174q-9 0 -9 9
v12q0 5 1.5 8.5t6.5 9.5l215 252q6 6 12 3l11 -9q6 -4 2 -10l-208 -245h146q86 0 125.5 -38t39.5 -124v-87q0 -4 -0.5 -7.5t-0.5 -7.5v-15v0z" />
    <glyph glyph-name="aLam.fina" unicode="&#x644;" horiz-adv-x="591" arabic-form="final" 
d="M80 8q0 -51 18 -85t46 -54t62 -28t66 -8q91 0 138.5 45t47.5 134v660q0 9 9 9h12q9 0 9 -9v-557q0 -44 28.5 -64.5t75.5 -20.5q20 0 29.5 -2.5t9.5 -12.5q0 -9 -9.5 -12t-29.5 -3q-42 0 -67.5 12.5t-38.5 28.5v-24q0 -40 -9.5 -78.5t-34 -68.5t-66.5 -48.5t-107 -18.5
q-53 0 -93.5 15t-68.5 41.5t-42.5 63.5t-14.5 81q0 33 7.5 64t18 56.5t21.5 45.5t19 31q3 4 7 2l19 -11q3 -2 1 -6q-26 -38 -44.5 -84t-18.5 -94z" />
    <glyph glyph-name="aLam.init" unicode="&#x644;" horiz-adv-x="245" arabic-form="initial" 
d="M52 30q27 0 43 6t25 18.5t11.5 33t2.5 49.5v535q0 9 9 9h13q9 0 9 -9v-548q0 -42 -9.5 -66.5t-24.5 -37.5t-33.5 -16.5t-36.5 -3.5h-75q-10 0 -17.5 3t-7.5 11q0 11 9.5 13.5t29.5 2.5h52z" />
    <glyph glyph-name="aLam.medi" unicode="&#x644;" horiz-adv-x="291" arabic-form="medial" 
d="M75 30q27 0 43 6t25 18.5t11.5 33t2.5 49.5v535q0 9 9 9h12q9 0 9 -9v-557q0 -44 28.5 -64.5t75.5 -20.5q20 0 29.5 -2.5t9.5 -12.5q0 -9 -9.5 -12t-29.5 -3q-52 0 -78 17.5t-35 34.5q-7 -18 -17.5 -28t-23.5 -15.5t-26.5 -7t-26.5 -1.5h-98q-10 0 -17.5 3t-7.5 11
q0 11 9.5 13.5t29.5 2.5h75z" />
    <glyph glyph-name="aMim.fina" unicode="&#x645;" horiz-adv-x="579" arabic-form="final" 
d="M486 102q1 -11 6 -23.5t14.5 -23t25 -18t36.5 -7.5h11q20 0 30 -3t10 -13q0 -14 -40 -14h-10q-39 0 -63.5 16.5t-38.5 41.5q-21 -34 -54.5 -49.5t-78.5 -15.5q-60 0 -98 24.5t-59 78.5q-9 -12 -20.5 -18t-24.5 -12t-25.5 -13t-22.5 -18t-16 -28.5t-6 -43.5v-160h-31v181
q0 24 7 40.5t18 28.5t25 20t28 15q23 11 40.5 24.5t19.5 39.5q-1 12 -1.5 25.5t-0.5 29.5q0 98 39 153t128 55q88 0 126 -55.5t38 -152.5q0 -60 -12 -105zM334 385q-72 0 -104.5 -50t-32.5 -134q0 -88 32.5 -133t104.5 -45q70 0 102 45t32 133q0 82 -31.5 133t-102.5 51z
" />
    <glyph glyph-name="aMim.init" unicode="&#x645;" horiz-adv-x="507" arabic-form="initial" 
d="M283 23q70 0 102 45t32 133q0 82 -31.5 133t-102.5 51t-103 -50.5t-32 -133.5q0 -88 31.5 -133t103.5 -45zM283 -7q-40 0 -78.5 16t-59.5 55q-14 -35 -43 -49.5t-57 -14.5h-45q-20 0 -30 2t-10 12t9.5 13t30.5 3h44q14 0 27.5 3t25 12t18.5 24.5t9 39.5q-2 15 -4 38
t-2 40q0 105 39 166.5t126 61.5q88 0 126 -55.5t38 -152.5q0 -112 -41 -163t-123 -51z" />
    <glyph glyph-name="aMim.medi" unicode="&#x645;" horiz-adv-x="528" arabic-form="medial" 
d="M283 23q70 0 102 45t32 133q0 82 -31.5 133t-102.5 51t-103 -50.5t-32 -133.5q0 -88 31.5 -133t103.5 -45zM-1 0q-20 0 -29.5 2t-9.5 12t9.5 13t29.5 3h45q14 0 27.5 3t25 12t18.5 24.5t9 39.5q-2 15 -4 38t-2 40q0 105 39 166.5t126 61.5q88 0 126 -55.5t38 -152.5
q0 -30 -3 -57t-9 -49q1 -11 6 -23t15 -23t25 -18t36 -7h11q20 0 30 -3t10 -13q0 -14 -40 -14h-10q-39 0 -63.5 16t-38.5 41q-20 -32 -54 -48t-79 -16q-41 0 -79 16t-59 55q-14 -35 -43 -49.5t-57 -14.5h-46z" />
    <glyph glyph-name="aNun.fina" unicode="&#x646;" horiz-adv-x="591" arabic-form="final" 
d="M80 8q0 -51 18 -85t46 -54t62 -28t66 -8q91 0 139.5 45t48.5 134v275q0 9 9 9h12q9 0 9 -9v-172q0 -44 27 -64.5t74 -20.5q20 0 29.5 -2.5t9.5 -12.5q0 -9 -9.5 -12t-29.5 -3q-42 0 -66 12.5t-37 28.5v-24q0 -40 -10 -78.5t-34.5 -68.5t-67 -48.5t-107.5 -18.5
q-53 0 -93.5 15t-68.5 41.5t-42.5 63.5t-14.5 81q0 33 7.5 64t18 56.5t21.5 45.5t19 31q3 4 7 2l19 -11q3 -2 1 -6q-26 -38 -44.5 -84t-18.5 -94zM276 291q-9 0 -9 9v40q0 9 9 9h24q9 0 9 -9v-40q0 -9 -9 -9h-24z" />
    <glyph glyph-name="aNun.init" unicode="&#x646;" horiz-adv-x="247" arabic-form="initial" 
d="M54 30q27 0 43 6t25 18.5t11.5 33t2.5 49.5v251q0 9 9 9h13q9 0 9 -9v-264q0 -42 -9.5 -66.5t-24.5 -37.5t-33.5 -16.5t-36.5 -3.5h-77q-10 0 -17.5 3t-7.5 11q0 11 9.5 13.5t29.5 2.5h54zM140 503q-9 0 -9 9v40q0 9 9 9h24q9 0 9 -9v-40q0 -9 -9 -9h-24z" />
    <glyph glyph-name="aNun.medi" unicode="&#x646;" horiz-adv-x="291" arabic-form="medial" 
d="M77 30q27 0 43 6t25 18.5t11.5 33t2.5 49.5v251q0 9 9 9h12q9 0 9 -9v-273q0 -44 27.5 -64.5t74.5 -20.5q20 0 29.5 -2.5t9.5 -12.5q0 -9 -9.5 -12t-29.5 -3q-52 0 -78 17.5t-35 34.5q-7 -18 -17.5 -28t-23.5 -15.5t-26.5 -7t-26.5 -1.5h-98q-10 0 -17.5 3t-7.5 11
q0 11 9.5 13.5t29.5 2.5h77zM162 503q-9 0 -9 9v40q0 9 9 9h24q9 0 9 -9v-40q0 -9 -9 -9h-24z" />
    <glyph glyph-name="aHeh.isol" unicode="&#x647;" horiz-adv-x="602" arabic-form="isolated" 
d="M147 30q-20 21 -30 50.5t-10 63.5q0 66 37 103t94 37q62 0 96 -37.5t34 -102.5q0 -26 -4 -46t-10 -34t-12 -22.5t-10 -11.5h36q49 0 78 12t44 33t19 50t4 62q0 52 -16.5 89.5t-45 61.5t-68 35.5t-84.5 11.5q-51 0 -90.5 -12t-74.5 -32q-3 -2 -6.5 -3.5t-5.5 2.5v-1l-7 13
q-7 11 0 15h-1q51 26 97 37t91 11q68 0 114.5 -19.5t74.5 -52t40 -73.5t12 -83q0 -47 -8 -82t-28 -58.5t-54.5 -35t-87.5 -11.5h-297q-17 0 -22 -5.5t-5 -21.5v-24q0 -9 -9 -9h-12q-10 0 -10 9v35q0 23 13.5 34.5t36.5 11.5h87zM237 254q-28 0 -47 -10.5t-31 -27t-17 -36
t-5 -36.5q0 -35 9 -57.5t23.5 -35t32 -17t34.5 -4.5q21 0 39.5 3.5t32.5 15.5t22 34.5t8 60.5q0 21 -5 41t-16.5 35.5t-31 24.5t-48.5 9z" />
    <glyph glyph-name="aHeh.fina" unicode="&#x647;" horiz-adv-x="445" arabic-form="final" 
d="M315 415v44q0 9 9 9h12q9 0 9 -9v-359q0 -42 15 -56t44 -14h41q20 0 29.5 -2t9.5 -13t-9.5 -13t-29.5 -2h-48q-12 0 -26 3t-26.5 12.5t-21 28t-8.5 50.5q-17 -19 -44.5 -31.5t-77.5 -12.5q-151 0 -151 174q0 102 41.5 146.5t118.5 44.5h113zM193 80q37 0 60.5 6.5
t37 18.5t19 29t5.5 37v216h-118q-65 0 -95 -39.5t-30 -120.5q0 -73 29 -110t92 -37z" />
    <glyph glyph-name="aHeh.init" unicode="&#x647;" horiz-adv-x="610" arabic-form="initial" 
d="M304 385q-51 0 -90.5 -12t-74.5 -32q-3 -2 -6.5 -3.5t-5.5 2.5v-1l-7 13q-7 11 0 15h-1q51 26 97 37t91 11q69 0 115 -19.5t74 -52t40 -73.5t12 -83q0 -47 -8 -82t-28 -58.5t-54.5 -35t-87.5 -11.5h-371q-20 0 -29.5 2.5t-9.5 12.5t9.5 12.5t29.5 2.5h153
q-20 21 -30 50.5t-10 63.5q0 66 37 103t94 37q62 0 96 -37.5t34 -102.5q0 -26 -4 -46t-10 -34t-12 -22.5t-10 -11.5h36q49 0 78 12t44 33t19 50t4 62q0 52 -16.5 89.5t-45 61.5t-68 35.5t-84.5 11.5zM242 254q-28 0 -47 -10.5t-31 -27t-17 -36t-5 -36.5q0 -35 9 -57.5
t23.5 -35t32 -17t34.5 -4.5q21 0 39.5 3.5t32.5 15.5t22 34.5t8 60.5q0 21 -5 41t-16.5 35.5t-31 24.5t-48.5 9z" />
    <glyph glyph-name="aHeh.medi" unicode="&#x647;" horiz-adv-x="536" arabic-form="medial" 
d="M-40 15q0 10 9.5 12.5t29.5 2.5h135v183q0 94 43.5 148t119.5 54q41 0 71.5 -15t51 -41.5t30.5 -64t10 -82.5q0 -56 -17.5 -102t-45.5 -80h139q20 0 30.5 -3t10.5 -12q0 -10 -10.5 -12.5t-30.5 -2.5h-127q17 -11 29.5 -31.5t12.5 -51.5q0 -22 -7.5 -42.5t-26.5 -36.5
t-50.5 -25.5t-80.5 -9.5q-46 0 -75.5 9.5t-46.5 25.5t-23.5 38t-6.5 47v77h-135q-39 0 -39 15zM298 385q-61 0 -97.5 -42.5t-36.5 -128.5v-184h157q28 0 48.5 17t34 43.5t20 58.5t6.5 63q0 80 -32 126.5t-100 46.5zM287 -167q38 0 63.5 6t41.5 17t22.5 26.5t6.5 33.5
q0 15 -4 30t-14 27t-27.5 19.5t-44.5 7.5h-167v-73q0 -56 32 -75t91 -19z" />
    <glyph glyph-name="aWaw.fina" unicode="&#x648;" horiz-adv-x="490" arabic-form="final" 
d="M490 30q20 0 30 -2.5t10 -11.5q0 -10 -9.5 -13t-30.5 -3h-85v-75q0 -27 -5 -49.5t-16.5 -38.5t-30.5 -25t-48 -9h-155q-9 0 -9 9v12q0 9 9 9h153q37 0 54.5 19.5t17.5 72.5v75h-121q-42 0 -75.5 9t-56 31.5t-34.5 59.5t-12 94q0 51 13 92t35.5 69.5t52.5 44t65 15.5
q44 0 75 -14.5t50.5 -41.5t28.5 -66.5t9 -89.5v-173h85zM242 385q-59 0 -97.5 -46t-38.5 -146q0 -89 34 -126t108 -37h127v169q0 88 -30 137t-103 49z" />
    <glyph glyph-name="aAlifMaksura.fina" unicode="&#x649;" horiz-adv-x="720" arabic-form="final" 
d="M50 17q0 33 7.5 64t18 56.5t21.5 45.5t19 31q3 4 7 2l19 -11q3 -2 1 -6q-26 -38 -44.5 -84t-18.5 -94t14 -83.5t39 -59t59 -34.5t74 -11h280q54 0 75 22t21 60q0 28 -11.5 48t-34 36t-55.5 29.5t-76 30.5l-42 17q-8 3 -5 11l5 14q2 3 5 5.5t6 0.5q16 -6 31.5 -12
t31.5 -13q48 -20 93.5 -36t88.5 -16h42q20 0 29.5 -3t9.5 -12q0 -10 -9.5 -12.5t-29.5 -2.5h-79q11 -13 20.5 -34t9.5 -50q0 -23 -6.5 -43.5t-21.5 -36t-39.5 -24.5t-60.5 -9h-289q-45 0 -82.5 15t-65 42.5t-42.5 67t-15 89.5z" />
    <glyph glyph-name="aYeh.fina" unicode="&#x64a;" horiz-adv-x="720" arabic-form="final" 
d="M50 17q0 33 7.5 64t18 56.5t21.5 45.5t19 31q3 4 7 2l19 -11q3 -2 1 -6q-26 -38 -44.5 -84t-18.5 -94t14 -83.5t39 -59t59 -34.5t74 -11h280q54 0 75 22t21 60q0 28 -11.5 48t-34 36t-55.5 29.5t-76 30.5l-42 17q-8 3 -5 11l5 14q2 3 5 5.5t6 0.5q16 -6 31.5 -12
t31.5 -13q48 -20 93.5 -36t88.5 -16h42q20 0 29.5 -3t9.5 -12q0 -10 -9.5 -12.5t-29.5 -2.5h-79q11 -13 20.5 -34t9.5 -50q0 -23 -6.5 -43.5t-21.5 -36t-39.5 -24.5t-60.5 -9h-289q-45 0 -82.5 15t-65 42.5t-42.5 67t-15 89.5zM282 -331q-9 0 -9 9v41q0 9 9 9h24q9 0 9 -9
v-41q0 -9 -9 -9h-24zM383 -331q-9 0 -9 9v41q0 9 9 9h24q9 0 9 -9v-41q0 -9 -9 -9h-24z" />
    <glyph glyph-name="aYeh.init" unicode="&#x64a;" horiz-adv-x="242" arabic-form="initial" 
d="M54 30q27 0 43 6t25 18.5t11.5 33t2.5 49.5v251q0 9 9 9h13q9 0 9 -9v-264q0 -42 -9.5 -66.5t-24.5 -37.5t-33.5 -16.5t-36.5 -3.5h-77q-10 0 -17.5 3t-7.5 11q0 11 9.5 13.5t29.5 2.5h54zM71 -145q-9 0 -9 9v41q0 9 9 9h24q9 0 9 -9v-41q0 -9 -9 -9h-24zM172 -145
q-9 0 -9 9v41q0 9 9 9h24q9 0 9 -9v-41q0 -9 -9 -9h-24z" />
    <glyph glyph-name="aYeh.medi" unicode="&#x64a;" horiz-adv-x="291" arabic-form="medial" 
d="M77 30q27 0 43 6t25 18.5t11.5 33t2.5 49.5v251q0 9 9 9h12q9 0 9 -9v-273q0 -44 28 -64.5t75 -20.5q20 0 29.5 -2.5t9.5 -12.5q0 -9 -9.5 -12t-29.5 -3q-52 0 -78.5 17.5t-35.5 34.5q-7 -18 -17.5 -28t-23.5 -15.5t-26.5 -7t-26.5 -1.5h-98q-10 0 -17.5 3t-7.5 11
q0 11 9.5 13.5t29.5 2.5h77zM113 -145q-9 0 -9 9v41q0 9 9 9h24q9 0 9 -9v-41q0 -9 -9 -9h-24zM214 -145q-9 0 -9 9v41q0 9 9 9h24q9 0 9 -9v-41q0 -9 -9 -9h-24z" />
    <glyph glyph-name=".notdef" horiz-adv-x="464" 
d="M0 670q0 10 10 10h444q10 0 10 -10v-660q0 -10 -10 -10h-444q-10 0 -10 10v660zM30 34q0 -6 6 -6h392q6 0 6 6v612q0 6 -6 6h-392q-6 0 -6 -6v-612zM221 217q-10 0 -10 10v25q0 24 5 39.5t19 32.5l31 37q14 16 22.5 28.5t13 23t6 20.5t1.5 22q0 38 -23.5 59t-58.5 21
q-32 0 -55 -18t-32 -59q-2 -9 -12 -8l-7 1q-10 2 -8 11q8 44 38.5 71.5t75.5 27.5q51 0 80.5 -30.5t29.5 -75.5q0 -32 -10.5 -54t-33.5 -50l-31 -37q-8 -10 -12.5 -17t-7 -13.5t-3 -14t-0.5 -17.5v-25q0 -10 -10 -10h-8zM205 151q0 10 10 10h19q10 0 10 -10v-28
q0 -10 -10 -10h-19q-10 0 -10 10v28z" />
    <glyph glyph-name=".null" horiz-adv-x="500" 
 />
    <glyph glyph-name=".null" horiz-adv-x="500" 
 />
    <glyph glyph-name="nonmarkingreturn" unicode="&#xd;" horiz-adv-x="0" 
 />
    <glyph glyph-name="space" unicode=" " horiz-adv-x="250" 
 />
    <glyph glyph-name="space" unicode="&#xa0;" horiz-adv-x="250" 
 />
    <glyph glyph-name="exclam" unicode="!" horiz-adv-x="248" 
d="M121 170q-10 0 -10 10l-2 490q0 10 10 10h12q10 0 10 -10l-2 -490q0 -10 -10 -10h-8zM100 60q0 10 10 10h28q10 0 10 -10v-50q0 -10 -10 -10h-28q-10 0 -10 10v50z" />
    <glyph glyph-name="quotedbl" unicode="&#x22;" horiz-adv-x="300" 
d="M200 536q-10 0 -10 10v124q0 10 10 10h10q10 0 10 -10v-124q0 -10 -10 -10h-10zM90 536q-10 0 -10 10v124q0 10 10 10h10q10 0 10 -10v-124q0 -10 -10 -10h-10z" />
    <glyph glyph-name="numbersign" unicode="#" 
d="M128 223h-87q-10 0 -10 10v7q0 10 10 10h90l27 197h-93q-10 0 -10 10v7q0 10 10 10h97l27 196q2 10 11 10h10q11 0 9 -10l-27 -196h167l27 196q2 10 11 10h10q11 0 9 -10l-27 -196h92q10 0 10 -10v-7q0 -10 -10 -10h-96l-27 -197h99q10 0 10 -10v-7q0 -10 -10 -10h-102
l-29 -213q-2 -10 -11 -10h-10q-11 0 -9 10l29 213h-167l-29 -213q-2 -10 -11 -10h-10q-11 0 -9 10zM328 250l27 197h-167l-27 -197h167z" />
    <glyph glyph-name="dollar" unicode="$" 
d="M62 44q-3 2 -3.5 6.5t2.5 7.5l7 8q5 6 14 1q32 -20 73 -33.5t92 -15.5v313q-91 14 -131 60.5t-40 115.5q0 82 47 129.5t124 52.5v52q0 10 10 10h8q10 0 10 -10v-51q42 -2 78 -13.5t65 -28.5q9 -5 3 -14l-5 -7q-6 -7 -14 -2q-35 17 -64 26t-63 11v-306q96 -14 137.5 -59
t41.5 -116q0 -80 -45.5 -131.5t-133.5 -58.5v-52q0 -10 -10 -10h-8q-10 0 -10 10v51q-55 1 -104 17.5t-81 36.5zM247 661q-66 -4 -103.5 -44.5t-37.5 -106.5q0 -59 31.5 -98.5t109.5 -51.5v301zM275 18q68 5 108.5 46.5t40.5 113.5q0 62 -32.5 99t-116.5 50v-309z" />
    <glyph glyph-name="percent" unicode="%" horiz-adv-x="786" 
d="M573 680q6 10 14 10h10q11 0 6 -10l-393 -680q-6 -10 -14 -10h-10q-11 0 -6 10zM210 330q-39 0 -65 18.5t-37 52.5q-2 5 -3 11.5t-2.5 18.5t-2 30.5t-0.5 47.5t0.5 47.5t2 30.5t2.5 18.5t3 11.5q11 34 37 52.5t65 18.5t65 -18.5t37 -52.5q1 -5 2.5 -11.5t3 -18.5t2 -30.5
t0.5 -47.5t-0.5 -47.5t-2 -30.5t-3 -18.5t-2.5 -11.5q-11 -34 -37 -52.5t-65 -18.5zM210 356q58 0 74 50q2 6 3.5 12t2.5 16.5t1.5 28t0.5 46.5q0 28 -0.5 46t-1.5 28.5t-2.5 16.5t-3.5 12q-16 50 -74 50t-74 -50q-2 -6 -3.5 -12t-2.5 -16.5t-1.5 -28.5t-0.5 -46
q0 -29 0.5 -46.5t1.5 -28t2.5 -16.5t3.5 -12q16 -50 74 -50zM474 63q-2 5 -3 11.5t-2.5 18.5t-2 30.5t-0.5 47.5t0.5 47.5t2 30.5t2.5 18.5t3 11.5q11 34 37 52.5t65 18.5t65 -18.5t37 -52.5q1 -5 2.5 -11.5t3 -18.5t2 -30.5t0.5 -47.5t-0.5 -47.5t-2 -30.5t-3 -18.5
t-2.5 -11.5q-11 -34 -37 -52.5t-65 -18.5t-65 18.5t-37 52.5zM502 68q16 -50 74 -50t74 50q2 6 3.5 12t2.5 16.5t1.5 28t0.5 46.5q0 28 -0.5 46t-1.5 28.5t-2.5 16.5t-3.5 12q-16 50 -74 50t-74 -50q-2 -6 -3.5 -12t-2.5 -16.5t-1.5 -28.5t-0.5 -46q0 -29 0.5 -46.5t1.5 -28
t2.5 -16.5t3.5 -12z" />
    <glyph glyph-name="ampersand" unicode="&#x26;" horiz-adv-x="606" 
d="M83 157q0 62 39 115t106 108q-30 38 -49 65t-30.5 47.5t-16 36.5t-4.5 33q0 57 37.5 92.5t96.5 35.5t96.5 -35.5t37.5 -92.5q0 -21 -5.5 -41.5t-20 -42t-39 -47t-63.5 -56.5l172 -227l73 94q6 8 14 2l6 -4q9 -6 2 -14l-78 -101l57 -75q10 -13 18 -17.5t19 -4.5h16
q10 0 10 -10v-8q0 -10 -10 -10h-17q-22 0 -34.5 7t-26.5 26l-51 67q-47 -56 -91.5 -83t-98.5 -27q-76 0 -120.5 46t-44.5 121zM251 398q38 31 61 54.5t35 42.5t15.5 34.5t3.5 32.5q0 45 -29 72.5t-75 27.5t-75 -28t-29 -72q0 -14 4 -27t14.5 -31t28.5 -43t46 -63zM113 157
q0 -63 35.5 -101t99.5 -38q50 0 89 25.5t84 79.5l-176 234q-61 -50 -96.5 -96.5t-35.5 -103.5z" />
    <glyph glyph-name="quotesingle" unicode="'" horiz-adv-x="190" 
d="M90 536q-10 0 -10 10v124q0 10 10 10h10q10 0 10 -10v-124q0 -10 -10 -10h-10v0z" />
    <glyph glyph-name="parenleft" unicode="(" horiz-adv-x="269" 
d="M188 -74q-49 91 -76 195t-27 207t27 207t76 195q5 10 13 10h9q5 0 7 -2.5t0 -7.5q-48 -91 -75 -195t-27 -207t27 -207t75 -195q2 -5 0 -7.5t-7 -2.5h-9q-8 0 -13 10z" />
    <glyph glyph-name="parenright" unicode=")" horiz-adv-x="269" 
d="M52 -74q48 91 75 195t27 207t-27 207t-75 195q-2 5 0 7.5t7 2.5h9q8 0 13 -10q49 -91 76 -195t27 -207t-27 -207t-76 -195q-5 -10 -13 -10h-9q-5 0 -7 2.5t0 7.5z" />
    <glyph glyph-name="asterisk" unicode="*" horiz-adv-x="356" 
d="M175 406q-10 0 -10 10v104l-90 -51q-9 -6 -14 3l-3 5q-6 9 4 14l89 52l-89 52q-10 5 -4 14l3 5q5 9 14 3l90 -52v105q0 10 10 10h6q10 0 10 -10v-105l90 52q9 6 14 -3l3 -5q6 -9 -4 -14l-90 -52l90 -52q10 -5 4 -14l-3 -5q-5 -9 -14 -3l-90 51v-104q0 -10 -10 -10h-6v0z
" />
    <glyph glyph-name="plus" unicode="+" 
d="M246 256q0 6 -6 6h-161q-10 0 -10 10v8q0 10 10 10h161q6 0 6 6v162q0 10 10 10h10q10 0 10 -10v-162q0 -6 6 -6h161q10 0 10 -10v-8q0 -10 -10 -10h-161q-6 0 -6 -6v-162q0 -10 -10 -10h-10q-10 0 -10 10v162z" />
    <glyph glyph-name="comma" unicode="," horiz-adv-x="198" 
d="M78 60q0 10 10 10h22q10 0 10 -10v-58q0 -8 -1 -12t-3 -11l-21 -73q-3 -8 -10 -8t-7 8v154v0z" />
    <glyph glyph-name="hyphen" unicode="-" horiz-adv-x="368" 
d="M60 253q-10 0 -10 10v8q0 10 10 10h248q10 0 10 -10v-8q0 -10 -10 -10h-248v0z" />
    <glyph glyph-name="hyphen" unicode="&#x2010;" horiz-adv-x="368" 
d="M60 253q-10 0 -10 10v8q0 10 10 10h248q10 0 10 -10v-8q0 -10 -10 -10h-248v0z" />
    <glyph glyph-name="hyphen" unicode="&#xad;" horiz-adv-x="368" 
d="M60 253q-10 0 -10 10v8q0 10 10 10h248q10 0 10 -10v-8q0 -10 -10 -10h-248v0z" />
    <glyph glyph-name="period" unicode="." horiz-adv-x="204" 
d="M78 60q0 10 10 10h28q10 0 10 -10v-50q0 -10 -10 -10h-28q-10 0 -10 10v50z" />
    <glyph glyph-name="slash" unicode="/" horiz-adv-x="399" 
d="M295 680q3 10 13 10h10q10 0 7 -10l-221 -680q-3 -10 -13 -10h-10q-10 0 -7 10z" />
    <glyph glyph-name="zero" unicode="0" 
d="M95 107q-3 8 -6 22.5t-5.5 40.5t-4 67t-1.5 103t1.5 103t4 67t5.5 40.5t6 22.5q38 117 166 117t166 -117q3 -8 6 -22.5t5.5 -40.5t4 -67t1.5 -103t-1.5 -103t-4 -67t-5.5 -40.5t-6 -22.5q-38 -117 -166 -117t-166 117zM124 114q32 -96 137 -96t137 96q3 8 5.5 22t5 39.5
t4 65t1.5 99.5t-1.5 99.5t-4 65t-5 39.5t-5.5 22q-32 96 -137 96t-137 -96q-3 -8 -5.5 -22t-5 -39.5t-4 -65t-1.5 -99.5t1.5 -99.5t4 -65t5 -39.5t5.5 -22z" />
    <glyph glyph-name="one" unicode="1" 
d="M272 639h-2l-131 -95q-4 -3 -7.5 -1.5t-3.5 7.5v12q0 9 7 15l133 97q7 6 14 6h10q10 0 10 -10v-660q0 -10 -10 -10h-10q-10 0 -10 10v629z" />
    <glyph glyph-name="two" unicode="2" 
d="M87 12q0 7 4 12l256 344q28 38 43.5 74t15.5 74q0 65 -40 105.5t-105 40.5q-63 0 -99.5 -36.5t-46.5 -97.5q-2 -10 -13 -7l-7 2q-9 3 -8 11q4 31 18 59.5t36 50t52 34t68 12.5q39 0 71 -12.5t55 -35.5t36 -55t13 -71q0 -45 -18.5 -85t-51.5 -85l-236 -317v-1h296
q10 0 10 -10v-8q0 -10 -10 -10h-329q-10 0 -10 10v2z" />
    <glyph glyph-name="three" unicode="3" 
d="M75 128q-3 9 7 12l9 2q10 3 13 -7q5 -20 16 -40.5t29.5 -37.5t45.5 -28t65 -11q36 0 64.5 12t48.5 33.5t30.5 51.5t10.5 65q0 34 -11 63.5t-31.5 51.5t-49 34.5t-63.5 12.5h-31q-10 0 -10 10v8q0 10 10 10h31q31 0 57.5 11t45 30.5t29 46.5t10.5 59q0 64 -38.5 104.5
t-106.5 40.5q-34 0 -59 -10t-42 -25.5t-27.5 -35.5t-14.5 -41q-2 -10 -11 -8l-10 2q-10 2 -8 12q4 24 16.5 48t34 43t52 31t69.5 12t71.5 -13t55.5 -36t35.5 -55t12.5 -69q0 -35 -9.5 -61t-24 -45.5t-32 -32.5t-32.5 -20v-2q18 -8 37.5 -22t36 -35.5t27 -51t10.5 -67.5
q0 -41 -13 -76t-37 -60.5t-58 -39.5t-76 -14q-44 0 -76 13t-54.5 33.5t-35.5 44.5t-19 47z" />
    <glyph glyph-name="four" unicode="4" 
d="M71 152q-10 0 -10 10v6q0 4 2 10l222 494q4 8 13 8h12q10 0 6 -9l-219 -490v-1h233q6 0 6 6v194q0 10 10 10h10q10 0 10 -10v-194q0 -6 6 -6h85q10 0 10 -10v-8q0 -10 -10 -10h-85q-6 0 -6 -6v-136q0 -10 -10 -10h-10q-10 0 -10 10v136q0 6 -6 6h-259v0z" />
    <glyph glyph-name="five" unicode="5" 
d="M101 136q-2 11 7 12l9 2q11 3 13 -8q7 -54 44 -89t103 -35q47 0 81.5 22t49.5 67q12 36 12 110q0 39 -4 66t-10 46q-14 43 -46 65t-80 22q-55 0 -90 -29.5t-46 -69.5q-3 -10 -10 -10h-10q-10 0 -10 10v353q0 10 10 10h303q10 0 10 -10v-8q0 -10 -10 -10h-277q-6 0 -6 -6
v-276h1q14 28 49 51t86 23q57 0 97 -26t57 -79q7 -21 11.5 -50.5t4.5 -71.5q0 -41 -3.5 -69t-10.5 -48q-17 -54 -58.5 -82t-100.5 -28q-39 0 -70 11.5t-53.5 31t-35.5 46t-17 57.5z" />
    <glyph glyph-name="six" unicode="6" 
d="M70 193q0 41 13 79t31 73l165 327q4 8 13 8h12q5 0 6.5 -3t-0.5 -6l-154 -306l2 -1q15 14 41.5 23t61.5 9q42 0 77.5 -14.5t60.5 -41.5t39 -64.5t14 -82.5t-14 -82.5t-39 -64.5t-60.5 -41.5t-77.5 -14.5t-77.5 14.5t-60.5 41.5t-39 64.5t-14 82.5zM100 193q0 -39 12 -71
t33 -55t50.5 -36t65.5 -13t65.5 13t50.5 36t33 55t12 71t-12 71t-33 55t-50.5 36t-65.5 13t-65.5 -13t-50.5 -36t-33 -55t-12 -71z" />
    <glyph glyph-name="seven" unicode="7" 
d="M417 649v3h-281q-6 0 -6 -6v-101q0 -10 -10 -10h-10q-10 0 -10 10v125q0 10 10 10h329q10 0 10 -10v-14q0 -4 -2 -10l-252 -637q-2 -5 -4.5 -7t-8.5 -2h-12q-10 0 -5 11z" />
    <glyph glyph-name="eight" unicode="8" 
d="M69 181q0 65 32 111t86 66v2q-46 20 -72.5 60.5t-26.5 96.5q0 38 13 69.5t36 54.5t54.5 36t69.5 13t69.5 -13t54.5 -36t36 -54.5t13 -69.5q0 -56 -26.5 -96.5t-72.5 -60.5v-2q54 -20 86 -66t32 -111q0 -42 -14.5 -77t-40 -60.5t-60.5 -39.5t-77 -14t-77.5 14t-61 39.5
t-39.5 60.5t-14 77zM261 372q33 0 59 11t45 30.5t29 46t10 57.5q0 64 -39.5 104.5t-103.5 40.5t-103.5 -40.5t-39.5 -104.5q0 -31 10 -57.5t29 -46t45 -30.5t59 -11zM99 181q0 -35 12 -65t33.5 -51.5t51 -34t65.5 -12.5t65.5 12.5t51 34t33.5 51.5t12 65q0 34 -11.5 64
t-33 52t-51.5 34.5t-66 12.5t-66 -12.5t-51.5 -34.5t-33 -52t-11.5 -64z" />
    <glyph glyph-name="nine" unicode="9" 
d="M366 315l-2 1q-15 -14 -41.5 -23t-61.5 -9q-42 0 -77.5 14.5t-60.5 41.5t-39 64.5t-14 82.5t14 82.5t39 64.5t60.5 41.5t77.5 14.5t77.5 -14.5t60.5 -41.5t39 -64.5t14 -82.5q0 -41 -13 -79t-31 -73l-165 -327q-4 -8 -13 -8h-12q-5 0 -6.5 3t0.5 6zM261 312q36 0 65.5 13
t50.5 36t33 55t12 71t-12 71t-33 55t-50.5 36t-65.5 13t-65.5 -13t-50.5 -36t-33 -55t-12 -71t12 -71t33 -55t50.5 -36t65.5 -13z" />
    <glyph glyph-name="colon" unicode=":" horiz-adv-x="212" 
d="M92 404q-10 0 -10 10v50q0 10 10 10h28q10 0 10 -10v-50q0 -10 -10 -10h-28zM82 60q0 10 10 10h28q10 0 10 -10v-50q0 -10 -10 -10h-28q-10 0 -10 10v50z" />
    <glyph glyph-name="semicolon" unicode=";" horiz-adv-x="212" 
d="M92 404q-10 0 -10 10v50q0 10 10 10h28q10 0 10 -10v-50q0 -10 -10 -10h-28zM85 60q0 10 10 10h22q10 0 10 -10v-58q0 -8 -1 -12t-3 -11l-21 -73q-3 -8 -10 -8t-7 8v154z" />
    <glyph glyph-name="less" unicode="&#x3c;" 
d="M79 261q-10 4 -10 12v6q0 8 10 12l364 147q10 3 10 -7v-8q0 -9 -10 -13l-329 -133v-2l329 -133q10 -4 10 -13v-8q0 -10 -10 -7l-364 147v0z" />
    <glyph glyph-name="equal" unicode="=" 
d="M79 358q-10 0 -10 10v8q0 10 10 10h364q10 0 10 -10v-8q0 -10 -10 -10h-364zM79 166q-10 0 -10 10v8q0 10 10 10h364q10 0 10 -10v-8q0 -10 -10 -10h-364z" />
    <glyph glyph-name="greater" unicode="&#x3e;" 
d="M79 114q-10 -3 -10 7v8q0 9 10 13l329 133v2l-329 133q-10 4 -10 13v8q0 10 10 7l364 -147q10 -4 10 -12v-6q0 -8 -10 -12l-364 -147v0z" />
    <glyph glyph-name="question" unicode="?" horiz-adv-x="439" 
d="M203 214q0 32 7 55t28 49l45 56q23 28 37 49t22 38.5t10.5 33.5t2.5 34q0 33 -10.5 57.5t-29 41.5t-43 25.5t-52.5 8.5q-56 0 -92.5 -33t-47.5 -95q-2 -9 -12 -8l-9 2q-10 2 -8 11q5 32 18.5 59.5t35.5 48t51 32t64 11.5q37 0 67.5 -12t52.5 -33.5t33.5 -51t11.5 -64.5
q0 -22 -4 -41t-12 -37t-21 -37.5t-32 -42.5l-45 -56q-12 -15 -19.5 -27t-11.5 -23t-5.5 -23t-1.5 -28v-38q0 -10 -10 -10h-10q-10 0 -10 10v38zM194 60q0 10 10 10h28q10 0 10 -10v-50q0 -10 -10 -10h-28q-10 0 -10 10v50z" />
    <glyph glyph-name="at" unicode="@" horiz-adv-x="881" 
d="M51 267q0 87 29 159.5t81 124.5t124 80.5t158 28.5t158 -28.5t124 -80.5t81 -124.5t29 -159.5q0 -57 -11.5 -96.5t-31.5 -65t-47 -37t-58 -11.5q-42 0 -73 23t-43 62h-1q-19 -44 -55.5 -64.5t-84.5 -20.5q-51 0 -86.5 24.5t-52.5 75.5q-6 20 -9.5 44t-3.5 60t3.5 60
t9.5 44q17 51 52.5 75.5t86.5 24.5q52 0 82 -18t46 -44h2v43q0 10 10 10h10q10 0 10 -10v-244q0 -30 8.5 -52t22.5 -36.5t31.5 -21.5t36.5 -7q23 0 44 9t37 30t25.5 56t9.5 87q0 82 -26.5 149t-74 115t-114 74.5t-147.5 26.5t-147.5 -26.5t-114 -74.5t-74 -115t-26.5 -149
q0 -83 26.5 -150.5t74 -115.5t114 -74.5t147.5 -26.5q77 0 129.5 14t90.5 35q8 5 13 -4l4 -7q5 -8 -4 -13q-42 -24 -98 -38.5t-135 -14.5q-86 0 -158 28.5t-124 80.5t-81 125t-29 161zM320 164q14 -42 42 -60.5t72 -18.5t72 18.5t42 60.5q6 18 9 41.5t3 55.5t-3 55.5
t-9 41.5q-14 42 -42 60.5t-72 18.5t-72 -18.5t-42 -60.5q-6 -18 -9 -41.5t-3 -55.5t3 -55.5t9 -41.5z" />
    <glyph glyph-name="A" unicode="A" horiz-adv-x="587" 
d="M277 670q3 10 11 10h13q8 0 11 -10l238 -660q3 -10 -7 -10h-14q-9 0 -13 10l-66 185h-313l-67 -185q-4 -10 -13 -10h-13q-10 0 -7 10zM439 224l-144 403h-2l-146 -403h292z" />
    <glyph glyph-name="B" unicode="B" horiz-adv-x="599" 
d="M102 670q0 10 10 10h218q92 0 141.5 -46.5t49.5 -127.5q0 -64 -31 -104t-85 -53v-2q20 -3 42.5 -14t41 -31.5t31 -51t12.5 -70.5q0 -81 -51 -130.5t-147 -49.5h-222q-10 0 -10 10v660zM330 361q79 0 119.5 40.5t40.5 104.5q0 68 -40.5 106.5t-119.5 38.5h-191q-6 0 -6 -6
v-278q0 -6 6 -6h191zM133 35q0 -6 6 -6h195q84 0 125.5 41t41.5 110t-41.5 110.5t-125.5 41.5h-195q-6 0 -6 -6v-291z" />
    <glyph glyph-name="C" unicode="C" horiz-adv-x="548" 
d="M88 135q-4 11 -7 27t-5.5 40t-4 57.5t-1.5 80.5q0 46 1.5 80t4 58t5.5 40t7 27q24 74 75.5 109.5t129.5 35.5q65 0 115 -28t79 -88q5 -9 -2 -13l-10 -5q-8 -5 -13 4q-26 48 -67 74.5t-102 26.5q-134 0 -175 -124q-3 -10 -6.5 -25t-5.5 -38t-3.5 -56t-1.5 -78t1.5 -78
t3.5 -56t5.5 -38t6.5 -25q41 -124 175 -124q61 0 102 26.5t67 74.5q5 9 13 4l10 -5q7 -4 2 -13q-29 -60 -79 -88t-115 -28q-78 0 -129.5 35.5t-75.5 109.5z" />
    <glyph glyph-name="D" unicode="D" horiz-adv-x="622" 
d="M102 670q0 10 10 10h200q84 0 137.5 -32t75.5 -100q5 -16 8.5 -32.5t6 -40t3.5 -55.5t1 -80t-1 -80t-3.5 -55.5t-6 -40t-8.5 -32.5q-22 -68 -75.5 -100t-137.5 -32h-200q-10 0 -10 10v660zM133 35q0 -6 6 -6h173q71 0 117.5 26t65.5 84q5 15 8.5 31t5.5 38.5t3 54t1 77.5
t-1 77.5t-3 54t-5.5 38.5t-8.5 31q-19 58 -65.5 84t-117.5 26h-173q-6 0 -6 -6v-610z" />
    <glyph glyph-name="E" unicode="E" horiz-adv-x="550" 
d="M102 670q0 10 10 10h374q10 0 10 -10v-9q0 -10 -10 -10h-347q-6 0 -6 -6v-279q0 -6 6 -6h300q10 0 10 -10v-9q0 -10 -10 -10h-300q-6 0 -6 -6v-290q0 -6 6 -6h347q10 0 10 -10v-9q0 -10 -10 -10h-374q-10 0 -10 10v660z" />
    <glyph glyph-name="F" unicode="F" horiz-adv-x="546" 
d="M102 670q0 10 10 10h374q10 0 10 -10v-9q0 -10 -10 -10h-347q-6 0 -6 -6v-286q0 -6 6 -6h300q10 0 10 -10v-9q0 -10 -10 -10h-300q-6 0 -6 -6v-308q0 -10 -10 -10h-11q-10 0 -10 10v660z" />
    <glyph glyph-name="G" unicode="G" horiz-adv-x="602" 
d="M89 138q-4 11 -7.5 26.5t-6 39t-4 56.5t-1.5 80q0 46 1.5 79.5t4 57t6 39t7.5 26.5q24 74 78 111t134 37q78 0 128 -33t74 -82q6 -11 -2 -15l-9 -5q-3 -2 -7 -1.5t-6 4.5q-27 50 -69.5 76.5t-108.5 26.5q-69 0 -115 -32t-67 -95q-3 -10 -6.5 -24.5t-6 -37t-4 -55
t-1.5 -77.5t1.5 -77.5t4 -55t6 -37t6.5 -24.5q21 -63 67 -95t115 -32t115 32t67 95q7 20 12.5 56t5.5 95q0 6 -6 6h-173q-10 0 -10 10v9q0 10 10 10h200q10 0 10 -10v-32q0 -56 -5.5 -92.5t-13.5 -59.5q-24 -74 -78 -111t-134 -37t-134 37t-78 111z" />
    <glyph glyph-name="H" unicode="H" horiz-adv-x="647" 
d="M102 670q0 10 10 10h11q10 0 10 -10v-304q0 -6 6 -6h369q6 0 6 6v304q0 10 10 10h11q10 0 10 -10v-660q0 -10 -10 -10h-11q-10 0 -10 10v315q0 6 -6 6h-369q-6 0 -6 -6v-315q0 -10 -10 -10h-11q-10 0 -10 10v660z" />
    <glyph glyph-name="I" unicode="I" horiz-adv-x="235" 
d="M102 670q0 10 10 10h11q10 0 10 -10v-660q0 -10 -10 -10h-11q-10 0 -10 10v660z" />
    <glyph glyph-name="J" unicode="J" horiz-adv-x="460" 
d="M47 34q-8 5 -3 14l8 9q6 6 15 1q20 -15 50 -27t64 -12t62.5 9.5t48.5 30t31 53.5t11 80v478q0 10 10 10h11q10 0 10 -10v-479q0 -106 -50.5 -153.5t-133.5 -47.5q-39 0 -74 12.5t-60 31.5z" />
    <glyph glyph-name="K" unicode="K" horiz-adv-x="582" 
d="M102 670q0 10 10 10h11q10 0 10 -10v-421l353 421q9 10 17 10h18q5 0 6.5 -3t-1.5 -7l-217 -258l231 -402q2 -4 1 -7t-6 -3h-17q-8 0 -14 10l-217 377l-154 -184v-193q0 -10 -10 -10h-11q-10 0 -10 10v660z" />
    <glyph glyph-name="L" unicode="L" horiz-adv-x="524" 
d="M102 670q0 10 10 10h11q10 0 10 -10v-635q0 -6 6 -6h347q10 0 10 -10v-9q0 -10 -10 -10h-374q-10 0 -10 10v660z" />
    <glyph glyph-name="M" unicode="M" horiz-adv-x="754" 
d="M102 670q0 10 10 10h14q9 0 13 -10l237 -522h3l236 522q4 10 13 10h14q10 0 10 -10v-660q0 -10 -10 -10h-11q-10 0 -10 10v590h-3l-222 -486q-3 -6 -6 -8t-11 -2h-4q-8 0 -11 2t-6 8l-222 486h-3v-590q0 -10 -10 -10h-11q-10 0 -10 10v660z" />
    <glyph glyph-name="N" unicode="N" horiz-adv-x="648" 
d="M102 670q0 10 10 10h9q5 0 9 -1.5t8 -8.5l374 -603h3v603q0 10 10 10h11q10 0 10 -10v-660q0 -10 -10 -10h-9q-5 0 -9 1.5t-8 8.5l-374 603h-3v-603q0 -10 -10 -10h-11q-10 0 -10 10v660z" />
    <glyph glyph-name="O" unicode="O" horiz-adv-x="602" 
d="M301 -10q-163 0 -211 148q-4 11 -7.5 26.5t-6.5 39t-4.5 56.5t-1.5 80q0 46 1.5 79.5t4.5 57t6.5 39t7.5 26.5q48 148 211 148t211 -148q4 -11 7.5 -26.5t6.5 -39t4.5 -57t1.5 -79.5q0 -47 -1.5 -80t-4.5 -56.5t-6.5 -39t-7.5 -26.5q-48 -148 -211 -148zM301 19
q139 0 181 127q3 10 6.5 24.5t6.5 37t4.5 55t1.5 77.5t-1.5 77.5t-4.5 55t-6.5 37t-6.5 24.5q-42 127 -181 127t-181 -127q-3 -10 -6.5 -24.5t-6.5 -37t-4.5 -55t-1.5 -77.5t1.5 -77.5t4.5 -55t6.5 -37t6.5 -24.5q42 -127 181 -127z" />
    <glyph glyph-name="P" unicode="P" horiz-adv-x="579" 
d="M112 0q-10 0 -10 10v660q0 10 10 10h215q97 0 150 -48.5t53 -135.5t-53 -135.5t-150 -48.5h-188q-6 0 -6 -6v-296q0 -10 -10 -10h-11zM327 341q85 0 128.5 40t43.5 115t-43.5 115t-128.5 40h-188q-6 0 -6 -6v-298q0 -6 6 -6h188z" />
    <glyph glyph-name="Q" unicode="Q" horiz-adv-x="602" 
d="M535 -29q-8 -6 -14 1l-65 73q-56 -55 -155 -55q-163 0 -211 148q-4 11 -7.5 26.5t-6.5 39t-4.5 56.5t-1.5 80q0 46 1.5 79.5t4.5 57t6.5 39t7.5 26.5q48 148 211 148t211 -148q4 -11 7.5 -26.5t6.5 -39t4.5 -57t1.5 -79.5q0 -47 -1.5 -80t-4.5 -56.5t-6.5 -39t-7.5 -26.5
q-13 -40 -37 -72l67 -75q6 -8 0 -14zM301 19q86 0 134 49l-84 94q-6 8 0 14l7 6q7 6 14 -1l82 -92q8 12 15.5 26t12.5 31q3 10 6.5 24.5t6.5 37t4.5 55t1.5 77.5t-1.5 77.5t-4.5 55t-6.5 37t-6.5 24.5q-42 127 -181 127t-181 -127q-3 -10 -6.5 -24.5t-6.5 -37t-4.5 -55
t-1.5 -77.5t1.5 -77.5t4.5 -55t6.5 -37t6.5 -24.5q42 -127 181 -127z" />
    <glyph glyph-name="R" unicode="R" horiz-adv-x="613" 
d="M513 0q-8 0 -12 9l-149 310q-7 -1 -13.5 -1h-13.5h-186q-6 0 -6 -6v-302q0 -10 -10 -10h-11q-10 0 -10 10v660q0 10 10 10h213q97 0 150 -47t53 -134q0 -72 -37.5 -117t-107.5 -59l152 -313q2 -4 1 -7t-6 -3h-17zM325 347q85 0 128.5 38.5t43.5 113.5t-43.5 113.5
t-128.5 38.5h-186q-6 0 -6 -6v-292q0 -6 6 -6h186z" />
    <glyph glyph-name="S" unicode="S" horiz-adv-x="600" 
d="M291 -10q-32 0 -63.5 6.5t-59.5 17t-51.5 23.5t-39.5 27q-8 7 -1 14l8 9q6 7 14 1q35 -27 87 -48t112 -21q91 0 143 43t52 116q0 28 -8.5 52.5t-28.5 44t-54 33t-86 20.5l-30 4q-102 14 -147 59t-45 114q0 88 56 136.5t150 48.5q54 0 102 -14.5t81 -37.5q9 -5 2 -14
l-7 -9q-6 -7 -14 -2q-81 48 -166 48q-83 0 -128 -42t-45 -111q0 -60 40 -98t138 -51l30 -4q102 -14 146.5 -58t44.5 -116q0 -85 -58.5 -138t-173.5 -53z" />
    <glyph glyph-name="T" unicode="T" horiz-adv-x="513" 
d="M251 0q-10 0 -10 10v635q0 6 -6 6h-203q-10 0 -10 10v9q0 10 10 10h449q10 0 10 -10v-9q0 -10 -10 -10h-203q-6 0 -6 -6v-635q0 -10 -10 -10h-11z" />
    <glyph glyph-name="U" unicode="U" horiz-adv-x="632" 
d="M316 -10q-108 0 -165 59t-57 184v437q0 10 10 10h11q10 0 10 -10v-438q0 -108 49 -160.5t142 -52.5q94 0 142.5 52.5t48.5 160.5v438q0 10 10 10h11q10 0 10 -10v-437q0 -123 -57 -183t-165 -60z" />
    <glyph glyph-name="V" unicode="V" horiz-adv-x="557" 
d="M273 0q-8 0 -11 10l-230 654q-6 16 7 16h9q11 0 15 -10l217 -622h1l212 622q4 10 15 10h10q13 0 7 -16l-228 -654q-3 -10 -11 -10h-13z" />
    <glyph glyph-name="W" unicode="W" horiz-adv-x="813" 
d="M590 0q-8 0 -11 10l-171 604h-2l-172 -604q-3 -10 -11 -10h-14q-9 0 -11 10l-159 659q-3 11 8 11h11q11 0 14 -10l145 -611h2l169 611q3 10 12 10h13q9 0 12 -10l171 -611h2l143 611q2 10 14 10h11q11 0 8 -11l-159 -659q-2 -10 -11 -10h-14z" />
    <glyph glyph-name="X" unicode="X" horiz-adv-x="533" 
d="M470 0q-7 0 -12 8l-191 322h-1l-192 -322q-5 -8 -12 -8h-17q-5 0 -6 3t1 7l209 349l-186 311q-2 4 -1 7t6 3h18q7 0 12 -8l168 -284h1l169 284q5 8 12 8h17q5 0 6 -3t-1 -7l-186 -311l209 -349q2 -4 1 -7t-6 -3h-18z" />
    <glyph glyph-name="Y" unicode="Y" horiz-adv-x="506" 
d="M248 0q-10 0 -10 10v269l-207 389q-2 5 0 8.5t7 3.5h12q10 0 15 -10l189 -352h2l185 352q5 10 15 10h12q5 0 7 -3.5t0 -8.5l-206 -389v-269q0 -10 -10 -10h-11z" />
    <glyph glyph-name="Z" unicode="Z" horiz-adv-x="543" 
d="M67 0q-10 0 -10 10v9q0 6 6 15l383 616v1h-365q-10 0 -10 10v9q0 10 10 10h394q10 0 10 -10v-9q0 -7 -5 -14l-384 -617v-1h379q10 0 10 -10v-9q0 -10 -10 -10h-408z" />
    <glyph glyph-name="bracketleft" unicode="[" horiz-adv-x="284" 
d="M126 -84q-10 0 -10 10v804q0 10 10 10h98q10 0 10 -10v-8q0 -10 -10 -10h-72q-6 0 -6 -6v-756q0 -6 6 -6h72q10 0 10 -10v-8q0 -10 -10 -10h-98z" />
    <glyph glyph-name="backslash" unicode="\" horiz-adv-x="399" 
d="M308 -10q-10 0 -13 10l-221 680q-3 10 7 10h10q10 0 13 -10l221 -680q3 -10 -7 -10h-10z" />
    <glyph glyph-name="bracketright" unicode="]" horiz-adv-x="284" 
d="M60 -84q-10 0 -10 10v8q0 10 10 10h72q6 0 6 6v756q0 6 -6 6h-72q-10 0 -10 10v8q0 10 10 10h98q10 0 10 -10v-804q0 -10 -10 -10h-98z" />
    <glyph glyph-name="asciicircum" unicode="^" 
d="M435 292q-9 0 -13 10l-160 342h-2l-160 -342q-4 -10 -13 -10h-9q-5 0 -7 2.5t0 7.5l172 368q5 10 14 10h8q9 0 14 -10l172 -368q2 -5 0 -7.5t-7 -2.5h-9z" />
    <glyph glyph-name="underscore" unicode="_" horiz-adv-x="445" 
d="M0 -116v28h445v-28h-445z" />
    <glyph glyph-name="grave" unicode="`" horiz-adv-x="420" 
d="M255 560q-10 0 -17 10l-85 120q-3 4 -1.5 7t6.5 3h15q10 0 16 -10l78 -120q3 -5 1.5 -7.5t-6.5 -2.5h-7z" />
    <glyph glyph-name="a" unicode="a" horiz-adv-x="509" 
d="M395 0q-10 0 -10 10v57h-1q-13 -32 -51.5 -54.5t-101.5 -22.5q-75 0 -117 35.5t-42 102.5q0 68 45 102t131 34h131q6 0 6 6v61q0 34 -6 57.5t-21 38.5t-40.5 22t-64.5 7q-48 0 -76.5 -10t-47.5 -28q-7 -7 -14 -2l-7 6q-8 7 -1 14q22 23 58 35.5t88 12.5q43 0 73.5 -7.5
t50 -25t29 -47t9.5 -73.5v-321q0 -10 -10 -10h-10zM235 18q33 0 60.5 9t47.5 25.5t31 38.5t11 49v90q0 6 -6 6h-129q-78 0 -113 -27t-35 -81q0 -53 34.5 -81.5t98.5 -28.5z" />
    <glyph glyph-name="b" unicode="b" horiz-adv-x="525" 
d="M282 -10q-64 0 -99 25.5t-52 63.5h-1v-69q0 -10 -10 -10h-10q-10 0 -10 10v660q0 10 10 10h10q10 0 10 -10v-275h1q17 38 52 63.5t99 25.5q125 0 161 -113q10 -30 13.5 -64t3.5 -70t-3.5 -70t-13.5 -64q-36 -113 -161 -113zM280 18q52 0 86 24.5t49 70.5q8 26 11.5 59
t3.5 65t-3.5 65t-11.5 59q-15 46 -49 70.5t-86 24.5q-50 0 -85.5 -23.5t-51.5 -71.5q-13 -40 -13 -124t13 -124q16 -48 51.5 -71.5t85.5 -23.5z" />
    <glyph glyph-name="c" unicode="c" horiz-adv-x="468" 
d="M249 -10q-63 0 -106.5 31.5t-61.5 88.5q-7 22 -11.5 52t-4.5 75t4.5 75t11.5 52q18 57 61.5 88.5t106.5 31.5q57 0 96 -25t61 -71q5 -9 -5 -14l-7 -3q-9 -3 -13 4q-21 42 -52.5 61.5t-79.5 19.5q-52 0 -87.5 -26t-51.5 -77q-7 -20 -11 -47.5t-4 -68.5t4 -68.5t11 -47.5
q16 -51 51.5 -77t87.5 -26q48 0 79.5 19.5t52.5 61.5q4 7 13 4l7 -3q10 -5 5 -14q-22 -46 -61 -71t-96 -25z" />
    <glyph glyph-name="d" unicode="d" horiz-adv-x="525" 
d="M405 0q-10 0 -10 10v69h-1q-17 -38 -52 -63.5t-99 -25.5q-125 0 -161 113q-10 30 -13.5 64t-3.5 70t3.5 70t13.5 64q36 113 161 113q64 0 99 -25.5t52 -63.5h1v275q0 10 10 10h10q10 0 10 -10v-660q0 -10 -10 -10h-10zM245 18q50 0 85.5 23.5t51.5 71.5q13 40 13 124
t-13 124q-16 48 -51.5 71.5t-85.5 23.5q-52 0 -86 -24.5t-49 -70.5q-8 -26 -11.5 -59t-3.5 -65t3.5 -65t11.5 -59q15 -46 49 -70.5t86 -24.5z" />
    <glyph glyph-name="e" unicode="e" horiz-adv-x="494" 
d="M253 -10q-66 0 -110 30.5t-64 91.5q-7 21 -10.5 48.5t-3.5 77.5q0 49 3.5 77.5t10.5 48.5q20 60 63.5 90t104.5 30t104.5 -30t63.5 -90q7 -20 10.5 -46.5t3.5 -71.5q0 -10 -11 -10h-317q-6 0 -6 -7q0 -40 3 -63.5t9 -43.5q18 -54 55.5 -79t90.5 -25q50 0 85.5 19.5
t57.5 49.5q6 8 14 2l6 -5q7 -6 1 -14q-25 -35 -66 -57.5t-98 -22.5zM393 264q6 0 6 6q0 26 -3 46t-8 37q-17 52 -53 77.5t-88 25.5t-88 -25.5t-53 -77.5q-5 -17 -8 -37t-3 -46q0 -6 6 -6h292z" />
    <glyph glyph-name="f" unicode="f" horiz-adv-x="299" 
d="M126 0q-10 0 -10 10v430q0 6 -6 6h-58q-10 0 -10 10v8q0 10 10 10h58q6 0 6 6v61q0 43 6 70.5t20 42.5t37.5 20.5t58.5 5.5h21q10 0 10 -10v-8q0 -10 -10 -10h-17q-31 0 -49.5 -4t-29 -15t-14 -30.5t-3.5 -51.5v-71q0 -6 6 -6h107q10 0 10 -10v-8q0 -10 -10 -10h-107
q-6 0 -6 -6v-430q0 -10 -10 -10h-10z" />
    <glyph glyph-name="g" unicode="g" horiz-adv-x="517" 
d="M239 -190q-52 0 -92.5 20t-57.5 48q-6 9 2 14l8 5q8 5 14 -3q20 -26 51.5 -41t74.5 -15q34 0 61 8.5t46.5 28t30 50t10.5 74.5v80h-1q-17 -40 -51.5 -64.5t-96.5 -24.5q-60 0 -100 29.5t-57 83.5q-16 48 -16 134t16 134q17 54 57 83.5t100 29.5q62 0 96.5 -24.5
t51.5 -64.5h1v69q0 10 10 10h10q10 0 10 -10v-465q0 -98 -49 -143.5t-129 -45.5zM241 18q45 0 80.5 21t52.5 74q8 22 10.5 50.5t2.5 73.5t-2.5 73.5t-10.5 50.5q-17 53 -52.5 74t-80.5 21q-99 0 -131 -94q-15 -45 -15 -125t15 -125q32 -94 131 -94z" />
    <glyph glyph-name="h" unicode="h" horiz-adv-x="538" 
d="M424 0q-10 0 -10 10v284q0 85 -34.5 123.5t-104.5 38.5q-30 0 -56 -10t-46 -28.5t-31.5 -46t-11.5 -62.5v-299q0 -10 -10 -10h-10q-10 0 -10 10v660q0 10 10 10h10q10 0 10 -10v-273h1q18 42 56.5 64.5t89.5 22.5q81 0 124 -45.5t43 -137.5v-291q0 -10 -10 -10h-10z" />
    <glyph glyph-name="i" unicode="i" horiz-adv-x="230" 
d="M103 620q-10 0 -10 10v40q0 10 10 10h24q10 0 10 -10v-40q0 -10 -10 -10h-24zM110 0q-10 0 -10 10v454q0 10 10 10h10q10 0 10 -10v-454q0 -10 -10 -10h-10z" />
    <glyph glyph-name="j" unicode="j" horiz-adv-x="230" 
d="M103 620q-10 0 -10 10v40q0 10 10 10h24q10 0 10 -10v-40q0 -10 -10 -10h-24zM19 -180q-10 0 -10 10v8q0 10 10 10h4q22 0 37 3t24 12t12.5 25t3.5 41v535q0 10 10 10h10q10 0 10 -10v-535q0 -32 -5.5 -52.5t-18 -33.5t-33 -18t-50.5 -5h-4z" />
    <glyph glyph-name="k" unicode="k" horiz-adv-x="490" 
d="M427 0q-9 0 -15 10l-165 269l-117 -140v-129q0 -10 -10 -10h-10q-10 0 -10 10v660q0 10 10 10h10q10 0 10 -10v-488l237 283q8 9 16 9h15q5 0 6.5 -3t-1.5 -7l-136 -162l179 -292q2 -4 0.5 -7t-6.5 -3h-13z" />
    <glyph glyph-name="l" unicode="l" horiz-adv-x="249" 
d="M184 -2q-47 0 -66 22.5t-19 76.5v573q0 10 10 10h10q10 0 10 -10v-573q0 -41 12.5 -56t42.5 -15h15q10 0 10 -10v-8q0 -10 -10 -10h-15z" />
    <glyph glyph-name="m" unicode="m" horiz-adv-x="852" 
d="M738 0q-10 0 -10 10v284q0 85 -34.5 123.5t-104.5 38.5q-30 0 -56 -10t-46 -28.5t-31.5 -46t-11.5 -62.5v-299q0 -10 -10 -10h-10q-10 0 -10 10v284q0 85 -34.5 123.5t-104.5 38.5q-30 0 -56 -10t-46 -28.5t-31.5 -46t-11.5 -62.5v-299q0 -10 -10 -10h-10q-10 0 -10 10
v454q0 10 10 10h10q10 0 10 -10v-67h1q18 42 56.5 64.5t89.5 22.5q123 0 156 -102h1q18 48 56.5 75t100.5 27q81 0 124 -45.5t43 -137.5v-291q0 -10 -10 -10h-10z" />
    <glyph glyph-name="n" unicode="n" horiz-adv-x="538" 
d="M424 0q-10 0 -10 10v284q0 85 -34.5 123.5t-104.5 38.5q-30 0 -56 -10t-46 -28.5t-31.5 -46t-11.5 -62.5v-299q0 -10 -10 -10h-10q-10 0 -10 10v454q0 10 10 10h10q10 0 10 -10v-67h1q18 42 56.5 64.5t89.5 22.5q81 0 124 -45.5t43 -137.5v-291q0 -10 -10 -10h-10z" />
    <glyph glyph-name="o" unicode="o" horiz-adv-x="502" 
d="M251 -10q-63 0 -107 31.5t-63 88.5q-8 23 -12 52.5t-4 74.5t4 74.5t12 52.5q19 57 63 88.5t107 31.5t107 -31.5t63 -88.5q8 -23 12 -52.5t4 -74.5t-4 -74.5t-12 -52.5q-19 -57 -63 -88.5t-107 -31.5zM251 18q52 0 89 26.5t53 75.5q7 21 10.5 48t3.5 69t-3.5 69t-10.5 48
q-16 49 -53 75.5t-89 26.5t-89 -26.5t-53 -75.5q-7 -21 -10.5 -48t-3.5 -69t3.5 -69t10.5 -48q16 -49 53 -75.5t89 -26.5z" />
    <glyph glyph-name="p" unicode="p" horiz-adv-x="525" 
d="M110 -180q-10 0 -10 10v634q0 10 10 10h10q10 0 10 -10v-69h1q17 38 52 63.5t99 25.5q125 0 161 -113q10 -30 13.5 -64t3.5 -70t-3.5 -70t-13.5 -64q-36 -113 -161 -113q-64 0 -99 25.5t-52 63.5h-1v-249q0 -10 -10 -10h-10zM280 18q52 0 86 24.5t49 70.5q8 26 11.5 59
t3.5 65t-3.5 65t-11.5 59q-15 46 -49 70.5t-86 24.5q-50 0 -85.5 -23.5t-51.5 -71.5q-13 -40 -13 -124t13 -124q16 -48 51.5 -71.5t85.5 -23.5z" />
    <glyph glyph-name="q" unicode="q" horiz-adv-x="525" 
d="M405 -180q-10 0 -10 10v249h-1q-17 -38 -52 -63.5t-99 -25.5q-125 0 -161 113q-10 30 -13.5 64t-3.5 70t3.5 70t13.5 64q36 113 161 113q64 0 99 -25.5t52 -63.5h1v69q0 10 10 10h10q10 0 10 -10v-634q0 -10 -10 -10h-10zM245 18q50 0 85.5 23.5t51.5 71.5q13 40 13 124
t-13 124q-16 48 -51.5 71.5t-85.5 23.5q-52 0 -86 -24.5t-49 -70.5q-8 -26 -11.5 -59t-3.5 -65t3.5 -65t11.5 -59q15 -46 49 -70.5t86 -24.5z" />
    <glyph glyph-name="r" unicode="r" horiz-adv-x="384" 
d="M110 0q-10 0 -10 10v454q0 10 10 10h10q10 0 10 -10v-71h1q11 40 43.5 65.5t85.5 25.5q28 0 52.5 -8t41.5 -21q7 -5 2 -13l-6 -8q-6 -7 -15 -2q-17 11 -36.5 17.5t-42.5 6.5q-35 0 -59 -15t-39 -40t-21.5 -58t-6.5 -68v-265q0 -10 -10 -10h-10z" />
    <glyph glyph-name="s" unicode="s" horiz-adv-x="475" 
d="M239 -10q-62 0 -107 21t-71 42q-7 7 0 14l7 7q6 6 14 0q29 -22 68.5 -39t93.5 -17q70 0 104.5 30t34.5 79q0 22 -5 38.5t-18.5 29t-37.5 20.5t-61 12l-47 5q-64 7 -99 36t-35 83q0 64 42.5 98.5t117.5 34.5q45 0 83 -12t65 -28q9 -5 2 -14l-4 -6q-5 -8 -14 -3
q-24 12 -60 23.5t-75 11.5q-63 0 -95 -27t-32 -75q0 -43 28 -65.5t95 -29.5l47 -5q133 -13 133 -122q0 -66 -44.5 -104t-129.5 -38z" />
    <glyph glyph-name="t" unicode="t" horiz-adv-x="306" 
d="M235 -2q-32 0 -55 6t-37 20.5t-20.5 38t-6.5 59.5v318q0 6 -6 6h-58q-10 0 -10 10v8q0 10 10 10h58q6 0 6 6v140q0 10 10 10h10q10 0 10 -10v-140q0 -6 6 -6h100q10 0 10 -10v-8q0 -10 -10 -10h-100q-6 0 -6 -6v-316q0 -30 5 -49t15.5 -30t27.5 -15t42 -4h16q10 0 10 -10
v-8q0 -10 -10 -10h-17z" />
    <glyph glyph-name="u" unicode="u" horiz-adv-x="531" 
d="M411 0q-10 0 -10 10v67h-1q-17 -42 -55.5 -64.5t-88.5 -22.5q-81 0 -123 45.5t-42 137.5v291q0 10 10 10h10q10 0 10 -10v-284q0 -85 33.5 -123.5t103.5 -38.5q29 0 55 10t45.5 28.5t31 46t11.5 62.5v299q0 10 10 10h10q10 0 10 -10v-454q0 -10 -10 -10h-10z" />
    <glyph glyph-name="v" unicode="v" horiz-adv-x="460" 
d="M224 0q-8 0 -11 10l-174 454q-3 10 7 10h12q9 0 13 -10l160 -416h1l157 416q4 10 13 10h12q10 0 7 -10l-174 -454q-3 -10 -11 -10h-12z" />
    <glyph glyph-name="w" unicode="w" horiz-adv-x="728" 
d="M515 0q-9 0 -12 10l-138 417h-1l-139 -417q-3 -10 -12 -10h-8q-9 0 -12 10l-148 454q-3 10 7 10h10q9 0 13 -10l135 -412h1l136 412q3 10 12 10h10q9 0 12 -10l139 -412h1l132 412q4 10 13 10h10q10 0 7 -10l-148 -454q-3 -10 -12 -10h-8z" />
    <glyph glyph-name="x" unicode="x" horiz-adv-x="449" 
d="M385 0q-8 0 -13 7l-147 218h-1l-148 -218q-5 -7 -13 -7h-14q-5 0 -6 3t1 7l164 240l-146 214q-2 4 -1 7t6 3h14q8 0 13 -7l130 -192h1l131 192q5 7 13 7h13q5 0 6 -3t-1 -7l-146 -214l164 -240q2 -4 1 -7t-6 -3h-15z" />
    <glyph glyph-name="y" unicode="y" horiz-adv-x="460" 
d="M79 -180q-10 0 -10 10v8q0 10 10 10h18q16 0 28.5 4t24 15.5t22.5 32t23 53.5l20 53l-176 458q-3 10 7 10h12q9 0 13 -10l160 -416h1l157 416q4 10 13 10h12q10 0 7 -10l-199 -519q-15 -40 -29.5 -64.5t-29.5 -38t-31.5 -18t-36.5 -4.5h-16z" />
    <glyph glyph-name="z" unicode="z" horiz-adv-x="460" 
d="M70 0q-10 0 -10 10v8q0 6 6 15l299 412v1h-282q-10 0 -10 10v8q0 10 10 10h309q10 0 10 -10v-8q0 -6 -6 -15l-299 -412v-1h295q10 0 10 -10v-8q0 -10 -10 -10h-322z" />
    <glyph glyph-name="braceleft" unicode="{" horiz-adv-x="306" 
d="M223 -84q-44 0 -63 21.5t-19 75.5v216q0 49 -14.5 67t-36.5 20q-10 2 -10 10v8q0 8 10 10q11 1 20.5 5.5t16 14.5t10.5 26t4 41v212q0 54 19 75.5t63 21.5h23q10 0 10 -10v-8q0 -10 -10 -10h-24q-26 0 -38.5 -14t-12.5 -49v-207q0 -29 -2.5 -48t-8 -31.5t-13.5 -19.5
t-19 -12v-2q11 -5 19 -12t13.5 -19.5t8 -31.5t2.5 -48v-211q0 -35 12.5 -49t38.5 -14h24q10 0 10 -10v-8q0 -10 -10 -10h-23z" />
    <glyph glyph-name="bar" unicode="|" horiz-adv-x="210" 
d="M100 -84q-10 0 -10 10v804q0 10 10 10h10q10 0 10 -10v-804q0 -10 -10 -10h-10z" />
    <glyph glyph-name="braceright" unicode="}" horiz-adv-x="306" 
d="M60 -84q-10 0 -10 10v8q0 10 10 10h24q26 0 38.5 14t12.5 49v211q0 29 2.5 48t7.5 31.5t13.5 19.5t19.5 12v2q-11 5 -19.5 12t-13.5 19.5t-7.5 31.5t-2.5 48v207q0 35 -12.5 49t-38.5 14h-24q-10 0 -10 10v8q0 10 10 10h23q44 0 63 -21.5t19 -75.5v-212q0 -25 4 -41
t10.5 -26t16 -14.5t20.5 -5.5q10 -2 10 -10v-8q0 -8 -10 -10q-22 -2 -36.5 -20t-14.5 -67v-216q0 -54 -19 -75.5t-63 -21.5h-23z" />
    <glyph glyph-name="asciitilde" unicode="~" 
d="M347 224q-32 0 -53.5 13t-41.5 28q-17 13 -35.5 23.5t-42.5 10.5q-26 0 -46 -13.5t-40 -45.5q-5 -8 -14 -2l-5 3q-8 5 -3 14q18 33 46 52t63 19q32 0 53.5 -13t41.5 -28q17 -13 35.5 -23.5t42.5 -10.5q26 0 46 13.5t40 45.5q5 8 14 2l5 -3q8 -5 3 -14q-18 -33 -46 -52
t-63 -19z" />
    <glyph glyph-name="exclamdown" unicode="&#xa1;" horiz-adv-x="248" 
d="M127 304q10 0 10 -10l2 -490q0 -10 -10 -10h-12q-10 0 -10 10l2 490q0 10 10 10h8zM148 414q0 -10 -10 -10h-28q-10 0 -10 10v50q0 10 10 10h28q10 0 10 -10v-50z" />
    <glyph glyph-name="cent" unicode="&#xa2;" 
d="M281 484q57 -2 94 -26.5t59 -69.5q5 -9 -5 -14l-7 -3q-9 -3 -13 4q-20 41 -50.5 60t-77.5 21v-438q47 1 77.5 20.5t50.5 60.5q4 7 13 4l7 -3q10 -5 5 -14q-22 -45 -59 -69.5t-94 -26.5v-83q0 -10 -10 -10h-8q-10 0 -10 10v84q-57 5 -94 36t-54 83q-7 22 -11.5 52t-4.5 75
t4.5 75t11.5 52q17 51 54.5 82t93.5 36v85q0 10 10 10h8q10 0 10 -10v-83zM119 237q0 -41 4 -68.5t11 -47.5q14 -45 44 -71t75 -31v436q-90 -11 -119 -102q-7 -20 -11 -47.5t-4 -68.5z" />
    <glyph glyph-name="sterling" unicode="&#xa3;" 
d="M110 0q-10 0 -10 10v8q0 5 5 10q13 13 21.5 24.5t13 23.5t6 26t1.5 33v167q0 6 -6 6h-51q-10 0 -10 10v8q0 10 10 10h51q6 0 6 6v185q0 80 39 121.5t102 41.5q55 0 90 -32t48 -86q2 -9 -7 -12l-9 -3q-10 -3 -12 7q-11 48 -40 73t-70 25q-48 0 -79.5 -31.5t-31.5 -102.5
v-186q0 -6 6 -6h143q10 0 10 -10v-8q0 -10 -10 -10h-143q-6 0 -6 -6v-167q0 -37 -8.5 -61.5t-28.5 -44.5v-1h284q10 0 10 -10v-8q0 -10 -10 -10h-314z" />
    <glyph glyph-name="currency" unicode="&#xa4;" 
d="M462 114q-7 -7 -14 0l-68 67q-24 -20 -54 -30.5t-65 -10.5t-65.5 10.5t-53.5 30.5l-68 -67q-7 -7 -14 0l-6 6q-7 7 0 14l68 67q-44 50 -44 122q0 36 11.5 67t32.5 55l-68 67q-7 7 0 14l6 6q7 7 14 0l68 -67q23 20 53.5 30.5t65.5 10.5t65 -10.5t54 -30.5l68 67q7 7 14 0
l6 -6q7 -7 0 -14l-68 -67q21 -24 32.5 -55t11.5 -67q0 -72 -44 -122l68 -67q7 -7 0 -14zM261 168q33 0 61 12t48.5 32.5t32 49t11.5 61.5t-11.5 61.5t-32 49t-48.5 32.5t-61 12t-61 -12t-48.5 -32.5t-32 -49t-11.5 -61.5t11.5 -61.5t32 -49t48.5 -32.5t61 -12z" />
    <glyph glyph-name="yen" unicode="&#xa5;" 
d="M256 0q-10 0 -10 10v157q0 6 -6 6h-137q-10 0 -10 10v7q0 10 10 10h137q6 0 6 6v70q0 6 -6 6h-137q-10 0 -10 10v7q0 10 10 10h128v1l-164 356q-7 14 8 14h8q11 0 16 -10l162 -352h2l160 352q5 10 16 10h8q15 0 8 -14l-164 -356v-1h128q10 0 10 -10v-7q0 -10 -10 -10
h-137q-6 0 -6 -6v-70q0 -6 6 -6h137q10 0 10 -10v-7q0 -10 -10 -10h-137q-6 0 -6 -6v-157q0 -10 -10 -10h-10z" />
    <glyph glyph-name="brokenbar" unicode="&#xa6;" horiz-adv-x="210" 
d="M100 388q-10 0 -10 10v332q0 10 10 10h10q10 0 10 -10v-332q0 -10 -10 -10h-10zM100 -84q-10 0 -10 10v336q0 10 10 10h10q10 0 10 -10v-336q0 -10 -10 -10h-10z" />
    <glyph glyph-name="section" unicode="&#xa7;" 
d="M259 -192q-68 0 -109.5 37.5t-41.5 112.5q0 11 8 12l11 2q11 3 11 -7q-1 -37 9 -62t27 -40t39 -21t46 -6q54 0 87.5 28.5t33.5 88.5q0 54 -34 83t-112 43q-73 14 -104.5 59t-31.5 115q0 29 6.5 56t21 49t36.5 38t53 23v1q-49 22 -72 53t-23 85q0 30 11 55t30 42.5t45 27
t57 9.5q34 0 60 -10.5t44 -28.5t27 -42.5t9 -51.5q0 -11 -8 -12l-10 -2q-11 -3 -11 7q-1 52 -29 82t-82 30q-52 0 -82.5 -27.5t-30.5 -78.5q0 -26 6.5 -46.5t22.5 -36.5t42.5 -28t66.5 -20q70 -14 103 -57.5t33 -116.5q0 -60 -26.5 -104.5t-84.5 -60.5v-1q19 -6 36.5 -17
t31 -27.5t21.5 -38.5t8 -51q0 -37 -12 -64t-32.5 -45t-48 -27t-58.5 -9zM261 108q58 0 95.5 36.5t37.5 108.5t-37.5 108.5t-95.5 36.5t-95.5 -36.5t-37.5 -108.5t37.5 -108.5t95.5 -36.5z" />
    <glyph glyph-name="dieresis" unicode="&#xa8;" horiz-adv-x="420" 
d="M298 620q-10 0 -10 10v40q0 10 10 10h24q10 0 10 -10v-40q0 -10 -10 -10h-24zM98 620q-10 0 -10 10v40q0 10 10 10h24q10 0 10 -10v-40q0 -10 -10 -10h-24z" />
    <glyph glyph-name="copyright" unicode="&#xa9;" horiz-adv-x="832" 
d="M416 -10q-75 0 -139 26.5t-111 73.5t-73.5 111t-26.5 139t26.5 139t73.5 111t111 73.5t139 26.5t139 -26.5t111 -73.5t73.5 -111t26.5 -139t-26.5 -139t-73.5 -111t-111 -73.5t-139 -26.5zM416 16q69 0 128 24.5t102 68t67.5 102.5t24.5 129t-24.5 129t-67.5 102.5
t-102 68t-128 24.5t-128 -24.5t-102 -68t-67.5 -102.5t-24.5 -129t24.5 -129t67.5 -102.5t102 -68t128 -24.5zM421 144q-50 0 -85.5 25t-51.5 74q-5 17 -8 38t-3 59t3 59t8 38q16 49 51.5 74t85.5 25q49 0 81.5 -23t49.5 -55q5 -8 -4 -12l-6 -3q-9 -3 -13 4
q-17 28 -41.5 45.5t-66.5 17.5q-84 0 -111 -81q-5 -16 -7.5 -35t-2.5 -54t2.5 -54t7.5 -35q27 -81 111 -81q42 0 66.5 17.5t41.5 45.5q4 7 13 4l6 -3q9 -4 4 -12q-17 -32 -49.5 -55t-81.5 -23z" />
    <glyph glyph-name="ordfeminine" unicode="&#xaa;" horiz-adv-x="337" 
d="M259 392q-10 0 -10 10v24h-1q-12 -20 -37 -30t-60 -10q-45 0 -73 22t-28 64q0 45 30.5 66t86.5 21h76q6 0 6 6v27q0 38 -16.5 53.5t-65.5 15.5q-28 0 -46.5 -5.5t-32.5 -16.5q-8 -7 -14 1l-4 5q-6 8 2 14q14 12 38.5 20t57.5 8q59 0 84 -20.5t25 -74.5v-190
q0 -10 -10 -10h-8zM157 412q38 0 65 18t27 42v55q0 6 -6 6h-73q-92 0 -92 -60q0 -29 21 -45t58 -16z" />
    <glyph glyph-name="guillemotleft" unicode="&#xab;" horiz-adv-x="498" 
d="M250 257q-7 7 0 14l158 161q3 3 6.5 2t3.5 -6v-19q0 -10 -6 -16l-122 -125q-4 -4 0 -8l122 -125q6 -6 6 -16v-19q0 -5 -3.5 -6t-6.5 2zM59 257q-7 7 0 14l158 161q3 3 6.5 2t3.5 -6v-19q0 -10 -6 -16l-122 -125q-4 -4 0 -8l122 -125q6 -6 6 -16v-19q0 -5 -3.5 -6t-6.5 2z
" />
    <glyph glyph-name="logicalnot" unicode="&#xac;" 
d="M433 129q-10 0 -10 10v117q0 6 -6 6h-338q-10 0 -10 10v8q0 10 10 10h364q10 0 10 -10v-141q0 -10 -10 -10h-10z" />
    <glyph glyph-name="registered" unicode="&#xae;" horiz-adv-x="465" 
d="M232 300q-41 0 -76.5 14.5t-61 40.5t-40 61t-14.5 77q0 41 14.5 76.5t40 61t61 40t76.5 14.5q42 0 77 -14.5t61 -40t40.5 -61t14.5 -76.5q0 -42 -14.5 -77t-40.5 -61t-61 -40.5t-77 -14.5zM232 322q36 0 67.5 13t54 36t35.5 54t13 68q0 36 -13 67.5t-35.5 54t-54 35.5
t-67.5 13t-67 -13t-53.5 -35.5t-35.5 -54t-13 -67.5q0 -37 13 -68t35.5 -54t53.5 -36t67 -13zM174 386q-9 0 -9 9v198q0 9 9 9h75q31 0 47.5 -17t16.5 -43q0 -22 -11.5 -38.5t-32.5 -21.5l43 -86q4 -10 -5 -10h-9q-6 0 -10 7l-44 88h-54q-3 0 -3 -2v-84q0 -9 -9 -9h-4z
M249 502q22 0 32 11t10 29q0 17 -10 28t-32 11h-59q-3 0 -3 -2v-75q0 -2 3 -2h59z" />
    <glyph glyph-name="macron" unicode="&#xaf;" horiz-adv-x="420" 
d="M94 634q-10 0 -10 10v8q0 10 10 10h232q10 0 10 -10v-8q0 -10 -10 -10h-232z" />
    <glyph glyph-name="degree" unicode="&#xb0;" horiz-adv-x="442" 
d="M221 403q-30 0 -56 10.5t-45 29.5t-29.5 45t-10.5 56t10.5 56t29.5 45t45 29.5t56 10.5t56 -10.5t45 -29.5t29.5 -45t10.5 -56t-10.5 -56t-29.5 -45t-45 -29.5t-56 -10.5zM221 430q24 0 44.5 8.5t35.5 24t23.5 36.5t8.5 45q0 49 -31.5 81.5t-80.5 32.5t-80.5 -32.5
t-31.5 -81.5q0 -24 8.5 -45t23.5 -36.5t35.5 -24t44.5 -8.5z" />
    <glyph glyph-name="plusminus" unicode="&#xb1;" 
d="M256 84q-10 0 -10 10v162q0 6 -6 6h-161q-10 0 -10 10v8q0 10 10 10h161q6 0 6 6v162q0 10 10 10h10q10 0 10 -10v-162q0 -6 6 -6h161q10 0 10 -10v-8q0 -10 -10 -10h-161q-6 0 -6 -6v-162q0 -10 -10 -10h-10zM79 0q-10 0 -10 10v8q0 10 10 10h364q10 0 10 -10v-8
q0 -10 -10 -10h-364z" />
    <glyph glyph-name="twosuperior" unicode="&#xb2;" horiz-adv-x="324" 
d="M53 430q-10 0 -10 10v6q0 7 7 14l161 192q18 22 27.5 42.5t9.5 41.5q0 35 -22.5 57.5t-59.5 22.5q-35 0 -56.5 -18.5t-29.5 -50.5q-2 -10 -12 -8l-6 1q-10 2 -9 12q8 38 37 64t76 26q54 0 82 -31.5t28 -74.5q0 -26 -11 -50t-34 -51l-149 -177v-2h188q10 0 10 -10v-6
q0 -10 -10 -10h-217z" />
    <glyph glyph-name="threesuperior" unicode="&#xb3;" horiz-adv-x="324" 
d="M162 424q-52 0 -80.5 24.5t-38.5 54.5q-3 8 6 11l8 3q8 3 12 -6q10 -24 32.5 -42.5t60.5 -18.5q41 0 65.5 25.5t24.5 63.5t-25 64t-67 26h-16q-10 0 -10 10v6q0 10 10 10h15q38 0 61 22.5t23 59.5q0 35 -22.5 57t-61.5 22q-38 0 -57 -17t-27 -39q-3 -9 -11 -8l-7 1
q-10 2 -8 11q3 15 11.5 29t22 25t32.5 17.5t44 6.5q51 0 81.5 -30t30.5 -75q0 -38 -18.5 -60t-38.5 -33v-1q11 -5 22.5 -13.5t21.5 -21t16 -30t6 -39.5q0 -50 -32.5 -82.5t-85.5 -32.5z" />
    <glyph glyph-name="acute" unicode="&#xb4;" horiz-adv-x="420" 
d="M158 560q-5 0 -6.5 2.5t1.5 7.5l78 120q6 10 16 10h15q5 0 6.5 -3t-1.5 -7l-85 -120q-5 -6 -8 -8t-9 -2h-7z" />
    <glyph glyph-name="micron" unicode="&#xb5;" horiz-adv-x="541" 
d="M421 0q-10 0 -10 10v67h-1q-17 -42 -55.5 -64.5t-89.5 -22.5q-46 0 -79.5 15t-54.5 50h-1v-225q0 -10 -10 -10h-10q-10 0 -10 10v634q0 10 10 10h10q10 0 10 -10v-299q0 -72 34 -109.5t103 -37.5q30 0 56 10t45.5 28.5t31 46t11.5 62.5v299q0 10 10 10h10q10 0 10 -10
v-454q0 -10 -10 -10h-10z" />
    <glyph glyph-name="paragraph" unicode="&#xb6;" horiz-adv-x="542" 
d="M432 -180q-10 0 -10 10v816q0 6 -6 6h-108q-6 0 -6 -6v-816q0 -10 -10 -10h-10q-10 0 -10 10v440q-45 3 -80.5 19t-60.5 43t-38 63.5t-13 79.5t14 80.5t41.5 65.5t68.5 43.5t95 15.5h143q10 0 10 -10v-840q0 -10 -10 -10h-10z" />
    <glyph glyph-name="periodcentered" unicode="&#xb7;" horiz-adv-x="204" 
d="M88 231q-10 0 -10 10v50q0 10 10 10h28q10 0 10 -10v-50q0 -10 -10 -10h-28z" />
    <glyph glyph-name="cedilla" unicode="&#xb8;" horiz-adv-x="420" 
d="M179 -145q-10 0 -7 10l52 135q4 10 13 10h8q10 0 7 -10l-46 -135q-4 -10 -16 -10h-11z" />
    <glyph glyph-name="onesuperior" unicode="&#xb9;" horiz-adv-x="324" 
d="M186 430q-10 0 -10 10v361h-1l-71 -50q-4 -2 -7 -1t-3 6v11q0 10 7 14l70 49l7.5 4.5t7.5 1.5h8q10 0 10 -10v-386q0 -10 -10 -10h-8z" />
    <glyph glyph-name="ordmasculine" unicode="&#xba;" horiz-adv-x="342" 
d="M171 385q-86 0 -111 77q-5 14 -7.5 31t-2.5 43t2.5 43t7.5 31q25 77 111 77t111 -77q5 -14 7.5 -31t2.5 -43t-2.5 -43t-7.5 -31q-25 -77 -111 -77zM171 411q64 0 84 60q5 13 7 28t2 37t-2 37t-7 28q-20 60 -84 60q-65 0 -84 -60q-5 -13 -7 -28t-2 -37t2 -37t7 -28
q19 -60 84 -60z" />
    <glyph glyph-name="guillemotright" unicode="&#xbb;" horiz-adv-x="498" 
d="M281 96q-3 -3 -6.5 -2t-3.5 6v19q0 10 6 16l122 125q4 4 0 8l-122 125q-6 6 -6 16v19q0 5 3.5 6t6.5 -2l158 -161q7 -7 0 -14zM90 96q-3 -3 -6.5 -2t-3.5 6v19q0 10 6 16l122 125q4 4 0 8l-122 125q-6 6 -6 16v19q0 5 3.5 6t6.5 -2l158 -161q7 -7 0 -14z" />
    <glyph glyph-name="onequarter" unicode="&#xbc;" horiz-adv-x="823" 
d="M190 -10q-11 0 -6 10l393 680q6 10 14 10h10q11 0 6 -10l-393 -680q-6 -10 -14 -10h-10zM172 274q-10 0 -10 10v361h-1l-71 -50q-4 -2 -7 -1t-3 6v11q0 10 7 14l70 49l7.5 4.5t7.5 1.5h8q10 0 10 -10v-386q0 -10 -10 -10h-8zM644 0q-10 0 -10 10v68q0 6 -6 6h-161
q-10 0 -10 10v6q0 8 4 15l137 281q4 10 13 10h11q5 0 6.5 -3t-0.5 -7l-138 -285v-1h138q6 0 6 6v107q0 10 10 10h8q10 0 10 -10v-107q0 -6 6 -6h45q10 0 10 -10v-6q0 -10 -10 -10h-45q-6 0 -6 -6v-68q0 -10 -10 -10h-8z" />
    <glyph glyph-name="onehalf" unicode="&#xbd;" horiz-adv-x="849" 
d="M190 -10q-11 0 -6 10l393 680q6 10 14 10h10q11 0 6 -10l-393 -680q-6 -10 -14 -10h-10zM172 274q-10 0 -10 10v361h-1l-71 -50q-4 -2 -7 -1t-3 6v11q0 10 7 14l70 49l7.5 4.5t7.5 1.5h8q10 0 10 -10v-386q0 -10 -10 -10h-8zM522 0q-10 0 -10 10v6q0 7 7 14l161 192
q18 22 27.5 42.5t9.5 41.5q0 35 -22.5 57.5t-59.5 22.5q-35 0 -56.5 -18.5t-29.5 -50.5q-2 -10 -12 -8l-6 1q-10 2 -9 12q8 38 37 64t76 26q54 0 82 -31.5t28 -74.5q0 -26 -11 -50t-34 -51l-149 -177v-2h188q10 0 10 -10v-6q0 -10 -10 -10h-217z" />
    <glyph glyph-name="threequarters" unicode="&#xbe;" horiz-adv-x="890" 
d="M257 -10q-11 0 -6 10l393 680q6 10 14 10h10q11 0 6 -10l-393 -680q-6 -10 -14 -10h-10zM220 268q-52 0 -80.5 24.5t-38.5 54.5q-3 8 6 11l8 3q8 3 12 -6q10 -24 32.5 -42.5t60.5 -18.5q41 0 65.5 25.5t24.5 63.5t-25 64t-67 26h-16q-10 0 -10 10v6q0 10 10 10h15
q38 0 61 22.5t23 59.5q0 35 -22.5 57t-61.5 22q-38 0 -57 -17t-27 -39q-3 -9 -11 -8l-7 1q-10 2 -8 11q3 15 11.5 29t22 25t32.5 17.5t44 6.5q51 0 81.5 -30t30.5 -75q0 -38 -18.5 -60t-38.5 -33v-1q11 -5 22.5 -13.5t21.5 -21t16 -30t6 -39.5q0 -50 -32.5 -82.5
t-85.5 -32.5zM711 0q-10 0 -10 10v68q0 6 -6 6h-161q-10 0 -10 10v6q0 8 4 15l137 281q4 10 13 10h11q5 0 6.5 -3t-0.5 -7l-138 -285v-1h138q6 0 6 6v107q0 10 10 10h8q10 0 10 -10v-107q0 -6 6 -6h45q10 0 10 -10v-6q0 -10 -10 -10h-45q-6 0 -6 -6v-68q0 -10 -10 -10h-8z
" />
    <glyph glyph-name="questiondown" unicode="&#xbf;" horiz-adv-x="439" 
d="M236 260q0 -32 -7 -55t-28 -49l-45 -56q-23 -28 -37 -49t-22 -38.5t-10.5 -33.5t-2.5 -34q0 -33 10.5 -57.5t29 -41.5t43 -25.5t52.5 -8.5q56 0 92.5 33t47.5 95q2 9 12 8l9 -2q10 -2 8 -11q-5 -32 -18.5 -60t-35.5 -48t-51 -31.5t-64 -11.5q-38 0 -68 12t-52 33.5
t-33.5 51t-11.5 64.5q0 22 3.5 41t12 37t21.5 37.5t32 42.5l45 56q12 15 19.5 27t11.5 23t5.5 23t1.5 28v38q0 10 10 10h10q10 0 10 -10v-38zM245 414q0 -10 -10 -10h-28q-10 0 -10 10v50q0 10 10 10h28q10 0 10 -10v-50z" />
    <glyph glyph-name="Agrave" unicode="&#xc0;" horiz-adv-x="587" 
d="M277 670q3 10 11 10h13q8 0 11 -10l238 -660q3 -10 -7 -10h-14q-9 0 -13 10l-66 185h-313l-67 -185q-4 -10 -13 -10h-13q-10 0 -7 10zM439 224l-144 403h-2l-146 -403h292zM295 765q-6 0 -9 1.5t-9 8.5l-87 103q-3 4 -2 7t6 3h15q8 0 17 -10l80 -103q4 -5 2.5 -7.5
t-6.5 -2.5h-7z" />
    <glyph glyph-name="Aacute" unicode="&#xc1;" horiz-adv-x="587" 
d="M277 670q3 10 11 10h13q8 0 11 -10l238 -660q3 -10 -7 -10h-14q-9 0 -13 10l-66 185h-313l-67 -185q-4 -10 -13 -10h-13q-10 0 -7 10zM439 224l-144 403h-2l-146 -403h292zM284 765q-5 0 -6.5 2.5t2.5 7.5l80 103q9 10 17 10h15q5 0 6 -3t-2 -7l-87 -103q-6 -7 -9 -8.5
t-9 -1.5h-7z" />
    <glyph glyph-name="Acircumflex" unicode="&#xc2;" horiz-adv-x="587" 
d="M277 670q3 10 11 10h13q8 0 11 -10l238 -660q3 -10 -7 -10h-14q-9 0 -13 10l-66 185h-313l-67 -185q-4 -10 -13 -10h-13q-10 0 -7 10zM439 224l-144 403h-2l-146 -403h292zM386 755q-9 0 -16 10l-76 98h-2l-76 -98q-8 -10 -16 -10h-8q-5 0 -6 3t2 7l87 121q6 9 14 9h8
q8 0 14 -9l87 -121q3 -4 2 -7t-6 -3h-8z" />
    <glyph glyph-name="Atilde" unicode="&#xc3;" horiz-adv-x="587" 
d="M277 670q3 10 11 10h13q8 0 11 -10l238 -660q3 -10 -7 -10h-14q-9 0 -13 10l-66 185h-313l-67 -185q-4 -10 -13 -10h-13q-10 0 -7 10zM439 224l-144 403h-2l-146 -403h292zM344 794q-17 0 -31 6.5t-26 14.5q-11 7 -22 12.5t-24 5.5q-15 0 -28 -9t-27 -25q-3 -3 -5.5 -2
t-2.5 5v15q0 7 7 14q11 12 25.5 20t31.5 8t31.5 -6.5t25.5 -14.5t22 -13t24 -5q15 0 28 9t27 25q3 3 5.5 2t2.5 -5v-15q0 -4 -1 -6.5t-6 -7.5q-11 -12 -25.5 -20t-31.5 -8z" />
    <glyph glyph-name="Adieresis" unicode="&#xc4;" horiz-adv-x="587" 
d="M277 670q3 10 11 10h13q8 0 11 -10l238 -660q3 -10 -7 -10h-14q-9 0 -13 10l-66 185h-313l-67 -185q-4 -10 -13 -10h-13q-10 0 -7 10zM439 224l-144 403h-2l-146 -403h292zM381 795q-10 0 -10 10v40q0 10 10 10h24q10 0 10 -10v-40q0 -10 -10 -10h-24zM181 795
q-10 0 -10 10v40q0 10 10 10h24q10 0 10 -10v-40q0 -10 -10 -10h-24z" />
    <glyph glyph-name="Aring" unicode="&#xc5;" horiz-adv-x="587" 
d="M277 670q3 10 11 10h13q8 0 11 -10l238 -660q3 -10 -7 -10h-14q-9 0 -13 10l-66 185h-313l-67 -185q-4 -10 -13 -10h-13q-10 0 -7 10zM439 224l-144 403h-2l-146 -403h292zM293 746q-36 0 -59.5 23.5t-23.5 59.5t23.5 59.5t59.5 23.5t59.5 -23.5t23.5 -59.5t-23.5 -59.5
t-59.5 -23.5zM293 772q25 0 40.5 16t15.5 41t-15.5 41t-40.5 16t-40.5 -16t-15.5 -41t15.5 -41t40.5 -16z" />
    <glyph glyph-name="AE" unicode="&#xc6;" horiz-adv-x="948" 
d="M510 0q-10 0 -10 10v179q0 6 -6 6h-298l-123 -185q-6 -10 -15 -10h-15q-5 0 -6 3t1 7l438 662q5 8 15 8h393q10 0 10 -10v-9q0 -10 -10 -10h-347q-6 0 -6 -6v-279q0 -6 6 -6h300q10 0 10 -10v-9q0 -10 -10 -10h-300q-6 0 -6 -6v-290q0 -6 6 -6h347q10 0 10 -10v-9
q0 -10 -10 -10h-374zM215 224h279q6 0 6 6v418h-3z" />
    <glyph glyph-name="Ccedilla" unicode="&#xc7;" horiz-adv-x="548" 
d="M241 -145q-10 0 -7 10l48 125q-73 3 -122 38t-72 107q-4 11 -7 27t-5.5 40t-4 57.5t-1.5 80.5q0 46 1.5 80t4 58t5.5 40t7 27q24 74 75.5 109.5t129.5 35.5q65 0 115 -28t79 -88q5 -9 -2 -13l-10 -5q-8 -5 -13 4q-26 48 -67 74.5t-102 26.5q-134 0 -175 -124
q-3 -10 -6.5 -25t-5.5 -38t-3.5 -56t-1.5 -78t1.5 -78t3.5 -56t5.5 -38t6.5 -25q41 -124 175 -124q61 0 102 26.5t67 74.5q5 9 13 4l10 -5q7 -4 2 -13q-28 -56 -73 -83.5t-104 -31.5l-42 -126q-4 -10 -16 -10h-11z" />
    <glyph glyph-name="Egrave" unicode="&#xc8;" horiz-adv-x="550" 
d="M102 670q0 10 10 10h374q10 0 10 -10v-9q0 -10 -10 -10h-347q-6 0 -6 -6v-279q0 -6 6 -6h300q10 0 10 -10v-9q0 -10 -10 -10h-300q-6 0 -6 -6v-290q0 -6 6 -6h347q10 0 10 -10v-9q0 -10 -10 -10h-374q-10 0 -10 10v660zM311 765q-6 0 -9 1.5t-9 8.5l-87 103q-3 4 -2 7
t6 3h15q8 0 17 -10l80 -103q4 -5 2.5 -7.5t-6.5 -2.5h-7z" />
    <glyph glyph-name="Eacute" unicode="&#xc9;" horiz-adv-x="550" 
d="M102 670q0 10 10 10h374q10 0 10 -10v-9q0 -10 -10 -10h-347q-6 0 -6 -6v-279q0 -6 6 -6h300q10 0 10 -10v-9q0 -10 -10 -10h-300q-6 0 -6 -6v-290q0 -6 6 -6h347q10 0 10 -10v-9q0 -10 -10 -10h-374q-10 0 -10 10v660zM267 765q-5 0 -6.5 2.5t2.5 7.5l80 103q9 10 17 10
h15q5 0 6 -3t-2 -7l-87 -103q-6 -7 -9 -8.5t-9 -1.5h-7z" />
    <glyph glyph-name="Ecircumflex" unicode="&#xca;" horiz-adv-x="550" 
d="M102 670q0 10 10 10h374q10 0 10 -10v-9q0 -10 -10 -10h-347q-6 0 -6 -6v-279q0 -6 6 -6h300q10 0 10 -10v-9q0 -10 -10 -10h-300q-6 0 -6 -6v-290q0 -6 6 -6h347q10 0 10 -10v-9q0 -10 -10 -10h-374q-10 0 -10 10v660zM391 755q-9 0 -16 10l-76 98h-2l-76 -98
q-8 -10 -16 -10h-8q-5 0 -6 3t2 7l87 121q6 9 14 9h8q8 0 14 -9l87 -121q3 -4 2 -7t-6 -3h-8z" />
    <glyph glyph-name="Edieresis" unicode="&#xcb;" horiz-adv-x="550" 
d="M102 670q0 10 10 10h374q10 0 10 -10v-9q0 -10 -10 -10h-347q-6 0 -6 -6v-279q0 -6 6 -6h300q10 0 10 -10v-9q0 -10 -10 -10h-300q-6 0 -6 -6v-290q0 -6 6 -6h347q10 0 10 -10v-9q0 -10 -10 -10h-374q-10 0 -10 10v660zM381 795q-10 0 -10 10v40q0 10 10 10h24
q10 0 10 -10v-40q0 -10 -10 -10h-24zM181 795q-10 0 -10 10v40q0 10 10 10h24q10 0 10 -10v-40q0 -10 -10 -10h-24z" />
    <glyph glyph-name="Igrave" unicode="&#xcc;" horiz-adv-x="235" 
d="M102 670q0 10 10 10h11q10 0 10 -10v-660q0 -10 -10 -10h-11q-10 0 -10 10v660zM123 765q-6 0 -9 1.5t-9 8.5l-87 103q-3 4 -2 7t6 3h15q8 0 17 -10l80 -103q4 -5 2.5 -7.5t-6.5 -2.5h-7z" />
    <glyph glyph-name="Iacute" unicode="&#xcd;" horiz-adv-x="235" 
d="M102 670q0 10 10 10h11q10 0 10 -10v-660q0 -10 -10 -10h-11q-10 0 -10 10v660zM106 765q-5 0 -6.5 2.5t2.5 7.5l80 103q9 10 17 10h15q5 0 6 -3t-2 -7l-87 -103q-6 -7 -9 -8.5t-9 -1.5h-7z" />
    <glyph glyph-name="Icircumflex" unicode="&#xce;" horiz-adv-x="235" 
d="M102 670q0 10 10 10h11q10 0 10 -10v-660q0 -10 -10 -10h-11q-10 0 -10 10v660zM210 755q-9 0 -16 10l-76 98h-2l-76 -98q-8 -10 -16 -10h-8q-5 0 -6 3t2 7l87 121q6 9 14 9h8q8 0 14 -9l87 -121q3 -4 2 -7t-6 -3h-8z" />
    <glyph glyph-name="Idieresis" unicode="&#xcf;" horiz-adv-x="235" 
d="M102 670q0 10 10 10h11q10 0 10 -10v-660q0 -10 -10 -10h-11q-10 0 -10 10v660zM205 795q-10 0 -10 10v40q0 10 10 10h24q10 0 10 -10v-40q0 -10 -10 -10h-24zM5 795q-10 0 -10 10v40q0 10 10 10h24q10 0 10 -10v-40q0 -10 -10 -10h-24z" />
    <glyph glyph-name="Eth" unicode="&#xd0;" horiz-adv-x="622" 
d="M112 0q-10 0 -10 10v315q0 6 -6 6h-46q-10 0 -10 10v8q0 10 10 10h46q6 0 6 6v305q0 10 10 10h200q84 0 137.5 -32t75.5 -100q5 -16 8.5 -32.5t6 -40t3.5 -55.5t1 -80t-1 -80t-3.5 -55.5t-6 -40t-8.5 -32.5q-22 -68 -75.5 -100t-137.5 -32h-200zM312 29q71 0 117.5 26
t65.5 84q5 15 8.5 31t5.5 38.5t3 54t1 77.5t-1 77.5t-3 54t-5.5 38.5t-8.5 31q-19 58 -65.5 84t-117.5 26h-173q-6 0 -6 -6v-280q0 -6 6 -6h145q10 0 10 -10v-8q0 -10 -10 -10h-145q-6 0 -6 -6v-290q0 -6 6 -6h173z" />
    <glyph glyph-name="Ntilde" unicode="&#xd1;" horiz-adv-x="648" 
d="M102 670q0 10 10 10h9q5 0 9 -1.5t8 -8.5l374 -603h3v603q0 10 10 10h11q10 0 10 -10v-660q0 -10 -10 -10h-9q-5 0 -9 1.5t-8 8.5l-374 603h-3v-603q0 -10 -10 -10h-11q-10 0 -10 10v660zM375 794q-17 0 -31 6.5t-26 14.5q-11 7 -22 12.5t-24 5.5q-15 0 -28 -9t-27 -25
q-3 -3 -5.5 -2t-2.5 5v15q0 7 7 14q11 12 25.5 20t31.5 8t31.5 -6.5t25.5 -14.5t22 -13t24 -5q15 0 28 9t27 25q3 3 5.5 2t2.5 -5v-15q0 -4 -1 -6.5t-6 -7.5q-11 -12 -25.5 -20t-31.5 -8z" />
    <glyph glyph-name="Ograve" unicode="&#xd2;" horiz-adv-x="602" 
d="M301 -10q-163 0 -211 148q-4 11 -7.5 26.5t-6.5 39t-4.5 56.5t-1.5 80q0 46 1.5 79.5t4.5 57t6.5 39t7.5 26.5q48 148 211 148t211 -148q4 -11 7.5 -26.5t6.5 -39t4.5 -57t1.5 -79.5q0 -47 -1.5 -80t-4.5 -56.5t-6.5 -39t-7.5 -26.5q-48 -148 -211 -148zM301 19
q139 0 181 127q3 10 6.5 24.5t6.5 37t4.5 55t1.5 77.5t-1.5 77.5t-4.5 55t-6.5 37t-6.5 24.5q-42 127 -181 127t-181 -127q-3 -10 -6.5 -24.5t-6.5 -37t-4.5 -55t-1.5 -77.5t1.5 -77.5t4.5 -55t6.5 -37t6.5 -24.5q42 -127 181 -127zM315 765q-6 0 -9 1.5t-9 8.5l-87 103
q-3 4 -2 7t6 3h15q8 0 17 -10l80 -103q4 -5 2.5 -7.5t-6.5 -2.5h-7z" />
    <glyph glyph-name="Oacute" unicode="&#xd3;" horiz-adv-x="602" 
d="M301 -10q-163 0 -211 148q-4 11 -7.5 26.5t-6.5 39t-4.5 56.5t-1.5 80q0 46 1.5 79.5t4.5 57t6.5 39t7.5 26.5q48 148 211 148t211 -148q4 -11 7.5 -26.5t6.5 -39t4.5 -57t1.5 -79.5q0 -47 -1.5 -80t-4.5 -56.5t-6.5 -39t-7.5 -26.5q-48 -148 -211 -148zM301 19
q139 0 181 127q3 10 6.5 24.5t6.5 37t4.5 55t1.5 77.5t-1.5 77.5t-4.5 55t-6.5 37t-6.5 24.5q-42 127 -181 127t-181 -127q-3 -10 -6.5 -24.5t-6.5 -37t-4.5 -55t-1.5 -77.5t1.5 -77.5t4.5 -55t6.5 -37t6.5 -24.5q42 -127 181 -127zM280 765q-5 0 -6.5 2.5t2.5 7.5l80 103
q9 10 17 10h15q5 0 6 -3t-2 -7l-87 -103q-6 -7 -9 -8.5t-9 -1.5h-7z" />
    <glyph glyph-name="Ocircumflex" unicode="&#xd4;" horiz-adv-x="602" 
d="M301 -10q-163 0 -211 148q-4 11 -7.5 26.5t-6.5 39t-4.5 56.5t-1.5 80q0 46 1.5 79.5t4.5 57t6.5 39t7.5 26.5q48 148 211 148t211 -148q4 -11 7.5 -26.5t6.5 -39t4.5 -57t1.5 -79.5q0 -47 -1.5 -80t-4.5 -56.5t-6.5 -39t-7.5 -26.5q-48 -148 -211 -148zM301 19
q139 0 181 127q3 10 6.5 24.5t6.5 37t4.5 55t1.5 77.5t-1.5 77.5t-4.5 55t-6.5 37t-6.5 24.5q-42 127 -181 127t-181 -127q-3 -10 -6.5 -24.5t-6.5 -37t-4.5 -55t-1.5 -77.5t1.5 -77.5t4.5 -55t6.5 -37t6.5 -24.5q42 -127 181 -127zM394 755q-9 0 -16 10l-76 98h-2l-76 -98
q-8 -10 -16 -10h-8q-5 0 -6 3t2 7l87 121q6 9 14 9h8q8 0 14 -9l87 -121q3 -4 2 -7t-6 -3h-8z" />
    <glyph glyph-name="Otilde" unicode="&#xd5;" horiz-adv-x="602" 
d="M301 -10q-163 0 -211 148q-4 11 -7.5 26.5t-6.5 39t-4.5 56.5t-1.5 80q0 46 1.5 79.5t4.5 57t6.5 39t7.5 26.5q48 148 211 148t211 -148q4 -11 7.5 -26.5t6.5 -39t4.5 -57t1.5 -79.5q0 -47 -1.5 -80t-4.5 -56.5t-6.5 -39t-7.5 -26.5q-48 -148 -211 -148zM301 19
q139 0 181 127q3 10 6.5 24.5t6.5 37t4.5 55t1.5 77.5t-1.5 77.5t-4.5 55t-6.5 37t-6.5 24.5q-42 127 -181 127t-181 -127q-3 -10 -6.5 -24.5t-6.5 -37t-4.5 -55t-1.5 -77.5t1.5 -77.5t4.5 -55t6.5 -37t6.5 -24.5q42 -127 181 -127zM352 794q-17 0 -31 6.5t-26 14.5
q-11 7 -22 12.5t-24 5.5q-15 0 -28 -9t-27 -25q-3 -3 -5.5 -2t-2.5 5v15q0 7 7 14q11 12 25.5 20t31.5 8t31.5 -6.5t25.5 -14.5t22 -13t24 -5q15 0 28 9t27 25q3 3 5.5 2t2.5 -5v-15q0 -4 -1 -6.5t-6 -7.5q-11 -12 -25.5 -20t-31.5 -8z" />
    <glyph glyph-name="Odieresis" unicode="&#xd6;" horiz-adv-x="602" 
d="M301 -10q-163 0 -211 148q-4 11 -7.5 26.5t-6.5 39t-4.5 56.5t-1.5 80q0 46 1.5 79.5t4.5 57t6.5 39t7.5 26.5q48 148 211 148t211 -148q4 -11 7.5 -26.5t6.5 -39t4.5 -57t1.5 -79.5q0 -47 -1.5 -80t-4.5 -56.5t-6.5 -39t-7.5 -26.5q-48 -148 -211 -148zM301 19
q139 0 181 127q3 10 6.5 24.5t6.5 37t4.5 55t1.5 77.5t-1.5 77.5t-4.5 55t-6.5 37t-6.5 24.5q-42 127 -181 127t-181 -127q-3 -10 -6.5 -24.5t-6.5 -37t-4.5 -55t-1.5 -77.5t1.5 -77.5t4.5 -55t6.5 -37t6.5 -24.5q42 -127 181 -127zM389 795q-10 0 -10 10v40q0 10 10 10h24
q10 0 10 -10v-40q0 -10 -10 -10h-24zM189 795q-10 0 -10 10v40q0 10 10 10h24q10 0 10 -10v-40q0 -10 -10 -10h-24z" />
    <glyph glyph-name="multiply" unicode="&#xd7;" 
d="M411 120q-7 -7 -14 0l-132 132q-4 4 -8 0l-132 -132q-7 -7 -14 0l-6 6q-7 7 0 14l132 132q4 4 0 8l-132 132q-7 7 0 14l6 6q7 7 14 0l132 -132q4 -4 8 0l132 132q7 7 14 0l6 -6q7 -7 0 -14l-132 -132q-4 -4 0 -8l132 -132q7 -7 0 -14z" />
    <glyph glyph-name="Oslash" unicode="&#xd8;" horiz-adv-x="602" 
d="M90 -30q-11 0 -6 10l46 82q-13 16 -23 34.5t-17 41.5q-4 11 -7.5 26.5t-6.5 39t-4.5 56.5t-1.5 80q0 46 1.5 79.5t4.5 57t6.5 39t7.5 26.5q48 148 211 148q94 0 152 -52l35 62q5 10 14 10h10q11 0 6 -10l-46 -82q24 -30 40 -76q4 -11 7.5 -26.5t6.5 -39t4.5 -57
t1.5 -79.5q0 -47 -1.5 -80t-4.5 -56.5t-6.5 -39t-7.5 -26.5q-48 -148 -211 -148q-96 0 -152 52l-35 -62q-5 -10 -14 -10h-10zM120 146q5 -16 11.5 -30t14.5 -25l291 519q-50 51 -136 51q-139 0 -181 -127q-3 -10 -6.5 -24.5t-6.5 -37t-4.5 -55t-1.5 -77.5t1.5 -77.5t4.5 -55
t6.5 -37t6.5 -24.5zM301 19q139 0 181 127q3 10 6.5 24.5t6.5 37t4.5 55t1.5 77.5t-1.5 77.5t-4.5 55t-6.5 37t-6.5 24.5q-5 15 -12 29t-15 25l-291 -518q49 -51 137 -51z" />
    <glyph glyph-name="Ugrave" unicode="&#xd9;" horiz-adv-x="632" 
d="M316 -10q-108 0 -165 59t-57 184v437q0 10 10 10h11q10 0 10 -10v-438q0 -108 49 -160.5t142 -52.5q94 0 142.5 52.5t48.5 160.5v438q0 10 10 10h11q10 0 10 -10v-437q0 -123 -57 -183t-165 -60zM329 765q-6 0 -9 1.5t-9 8.5l-87 103q-3 4 -2 7t6 3h15q8 0 17 -10
l80 -103q4 -5 2.5 -7.5t-6.5 -2.5h-7z" />
    <glyph glyph-name="Uacute" unicode="&#xda;" horiz-adv-x="632" 
d="M316 -10q-108 0 -165 59t-57 184v437q0 10 10 10h11q10 0 10 -10v-438q0 -108 49 -160.5t142 -52.5q94 0 142.5 52.5t48.5 160.5v438q0 10 10 10h11q10 0 10 -10v-437q0 -123 -57 -183t-165 -60zM293 765q-5 0 -6.5 2.5t2.5 7.5l80 103q9 10 17 10h15q5 0 6 -3t-2 -7
l-87 -103q-6 -7 -9 -8.5t-9 -1.5h-7z" />
    <glyph glyph-name="Ucircumflex" unicode="&#xdb;" horiz-adv-x="632" 
d="M316 -10q-108 0 -165 59t-57 184v437q0 10 10 10h11q10 0 10 -10v-438q0 -108 49 -160.5t142 -52.5q94 0 142.5 52.5t48.5 160.5v438q0 10 10 10h11q10 0 10 -10v-437q0 -123 -57 -183t-165 -60zM409 755q-9 0 -16 10l-76 98h-2l-76 -98q-8 -10 -16 -10h-8q-5 0 -6 3t2 7
l87 121q6 9 14 9h8q8 0 14 -9l87 -121q3 -4 2 -7t-6 -3h-8z" />
    <glyph glyph-name="Udieresis" unicode="&#xdc;" horiz-adv-x="632" 
d="M316 -10q-108 0 -165 59t-57 184v437q0 10 10 10h11q10 0 10 -10v-438q0 -108 49 -160.5t142 -52.5q94 0 142.5 52.5t48.5 160.5v438q0 10 10 10h11q10 0 10 -10v-437q0 -123 -57 -183t-165 -60zM404 795q-10 0 -10 10v40q0 10 10 10h24q10 0 10 -10v-40q0 -10 -10 -10
h-24zM204 795q-10 0 -10 10v40q0 10 10 10h24q10 0 10 -10v-40q0 -10 -10 -10h-24z" />
    <glyph glyph-name="Yacute" unicode="&#xdd;" horiz-adv-x="506" 
d="M248 0q-10 0 -10 10v269l-207 389q-2 5 0 8.5t7 3.5h12q10 0 15 -10l189 -352h2l185 352q5 10 15 10h12q5 0 7 -3.5t0 -8.5l-206 -389v-269q0 -10 -10 -10h-11zM239 765q-5 0 -6.5 2.5t2.5 7.5l80 103q9 10 17 10h15q5 0 6 -3t-2 -7l-87 -103q-6 -7 -9 -8.5t-9 -1.5h-7z
" />
    <glyph glyph-name="Thorn" unicode="&#xde;" horiz-adv-x="579" 
d="M112 0q-10 0 -10 10v660q0 10 10 10h11q10 0 10 -10v-137q0 -6 6 -6h188q97 0 150 -48.5t53 -135.5t-53 -135.5t-150 -48.5h-188q-6 0 -6 -6v-143q0 -10 -10 -10h-11zM327 188q85 0 128.5 40t43.5 115t-43.5 115t-128.5 40h-188q-6 0 -6 -6v-298q0 -6 6 -6h188z" />
    <glyph glyph-name="germandbls" unicode="&#xdf;" horiz-adv-x="536" 
d="M281 -6q-10 0 -10 10v8q0 10 10 10h9q54 0 85.5 17t45.5 59q3 8 4.5 17t3 22.5t2 33t0.5 48.5t-0.5 48.5t-2 33.5t-3 23.5t-4.5 17.5q-14 42 -46.5 57.5t-81.5 16.5h-12q-10 0 -10 10v8q0 10 10 10h12q68 0 98 25t30 82q0 53 -35 82t-104 29q-83 0 -117.5 -38.5
t-34.5 -126.5v-487q0 -10 -10 -10h-10q-10 0 -10 10v489q0 47 9.5 83t31 60t56.5 36t85 12q86 0 127.5 -38t41.5 -101q0 -53 -21 -81t-58 -39v-2q27 -9 47 -28t31 -51q3 -9 5 -19t3.5 -25t2 -36t0.5 -51q0 -60 -3 -88.5t-8 -42.5q-17 -53 -58.5 -73.5t-101.5 -20.5h-9z" />
    <glyph glyph-name="agrave" unicode="&#xe0;" horiz-adv-x="509" 
d="M395 0q-10 0 -10 10v57h-1q-13 -32 -51.5 -54.5t-101.5 -22.5q-75 0 -117 35.5t-42 102.5q0 68 45 102t131 34h131q6 0 6 6v61q0 34 -6 57.5t-21 38.5t-40.5 22t-64.5 7q-48 0 -76.5 -10t-47.5 -28q-7 -7 -14 -2l-7 6q-8 7 -1 14q22 23 58 35.5t88 12.5q43 0 73.5 -7.5
t50 -25t29 -47t9.5 -73.5v-321q0 -10 -10 -10h-10zM235 18q33 0 60.5 9t47.5 25.5t31 38.5t11 49v90q0 6 -6 6h-129q-78 0 -113 -27t-35 -81q0 -53 34.5 -81.5t98.5 -28.5zM292 560q-10 0 -17 10l-85 120q-3 4 -1.5 7t6.5 3h15q10 0 16 -10l78 -120q3 -5 1.5 -7.5t-6.5 -2.5
h-7z" />
    <glyph glyph-name="aacute" unicode="&#xe1;" horiz-adv-x="509" 
d="M395 0q-10 0 -10 10v57h-1q-13 -32 -51.5 -54.5t-101.5 -22.5q-75 0 -117 35.5t-42 102.5q0 68 45 102t131 34h131q6 0 6 6v61q0 34 -6 57.5t-21 38.5t-40.5 22t-64.5 7q-48 0 -76.5 -10t-47.5 -28q-7 -7 -14 -2l-7 6q-8 7 -1 14q22 23 58 35.5t88 12.5q43 0 73.5 -7.5
t50 -25t29 -47t9.5 -73.5v-321q0 -10 -10 -10h-10zM235 18q33 0 60.5 9t47.5 25.5t31 38.5t11 49v90q0 6 -6 6h-129q-78 0 -113 -27t-35 -81q0 -53 34.5 -81.5t98.5 -28.5zM245 560q-5 0 -6.5 2.5t1.5 7.5l78 120q6 10 16 10h15q5 0 6.5 -3t-1.5 -7l-85 -120q-5 -6 -8 -8
t-9 -2h-7z" />
    <glyph glyph-name="acircumflex" unicode="&#xe2;" horiz-adv-x="509" 
d="M395 0q-10 0 -10 10v57h-1q-13 -32 -51.5 -54.5t-101.5 -22.5q-75 0 -117 35.5t-42 102.5q0 68 45 102t131 34h131q6 0 6 6v61q0 34 -6 57.5t-21 38.5t-40.5 22t-64.5 7q-48 0 -76.5 -10t-47.5 -28q-7 -7 -14 -2l-7 6q-8 7 -1 14q22 23 58 35.5t88 12.5q43 0 73.5 -7.5
t50 -25t29 -47t9.5 -73.5v-321q0 -10 -10 -10h-10zM235 18q33 0 60.5 9t47.5 25.5t31 38.5t11 49v90q0 6 -6 6h-129q-78 0 -113 -27t-35 -81q0 -53 34.5 -81.5t98.5 -28.5zM347 560q-9 0 -16 10l-76 98h-2l-76 -98q-8 -10 -16 -10h-8q-5 0 -6 3t2 7l87 121q6 9 14 9h8
q8 0 14 -9l87 -121q3 -4 2 -7t-6 -3h-8z" />
    <glyph glyph-name="atilde" unicode="&#xe3;" horiz-adv-x="509" 
d="M395 0q-10 0 -10 10v57h-1q-13 -32 -51.5 -54.5t-101.5 -22.5q-75 0 -117 35.5t-42 102.5q0 68 45 102t131 34h131q6 0 6 6v61q0 34 -6 57.5t-21 38.5t-40.5 22t-64.5 7q-48 0 -76.5 -10t-47.5 -28q-7 -7 -14 -2l-7 6q-8 7 -1 14q22 23 58 35.5t88 12.5q43 0 73.5 -7.5
t50 -25t29 -47t9.5 -73.5v-321q0 -10 -10 -10h-10zM235 18q33 0 60.5 9t47.5 25.5t31 38.5t11 49v90q0 6 -6 6h-129q-78 0 -113 -27t-35 -81q0 -53 34.5 -81.5t98.5 -28.5zM305 613q-17 0 -31 6.5t-26 14.5q-11 7 -22 12.5t-24 5.5q-15 0 -28 -9t-27 -25q-3 -3 -5.5 -2
t-2.5 5v15q0 7 7 14q11 12 25.5 20t31.5 8t31.5 -6.5t25.5 -14.5t22 -13t24 -5q15 0 28 9t27 25q3 3 5.5 2t2.5 -5v-15q0 -4 -1 -6.5t-6 -7.5q-11 -12 -25.5 -20t-31.5 -8z" />
    <glyph glyph-name="adieresis" unicode="&#xe4;" horiz-adv-x="509" 
d="M395 0q-10 0 -10 10v57h-1q-13 -32 -51.5 -54.5t-101.5 -22.5q-75 0 -117 35.5t-42 102.5q0 68 45 102t131 34h131q6 0 6 6v61q0 34 -6 57.5t-21 38.5t-40.5 22t-64.5 7q-48 0 -76.5 -10t-47.5 -28q-7 -7 -14 -2l-7 6q-8 7 -1 14q22 23 58 35.5t88 12.5q43 0 73.5 -7.5
t50 -25t29 -47t9.5 -73.5v-321q0 -10 -10 -10h-10zM235 18q33 0 60.5 9t47.5 25.5t31 38.5t11 49v90q0 6 -6 6h-129q-78 0 -113 -27t-35 -81q0 -53 34.5 -81.5t98.5 -28.5zM342 620q-10 0 -10 10v40q0 10 10 10h24q10 0 10 -10v-40q0 -10 -10 -10h-24zM142 620q-10 0 -10 10
v40q0 10 10 10h24q10 0 10 -10v-40q0 -10 -10 -10h-24z" />
    <glyph glyph-name="aring" unicode="&#xe5;" horiz-adv-x="509" 
d="M395 0q-10 0 -10 10v57h-1q-13 -32 -51.5 -54.5t-101.5 -22.5q-75 0 -117 35.5t-42 102.5q0 68 45 102t131 34h131q6 0 6 6v61q0 34 -6 57.5t-21 38.5t-40.5 22t-64.5 7q-48 0 -76.5 -10t-47.5 -28q-7 -7 -14 -2l-7 6q-8 7 -1 14q22 23 58 35.5t88 12.5q43 0 73.5 -7.5
t50 -25t29 -47t9.5 -73.5v-321q0 -10 -10 -10h-10zM235 18q33 0 60.5 9t47.5 25.5t31 38.5t11 49v90q0 6 -6 6h-129q-78 0 -113 -27t-35 -81q0 -53 34.5 -81.5t98.5 -28.5zM256 546q-36 0 -59.5 23.5t-23.5 59.5t23.5 59.5t59.5 23.5t59.5 -23.5t23.5 -59.5t-23.5 -59.5
t-59.5 -23.5zM256 572q25 0 40.5 16t15.5 41t-15.5 41t-40.5 16t-40.5 -16t-15.5 -41t15.5 -41t40.5 -16z" />
    <glyph glyph-name="ae" unicode="&#xe6;" horiz-adv-x="814" 
d="M573 -10q-68 0 -107.5 29t-59.5 74h-1q-17 -47 -58.5 -75t-115.5 -28q-75 0 -117 35.5t-42 102.5q0 68 45 102t131 34h131q6 0 6 6v61q0 34 -6 57.5t-21 38.5t-40.5 22t-64.5 7q-48 0 -76.5 -10t-47.5 -28q-7 -7 -14 -2l-7 6q-8 7 -1 14q22 23 58 35.5t88 12.5
q69 0 107 -21t49 -74h1q46 95 157 95q61 0 104.5 -30t63.5 -90q7 -20 10.5 -46.5t3.5 -71.5q0 -10 -11 -10h-317q-6 0 -6 -7q0 -40 3 -63.5t9 -43.5q18 -54 55.5 -79t90.5 -25q50 0 85.5 19.5t57.5 49.5q6 8 14 2l6 -5q7 -6 1 -14q-25 -35 -66 -57.5t-98 -22.5zM713 264
q6 0 6 6q0 26 -3 46t-8 37q-17 52 -53 77.5t-88 25.5t-88 -25.5t-53 -77.5q-5 -17 -8 -37t-3 -46q0 -6 6 -6h292zM235 18q33 0 60.5 9t47.5 25.5t31 38.5t11 49v90q0 6 -6 6h-129q-78 0 -113 -27t-35 -81q0 -53 34.5 -81.5t98.5 -28.5z" />
    <glyph glyph-name="ccedilla" unicode="&#xe7;" horiz-adv-x="468" 
d="M201 -145q-10 0 -7 10l48 125q-60 2 -102 33.5t-59 86.5q-7 22 -11.5 52t-4.5 75t4.5 75t11.5 52q18 57 61.5 88.5t106.5 31.5q57 0 96 -25t61 -71q5 -9 -5 -14l-7 -3q-9 -3 -13 4q-21 42 -52.5 61.5t-79.5 19.5q-52 0 -87.5 -26t-51.5 -77q-7 -20 -11 -47.5t-4 -68.5
t4 -68.5t11 -47.5q16 -51 51.5 -77t87.5 -26q48 0 79.5 19.5t52.5 61.5q4 7 13 4l7 -3q10 -5 5 -14q-20 -42 -53.5 -66t-81.5 -29l-43 -126q-4 -10 -16 -10h-11z" />
    <glyph glyph-name="egrave" unicode="&#xe8;" horiz-adv-x="494" 
d="M253 -10q-66 0 -110 30.5t-64 91.5q-7 21 -10.5 48.5t-3.5 77.5q0 49 3.5 77.5t10.5 48.5q20 60 63.5 90t104.5 30t104.5 -30t63.5 -90q7 -20 10.5 -46.5t3.5 -71.5q0 -10 -11 -10h-317q-6 0 -6 -7q0 -40 3 -63.5t9 -43.5q18 -54 55.5 -79t90.5 -25q50 0 85.5 19.5
t57.5 49.5q6 8 14 2l6 -5q7 -6 1 -14q-25 -35 -66 -57.5t-98 -22.5zM393 264q6 0 6 6q0 26 -3 46t-8 37q-17 52 -53 77.5t-88 25.5t-88 -25.5t-53 -77.5q-5 -17 -8 -37t-3 -46q0 -6 6 -6h292zM259 560q-10 0 -17 10l-85 120q-3 4 -1.5 7t6.5 3h15q10 0 16 -10l78 -120
q3 -5 1.5 -7.5t-6.5 -2.5h-7z" />
    <glyph glyph-name="eacute" unicode="&#xe9;" horiz-adv-x="494" 
d="M253 -10q-66 0 -110 30.5t-64 91.5q-7 21 -10.5 48.5t-3.5 77.5q0 49 3.5 77.5t10.5 48.5q20 60 63.5 90t104.5 30t104.5 -30t63.5 -90q7 -20 10.5 -46.5t3.5 -71.5q0 -10 -11 -10h-317q-6 0 -6 -7q0 -40 3 -63.5t9 -43.5q18 -54 55.5 -79t90.5 -25q50 0 85.5 19.5
t57.5 49.5q6 8 14 2l6 -5q7 -6 1 -14q-25 -35 -66 -57.5t-98 -22.5zM393 264q6 0 6 6q0 26 -3 46t-8 37q-17 52 -53 77.5t-88 25.5t-88 -25.5t-53 -77.5q-5 -17 -8 -37t-3 -46q0 -6 6 -6h292zM231 560q-5 0 -6.5 2.5t1.5 7.5l78 120q6 10 16 10h15q5 0 6.5 -3t-1.5 -7
l-85 -120q-5 -6 -8 -8t-9 -2h-7z" />
    <glyph glyph-name="ecircumflex" unicode="&#xea;" horiz-adv-x="494" 
d="M253 -10q-66 0 -110 30.5t-64 91.5q-7 21 -10.5 48.5t-3.5 77.5q0 49 3.5 77.5t10.5 48.5q20 60 63.5 90t104.5 30t104.5 -30t63.5 -90q7 -20 10.5 -46.5t3.5 -71.5q0 -10 -11 -10h-317q-6 0 -6 -7q0 -40 3 -63.5t9 -43.5q18 -54 55.5 -79t90.5 -25q50 0 85.5 19.5
t57.5 49.5q6 8 14 2l6 -5q7 -6 1 -14q-25 -35 -66 -57.5t-98 -22.5zM393 264q6 0 6 6q0 26 -3 46t-8 37q-17 52 -53 77.5t-88 25.5t-88 -25.5t-53 -77.5q-5 -17 -8 -37t-3 -46q0 -6 6 -6h292zM340 560q-9 0 -16 10l-76 98h-2l-76 -98q-8 -10 -16 -10h-8q-5 0 -6 3t2 7
l87 121q6 9 14 9h8q8 0 14 -9l87 -121q3 -4 2 -7t-6 -3h-8z" />
    <glyph glyph-name="edieresis" unicode="&#xeb;" horiz-adv-x="494" 
d="M253 -10q-66 0 -110 30.5t-64 91.5q-7 21 -10.5 48.5t-3.5 77.5q0 49 3.5 77.5t10.5 48.5q20 60 63.5 90t104.5 30t104.5 -30t63.5 -90q7 -20 10.5 -46.5t3.5 -71.5q0 -10 -11 -10h-317q-6 0 -6 -7q0 -40 3 -63.5t9 -43.5q18 -54 55.5 -79t90.5 -25q50 0 85.5 19.5
t57.5 49.5q6 8 14 2l6 -5q7 -6 1 -14q-25 -35 -66 -57.5t-98 -22.5zM393 264q6 0 6 6q0 26 -3 46t-8 37q-17 52 -53 77.5t-88 25.5t-88 -25.5t-53 -77.5q-5 -17 -8 -37t-3 -46q0 -6 6 -6h292zM335 620q-10 0 -10 10v40q0 10 10 10h24q10 0 10 -10v-40q0 -10 -10 -10h-24z
M135 620q-10 0 -10 10v40q0 10 10 10h24q10 0 10 -10v-40q0 -10 -10 -10h-24z" />
    <glyph glyph-name="igrave" unicode="&#xec;" horiz-adv-x="230" 
d="M110 0q-10 0 -10 10v454q0 10 10 10h10q10 0 10 -10v-454q0 -10 -10 -10h-10zM121 560q-10 0 -17 10l-85 120q-3 4 -1.5 7t6.5 3h15q10 0 16 -10l78 -120q3 -5 1.5 -7.5t-6.5 -2.5h-7z" />
    <glyph glyph-name="iacute" unicode="&#xed;" horiz-adv-x="230" 
d="M110 0q-10 0 -10 10v454q0 10 10 10h10q10 0 10 -10v-454q0 -10 -10 -10h-10zM102 560q-5 0 -6.5 2.5t1.5 7.5l78 120q6 10 16 10h15q5 0 6.5 -3t-1.5 -7l-85 -120q-5 -6 -8 -8t-9 -2h-7z" />
    <glyph glyph-name="icircumflex" unicode="&#xee;" horiz-adv-x="230" 
d="M110 0q-10 0 -10 10v454q0 10 10 10h10q10 0 10 -10v-454q0 -10 -10 -10h-10zM208 560q-9 0 -16 10l-76 98h-2l-76 -98q-8 -10 -16 -10h-8q-5 0 -6 3t2 7l87 121q6 9 14 9h8q8 0 14 -9l87 -121q3 -4 2 -7t-6 -3h-8z" />
    <glyph glyph-name="idieresis" unicode="&#xef;" horiz-adv-x="230" 
d="M110 0q-10 0 -10 10v454q0 10 10 10h10q10 0 10 -10v-454q0 -10 -10 -10h-10zM203 620q-10 0 -10 10v40q0 10 10 10h24q10 0 10 -10v-40q0 -10 -10 -10h-24zM3 620q-10 0 -10 10v40q0 10 10 10h24q10 0 10 -10v-40q0 -10 -10 -10h-24z" />
    <glyph glyph-name="eth" unicode="&#xf0;" horiz-adv-x="502" 
d="M275 581l43 -52q33 -39 55.5 -73t37 -67t20.5 -67.5t6 -74.5q0 -53 -4 -83.5t-12 -53.5q-19 -57 -63 -88.5t-107 -31.5t-107 31.5t-63 88.5q-8 23 -12 52.5t-4 74.5t4 74.5t12 52.5q19 57 62 88.5t101 31.5q29 0 51.5 -7.5t48.5 -25.5h1l-100 121l-96 -29q-12 -3 -14 7
l-1 6q-1 9 8 12l85 25l-65 77q-3 4 -2 7t6 3h17q6 0 9.5 -2.5t7.5 -7.5l56 -68l95 28q11 3 13 -6l1 -6q2 -9 -7 -12zM251 18q52 0 89 26.5t53 75.5q7 21 10.5 48t3.5 69t-3.5 67.5t-11.5 47.5q-16 49 -52.5 76.5t-88.5 27.5t-89 -26.5t-53 -75.5q-7 -21 -10.5 -48t-3.5 -69
t3.5 -69t10.5 -48q16 -49 53 -75.5t89 -26.5z" />
    <glyph glyph-name="ntilde" unicode="&#xf1;" horiz-adv-x="538" 
d="M424 0q-10 0 -10 10v284q0 85 -34.5 123.5t-104.5 38.5q-30 0 -56 -10t-46 -28.5t-31.5 -46t-11.5 -62.5v-299q0 -10 -10 -10h-10q-10 0 -10 10v454q0 10 10 10h10q10 0 10 -10v-67h1q18 42 56.5 64.5t89.5 22.5q81 0 124 -45.5t43 -137.5v-291q0 -10 -10 -10h-10z
M320 613q-17 0 -31 6.5t-26 14.5q-11 7 -22 12.5t-24 5.5q-15 0 -28 -9t-27 -25q-3 -3 -5.5 -2t-2.5 5v15q0 7 7 14q11 12 25.5 20t31.5 8t31.5 -6.5t25.5 -14.5t22 -13t24 -5q15 0 28 9t27 25q3 3 5.5 2t2.5 -5v-15q0 -4 -1 -6.5t-6 -7.5q-11 -12 -25.5 -20t-31.5 -8z" />
    <glyph glyph-name="ograve" unicode="&#xf2;" horiz-adv-x="502" 
d="M251 -10q-63 0 -107 31.5t-63 88.5q-8 23 -12 52.5t-4 74.5t4 74.5t12 52.5q19 57 63 88.5t107 31.5t107 -31.5t63 -88.5q8 -23 12 -52.5t4 -74.5t-4 -74.5t-12 -52.5q-19 -57 -63 -88.5t-107 -31.5zM251 18q52 0 89 26.5t53 75.5q7 21 10.5 48t3.5 69t-3.5 69t-10.5 48
q-16 49 -53 75.5t-89 26.5t-89 -26.5t-53 -75.5q-7 -21 -10.5 -48t-3.5 -69t3.5 -69t10.5 -48q16 -49 53 -75.5t89 -26.5zM262 560q-10 0 -17 10l-85 120q-3 4 -1.5 7t6.5 3h15q10 0 16 -10l78 -120q3 -5 1.5 -7.5t-6.5 -2.5h-7z" />
    <glyph glyph-name="oacute" unicode="&#xf3;" horiz-adv-x="502" 
d="M251 -10q-63 0 -107 31.5t-63 88.5q-8 23 -12 52.5t-4 74.5t4 74.5t12 52.5q19 57 63 88.5t107 31.5t107 -31.5t63 -88.5q8 -23 12 -52.5t4 -74.5t-4 -74.5t-12 -52.5q-19 -57 -63 -88.5t-107 -31.5zM251 18q52 0 89 26.5t53 75.5q7 21 10.5 48t3.5 69t-3.5 69t-10.5 48
q-16 49 -53 75.5t-89 26.5t-89 -26.5t-53 -75.5q-7 -21 -10.5 -48t-3.5 -69t3.5 -69t10.5 -48q16 -49 53 -75.5t89 -26.5zM233 560q-5 0 -6.5 2.5t1.5 7.5l78 120q6 10 16 10h15q5 0 6.5 -3t-1.5 -7l-85 -120q-5 -6 -8 -8t-9 -2h-7z" />
    <glyph glyph-name="ocircumflex" unicode="&#xf4;" horiz-adv-x="502" 
d="M251 -10q-63 0 -107 31.5t-63 88.5q-8 23 -12 52.5t-4 74.5t4 74.5t12 52.5q19 57 63 88.5t107 31.5t107 -31.5t63 -88.5q8 -23 12 -52.5t4 -74.5t-4 -74.5t-12 -52.5q-19 -57 -63 -88.5t-107 -31.5zM251 18q52 0 89 26.5t53 75.5q7 21 10.5 48t3.5 69t-3.5 69t-10.5 48
q-16 49 -53 75.5t-89 26.5t-89 -26.5t-53 -75.5q-7 -21 -10.5 -48t-3.5 -69t3.5 -69t10.5 -48q16 -49 53 -75.5t89 -26.5zM344 560q-9 0 -16 10l-76 98h-2l-76 -98q-8 -10 -16 -10h-8q-5 0 -6 3t2 7l87 121q6 9 14 9h8q8 0 14 -9l87 -121q3 -4 2 -7t-6 -3h-8z" />
    <glyph glyph-name="otilde" unicode="&#xf5;" horiz-adv-x="502" 
d="M251 -10q-63 0 -107 31.5t-63 88.5q-8 23 -12 52.5t-4 74.5t4 74.5t12 52.5q19 57 63 88.5t107 31.5t107 -31.5t63 -88.5q8 -23 12 -52.5t4 -74.5t-4 -74.5t-12 -52.5q-19 -57 -63 -88.5t-107 -31.5zM251 18q52 0 89 26.5t53 75.5q7 21 10.5 48t3.5 69t-3.5 69t-10.5 48
q-16 49 -53 75.5t-89 26.5t-89 -26.5t-53 -75.5q-7 -21 -10.5 -48t-3.5 -69t3.5 -69t10.5 -48q16 -49 53 -75.5t89 -26.5zM302 613q-17 0 -31 6.5t-26 14.5q-11 7 -22 12.5t-24 5.5q-15 0 -28 -9t-27 -25q-3 -3 -5.5 -2t-2.5 5v15q0 7 7 14q11 12 25.5 20t31.5 8t31.5 -6.5
t25.5 -14.5t22 -13t24 -5q15 0 28 9t27 25q3 3 5.5 2t2.5 -5v-15q0 -4 -1 -6.5t-6 -7.5q-11 -12 -25.5 -20t-31.5 -8z" />
    <glyph glyph-name="odieresis" unicode="&#xf6;" horiz-adv-x="502" 
d="M251 -10q-63 0 -107 31.5t-63 88.5q-8 23 -12 52.5t-4 74.5t4 74.5t12 52.5q19 57 63 88.5t107 31.5t107 -31.5t63 -88.5q8 -23 12 -52.5t4 -74.5t-4 -74.5t-12 -52.5q-19 -57 -63 -88.5t-107 -31.5zM251 18q52 0 89 26.5t53 75.5q7 21 10.5 48t3.5 69t-3.5 69t-10.5 48
q-16 49 -53 75.5t-89 26.5t-89 -26.5t-53 -75.5q-7 -21 -10.5 -48t-3.5 -69t3.5 -69t10.5 -48q16 -49 53 -75.5t89 -26.5zM339 620q-10 0 -10 10v40q0 10 10 10h24q10 0 10 -10v-40q0 -10 -10 -10h-24zM139 620q-10 0 -10 10v40q0 10 10 10h24q10 0 10 -10v-40
q0 -10 -10 -10h-24z" />
    <glyph glyph-name="divide" unicode="&#xf7;" 
d="M261 375q-14 0 -23.5 9.5t-9.5 23.5t9.5 23.5t23.5 9.5t23.5 -9.5t9.5 -23.5t-9.5 -23.5t-23.5 -9.5zM79 262q-10 0 -10 10v8q0 10 10 10h364q10 0 10 -10v-8q0 -10 -10 -10h-364zM261 111q-14 0 -23.5 9.5t-9.5 23.5t9.5 23.5t23.5 9.5t23.5 -9.5t9.5 -23.5t-9.5 -23.5
t-23.5 -9.5z" />
    <glyph glyph-name="oslash" unicode="&#xf8;" horiz-adv-x="502" 
d="M72 -30q-5 0 -6 3t1 7l46 70q-22 26 -32 60q-8 23 -12 52.5t-4 74.5t4 74.5t12 52.5q19 57 63 88.5t107 31.5q72 0 119 -42l35 52q6 10 16 10h9q5 0 6 -3t-1 -7l-46 -71q20 -25 32 -59q8 -23 12 -52.5t4 -74.5t-4 -74.5t-12 -52.5q-19 -57 -63 -88.5t-107 -31.5
q-74 0 -120 41l-34 -51q-6 -10 -16 -10h-9zM109 120q7 -24 21 -44l224 341q-41 39 -103 39q-52 0 -89 -26.5t-53 -75.5q-7 -21 -10.5 -48t-3.5 -69t3.5 -69t10.5 -48zM251 18q52 0 89 26.5t53 75.5q7 21 10.5 48t3.5 69t-3.5 69t-10.5 48q-7 23 -21 43l-225 -341
q40 -38 104 -38z" />
    <glyph glyph-name="ugrave" unicode="&#xf9;" horiz-adv-x="531" 
d="M411 0q-10 0 -10 10v67h-1q-17 -42 -55.5 -64.5t-88.5 -22.5q-81 0 -123 45.5t-42 137.5v291q0 10 10 10h10q10 0 10 -10v-284q0 -85 33.5 -123.5t103.5 -38.5q29 0 55 10t45.5 28.5t31 46t11.5 62.5v299q0 10 10 10h10q10 0 10 -10v-454q0 -10 -10 -10h-10zM280 560
q-10 0 -17 10l-85 120q-3 4 -1.5 7t6.5 3h15q10 0 16 -10l78 -120q3 -5 1.5 -7.5t-6.5 -2.5h-7z" />
    <glyph glyph-name="uacute" unicode="&#xfa;" horiz-adv-x="531" 
d="M411 0q-10 0 -10 10v67h-1q-17 -42 -55.5 -64.5t-88.5 -22.5q-81 0 -123 45.5t-42 137.5v291q0 10 10 10h10q10 0 10 -10v-284q0 -85 33.5 -123.5t103.5 -38.5q29 0 55 10t45.5 28.5t31 46t11.5 62.5v299q0 10 10 10h10q10 0 10 -10v-454q0 -10 -10 -10h-10zM243 560
q-5 0 -6.5 2.5t1.5 7.5l78 120q6 10 16 10h15q5 0 6.5 -3t-1.5 -7l-85 -120q-5 -6 -8 -8t-9 -2h-7z" />
    <glyph glyph-name="ucircumflex" unicode="&#xfb;" horiz-adv-x="531" 
d="M411 0q-10 0 -10 10v67h-1q-17 -42 -55.5 -64.5t-88.5 -22.5q-81 0 -123 45.5t-42 137.5v291q0 10 10 10h10q10 0 10 -10v-284q0 -85 33.5 -123.5t103.5 -38.5q29 0 55 10t45.5 28.5t31 46t11.5 62.5v299q0 10 10 10h10q10 0 10 -10v-454q0 -10 -10 -10h-10zM358 560
q-9 0 -16 10l-76 98h-2l-76 -98q-8 -10 -16 -10h-8q-5 0 -6 3t2 7l87 121q6 9 14 9h8q8 0 14 -9l87 -121q3 -4 2 -7t-6 -3h-8z" />
    <glyph glyph-name="udieresis" unicode="&#xfc;" horiz-adv-x="531" 
d="M411 0q-10 0 -10 10v67h-1q-17 -42 -55.5 -64.5t-88.5 -22.5q-81 0 -123 45.5t-42 137.5v291q0 10 10 10h10q10 0 10 -10v-284q0 -85 33.5 -123.5t103.5 -38.5q29 0 55 10t45.5 28.5t31 46t11.5 62.5v299q0 10 10 10h10q10 0 10 -10v-454q0 -10 -10 -10h-10zM353 620
q-10 0 -10 10v40q0 10 10 10h24q10 0 10 -10v-40q0 -10 -10 -10h-24zM153 620q-10 0 -10 10v40q0 10 10 10h24q10 0 10 -10v-40q0 -10 -10 -10h-24z" />
    <glyph glyph-name="yacute" unicode="&#xfd;" horiz-adv-x="460" 
d="M79 -180q-10 0 -10 10v8q0 10 10 10h18q16 0 28.5 4t24 15.5t22.5 32t23 53.5l20 53l-176 458q-3 10 7 10h12q9 0 13 -10l160 -416h1l157 416q4 10 13 10h12q10 0 7 -10l-199 -519q-15 -40 -29.5 -64.5t-29.5 -38t-31.5 -18t-36.5 -4.5h-16zM213 560q-5 0 -6.5 2.5
t1.5 7.5l78 120q6 10 16 10h15q5 0 6.5 -3t-1.5 -7l-85 -120q-5 -6 -8 -8t-9 -2h-7z" />
    <glyph glyph-name="thorn" unicode="&#xfe;" horiz-adv-x="525" 
d="M110 -180q-10 0 -10 10v840q0 10 10 10h10q10 0 10 -10v-275h1q17 38 52 63.5t99 25.5q125 0 161 -113q10 -30 13.5 -64t3.5 -70t-3.5 -70t-13.5 -64q-36 -113 -161 -113q-64 0 -99 25.5t-52 63.5h-1v-249q0 -10 -10 -10h-10zM280 18q52 0 86 24.5t49 70.5q8 26 11.5 59
t3.5 65t-3.5 65t-11.5 59q-15 46 -49 70.5t-86 24.5q-50 0 -85.5 -23.5t-51.5 -71.5q-13 -40 -13 -124t13 -124q16 -48 51.5 -71.5t85.5 -23.5z" />
    <glyph glyph-name="ydieresis" unicode="&#xff;" horiz-adv-x="460" 
d="M79 -180q-10 0 -10 10v8q0 10 10 10h18q16 0 28.5 4t24 15.5t22.5 32t23 53.5l20 53l-176 458q-3 10 7 10h12q9 0 13 -10l160 -416h1l157 416q4 10 13 10h12q10 0 7 -10l-199 -519q-15 -40 -29.5 -64.5t-29.5 -38t-31.5 -18t-36.5 -4.5h-16zM318 620q-10 0 -10 10v40
q0 10 10 10h24q10 0 10 -10v-40q0 -10 -10 -10h-24zM118 620q-10 0 -10 10v40q0 10 10 10h24q10 0 10 -10v-40q0 -10 -10 -10h-24z" />
    <glyph glyph-name="dotlessi" unicode="&#x131;" horiz-adv-x="230" 
d="M110 0q-10 0 -10 10v454q0 10 10 10h10q10 0 10 -10v-454q0 -10 -10 -10h-10z" />
    <glyph glyph-name="Lslash" unicode="&#x141;" horiz-adv-x="524" 
d="M112 0q-10 0 -10 10v297l-59 -30q-10 -5 -10 6v12q0 9 10 14l59 30v331q0 10 10 10h11q10 0 10 -10v-315l171 87q10 5 10 -6v-12q0 -9 -10 -14l-171 -87v-288q0 -6 6 -6h347q10 0 10 -10v-9q0 -10 -10 -10h-374z" />
    <glyph glyph-name="lslash" unicode="&#x142;" horiz-adv-x="249" 
d="M129 356v-259q0 -41 12.5 -56t42.5 -15h15q10 0 10 -10v-8q0 -10 -10 -10h-15q-47 0 -66 22.5t-19 76.5v244l-41 -21q-10 -5 -10 6v12q0 9 10 14l41 21v297q0 10 10 10h10q10 0 10 -10v-282l70 36q10 5 10 -6v-12q0 -9 -10 -14z" />
    <glyph glyph-name="OE" unicode="&#x152;" horiz-adv-x="949" 
d="M511 0q-10 0 -10 10v106h-1q-27 -66 -79 -96t-120 -30q-163 0 -211 148q-4 11 -7.5 26.5t-6.5 39t-4.5 56.5t-1.5 80q0 46 1.5 79.5t4.5 57t6.5 39t7.5 26.5q48 148 211 148q68 0 120 -30t79 -96h1v106q0 10 10 10h374q10 0 10 -10v-9q0 -10 -10 -10h-347q-6 0 -6 -6
v-279q0 -6 6 -6h300q10 0 10 -10v-9q0 -10 -10 -10h-300q-6 0 -6 -6v-290q0 -6 6 -6h347q10 0 10 -10v-9q0 -10 -10 -10h-374zM301 19q139 0 181 127q3 10 6.5 24.5t6.5 37t4.5 55t1.5 77.5t-1.5 77.5t-4.5 55t-6.5 37t-6.5 24.5q-42 127 -181 127t-181 -127
q-3 -10 -6.5 -24.5t-6.5 -37t-4.5 -55t-1.5 -77.5t1.5 -77.5t4.5 -55t6.5 -37t6.5 -24.5q42 -127 181 -127z" />
    <glyph glyph-name="oe" unicode="&#x153;" horiz-adv-x="836" 
d="M595 -10q-64 0 -108.5 29.5t-64.5 88.5h-1q-19 -57 -63 -87.5t-107 -30.5t-107 31.5t-63 88.5q-8 23 -12 52.5t-4 74.5t4 74.5t12 52.5q19 57 63 88.5t107 31.5t107 -31t63 -88h1q20 58 63.5 88.5t103.5 30.5q61 0 104.5 -30t63.5 -90q7 -20 10.5 -46.5t3.5 -71.5
q0 -10 -11 -10h-317q-6 0 -6 -7q0 -40 3 -63.5t9 -43.5q18 -54 55.5 -79t90.5 -25q50 0 85.5 19.5t57.5 49.5q6 8 14 2l6 -5q7 -6 1 -14q-25 -35 -66 -57.5t-98 -22.5zM735 264q6 0 6 6q0 26 -3 46t-8 37q-17 52 -53 77.5t-88 25.5t-88 -25.5t-53 -77.5q-5 -17 -8 -37
t-3 -46q0 -6 6 -6h292zM251 18q52 0 89 26.5t53 75.5q7 21 10.5 48t3.5 69t-3.5 69t-10.5 48q-16 49 -53 75.5t-89 26.5t-89 -26.5t-53 -75.5q-7 -21 -10.5 -48t-3.5 -69t3.5 -69t10.5 -48q16 -49 53 -75.5t89 -26.5z" />
    <glyph glyph-name="Scaron" unicode="&#x160;" horiz-adv-x="600" 
d="M291 -10q-32 0 -63.5 6.5t-59.5 17t-51.5 23.5t-39.5 27q-8 7 -1 14l8 9q6 7 14 1q35 -27 87 -48t112 -21q91 0 143 43t52 116q0 28 -8.5 52.5t-28.5 44t-54 33t-86 20.5l-30 4q-102 14 -147 59t-45 114q0 88 56 136.5t150 48.5q54 0 102 -14.5t81 -37.5q9 -5 2 -14
l-7 -9q-6 -7 -14 -2q-81 48 -166 48q-83 0 -128 -42t-45 -111q0 -60 40 -98t138 -51l30 -4q102 -14 146.5 -58t44.5 -116q0 -85 -58.5 -138t-173.5 -53zM294 755q-8 0 -14 9l-87 121q-3 4 -2 7t6 3h8q8 0 16 -10l76 -98h2l76 98q5 6 8 8t8 2h8q5 0 6 -3t-2 -7l-87 -121
q-6 -9 -14 -9h-8z" />
    <glyph glyph-name="scaron" unicode="&#x161;" horiz-adv-x="475" 
d="M239 -10q-62 0 -107 21t-71 42q-7 7 0 14l7 7q6 6 14 0q29 -22 68.5 -39t93.5 -17q70 0 104.5 30t34.5 79q0 22 -5 38.5t-18.5 29t-37.5 20.5t-61 12l-47 5q-64 7 -99 36t-35 83q0 64 42.5 98.5t117.5 34.5q45 0 83 -12t65 -28q9 -5 2 -14l-4 -6q-5 -8 -14 -3
q-24 12 -60 23.5t-75 11.5q-63 0 -95 -27t-32 -75q0 -43 28 -65.5t95 -29.5l47 -5q133 -13 133 -122q0 -66 -44.5 -104t-129.5 -38zM235 560q-8 0 -14 9l-87 121q-3 4 -2 7t6 3h8q8 0 16 -10l76 -98h2l76 98q5 6 8 8t8 2h8q5 0 6 -3t-2 -7l-87 -121q-6 -9 -14 -9h-8z" />
    <glyph glyph-name="Ydieresis" unicode="&#x178;" horiz-adv-x="506" 
d="M248 0q-10 0 -10 10v269l-207 389q-2 5 0 8.5t7 3.5h12q10 0 15 -10l189 -352h2l185 352q5 10 15 10h12q5 0 7 -3.5t0 -8.5l-206 -389v-269q0 -10 -10 -10h-11zM341 795q-10 0 -10 10v40q0 10 10 10h24q10 0 10 -10v-40q0 -10 -10 -10h-24zM141 795q-10 0 -10 10v40
q0 10 10 10h24q10 0 10 -10v-40q0 -10 -10 -10h-24z" />
    <glyph glyph-name="Zcaron" unicode="&#x17d;" horiz-adv-x="543" 
d="M67 0q-10 0 -10 10v9q0 6 6 15l383 616v1h-365q-10 0 -10 10v9q0 10 10 10h394q10 0 10 -10v-9q0 -7 -5 -14l-384 -617v-1h379q10 0 10 -10v-9q0 -10 -10 -10h-408zM271 755q-8 0 -14 9l-87 121q-3 4 -2 7t6 3h8q8 0 16 -10l76 -98h2l76 98q5 6 8 8t8 2h8q5 0 6 -3t-2 -7
l-87 -121q-6 -9 -14 -9h-8z" />
    <glyph glyph-name="zcaron" unicode="&#x17e;" horiz-adv-x="460" 
d="M70 0q-10 0 -10 10v8q0 6 6 15l299 412v1h-282q-10 0 -10 10v8q0 10 10 10h309q10 0 10 -10v-8q0 -6 -6 -15l-299 -412v-1h295q10 0 10 -10v-8q0 -10 -10 -10h-322zM226 560q-8 0 -14 9l-87 121q-3 4 -2 7t6 3h8q8 0 16 -10l76 -98h2l76 98q5 6 8 8t8 2h8q5 0 6 -3t-2 -7
l-87 -121q-6 -9 -14 -9h-8z" />
    <glyph glyph-name="florin" unicode="&#x192;" 
d="M293 360l-63 -407q-6 -38 -16 -63.5t-26 -41t-39 -22t-54 -6.5h-17q-10 0 -10 10v8q0 10 10 10h25q44 0 65.5 22t30.5 80l64 410h-95q-10 0 -10 10v8q0 10 10 10h99l25 159q6 38 16 63.5t26 41t39 22t54 6.5h17q10 0 10 -10v-8q0 -10 -10 -10h-25q-44 0 -65.5 -22
t-30.5 -80l-25 -162h105q10 0 10 -10v-8q0 -10 -10 -10h-110z" />
    <glyph glyph-name="circumflex" unicode="&#x2c6;" horiz-adv-x="420" 
d="M303 560q-9 0 -16 10l-76 98h-2l-76 -98q-8 -10 -16 -10h-8q-5 0 -6 3t2 7l87 121q6 9 14 9h8q8 0 14 -9l87 -121q3 -4 2 -7t-6 -3h-8z" />
    <glyph glyph-name="caron" unicode="&#x2c7;" horiz-adv-x="420" 
d="M206 560q-8 0 -14 9l-87 121q-3 4 -2 7t6 3h8q8 0 16 -10l76 -98h2l76 98q5 6 8 8t8 2h8q5 0 6 -3t-2 -7l-87 -121q-6 -9 -14 -9h-8z" />
    <glyph glyph-name="breve" unicode="&#x2d8;" horiz-adv-x="420" 
d="M210 579q-46 0 -77 26t-39 68q-2 10 9 10h7q8 0 11 -10q19 -67 89 -67q71 0 90 67q3 10 11 10h6q11 0 9 -10q-8 -42 -39 -68t-77 -26z" />
    <glyph glyph-name="dotaccent" unicode="&#x2d9;" horiz-adv-x="420" 
d="M198 620q-10 0 -10 10v40q0 10 10 10h24q10 0 10 -10v-40q0 -10 -10 -10h-24z" />
    <glyph glyph-name="ring" unicode="&#x2da;" horiz-adv-x="420" 
d="M210 546q-36 0 -59.5 23.5t-23.5 59.5t23.5 59.5t59.5 23.5t59.5 -23.5t23.5 -59.5t-23.5 -59.5t-59.5 -23.5zM210 572q25 0 40.5 16t15.5 41t-15.5 41t-40.5 16t-40.5 -16t-15.5 -41t15.5 -41t40.5 -16z" />
    <glyph glyph-name="ogonek" unicode="&#x2db;" horiz-adv-x="420" 
d="M215 -162q-28 0 -43.5 15t-15.5 42q0 22 15 46t59 59q8 6 13 8t10 2h14q5 0 5.5 -4t-3.5 -6q-28 -22 -44.5 -38t-25 -28t-11 -20.5t-2.5 -16.5q0 -31 31 -31q8 0 15 3t15 8q9 5 14 -3l3 -5q5 -8 -3 -14q-7 -6 -19.5 -11.5t-26.5 -5.5z" />
    <glyph glyph-name="tilde" unicode="&#x2dc;" horiz-adv-x="420" 
d="M261 613q-17 0 -31 6.5t-26 14.5q-11 7 -22 12.5t-24 5.5q-15 0 -28 -9t-27 -25q-3 -3 -5.5 -2t-2.5 5v15q0 7 7 14q11 12 25.5 20t31.5 8t31.5 -6.5t25.5 -14.5t22 -13t24 -5q15 0 28 9t27 25q3 3 5.5 2t2.5 -5v-15q0 -4 -1 -6.5t-6 -7.5q-11 -12 -25.5 -20t-31.5 -8z
" />
    <glyph glyph-name="hungarumlaut" unicode="&#x2dd;" horiz-adv-x="420" 
d="M219 560q-10 0 -5 10l68 120q6 10 16 10h13q5 0 6 -3t-1 -7l-76 -122q-3 -5 -5.5 -6.5t-8.5 -1.5h-7zM109 560q-10 0 -5 10l68 120q6 10 16 10h13q5 0 6 -3t-1 -7l-76 -122q-3 -5 -5.5 -6.5t-8.5 -1.5h-7z" />
    <glyph glyph-name="pi" unicode="&#x3c0;" horiz-adv-x="547" 
d="M459 -6q-29 0 -41 14t-12 43v389q0 6 -6 6h-253q-6 0 -6 -6v-430q0 -10 -10 -10h-10q-10 0 -10 10v430q0 6 -8 6h-33q-10 0 -10 10v8q0 10 10 10h407q10 0 10 -10v-8q0 -10 -10 -10h-35q-6 0 -6 -6v-389q0 -29 23 -29h7q10 0 10 -10v-8q0 -10 -10 -10h-7z" />
    <glyph glyph-name="aComma" unicode="&#x60c;" horiz-adv-x="218" 
d="M128 9q0 -9 -9 -9h-22q-9 0 -9 9v58q0 8 1 12t3 11l21 74q1 7 9 7q6 0 6 -7v-155v0z" />
    <glyph glyph-name="aTahabove" unicode="&#x615;" horiz-adv-x="0" 
d="M-88 526q8 0 9.5 6t1.5 14v173q0 6 5 6h12q5 0 5 -6v-98q14 7 34.5 13.5t39.5 6.5q40 0 58.5 -19.5t18.5 -54.5q0 -33 -12.5 -47t-44.5 -14h-139q-6 0 -6 6v8q0 6 6 6h12zM19 619q-23 0 -40 -5.5t-34 -13.5v-49q0 -4 -1 -12.5t-3 -12.5h97q21 0 29 7.5t8 33.5
q0 23 -14 37.5t-42 14.5z" />
    <glyph glyph-name="aSemicolon" unicode="&#x61b;" horiz-adv-x="204" 
d="M78 60q0 10 10 10h28q10 0 10 -10v-50q0 -10 -10 -10h-28q-10 0 -10 10v50zM122 243q0 -9 -9 -9h-22q-9 0 -9 9v58q0 8 1 12t3 11l21 74q1 7 9 7q6 0 6 -7v-155v0z" />
    <glyph glyph-name="aQuestion" unicode="&#x61f;" horiz-adv-x="496" 
d="M257 138q0 -9 -9 -9h-11q-9 0 -9 9v23q0 16 -1.5 28t-5.5 23.5t-11.5 23.5t-19.5 27l-45 56q-18 23 -31.5 42.5t-21.5 38t-12 37.5t-4 40q0 34 11.5 63.5t33 51.5t52 34t67.5 12q35 0 64 -11.5t51 -32t35.5 -48t18.5 -59.5q2 -9 -7 -10l-9 -2q-9 -1 -11 7
q-11 63 -48 96.5t-94 33.5t-96.5 -34.5t-39.5 -100.5q0 -19 2.5 -35t10.5 -33.5t22 -39t37 -49.5l45 -56q20 -25 28 -49.5t8 -53.5v-23zM220 59q0 9 9 9h29q9 0 9 -9v-50q0 -9 -9 -9h-29q-9 0 -9 9v50z" />
    <glyph glyph-name="aKashida" unicode="&#x640;" horiz-adv-x="92" 
d="M0 0q-20 0 -25.5 3t-5.5 11t5.5 12t25.5 4h92q20 0 28 -3.5t8 -11.5q0 -9 -8 -12t-28 -3h-92z" />
    <glyph glyph-name="aHeh" unicode="&#x647;" horiz-adv-x="435" 
d="M210 22q71 0 103 45.5t32 133.5q0 41 -7.5 75t-24 58t-42 37.5t-61.5 13.5q-70 0 -102 -50t-32 -134q0 -88 31 -133.5t103 -45.5zM210 -7q-44 0 -75 14.5t-51 40t-29 61t-9 78.5q0 105 39 166.5t125 61.5q88 0 126.5 -55.5t38.5 -152.5q0 -112 -41 -163t-124 -51z" />
    <glyph glyph-name="aFathatan" unicode="&#x64b;" horiz-adv-x="0" 
d="M-128 753q-9 0 -9 9v8q0 9 9 9h256q9 0 9 -9v-8q0 -9 -9 -9h-256zM-128 830q-9 0 -9 10v8q0 9 9 9h256q9 0 9 -9v-8q0 -10 -9 -10h-256z" />
    <glyph glyph-name="aDammatan" unicode="&#x64c;" horiz-adv-x="0" 
d="M-144 875q-9 0 -9 9v10q0 9 9 9q34 0 55 -20t21 -67q0 -28 16 -34t48 -6q24 0 40.5 5t26 12.5t14 16t6.5 14.5h-38q-32 0 -50.5 18t-18.5 47q0 34 20.5 53t49.5 19q31 0 52 -20t21 -68q0 -35 -9 -58.5t-25.5 -38.5t-39 -21.5t-49.5 -6.5q-20 0 -36.5 2t-29 9.5
t-19.5 20.5t-7 36q0 32 -11 45.5t-31 13.5h-6zM88 852q2 5 2.5 11t0.5 10q0 30 -12.5 46t-32.5 16q-22 0 -32 -15t-10 -31q0 -23 15 -30t31 -7h38z" />
    <glyph glyph-name="aKasratan" unicode="&#x64d;" horiz-adv-x="0" 
d="M-128 -197q-9 0 -9 9v8q0 9 9 9h256q9 0 9 -9v-8q0 -9 -9 -9h-256zM-128 -119q-9 0 -9 9v8q0 9 9 9h256q9 0 9 -9v-8q0 -9 -9 -9h-256z" />
    <glyph glyph-name="aFatha" unicode="&#x64e;" horiz-adv-x="0" 
d="M-128 753q-9 0 -9 9v8q0 9 9 9h256q9 0 9 -9v-8q0 -9 -9 -9h-256z" />
    <glyph glyph-name="aDamma" unicode="&#x64f;" horiz-adv-x="0" 
d="M43 850q1 5 1 11.5v11.5q0 30 -11.5 45t-31.5 15q-22 0 -33 -13.5t-11 -30.5q0 -23 14.5 -31t33.5 -8h38zM-49 774q24 0 40.5 4.5t26.5 12t15 16.5t7 17h-40q-33 0 -51.5 17.5t-18.5 47.5q0 29 20.5 50.5t50.5 21.5q29 0 50.5 -21t21.5 -67q0 -36 -8 -60.5t-24 -39.5
t-38.5 -21t-51.5 -6h-28q-9 0 -9 9v10q0 9 9 9h28z" />
    <glyph glyph-name="aKasra" unicode="&#x650;" horiz-adv-x="0" 
d="M-128 -119q-9 0 -9 9v8q0 9 9 9h256q9 0 9 -9v-8q0 -9 -9 -9h-256z" />
    <glyph glyph-name="aShadda" unicode="&#x651;" horiz-adv-x="0" 
d="M-115 889q0 9 10 9h6q9 0 9 -9v-75q0 -20 8.5 -30.5t28.5 -10.5q40 0 40 37v79q0 9 9 9h7q9 0 9 -9v-79q0 -37 42 -37q21 0 28.5 10.5t7.5 30.5v75q0 9 9 9h6q10 0 10 -9v-72q0 -35 -14 -52.5t-47 -17.5q-17 0 -31 5.5t-23 18.5q-9 -12 -23 -18t-30 -6q-29 0 -45.5 15.5
t-16.5 50.5v76z" />
    <glyph glyph-name="aSukun" unicode="&#x652;" horiz-adv-x="0" 
d="M-76 828q0 35 22.5 55.5t53.5 20.5t53 -21t22 -55t-22 -55t-53 -21t-53.5 20.5t-22.5 55.5zM-45 829q0 -21 13 -33t32 -12t32 12t13 33q0 20 -12.5 33t-32.5 13q-21 0 -33 -13t-12 -33z" />
    <glyph glyph-name="aMadda" unicode="&#x653;" horiz-adv-x="0" 
d="M-181 783q5 17 14 26.5t18.5 14.5t19 6.5t16.5 1.5q26 0 50.5 -9t49 -20t50 -20t52.5 -9q21 0 30.5 7t9.5 30q0 9 9 9h10q9 0 9 -9q0 -38 -20 -51t-48 -13q-27 0 -53 9t-51 20t-49.5 20t-48.5 9q-15 0 -25.5 -6.5t-16.5 -23.5q-2 -8 -8 -6l-15 5q-5 2 -3 9z" />
    <glyph glyph-name="aHamzaabove" unicode="&#x654;" horiz-adv-x="0" 
d="M-54 763q-8 14 -14.5 30t-6.5 41q0 11 4 26.5t14 30t27.5 24.5t45.5 10q23 0 42.5 -10t32.5 -27q3 -3 -1 -7l-11 -10q-6 -2 -9 2q-13 14 -25.5 20.5t-30.5 6.5q-29 0 -45.5 -18.5t-16.5 -47.5q0 -26 9 -43t20 -28h113q5 0 5 -6v-14q0 -6 -5 -6h-188q-5 0 -5 6v14q0 6 5 6
h40z" />
    <glyph glyph-name="aHamzabelow" unicode="&#x655;" horiz-adv-x="0" 
d="M-54 -235q-8 14 -14.5 30t-6.5 41q0 10 4 26t14 30t27.5 24.5t45.5 10.5q23 0 42.5 -10t32.5 -27q3 -3 -1 -7l-11 -11q-6 -2 -9 2q-13 14 -25.5 21t-30.5 7q-29 0 -45.5 -19t-16.5 -47q0 -26 9 -43t20 -28h113q5 0 5 -6v-14q0 -6 -5 -6h-188q-5 0 -5 6v14q0 6 5 6h40z
" />
    <glyph glyph-name="aAlifbelow" unicode="&#x656;" horiz-adv-x="0" 
d="M14 -240q0 -9 -9 -9h-12q-9 0 -9 9v125q0 9 9 9h12q9 0 9 -9v-125z" />
    <glyph glyph-name="aNasalnun" unicode="&#x658;" horiz-adv-x="0" 
d="M-85 882q0 9 9 9h14q9 0 9 -9v-49q0 -28 14 -42t39 -14q52 0 52 56v49q0 9 9 9h14q9 0 9 -9v-49q0 -24 -7 -40.5t-19 -27t-27 -15t-31 -4.5t-31.5 4.5t-27.5 15t-19 27t-7 40.5v49z" />
    <glyph glyph-name="aZero" unicode="&#x660;" horiz-adv-x="368" 
d="M201 162q-8 -10 -18 -8.5t-17 8.5l-28 29q-19 15 0 34l28 28q7 6 15 8t18 -7l31 -29q10 -9 8.5 -18t-8.5 -17z" />
    <glyph glyph-name="aOne" unicode="&#x661;" horiz-adv-x="368" 
d="M199 9q0 -9 -9 -9h-12q-9 0 -9 9v587q0 10 9 10h12q9 0 9 -10v-587z" />
    <glyph glyph-name="aTwo" unicode="&#x662;" horiz-adv-x="368" 
d="M101 497q0 58 30 83.5t81 25.5h114q9 0 9 -10v-12q0 -9 -9 -9h-118q-42 0 -59.5 -20t-17.5 -59v-487q0 -9 -9 -9h-12q-9 0 -9 9v488z" />
    <glyph glyph-name="aThree" unicode="&#x663;" horiz-adv-x="368" 
d="M89 435h100v114q0 9 9 9h13q9 0 9 -9v-114h29q38 0 52.5 15.5t14.5 47.5v98q0 10 9 10h12q9 0 9 -10v-95q0 -29 -7 -47.5t-20.5 -29.5t-33.5 -15t-45 -4h-151v-396q0 -9 -9 -9h-12q-9 0 -9 9v587q0 10 9 10h12q9 0 9 -10v-161z" />
    <glyph glyph-name="aFour" unicode="&#x664;" horiz-adv-x="368" 
d="M318 30q9 0 9 -9v-12q0 -9 -9 -9h-102q-32 0 -59.5 8t-48.5 26t-33 47.5t-12 73.5q0 19 4 41.5t15 44.5t31.5 42t52.5 34q-37 22 -55 58.5t-18 75.5q0 73 43.5 114t118.5 41h23q9 0 9 -10v-12q0 -9 -9 -9h-24q-63 0 -97 -31.5t-34 -90.5q0 -58 35.5 -92.5t95.5 -34.5h23
q9 0 9 -9v-12q0 -9 -9 -9h-52q-26 0 -50 -8t-42 -25t-29 -43t-11 -61q0 -64 30.5 -96.5t107.5 -32.5h87z" />
    <glyph glyph-name="aFive" unicode="&#x665;" horiz-adv-x="368" 
d="M181 0q-27 0 -54 6t-48.5 25t-34.5 55.5t-13 96.5v121q0 90 12 148.5t32.5 93t48.5 48.5t60 14q30 0 57.5 -13.5t48.5 -48t33.5 -94t12.5 -152.5v-116q0 -57 -12 -93t-32.5 -56t-49 -27.5t-61.5 -7.5zM183 30q27 0 49.5 6t39 23.5t25.5 49t9 82.5v108q0 148 -31 213
t-92 65q-29 0 -51.5 -14.5t-38 -46.5t-24 -84.5t-8.5 -127.5v-112q0 -51 9 -83t25 -49.5t38.5 -23.5t49.5 -6z" />
    <glyph glyph-name="aSix" unicode="&#x666;" horiz-adv-x="368" 
d="M54 575q-9 0 -9 9v12q0 10 9 10h143q53 0 74.5 -22.5t21.5 -78.5v-496q0 -9 -9 -9h-12q-9 0 -9 9v495q0 32 -12.5 51.5t-50.5 19.5h-146z" />
    <glyph glyph-name="aSeven" unicode="&#x667;" horiz-adv-x="368" 
d="M321 605q2 3 5 5.5t6 0.5l13 -3q10 -3 8 -11l-161 -595q-1 -3 -2.5 -5t-6.5 -2t-6 2t-2 5l-159 595q-2 8 8 11l13 3q3 2 6 -0.5t5 -5.5l136 -524z" />
    <glyph glyph-name="aEight" unicode="&#x668;" horiz-adv-x="368" 
d="M48 2q-2 -3 -5 -5.5t-6 -0.5l-13 3q-10 3 -8 10l160 596q1 3 2.5 5t6.5 2t6 -2t2 -5l160 -596q2 -7 -8 -10l-13 -3q-3 -2 -6 0.5t-5 5.5l-137 523z" />
    <glyph glyph-name="aNine" unicode="&#x669;" horiz-adv-x="368" 
d="M186 295q-66 0 -103.5 36.5t-37.5 111.5q0 25 6.5 53.5t22.5 53t42.5 40.5t65.5 16q37 0 61.5 -13.5t39 -35t20 -48t5.5 -51.5v-449q0 -9 -9 -9h-12q-9 0 -9 9v286h-92zM278 325v127q0 121 -98 121q-48 0 -76.5 -34.5t-28.5 -95.5q0 -66 32 -92t85 -26h86z" />
    <glyph glyph-name="aPercent" unicode="&#x66a;" horiz-adv-x="660" 
d="M492 621q2 4 4.5 7t7.5 3h29q10 0 6 -9v1l-388 -625q-2 -4 -4.5 -7t-7.5 -3h-28q-10 0 -6 8zM210 493q-8 -9 -17.5 -8t-15.5 8l-27 28q-15 15 0 32l27 27q6 6 14 8t17 -7l29 -28q9 -8 7.5 -17t-7.5 -16zM465 35q-8 -9 -17.5 -8t-15.5 8l-27 28q-15 15 0 32l27 28
q6 6 14 8t17 -7l29 -29q9 -8 7.5 -17t-7.5 -16z" />
    <glyph glyph-name="aDecimal" unicode="&#x66b;" horiz-adv-x="218" 
d="M87 59q0 9 9 9h22q9 0 9 -9v-58q0 -8 -1 -12t-3 -11l-21 -73q-1 -7 -9 -7q-6 0 -6 7v154v0z" />
    <glyph glyph-name="aThousands" unicode="&#x66c;" horiz-adv-x="230" 
d="M87 193q0 9 9 9h22q9 0 9 -9v-58q0 -8 -1 -12t-3 -11l-21 -73q-1 -7 -9 -7q-6 0 -6 7v154v0z" />
    </font>
</defs>
</svg>
