<svg id="Delivery-bro" xmlns="http://www.w3.org/2000/svg" xmlns:xlink="http://www.w3.org/1999/xlink" width="224.618" height="153.112" viewBox="0 0 224.618 153.112">
  <defs>
    <linearGradient id="linear-gradient" x1="0.168" y1="-0.108" x2="0.9" y2="1.761" gradientUnits="objectBoundingBox">
      <stop offset="0" stop-color="#5cd5c4"/>
      <stop offset="1" stop-color="#27bee1"/>
    </linearGradient>
    <clipPath id="clip-path">
      <path id="Path_350" data-name="Path 350" d="M243.286,190.752s3.072,25.342,3.072,26.469-2.815,1.688-2.815,3.093a12.635,12.635,0,0,1-.7,3.376s-.561.566-.561,1.011.985.283,1.829-.136,1.122-1.971,1.122-1.971a25.031,25.031,0,0,0-.419,2.815l-.561.561s-1.688,1.546-.566,1.688,6.332-1.829,6.615-3.093-.707-7.317-.707-7.317,4.083-28.556,4.083-31.229a3.75,3.75,0,0,0-2.254-3.537" transform="translate(-242.28 -182.48)" fill="#fff" stroke="#263238" stroke-linecap="round" stroke-linejoin="round" stroke-width="0.835"/>
    </clipPath>
    <clipPath id="clip-path-2">
      <path id="Path_358" data-name="Path 358" d="M126.545,173.22s-1.854,4.376-1.011,5.053,1.344,1.011,1.344,1.011.505,5.887,1.344,6.9,6.226-.672,6.226-.672,10.92,10.93,11.274,8.909-1.011-9.6-1.011-10.43-2.355-3.032-2.355-3.032" transform="translate(-125.314 -173.22)" fill="none" stroke="#263238" stroke-linecap="round" stroke-linejoin="round" stroke-width="0.835"/>
    </clipPath>
    <clipPath id="clip-path-3">
      <path id="Path_377" data-name="Path 377" d="M229.463,137.081l.945.364,13.482,2.466a9.539,9.539,0,0,1,2.971,2.39c.773,1.233.076,5.73.076,5.73l-1.41,10.581,2.259,18.97-3.941,2.956.152,1.875c.106.03-.025,2.5-5.872,3.537,0,0-1.213.606-1.566.339-.894-.672-.177-.616-.177-.616l-2.365,1.516a8.515,8.515,0,0,1-.374,3.537,6.417,6.417,0,0,1-1.041,2.415l1.076,18.8,2.592,3.694,33.856,20.551h62.417V98.5H228.7v38.293Z" transform="translate(-228.7 -98.5)" fill="none"/>
    </clipPath>
    <clipPath id="clip-path-4">
      <path id="Path_380" data-name="Path 380" d="M146.353,211.7s-5.907,4.785-5.907,6.064-.424,25.039-.141,25.6,11.42-7.186,11.42-7.186L150.6,225.91" transform="translate(-140.207 -211.7)" fill="none" stroke="#263238" stroke-linecap="round" stroke-linejoin="round" stroke-width="0.835"/>
    </clipPath>
    <clipPath id="clip-path-5">
      <path id="Path_383" data-name="Path 383" d="M170.62,181.211s11.6-11.021,13-11.021,24.614,4.639,26.3,4.922,4.5.844,4.5.844-4.922,6.19-6.61,8.3-2.527,3.376-2.527,3.376l-18.99-8.717" transform="translate(-170.62 -170.19)" fill="none" stroke="#263238" stroke-linecap="round" stroke-linejoin="round" stroke-width="0.835"/>
    </clipPath>
    <clipPath id="clip-path-6">
      <path id="Path_391" data-name="Path 391" d="M155.637,247.563l16.883-7.878,1.4-4.922,5.766-1.253s1.127-1.127.985,0-1.688,1.546-2.249,2.673-.566,3.376-1.268,4.361-3.234,2.112-3.234,2.112-18.99,15.892-20.395,16.736-4.219-7.176-4.219-7.176" transform="translate(-149.31 -233.009)" fill="#fff" stroke="#263238" stroke-linecap="round" stroke-linejoin="round" stroke-width="0.835"/>
    </clipPath>
  </defs>
  <g id="freepik--background-simple--inject-1--inject-6" transform="translate(8.672 90.538)">
    <path id="Path_315" data-name="Path 315" d="M44.9,327.111H256.78s-5.114-10.223-11.759-13.548-10.223,3.325-18.4-1.278-6.387-15.331-15.589-21.729-18.914.768-27.348.258-10.991-11.759-20.213-13.037-8.949,9.364-17.383,12.527-14.25-1.986-20.188-1.789-4.856,3.83-10.48,6.387-6.645,1.278-17.378,2.3-13.29,12.011-17.125,15.079-8.944-1.789-16.868,0S44.9,327.111,44.9,327.111Z" transform="translate(-44.9 -277.67)" fill="#5cd5c4"/>
    <g id="Group_465" data-name="Group 465" transform="translate(0 0)" opacity="0.8">
      <path id="Path_316" data-name="Path 316" d="M44.9,327.111H256.78s-5.114-10.223-11.759-13.548-10.223,3.325-18.4-1.278-6.387-15.331-15.589-21.729-18.914.768-27.348.258-10.991-11.759-20.213-13.037-8.949,9.364-17.383,12.527-14.25-1.986-20.188-1.789-4.856,3.83-10.48,6.387-6.645,1.278-17.378,2.3-13.29,12.011-17.125,15.079-8.944-1.789-16.868,0S44.9,327.111,44.9,327.111Z" transform="translate(-44.9 -277.67)" fill="#fff"/>
    </g>
  </g>
  <g id="freepik--Plants--inject-1--inject-6" transform="translate(0 86.626)">
    <path id="Path_317" data-name="Path 317" d="M387.771,297.8c.4,2.117,5.195,9.015,6.963,12.9-.409-.505-.884-1.1-1.354-1.652-.369-.642-.7-1.359-1.066-1.91-.571-.854-1.172-1.688-1.824-2.481a20.589,20.589,0,0,0-3.406-3.391,9.672,9.672,0,0,0-5.114-2.127c-.505-.035-3.391-.253-2.719.91a1.344,1.344,0,0,0,.48.424,51.113,51.113,0,0,0,5.6,2.527c2.8,1.309,6.5,4.8,8.04,6.311l.783,1.036c-2.754-2.567-7.251-4.043-8.793-3.32-1.905.869,2.193,1.759,5.67,2.658a9.843,9.843,0,0,1,4.214,2.117c.667.9,1.42,1.91,2.173,2.946.091.162.182.313.273.465a10.6,10.6,0,0,0-1.8-1.657c-1.779-1.218-6.675-1.956-7.191-.308s2.956.894,5.943,1.369a8.015,8.015,0,0,1,4.255,2.259l.2.212c.339.505.662.945.965,1.39.712,1.041,1.39,2.021,2.021,2.966a17,17,0,0,0-3.537-3.451c-2.607-1.789-6.089-2.168-7.358-1.208s4.583,1.829,7.459,2.84a10.4,10.4,0,0,1,4.265,3.032c.945,1.339,1.88,2.643,2.885,4.007a39.451,39.451,0,0,0-5.129-3.845c-2.946-1.93-6-1.668-6.812-.505s1.678,1.238,6.311,2.234a14.286,14.286,0,0,1,6.569,3.335l1.329,1.769a25.015,25.015,0,0,0,1.779,2.1c-.783-.354-1.94-.859-3.224-1.41a30.082,30.082,0,0,1-4.149-2.092c-1.516-.95-3.578-1.956-5.392-1.147a1.011,1.011,0,0,0-.6,1.4,1.926,1.926,0,0,0,.894.829c2.021,1.107,4.512,1.4,6.721,1.89a47.2,47.2,0,0,0,6.15.955c.6.632,1.228,1.253,1.849,1.839l-.93.172c-1.1.207-6.443-1.273-9.1-1.6s-4.8,1.415-1.92,2.426,10.051-.435,10.051-.435l2.072-.389c2.461,2.319,4.74,4.093,4.74,4.093l.96-.647s-1.986-.546-5.321-3.7a8.679,8.679,0,0,1-.03-1.88c.212-3.537,3.128-7.529.889-10.95-.541-.829-1.708-1.283-2.355-.374a3.6,3.6,0,0,0-.293,2.527c.505,2.5,1.288,4.72,1.1,7.327,0,.116,0,1.865.121,2.815-.455-.45-.925-.94-1.42-1.481a19.767,19.767,0,0,1-.98-3.032c-.642-2.754,0-5.675-.46-8.479-.147-.859-1.486-2.9-2.143-1.127-.288.783.081,2.269.131,3.1a21.624,21.624,0,0,0,1.314,7.029l-.4-.505a43.628,43.628,0,0,1-1.86-6.756c-.712-3.795-.591-7.024-1.814-8.035s-1.157,3.214,0,7.656a18.948,18.948,0,0,0,2.552,5.69c-1.3-1.668-2.6-3.381-3.84-5.053a14.118,14.118,0,0,1-2.1-6.023c-.217-3.37-.419-6.125-1.976-7.8s-1.627-.419-.4,3.386a68,68,0,0,0,3.032,8.474c-.965-1.309-1.87-2.552-2.683-3.679a29,29,0,0,1-2.264-6.791c-.505-3.315-1.152-5.053-2.021-4.174-.6.617.505,4.639,2.117,7.913-.682-.965-1.193-1.708-1.516-2.148q-.2-.3-.455-.637a65.476,65.476,0,0,0-2.855-7.853C390.1,298.613,387.341,295.5,387.771,297.8Z" transform="translate(-201.575 -283.331)" fill="#5cd5c4"/>
    <g id="Group_466" data-name="Group 466" transform="translate(177.575 13.692)" opacity="0.6">
      <path id="Path_318" data-name="Path 318" d="M387.771,297.8c.4,2.117,5.195,9.015,6.963,12.9-.409-.505-.884-1.1-1.354-1.652-.369-.642-.7-1.359-1.066-1.91-.571-.854-1.172-1.688-1.824-2.481a20.589,20.589,0,0,0-3.406-3.391,9.672,9.672,0,0,0-5.114-2.127c-.505-.035-3.391-.253-2.719.91a1.344,1.344,0,0,0,.48.424,51.113,51.113,0,0,0,5.6,2.527c2.8,1.309,6.5,4.8,8.04,6.311l.783,1.036c-2.754-2.567-7.251-4.043-8.793-3.32-1.905.869,2.193,1.759,5.67,2.658a9.843,9.843,0,0,1,4.214,2.117c.667.9,1.42,1.91,2.173,2.946.091.162.182.313.273.465a10.6,10.6,0,0,0-1.8-1.657c-1.779-1.218-6.675-1.956-7.191-.308s2.956.894,5.943,1.369a8.015,8.015,0,0,1,4.255,2.259l.2.212c.339.505.662.945.965,1.39.712,1.041,1.39,2.021,2.021,2.966a17,17,0,0,0-3.537-3.451c-2.607-1.789-6.089-2.168-7.358-1.208s4.583,1.829,7.459,2.84a10.4,10.4,0,0,1,4.265,3.032c.945,1.339,1.88,2.643,2.885,4.007a39.451,39.451,0,0,0-5.129-3.845c-2.946-1.93-6-1.668-6.812-.505s1.678,1.238,6.311,2.234a14.286,14.286,0,0,1,6.569,3.335l1.329,1.769a25.015,25.015,0,0,0,1.779,2.1c-.783-.354-1.94-.859-3.224-1.41a30.082,30.082,0,0,1-4.149-2.092c-1.516-.95-3.578-1.956-5.392-1.147a1.011,1.011,0,0,0-.6,1.4,1.926,1.926,0,0,0,.894.829c2.021,1.107,4.512,1.4,6.721,1.89a47.2,47.2,0,0,0,6.15.955c.6.632,1.228,1.253,1.849,1.839l-.93.172c-1.1.207-6.443-1.273-9.1-1.6s-4.8,1.415-1.92,2.426,10.051-.435,10.051-.435l2.072-.389c2.461,2.319,4.74,4.093,4.74,4.093l.96-.647s-1.986-.546-5.321-3.7a8.679,8.679,0,0,1-.03-1.88c.212-3.537,3.128-7.529.889-10.95-.541-.829-1.708-1.283-2.355-.374a3.6,3.6,0,0,0-.293,2.527c.505,2.5,1.288,4.72,1.1,7.327,0,.116,0,1.865.121,2.815-.455-.45-.925-.94-1.42-1.481a19.767,19.767,0,0,1-.98-3.032c-.642-2.754,0-5.675-.46-8.479-.147-.859-1.486-2.9-2.143-1.127-.288.783.081,2.269.131,3.1a21.624,21.624,0,0,0,1.314,7.029l-.4-.505a43.628,43.628,0,0,1-1.86-6.756c-.712-3.795-.591-7.024-1.814-8.035s-1.157,3.214,0,7.656a18.948,18.948,0,0,0,2.552,5.69c-1.3-1.668-2.6-3.381-3.84-5.053a14.118,14.118,0,0,1-2.1-6.023c-.217-3.37-.419-6.125-1.976-7.8s-1.627-.419-.4,3.386a68,68,0,0,0,3.032,8.474c-.965-1.309-1.87-2.552-2.683-3.679a29,29,0,0,1-2.264-6.791c-.505-3.315-1.152-5.053-2.021-4.174-.6.617.505,4.639,2.117,7.913-.682-.965-1.193-1.708-1.516-2.148q-.2-.3-.455-.637a65.476,65.476,0,0,0-2.855-7.853C390.1,298.613,387.341,295.5,387.771,297.8Z" transform="translate(-379.15 -297.023)" fill="#fff"/>
    </g>
    <path id="Path_319" data-name="Path 319" d="M450.378,274.552c-1.172,1.8-2.456,10.106-3.851,14.149.071-.667.121-1.4.157-2.127.177-.718.434-1.46.551-2.122.172-1.011.308-2.021.389-3.032a20.391,20.391,0,0,0-.131-4.806,9.7,9.7,0,0,0-2.239-5.053c-.318-.359-2.279-2.527-2.592-1.218a1.3,1.3,0,0,0,.056.637,52.237,52.237,0,0,0,2.3,5.71c1.122,2.88,1.395,7.954,1.465,10.106-.04.349-.091.788-.147,1.289-.222-3.755-2.476-7.918-4.078-8.469-1.981-.677.374,2.789,2.274,5.836a9.878,9.878,0,0,1,1.592,4.437c-.136,1.117-.293,2.365-.46,3.633-.045.182-.086.354-.121.531a10.764,10.764,0,0,0-.162-2.446c-.45-2.107-3.487-6.018-5-5.18s1.516,2.688,3.36,5.089a7.984,7.984,0,0,1,1.516,4.573v.288c-.086.581-.172,1.142-.258,1.673-.2,1.243-.384,2.415-.561,3.537a17.178,17.178,0,0,0-.172-4.932c-.662-3.093-2.921-5.771-4.5-5.948s2.057,4.482,3.446,7.2a10.323,10.323,0,0,1,1.011,5.124c-.238,1.617-.46,3.209-.672,4.891a40.165,40.165,0,0,0-1.061-6.327c-.8-3.426-3.2-5.346-4.6-5.053s.364,2.052,3.032,5.968a14.286,14.286,0,0,1,2.446,6.933c-.086.707-.172,1.435-.258,2.193-.1.864-.147,1.8-.157,2.749-.328-.8-.814-1.966-1.364-3.244a30.289,30.289,0,0,1-1.561-4.376c-.455-1.743-1.243-3.886-3.113-4.548a1.011,1.011,0,0,0-1.4.606,1.941,1.941,0,0,0,.071,1.218c.687,2.183,2.3,4.123,3.562,6a47.923,47.923,0,0,0,3.8,4.932c0,.874.025,1.753.071,2.607l-.793-.505c-.94-.606-3.785-5.366-5.478-7.428s-4.452-2.289-3.067.43,7.58,6.615,7.58,6.615l1.769,1.152c.187,3.376.611,6.231.611,6.231l1.142.192s-1.061-1.764-1.3-6.342a8.5,8.5,0,0,1,1.278-1.384c2.587-2.415,7.453-3.295,8.191-7.322.177-.97-.349-2.1-1.45-1.89a3.6,3.6,0,0,0-1.94,1.617c-1.369,2.148-2.324,4.305-4.255,6.064-.086.081-1.284,1.354-1.855,2.122,0-.637-.025-1.319,0-2.052a20.118,20.118,0,0,1,1.385-2.88c1.435-2.436,3.916-4.1,5.513-6.458.505-.723.92-3.118-.773-2.289-.753.369-1.516,1.7-2.021,2.335a22.284,22.284,0,0,0-3.9,6c0-.212.04-.424.056-.637a43.962,43.962,0,0,1,3.315-6.175c2.1-3.239,4.411-5.5,4.224-7.074s-3.032,1.516-5.291,5.559a18.965,18.965,0,0,0-2.072,5.882c.207-2.112.445-4.245.687-6.3a14,14,0,0,1,2.638-5.806c2.163-2.592,3.916-4.725,3.941-7.009s-.889-1.43-2.623,2.173a70.881,70.881,0,0,0-3.659,8.221c.207-1.612.409-3.138.6-4.512a28,28,0,0,1,3.032-6.478c1.91-2.759,2.648-4.462,1.41-4.416-.859.03-2.85,3.689-3.921,7.186.172-1.167.313-2.057.4-2.582q.061-.354.106-.773a66.326,66.326,0,0,0,3.325-7.7C451.5,276.735,451.651,272.592,450.378,274.552Z" transform="translate(-228.365 -269.927)" fill="#5cd5c4"/>
    <g id="Group_467" data-name="Group 467" transform="translate(204.941 0)" opacity="0.6">
      <path id="Path_320" data-name="Path 320" d="M450.378,274.552c-1.172,1.8-2.456,10.106-3.851,14.149.071-.667.121-1.4.157-2.127.177-.718.434-1.46.551-2.122.172-1.011.308-2.021.389-3.032a20.391,20.391,0,0,0-.131-4.806,9.7,9.7,0,0,0-2.239-5.053c-.318-.359-2.279-2.527-2.592-1.218a1.3,1.3,0,0,0,.056.637,52.237,52.237,0,0,0,2.3,5.71c1.122,2.88,1.395,7.954,1.465,10.106-.04.349-.091.788-.147,1.289-.222-3.755-2.476-7.918-4.078-8.469-1.981-.677.374,2.789,2.274,5.836a9.878,9.878,0,0,1,1.592,4.437c-.136,1.117-.293,2.365-.46,3.633-.045.182-.086.354-.121.531a10.764,10.764,0,0,0-.162-2.446c-.45-2.107-3.487-6.018-5-5.18s1.516,2.688,3.36,5.089a7.984,7.984,0,0,1,1.516,4.573v.288c-.086.581-.172,1.142-.258,1.673-.2,1.243-.384,2.415-.561,3.537a17.178,17.178,0,0,0-.172-4.932c-.662-3.093-2.921-5.771-4.5-5.948s2.057,4.482,3.446,7.2a10.323,10.323,0,0,1,1.011,5.124c-.238,1.617-.46,3.209-.672,4.891a40.165,40.165,0,0,0-1.061-6.327c-.8-3.426-3.2-5.346-4.6-5.053s.364,2.052,3.032,5.968a14.286,14.286,0,0,1,2.446,6.933c-.086.707-.172,1.435-.258,2.193-.1.864-.147,1.8-.157,2.749-.328-.8-.814-1.966-1.364-3.244a30.289,30.289,0,0,1-1.561-4.376c-.455-1.743-1.243-3.886-3.113-4.548a1.011,1.011,0,0,0-1.4.606,1.941,1.941,0,0,0,.071,1.218c.687,2.183,2.3,4.123,3.562,6a47.923,47.923,0,0,0,3.8,4.932c0,.874.025,1.753.071,2.607l-.793-.505c-.94-.606-3.785-5.366-5.478-7.428s-4.452-2.289-3.067.43,7.58,6.615,7.58,6.615l1.769,1.152c.187,3.376.611,6.231.611,6.231l1.142.192s-1.061-1.764-1.3-6.342a8.5,8.5,0,0,1,1.278-1.384c2.587-2.415,7.453-3.295,8.191-7.322.177-.97-.349-2.1-1.45-1.89a3.6,3.6,0,0,0-1.94,1.617c-1.369,2.148-2.324,4.305-4.255,6.064-.086.081-1.284,1.354-1.855,2.122,0-.637-.025-1.319,0-2.052a20.118,20.118,0,0,1,1.385-2.88c1.435-2.436,3.916-4.1,5.513-6.458.505-.723.92-3.118-.773-2.289-.753.369-1.516,1.7-2.021,2.335a22.284,22.284,0,0,0-3.9,6c0-.212.04-.424.056-.637a43.962,43.962,0,0,1,3.315-6.175c2.1-3.239,4.411-5.5,4.224-7.074s-3.032,1.516-5.291,5.559a18.965,18.965,0,0,0-2.072,5.882c.207-2.112.445-4.245.687-6.3a14,14,0,0,1,2.638-5.806c2.163-2.592,3.916-4.725,3.941-7.009s-.889-1.43-2.623,2.173a70.881,70.881,0,0,0-3.659,8.221c.207-1.612.409-3.138.6-4.512a28,28,0,0,1,3.032-6.478c1.91-2.759,2.648-4.462,1.41-4.416-.859.03-2.85,3.689-3.921,7.186.172-1.167.313-2.057.4-2.582q.061-.354.106-.773a66.326,66.326,0,0,0,3.325-7.7C451.5,276.735,451.651,272.592,450.378,274.552Z" transform="translate(-433.305 -269.927)" fill="#fff"/>
    </g>
    <path id="Path_321" data-name="Path 321" d="M34.228,314.423c.238,1.587,3.618,6.877,4.821,9.818-.288-.409-.622-.844-.96-1.268-.258-.505-.48-1.036-.743-1.46-.4-.652-.824-1.289-1.284-1.9a15.3,15.3,0,0,0-2.451-2.628,7.211,7.211,0,0,0-3.749-1.733c-.359-.04-2.527-.288-2.057.6a.91.91,0,0,0,.349.328,41.072,41.072,0,0,0,4.108,2.067c2.052,1.031,4.7,3.76,5.816,4.917l.551.793c-1.976-2-5.291-3.214-6.463-2.734-1.445.6,1.587,1.38,4.154,2.153a7.272,7.272,0,0,1,3.082,1.7c.475.687,1.011,1.47,1.516,2.264.061.121.126.237.192.354a7.794,7.794,0,0,0-1.294-1.289c-1.294-.96-4.927-1.652-5.361-.44s2.183.753,4.4,1.193a6,6,0,0,1,3.113,1.809c.045.061.091.111.141.167.237.364.465.723.677,1.061.505.8.975,1.546,1.445,2.269a13.072,13.072,0,0,0-2.527-2.673c-1.895-1.41-4.487-1.794-5.457-1.112s3.365,1.516,5.483,2.335a7.757,7.757,0,0,1,3.1,2.37c.662,1.011,1.324,2.021,2.021,3.072a29.467,29.467,0,0,0-3.719-3.032c-2.143-1.516-4.427-1.42-5.053-.561s1.218.975,4.644,1.849a10.662,10.662,0,0,1,4.8,2.678c.3.44.611.889.94,1.359a20.417,20.417,0,0,0,1.263,1.612c-.576-.283-1.42-.7-2.365-1.142a22.743,22.743,0,0,1-3.032-1.683c-1.117-.753-2.613-1.561-3.992-1.011a.743.743,0,0,0-.505,1.011,1.471,1.471,0,0,0,.682.682,18.757,18.757,0,0,0,4.962,1.6,35.307,35.307,0,0,0,4.548.889c.435.505.884.97,1.329,1.425l-.7.106c-.829.121-4.77-1.137-6.736-1.465s-3.623.92-1.516,1.758,7.509-.035,7.509-.035l1.561-.227c1.769,1.8,3.416,3.189,3.416,3.189l.733-.455s-1.46-.465-3.861-2.911a6.479,6.479,0,0,1,.035-1.4c.258-2.633,2.527-5.528.975-8.146-.379-.632-1.233-1.011-1.748-.344a2.673,2.673,0,0,0-.288,1.865c.293,1.88.824,3.537.611,5.493,0,.091-.051,1.395,0,2.1-.323-.344-.662-.723-1.011-1.142a15.24,15.24,0,0,1-.647-2.3c-.394-2.072.172-4.235-.1-6.337-.086-.647-1.011-2.2-1.566-.9a7.594,7.594,0,0,0,0,2.319,16.1,16.1,0,0,0,.778,5.281c-.1-.126-.192-.253-.283-.384a32.679,32.679,0,0,1-1.172-5.068c-.419-2.85-.238-5.255-1.122-6.064s-.955,2.37-.232,5.71a14.291,14.291,0,0,0,1.743,4.326c-.925-1.289-1.844-2.6-2.719-3.871a10.465,10.465,0,0,1-1.39-4.548c-.066-2.527-.141-4.578-1.253-5.872s-1.2-.364-.394,2.527A50.715,50.715,0,0,0,44,331.74c-.677-1.011-1.319-1.961-1.89-2.825a21.223,21.223,0,0,1-1.516-5.134c-.288-2.486-.712-3.805-1.39-3.168-.465.44.227,3.472,1.354,5.963-.505-.743-.844-1.309-1.051-1.647q-.141-.227-.318-.505a50.072,50.072,0,0,0-1.9-5.958C35.956,315.064,33.975,312.669,34.228,314.423Z" transform="translate(-27.739 -291.647)" fill="#5cd5c4"/>
    <path id="Path_322" data-name="Path 322" d="M34.228,314.423c.238,1.587,3.618,6.877,4.821,9.818-.288-.409-.622-.844-.96-1.268-.258-.505-.48-1.036-.743-1.46-.4-.652-.824-1.289-1.284-1.9a15.3,15.3,0,0,0-2.451-2.628,7.211,7.211,0,0,0-3.749-1.733c-.359-.04-2.527-.288-2.057.6a.91.91,0,0,0,.349.328,41.072,41.072,0,0,0,4.108,2.067c2.052,1.031,4.7,3.76,5.816,4.917l.551.793c-1.976-2-5.291-3.214-6.463-2.734-1.445.6,1.587,1.38,4.154,2.153a7.272,7.272,0,0,1,3.082,1.7c.475.687,1.011,1.47,1.516,2.264.061.121.126.237.192.354a7.794,7.794,0,0,0-1.294-1.289c-1.294-.96-4.927-1.652-5.361-.44s2.183.753,4.4,1.193a6,6,0,0,1,3.113,1.809c.045.061.091.111.141.167.237.364.465.723.677,1.061.505.8.975,1.546,1.445,2.269a13.072,13.072,0,0,0-2.527-2.673c-1.895-1.41-4.487-1.794-5.457-1.112s3.365,1.516,5.483,2.335a7.757,7.757,0,0,1,3.1,2.37c.662,1.011,1.324,2.021,2.021,3.072a29.467,29.467,0,0,0-3.719-3.032c-2.143-1.516-4.427-1.42-5.053-.561s1.218.975,4.644,1.849a10.662,10.662,0,0,1,4.8,2.678c.3.44.611.889.94,1.359a20.417,20.417,0,0,0,1.263,1.612c-.576-.283-1.42-.7-2.365-1.142a22.743,22.743,0,0,1-3.032-1.683c-1.117-.753-2.613-1.561-3.992-1.011a.743.743,0,0,0-.505,1.011,1.471,1.471,0,0,0,.682.682,18.757,18.757,0,0,0,4.962,1.6,35.307,35.307,0,0,0,4.548.889c.435.505.884.97,1.329,1.425l-.7.106c-.829.121-4.77-1.137-6.736-1.465s-3.623.92-1.516,1.758,7.509-.035,7.509-.035l1.561-.227c1.769,1.8,3.416,3.189,3.416,3.189l.733-.455s-1.46-.465-3.861-2.911a6.479,6.479,0,0,1,.035-1.4c.258-2.633,2.527-5.528.975-8.146-.379-.632-1.233-1.011-1.748-.344a2.673,2.673,0,0,0-.288,1.865c.293,1.88.824,3.537.611,5.493,0,.091-.051,1.395,0,2.1-.323-.344-.662-.723-1.011-1.142a15.24,15.24,0,0,1-.647-2.3c-.394-2.072.172-4.235-.1-6.337-.086-.647-1.011-2.2-1.566-.9a7.594,7.594,0,0,0,0,2.319,16.1,16.1,0,0,0,.778,5.281c-.1-.126-.192-.253-.283-.384a32.679,32.679,0,0,1-1.172-5.068c-.419-2.85-.238-5.255-1.122-6.064s-.955,2.37-.232,5.71a14.291,14.291,0,0,0,1.743,4.326c-.925-1.289-1.844-2.6-2.719-3.871a10.465,10.465,0,0,1-1.39-4.548c-.066-2.527-.141-4.578-1.253-5.872s-1.2-.364-.394,2.527A50.715,50.715,0,0,0,44,331.74c-.677-1.011-1.319-1.961-1.89-2.825a21.223,21.223,0,0,1-1.516-5.134c-.288-2.486-.712-3.805-1.39-3.168-.465.44.227,3.472,1.354,5.963-.505-.743-.844-1.309-1.051-1.647q-.141-.227-.318-.505a50.072,50.072,0,0,0-1.9-5.958C35.956,315.064,33.975,312.669,34.228,314.423Z" transform="translate(-27.739 -291.647)" fill="#fff" opacity="0.6"/>
    <path id="Path_323" data-name="Path 323" d="M91.219,307.193c-1.349.869-4.77,6.13-6.953,8.444.253-.435.505-.92.758-1.4.339-.44.743-.864,1.011-1.278.43-.637.834-1.289,1.2-1.961a15.327,15.327,0,0,0,1.38-3.31,7.155,7.155,0,0,0,.03-4.134c-.106-.344-.778-2.42-1.39-1.622a.925.925,0,0,0-.157.45,39.482,39.482,0,0,0-.187,4.593c-.116,2.3-1.486,5.842-2.1,7.337-.131.222-.3.505-.505.829,1.011-2.623.743-6.145-.177-7.014-1.142-1.071-.6,2.021-.243,4.669a7.378,7.378,0,0,1-.278,3.512c-.435.712-.925,1.516-1.425,2.329l-.248.323a7.782,7.782,0,0,0,.692-1.713c.339-1.572-.505-5.164-1.814-5.053s.217,2.294.728,4.492a5.942,5.942,0,0,1-.364,3.583l-.091.2c-.238.369-.465.723-.687,1.056-.505.788-1.011,1.516-1.476,2.249a12.826,12.826,0,0,0,1.395-3.406c.505-2.309-.217-4.826-1.238-5.432s0,3.684.136,5.958a7.736,7.736,0,0,1-.884,3.8c-.657,1.011-1.294,2.021-1.956,3.123a29.708,29.708,0,0,0,1.2-4.639c.505-2.577-.536-4.619-1.587-4.846s-.384,1.516.232,4.993a10.657,10.657,0,0,1-.46,5.473c-.278.455-.556.925-.849,1.415s-.647,1.177-.95,1.824c0-.647.051-1.587.066-2.628a23.281,23.281,0,0,1,.278-3.461c.227-1.324.349-3.032-.723-4.043a.738.738,0,0,0-1.137,0,1.42,1.42,0,0,0-.323.849,18.865,18.865,0,0,0,.581,5.185,36.083,36.083,0,0,0,1.076,4.548c-.268.591-.505,1.2-.753,1.794l-.384-.591c-.45-.7-.93-4.816-1.445-6.741s-2.335-2.921-2.223-.647,3.133,6.832,3.133,6.832l.854,1.324c-.91,2.35-1.516,4.427-1.516,4.427l.713.48s-.177-1.516,1.061-4.715a6.181,6.181,0,0,1,1.324-.6c2.527-.849,6.064.04,7.822-2.471.419-.606.409-1.516-.4-1.733a2.653,2.653,0,0,0-1.819.505c-1.592,1.041-2.9,2.218-4.755,2.82-.086.03-1.289.53-1.915.874.182-.435.389-.9.627-1.395a14.263,14.263,0,0,1,1.824-1.516c1.723-1.218,3.926-1.592,5.735-2.709.551-.339,1.582-1.839.177-1.794a6.5,6.5,0,0,0-2.107.965,16.106,16.106,0,0,0-4.492,2.885c.076-.136.152-.278.232-.414A32.759,32.759,0,0,1,79.6,326.85c2.426-1.556,4.689-2.385,5.053-3.537s-2.527.106-5.3,2.148a14.148,14.148,0,0,0-3.219,3.371c.788-1.374,1.607-2.754,2.4-4.073a10.471,10.471,0,0,1,3.588-3.128c2.274-1.1,4.118-2.021,4.836-3.537s-.167-1.243-2.451.677a52.892,52.892,0,0,0-5.013,4.472c.637-1.011,1.243-2.021,1.794-2.885a21.137,21.137,0,0,1,4.043-3.482c2.148-1.289,3.173-2.223,2.314-2.572-.6-.243-3.072,1.637-4.876,3.689l1.066-1.632c.1-.152.207-.318.313-.505a49.773,49.773,0,0,0,4.624-4.189C91.326,309.022,92.695,306.248,91.219,307.193Z" transform="translate(-48.135 -285.67)" fill="#5cd5c4"/>
    <path id="Path_324" data-name="Path 324" d="M91.219,307.193c-1.349.869-4.77,6.13-6.953,8.444.253-.435.505-.92.758-1.4.339-.44.743-.864,1.011-1.278.43-.637.834-1.289,1.2-1.961a15.327,15.327,0,0,0,1.38-3.31,7.155,7.155,0,0,0,.03-4.134c-.106-.344-.778-2.42-1.39-1.622a.925.925,0,0,0-.157.45,39.482,39.482,0,0,0-.187,4.593c-.116,2.3-1.486,5.842-2.1,7.337-.131.222-.3.505-.505.829,1.011-2.623.743-6.145-.177-7.014-1.142-1.071-.6,2.021-.243,4.669a7.378,7.378,0,0,1-.278,3.512c-.435.712-.925,1.516-1.425,2.329l-.248.323a7.782,7.782,0,0,0,.692-1.713c.339-1.572-.505-5.164-1.814-5.053s.217,2.294.728,4.492a5.942,5.942,0,0,1-.364,3.583l-.091.2c-.238.369-.465.723-.687,1.056-.505.788-1.011,1.516-1.476,2.249a12.826,12.826,0,0,0,1.395-3.406c.505-2.309-.217-4.826-1.238-5.432s0,3.684.136,5.958a7.736,7.736,0,0,1-.884,3.8c-.657,1.011-1.294,2.021-1.956,3.123a29.708,29.708,0,0,0,1.2-4.639c.505-2.577-.536-4.619-1.587-4.846s-.384,1.516.232,4.993a10.657,10.657,0,0,1-.46,5.473c-.278.455-.556.925-.849,1.415s-.647,1.177-.95,1.824c0-.647.051-1.587.066-2.628a23.281,23.281,0,0,1,.278-3.461c.227-1.324.349-3.032-.723-4.043a.738.738,0,0,0-1.137,0,1.42,1.42,0,0,0-.323.849,18.865,18.865,0,0,0,.581,5.185,36.083,36.083,0,0,0,1.076,4.548c-.268.591-.505,1.2-.753,1.794l-.384-.591c-.45-.7-.93-4.816-1.445-6.741s-2.335-2.921-2.223-.647,3.133,6.832,3.133,6.832l.854,1.324c-.91,2.35-1.516,4.427-1.516,4.427l.713.48s-.177-1.516,1.061-4.715a6.181,6.181,0,0,1,1.324-.6c2.527-.849,6.064.04,7.822-2.471.419-.606.409-1.516-.4-1.733a2.653,2.653,0,0,0-1.819.505c-1.592,1.041-2.9,2.218-4.755,2.82-.086.03-1.289.53-1.915.874.182-.435.389-.9.627-1.395a14.263,14.263,0,0,1,1.824-1.516c1.723-1.218,3.926-1.592,5.735-2.709.551-.339,1.582-1.839.177-1.794a6.5,6.5,0,0,0-2.107.965,16.106,16.106,0,0,0-4.492,2.885c.076-.136.152-.278.232-.414A32.759,32.759,0,0,1,79.6,326.85c2.426-1.556,4.689-2.385,5.053-3.537s-2.527.106-5.3,2.148a14.148,14.148,0,0,0-3.219,3.371c.788-1.374,1.607-2.754,2.4-4.073a10.471,10.471,0,0,1,3.588-3.128c2.274-1.1,4.118-2.021,4.836-3.537s-.167-1.243-2.451.677a52.892,52.892,0,0,0-5.013,4.472c.637-1.011,1.243-2.021,1.794-2.885a21.137,21.137,0,0,1,4.043-3.482c2.148-1.289,3.173-2.223,2.314-2.572-.6-.243-3.072,1.637-4.876,3.689l1.066-1.632c.1-.152.207-.318.313-.505a49.773,49.773,0,0,0,4.624-4.189C91.326,309.022,92.695,306.248,91.219,307.193Z" transform="translate(-48.135 -285.67)" fill="#fff" opacity="0.6"/>
    <path id="Path_325" data-name="Path 325" d="M120.5,307.465c-1.354.874-4.775,6.135-6.958,8.444.253-.43.505-.915.758-1.4.339-.435.743-.864,1.011-1.273.43-.637.834-1.289,1.2-1.961a15.431,15.431,0,0,0,1.38-3.31,7.2,7.2,0,0,0,.035-4.133c-.111-.344-.783-2.42-1.395-1.627a.96.96,0,0,0-.157.455,40.583,40.583,0,0,0-.187,4.588c-.116,2.309-1.486,5.847-2.1,7.342-.131.222-.3.505-.505.829,1.011-2.628.748-6.15-.177-7.014-1.142-1.071-.6,2.021-.243,4.669a7.282,7.282,0,0,1-.278,3.507c-.435.718-.925,1.516-1.425,2.335-.086.106-.167.217-.248.323a7.783,7.783,0,0,0,.642-1.713c.344-1.572-.505-5.164-1.814-5.053s.217,2.294.728,4.492a5.917,5.917,0,0,1-.364,3.578l-.091.2c-.237.364-.465.723-.687,1.056-.505.783-1.011,1.516-1.476,2.249a12.789,12.789,0,0,0,1.395-3.411c.505-2.3-.217-4.821-1.238-5.427s.025,3.684.136,5.958a7.737,7.737,0,0,1-.884,3.8c-.657,1.011-1.294,2.021-1.956,3.123a29.853,29.853,0,0,0,1.218-4.634c.505-2.577-.536-4.619-1.587-4.846s-.384,1.516.238,4.993a10.713,10.713,0,0,1-.465,5.473c-.278.455-.556.925-.849,1.415s-.647,1.177-.95,1.819c0-.642.051-1.582.066-2.628a23.267,23.267,0,0,1,.278-3.456c.227-1.324.349-3.032-.723-4.043a.738.738,0,0,0-1.137,0,1.42,1.42,0,0,0-.323.849,18.886,18.886,0,0,0,.581,5.185,35.707,35.707,0,0,0,1.076,4.518c-.268.6-.505,1.2-.753,1.8l-.384-.6c-.45-.7-.93-4.811-1.445-6.736s-2.335-2.921-2.223-.647,3.133,6.827,3.133,6.827l.854,1.324c-.91,2.355-1.516,4.432-1.516,4.432l.713.48s-.177-1.516,1.061-4.715a6.369,6.369,0,0,1,1.294-.556c2.527-.849,6.064.046,7.822-2.466.419-.611.409-1.541-.4-1.733a2.628,2.628,0,0,0-1.819.505c-1.592,1.041-2.9,2.218-4.755,2.82-.086.025-1.289.531-1.915.874.182-.44.389-.9.627-1.4a14.653,14.653,0,0,1,1.824-1.516c1.728-1.218,3.926-1.592,5.735-2.709.556-.339,1.582-1.839.177-1.8-.627,0-1.551.7-2.107.965a16.235,16.235,0,0,0-4.492,2.89l.232-.419a32.916,32.916,0,0,1,4.149-3.189c2.426-1.561,4.689-2.385,5.053-3.537s-2.527.106-5.3,2.148a14.148,14.148,0,0,0-3.219,3.37c.788-1.374,1.607-2.754,2.4-4.078a10.521,10.521,0,0,1,3.573-3.143c2.274-1.1,4.118-2.021,4.836-3.562s-.167-1.248-2.451.677a52.2,52.2,0,0,0-5.013,4.472c.637-1.036,1.243-2.021,1.794-2.89a21.326,21.326,0,0,1,4.043-3.477c2.148-1.294,3.173-2.223,2.314-2.572-.6-.243-3.072,1.637-4.876,3.689.505-.743.849-1.3,1.066-1.632.1-.152.207-.318.313-.505A50.053,50.053,0,0,0,118,311.947C120.6,309.3,121.97,306.525,120.5,307.465Z" transform="translate(-62.605 -285.806)" fill="#5cd5c4"/>
    <path id="Path_326" data-name="Path 326" d="M120.5,307.465c-1.354.874-4.775,6.135-6.958,8.444.253-.43.505-.915.758-1.4.339-.435.743-.864,1.011-1.273.43-.637.834-1.289,1.2-1.961a15.431,15.431,0,0,0,1.38-3.31,7.2,7.2,0,0,0,.035-4.133c-.111-.344-.783-2.42-1.395-1.627a.96.96,0,0,0-.157.455,40.583,40.583,0,0,0-.187,4.588c-.116,2.309-1.486,5.847-2.1,7.342-.131.222-.3.505-.505.829,1.011-2.628.748-6.15-.177-7.014-1.142-1.071-.6,2.021-.243,4.669a7.282,7.282,0,0,1-.278,3.507c-.435.718-.925,1.516-1.425,2.335-.086.106-.167.217-.248.323a7.783,7.783,0,0,0,.642-1.713c.344-1.572-.505-5.164-1.814-5.053s.217,2.294.728,4.492a5.917,5.917,0,0,1-.364,3.578l-.091.2c-.237.364-.465.723-.687,1.056-.505.783-1.011,1.516-1.476,2.249a12.789,12.789,0,0,0,1.395-3.411c.505-2.3-.217-4.821-1.238-5.427s.025,3.684.136,5.958a7.737,7.737,0,0,1-.884,3.8c-.657,1.011-1.294,2.021-1.956,3.123a29.853,29.853,0,0,0,1.218-4.634c.505-2.577-.536-4.619-1.587-4.846s-.384,1.516.238,4.993a10.713,10.713,0,0,1-.465,5.473c-.278.455-.556.925-.849,1.415s-.647,1.177-.95,1.819c0-.642.051-1.582.066-2.628a23.267,23.267,0,0,1,.278-3.456c.227-1.324.349-3.032-.723-4.043a.738.738,0,0,0-1.137,0,1.42,1.42,0,0,0-.323.849,18.886,18.886,0,0,0,.581,5.185,35.707,35.707,0,0,0,1.076,4.518c-.268.6-.505,1.2-.753,1.8l-.384-.6c-.45-.7-.93-4.811-1.445-6.736s-2.335-2.921-2.223-.647,3.133,6.827,3.133,6.827l.854,1.324c-.91,2.355-1.516,4.432-1.516,4.432l.713.48s-.177-1.516,1.061-4.715a6.369,6.369,0,0,1,1.294-.556c2.527-.849,6.064.046,7.822-2.466.419-.611.409-1.541-.4-1.733a2.628,2.628,0,0,0-1.819.505c-1.592,1.041-2.9,2.218-4.755,2.82-.086.025-1.289.531-1.915.874.182-.44.389-.9.627-1.4a14.653,14.653,0,0,1,1.824-1.516c1.728-1.218,3.926-1.592,5.735-2.709.556-.339,1.582-1.839.177-1.8-.627,0-1.551.7-2.107.965a16.235,16.235,0,0,0-4.492,2.89l.232-.419a32.916,32.916,0,0,1,4.149-3.189c2.426-1.561,4.689-2.385,5.053-3.537s-2.527.106-5.3,2.148a14.148,14.148,0,0,0-3.219,3.37c.788-1.374,1.607-2.754,2.4-4.078a10.521,10.521,0,0,1,3.573-3.143c2.274-1.1,4.118-2.021,4.836-3.562s-.167-1.248-2.451.677a52.2,52.2,0,0,0-5.013,4.472c.637-1.036,1.243-2.021,1.794-2.89a21.326,21.326,0,0,1,4.043-3.477c2.148-1.294,3.173-2.223,2.314-2.572-.6-.243-3.072,1.637-4.876,3.689.505-.743.849-1.3,1.066-1.632.1-.152.207-.318.313-.505A50.053,50.053,0,0,0,118,311.947C120.6,309.3,121.97,306.525,120.5,307.465Z" transform="translate(-62.605 -285.806)" fill="#fff" opacity="0.6"/>
  </g>
  <g id="freepik--Clouds--inject-1--inject-6" transform="translate(0.607 0.04)">
    <path id="Path_327" data-name="Path 327" d="M402.74,117.7s-1.935-5.559-7.5-5.806-4.6,5.084-8.469,6.534-5.326-2.663-8.717-1.693-1.208,3.628-4.113,4.6-2.663-1.693-7.019.505-5.326,2.906-6.3,3.148-9.682,1.693-9.682,1.693h60.275s1.7-5.326-1.693-7.5S406.374,119.638,402.74,117.7Z" transform="translate(-188.227 -105.16)" fill="#5cd5c4"/>
    <path id="Path_328" data-name="Path 328" d="M402.74,117.7s-1.935-5.559-7.5-5.806-4.6,5.084-8.469,6.534-5.326-2.663-8.717-1.693-1.208,3.628-4.113,4.6-2.663-1.693-7.019.505-5.326,2.906-6.3,3.148-9.682,1.693-9.682,1.693h60.275s1.7-5.326-1.693-7.5S406.374,119.638,402.74,117.7Z" transform="translate(-188.227 -105.16)" fill="#fff" opacity="0.7"/>
    <path id="Path_329" data-name="Path 329" d="M203.531,102.122s-1.177-3.376-4.548-3.537-2.784,3.077-5.134,3.962-3.229-1.617-5.286-1.011-.733,2.2-2.491,2.789-1.617-1.011-4.26.293-3.224,1.764-3.815,1.91-5.867,1.011-5.867,1.011h36.54s1.011-3.229-1.011-4.548S205.729,103.294,203.531,102.122Z" transform="translate(-99.773 -98.578)" fill="#5cd5c4"/>
    <path id="Path_330" data-name="Path 330" d="M203.531,102.122s-1.177-3.376-4.548-3.537-2.784,3.077-5.134,3.962-3.229-1.617-5.286-1.011-.733,2.2-2.491,2.789-1.617-1.011-4.26.293-3.224,1.764-3.815,1.91-5.867,1.011-5.867,1.011h36.54s1.011-3.229-1.011-4.548S205.729,103.294,203.531,102.122Z" transform="translate(-99.773 -98.578)" fill="#fff" opacity="0.8"/>
    <path id="Path_331" data-name="Path 331" d="M71.23,218.354s-1.582-4.548-6.124-4.74-3.76,4.149-6.918,5.336-4.351-2.178-7.115-1.385-1.011,2.961-3.36,3.755-2.173-1.385-5.73.394-4.346,2.37-5.139,2.572-7.9,1.379-7.9,1.379H78.148s1.38-4.346-1.385-6.124S74.191,219.946,71.23,218.354Z" transform="translate(-28.94 -155.481)" fill="#5cd5c4"/>
    <g id="Group_468" data-name="Group 468" transform="translate(0 58.127)" opacity="0.7">
      <path id="Path_332" data-name="Path 332" d="M71.23,218.354s-1.582-4.548-6.124-4.74-3.76,4.149-6.918,5.336-4.351-2.178-7.115-1.385-1.011,2.961-3.36,3.755-2.173-1.385-5.73.394-4.346,2.37-5.139,2.572-7.9,1.379-7.9,1.379H78.148s1.38-4.346-1.385-6.124S74.191,219.946,71.23,218.354Z" transform="translate(-28.94 -213.608)" fill="#fff"/>
    </g>
  </g>
  <g id="freepik--Shadow--inject-1--inject-6" transform="translate(47.753 142.985)">
    <ellipse id="Ellipse_25" data-name="Ellipse 25" cx="53.594" cy="3.8" rx="53.594" ry="3.8" transform="translate(0 2.527)" fill="#5cd5c4"/>
    <ellipse id="Ellipse_26" data-name="Ellipse 26" cx="30.385" cy="1.9" rx="30.385" ry="1.9" transform="translate(73.428)" fill="#5cd5c4"/>
    <g id="Group_469" data-name="Group 469" opacity="0.6">
      <ellipse id="Ellipse_27" data-name="Ellipse 27" cx="53.594" cy="3.8" rx="53.594" ry="3.8" transform="translate(0 2.527)" fill="#fff"/>
      <ellipse id="Ellipse_28" data-name="Ellipse 28" cx="30.385" cy="1.9" rx="30.385" ry="1.9" transform="translate(73.428)" fill="#fff"/>
    </g>
  </g>
  <g id="freepik--Character--inject-1--inject-6" transform="translate(38.759)">
    <line id="Line_19" data-name="Line 19" y1="6.751" x2="9.424" transform="translate(62.2 85.899)" fill="none" stroke="#263238" stroke-linecap="round" stroke-linejoin="round" stroke-width="0.835"/>
    <path id="Path_333" data-name="Path 333" d="M283.339,373.141l-.531,5.988s-2.683,1.177-2.678,1.572.505.935,2.693.935,2.9-.829,2.9-1.45,4.659-5.8,4.659-5.8a1.915,1.915,0,0,0-.308-1.865c-.728-.829-3.214-.93-3.214-.93Z" transform="translate(-191.35 -233.592)" fill="#5cd5c4"/>
    <path id="Path_334" data-name="Path 334" d="M280.14,382.416s3.643-.237,4.619-.793,4.447-5.841,4.725-6.261a2.381,2.381,0,0,0,.278-1.112" transform="translate(-191.355 -234.908)" fill="none" stroke="#263238" stroke-linecap="round" stroke-linejoin="round" stroke-width="0.418"/>
    <path id="Path_335" data-name="Path 335" d="M288.01,371.76s2.956.561,2.673,1.829-4.922,6.893-5.624,7.58-5.053.7-4.922,0,2.673-1.971,2.673-1.971l.844-5.053" transform="translate(-191.353 -233.676)" fill="none" stroke="#263238" stroke-linecap="round" stroke-linejoin="round" stroke-width="0.835"/>
    <path id="Path_336" data-name="Path 336" d="M163.724,384.29l-8.7,4.25s-1.137.829,1.142.829,14.29.1,14.29.1,1.349.313,1.657-.308c.505-1.011.728-1.657.414-1.971S163.724,384.29,163.724,384.29Z" transform="translate(-129.322 -239.875)" fill="#5cd5c4"/>
    <path id="Path_337" data-name="Path 337" d="M156.92,392.41h15.438" transform="translate(-130.401 -243.892)" fill="none" stroke="#263238" stroke-linecap="round" stroke-linejoin="round" stroke-width="0.418"/>
    <path id="Path_338" data-name="Path 338" d="M162.82,385.36s-8.863,3.8-8.722,4.219,9,.425,12.375.425,5.771.141,5.771-.7" transform="translate(-129.004 -240.404)" fill="none" stroke="#263238" stroke-linecap="round" stroke-linejoin="round" stroke-width="0.835"/>
    <path id="Path_339" data-name="Path 339" d="M250.531,329.762l-29.253-21.38-1.011-21.522a14.112,14.112,0,0,1-3.608,2.309c-1.809.692-12.289,5.988-12.289,5.988s4.644,16.458,5.488,17.868,36.292,19.126,36.292,19.126Z" transform="translate(-153.873 -191.678)" fill="#263238"/>
    <path id="Path_340" data-name="Path 340" d="M159.231,331.475s-1.127-.283-2.39-.566-7.034-2.527-7.034-2.527a4.937,4.937,0,0,1-.141-1.4,2.021,2.021,0,0,1,.844-1.546S128.563,296.174,128,295.33s-.141-2.254,3.659-5.2S160.322,272,160.322,272c-.955-1.132.844-1.829.844-1.829l2.254.7,14.77,5.2,5.907-3.936a6.391,6.391,0,0,1-2.673,6.468c-3.659,2.815-37.106,17.686-37.106,17.686l-.556.035,15.048,32.876S159.822,331.005,159.231,331.475Z" transform="translate(-115.995 -183.422)" fill="#263238"/>
    <path id="Path_341" data-name="Path 341" d="M153.07,313.452l2.779,3.477-1.112-4.588" transform="translate(-128.496 -204.283)" fill="none" stroke="#fff" stroke-linecap="round" stroke-linejoin="round" stroke-width="0.835"/>
    <path id="Path_342" data-name="Path 342" d="M207.28,303.81s5.7,8.9,7.787,10.708" transform="translate(-155.313 -200.063)" fill="none" stroke="#fff" stroke-linecap="round" stroke-linejoin="round" stroke-width="0.835"/>
    <path id="Path_343" data-name="Path 343" d="M208.93,303.26a41.726,41.726,0,0,0,5,3.754" transform="translate(-156.129 -199.791)" fill="none" stroke="#fff" stroke-linecap="round" stroke-linejoin="round" stroke-width="0.835"/>
    <path id="Path_344" data-name="Path 344" d="M209.388,210.03,189.65,223.482l4.315,17.787,14.649,4.912,19.546-13.927-2.36-17.893Z" transform="translate(-146.592 -153.672)" fill="url(#linear-gradient)"/>
    <line id="Line_20" data-name="Line 20" x2="1.253" y2="5.559" transform="translate(43.164 69.81)" fill="none" stroke="#263238" stroke-linecap="round" stroke-linejoin="round" stroke-width="0.835"/>
    <path id="Path_345" data-name="Path 345" d="M194.4,255.68l1.971,8.019,14.77,5.2-1.829-13.224" transform="translate(-148.941 -176.254)" fill="none" stroke="#263238" stroke-linecap="round" stroke-linejoin="round" stroke-width="0.835"/>
    <line id="Line_21" data-name="Line 21" x1="0.561" y1="3.376" transform="translate(59.668 74.929)" fill="none" stroke="#263238" stroke-linecap="round" stroke-linejoin="round" stroke-width="0.835"/>
    <path id="Path_346" data-name="Path 346" d="M258.15,240.862l3.936-2.956-1.971-16.736" transform="translate(-180.477 -159.182)" fill="none" stroke="#263238" stroke-linecap="round" stroke-linejoin="round" stroke-width="0.835"/>
    <line id="Line_22" data-name="Line 22" y1="8.019" x2="10.693" transform="translate(61.634 65.924)" fill="none" stroke="#263238" stroke-linecap="round" stroke-linejoin="round" stroke-width="0.835"/>
    <path id="Path_347" data-name="Path 347" d="M218.778,212.42l-8.863-2.39L190.5,223.254" transform="translate(-147.012 -153.672)" fill="none" stroke="#263238" stroke-linecap="round" stroke-linejoin="round" stroke-width="0.835"/>
    <line id="Line_23" data-name="Line 23" x2="2.956" y2="0.844" transform="translate(43.629 70.143)" fill="none" stroke="#263238" stroke-linecap="round" stroke-linejoin="round" stroke-width="0.835"/>
    <line id="Line_24" data-name="Line 24" x2="8.019" y2="2.249" transform="translate(51.649 72.114)" fill="none" stroke="#263238" stroke-linecap="round" stroke-linejoin="round" stroke-width="0.835"/>
    <line id="Line_25" data-name="Line 25" x1="12.097" y2="9.283" transform="translate(58.258 58.471)" fill="none" stroke="#263238" stroke-linecap="round" stroke-linejoin="round" stroke-width="0.418"/>
    <line id="Line_26" data-name="Line 26" x1="4.361" y2="3.376" transform="translate(52.912 68.597)" fill="none" stroke="#263238" stroke-linecap="round" stroke-linejoin="round" stroke-width="0.418"/>
    <path id="Path_348" data-name="Path 348" d="M243.286,190.752s3.072,25.342,3.072,26.469-2.815,1.688-2.815,3.093a12.635,12.635,0,0,1-.7,3.376s-.561.566-.561,1.011.985.283,1.829-.136,1.122-1.971,1.122-1.971a25.031,25.031,0,0,0-.419,2.815l-.561.561s-1.688,1.546-.566,1.688,6.332-1.829,6.615-3.093-.707-7.317-.707-7.317,4.083-28.556,4.083-31.229a3.75,3.75,0,0,0-2.254-3.537" transform="translate(-172.627 -140.043)" fill="#fff"/>
    <g id="Group_470" data-name="Group 470" transform="translate(69.653 42.437)" clip-path="url(#clip-path)">
      <path id="Path_349" data-name="Path 349" d="M257.5,189.525c-.591-2.249-1.233-6.332-1.233-6.332l-2.678-.814-3.537,4.25,2.794-1.718v33.72c0,1.718-2.148,8.373-2.148,8.373s4.442-.935,3.724-4.977-1.577-3.4-.288-11.557S258.11,191.789,257.5,189.525Z" transform="translate(-246.124 -182.431)" fill="#5cd5c4" opacity="0.3"/>
    </g>
    <path id="Path_351" data-name="Path 351" d="M243.286,190.752s3.072,25.342,3.072,26.469-2.815,1.688-2.815,3.093a12.635,12.635,0,0,1-.7,3.376s-.561.566-.561,1.011.985.283,1.829-.136,1.122-1.971,1.122-1.971a25.031,25.031,0,0,0-.419,2.815l-.561.561s-1.688,1.546-.566,1.688,6.332-1.829,6.615-3.093-.707-7.317-.707-7.317,4.083-28.556,4.083-31.229a3.75,3.75,0,0,0-2.254-3.537" transform="translate(-172.627 -140.043)" fill="none" stroke="#263238" stroke-linecap="round" stroke-linejoin="round" stroke-width="0.835"/>
    <path id="Path_352" data-name="Path 352" d="M249.912,265.29a2.81,2.81,0,0,1-.141,1.8,7.241,7.241,0,0,1-.97,1.253" transform="translate(-175.852 -181.008)" fill="none" stroke="#263238" stroke-linecap="round" stroke-linejoin="round" stroke-width="0.418"/>
    <path id="Path_353" data-name="Path 353" d="M253.919,265.29a8.471,8.471,0,0,1-.419,1.668" transform="translate(-178.177 -181.008)" fill="none" stroke="#263238" stroke-linecap="round" stroke-linejoin="round" stroke-width="0.418"/>
    <path id="Path_354" data-name="Path 354" d="M256.4,264.46a8.808,8.808,0,0,1-.419,1.668" transform="translate(-179.404 -180.597)" fill="none" stroke="#263238" stroke-linecap="round" stroke-linejoin="round" stroke-width="0.418"/>
    <path id="Path_355" data-name="Path 355" d="M136.012,154.79c-.162-1.455-3.072-4.2-7.115-5.013s-8.414-.809-10.031.505a5.189,5.189,0,0,0-1.273,2.8,7.954,7.954,0,0,1,1.47-2.365c2.976-2.481,3.805-1.011,4.3,1.157s-.167,8.085-.167,8.085-6.781,1.986-5.791-1.491a8.783,8.783,0,0,1-.3-1.516v.414l-.323,2.1-2.749.505-9.551-.3s4.861,3.032,7.61,3.032a8.05,8.05,0,0,0,4.841-1.875l17.686,1.349S136.174,156.245,136.012,154.79Z" transform="translate(-104.46 -123.591)" fill="url(#linear-gradient)"/>
    <path id="Path_356" data-name="Path 356" d="M115.375,159.9l-10.935-.167a11.442,11.442,0,0,0,7.074,2.86c4.043,0,5.387-1.683,5.387-1.683l17.686,1.349s2.309-4.4,1.132-8.267-11.789-5.164-14.74-4.452c-3.648.884-3.891,3.967-3.891,5.649a26.711,26.711,0,0,1-.339,3.7" transform="translate(-104.44 -123.655)" fill="none" stroke="#263238" stroke-linecap="round" stroke-linejoin="round" stroke-width="0.835"/>
    <g id="Group_471" data-name="Group 471" transform="translate(10.548 37.757)" clip-path="url(#clip-path-2)">
      <path id="Path_357" data-name="Path 357" d="M135.768,172.978l-7.14.126s-2.021,3.007-1.516,3.886a5.052,5.052,0,0,0,1.516,1.516s-.505,4.012.126,5.392,5.639.748,5.639.748a8.272,8.272,0,0,1-3.638,1.132c-2.38.248-3.128-.253-3.507-1.632a37.331,37.331,0,0,1-.505-5.341L125,176.99l1.253-3.386,1.38-1.374Z" transform="translate(-125.159 -172.73)" fill="#5cd5c4" opacity="0.3"/>
    </g>
    <path id="Path_359" data-name="Path 359" d="M126.545,173.22s-1.854,4.376-1.011,5.053,1.344,1.011,1.344,1.011.505,5.887,1.344,6.9,6.226-.672,6.226-.672,10.92,10.93,11.274,8.909-1.011-9.6-1.011-10.43-2.355-3.032-2.355-3.032" transform="translate(-114.766 -135.463)" fill="none" stroke="#263238" stroke-linecap="round" stroke-linejoin="round" stroke-width="0.835"/>
    <path id="Path_360" data-name="Path 360" d="M147.06,173.55s.334,1.516,1.344,1.683,1.849-1.516,1.849-1.516Z" transform="translate(-125.523 -135.626)" fill="#263238"/>
    <path id="Path_361" data-name="Path 361" d="M158.563,174.524s1.011,3.032-.172,4.71-1.678,1.683-1.678,1.683c-1.011,1.683-3.7-2.021-3.7-2.021s2.021-.091,2.527-1.435a5.833,5.833,0,0,0-.2-3.31Z" transform="translate(-128.467 -135.923)" fill="#263238"/>
    <path id="Path_362" data-name="Path 362" d="M154.537,174.89a7.843,7.843,0,0,1,0,3.537c-.505,1.182-2.527.839-2.527.839L151,181.793" transform="translate(-127.472 -136.289)" fill="none" stroke="#263238" stroke-linecap="round" stroke-linejoin="round" stroke-width="0.835"/>
    <path id="Path_363" data-name="Path 363" d="M130.78,185.369a3.081,3.081,0,0,0,3.2-1.809" transform="translate(-117.47 -140.578)" fill="none" stroke="#263238" stroke-linecap="round" stroke-linejoin="round" stroke-width="0.626"/>
    <rect id="Rectangle_66" data-name="Rectangle 66" width="4.406" height="6.756" transform="matrix(0.938, -0.346, 0.346, 0.938, 43.808, 57.259)" fill="#263238"/>
    <rect id="Rectangle_67" data-name="Rectangle 67" width="2.107" height="3.133" transform="matrix(0.938, -0.346, 0.346, 0.938, 45.242, 57.883)" fill="#fff"/>
    <rect id="Rectangle_68" data-name="Rectangle 68" width="0.93" height="2.057" transform="matrix(0.938, -0.346, 0.346, 0.938, 44.89, 55.09)" fill="#fff" stroke="#263238" stroke-linecap="round" stroke-linejoin="round" stroke-width="0.418"/>
    <line id="Line_27" data-name="Line 27" x2="3.744" y2="4.27" transform="translate(41.431 82.473)" fill="none" stroke="#263238" stroke-linecap="round" stroke-linejoin="round" stroke-width="0.835"/>
    <g id="Group_472" data-name="Group 472" transform="translate(62.791 0)" clip-path="url(#clip-path-3)">
      <path id="Path_364" data-name="Path 364" d="M256.861,153.868l-3.714,2.143-2.1-3.664,3.709-2.138Z" transform="translate(-239.756 -124.08)" fill="none" stroke="#263238" stroke-linecap="round" stroke-linejoin="round" stroke-width="0.835"/>
      <path id="Path_365" data-name="Path 365" d="M250.938,142.888l-5.847,3.376-3.482-6.448,5.847-3.376Z" transform="translate(-235.086 -117.268)" fill="none" stroke="#263238" stroke-linecap="round" stroke-linejoin="round" stroke-width="0.835"/>
      <circle id="Ellipse_29" data-name="Ellipse 29" cx="44.953" cy="44.953" r="44.953" transform="translate(-23.217 75.758) rotate(-45)" fill="#fff"/>
      <path id="Path_366" data-name="Path 366" d="M258.526,144.2a51.874,51.874,0,1,0,.005,0Zm0,96.844A44.973,44.973,0,1,1,303.5,196.071,44.973,44.973,0,0,1,258.526,241.044Z" transform="translate(-217.777 -121.107)" fill="#263238" stroke="#263238" stroke-linecap="round" stroke-linejoin="round" stroke-width="0.835"/>
      <path id="Path_367" data-name="Path 367" d="M355.194,160.372a50.39,50.39,0,0,0-17.524-9.252" transform="translate(-282.605 -124.53)" fill="none" stroke="#fff" stroke-linecap="round" stroke-linejoin="round" stroke-width="1.67"/>
      <path id="Path_368" data-name="Path 368" d="M322.759,148.093a51.32,51.32,0,0,0-5.559-.743" transform="translate(-272.479 -122.665)" fill="none" stroke="#fff" stroke-linecap="round" stroke-linejoin="round" stroke-width="1.67"/>
      <path id="Path_369" data-name="Path 369" d="M383.251,246.178a46.949,46.949,0,0,0-1.011-56.808" transform="translate(-304.653 -143.452)" fill="none" stroke="#fff" stroke-linecap="round" stroke-linejoin="round" stroke-width="0.835"/>
      <path id="Path_370" data-name="Path 370" d="M371.26,311.949a46.137,46.137,0,0,0,4.154-4.219" transform="translate(-299.222 -202.002)" fill="none" stroke="#fff" stroke-linecap="round" stroke-linejoin="round" stroke-width="0.835"/>
      <path id="Path_371" data-name="Path 371" d="M271.59,325.566A47,47,0,0,0,320.1,319.25" transform="translate(-249.917 -207.701)" fill="none" stroke="#fff" stroke-linecap="round" stroke-linejoin="round" stroke-width="0.835"/>
      <path id="Path_372" data-name="Path 372" d="M258.34,324.5a46.543,46.543,0,0,0,4.351,2.527" transform="translate(-243.362 -210.298)" fill="none" stroke="#fff" stroke-linecap="round" stroke-linejoin="round" stroke-width="0.835"/>
      <path id="Path_373" data-name="Path 373" d="M248.38,316.94a46.754,46.754,0,0,0,3.7,2.906" transform="translate(-238.435 -206.558)" fill="none" stroke="#fff" stroke-linecap="round" stroke-linejoin="round" stroke-width="0.835"/>
      <path id="Path_374" data-name="Path 374" d="M250.427,157.63a46.934,46.934,0,0,0-19.071,79.381" transform="translate(-222.655 -127.75)" fill="none" stroke="#fff" stroke-linecap="round" stroke-linejoin="round" stroke-width="0.835"/>
      <path id="Path_375" data-name="Path 375" d="M333.318,167.775a47,47,0,0,0-42.578-12.8" transform="translate(-259.39 -125.97)" fill="none" stroke="#fff" stroke-linecap="round" stroke-linejoin="round" stroke-width="0.835"/>
      <rect id="Rectangle_69" data-name="Rectangle 69" width="13.502" height="3.659" transform="translate(33.973 91.604)" fill="url(#linear-gradient)"/>
      <path id="Path_376" data-name="Path 376" d="M309.413,219.089a3.765,3.765,0,0,0-3.092-3.7l-.4-24.7h-.561l-.394,24.7a3.765,3.765,0,0,0-.116,7.388l-.141,8.762h1.87l-.141-8.762A3.775,3.775,0,0,0,309.413,219.089Zm-3.77,2.021a2.021,2.021,0,1,1,2.021-2.021A2.021,2.021,0,0,1,305.644,221.11Z" transform="translate(-264.895 -144.105)" fill="#263238"/>
      <circle id="Ellipse_30" data-name="Ellipse 30" cx="2.077" cy="2.077" r="2.077" transform="translate(38.672 72.907)" fill="url(#linear-gradient)"/>
      <line id="Line_28" data-name="Line 28" y2="7.484" transform="translate(40.749 32.553)" fill="none" stroke="#263238" stroke-linecap="round" stroke-linejoin="round" stroke-width="3.34"/>
      <line id="Line_29" data-name="Line 29" y2="7.484" transform="translate(40.749 110.19)" fill="none" stroke="#263238" stroke-linecap="round" stroke-linejoin="round" stroke-width="3.34"/>
      <line id="Line_30" data-name="Line 30" x2="3.739" y2="6.478" transform="translate(19.47 38.258)" fill="none" stroke="#263238" stroke-linecap="round" stroke-linejoin="round" stroke-width="3.34"/>
      <line id="Line_31" data-name="Line 31" x2="3.739" y2="6.483" transform="translate(58.289 105.49)" fill="none" stroke="#263238" stroke-linecap="round" stroke-linejoin="round" stroke-width="3.34"/>
      <line id="Line_32" data-name="Line 32" x2="6.478" y2="3.744" transform="translate(3.891 53.832)" fill="none" stroke="#263238" stroke-linecap="round" stroke-linejoin="round" stroke-width="3.34"/>
      <line id="Line_33" data-name="Line 33" x2="6.483" y2="3.744" transform="translate(71.124 92.65)" fill="none" stroke="#263238" stroke-linecap="round" stroke-linejoin="round" stroke-width="3.34"/>
      <line id="Line_34" data-name="Line 34" x1="7.484" transform="translate(75.823 75.116)" fill="none" stroke="#263238" stroke-linecap="round" stroke-linejoin="round" stroke-width="3.34"/>
      <line id="Line_35" data-name="Line 35" x1="7.484" transform="translate(-1.814 75.116)" fill="none" stroke="#263238" stroke-linecap="round" stroke-linejoin="round" stroke-width="3.34"/>
      <line id="Line_36" data-name="Line 36" x1="7.484" transform="translate(75.823 75.116)" fill="none" stroke="#263238" stroke-linecap="round" stroke-linejoin="round" stroke-width="3.34"/>
      <line id="Line_37" data-name="Line 37" x1="7.484" transform="translate(-1.814 75.116)" fill="none" stroke="#263238" stroke-linecap="round" stroke-linejoin="round" stroke-width="3.34"/>
      <line id="Line_38" data-name="Line 38" x1="6.483" y2="3.744" transform="translate(71.124 53.832)" fill="none" stroke="#263238" stroke-linecap="round" stroke-linejoin="round" stroke-width="3.34"/>
      <line id="Line_39" data-name="Line 39" x1="6.478" y2="3.744" transform="translate(3.891 92.65)" fill="none" stroke="#263238" stroke-linecap="round" stroke-linejoin="round" stroke-width="3.34"/>
      <line id="Line_40" data-name="Line 40" x1="3.739" y2="6.478" transform="translate(58.289 38.258)" fill="none" stroke="#263238" stroke-linecap="round" stroke-linejoin="round" stroke-width="3.34"/>
      <line id="Line_41" data-name="Line 41" x1="3.739" y2="6.483" transform="translate(19.47 105.49)" fill="none" stroke="#263238" stroke-linecap="round" stroke-linejoin="round" stroke-width="3.34"/>
      <rect id="Rectangle_70" data-name="Rectangle 70" width="4.285" height="3.79" transform="translate(38.606 21.461)" fill="none" stroke="#263238" stroke-linecap="round" stroke-linejoin="round" stroke-width="0.835"/>
      <rect id="Rectangle_71" data-name="Rectangle 71" width="6.751" height="9.909" transform="translate(37.373 11.334)" fill="none" stroke="#263238" stroke-linecap="round" stroke-linejoin="round" stroke-width="0.835"/>
      <rect id="Rectangle_72" data-name="Rectangle 72" width="9.773" height="6.751" transform="translate(35.756 4.361)" fill="url(#linear-gradient)"/>
      <rect id="Rectangle_73" data-name="Rectangle 73" width="9.773" height="6.751" transform="translate(35.863 4.361)" fill="none" stroke="#263238" stroke-linecap="round" stroke-linejoin="round" stroke-width="0.835"/>
      <line id="Line_42" data-name="Line 42" y1="4.048" transform="translate(36.949 4.513)" fill="none" stroke="#263238" stroke-linecap="round" stroke-linejoin="round" stroke-width="0.835"/>
      <line id="Line_43" data-name="Line 43" y1="1.743" transform="translate(36.949 9.495)" fill="none" stroke="#263238" stroke-linecap="round" stroke-linejoin="round" stroke-width="0.835"/>
      <line id="Line_44" data-name="Line 44" y1="6.726" transform="translate(38.192 4.513)" fill="none" stroke="#263238" stroke-linecap="round" stroke-linejoin="round" stroke-width="0.835"/>
      <line id="Line_45" data-name="Line 45" y1="1.683" transform="translate(39.435 4.513)" fill="none" stroke="#263238" stroke-linecap="round" stroke-linejoin="round" stroke-width="0.835"/>
      <line id="Line_46" data-name="Line 46" y1="4.235" transform="translate(39.435 7.004)" fill="none" stroke="#263238" stroke-linecap="round" stroke-linejoin="round" stroke-width="0.835"/>
      <line id="Line_47" data-name="Line 47" y1="6.726" transform="translate(41.492 4.513)" fill="none" stroke="#263238" stroke-linecap="round" stroke-linejoin="round" stroke-width="0.835"/>
    </g>
    <path id="Path_378" data-name="Path 378" d="M168.13,212.019l3.633.253-.121-1.38S168.383,210.64,168.13,212.019Z" transform="translate(-135.946 -154.089)" fill="#5cd5c4" opacity="0.3"/>
    <g id="Group_473" data-name="Group 473" transform="translate(18.074 57.202)" clip-path="url(#clip-path-4)">
      <path id="Path_379" data-name="Path 379" d="M144.427,238l7.418-4.917L142.37,236.7s-.859-19.328-.212-20.829,4.725-4.3,4.725-4.3a2.064,2.064,0,0,1,1.071-2.148,3.992,3.992,0,0,1,2.794,0l.935.354a30.826,30.826,0,0,1-5.488-4.331h-.061l.647.622L146.5,208.6l-2.84,2.319c-.642.647-3.067,3.729-3.067,3.729l-.141,25.6,3.856-2.481Z" transform="translate(-140.327 -208.608)" fill="#5cd5c4" opacity="0.3"/>
    </g>
    <path id="Path_381" data-name="Path 381" d="M146.353,211.7s-5.907,4.785-5.907,6.064-.424,25.039-.141,25.6,11.42-7.186,11.42-7.186L150.6,225.91" transform="translate(-122.133 -154.498)" fill="none" stroke="#263238" stroke-linecap="round" stroke-linejoin="round" stroke-width="0.835"/>
    <line id="Line_48" data-name="Line 48" x2="11.956" y2="9.566" transform="translate(25.347 68.88)" fill="none" stroke="#263238" stroke-linecap="round" stroke-linejoin="round" stroke-width="0.835"/>
    <g id="Group_474" data-name="Group 474" transform="translate(33.442 36.226)" clip-path="url(#clip-path-5)">
      <path id="Path_382" data-name="Path 382" d="M221.2,176.35l-7.2-2.213-23.472-3.947-5.948,6.524s5.154-3.219,6.655-3.219,24.139,6.438,26.277,7.039Z" transform="translate(-177.526 -170.19)" fill="#5cd5c4" opacity="0.3"/>
    </g>
    <path id="Path_384" data-name="Path 384" d="M170.62,181.211s11.6-11.021,13-11.021,24.614,4.639,26.3,4.922,4.5.844,4.5.844-4.922,6.19-6.61,8.3-2.527,3.376-2.527,3.376l-18.99-8.717" transform="translate(-137.178 -133.964)" fill="none" stroke="#263238" stroke-linecap="round" stroke-linejoin="round" stroke-width="0.835"/>
    <line id="Line_49" data-name="Line 49" x2="4.785" y2="12.658" transform="translate(52.351 47.076)" fill="none" stroke="#263238" stroke-linecap="round" stroke-linejoin="round" stroke-width="0.835"/>
    <path id="Path_385" data-name="Path 385" d="M172.62,223.457l-1.127,1.127-5.483-7.034" transform="translate(-134.897 -157.392)" fill="none" stroke="#263238" stroke-linecap="round" stroke-linejoin="round" stroke-width="0.835"/>
    <path id="Path_386" data-name="Path 386" d="M197.37,191.7l5.564-.975-4.73,3.335" transform="translate(-150.411 -144.119)" fill="none" stroke="#263238" stroke-linecap="round" stroke-linejoin="round" stroke-width="0.418"/>
    <line id="Line_50" data-name="Line 50" x1="7.064" y1="1.036" transform="translate(21.375 70.376)" fill="none" stroke="#263238" stroke-linecap="round" stroke-linejoin="round" stroke-width="0.418"/>
    <path id="Path_387" data-name="Path 387" d="M152.518,206.69a5.781,5.781,0,0,0-.141,3.941,35.543,35.543,0,0,0,3.093,5.766l3.093-4.361" transform="translate(-128.015 -152.02)" fill="none" stroke="#263238" stroke-linecap="round" stroke-linejoin="round" stroke-width="0.835"/>
    <path id="Path_388" data-name="Path 388" d="M165.188,202.515a5.555,5.555,0,0,1,2.956-1.4h2.39s-.419-5.488-2.39-8.444a3.431,3.431,0,0,0-4.644-1.4" transform="translate(-133.656 -144.186)" fill="none" stroke="#263238" stroke-linecap="round" stroke-linejoin="round" stroke-width="0.835"/>
    <path id="Path_389" data-name="Path 389" d="M155.637,247.563l16.883-7.878,1.4-4.922,5.766-1.253s1.127-1.127.985,0-1.688,1.546-2.249,2.673-.566,3.376-1.268,4.361-3.234,2.112-3.234,2.112-18.99,15.892-20.395,16.736-4.219-7.176-4.219-7.176" transform="translate(-126.636 -165.039)" fill="#fff"/>
    <g id="Group_475" data-name="Group 475" transform="translate(22.674 67.97)" clip-path="url(#clip-path-6)">
      <path id="Path_390" data-name="Path 390" d="M148.32,264.186c.652,1.046,3.315,5.377,3.5,7.074.217,1.935,1.935,0,1.935,0L169.22,258.38s-15.251,9.657-16.514,9.227-1.516-3.648-1.516-3.648l4.548-4.689Z" transform="translate(-148.82 -245.56)" fill="#5cd5c4" opacity="0.3"/>
    </g>
    <path id="Path_392" data-name="Path 392" d="M155.637,247.563l16.883-7.878,1.4-4.922,5.766-1.253s1.127-1.127.985,0-1.688,1.546-2.249,2.673-.566,3.376-1.268,4.361-3.234,2.112-3.234,2.112-18.99,15.892-20.395,16.736-4.219-7.176-4.219-7.176" transform="translate(-126.636 -165.039)" fill="none" stroke="#263238" stroke-linecap="round" stroke-linejoin="round" stroke-width="0.835"/>
    <path id="Path_393" data-name="Path 393" d="M206.987,234s-2.754,1.642-2.476,2.2" transform="translate(-153.933 -165.529)" fill="none" stroke="#263238" stroke-linecap="round" stroke-linejoin="round" stroke-width="0.418"/>
    <line id="Line_51" data-name="Line 51" x1="2.087" y2="1.112" transform="translate(48.768 68.986)" fill="none" stroke="#263238" stroke-linecap="round" stroke-linejoin="round" stroke-width="0.418"/>
  </g>
</svg>
