<svg xmlns="http://www.w3.org/2000/svg" width="60" height="60" viewBox="0 0 60 60">
  <path id="Path_1134" data-name="Path 1134" d="M57.487,59.605l-8.156-8.222H7.042A7.073,7.073,0,0,1,0,44.295V17.888A7.073,7.073,0,0,1,7.042,10.8H9.078L.619,2.272A1.333,1.333,0,1,1,2.513.395L59.381,57.728a1.333,1.333,0,1,1-1.894,1.877ZM2.666,17.888V44.295a4.4,4.4,0,0,0,4.376,4.421H46.686l-7.608-7.671A14.059,14.059,0,0,1,30,44.339,14.362,14.362,0,0,1,19.043,20.847l-7.474-7.535a6.586,6.586,0,0,1-1.421.154H7.042A4.4,4.4,0,0,0,2.666,17.888ZM18.434,30A11.632,11.632,0,0,0,30,41.672a11.413,11.413,0,0,0,7.191-2.528L20.933,22.752A11.649,11.649,0,0,0,18.434,30ZM56.807,48.75a1.333,1.333,0,0,1-.3-1.861,4.421,4.421,0,0,0,.832-2.594V17.888a4.4,4.4,0,0,0-4.376-4.421H49.852A6.612,6.612,0,0,1,44,9.935l-.938-1.769a5.3,5.3,0,0,0-4.681-2.831H21.618A5.282,5.282,0,0,0,17.6,7.2a1.333,1.333,0,0,1-2.028-1.73,7.945,7.945,0,0,1,6.049-2.8H38.382a7.955,7.955,0,0,1,7.037,4.249l.938,1.769A3.954,3.954,0,0,0,49.852,10.8h3.106A7.072,7.072,0,0,1,60,17.888V44.295a7.07,7.07,0,0,1-1.333,4.15,1.332,1.332,0,0,1-1.861.3ZM42.409,33.8a1.334,1.334,0,0,1-1.057-1.562A11.836,11.836,0,0,0,41.566,30,11.57,11.57,0,0,0,27.688,18.562a1.334,1.334,0,1,1-.534-2.613A14.236,14.236,0,0,1,44.233,30a14.521,14.521,0,0,1-.262,2.748,1.332,1.332,0,0,1-1.307,1.081A1.367,1.367,0,0,1,42.409,33.8Zm5.558-14.228a2.156,2.156,0,1,1,2.156,2.174A2.165,2.165,0,0,1,47.968,19.576Z" transform="translate(0 0)" fill="#c6c7ce"/>
</svg>
