<svg xmlns="http://www.w3.org/2000/svg" xmlns:xlink="http://www.w3.org/1999/xlink" width="175.861" height="131.038" viewBox="0 0 175.861 131.038">
  <defs>
    <linearGradient id="linear-gradient" x1="0.168" y1="-0.108" x2="0.9" y2="1.761" gradientUnits="objectBoundingBox">
      <stop offset="0" stop-color="#5cd5c4"/>
      <stop offset="1" stop-color="#27bee1"/>
    </linearGradient>
    <linearGradient id="linear-gradient-7" x1="-1.092" y1="-1.766" x2="-0.104" y2="0.177" gradientUnits="objectBoundingBox">
      <stop offset="0" stop-color="#7ae3d5"/>
      <stop offset="1" stop-color="#27bee1"/>
    </linearGradient>
  </defs>
  <g id="Online_Review-rafiki" data-name="Online Review-rafiki" transform="translate(0 -55)">
    <g id="freepik--background-complete--inject-91" transform="translate(0 55)">
      <rect id="Rectangle_284" data-name="Rectangle 284" width="175.862" height="0.088" transform="translate(0 115.154)" fill="#ebebeb"/>
      <rect id="Rectangle_285" data-name="Rectangle 285" width="11.649" height="0.088" transform="translate(124.978 117.796)" fill="#ebebeb"/>
      <rect id="Rectangle_286" data-name="Rectangle 286" width="15.486" height="0.088" transform="translate(90.734 120.771)" fill="#ebebeb"/>
      <rect id="Rectangle_287" data-name="Rectangle 287" width="15.75" height="0.088" transform="translate(136.982 121.06)" fill="#ebebeb"/>
      <rect id="Rectangle_288" data-name="Rectangle 288" width="15.191" height="0.088" transform="translate(18.884 117.708)" fill="#ebebeb"/>
      <rect id="Rectangle_289" data-name="Rectangle 289" width="2.226" height="0.088" transform="translate(37.209 117.708)" fill="#ebebeb"/>
      <rect id="Rectangle_290" data-name="Rectangle 290" width="32.949" height="0.088" transform="translate(46.674 119.192)" fill="#ebebeb"/>
      <path id="Path_833" data-name="Path 833" d="M108.129,154.467H40.215a2.008,2.008,0,0,1-2-2.008V56.991a2.008,2.008,0,0,1,2-1.991h67.914a2.008,2.008,0,0,1,2.008,2.008v95.451A2.008,2.008,0,0,1,108.129,154.467ZM40.215,55.07a1.92,1.92,0,0,0-1.917,1.92v95.468a1.92,1.92,0,0,0,1.917,1.92h67.914a1.924,1.924,0,0,0,1.92-1.92V56.991a1.924,1.924,0,0,0-1.92-1.92Z" transform="translate(-24.771 -55)" fill="#ebebeb"/>
      <path id="Path_834" data-name="Path 834" d="M324.426,154.467H256.508a2.012,2.012,0,0,1-2.008-2.008V56.991A2.012,2.012,0,0,1,256.508,55h67.918a2.008,2.008,0,0,1,2,1.991v95.468A2.008,2.008,0,0,1,324.426,154.467Zm-67.918-99.4a1.924,1.924,0,0,0-1.92,1.92v95.468a1.924,1.924,0,0,0,1.92,1.92h67.918a1.924,1.924,0,0,0,1.92-1.92V56.991a1.924,1.924,0,0,0-1.92-1.92Z" transform="translate(-164.986 -55)" fill="#ebebeb"/>
      <rect id="Rectangle_291" data-name="Rectangle 291" width="32.872" height="60.437" transform="translate(153.063 68.931) rotate(180)" fill="#e6e6e6"/>
      <rect id="Rectangle_292" data-name="Rectangle 292" width="35.725" height="60.437" transform="translate(152.166 68.931) rotate(180)" fill="#f0f0f0"/>
      <rect id="Rectangle_293" data-name="Rectangle 293" width="54.45" height="29.738" transform="translate(149.176 11.484) rotate(90)" fill="#fff"/>
      <rect id="Rectangle_294" data-name="Rectangle 294" width="25.887" height="30.086" transform="translate(18.884 10.939)" fill="#e0e0e0"/>
      <rect id="Rectangle_295" data-name="Rectangle 295" width="26.559" height="30.086" transform="translate(19.76 10.939)" fill="#f5f5f5"/>
      <rect id="Rectangle_296" data-name="Rectangle 296" width="25.345" height="22.109" transform="translate(44.092 13.309) rotate(90)" fill="#fff"/>
      <rect id="Rectangle_297" data-name="Rectangle 297" width="25.887" height="30.086" transform="translate(55.196 28.5)" fill="#e0e0e0"/>
      <rect id="Rectangle_298" data-name="Rectangle 298" width="26.559" height="30.086" transform="translate(56.072 28.5)" fill="#f5f5f5"/>
      <rect id="Rectangle_299" data-name="Rectangle 299" width="25.345" height="22.109" transform="translate(80.404 30.874) rotate(90)" fill="#fff"/>
      <path id="Path_835" data-name="Path 835" d="M174.4,292.81h0c-.176,0-.352,0-.535.018a7.636,7.636,0,0,0-6.83,9.591,38.1,38.1,0,0,1,1.2,9.933v9.757a1.28,1.28,0,0,0,1.284,1.28h30.952V292.81Z" transform="translate(-108.114 -209.167)" fill="#f0f0f0"/>
      <path id="Path_836" data-name="Path 836" d="M256.191,300.764a7.625,7.625,0,0,0-15.219-.5,7.738,7.738,0,0,0,.246,2.483,38.248,38.248,0,0,1,1.2,9.933v9.757a1.28,1.28,0,0,0,1.28,1.28h9.778a1.28,1.28,0,0,0,1.28-1.28V312.11a34.756,34.756,0,0,1,1.182-9.31A7.63,7.63,0,0,0,256.191,300.764Z" transform="translate(-156.206 -209.492)" fill="#f5f5f5"/>
      <rect id="Rectangle_300" data-name="Rectangle 300" width="27.793" height="18.567" transform="translate(54.056 95.658)" fill="#f0f0f0"/>
      <path id="Path_837" data-name="Path 837" d="M107.354,252.2H81.7a4.785,4.785,0,0,0-4.84,5.772l4,24.723h37.2l-4-24.723A7.058,7.058,0,0,0,107.354,252.2Z" transform="translate(-49.777 -182.84)" fill="#ebebeb"/>
      <path id="Path_838" data-name="Path 838" d="M128.22,252.2H102.01a4.554,4.554,0,0,0-4.6,5.494l4.048,25h37.2l-4.048-25A6.718,6.718,0,0,0,128.22,252.2Z" transform="translate(-63.099 -182.84)" fill="#f5f5f5"/>
      <path id="Path_839" data-name="Path 839" d="M157.939,322.15h25.62a1.674,1.674,0,0,1,1.674,1.674v4.221a1.674,1.674,0,0,1-1.674,1.674h-25.62a.5.5,0,0,1-.5-.5v-6.57A.5.5,0,0,1,157.939,322.15Z" transform="translate(-102.065 -228.187)" fill="#ebebeb"/>
      <path id="Path_840" data-name="Path 840" d="M66.565,292.81h0c-.176,0-.352,0-.535.018a7.654,7.654,0,0,0-7.059,7.112,7.738,7.738,0,0,0,.246,2.483,38.1,38.1,0,0,1,1.2,9.933v9.757a1.28,1.28,0,0,0,1.28,1.28H92.646V292.81Z" transform="translate(-38.22 -209.167)" fill="#f0f0f0"/>
      <path id="Path_841" data-name="Path 841" d="M148.3,300.461a7.625,7.625,0,1,0-14.99,1.984,38.25,38.25,0,0,1,1.2,9.933v9.757a1.28,1.28,0,0,0,1.28,1.28h9.778a1.28,1.28,0,0,0,1.28-1.28V311.807a34.9,34.9,0,0,1,1.178-9.31A7.491,7.491,0,0,0,148.3,300.461Z" transform="translate(-86.253 -209.189)" fill="#f5f5f5"/>
      <path id="Path_842" data-name="Path 842" d="M143.338,380.689H80.429a.929.929,0,0,1-.929-.929h64.78a.929.929,0,0,1-.943.929Z" transform="translate(-51.538 -265.534)" fill="#e0e0e0"/>
      <rect id="Rectangle_301" data-name="Rectangle 301" width="15.138" height="1.242" transform="translate(144.453 100.843)" fill="#e6e6e6"/>
      <rect id="Rectangle_302" data-name="Rectangle 302" width="2.796" height="28.585" transform="translate(118.696 115.154) rotate(180)" fill="#e6e6e6"/>
      <rect id="Rectangle_303" data-name="Rectangle 303" width="38.232" height="1.242" transform="translate(144.453 102.088) rotate(180)" fill="#f5f5f5"/>
      <rect id="Rectangle_304" data-name="Rectangle 304" width="15.138" height="1.242" transform="translate(144.453 107.641)" fill="#e6e6e6"/>
      <rect id="Rectangle_305" data-name="Rectangle 305" width="38.232" height="1.242" transform="translate(144.453 108.883) rotate(180)" fill="#f5f5f5"/>
      <rect id="Rectangle_306" data-name="Rectangle 306" width="15.138" height="1.242" transform="translate(144.453 87.248)" fill="#e6e6e6"/>
      <rect id="Rectangle_307" data-name="Rectangle 307" width="38.232" height="1.242" transform="translate(144.453 88.494) rotate(180)" fill="#f5f5f5"/>
      <rect id="Rectangle_308" data-name="Rectangle 308" width="15.138" height="1.242" transform="translate(144.453 94.047)" fill="#e6e6e6"/>
      <rect id="Rectangle_309" data-name="Rectangle 309" width="38.232" height="1.242" transform="translate(144.453 95.289) rotate(180)" fill="#f5f5f5"/>
      <rect id="Rectangle_310" data-name="Rectangle 310" width="2.796" height="28.585" transform="translate(156.928 115.154) rotate(180)" fill="#e6e6e6"/>
      <rect id="Rectangle_311" data-name="Rectangle 311" width="2.796" height="28.585" transform="translate(144.453 115.154) rotate(180)" fill="#f5f5f5"/>
      <rect id="Rectangle_312" data-name="Rectangle 312" width="2.796" height="28.585" transform="translate(109.017 115.154) rotate(180)" fill="#f5f5f5"/>
      <rect id="Rectangle_313" data-name="Rectangle 313" width="1.495" height="16.668" transform="translate(135.213 86.235) rotate(180)" fill="#e6e6e6"/>
      <rect id="Rectangle_314" data-name="Rectangle 314" width="0.422" height="16.668" transform="translate(134.334 86.221) rotate(180)" fill="#f0f0f0"/>
      <path id="Path_843" data-name="Path 843" d="M366.541,300.467H377.6a1.407,1.407,0,0,0-1.407-1.407h-8.255a1.407,1.407,0,0,0-1.407,1.407Z" transform="translate(-237.613 -213.218)" fill="#f0f0f0"/>
      <rect id="Rectangle_315" data-name="Rectangle 315" width="0.862" height="1.467" rx="0.43" transform="translate(132.681 86.837) rotate(180)" fill="#f0f0f0"/>
      <path id="Path_844" data-name="Path 844" d="M363.27,240.28h13.39L375.38,229.6a2.483,2.483,0,0,0-2.462-2.191h-5.9a2.49,2.49,0,0,0-2.462,2.191Z" transform="translate(-235.499 -166.769)" fill="#f5f5f5"/>
    </g>
    <g id="freepik--Shadow--inject-91" transform="translate(19.735 178.075)">
      <ellipse id="freepik--path--inject-91" cx="68.196" cy="3.982" rx="68.196" ry="3.982" fill="#f5f5f5"/>
    </g>
    <g id="freepik--Character--inject-91" transform="translate(85.156 72.129)">
      <path id="Path_845" data-name="Path 845" d="M264.486,155.9l-.123.415-.113.352c-.077.236-.162.454-.246.679-.169.44-.352.869-.552,1.294a23.385,23.385,0,0,1-1.319,2.462c-.243.4-.5.781-.76,1.164s-.538.753-.83,1.115a24.165,24.165,0,0,1-1.839,2.093l-.137.141a2.139,2.139,0,0,1-.661.461,5.223,5.223,0,0,1-2.328.433,5.891,5.891,0,0,1-2.019-.475,7.214,7.214,0,0,1-1.509-.865,10.9,10.9,0,0,1-1.185-1,14.954,14.954,0,0,1-1.815-2.2c-.26-.38-.5-.77-.728-1.164s-.426-.788-.64-1.242a1.407,1.407,0,0,1,2.23-1.632l.091.084.858.788c.292.267.591.524.89.77a15.727,15.727,0,0,0,1.794,1.315,5.011,5.011,0,0,0,1.611.7.823.823,0,0,0,.447,0,.236.236,0,0,0,.113-.106l-.809.612c.447-.6.879-1.217,1.277-1.85s.777-1.287,1.133-1.945.682-1.337.985-2.015c.155-.352.292-.682.433-1.02l.352-.922.1-.253a2.814,2.814,0,0,1,5.311,1.8Z" transform="translate(-245.634 -135.268)" fill="#263238"/>
      <path id="Path_846" data-name="Path 846" d="M245.457,165.293l-2.378-.827-.5-3.257s3.985,1.055,3.967,2.976Z" transform="translate(-242.415 -140.982)" fill="#ce7a63"/>
      <path id="Path_847" data-name="Path 847" d="M284.974,111.044c-1.551-.545-3.693-2.4-2.852-4.8.64-1.822,3.011-1.984,3.943-1.439s.971-.573,2.163-1,2.033.651,2.638,1.217,1.312.137,2.209.176a1.41,1.41,0,0,1,1.038,2.072c-.879,1.505.573,2.462-.528,3.637-1.621,1.706-.352,3.38-2.638,5.079C289.557,117.02,285.61,115.11,284.974,111.044Z" transform="translate(-267.926 -103.7)" fill="#263238"/>
      <path id="Path_848" data-name="Path 848" d="M289.219,121.353a.433.433,0,0,1-.19.06.443.443,0,0,1-.478-.4A4.39,4.39,0,0,1,290,117.245a.443.443,0,0,1,.549.7h0a3.486,3.486,0,0,0-1.115,2.993A.443.443,0,0,1,289.219,121.353Z" transform="translate(-272.199 -112.419)" fill="#263238"/>
      <path id="Path_849" data-name="Path 849" d="M280.666,150.874s-3.12,7.984-.158,22.862H294.65c.1-2.17-1.266-12.761.826-22.989a37.112,37.112,0,0,0-4.734-.6,51.893,51.893,0,0,0-6.011,0A26.307,26.307,0,0,0,280.666,150.874Z" transform="translate(-266.175 -133.756)" fill="#fff"/>
      <path id="Path_850" data-name="Path 850" d="M300.192,131c-.38,1.934-.756,5.48.594,6.771,0,0-2.265,1.836-4.646,3.693a4.006,4.006,0,0,1-1.365-3.693c2.156-.514,2.11-2.11,1.727-3.619Z" transform="translate(-276.219 -121.398)" fill="#ce7a63"/>
      <path id="Path_851" data-name="Path 851" d="M301.974,134.69l-2.184,1.864a6.044,6.044,0,0,1,.186,1.055c.7.668,1.956-1.023,2.044-1.885A2.923,2.923,0,0,0,301.974,134.69Z" transform="translate(-279.503 -123.79)" opacity="0.2"/>
      <path id="Path_852" data-name="Path 852" d="M296.619,115.335c.1,2.624.288,4.154-.893,5.628a3.486,3.486,0,0,1-6-1.21c-.791-2.286-.819-6.19,1.632-7.478a3.577,3.577,0,0,1,5.258,3.06Z" transform="translate(-272.671 -108.987)" fill="#ce7a63"/>
      <path id="Path_853" data-name="Path 853" d="M296.148,115.69c-.721,1.407-1.551-3.042-1.34-3.785-2.55.7-6.461.471-6.159-1.308.352-2.008,2.687-2.086,5.276-1.84C298.2,109.169,296.929,114.163,296.148,115.69Z" transform="translate(-272.27 -106.914)" fill="#263238"/>
      <path id="Path_854" data-name="Path 854" d="M305.563,123.389a.419.419,0,0,1-.193-.035.443.443,0,0,1-.229-.584,4.39,4.39,0,0,1,3.074-2.613.44.44,0,0,1,.51.352.447.447,0,0,1-.352.51h0a3.5,3.5,0,0,0-2.413,2.11A.433.433,0,0,1,305.563,123.389Z" transform="translate(-282.948 -114.364)" fill="#263238"/>
      <path id="Path_855" data-name="Path 855" d="M309.8,124.4a2.649,2.649,0,0,1-1.027,1.572c-.686.478-1.228-.109-1.21-.936.018-.742.4-1.882,1.164-2.029S309.969,123.621,309.8,124.4Z" transform="translate(-284.539 -116.204)" fill="#ce7a63"/>
      <path id="Path_856" data-name="Path 856" d="M277.175,405.38a1.094,1.094,0,0,1-.795,0,.236.236,0,0,1-.056-.267.3.3,0,0,1,.158-.186c.4-.222,1.407.067,1.453.081a.06.06,0,0,1,0,.116A4.652,4.652,0,0,1,277.175,405.38Zm-.521-.4a.469.469,0,0,0-.113.042.19.19,0,0,0-.1.113c-.028.088,0,.12.018.137.158.137.805-.018,1.266-.2A2.813,2.813,0,0,0,276.654,404.982Z" transform="translate(-264.278 -298.924)" fill="#263238"/>
      <path id="Path_857" data-name="Path 857" d="M278.849,403.746h-.025c-.352-.06-1.083-.464-1.1-.767,0-.07.025-.169.186-.225a.464.464,0,0,1,.352.021c.387.186.615.862.626.89a.06.06,0,0,1,0,.063A.067.067,0,0,1,278.849,403.746Zm-.865-.886h-.035c-.109.035-.106.081-.1.095,0,.183.528.514.886.626a1.435,1.435,0,0,0-.521-.7A.352.352,0,0,0,277.984,402.859Z" transform="translate(-265.195 -297.554)" fill="#263238"/>
      <path id="Path_858" data-name="Path 858" d="M286.978,396.817l-2.648.39.084-6.071,2.648-.387Z" transform="translate(-269.481 -289.788)" fill="#ce7a63"/>
      <path id="Path_859" data-name="Path 859" d="M272.236,404.65h3.471a.207.207,0,0,1,.211.179l.352,2.339a.419.419,0,0,1-.415.468c-1.038-.018-2.529-.077-3.834-.077-1.523,0-2.891.081-4.678.081-1.08,0-1.28-1.023-.834-1.189,2-.749,3.067-.876,5.089-1.6A2.025,2.025,0,0,1,272.236,404.65Z" transform="translate(-257.784 -298.799)" fill="#263238"/>
      <path id="Path_860" data-name="Path 860" d="M284.486,391.14l-.046,3.127,2.652-.39.046-3.127Z" transform="translate(-269.552 -289.788)" opacity="0.2"/>
      <path id="Path_861" data-name="Path 861" d="M282.332,401.186c-.018-1.122.334-2.926-2.462-1.822-1.667.654.594,2.578.594,2.578Z" transform="translate(-266.192 -295.149)" fill="#263238"/>
      <path id="Path_862" data-name="Path 862" d="M280.869,217.314s-1.407,21.3-1.009,28.88c.387,7.179.6,27.543.654,32.886a1.147,1.147,0,0,0,1.3,1.122l1.871-.253a1.15,1.15,0,0,0,.985-.988c1.21-9.43,2.648-23.977,2.962-31.764.352-8.888,2.539-29.9,2.539-29.9Z" transform="translate(-266.537 -177.344)" fill="#5cd5c4"/>
      <path id="Path_863" data-name="Path 863" d="M280.869,217.314s-1.407,21.3-1.009,28.88c.387,7.179.6,27.543.654,32.886a1.147,1.147,0,0,0,1.3,1.122l1.871-.253a1.15,1.15,0,0,0,.985-.988c1.21-9.43,2.648-23.977,2.962-31.764.352-8.888,2.539-29.9,2.539-29.9Z" transform="translate(-266.537 -177.344)" fill="url(#linear-gradient)"/>
      <path id="Path_864" data-name="Path 864" d="M331.414,404.4c-.306.137-.622.229-.784.134a.229.229,0,0,1-.1-.25.3.3,0,0,1,.123-.215c.352-.288,1.407-.183,1.442-.179a.063.063,0,0,1,.056.046.067.067,0,0,1-.025.067A4.572,4.572,0,0,1,331.414,404.4Zm-.584-.3a.563.563,0,0,0-.1.063.179.179,0,0,0-.077.13c0,.088.021.12.042.13.179.109.788-.162,1.21-.422A2.815,2.815,0,0,0,330.83,404.1Z" transform="translate(-299.425 -298.292)" fill="#263238"/>
      <path id="Path_865" data-name="Path 865" d="M332.74,402.661h0c-.352,0-1.147-.264-1.22-.559-.018-.067,0-.169.144-.253a.447.447,0,0,1,.352-.042c.415.116.763.735.777.763a.067.067,0,0,1,0,.063A.077.077,0,0,1,332.74,402.661Zm-1.009-.7H331.7c-.1.056-.088.1-.084.113.046.176.612.412.985.461a1.439,1.439,0,0,0-.637-.605.328.328,0,0,0-.218.018Z" transform="translate(-300.069 -296.943)" fill="#263238"/>
      <path id="Path_866" data-name="Path 866" d="M339,393.89l-2.5.848-1.657-5.87,2.494-.848Z" transform="translate(-302.232 -288.018)" fill="#ce7a63"/>
      <path id="Path_867" data-name="Path 867" d="M300.678,239c-.728,2.916-.535,15.033.218,21.863.179-4,.686-10.165,1.2-15.828Z" transform="translate(-279.782 -191.412)" opacity="0.2"/>
      <path id="Path_868" data-name="Path 868" d="M329.378,401.928l3.419-.615a.222.222,0,0,1,.25.137l.9,2.216a.387.387,0,0,1-.3.528c-1.024.169-2.508.373-3.792.6-1.5.271-1.509.352-3.268.675-1.055.193-1.509-.767-1.111-1.009,1.787-1.083,1.495-1.157,3.31-2.219A1.925,1.925,0,0,1,329.378,401.928Z" transform="translate(-296.063 -296.632)" fill="#263238"/>
      <path id="Path_869" data-name="Path 869" d="M334.85,388.878l.855,3.025,2.5-.848-.855-3.025Z" transform="translate(-302.232 -288.025)" opacity="0.2"/>
      <path id="Path_870" data-name="Path 870" d="M297.13,217.314s1.822,21.307,3.225,28.88c1.351,7.288,7.46,28.046,9.261,32.763a1.143,1.143,0,0,0,1.428.679l1.8-.587a1.147,1.147,0,0,0,.77-1.3c-1.794-9.261-4.65-22.8-5.36-30.547-.812-8.888-2-29.9-2-29.9Z" transform="translate(-277.779 -177.344)" fill="#5cd5c4"/>
      <path id="Path_871" data-name="Path 871" d="M297.13,217.314s1.822,21.307,3.225,28.88c1.351,7.288,7.46,28.046,9.261,32.763a1.143,1.143,0,0,0,1.428.679l1.8-.587a1.147,1.147,0,0,0,.77-1.3c-1.794-9.261-4.65-22.8-5.36-30.547-.812-8.888-2-29.9-2-29.9Z" transform="translate(-277.779 -177.344)" fill="url(#linear-gradient)"/>
      <path id="Path_872" data-name="Path 872" d="M298.238,124.287c.021.215-.074.4-.215.412s-.267-.148-.288-.352.074-.394.215-.408S298.216,124.076,298.238,124.287Z" transform="translate(-278.169 -116.82)" fill="#263238"/>
      <path id="Path_873" data-name="Path 873" d="M291.418,124.954c.021.211-.074.394-.215.408s-.267-.148-.288-.352.074-.4.215-.412S291.4,124.739,291.418,124.954Z" transform="translate(-273.747 -117.247)" fill="#263238"/>
      <path id="Path_874" data-name="Path 874" d="M293.007,125.69a7.611,7.611,0,0,1-.837,1.917,1.231,1.231,0,0,0,1.034.088Z" transform="translate(-274.563 -117.956)" fill="#ba4d3c"/>
      <path id="Path_875" data-name="Path 875" d="M296.876,131.134a.064.064,0,0,1-.011-.127,1.681,1.681,0,0,0,1.3-.791.063.063,0,0,1,.084-.028.067.067,0,0,1,.028.084A1.794,1.794,0,0,1,296.876,131.134Z" transform="translate(-277.57 -120.867)" fill="#263238"/>
      <path id="Path_876" data-name="Path 876" d="M298.986,121.344a.134.134,0,0,1-.105-.039,1,1,0,0,0-.841-.352.127.127,0,0,1-.144-.1.123.123,0,0,1,.1-.144,1.234,1.234,0,0,1,1.055.412.123.123,0,0,1,0,.179A.141.141,0,0,1,298.986,121.344Z" transform="translate(-278.274 -114.721)" fill="#263238"/>
      <path id="Path_877" data-name="Path 877" d="M288.81,121.817a.144.144,0,0,1-.056,0,.127.127,0,0,1-.063-.165,1.245,1.245,0,0,1,.872-.735.127.127,0,1,1,.042.246h0a1,1,0,0,0-.686.591A.123.123,0,0,1,288.81,121.817Z" transform="translate(-272.301 -114.857)" fill="#263238"/>
      <path id="Path_878" data-name="Path 878" d="M308.6,149c1.379,0,4.7.074,5.026,1.3a8.659,8.659,0,0,1-.471,4.4c.647,1.787.44,4.425-.176,5.248a5.052,5.052,0,0,1-.176,4.161,7.108,7.108,0,0,1,.12,4.161c.408,1.583.876,4.221.144,4.752a8.455,8.455,0,0,1-5.515.612c-1.871-.443-1.136-4.221-.992-5.1-.819-1.083.06-4.337.06-4.337-.411-.907.2-4.309.2-4.309-.5-.82.148-5.276.148-5.276C306.433,153.72,306.2,149,308.6,149Z" transform="translate(-283.663 -133.067)" fill="#263238"/>
      <path id="Path_879" data-name="Path 879" d="M280.065,149.817c1.083-.478,4.713-1.347,4.01-.39-1.02,1.389-.394,2.852-1,4.572a8.972,8.972,0,0,1-.144,5.276,6.331,6.331,0,0,1-.127,4.214,8.352,8.352,0,0,1,.095,4.133c.352,1.491.619,4.5,0,5.177a3.116,3.116,0,0,1-3.612.735c-.862-.352-1.245-3.229-.819-4.221a8.189,8.189,0,0,1-.155-4.53c-.809-1.407-.183-4.358-.183-4.358a10.21,10.21,0,0,1,.183-5.511C277.881,154.129,278.338,150.58,280.065,149.817Z" transform="translate(-265.258 -133.065)" fill="#263238"/>
      <path id="Path_880" data-name="Path 880" d="M290.137,148.834a1.157,1.157,0,0,1-.468-.922.911.911,0,0,1,.9-.932,2.968,2.968,0,0,1,1.175.352c.552.271.756.521.781.929s-.981,1.843-1.534,1.5S290.447,149.185,290.137,148.834Z" transform="translate(-272.942 -131.758)" fill="#263238"/>
      <path id="Path_881" data-name="Path 881" d="M321.112,164.822c.274-1.185.971-1.08,1.664-.594l-.049.137c.647,1.787.44,4.425-.176,5.248.039.113.074.225.105.352A5.83,5.83,0,0,1,321.112,164.822Z" transform="translate(-293.245 -142.716)" opacity="0.2"/>
      <path id="Path_882" data-name="Path 882" d="M305.233,174.78l-2.339,1.069-.229,7.555L296.31,187.5l7.115,2.553,1.931,7.305,2.342-1.066,1.308-11.916Z" transform="translate(-277.247 -149.78)" fill="#5cd5c4"/>
      <path id="Path_883" data-name="Path 883" d="M305.233,174.78l-2.339,1.069-.229,7.555L296.31,187.5l7.115,2.553,1.931,7.305,2.342-1.066,1.308-11.916Z" transform="translate(-277.247 -149.78)" opacity="0.3"/>
      <path id="Path_884" data-name="Path 884" d="M345.07,217.4l-2.342,1.069-7.548-.422,3.159-2.131Z" transform="translate(-302.445 -176.45)" fill="#5cd5c4"/>
      <path id="Path_885" data-name="Path 885" d="M345.07,217.4l-2.342,1.069-7.548-.422,3.159-2.131Z" transform="translate(-302.445 -176.45)" opacity="0.3"/>
      <path id="Path_886" data-name="Path 886" d="M309.551,174.78l5.86,4.776,7.256-2.117-2.733,7.049,4.256,6.247-7.548-.422-4.625,5.979-1.934-7.309-7.112-2.553,6.352-4.094Z" transform="translate(-281.564 -149.78)" fill="url(#linear-gradient)"/>
      <path id="Path_887" data-name="Path 887" d="M332.053,216.916,332,219.3l2.814-.158a2.42,2.42,0,0,0-1.238-2.536Z" transform="translate(-300.384 -176.897)" fill="#ce7a63"/>
      <path id="Path_888" data-name="Path 888" d="M332.9,226.37l1.949-1.122-.035-1.428-2.817.158Z" transform="translate(-300.384 -181.571)" fill="#ce7a63"/>
      <path id="Path_889" data-name="Path 889" d="M318.989,151.154c.229.211.4.373.591.559s.352.352.549.549c.352.369.7.749,1.055,1.133a30.461,30.461,0,0,1,1.938,2.462,20.7,20.7,0,0,1,1.692,2.814,10.551,10.551,0,0,1,1.111,3.64,4.81,4.81,0,0,1,.032.566v.5l-.06.8c-.063.524-.127,1.055-.215,1.551a30,30,0,0,1-.64,2.979,34.841,34.841,0,0,1-2,5.628,1.407,1.407,0,0,1-2.687-.7v-.056c.151-1.857.352-3.749.454-5.585.07-.922.1-1.832.12-2.722v-1.319l-.028-.633v-.222a1.136,1.136,0,0,0-.032-.148,7.212,7.212,0,0,0-.788-1.759,20.769,20.769,0,0,0-1.407-2.022c-.531-.675-1.1-1.347-1.692-2.008-.3-.331-.6-.654-.9-.981l-.457-.482-.433-.447-.07-.074a2.814,2.814,0,0,1,3.929-4.024Z" transform="translate(-288.935 -133.987)" fill="#263238"/>
      <path id="Path_890" data-name="Path 890" d="M308.973,148.162c.352-.049.443-.872.162-1.407-.229-.44-1.055-.38-1.794-.19a5.628,5.628,0,0,0-1.685.675c-.746.412-.475.907-.3,1.3s.5,1.287,1.2.812A9.023,9.023,0,0,1,308.973,148.162Z" transform="translate(-282.985 -131.395)" fill="#263238"/>
      <path id="Path_891" data-name="Path 891" d="M335.486,398.686c-.053-1.122.243-2.933-2.518-1.759-1.65.7.668,2.561.668,2.561Z" transform="translate(-300.627 -293.545)" fill="#263238"/>
      <path id="Path_892" data-name="Path 892" d="M242.388,154h3.778a.517.517,0,0,1,.471.352l1.977,7.034a.271.271,0,0,1-.264.352h-3.781a.524.524,0,0,1-.468-.352l-1.977-7.034a.267.267,0,0,1,.264-.352Z" transform="translate(-242.111 -136.308)" fill="#5cd5c4"/>
      <path id="Path_893" data-name="Path 893" d="M244.75,162.4l-.791-2.754-1.379.549.5,3.257Z" transform="translate(-242.415 -139.971)" fill="#ce7a63"/>
      <path id="Path_894" data-name="Path 894" d="M254.338,154.72h0a.179.179,0,0,1,.162.13l1.98,7a.091.091,0,0,1-.091.127h0a.176.176,0,0,1-.162-.127l-1.973-7.013a.095.095,0,0,1,.084-.12Z" transform="translate(-249.981 -136.775)" opacity="0.3"/>
    </g>
    <g id="freepik--Review--inject-91" transform="translate(30.248 62.492)">
      <rect id="Rectangle_316" data-name="Rectangle 316" width="2.663" height="0.352" transform="translate(10.2)" fill="#5cd5c4"/>
      <path id="Path_895" data-name="Path 895" d="M86.352,80.289H86A3.992,3.992,0,0,1,89.971,76.3h4.783v.352H89.971a3.64,3.64,0,0,0-3.619,3.637Z" transform="translate(-86 -76.3)" fill="#5cd5c4"/>
      <rect id="Rectangle_317" data-name="Rectangle 317" width="47.036" height="12.345" rx="6.173" transform="translate(1.217 1.231)" fill="url(#linear-gradient)"/>
      <path id="Path_896" data-name="Path 896" d="M136.739,92.06l.6,1.224,1.354.2-.981.953.232,1.351-1.21-.637-1.21.637.232-1.351-.981-.953,1.354-.2Z" transform="translate(-117.623 -86.517)" fill="#fff"/>
      <path id="Path_897" data-name="Path 897" d="M152.359,92.06l.6,1.224,1.354.2-.981.953.232,1.351-1.21-.637-1.21.637.232-1.351-.981-.953,1.354-.2Z" transform="translate(-127.749 -86.517)" fill="#fff"/>
      <path id="Path_898" data-name="Path 898" d="M167.979,92.06l.6,1.224,1.354.2-.978.953.229,1.351-1.21-.637-1.21.637L167,94.434l-.981-.953,1.354-.2Z" transform="translate(-137.875 -86.517)" fill="#fff"/>
      <path id="Path_899" data-name="Path 899" d="M183.6,92.06l.6,1.224,1.354.2-.978.953.229,1.351-1.21-.637-1.21.637.232-1.351-.981-.953,1.354-.2Z" transform="translate(-148.001 -86.517)" fill="#fff"/>
      <path id="Path_900" data-name="Path 900" d="M199.213,92.861l.288.587a.352.352,0,0,0,.267.19l.647.095-.468.457a.352.352,0,0,0-.1.31l.109.647-.577-.288a.394.394,0,0,0-.165-.039.352.352,0,0,0-.162.039l-.58.306.1-.658a.352.352,0,0,0-.1-.31L198,93.741l.647-.095a.352.352,0,0,0,.274-.193l.288-.587m0-.795-.6,1.224-1.354.2.981.957L198,95.795l1.21-.637,1.21.637-.232-1.347.981-.957-1.354-.2Z" transform="translate(-158.121 -86.523)" fill="#fff" opacity="0.3"/>
      <circle id="Ellipse_45" data-name="Ellipse 45" cx="4.224" cy="4.224" r="4.224" transform="translate(5.571 3.18)" fill="#fff" opacity="0.2"/>
      <path id="Path_901" data-name="Path 901" d="M110.915,91.123a3.486,3.486,0,0,1-6.553,1.66,3.433,3.433,0,0,1-.422-1.66,3.489,3.489,0,0,1,6.975,0Z" transform="translate(-97.63 -83.719)" fill="#fff"/>
      <path id="Path_902" data-name="Path 902" d="M111.271,100.358a3.482,3.482,0,0,1-6.131,0A5.522,5.522,0,0,1,111.271,100.358Z" transform="translate(-98.408 -91.294)" fill="#263238"/>
      <path id="Path_903" data-name="Path 903" d="M112.539,91.135a1.555,1.555,0,1,1-1.555-1.555A1.555,1.555,0,0,1,112.539,91.135Z" transform="translate(-101.189 -84.909)" fill="#ffc3bd"/>
      <rect id="Rectangle_318" data-name="Rectangle 318" width="7.038" height="0.352" transform="translate(35.598 44.134)" fill="#5cd5c4"/>
      <rect id="Rectangle_319" data-name="Rectangle 319" width="47.036" height="12.345" rx="6.173" transform="translate(1.217 30.909)" fill="url(#linear-gradient)"/>
      <path id="Path_904" data-name="Path 904" d="M136.739,176.43l.6,1.228,1.354.193-.981.957.232,1.347-1.21-.637-1.21.637.232-1.347-.981-.957,1.354-.193Z" transform="translate(-117.623 -141.212)" fill="#fff"/>
      <path id="Path_905" data-name="Path 905" d="M152.359,176.43l.6,1.228,1.354.193-.981.957.232,1.347-1.21-.637-1.21.637.232-1.347-.981-.957,1.354-.193Z" transform="translate(-127.749 -141.212)" fill="#fff"/>
      <path id="Path_906" data-name="Path 906" d="M167.979,176.43l.6,1.228,1.354.193-.978.957.229,1.347-1.21-.637-1.21.637.232-1.347-.981-.957,1.354-.193Z" transform="translate(-137.875 -141.212)" fill="#fff"/>
      <path id="Path_907" data-name="Path 907" d="M183.6,176.43l.6,1.228,1.354.193-.978.957.229,1.347-1.21-.637-1.21.637.232-1.347-.981-.957,1.354-.193Z" transform="translate(-148.001 -141.212)" fill="#fff"/>
      <path id="Path_908" data-name="Path 908" d="M199.219,176.43l.6,1.228,1.354.193-.978.957.229,1.347-1.21-.637-1.21.637.232-1.347-.981-.957,1.354-.193Z" transform="translate(-158.127 -141.212)" fill="#fff"/>
      <circle id="Ellipse_46" data-name="Ellipse 46" cx="4.224" cy="4.224" r="4.224" transform="translate(3.824 37.082) rotate(-45)" fill="#fff" opacity="0.2"/>
      <path id="Path_909" data-name="Path 909" d="M110.915,175.493a3.486,3.486,0,0,1-6.553,1.664,3.447,3.447,0,0,1-.422-1.664,3.489,3.489,0,0,1,6.975,0Z" transform="translate(-97.63 -138.415)" fill="#fff"/>
      <path id="Path_910" data-name="Path 910" d="M111.271,184.738a3.486,3.486,0,0,1-6.131,0A5.522,5.522,0,0,1,111.271,184.738Z" transform="translate(-98.408 -145.996)" fill="#5cd5c4" opacity="0.5"/>
      <path id="Path_911" data-name="Path 911" d="M112.539,175.471a1.555,1.555,0,1,1-1.555-1.551A1.555,1.555,0,0,1,112.539,175.471Z" transform="translate(-101.189 -139.585)" fill="#ffb573"/>
      <rect id="Rectangle_320" data-name="Rectangle 320" width="47.036" height="12.345" rx="6.173" transform="translate(1.217 16.07)" fill="url(#linear-gradient)"/>
      <path id="Path_912" data-name="Path 912" d="M214.114,142.54l-2.954,5.118h7.386Z" transform="translate(-167.138 -120.295)" fill="url(#linear-gradient-7)"/>
      <path id="Path_913" data-name="Path 913" d="M136.739,134.24l.6,1.228,1.354.2-.981.953.232,1.347-1.21-.637-1.21.637.232-1.347-.981-.953,1.354-.2Z" transform="translate(-117.623 -113.861)" fill="#fff"/>
      <path id="Path_914" data-name="Path 914" d="M152.359,134.24l.6,1.228,1.354.2-.981.953.232,1.347-1.21-.637-1.21.637.232-1.347-.981-.953,1.354-.2Z" transform="translate(-127.749 -113.861)" fill="#fff"/>
      <path id="Path_915" data-name="Path 915" d="M167.973,135.041l.288.587a.352.352,0,0,0,.267.193l.644.1-.468.457a.352.352,0,0,0-.1.31l.109.647-.577-.306a.352.352,0,0,0-.165-.042.327.327,0,0,0-.162.042l-.58.306.109-.647a.352.352,0,0,0-.1-.31l-.468-.457.647-.095a.352.352,0,0,0,.267-.193l.288-.587m0-.795-.6,1.228-1.354.2.981.953-.232,1.347,1.21-.637,1.21.637-.232-1.347.981-.953-1.354-.2Z" transform="translate(-137.869 -113.868)" fill="#fff" opacity="0.3"/>
      <path id="Path_916" data-name="Path 916" d="M183.6,135.035l.288.587a.352.352,0,0,0,.267.193l.647.095-.468.457a.352.352,0,0,0-.1.309l.109.647-.577-.306a.351.351,0,0,0-.165-.042.327.327,0,0,0-.162.042l-.58.306.109-.647a.352.352,0,0,0-.1-.309l-.468-.457.647-.1a.352.352,0,0,0,.267-.193l.288-.587m0-.795-.6,1.228-1.354.2.981.953-.232,1.347,1.21-.637,1.21.637-.229-1.347.981-.953-1.354-.2-.6-1.228Z" transform="translate(-148.001 -113.861)" fill="#fff" opacity="0.3"/>
      <path id="Path_917" data-name="Path 917" d="M199.219,135.035l.288.587a.352.352,0,0,0,.267.193l.647.095-.468.457a.352.352,0,0,0-.1.31l.109.647-.577-.306a.351.351,0,0,0-.165-.042.327.327,0,0,0-.162.042l-.58.306.109-.647a.352.352,0,0,0-.1-.31l-.468-.457.647-.095a.352.352,0,0,0,.267-.193l.288-.587m0-.795-.6,1.228-1.354.2.981.953-.232,1.347,1.21-.637,1.21.637-.232-1.347.981-.953-1.354-.2-.6-1.228Z" transform="translate(-158.127 -113.861)" fill="#fff" opacity="0.3"/>
      <circle id="Ellipse_47" data-name="Ellipse 47" cx="4.224" cy="4.224" r="4.224" transform="translate(5.571 18.019)" fill="#fff" opacity="0.2"/>
      <path id="Path_918" data-name="Path 918" d="M110.911,132.9a3.486,3.486,0,0,1-6.553,1.66,3.433,3.433,0,0,1-.422-1.66,3.489,3.489,0,1,1,6.975,0Z" transform="translate(-97.627 -110.662)" fill="#fff"/>
      <path id="Path_919" data-name="Path 919" d="M111.271,142.548a3.486,3.486,0,0,1-6.131,0,5.522,5.522,0,0,1,6.131,0Z" transform="translate(-98.408 -118.645)" fill="#5cd5c4"/>
      <path id="Path_920" data-name="Path 920" d="M112.539,133.285a1.551,1.551,0,1,1-.454-1.1A1.555,1.555,0,0,1,112.539,133.285Z" transform="translate(-101.189 -112.234)" fill="#b55b52"/>
    </g>
  </g>
</svg>
