<svg width="226" height="140" viewBox="0 0 226 140" fill="none" xmlns="http://www.w3.org/2000/svg">
<path d="M225.301 17.2781C221.199 34.88 213.527 51.4579 202.76 65.9907C187.573 86.533 168.327 103.752 146.209 116.585C144.812 117.321 143.517 118.195 142.198 119.027L139.84 120.489L139.561 120.636C117.965 131.675 94.2403 137.947 69.9982 139.027C51.1016 140.04 32.1655 137.981 13.9313 132.93L13.3404 132.748C9.43134 132.014 5.9229 129.888 3.46835 126.766C1.57942 124.234 0.542068 121.171 0.504787 118.015C0.467506 114.859 1.43222 111.772 3.2608 109.196C5.27977 106.374 8.14216 104.261 11.4383 103.159C14.7345 102.058 18.2955 102.025 21.6117 103.065C43.5328 110.733 67.0923 112.502 89.9169 108.196C104.847 105.59 119.112 100.059 131.887 91.9239C143.863 84.6239 154.957 75.9746 164.951 66.1463C177.592 53.1472 187.138 37.4764 192.881 20.2956L193.556 18.405C194.572 15.2766 195.752 12.2034 197.09 9.19806C197.902 7.36499 199.073 5.71189 200.533 4.33545C201.993 2.95902 203.714 1.88688 205.595 1.18174C207.559 0.476891 209.644 0.168695 211.729 0.275074C213.814 0.381453 215.856 0.900273 217.738 1.80138C220.675 3.01572 223.066 5.25986 224.459 8.11073C225.852 10.9616 226.151 14.2223 225.301 17.2781Z" fill="white" fill-opacity="0.2"/>
</svg>
