<svg width="704" height="718" viewBox="0 0 704 718" fill="none" xmlns="http://www.w3.org/2000/svg">
<g clip-path="url(#clip0)">
<path d="M507.301 373.278C503.199 390.88 495.527 407.458 484.76 421.991C469.573 442.533 450.327 459.752 428.209 472.585C426.812 473.321 425.517 474.195 424.198 475.027L421.84 476.489L421.561 476.636C399.965 487.675 376.24 493.947 351.998 495.027C333.102 496.04 314.165 493.981 295.931 488.93L295.34 488.748C291.431 488.014 287.923 485.888 285.468 482.766C283.579 480.234 282.542 477.171 282.505 474.015C282.468 470.859 283.432 467.772 285.261 465.196C287.28 462.374 290.142 460.261 293.438 459.159C296.735 458.058 300.295 458.025 303.612 459.065C325.533 466.733 349.092 468.502 371.917 464.196C386.847 461.59 401.112 456.059 413.887 447.924C425.863 440.624 436.957 431.975 446.951 422.146C459.592 409.147 469.138 393.476 474.881 376.296L475.556 374.405C476.572 371.277 477.752 368.203 479.09 365.198C479.902 363.365 481.073 361.712 482.533 360.335C483.993 358.959 485.714 357.887 487.595 357.182C489.559 356.477 491.644 356.169 493.729 356.275C495.814 356.381 497.856 356.9 499.738 357.801C502.675 359.016 505.066 361.26 506.459 364.111C507.852 366.962 508.151 370.222 507.301 373.278Z" fill="white" fill-opacity="0.2"/>
<path d="M296.088 398.257C295.305 399.731 294.095 400.936 292.616 401.716C291.137 402.495 289.457 402.812 287.795 402.626L282.729 402.554C279.74 402.566 276.751 402.578 273.773 402.557C262.37 402.507 253.249 407.284 245.843 417.271C241.317 423.41 237.713 428.488 234.528 433.318C233.971 434.187 233.37 435.024 232.77 435.862C231.878 437.171 230.693 438.256 229.308 439.028C227.743 439.841 225.952 440.11 224.217 439.792C222.531 439.442 220.998 438.573 219.835 437.307C218.671 436.041 217.936 434.442 217.733 432.737C216.227 426.012 216.124 419.051 217.429 412.285C220.22 397.11 227.994 385.532 239.869 378.536L240.063 378.434C247.845 374.316 256.685 372.614 265.445 373.548C274.205 374.482 282.485 378.009 289.22 383.676C290.911 385.075 292.519 386.57 294.037 388.155C295.498 389.342 296.501 390.997 296.876 392.84C297.25 394.682 296.971 396.597 296.088 398.257Z" fill="white" fill-opacity="0.2"/>
<path d="M500.092 290.79C499.417 292.368 498.262 293.696 496.79 294.584C495.318 295.473 493.603 295.878 491.888 295.742C486.929 295.613 482.039 295.668 477.148 295.668C471.854 295.648 466.636 296.921 461.949 299.376C457.261 301.831 453.248 305.393 450.258 309.751C446.288 314.967 442.51 320.493 438.836 325.855L436.994 328.552C436.04 330.071 434.729 331.335 433.175 332.236C431.54 333.095 429.645 333.322 427.852 332.874C426.099 332.484 424.522 331.532 423.361 330.164C422.2 328.796 421.52 327.087 421.423 325.298C417.967 304.396 423.99 287.436 439.272 274.781C440.51 273.812 441.82 272.939 443.191 272.168L444.652 271.398L445.06 271.183C453.888 266.767 463.944 265.431 473.623 267.388C483.302 269.345 492.043 274.483 498.45 281.979C499.557 283.127 500.303 284.573 500.595 286.139C500.887 287.705 500.712 289.322 500.092 290.79Z" fill="white" fill-opacity="0.2"/>
</g>
<defs>
<clipPath id="clip0">
<rect width="531.474" height="530.717" fill="white" transform="matrix(0.884742 -0.466081 0.467928 0.883767 0 248.185)"/>
</clipPath>
</defs>
</svg>
