<svg width="38" height="38" viewBox="0 0 38 38" fill="none" xmlns="http://www.w3.org/2000/svg">
<g clip-path="url(#clip0)">
<path d="M1.96168 2.63574C1.58591 3.06193 1.25756 3.52769 0.982422 4.02482C1.22805 3.57341 1.51893 3.14813 1.85056 2.75555C1.88528 2.71561 1.91827 2.67568 1.953 2.63748L1.96168 2.63574Z" fill="#00E0B7"/>
<path d="M0.0503518 9.42499C0.0477474 9.45735 0.0477474 9.48987 0.0503518 9.52223C0.0749273 9.72321 0.171826 9.90838 0.322946 10.0431C0.563579 10.2745 0.850613 10.452 1.16504 10.564C1.93874 10.8395 2.74458 11.0146 3.56283 11.0849C4.65873 11.1975 5.76013 11.2479 6.86174 11.236C7.14301 11.236 7.42429 11.2082 7.70557 11.2082C7.8462 11.2082 7.91045 11.1613 7.92781 11.052C7.92498 11.004 7.92498 10.9558 7.92781 10.9078C7.93649 10.413 7.92781 9.91985 7.94517 9.42326C7.94517 9.87471 7.94517 10.3262 7.94517 10.7776C7.94517 11.1474 7.91392 11.1162 8.29243 11.1249C12.1678 11.1405 16.0449 11.1249 19.9254 11.1492C23.2434 11.1752 26.5649 11.1492 29.8847 11.1492C29.9428 11.1528 30.0011 11.1493 30.0583 11.1388H30.0757H30.0896C30.0939 11.1362 30.0974 11.1326 30.1 11.1283C30.1066 11.1229 30.1114 11.1157 30.1139 11.1075C30.1213 11.0917 30.1255 11.0746 30.126 11.0572C30.1288 11.0092 30.1288 10.961 30.126 10.913C30.1156 10.3696 30.126 9.82609 30.1069 9.28261C30.1069 8.98222 30.0948 8.68183 30.0896 8.38145C30.0896 8.18524 30.0896 7.99077 30.0896 7.79456V7.2997C30.0896 7.20941 30.0896 7.12607 30.0896 7.03057V6.58085C30.0896 6.42979 30.0896 6.27873 30.0896 6.1294C30.0896 5.98008 30.0896 5.82901 30.0896 5.67969C30.3969 6.16587 30.857 6.42284 31.3518 6.63294C32.22 7.00279 33.1437 7.19726 34.0569 7.41951C35.0379 7.65739 36.0293 7.86401 36.953 8.28768C37.3035 8.42924 37.6106 8.66036 37.8437 8.95791C37.947 9.09005 38.0141 9.24686 38.0382 9.41284V9.51528C38.0382 16.7177 38.0382 23.9206 38.0382 31.1241C37.8121 32.8989 36.9914 34.5446 35.71 35.793C34.4286 37.0414 32.762 37.8188 30.982 37.9983C23.0334 37.9983 15.0841 37.9983 7.13433 37.9983C5.28021 37.8211 3.54808 36.9953 2.243 35.6664C0.937932 34.3374 0.143632 32.5906 0 30.7335H0" fill="#5CD5C4"/>
<path fill-rule="evenodd" clip-rule="evenodd" d="M36.0829 2.6271C35.7218 2.7087 35.3572 2.77642 34.9943 2.84588C33.9649 3.0173 32.9472 3.25275 31.9471 3.55083C31.4886 3.68264 31.0542 3.88724 30.6606 4.15682C30.4659 4.27962 30.3063 4.45059 30.1971 4.65318C30.0879 4.85577 30.0328 5.08312 30.0372 5.31323V5.67786C30.0372 5.82719 30.0372 5.97825 30.0372 6.12758C30.0372 6.2769 30.0372 6.42796 30.0372 6.57903V7.02874C30.0372 7.11903 30.0372 7.20238 30.0372 7.29787V7.79273C30.0372 7.98894 30.0372 8.18341 30.0372 8.37962C30.0372 8.68001 30.0477 8.9804 30.0546 9.28079C30.0668 9.82426 30.0546 10.3677 30.0737 10.9112C30.0765 10.9592 30.0765 11.0073 30.0737 11.0553C30.0732 11.0728 30.069 11.0899 30.0615 11.1057C30.0591 11.1138 30.0542 11.1211 30.0477 11.1265C30.0451 11.1308 30.0415 11.1344 30.0372 11.1369H30.0233H30.006C29.9488 11.1475 29.8904 11.151 29.8324 11.1474C26.5126 11.1474 23.1911 11.1647 19.8731 11.1474C15.9978 11.1161 12.1207 11.1474 8.24011 11.1231C7.87028 11.1231 7.89285 11.1526 7.89285 10.7758C7.89285 10.3243 7.89285 9.87288 7.89285 9.42143C7.89285 8.18688 7.89285 6.95408 7.91022 5.71953V5.67612C7.93105 4.66731 7.67929 4.24885 6.60281 3.76614C6.28277 3.62564 5.95392 3.50615 5.61834 3.40845L5.47423 3.36852C5.34748 3.33205 5.219 3.29906 5.09051 3.26781C5.02627 3.25045 4.96029 3.23655 4.89605 3.22093C4.44462 3.11675 3.98625 3.03167 3.53135 2.94138C3.25875 2.88581 2.98442 2.83546 2.71009 2.78337C2.57292 2.75732 2.4375 2.73128 2.30033 2.70176C2.16316 2.67224 2.03642 2.64793 1.90446 2.61841H1.89404C3.20524 1.13682 5.02541 0.202221 6.99347 0L31.0252 0C32.9798 0.214055 34.7838 1.15108 36.0829 2.6271Z" fill="#37A596"/>
<path d="M37.9978 6.84628V9.41434C37.9737 9.24836 37.9067 9.09155 37.8034 8.95942C37.5703 8.66186 37.2631 8.43074 36.9127 8.28919C35.989 7.86205 35.0028 7.65542 34.0166 7.42101C33.1033 7.19876 32.1831 7.00429 31.3115 6.63445C30.8166 6.42435 30.3565 6.16737 30.0492 5.68119V5.31656C30.0439 5.08727 30.0976 4.86046 30.2052 4.65794C30.3129 4.45542 30.4708 4.284 30.6638 4.16015C31.0562 3.88968 31.4894 3.68391 31.9469 3.55069C32.9476 3.25253 33.9659 3.01709 34.9958 2.84573C35.3587 2.77628 35.7233 2.70856 36.0845 2.62695C37.1304 3.81005 37.7969 5.27996 37.9978 6.84628Z" fill="#5CD5C4"/>
<path d="M7.96768 5.68659V5.73C7.6621 6.18666 7.21588 6.42454 6.73667 6.63637C5.86853 7.00448 4.94484 7.20069 4.03156 7.42294C3.05057 7.66082 2.05916 7.86744 1.13546 8.29111C0.784916 8.43337 0.4778 8.66506 0.244755 8.96308C0.141521 9.09526 0.0744994 9.25205 0.050293 9.41801V7.20069C0.136116 6.09041 0.451855 5.01011 0.977461 4.02838V4.01969C1.2526 3.52256 1.58095 3.0568 1.95672 2.63062C2.08867 2.66013 2.22063 2.68965 2.35259 2.71396C2.48454 2.73827 2.62518 2.76952 2.76235 2.79557C3.03668 2.84766 3.31101 2.89801 3.5836 2.95358C4.0385 3.04387 4.49688 3.12721 4.94831 3.23313C5.01255 3.24876 5.07853 3.26265 5.14277 3.28001C5.27126 3.31126 5.39974 3.34425 5.52649 3.38072L5.6706 3.42065C6.00618 3.51835 6.33503 3.63784 6.65506 3.77834C7.73676 4.25931 7.98678 4.67777 7.96768 5.68659Z" fill="#5CD5C4"/>
<path d="M7.93312 10.9164C7.93029 10.9644 7.93029 11.0125 7.93312 11.0605C7.91576 11.1699 7.85152 11.2168 7.71088 11.2168C7.4296 11.2168 7.14833 11.2446 6.86705 11.2446C5.76544 11.2565 4.66405 11.2061 3.56814 11.0935C2.74989 11.0231 1.94405 10.8481 1.17035 10.5726C0.855926 10.4606 0.568891 10.2831 0.328259 10.0517C0.177138 9.91697 0.0802398 9.7318 0.0556643 9.53082C0.0530598 9.49846 0.0530598 9.46594 0.0556643 9.43359C0.0801603 9.26823 0.147167 9.11208 0.250127 8.9804C0.483172 8.68238 0.790288 8.45069 1.14083 8.30843C2.06453 7.88302 3.05073 7.6764 4.03693 7.44026C4.95021 7.218 5.87217 7.0218 6.74204 6.65369C7.22125 6.45054 7.66747 6.20397 7.97305 5.74731C7.94875 6.98186 7.95396 8.21467 7.95569 9.44921C7.94007 9.92844 7.9418 10.4181 7.93312 10.9164Z" fill="#D6FFF7"/>
<path fill-rule="evenodd" clip-rule="evenodd" d="M37.9982 9.51694C37.9739 9.71802 37.877 9.90329 37.7256 10.0378C37.4849 10.2692 37.1979 10.4467 36.8835 10.5587C36.1098 10.8342 35.3039 11.0093 34.4857 11.0797C33.3898 11.1923 32.2884 11.2427 31.1868 11.2307C30.9055 11.2307 30.6242 11.2029 30.343 11.2029C30.2006 11.2029 30.1363 11.1561 30.119 11.0467C30.1218 10.9987 30.1218 10.9505 30.119 10.9025C30.1086 10.3591 30.119 9.81559 30.0999 9.27211C30.0999 8.97173 30.0877 8.67134 30.0825 8.37095C30.0825 8.17474 30.0825 7.98027 30.0825 7.78406V7.2892C30.0825 7.19891 30.0825 7.11557 30.0825 7.02007V6.57035C30.0825 6.41929 30.0825 6.26823 30.0825 6.1189C30.0825 5.96958 30.0825 5.81852 30.0825 5.66919C30.3898 6.15537 30.85 6.41235 31.3448 6.62244C32.2129 6.99229 33.1366 7.18676 34.0499 7.40901C35.0309 7.64689 36.0223 7.85352 36.946 8.27719C37.2965 8.41874 37.6036 8.64986 37.8367 8.94742C37.94 9.07955 38.007 9.23636 38.0312 9.40234C38.024 9.44153 38.0129 9.47992 37.9982 9.51694Z" fill="#D6FFF7"/>
<path d="M27.8708 24.8542C27.0227 25.8324 25.9833 26.6265 24.8167 27.1878C23.1698 27.9824 21.3776 28.4309 19.5506 28.5057C19.4378 28.5057 19.3266 28.5179 19.2155 28.5266L19.0176 28.5405H18.995C17.2611 28.5191 15.5521 28.1247 13.9841 27.3841C12.7562 26.8176 11.6285 26.0553 10.6453 25.1268L10.614 25.0956C10.3916 24.9186 10.241 24.6668 10.1904 24.3871C10.1557 24.1637 10.1927 23.935 10.2959 23.7338C10.3991 23.5327 10.5634 23.3693 10.7651 23.2672C10.9871 23.1557 11.2387 23.1174 11.4838 23.1576C11.7289 23.1979 11.955 23.3146 12.1298 23.4912C13.2584 24.7085 14.6879 25.6068 16.2743 26.0957C17.3049 26.4289 18.3913 26.5546 19.4707 26.4655C20.4717 26.4027 21.4621 26.225 22.4224 25.9359C23.6561 25.5343 24.7836 24.8602 25.7213 23.9635L25.8272 23.8662C25.9961 23.7019 26.1734 23.5466 26.3585 23.4009C26.4712 23.3119 26.6005 23.2462 26.7388 23.2077C26.8771 23.1693 27.0217 23.1588 27.1642 23.1769C27.3119 23.1978 27.4539 23.2478 27.5821 23.3242C27.7103 23.4005 27.822 23.5015 27.9108 23.6214C28.0557 23.7963 28.1317 24.0183 28.1243 24.2454C28.117 24.4725 28.0268 24.689 27.8708 24.8542Z" fill="white"/>
<path d="M13.6884 19.3881C13.5896 19.4554 13.4728 19.4914 13.3533 19.4914C13.2338 19.4914 13.117 19.4554 13.0182 19.3881L12.7005 19.2145C12.5112 19.1155 12.322 19.0166 12.1344 18.9158C11.4156 18.5321 10.6794 18.5304 9.87729 18.9158C9.38592 19.1537 8.98832 19.3551 8.62544 19.5548C8.5612 19.5913 8.49522 19.6243 8.42924 19.6573C8.3291 19.7105 8.21793 19.7396 8.10456 19.7423C7.9785 19.7416 7.85629 19.6989 7.7573 19.6208C7.66249 19.5424 7.59472 19.4362 7.56356 19.3171C7.53241 19.1981 7.53944 19.0723 7.58368 18.9575C7.71347 18.4813 7.93982 18.0368 8.24867 17.6518C8.93276 16.7836 9.81131 16.3096 10.7958 16.2627H10.8114C11.441 16.2615 12.0565 16.4487 12.5788 16.8002C13.1011 17.1517 13.5063 17.6515 13.7422 18.2352C13.8023 18.3803 13.8539 18.5287 13.8967 18.6797C13.9494 18.8036 13.9574 18.942 13.9194 19.0712C13.8814 19.2004 13.7998 19.3124 13.6884 19.3881Z" fill="white"/>
<path d="M30.1747 19.3881C30.0793 19.4656 29.9619 19.5111 29.8391 19.5183C29.7164 19.5255 29.5945 19.4939 29.4907 19.428C29.1816 19.2544 28.8708 19.0947 28.5618 18.9315C28.2279 18.7535 27.8556 18.66 27.4772 18.6591C27.0989 18.6582 26.7261 18.7499 26.3914 18.9262C25.966 19.1242 25.5424 19.3482 25.1309 19.5652L24.9243 19.6746C24.8131 19.739 24.688 19.7753 24.5597 19.7805C24.4276 19.7804 24.3003 19.7315 24.202 19.6434C24.1043 19.5601 24.0364 19.4472 24.0089 19.3218C23.9813 19.1964 23.9954 19.0654 24.0492 18.9488C24.5302 17.5094 25.4782 16.636 26.8672 16.3443C26.9778 16.3243 27.0898 16.3126 27.2023 16.3096H27.3203H27.3533C28.0588 16.3244 28.739 16.5754 29.2851 17.0223C29.8312 17.4693 30.2117 18.0865 30.3657 18.7752C30.3973 18.8848 30.3961 19.0013 30.3621 19.1103C30.3282 19.2192 30.263 19.3158 30.1747 19.3881Z" fill="white"/>
</g>
<defs>
<clipPath id="clip0">
<rect width="38" height="38" fill="white"/>
</clipPath>
</defs>
</svg>
