<svg width="81" height="68" viewBox="0 0 81 68" fill="none" xmlns="http://www.w3.org/2000/svg">
<path d="M80.092 24.7895C79.417 26.3682 78.262 27.6956 76.7899 28.5841C75.3179 29.4727 73.6032 29.8777 71.888 29.7418C66.929 29.6133 62.0392 29.6675 57.1483 29.6676C51.8542 29.6479 46.6358 30.921 41.9486 33.3759C37.2614 35.8308 33.2479 39.3928 30.2583 43.751C26.2881 48.9671 22.5097 54.4934 18.8362 59.8547L16.9944 62.5518C16.0396 64.0707 14.7287 65.3351 13.1748 66.2359C11.5399 67.0948 9.6449 67.3221 7.85246 66.8744C6.09906 66.4837 4.52177 65.5319 3.36098 64.1641C2.2002 62.7962 1.51958 61.0873 1.42286 59.2978C-2.0328 38.3959 3.9902 21.4361 19.2717 8.78113C20.51 7.81237 21.8203 6.93887 23.1913 6.16811L24.6522 5.39847L25.0604 5.18344C33.8877 0.767407 43.9444 -0.568888 53.623 1.38819C63.3015 3.34528 72.0429 8.48271 78.4497 15.9792C79.5572 17.1266 80.3031 18.5728 80.595 20.1388C80.8869 21.7048 80.712 23.3217 80.092 24.7895Z" fill="white" fill-opacity="0.2"/>
</svg>
