<svg id="confused" xmlns="http://www.w3.org/2000/svg" width="38.733" height="38.639" viewBox="0 0 38.733 38.639">
  <ellipse id="Ellipse_52" data-name="Ellipse 52" cx="19.365" cy="19.295" rx="19.365" ry="19.295" transform="translate(0 0)" fill="#ffd93b"/>
  <path id="Path_1106" data-name="Path 1106" d="M91.122,71.778a19.345,19.345,0,0,1-34.4,12.144,19.345,19.345,0,0,0,27.2-27.2A19.323,19.323,0,0,1,91.122,71.778Z" transform="translate(-52.389 -52.483)" fill="#f4c534"/>
  <g id="Group_1843" data-name="Group 1843" transform="translate(10.349 12.717)">
    <path id="Path_1107" data-name="Path 1107" d="M158.738,331.532a1.051,1.051,0,0,1-1.052,1.052h-15.21a1.052,1.052,0,0,1,0-2.1h15.21A1.051,1.051,0,0,1,158.738,331.532Z" transform="translate(-141.042 -318.274)" fill="#3e4347"/>
    <ellipse id="Ellipse_53" data-name="Ellipse 53" cx="2.882" cy="2.882" rx="2.882" ry="2.882" fill="#3e4347"/>
  </g>
  <ellipse id="Ellipse_54" data-name="Ellipse 54" cx="0.757" cy="0.49" rx="0.757" ry="0.49" transform="translate(14.511 15.321) rotate(-126.653)" fill="#5a5f63"/>
  <ellipse id="Ellipse_55" data-name="Ellipse 55" cx="2.882" cy="2.882" rx="2.882" ry="2.882" transform="translate(22.66 12.717)" fill="#3e4347"/>
  <ellipse id="Ellipse_56" data-name="Ellipse 56" cx="0.757" cy="0.49" rx="0.757" ry="0.49" transform="matrix(-0.597, -0.802, 0.802, -0.597, 26.822, 15.324)" fill="#5a5f63"/>
</svg>
