<svg id="happy_1_" data-name="happy (1)" xmlns="http://www.w3.org/2000/svg" width="38.746" height="38.639" viewBox="0 0 38.746 38.639">
  <ellipse id="Ellipse_47" data-name="Ellipse 47" cx="19.365" cy="19.295" rx="19.365" ry="19.295" transform="translate(0 0)" fill="#ffd93b"/>
  <path id="Path_1104" data-name="Path 1104" d="M91.122,71.778a19.345,19.345,0,0,1-34.4,12.144,19.345,19.345,0,0,0,27.2-27.2A19.323,19.323,0,0,1,91.122,71.778Z" transform="translate(-52.375 -52.483)" fill="#f4c534"/>
  <circle id="Ellipse_48" data-name="Ellipse 48" cx="3.036" cy="3.036" r="3.036" transform="translate(23.483 13.962)" fill="#3e4347"/>
  <ellipse id="Ellipse_49" data-name="Ellipse 49" cx="0.919" cy="0.595" rx="0.919" ry="0.595" transform="matrix(-0.914, -0.405, 0.405, -0.914, 27.979, 16.569)" fill="#5a5f63"/>
  <circle id="Ellipse_50" data-name="Ellipse 50" cx="3.036" cy="3.036" r="3.036" transform="translate(9.251 13.962)" fill="#3e4347"/>
  <ellipse id="Ellipse_51" data-name="Ellipse 51" cx="0.919" cy="0.595" rx="0.919" ry="0.595" transform="matrix(-0.914, -0.405, 0.405, -0.914, 13.746, 16.569)" fill="#5a5f63"/>
  <path id="Path_1105" data-name="Path 1105" d="M147.644,337.891a.907.907,0,0,1,1.243-1.32,9.76,9.76,0,0,0,13.362,0,.907.907,0,1,1,1.243,1.32A11.575,11.575,0,0,1,147.644,337.891Z" transform="translate(-136.165 -310.96)" fill="#3e4347"/>
</svg>
