<svg id="happy" xmlns="http://www.w3.org/2000/svg" width="38.73" height="38.639" viewBox="0 0 38.73 38.639">
  <ellipse id="Ellipse_46" data-name="Ellipse 46" cx="19.365" cy="19.295" rx="19.365" ry="19.295" transform="translate(0 0)" fill="#ffd93b"/>
  <path id="Path_1100" data-name="Path 1100" d="M116.456,308.691a11.912,11.912,0,0,1-11.362-8.285.906.906,0,1,1,1.725-.557,10.12,10.12,0,0,0,19.273,0,.907.907,0,1,1,1.725.557A11.912,11.912,0,0,1,116.456,308.691Z" transform="translate(-97.114 -276.659)" fill="#3e4347"/>
  <path id="Path_1101" data-name="Path 1101" d="M91.121,71.778a19.345,19.345,0,0,1-34.4,12.144,19.345,19.345,0,0,0,27.2-27.2A19.323,19.323,0,0,1,91.121,71.778Z" transform="translate(-52.436 -52.483)" fill="#f4c534"/>
  <g id="Group_1842" data-name="Group 1842" transform="translate(7.282 11.802)">
    <path id="Path_1102" data-name="Path 1102" d="M105.244,161.165a5.759,5.759,0,0,0-8.844.008,4.423,4.423,0,0,1,8.844-.008Z" transform="translate(-96.4 -156.832)" fill="#3e4347"/>
    <path id="Path_1103" data-name="Path 1103" d="M307.42,161.165a5.759,5.759,0,0,0-8.844.008,4.423,4.423,0,0,1,8.844-.008Z" transform="translate(-283.299 -156.832)" fill="#3e4347"/>
  </g>
</svg>
