<svg id="in-love" xmlns="http://www.w3.org/2000/svg" width="38.623" height="38.639" viewBox="0 0 38.623 38.639">
  <circle id="Ellipse_57" data-name="Ellipse 57" cx="19.295" cy="19.295" r="19.295" transform="translate(0 0)" fill="#ffd93b"/>
  <path id="Path_1108" data-name="Path 1108" d="M91.122,71.778a19.345,19.345,0,0,1-34.4,12.144,19.345,19.345,0,0,0,27.2-27.2A19.323,19.323,0,0,1,91.122,71.778Z" transform="translate(-52.498 -52.483)" fill="#f4c534"/>
  <path id="Path_1109" data-name="Path 1109" d="M137.793,308.275c1.7.465-1.024,9.5-10,9.57-8.978-.066-11.7-9.1-10-9.57,1.359-.67,5,3.042,10,3.042C132.858,311.315,136.434,307.6,137.793,308.275Z" transform="translate(-108.51 -284.955)" fill="#3e4347"/>
  <path id="Path_1110" data-name="Path 1110" d="M95.59,143.93a.335.335,0,0,1-.427.081c-1.088-.572-5.465-3.022-5.884-5.3a2.652,2.652,0,0,1,4.763-2.031,2.62,2.62,0,0,1,2.079-1.926,2.648,2.648,0,0,1,3.087,2.128C99.628,139.159,96.4,143,95.59,143.93Z" transform="translate(-82.555 -124.576)" fill="#e24b4b"/>
  <path id="Path_1111" data-name="Path 1111" d="M96.036,155.961c-.185.226-.347.411-.459.54a.335.335,0,0,1-.427.081c-1.088-.572-5.465-3.022-5.884-5.3a2.638,2.638,0,0,1,1.7-2.974,2.648,2.648,0,0,0-.758,2.385C90.62,152.938,94.867,155.348,96.036,155.961Z" transform="translate(-82.542 -137.146)" fill="#d03f3f"/>
  <g id="Group_1844" data-name="Group 1844" transform="translate(13.754 11.02)" opacity="0.2">
    <ellipse id="Ellipse_58" data-name="Ellipse 58" cx="1.048" cy="0.706" rx="1.048" ry="0.706" transform="translate(0.766 2.467) rotate(-111.433)" fill="#fff"/>
  </g>
  <path id="Path_1112" data-name="Path 1112" d="M288.024,143.93a.335.335,0,0,0,.427.081c1.088-.572,5.465-3.022,5.884-5.3a2.652,2.652,0,0,0-4.763-2.031,2.62,2.62,0,0,0-2.079-1.926,2.648,2.648,0,0,0-3.087,2.128C283.986,139.159,287.209,143,288.024,143.93Z" transform="translate(-262.944 -124.576)" fill="#e24b4b"/>
  <path id="Path_1113" data-name="Path 1113" d="M326.672,155.961c.185.226.347.411.459.54a.335.335,0,0,0,.427.081c1.088-.572,5.465-3.022,5.884-5.3a2.638,2.638,0,0,0-1.7-2.974,2.648,2.648,0,0,1,.758,2.385C332.088,152.938,327.84,155.348,326.672,155.961Z" transform="translate(-302.052 -137.146)" fill="#d03f3f"/>
  <g id="Group_1845" data-name="Group 1845" transform="translate(22.277 11.022)" opacity="0.2">
    <ellipse id="Ellipse_59" data-name="Ellipse 59" cx="0.706" cy="1.048" rx="0.706" ry="1.048" transform="translate(1.314 2.467) rotate(-158.567)" fill="#fff"/>
  </g>
  <path id="Path_1114" data-name="Path 1114" d="M200.83,393.059a11.46,11.46,0,0,0,4.512-.918,4.742,4.742,0,0,0-1.5-2.153,2.093,2.093,0,0,0-1.985-.316,4.373,4.373,0,0,1-1.319.2,4.619,4.619,0,0,1-1.051-.123,2.137,2.137,0,0,0-2.04.571,4.73,4.73,0,0,0-1.13,1.824A11.453,11.453,0,0,0,200.83,393.059Z" transform="translate(-181.549 -360.169)" fill="#e24b4b"/>
</svg>
