<svg id="sad" xmlns="http://www.w3.org/2000/svg" width="38.654" height="38.639" viewBox="0 0 38.654 38.639">
  <circle id="Ellipse_60" data-name="Ellipse 60" cx="19.295" cy="19.295" r="19.295" transform="translate(0 0)" fill="#ffd93b"/>
  <path id="Path_1115" data-name="Path 1115" d="M91.122,71.778a19.345,19.345,0,0,1-34.4,12.144,19.345,19.345,0,0,0,27.2-27.2A19.323,19.323,0,0,1,91.122,71.778Z" transform="translate(-52.468 -52.483)" fill="#f4c534"/>
  <g id="Group_1846" data-name="Group 1846" transform="translate(7.943 17.557)">
    <path id="Path_1116" data-name="Path 1116" d="M114.292,234.168c0,2.064-1.955,3.732-4.362,3.732s-4.362-1.668-4.362-3.732a3.005,3.005,0,0,1,.23-1.176c.571,1.6,2.208,2.141,4.132,2.141s3.563-.545,4.132-2.141A3.031,3.031,0,0,1,114.292,234.168Z" transform="translate(-105.568 -232.992)" fill="#3e4347"/>
    <path id="Path_1117" data-name="Path 1117" d="M290.976,234.168c0,2.064,1.955,3.732,4.362,3.732s4.362-1.668,4.362-3.732a3.006,3.006,0,0,0-.23-1.176c-.571,1.6-2.208,2.141-4.132,2.141s-3.563-.545-4.132-2.141A3.031,3.031,0,0,0,290.976,234.168Z" transform="translate(-276.966 -232.992)" fill="#3e4347"/>
  </g>
  <g id="Group_1847" data-name="Group 1847" transform="translate(9.474 11.249)">
    <path id="Path_1118" data-name="Path 1118" d="M303.431,154.664c-3.068-.631-4.869-1.923-5.665-4.069a.806.806,0,0,1,1.511-.561c.4,1.074,1.267,2.39,4.478,3.05a.807.807,0,0,1-.324,1.58Z" transform="translate(-284.727 -149.508)" fill="#e9b02c"/>
    <path id="Path_1119" data-name="Path 1119" d="M125.832,154a.806.806,0,0,1,.7-.9,4.987,4.987,0,0,0,4.413-3.039.806.806,0,0,1,1.511.561,6.6,6.6,0,0,1-5.728,4.079A.808.808,0,0,1,125.832,154Z" transform="translate(-125.826 -149.531)" fill="#e9b02c"/>
  </g>
  <path id="Path_1120" data-name="Path 1120" d="M174.122,340.428a16.68,16.68,0,0,0-12.619,0c-.655.238-1.187-.654-.736-1.237,2-2.616,4.5-4.1,7.041-4.1s5.056,1.487,7.041,4.1C175.3,339.774,174.767,340.665,174.122,340.428Z" transform="translate(-148.497 -309.817)" fill="#3e4347"/>
</svg>
