<?xml version="1.0" standalone="no"?>
<!DOCTYPE svg PUBLIC "-//W3C//DTD SVG 1.1//EN" "http://www.w3.org/Graphics/SVG/1.1/DTD/svg11.dtd" >
<svg xmlns="http://www.w3.org/2000/svg" xmlns:xlink="http://www.w3.org/1999/xlink" version="1.1">
<metadata>
Created by FontForge 20170731 at Tue Aug  2 17:50:31 2011
 By Aleksey,,,
Copyright (c) 2008 - 2011 Linotype GmbH, www.linotype.com. All rights reserved. This font software may not be reproduced, modified, disclosed or transferred without the express written approval of Linotype GmbH.
</metadata>
<defs>
<font id="DINNextLTArabic-Regular" horiz-adv-x="542" >
  <font-face 
    font-family="DIN Next LT Arabic"
    font-weight="400"
    font-stretch="normal"
    units-per-em="1000"
    panose-1="2 11 5 3 2 2 3 5 2 3"
    ascent="800"
    descent="-200"
    x-height="479"
    cap-height="680"
    bbox="-176.364 -428 1268 1389"
    underline-thickness="50"
    underline-position="-150"
    unicode-range="U+000D-FEFC"
  />
<missing-glyph horiz-adv-x="379" 
d="M379 533v-533h-379v533h379zM343 37v459h-306v-459h306zM167 173l-1 13q0 50 15 71q8 10 15 18t13 14q24 24 30.5 36t6.5 29q0 27 -17 44.5t-39 17.5q-23 0 -40 -17t-22 -54l-36 6q6 51 33.5 76.5t65.5 25.5q40 0 66.5 -25.5t26.5 -71.5q0 -25 -9.5 -43.5t-36.5 -45.5
q-28 -26 -32 -40q-5 -17 -5 -51zM159 111q0 11 7.5 19t18.5 8q10 0 18 -8.5t8 -18.5q0 -11 -8 -19t-18 -8q-11 0 -18.5 7.5t-7.5 19.5z" />
    <glyph glyph-name="aLam.init_aAlifMadda.fina" unicode="&#xfedf;&#xfe82;" horiz-adv-x="650" arabic-form="isolated" 
d="M331 78h117q25 0 36.5 11.5t11.5 41.5v539q0 10 10 10h64q10 0 10 -10v-544q0 -65 -27 -95.5t-90 -30.5h-413q-10 0 -10 10v58q0 10 10 10h197v451q0 10 10 10h64q10 0 10 -10v-451zM121 627q7 32 27.5 49t46.5 17q22 0 46 -8t48.5 -18t48.5 -18t46 -8q17 0 23.5 7.5
t6.5 26.5q0 10 10 10h22q10 0 10 -10q0 -41 -18.5 -62t-50.5 -21q-26 0 -52.5 8t-51 17.5t-47.5 17.5t-41 8q-10 0 -19 -5.5t-14 -22.5q-3 -10 -13 -7l-21 6q-9 3 -7 13z" />
    <glyph glyph-name="aLam.medi_aAlifMadda.fina" unicode="&#xfee0;&#xfe82;" horiz-adv-x="680" arabic-form="final" 
d="M331 78h117q25 0 36.5 11.5t11.5 41.5v539q0 10 10 10h64q10 0 10 -10v-537q5 -28 28.5 -41.5t60.5 -13.5h11q20 0 30 -8.5t10 -28.5q0 -26 -9.5 -33.5t-30.5 -7.5h-21q-31 0 -55 12.5t-38 38.5q-23 -51 -103 -51h-413q-10 0 -10 10v58q0 10 10 10h197v451q0 10 10 10h64
q10 0 10 -10v-451zM121 627q7 32 27.5 49t46.5 17q22 0 46 -8t48.5 -18t48.5 -18t46 -8q17 0 23.5 7.5t6.5 26.5q0 10 10 10h22q10 0 10 -10q0 -41 -18.5 -62t-50.5 -21q-26 0 -52.5 8t-51 17.5t-47.5 17.5t-41 8q-10 0 -19 -5.5t-14 -22.5q-3 -10 -13 -7l-21 6q-9 3 -7 13z
" />
    <glyph glyph-name="aLam.init_aAlifHamza.fina" unicode="&#xfedf;&#xfe84;" horiz-adv-x="650" arabic-form="isolated" 
d="M331 78h117q25 0 36.5 11.5t11.5 41.5v539q0 10 10 10h64q10 0 10 -10v-544q0 -65 -27 -95.5t-90 -30.5h-413q-10 0 -10 10v58q0 10 10 10h197v451q0 10 10 10h64q10 0 10 -10v-451zM225 646q-8 11 -13 27t-5 35q0 16 5 33.5t17 32t31.5 24t48.5 9.5q26 0 46.5 -9
t32.5 -26q3 -7 0 -10l-21 -17q-7 -6 -11 -2q-9 10 -21 16.5t-27 6.5q-28 0 -41.5 -17t-13.5 -40q0 -22 11.5 -38.5t22.5 -24.5h103q6 0 6 -7v-28q0 -7 -6 -7h-203q-6 0 -6 7v28q0 7 6 7h38z" />
    <glyph glyph-name="aLam.medi_aAlifHamza.fina" unicode="&#xfee0;&#xfe84;" horiz-adv-x="680" arabic-form="final" 
d="M331 78h117q25 0 36.5 11.5t11.5 41.5v539q0 10 10 10h64q10 0 10 -10v-537q5 -28 28.5 -41.5t60.5 -13.5h11q20 0 30 -8.5t10 -28.5q0 -26 -9.5 -33.5t-30.5 -7.5h-21q-31 0 -55 12.5t-38 38.5q-23 -51 -103 -51h-413q-10 0 -10 10v58q0 10 10 10h197v451q0 10 10 10h64
q10 0 10 -10v-451zM225 646q-8 11 -13 27t-5 35q0 16 5 33.5t17 32t31.5 24t48.5 9.5q26 0 46.5 -9t32.5 -26q3 -7 0 -10l-21 -17q-7 -6 -11 -2q-9 10 -21 16.5t-27 6.5q-28 0 -41.5 -17t-13.5 -40q0 -22 11.5 -38.5t22.5 -24.5h103q6 0 6 -7v-28q0 -7 -6 -7h-203q-6 0 -6 7
v28q0 7 6 7h38z" />
    <glyph glyph-name="aLam.init_aAlifHamzabelow.fina" unicode="&#xfedf;&#xfe88;" horiz-adv-x="650" arabic-form="isolated" 
d="M331 78h117q25 0 36.5 11.5t11.5 41.5v539q0 10 10 10h64q10 0 10 -10v-544q0 -65 -27 -95.5t-90 -30.5h-413q-10 0 -10 10v58q0 10 10 10h197v451q0 10 10 10h64q10 0 10 -10v-451zM224 -231q-8 12 -13 27.5t-5 34.5q0 16 5 33.5t17 32t31.5 24t48.5 9.5q26 0 46.5 -9
t32.5 -26q3 -7 0 -10l-21 -17q-7 -6 -11 -2q-9 10 -21 16.5t-27 6.5q-28 0 -41.5 -17t-13.5 -40q0 -22 11.5 -38.5t22.5 -24.5h103q6 0 6 -7v-28q0 -7 -6 -7h-203q-6 0 -6 7v28q0 7 6 7h38z" />
    <glyph glyph-name="aLam.medi_aAlifHamzabelow.fina" unicode="&#xfee0;&#xfe88;" horiz-adv-x="680" arabic-form="final" 
d="M331 78h117q25 0 36.5 11.5t11.5 41.5v539q0 10 10 10h64q10 0 10 -10v-537q5 -28 28.5 -41.5t60.5 -13.5h11q20 0 30 -8.5t10 -28.5q0 -26 -9.5 -33.5t-30.5 -7.5h-21q-31 0 -55 12.5t-38 38.5q-23 -51 -103 -51h-413q-10 0 -10 10v58q0 10 10 10h197v451q0 10 10 10h64
q10 0 10 -10v-451zM224 -231q-8 12 -13 27.5t-5 34.5q0 16 5 33.5t17 32t31.5 24t48.5 9.5q26 0 46.5 -9t32.5 -26q3 -7 0 -10l-21 -17q-7 -6 -11 -2q-9 10 -21 16.5t-27 6.5q-28 0 -41.5 -17t-13.5 -40q0 -22 11.5 -38.5t22.5 -24.5h103q6 0 6 -7v-28q0 -7 -6 -7h-203
q-6 0 -6 7v28q0 7 6 7h38z" />
    <glyph glyph-name="aLam.init_aAlif.fina" unicode="&#xfedf;&#xfe8e;" horiz-adv-x="650" arabic-form="isolated" 
d="M331 78h117q25 0 36.5 11.5t11.5 41.5v539q0 10 10 10h64q10 0 10 -10v-544q0 -65 -27 -95.5t-90 -30.5h-413q-10 0 -10 10v58q0 10 10 10h197v451q0 10 10 10h64q10 0 10 -10v-451z" />
    <glyph glyph-name="aLam.medi_aAlif.fina" unicode="&#xfee0;&#xfe8e;" horiz-adv-x="680" arabic-form="final" 
d="M331 78h117q25 0 36.5 11.5t11.5 41.5v539q0 10 10 10h64q10 0 10 -10v-537q5 -28 28.5 -41.5t60.5 -13.5h11q20 0 30 -8.5t10 -28.5q0 -26 -9.5 -33.5t-30.5 -7.5h-21q-31 0 -55 12.5t-38 38.5q-23 -51 -103 -51h-413q-10 0 -10 10v58q0 10 10 10h197v451q0 10 10 10h64
q10 0 10 -10v-451z" />
    <glyph glyph-name="aLam.init_aAlifWasla.fina" unicode="&#xfedf;&#xfb51;" horiz-adv-x="650" 
d="M331 78h117q25 0 36.5 11.5t11.5 41.5v539q0 10 10 10h64q10 0 10 -10v-544q0 -65 -27 -95.5t-90 -30.5h-413q-10 0 -10 10v58q0 10 10 10h197v451q0 10 10 10h64q10 0 10 -10v-451zM208 635q10 0 10 11v93q0 7 8 7h23q8 0 8 -7v-11q15 8 32 12.5t35 4.5q45 0 62.5 -23.5
t17.5 -56.5q0 -35 -13 -50.5t-41 -15.5h-154q-7 0 -7 7v22q0 7 7 7h12zM322 709q-16 0 -33 -5.5t-32 -11.5v-57h84q16 0 20 6t4 25q0 20 -9 31.5t-34 11.5z" />
    <glyph glyph-name="aLam.medi_aAlifWasla.fina" unicode="&#xfee0;&#xfb51;" horiz-adv-x="680" 
d="M331 78h117q25 0 36.5 11.5t11.5 41.5v539q0 10 10 10h64q10 0 10 -10v-537q5 -28 28.5 -41.5t60.5 -13.5h11q20 0 30 -8.5t10 -28.5q0 -26 -9.5 -33.5t-30.5 -7.5h-21q-31 0 -55 12.5t-38 38.5q-23 -51 -103 -51h-413q-10 0 -10 10v58q0 10 10 10h197v451q0 10 10 10h64
q10 0 10 -10v-451zM208 635q10 0 10 11v93q0 7 8 7h23q8 0 8 -7v-11q15 8 32 12.5t35 4.5q45 0 62.5 -23.5t17.5 -56.5q0 -35 -13 -50.5t-41 -15.5h-154q-7 0 -7 7v22q0 7 7 7h12zM322 709q-16 0 -33 -5.5t-32 -11.5v-57h84q16 0 20 6t4 25q0 20 -9 31.5t-34 11.5z" />
    <glyph glyph-name="aHamza" unicode="&#x621;" horiz-adv-x="386" arabic-form="isolated" 
d="M90 68q-13 19 -20.5 43.5t-7.5 54.5q0 25 8 52.5t27 51t50 39t77 15.5q39 0 72 -14.5t52 -42.5q5 -7 3.5 -10t-3.5 -5l-33 -28q-10 -8 -17 -1q-14 14 -33 24t-44 10q-43 0 -64.5 -26.5t-21.5 -62.5q0 -35 17 -61t34 -39h165q10 0 10 -11v-46q0 -11 -10 -11h-321
q-10 0 -10 11v46q0 11 10 11h60z" />
    <glyph glyph-name="aAlifMadda" unicode="&#x622;" horiz-adv-x="224" arabic-form="isolated" 
d="M154 10q0 -10 -10 -10h-64q-10 0 -10 10v660q0 10 10 10h64q10 0 10 -10v-660zM-57 771q7 32 27.5 49t46.5 17q22 0 46 -8t48.5 -18t48.5 -18t46 -8q17 0 23.5 7.5t6.5 26.5q0 10 10 10h22q10 0 10 -10q0 -41 -18.5 -62t-50.5 -21q-26 0 -52.5 8t-51 17.5t-47.5 17.5
t-41 8q-10 0 -19 -5.5t-14 -22.5q-3 -10 -13 -7l-21 6q-9 3 -7 13z" />
    <glyph glyph-name="aAlifHamza" unicode="&#x623;" horiz-adv-x="224" arabic-form="isolated" 
d="M154 10q0 -10 -10 -10h-64q-10 0 -10 10v660q0 10 10 10h64q10 0 10 -10v-660zM48 772q-8 11 -13 27t-5 35q0 16 5 33.5t17 32t31.5 24t48.5 9.5q26 0 46.5 -9t32.5 -26q3 -7 0 -10l-21 -17q-7 -6 -11 -2q-9 10 -21 16.5t-27 6.5q-28 0 -41.5 -17t-13.5 -40
q0 -22 11.5 -38.5t22.5 -24.5h103q6 0 6 -7v-28q0 -7 -6 -7h-203q-6 0 -6 7v28q0 7 6 7h38z" />
    <glyph glyph-name="aWawHamza" unicode="&#x624;" horiz-adv-x="502" arabic-form="isolated" 
d="M153 -199q-10 0 -10 10v58q0 10 10 10h120q20 0 37 4.5t29.5 15t19.5 29t7 46.5v26h-107q-44 0 -79.5 10.5t-60.5 34t-38 62.5t-13 96t15 99.5t41.5 70t61.5 41t75 13.5q89 0 139 -51.5t50 -166.5v-233q0 -47 -12.5 -80t-35 -54t-54.5 -31t-71 -10h-124zM261 349
q-51 0 -80 -40t-29 -106q0 -71 28.5 -98t84.5 -27h101v131q0 66 -24.5 103t-80.5 37zM185 546q-8 10 -13 24t-5 32q0 15 5 31.5t18 30.5t33.5 23.5t52.5 9.5q28 0 52 -10.5t35 -27.5q4 -6 -1 -11l-26 -22q-3 -2 -8 3q-10 9 -23 15.5t-32 6.5q-29 0 -42 -16t-13 -35
q0 -22 11 -35t22 -19h113q6 0 6 -7v-32q0 -7 -6 -7h-213q-6 0 -6 7v32q0 7 6 7h34z" />
    <glyph glyph-name="aAlifHamzabelow" unicode="&#x625;" horiz-adv-x="224" arabic-form="isolated" 
d="M154 10q0 -10 -10 -10h-64q-10 0 -10 10v660q0 10 10 10h64q10 0 10 -10v-660zM47 -231q-8 12 -13 27.5t-5 34.5q0 16 5 33.5t17 32t31.5 24t48.5 9.5q26 0 46.5 -9t32.5 -26q3 -7 0 -10l-21 -17q-7 -6 -11 -2q-9 10 -21 16.5t-27 6.5q-28 0 -41.5 -17t-13.5 -40
q0 -22 11.5 -38.5t22.5 -24.5h103q6 0 6 -7v-28q0 -7 -6 -7h-203q-6 0 -6 7v28q0 7 6 7h38z" />
    <glyph glyph-name="aYehHamza" unicode="&#x626;" horiz-adv-x="775" arabic-form="isolated" 
d="M696 -61q0 -26 -9.5 -51t-31.5 -44.5t-58 -31t-88 -11.5h-234q-117 0 -178 58.5t-61 160.5q0 59 19.5 113.5t45.5 91.5q4 7 14 1l55 -30q8 -5 3 -13q-18 -28 -34.5 -69t-16.5 -86q0 -41 13.5 -69.5t36.5 -45.5t52.5 -24.5t62.5 -7.5h221q60 0 83.5 18t23.5 43
q0 23 -32 47.5t-87 57.5q-22 13 -43 29.5t-37 37t-26 45t-10 53.5q0 31 11.5 60t34 51.5t56.5 36.5t78 14q36 0 62 -6t46.5 -16.5t36 -25.5t30.5 -33q6 -7 -3 -14l-44 -36q-8 -6 -14 1q-22 24 -47.5 38t-66.5 14q-40 0 -68 -21t-28 -62q0 -20 10.5 -36.5t27.5 -32t39 -30
t45 -28.5q55 -34 82.5 -67t27.5 -80zM109 369q-8 10 -13 24t-5 32q0 15 5 31.5t18 30.5t33.5 23.5t52.5 9.5q28 0 52 -10.5t35 -27.5q4 -6 -1 -11l-26 -22q-3 -2 -8 3q-10 9 -23 15.5t-32 6.5q-29 0 -42 -16t-13 -35q0 -22 11 -35t22 -19h113q6 0 6 -7v-32q0 -7 -6 -7h-213
q-6 0 -6 7v32q0 7 6 7h34z" />
    <glyph glyph-name="aAlif" unicode="&#x627;" horiz-adv-x="224" arabic-form="isolated" 
d="M154 10q0 -10 -10 -10h-64q-10 0 -10 10v660q0 10 10 10h64q10 0 10 -10v-660z" />
    <glyph glyph-name="aBeh" unicode="&#x628;" horiz-adv-x="821" arabic-form="isolated" 
d="M631 78q26 0 37.5 11.5t11.5 41.5v268q0 10 10 10h64q10 0 10 -10v-273q0 -65 -27 -95.5t-92 -30.5h-481q-63 0 -90 30.5t-27 95.5v209q0 10 10 10h64q10 0 10 -10v-204q0 -30 11.5 -41.5t36.5 -11.5h452v0zM368 -186q-10 0 -10 10v73q0 10 10 10h68q10 0 10 -10v-73
q0 -10 -10 -10h-68z" />
    <glyph glyph-name="aTehMarbuta" unicode="&#x629;" horiz-adv-x="482" arabic-form="isolated" 
d="M236 -7q-89 0 -140 51t-51 165q0 115 51 166.5t140 51.5t140 -51.5t51 -166.5q0 -57 -13.5 -98t-38 -67t-60 -38.5t-79.5 -12.5zM236 349q-56 0 -81.5 -37t-25.5 -103q0 -72 25.5 -105t81.5 -33t81.5 33t25.5 105q0 66 -25.5 103t-81.5 37zM263 508q-10 0 -10 10v73
q0 10 10 10h68q10 0 10 -10v-73q0 -10 -10 -10h-68zM141 508q-10 0 -10 10v73q0 10 10 10h68q10 0 10 -10v-73q0 -10 -10 -10h-68z" />
    <glyph glyph-name="aTeh" unicode="&#x62a;" horiz-adv-x="821" arabic-form="isolated" 
d="M631 78q26 0 37.5 11.5t11.5 41.5v268q0 10 10 10h64q10 0 10 -10v-273q0 -65 -27 -95.5t-92 -30.5h-481q-63 0 -90 30.5t-27 95.5v209q0 10 10 10h64q10 0 10 -10v-204q0 -30 11.5 -41.5t36.5 -11.5h452v0zM434 449q-10 0 -10 10v73q0 10 10 10h68q10 0 10 -10v-73
q0 -10 -10 -10h-68zM312 449q-10 0 -10 10v73q0 10 10 10h68q10 0 10 -10v-73q0 -10 -10 -10h-68z" />
    <glyph glyph-name="aTheh" unicode="&#x62b;" horiz-adv-x="821" arabic-form="isolated" 
d="M631 78q26 0 37.5 11.5t11.5 41.5v268q0 10 10 10h64q10 0 10 -10v-273q0 -65 -27 -95.5t-92 -30.5h-481q-63 0 -90 30.5t-27 95.5v209q0 10 10 10h64q10 0 10 -10v-204q0 -30 11.5 -41.5t36.5 -11.5h452v0zM434 449q-10 0 -10 10v73q0 10 10 10h68q10 0 10 -10v-73
q0 -10 -10 -10h-68zM312 449q-10 0 -10 10v73q0 10 10 10h68q10 0 10 -10v-73q0 -10 -10 -10h-68zM374 566q-10 0 -10 10v73q0 10 10 10h68q10 0 10 -10v-73q0 -10 -10 -10h-68z" />
    <glyph glyph-name="aJim" unicode="&#x62c;" horiz-adv-x="560" arabic-form="isolated" 
d="M172 0q-31 0 -43.5 -17.5t-12.5 -42.5q0 -32 17.5 -46.5t68.5 -14.5h38q10 0 10 -10v-58q0 -10 -10 -10h-45q-77 0 -121 32.5t-44 104.5q0 41 13.5 68t34.5 43t46 22.5t48 6.5h158q28 0 45 4.5t26 15.5t12 29.5t3 45.5q0 39 -7 71.5t-22.5 56t-41.5 36t-65 12.5
q-34 0 -62.5 -14t-50.5 -38q-6 -7 -14 -1l-44 36q-9 7 -3 14q28 35 69.5 58t101.5 23q69 0 113 -21.5t69.5 -56.5t35.5 -81t10 -95q0 -50 -8.5 -83t-26 -53t-45 -28.5t-64.5 -8.5h-189zM300 -186q-10 0 -10 10v73q0 10 10 10h68q10 0 10 -10v-73q0 -10 -10 -10h-68z" />
    <glyph glyph-name="aHah" unicode="&#x62d;" horiz-adv-x="560" arabic-form="isolated" 
d="M172 0q-31 0 -43.5 -17.5t-12.5 -42.5q0 -32 17.5 -46.5t68.5 -14.5h96q10 0 10 -10v-58q0 -10 -10 -10h-103q-77 0 -121 32.5t-44 104.5q0 41 13.5 68t34.5 43t46 22.5t48 6.5h158q28 0 45 4.5t26 15.5t12 29.5t3 45.5q0 39 -7 71.5t-22.5 56t-41.5 36t-65 12.5
q-34 0 -62.5 -14t-50.5 -38q-6 -7 -14 -1l-44 36q-9 7 -3 14q28 35 69.5 58t101.5 23q69 0 113 -21.5t69.5 -56.5t35.5 -81t10 -95q0 -50 -8.5 -83t-26 -53t-45 -28.5t-64.5 -8.5h-189z" />
    <glyph glyph-name="aKhah" unicode="&#x62e;" horiz-adv-x="560" arabic-form="isolated" 
d="M172 0q-31 0 -43.5 -17.5t-12.5 -42.5q0 -32 17.5 -46.5t68.5 -14.5h96q10 0 10 -10v-58q0 -10 -10 -10h-103q-77 0 -121 32.5t-44 104.5q0 41 13.5 68t34.5 43t46 22.5t48 6.5h158q28 0 45 4.5t26 15.5t12 29.5t3 45.5q0 39 -7 71.5t-22.5 56t-41.5 36t-65 12.5
q-34 0 -62.5 -14t-50.5 -38q-6 -7 -14 -1l-44 36q-9 7 -3 14q28 35 69.5 58t101.5 23q69 0 113 -21.5t69.5 -56.5t35.5 -81t10 -95q0 -50 -8.5 -83t-26 -53t-45 -28.5t-64.5 -8.5h-189zM252 508q-10 0 -10 10v73q0 10 10 10h68q10 0 10 -10v-73q0 -10 -10 -10h-68z" />
    <glyph glyph-name="aDal" unicode="&#x62f;" horiz-adv-x="488" arabic-form="isolated" 
d="M433 171q0 -50 -8.5 -83t-26 -52.5t-44.5 -27.5t-65 -8h-222q-10 0 -10 10v58q0 10 10 10h191q28 0 45 4.5t26 15t12 27.5t3 43v80q0 101 -114 101h-116q-10 0 -10 10v58q0 10 10 10h147q76 0 124 -43t48 -135v-78z" />
    <glyph glyph-name="aDhal" unicode="&#x630;" horiz-adv-x="488" arabic-form="isolated" 
d="M433 171q0 -50 -8.5 -83t-26 -52.5t-44.5 -27.5t-65 -8h-222q-10 0 -10 10v58q0 10 10 10h191q28 0 45 4.5t26 15t12 27.5t3 43v80q0 101 -114 101h-116q-10 0 -10 10v58q0 10 10 10h147q76 0 124 -43t48 -135v-78zM186 508q-10 0 -10 10v73q0 10 10 10h68q10 0 10 -10
v-73q0 -10 -10 -10h-68z" />
    <glyph glyph-name="aReh" unicode="&#x631;" horiz-adv-x="263" arabic-form="isolated" 
d="M10 -199q-10 0 -10 10v58q0 10 10 10h23q81 0 81 85v435q0 10 10 10h64q10 0 10 -10v-433q0 -81 -41 -123t-120 -42h-27z" />
    <glyph glyph-name="aZeh" unicode="&#x632;" horiz-adv-x="263" arabic-form="isolated" 
d="M10 -199q-10 0 -10 10v58q0 10 10 10h23q81 0 81 85v435q0 10 10 10h64q10 0 10 -10v-433q0 -81 -41 -123t-120 -42h-27zM123 508q-10 0 -10 10v73q0 10 10 10h68q10 0 10 -10v-73q0 -10 -10 -10h-68z" />
    <glyph glyph-name="aSin" unicode="&#x633;" horiz-adv-x="1071" arabic-form="isolated" 
d="M596 0q-52 0 -80 32v-12q0 -103 -60.5 -161t-174.5 -58q-54 0 -97.5 14.5t-74 42.5t-47.5 68.5t-17 93.5q0 59 19.5 113.5t45.5 91.5q4 7 14 1l55 -30q8 -5 3 -13q-18 -28 -34.5 -69t-16.5 -86q0 -43 14.5 -71.5t37.5 -45t50 -23.5t53 -7q64 0 105 33t41 107v292
q0 10 10 10h64q10 0 10 -10v-171q0 -32 25 -48t65 -16h23q25 0 36.5 11.5t11.5 41.5v182q0 10 10 10h64q10 0 10 -10v-171q0 -32 25 -48t65 -16h23q25 0 36.5 11.5t11.5 41.5v268q0 10 10 10h64q10 0 10 -10v-273q0 -65 -27 -95.5t-90 -30.5h-48q-32 0 -56 13t-37 39
q-25 -52 -104 -52h-48z" />
    <glyph glyph-name="aShin" unicode="&#x634;" horiz-adv-x="1071" arabic-form="isolated" 
d="M596 0q-52 0 -80 32v-12q0 -103 -60.5 -161t-174.5 -58q-54 0 -97.5 14.5t-74 42.5t-47.5 68.5t-17 93.5q0 59 19.5 113.5t45.5 91.5q4 7 14 1l55 -30q8 -5 3 -13q-18 -28 -34.5 -69t-16.5 -86q0 -43 14.5 -71.5t37.5 -45t50 -23.5t53 -7q64 0 105 33t41 107v292
q0 10 10 10h64q10 0 10 -10v-171q0 -32 25 -48t65 -16h23q25 0 36.5 11.5t11.5 41.5v182q0 10 10 10h64q10 0 10 -10v-171q0 -32 25 -48t65 -16h23q25 0 36.5 11.5t11.5 41.5v268q0 10 10 10h64q10 0 10 -10v-273q0 -65 -27 -95.5t-90 -30.5h-48q-32 0 -56 13t-37 39
q-25 -52 -104 -52h-48zM744 508q-10 0 -10 10v73q0 10 10 10h68q10 0 10 -10v-73q0 -10 -10 -10h-68zM622 508q-10 0 -10 10v73q0 10 10 10h68q10 0 10 -10v-73q0 -10 -10 -10h-68zM684 625q-10 0 -10 10v73q0 10 10 10h68q10 0 10 -10v-73q0 -10 -10 -10h-68z" />
    <glyph glyph-name="aSad" unicode="&#x635;" horiz-adv-x="1042" arabic-form="isolated" 
d="M110 225q4 7 14 1l55 -30q8 -5 3 -13q-18 -28 -34.5 -69t-16.5 -86q0 -43 14.5 -71.5t37.5 -45t50 -23.5t53 -7q64 0 105 33t41 107v379q0 10 10 10h64q10 0 10 -10v-35q49 26 109 44t123 18q70 0 116 -19t73.5 -51.5t38.5 -75.5t11 -91q0 -53 -8.5 -89.5t-26.5 -59
t-47 -32t-69 -9.5h-321q-6 -94 -66 -146.5t-168 -52.5q-54 0 -97.5 14.5t-74 42.5t-47.5 68.5t-17 93.5q0 59 19.5 113.5t45.5 91.5zM742 349q-30 0 -61 -5.5t-60.5 -14.5t-56 -20t-48.5 -22v-209h291q28 0 46 5t28 17.5t13.5 35t3.5 57.5q0 37 -7.5 66t-25.5 49t-48 30.5
t-75 10.5z" />
    <glyph glyph-name="aDad" unicode="&#x636;" horiz-adv-x="1042" arabic-form="isolated" 
d="M110 225q4 7 14 1l55 -30q8 -5 3 -13q-18 -28 -34.5 -69t-16.5 -86q0 -43 14.5 -71.5t37.5 -45t50 -23.5t53 -7q64 0 105 33t41 107v379q0 10 10 10h64q10 0 10 -10v-35q49 26 109 44t123 18q70 0 116 -19t73.5 -51.5t38.5 -75.5t11 -91q0 -53 -8.5 -89.5t-26.5 -59
t-47 -32t-69 -9.5h-321q-6 -94 -66 -146.5t-168 -52.5q-54 0 -97.5 14.5t-74 42.5t-47.5 68.5t-17 93.5q0 59 19.5 113.5t45.5 91.5zM742 349q-30 0 -61 -5.5t-60.5 -14.5t-56 -20t-48.5 -22v-209h291q28 0 46 5t28 17.5t13.5 35t3.5 57.5q0 37 -7.5 66t-25.5 49t-48 30.5
t-75 10.5zM711 508q-10 0 -10 10v73q0 10 10 10h68q10 0 10 -10v-73q0 -10 -10 -10h-68z" />
    <glyph glyph-name="aTah" unicode="&#x637;" horiz-adv-x="735" arabic-form="isolated" 
d="M77 78q25 0 36.5 11.5t11.5 41.5v539q0 10 10 10h64q10 0 10 -10v-305q49 26 109 44t123 18q70 0 116 -19t73.5 -51.5t38.5 -75.5t11 -91q0 -53 -8.5 -89.5t-26.5 -59t-47 -32t-69 -9.5h-336q-24 0 -34 13q-25 -13 -67 -13h-55q-10 0 -10 10v58q0 10 10 10h40zM435 349
q-30 0 -61 -5.5t-60.5 -14.5t-56 -20t-48.5 -22v-161q0 -25 -5 -48h296q28 0 46 5t28 17.5t13.5 35t3.5 57.5q0 37 -7.5 66t-25.5 49t-48 30.5t-75 10.5z" />
    <glyph glyph-name="aZah" unicode="&#x638;" horiz-adv-x="735" arabic-form="isolated" 
d="M77 78q25 0 36.5 11.5t11.5 41.5v539q0 10 10 10h64q10 0 10 -10v-305q49 26 109 44t123 18q70 0 116 -19t73.5 -51.5t38.5 -75.5t11 -91q0 -53 -8.5 -89.5t-26.5 -59t-47 -32t-69 -9.5h-336q-24 0 -34 13q-25 -13 -67 -13h-55q-10 0 -10 10v58q0 10 10 10h40zM435 349
q-30 0 -61 -5.5t-60.5 -14.5t-56 -20t-48.5 -22v-161q0 -25 -5 -48h296q28 0 46 5t28 17.5t13.5 35t3.5 57.5q0 37 -7.5 66t-25.5 49t-48 30.5t-75 10.5zM403 508q-10 0 -10 10v73q0 10 10 10h68q10 0 10 -10v-73q0 -10 -10 -10h-68z" />
    <glyph glyph-name="aAyn" unicode="&#x639;" horiz-adv-x="546" arabic-form="isolated" 
d="M491 78q10 0 10 -10v-58q0 -10 -10 -10h-312q-31 0 -43.5 -17t-12.5 -42q0 -32 17.5 -47t68.5 -15h96q10 0 10 -10v-58q0 -10 -10 -10h-103q-77 0 -121 33t-44 105q0 34 9.5 58.5t25 40.5t35 25t39.5 12q-24 24 -40.5 59t-16.5 86q0 31 9 67.5t33 67.5t65.5 51.5
t106.5 20.5q59 0 102 -21.5t69 -59.5q5 -8 -3 -14l-44 -36q-8 -6 -14 1q-45 52 -113 52q-62 0 -92 -36.5t-30 -91.5q0 -37 12 -63t27.5 -43t31.5 -25.5t25 -11.5h217z" />
    <glyph glyph-name="aGhayn" unicode="&#x63a;" horiz-adv-x="546" arabic-form="isolated" 
d="M491 78q10 0 10 -10v-58q0 -10 -10 -10h-312q-31 0 -43.5 -17t-12.5 -42q0 -32 17.5 -47t68.5 -15h96q10 0 10 -10v-58q0 -10 -10 -10h-103q-77 0 -121 33t-44 105q0 34 9.5 58.5t25 40.5t35 25t39.5 12q-24 24 -40.5 59t-16.5 86q0 31 9 67.5t33 67.5t65.5 51.5
t106.5 20.5q59 0 102 -21.5t69 -59.5q5 -8 -3 -14l-44 -36q-8 -6 -14 1q-45 52 -113 52q-62 0 -92 -36.5t-30 -91.5q0 -37 12 -63t27.5 -43t31.5 -25.5t25 -11.5h217zM264 507q-10 0 -10 10v73q0 10 10 10h68q10 0 10 -10v-73q0 -10 -10 -10h-68z" />
    <glyph glyph-name="aFeh" unicode="&#x641;" horiz-adv-x="942" arabic-form="isolated" 
d="M164 0q-63 0 -90 30.5t-27 95.5v209q0 10 10 10h64q10 0 10 -10v-204q0 -30 11.5 -41.5t36.5 -11.5h353q-29 49 -29 131q0 57 14.5 98.5t40.5 68t60.5 39t75.5 12.5q89 0 140 -51.5t51 -166.5q0 -57 -13.5 -97t-38 -64.5t-60 -36t-79.5 -11.5h-530zM694 349
q-53 0 -80 -36t-27 -98q0 -74 25.5 -105.5t81.5 -31.5t81.5 29.5t25.5 101.5q0 66 -25.5 103t-81.5 37zM667 508q-10 0 -10 10v73q0 10 10 10h68q10 0 10 -10v-73q0 -10 -10 -10h-68z" />
    <glyph glyph-name="aQaf" unicode="&#x642;" horiz-adv-x="764" arabic-form="isolated" 
d="M699 -59q0 -26 -10 -51.5t-32.5 -45t-59 -31.5t-88.5 -12h-234q-117 0 -178 58.5t-61 160.5q0 59 19.5 113.5t45.5 91.5q4 7 14 1l55 -30q8 -5 3 -13q-18 -28 -34.5 -69t-16.5 -86q0 -41 13.5 -69.5t36.5 -45.5t52.5 -24.5t62.5 -7.5h221q60 0 83.5 18t23.5 43v58h-107
q-44 0 -79.5 11.5t-60.5 36t-38 64.5t-13 97t15 98.5t41 68t61 39t74 12.5q89 0 140 -51.5t51 -166.5v-268zM508 349q-51 0 -79 -37t-28 -103q0 -72 28.5 -101.5t84.5 -29.5h101v131q0 66 -25.5 103t-81.5 37zM533 508q-10 0 -10 10v73q0 10 10 10h68q10 0 10 -10v-73
q0 -10 -10 -10h-68zM411 508q-10 0 -10 10v73q0 10 10 10h68q10 0 10 -10v-73q0 -10 -10 -10h-68z" />
    <glyph glyph-name="aKaf" unicode="&#x643;" horiz-adv-x="834" arabic-form="isolated" 
d="M631 78q26 0 37.5 11.5t11.5 41.5v539q0 10 10 10h64q10 0 10 -10v-544q0 -65 -27 -95.5t-92 -30.5h-481q-63 0 -90 30.5t-27 95.5v209q0 10 10 10h64q10 0 10 -10v-204q0 -30 11.5 -41.5t36.5 -11.5h452zM427 323q12 0 15 5t3 16v20q0 25 -27 25h-54q-14 0 -14 14v17
q0 5 1.5 7.5t3.5 4.5l79 94q5 5 9.5 4.5t6.5 -2.5l20 -17q5 -5 3.5 -9.5t-3.5 -7.5l-51 -60h16q59 0 59 -70v-18q0 -40 -13.5 -54t-44.5 -14h-113q-10 0 -10 10v25q0 10 10 10h104z" />
    <glyph glyph-name="aLam" unicode="&#x644;" horiz-adv-x="586" arabic-form="isolated" 
d="M110 225q4 7 14 1l55 -30q8 -5 3 -13q-18 -28 -34.5 -69t-16.5 -86q0 -43 14.5 -71.5t37.5 -45t50 -23.5t53 -7q64 0 105 33t41 107v649q0 10 10 10h64q10 0 10 -10v-650q0 -103 -60.5 -161t-174.5 -58q-54 0 -97.5 14.5t-74 42.5t-47.5 68.5t-17 93.5q0 59 19.5 113.5
t45.5 91.5z" />
    <glyph glyph-name="aMim" unicode="&#x645;" horiz-adv-x="593" arabic-form="isolated" 
d="M347 -7q-52 0 -91.5 17t-64.5 54q-10 -16 -23.5 -23t-26 -15t-21.5 -21t-9 -41v-163h-84v184q0 31 9 51.5t23 34t30.5 22.5t31 18t25 20.5t12.5 30.5q-1 11 -1.5 22.5t-0.5 24.5q0 115 51 166.5t140 51.5t140 -51.5t51 -166.5q0 -57 -13.5 -98t-38 -67t-60 -38.5
t-79.5 -12.5zM347 349q-56 0 -81.5 -37t-25.5 -103q0 -72 25.5 -105t81.5 -33t81.5 33t25.5 105q0 66 -25.5 103t-81.5 37z" />
    <glyph glyph-name="aNun" unicode="&#x646;" horiz-adv-x="581" arabic-form="isolated" 
d="M110 225q4 7 14 1l55 -30q8 -5 3 -13q-18 -28 -34.5 -69t-16.5 -86q0 -43 14.5 -71.5t37.5 -45t50 -23.5t53 -7q64 0 105 33t41 107v292q0 10 10 10h64q10 0 10 -10v-293q0 -103 -60.5 -161t-174.5 -58q-54 0 -97.5 14.5t-74 42.5t-47.5 68.5t-17 93.5q0 59 19.5 113.5
t45.5 91.5zM281 348q-10 0 -10 10v73q0 10 10 10h68q10 0 10 -10v-73q0 -10 -10 -10h-68z" />
    <glyph glyph-name="aWaw" unicode="&#x648;" horiz-adv-x="502" arabic-form="isolated" 
d="M140 -199q-10 0 -10 10v58q0 10 10 10h120q20 0 37 4.5t29.5 15t19.5 29t7 46.5v26h-107q-44 0 -79.5 10.5t-60.5 34t-38 62.5t-13 96t15 99.5t41.5 70t61.5 41t75 13.5q89 0 139 -51.5t50 -166.5v-233q0 -47 -12.5 -80t-35 -54t-54.5 -31t-71 -10h-124zM248 349
q-51 0 -80 -40t-29 -106q0 -71 28.5 -98t84.5 -27h101v131q0 66 -24.5 103t-80.5 37z" />
    <glyph glyph-name="aAlifMaksura" unicode="&#x649;" horiz-adv-x="775" arabic-form="isolated" 
d="M696 -61q0 -26 -9.5 -51t-31.5 -44.5t-58 -31t-88 -11.5h-234q-117 0 -178 58.5t-61 160.5q0 59 19.5 113.5t45.5 91.5q4 7 14 1l55 -30q8 -5 3 -13q-18 -28 -34.5 -69t-16.5 -86q0 -41 13.5 -69.5t36.5 -45.5t52.5 -24.5t62.5 -7.5h221q60 0 83.5 18t23.5 43
q0 23 -32 47.5t-87 57.5q-22 13 -43 29.5t-37 37t-26 45t-10 53.5q0 31 11.5 60t34 51.5t56.5 36.5t78 14q36 0 62 -6t46.5 -16.5t36 -25.5t30.5 -33q6 -7 -3 -14l-44 -36q-8 -6 -14 1q-22 24 -47.5 38t-66.5 14q-40 0 -68 -21t-28 -62q0 -20 10.5 -36.5t27.5 -32t39 -30
t45 -28.5q55 -34 82.5 -67t27.5 -80z" />
    <glyph glyph-name="aYeh" unicode="&#x64a;" horiz-adv-x="775" arabic-form="isolated" 
d="M696 14q0 -26 -9.5 -51t-31.5 -44.5t-58 -31t-88 -11.5h-234q-117 0 -178 58.5t-61 160.5q0 59 19.5 113.5t45.5 91.5q4 7 14 1l55 -30q8 -5 3 -13q-18 -28 -34.5 -69t-16.5 -86q0 -41 13.5 -69.5t36.5 -45.5t52.5 -24.5t62.5 -7.5h221q60 0 83.5 18t23.5 43
q0 23 -32 47.5t-87 57.5q-22 13 -43 29.5t-37 37t-26 45t-10 53.5q0 31 11.5 60t34 51.5t56.5 36.5t78 14q36 0 62 -6t46.5 -16.5t36 -25.5t30.5 -33q6 -7 -3 -14l-44 -36q-8 -6 -14 1q-22 24 -47.5 38t-66.5 14q-40 0 -68 -21t-28 -62q0 -20 10.5 -36.5t27.5 -32t39 -30
t45 -28.5q55 -34 82.5 -67t27.5 -80zM394 -290q-10 0 -10 10v73q0 10 10 10h68q10 0 10 -10v-73q0 -10 -10 -10h-68zM272 -290q-10 0 -10 10v73q0 10 10 10h68q10 0 10 -10v-73q0 -10 -10 -10h-68z" />
    <glyph glyph-name="aAlifWasla" unicode="&#x671;" horiz-adv-x="224" arabic-form="isolated" 
d="M154 10q0 -10 -10 -10h-64q-10 0 -10 10v660q0 10 10 10h64q10 0 10 -10v-660zM20 795q10 0 10 11v93q0 7 8 7h23q8 0 8 -7v-11q15 8 32 12.5t35 4.5q45 0 62.5 -23.5t17.5 -56.5q0 -35 -13 -50.5t-41 -15.5h-154q-7 0 -7 7v22q0 7 7 7h12zM134 869q-16 0 -33 -5.5
t-32 -11.5v-57h84q16 0 20 6t4 25q0 20 -9 31.5t-34 11.5z" />
    <glyph glyph-name="aTteh" unicode="&#x679;" horiz-adv-x="821" arabic-form="isolated" 
d="M631 78q26 0 37.5 11.5t11.5 41.5v268q0 10 10 10h64q10 0 10 -10v-273q0 -65 -27 -95.5t-92 -30.5h-481q-63 0 -90 30.5t-27 95.5v209q0 10 10 10h64q10 0 10 -10v-204q0 -30 11.5 -41.5t36.5 -11.5h452v0zM309 474q10 0 10 11v166q0 7 8 7h23q8 0 8 -7v-84
q15 8 32.5 12.5t34.5 4.5q45 0 62.5 -23.5t17.5 -56.5q0 -35 -13 -50.5t-41 -15.5h-133h-5h-16q-7 0 -7 7v22q0 7 7 7h12zM423 548q-16 0 -33 -5.5t-32 -11.5v-47v-10h84q16 0 20 6t4 25q0 20 -9 31.5t-34 11.5z" />
    <glyph glyph-name="aPeh" unicode="&#x67e;" horiz-adv-x="821" arabic-form="isolated" 
d="M631 78q26 0 37.5 11.5t11.5 41.5v268q0 10 10 10h64q10 0 10 -10v-273q0 -65 -27 -95.5t-92 -30.5h-481q-63 0 -90 30.5t-27 95.5v209q0 10 10 10h64q10 0 10 -10v-204q0 -30 11.5 -41.5t36.5 -11.5h452v0zM430 -186q-10 0 -10 10v73q0 10 10 10h68q10 0 10 -10v-73
q0 -10 -10 -10h-68zM308 -186q-10 0 -10 10v73q0 10 10 10h68q10 0 10 -10v-73q0 -10 -10 -10h-68zM369 -303q-10 0 -10 10v73q0 10 10 10h68q10 0 10 -10v-73q0 -10 -10 -10h-68z" />
    <glyph glyph-name="aTcheh" unicode="&#x686;" horiz-adv-x="547" arabic-form="isolated" 
d="M361 -126q-7 0 -7 7v51q0 7 7 7h48q7 0 7 -7v-51q0 -7 -7 -7h-48zM276 -126q-7 0 -7 7v51q0 7 7 7h48q7 0 7 -7v-51q0 -7 -7 -7h-48zM319 -208q-7 0 -7 7v51q0 7 7 7h47q7 0 7 -7v-51q0 -7 -7 -7h-47zM27 -62q0 41 13.5 68t34.5 43t46 22.5t48 6.5h158q28 0 45 4.5
t26 15.5t12 29.5t3 45.5q0 39 -7 71.5t-22.5 56t-41.5 36t-65 12.5q-34 0 -62.5 -14t-50.5 -38q-6 -7 -14 -1l-44 36q-9 7 -3 14q28 35 69.5 58t101.5 23q69 0 113 -21.5t69.5 -56.5t35.5 -81t10 -95q0 -50 -8.5 -83t-26 -53t-45 -28.5t-64.5 -8.5h-189q-31 0 -43.5 -17.5
t-12.5 -42.5q0 -32 17.5 -46.5t68.5 -14.5h41q10 0 10 -10v-58q0 -10 -10 -10h-45q-77 0 -122.5 32.5t-45.5 104.5z" />
    <glyph glyph-name="aDdal" unicode="&#x688;" horiz-adv-x="488" arabic-form="isolated" 
d="M433 171q0 -50 -8.5 -83t-26 -52.5t-44.5 -27.5t-65 -8h-222q-10 0 -10 10v58q0 10 10 10h191q28 0 45 4.5t26 15t12 27.5t3 43v80q0 101 -114 101h-116q-10 0 -10 10v58q0 10 10 10h147q76 0 124 -43t48 -135v-78zM135 540q10 0 10 11v166q0 7 8 7h23q8 0 8 -7v-84
q15 8 32.5 12.5t34.5 4.5q45 0 62.5 -23.5t17.5 -56.5q0 -35 -13 -50.5t-41 -15.5h-133h-5h-16q-7 0 -7 7v22q0 7 7 7h12zM249 614q-16 0 -33 -5.5t-32 -11.5v-47v-10h84q16 0 20 6t4 25q0 20 -9 31.5t-34 11.5z" />
    <glyph glyph-name="aRreh" unicode="&#x691;" horiz-adv-x="263" arabic-form="isolated" 
d="M10 -199q-10 0 -10 10v58q0 10 10 10h23q81 0 81 85v435q0 10 10 10h64q10 0 10 -10v-433q0 -81 -41 -123t-120 -42h-27zM66 540q10 0 10 11v166q0 7 8 7h23q8 0 8 -7v-84q15 8 32.5 12.5t34.5 4.5q45 0 62.5 -23.5t17.5 -56.5q0 -35 -13 -50.5t-41 -15.5h-133h-5h-16
q-7 0 -7 7v22q0 7 7 7h12zM180 614q-16 0 -33 -5.5t-32 -11.5v-47v-10h84q16 0 20 6t4 25q0 20 -9 31.5t-34 11.5z" />
    <glyph glyph-name="aJeh" unicode="&#x698;" horiz-adv-x="263" arabic-form="isolated" 
d="M10 -199q-10 0 -10 10v58q0 10 10 10h23q81 0 81 85v435q0 10 10 10h64q10 0 10 -10v-433q0 -81 -41 -123t-120 -42h-27zM182 508q-10 0 -10 10v73q0 10 10 10h68q10 0 10 -10v-73q0 -10 -10 -10h-68zM60 508q-10 0 -10 10v73q0 10 10 10h68q10 0 10 -10v-73
q0 -10 -10 -10h-68zM122 625q-10 0 -10 10v73q0 10 10 10h68q10 0 10 -10v-73q0 -10 -10 -10h-68z" />
    <glyph glyph-name="aVeh" unicode="&#x6a4;" horiz-adv-x="942" arabic-form="isolated" 
d="M164 0q-63 0 -90 30.5t-27 95.5v209q0 10 10 10h64q10 0 10 -10v-204q0 -30 11.5 -41.5t36.5 -11.5h353q-29 49 -29 131q0 57 14.5 98.5t40.5 68t60.5 39t75.5 12.5q89 0 140 -51.5t51 -166.5q0 -57 -13.5 -97t-38 -64.5t-60 -36t-79.5 -11.5h-530zM694 349
q-53 0 -80 -36t-27 -98q0 -74 25.5 -105.5t81.5 -31.5t81.5 29.5t25.5 101.5q0 66 -25.5 103t-81.5 37zM719 508q-10 0 -10 10v73q0 10 10 10h68q10 0 10 -10v-73q0 -10 -10 -10h-68zM597 508q-10 0 -10 10v73q0 10 10 10h68q10 0 10 -10v-73q0 -10 -10 -10h-68zM659 625
q-10 0 -10 10v73q0 10 10 10h68q10 0 10 -10v-73q0 -10 -10 -10h-68z" />
    <glyph glyph-name="aKeheh" unicode="&#x6a9;" horiz-adv-x="844" arabic-form="isolated" 
d="M614 78q28 0 45 4.5t26 15t12 27.5t3 43v62q0 101 -114 101h-161q-10 0 -10 10v56q0 5 3.5 9.5t5.5 6.5l219 258q6 7 13 3l48 -40q8 -6 4 -14l-180 -211h89q76 0 124 -43t48 -135v-60q0 -50 -8.5 -83t-26 -52.5t-44.5 -27.5t-65 -8h-481q-63 0 -90 30.5t-27 95.5v209
q0 10 10 10h64q10 0 10 -10v-204q0 -30 11.5 -41.5t36.5 -11.5h435z" />
    <glyph glyph-name="aGaf" unicode="&#x6af;" horiz-adv-x="844" arabic-form="isolated" 
d="M614 78q28 0 45 4.5t26 15t12 27.5t3 43v62q0 101 -114 101h-161q-10 0 -10 10v56q0 5 3.5 9.5t5.5 6.5l219 258q6 7 13 3l48 -40q8 -6 4 -14l-180 -211h89q76 0 124 -43t48 -135v-60q0 -50 -8.5 -83t-26 -52.5t-44.5 -27.5t-65 -8h-481q-63 0 -90 30.5t-27 95.5v209
q0 10 10 10h64q10 0 10 -10v-204q0 -30 11.5 -41.5t36.5 -11.5h435zM379 449q-6 -7 -13 -3l-48 40q-8 5 -4 14l219 258q6 7 13 3l48 -40q8 -6 4 -14z" />
    <glyph glyph-name="aNunGhunna" unicode="&#x6ba;" horiz-adv-x="581" arabic-form="isolated" 
d="M110 225q4 7 14 1l55 -30q8 -5 3 -13q-18 -28 -34.5 -69t-16.5 -86q0 -43 14.5 -71.5t37.5 -45t50 -23.5t53 -7q64 0 105 33t41 107v292q0 10 10 10h64q10 0 10 -10v-293q0 -103 -60.5 -161t-174.5 -58q-54 0 -97.5 14.5t-74 42.5t-47.5 68.5t-17 93.5q0 59 19.5 113.5
t45.5 91.5z" />
    <glyph glyph-name="aHehDoachashmi" unicode="&#x6be;" horiz-adv-x="662" arabic-form="isolated" 
d="M90 -64q0 -10 -10 -10h-64q-10 0 -10 10v75q0 23 8.5 36.5t21 20t27 8.5t25.5 2h85q-13 27 -13 70q0 71 35.5 103.5t91.5 32.5q55 0 91 -32.5t36 -103.5q0 -21 -3.5 -38.5t-9.5 -31.5h16q28 0 45 5t26 17t12 33t3 54q0 34 -8.5 66t-27.5 56.5t-50.5 39t-76.5 14.5
q-40 0 -77 -11.5t-75 -42.5q-8 -6 -14 -1l-35 41q-9 8 -3 14q43 42 97 60t109 18q75 0 123 -23t76.5 -60t39.5 -82t11 -89q0 -55 -8.5 -91t-26 -57.5t-44.5 -30t-65 -8.5h-322q-23 0 -29.5 -6.5t-6.5 -27.5v-30zM287 219q-28 0 -43.5 -18.5t-15.5 -52.5q0 -37 15.5 -53.5
t43.5 -16.5t42.5 16.5t14.5 53.5q0 34 -14.5 52.5t-42.5 18.5z" />
    <glyph glyph-name="aHehGoal" unicode="&#x6c1;" horiz-adv-x="482" arabic-form="isolated" 
d="M236 -7q-89 0 -140 51t-51 165q0 115 51 166.5t140 51.5t140 -51.5t51 -166.5q0 -57 -13.5 -98t-38 -67t-60 -38.5t-79.5 -12.5zM236 349q-56 0 -81.5 -37t-25.5 -103q0 -72 25.5 -105t81.5 -33t81.5 33t25.5 105q0 66 -25.5 103t-81.5 37z" />
    <glyph glyph-name="aHehGoalHamzaabove.fina" unicode="&#x6c2;" horiz-adv-x="492" 
d="M385 150q0 -35 13.5 -53.5t55.5 -18.5h38q21 0 30.5 -9t9.5 -34q0 -21 -10 -28t-30 -7h-47q-144 0 -144 141v184h-68q-61 0 -85 -31.5t-24 -94.5v-189q0 -10 -10 -10h-64q-10 0 -10 10v212q0 58 17.5 94.5t45.5 57t63 28t71 7.5h138q10 0 10 -10v-249zM158 535
q-8 11 -13 27t-5 35q0 16 5 33.5t17 32t31.5 24t48.5 9.5q26 0 46.5 -9t32.5 -26q3 -7 0 -10l-21 -17q-7 -6 -11 -2q-9 10 -21 16.5t-27 6.5q-28 0 -41.5 -17t-13.5 -40q0 -22 11.5 -38.5t22.5 -24.5h103q6 0 6 -7v-28q0 -7 -6 -7h-203q-6 0 -6 7v28q0 7 6 7h38z" />
    <glyph glyph-name="aTehMarbutaGoal.fina" unicode="&#x6c3;" horiz-adv-x="501" 
d="M325 427v43q0 10 10 10h64q10 0 10 -10v-339q0 -30 11.5 -41.5t36.5 -11.5h44q40 0 40 -40q0 -25 -9.5 -31.5t-30.5 -6.5h-59q-49 0 -76.5 18.5t-36.5 61.5q-20 -18 -48 -27t-61 -9q-39 0 -72.5 11t-58 33.5t-38.5 57t-14 81.5q0 56 16 94t42 61.5t60.5 34t71.5 10.5h98z
M221 122q57 0 80.5 33.5t23.5 93.5v100h-98q-47 0 -76.5 -26.5t-29.5 -95.5q0 -52 26 -78.5t74 -26.5zM267 542q-10 0 -10 10v73q0 10 10 10h68q10 0 10 -10v-73q0 -10 -10 -10h-68zM145 542q-10 0 -10 10v73q0 10 10 10h68q10 0 10 -10v-73q0 -10 -10 -10h-68z" />
    <glyph glyph-name="aYehFarsi" unicode="&#x6cc;" horiz-adv-x="775" arabic-form="isolated" 
d="M696 -61q0 -26 -9.5 -51t-31.5 -44.5t-58 -31t-88 -11.5h-234q-117 0 -178 58.5t-61 160.5q0 59 19.5 113.5t45.5 91.5q4 7 14 1l55 -30q8 -5 3 -13q-18 -28 -34.5 -69t-16.5 -86q0 -41 13.5 -69.5t36.5 -45.5t52.5 -24.5t62.5 -7.5h221q60 0 83.5 18t23.5 43
q0 23 -32 47.5t-87 57.5q-22 13 -43 29.5t-37 37t-26 45t-10 53.5q0 31 11.5 60t34 51.5t56.5 36.5t78 14q36 0 62 -6t46.5 -16.5t36 -25.5t30.5 -33q6 -7 -3 -14l-44 -36q-8 -6 -14 1q-22 24 -47.5 38t-66.5 14q-40 0 -68 -21t-28 -62q0 -20 10.5 -36.5t27.5 -32t39 -30
t45 -28.5q55 -34 82.5 -67t27.5 -80z" />
    <glyph glyph-name="aYehBarri" unicode="&#x6d2;" horiz-adv-x="753" arabic-form="isolated" 
d="M331 348q-25 -37 -62 -63.5t-72 -49t-60 -44.5t-25 -50q0 -25 23.5 -44t83.5 -19h504q10 0 10 -10v-58q0 -10 -10 -10h-504q-53 0 -89 11t-58 29.5t-31.5 42t-9.5 48.5q0 49 28.5 84t67.5 64t79.5 56.5t63.5 61.5q6 8 15 1l45 -36q6 -6 1 -14z" />
    <glyph glyph-name="aYehBarriHamzaabove" unicode="&#x6d3;" horiz-adv-x="819" arabic-form="isolated" 
d="M338 348q-25 -37 -62 -63.5t-72 -49t-60 -44.5t-25 -50q0 -25 23.5 -44t83.5 -19h504q10 0 10 -10v-58q0 -10 -10 -10h-504q-53 0 -89 11t-58 29.5t-31.5 42t-9.5 48.5q0 49 28.5 84t67.5 64t79.5 56.5t63.5 61.5q6 8 15 1l45 -36q6 -6 1 -14zM83 454q-8 11 -13 27t-5 35
q0 16 5 33.5t17 32t31.5 24t48.5 9.5q26 0 46.5 -9t32.5 -26q3 -7 0 -10l-21 -17q-7 -6 -11 -2q-9 10 -21 16.5t-27 6.5q-28 0 -41.5 -17t-13.5 -40q0 -22 11.5 -38.5t22.5 -24.5h103q6 0 6 -7v-28q0 -7 -6 -7h-203q-6 0 -6 7v28q0 7 6 7h38z" />
    <glyph glyph-name="aAe.fina" unicode="&#x6d5;" horiz-adv-x="501" 
d="M325 427v43q0 10 10 10h64q10 0 10 -10v-339q0 -30 11.5 -41.5t36.5 -11.5h44q40 0 40 -40q0 -25 -9.5 -31.5t-30.5 -6.5h-59q-49 0 -76.5 18.5t-36.5 61.5q-20 -18 -48 -27t-61 -9q-39 0 -72.5 11t-58 33.5t-38.5 57t-14 81.5q0 56 16 94t42 61.5t60.5 34t71.5 10.5h98z
M221 122q57 0 80.5 33.5t23.5 93.5v100h-98q-47 0 -76.5 -26.5t-29.5 -95.5q0 -52 26 -78.5t74 -26.5z" />
    <glyph glyph-name="aAlifWasla.fina" unicode="&#x671;" horiz-adv-x="246" arabic-form="final" 
d="M70 670q0 10 10 10h64q10 0 10 -10v-539q0 -30 11.5 -41.5t36.5 -11.5h44q40 0 40 -40q0 -25 -9.5 -31.5t-30.5 -6.5h-59q-63 0 -90 30.5t-27 95.5v544zM26 795q10 0 10 11v93q0 7 8 7h23q8 0 8 -7v-11q15 8 32 12.5t35 4.5q45 0 62.5 -23.5t17.5 -56.5q0 -35 -13 -50.5
t-41 -15.5h-154q-7 0 -7 7v22q0 7 7 7h12zM140 869q-16 0 -33 -5.5t-32 -11.5v-57h84q16 0 20 6t4 25q0 20 -9 31.5t-34 11.5z" />
    <glyph glyph-name="aPeh.fina" unicode="&#x67e;" horiz-adv-x="865" arabic-form="final" 
d="M638 78q26 0 37.5 11.5t11.5 41.5v268q0 10 10 10h64q10 0 10 -10v-257q0 -32 25 -48t65 -16h11q20 0 30 -8.5t10 -28.5q0 -26 -9.5 -33.5t-30.5 -7.5h-21q-32 0 -56 13t-37 39q-13 -26 -38.5 -39t-67.5 -13h-481q-63 0 -90 30.5t-27 95.5v209q0 10 10 10h64q10 0 10 -10
v-204q0 -30 11.5 -41.5t36.5 -11.5h452v0zM437 -186q-10 0 -10 10v73q0 10 10 10h68q10 0 10 -10v-73q0 -10 -10 -10h-68zM315 -186q-10 0 -10 10v73q0 10 10 10h68q10 0 10 -10v-73q0 -10 -10 -10h-68zM376 -303q-10 0 -10 10v73q0 10 10 10h68q10 0 10 -10v-73
q0 -10 -10 -10h-68z" />
    <glyph glyph-name="aPeh.init" unicode="&#x67e;" horiz-adv-x="276" arabic-form="initial" 
d="M0 0q-20 0 -30 7t-10 28q0 25 9.5 34t30.5 9h69q25 0 36.5 11.5t11.5 41.5v268q0 10 10 10h64q10 0 10 -10v-273q0 -65 -27 -95.5t-90 -30.5h-84zM155 -186q-10 0 -10 10v73q0 10 10 10h68q10 0 10 -10v-73q0 -10 -10 -10h-68zM33 -186q-10 0 -10 10v73q0 10 10 10h68
q10 0 10 -10v-73q0 -10 -10 -10h-68zM94 -303q-10 0 -10 10v73q0 10 10 10h68q10 0 10 -10v-73q0 -10 -10 -10h-68z" />
    <glyph glyph-name="aPeh.medi" unicode="&#x67e;" horiz-adv-x="309" arabic-form="medial" 
d="M7 0q-20 0 -30 7t-10 28q0 25 9.5 34t30.5 9h68q25 0 36.5 11.5t11.5 41.5v268q0 10 10 10h64q10 0 10 -10v-253q0 -34 24.5 -51t65.5 -17h12q20 0 30 -8.5t10 -28.5q0 -26 -9.5 -33.5t-30.5 -7.5h-22q-32 0 -56 13t-37 39q-25 -52 -104 -52h-83zM187 -186q-10 0 -10 10
v73q0 10 10 10h68q10 0 10 -10v-73q0 -10 -10 -10h-68zM65 -186q-10 0 -10 10v73q0 10 10 10h68q10 0 10 -10v-73q0 -10 -10 -10h-68zM126 -303q-10 0 -10 10v73q0 10 10 10h68q10 0 10 -10v-73q0 -10 -10 -10h-68z" />
    <glyph glyph-name="aTteh.fina" unicode="&#x679;" horiz-adv-x="865" arabic-form="final" 
d="M638 78q26 0 37.5 11.5t11.5 41.5v268q0 10 10 10h64q10 0 10 -10v-257q0 -32 25 -48t65 -16h11q20 0 30 -8.5t10 -28.5q0 -26 -9.5 -33.5t-30.5 -7.5h-21q-32 0 -56 13t-37 39q-13 -26 -38.5 -39t-67.5 -13h-481q-63 0 -90 30.5t-27 95.5v209q0 10 10 10h64q10 0 10 -10
v-204q0 -30 11.5 -41.5t36.5 -11.5h452v0zM316 474q10 0 10 11v166q0 7 8 7h23q8 0 8 -7v-84q15 8 32.5 12.5t34.5 4.5q45 0 62.5 -23.5t17.5 -56.5q0 -35 -13 -50.5t-41 -15.5h-133h-5h-16q-7 0 -7 7v22q0 7 7 7h12zM430 548q-16 0 -33 -5.5t-32 -11.5v-47v-10h84
q16 0 20 6t4 25q0 20 -9 31.5t-34 11.5z" />
    <glyph glyph-name="aTteh.init" unicode="&#x679;" horiz-adv-x="265" arabic-form="initial" 
d="M0 0q-20 0 -30 7t-10 28q0 25 9.5 34t30.5 9h63q25 0 36.5 11.5t11.5 41.5v268q0 10 10 10h64q10 0 10 -10v-273q0 -65 -27 -95.5t-90 -30.5h-78zM64 540q10 0 10 11v166q0 7 8 7h23q8 0 8 -7v-84q15 8 32.5 12.5t34.5 4.5q45 0 62.5 -23.5t17.5 -56.5q0 -35 -13 -50.5
t-41 -15.5h-133h-5h-16q-7 0 -7 7v22q0 7 7 7h12zM178 614q-16 0 -33 -5.5t-32 -11.5v-47v-10h84q16 0 20 6t4 25q0 20 -9 31.5t-34 11.5z" />
    <glyph glyph-name="aTteh.medi" unicode="&#x679;" horiz-adv-x="296" arabic-form="medial" 
d="M7 0q-20 0 -30 7t-10 28q0 25 9.5 34t30.5 9h63q25 0 36.5 11.5t11.5 41.5v268q0 10 10 10h64q10 0 10 -10v-253q0 -34 24.5 -51t65.5 -17h12q20 0 30 -8.5t10 -28.5q0 -26 -9.5 -33.5t-30.5 -7.5h-22q-32 0 -56 13t-37 39q-25 -52 -104 -52h-78zM71 540q10 0 10 11v166
q0 7 8 7h23q8 0 8 -7v-84q15 8 32.5 12.5t34.5 4.5q45 0 62.5 -23.5t17.5 -56.5q0 -35 -13 -50.5t-41 -15.5h-133h-5h-16q-7 0 -7 7v22q0 7 7 7h12zM185 614q-16 0 -33 -5.5t-32 -11.5v-47v-10h84q16 0 20 6t4 25q0 20 -9 31.5t-34 11.5z" />
    <glyph glyph-name="aVeh.fina" unicode="&#x6a4;" horiz-adv-x="959" arabic-form="final" 
d="M696 427q51 0 88 -13.5t61.5 -37.5t36.5 -57.5t12 -73.5q0 -51 -23.5 -95t-65.5 -73q5 1 15 1h139q20 0 30 -7t10 -28q0 -25 -9.5 -34t-30.5 -9h-133q-36 0 -68 3t-61 21q-33 -18 -70.5 -21t-66.5 -3h-396q-63 0 -90 30.5t-27 95.5v209q0 10 10 10h64q10 0 10 -10v-204
q0 -30 11.5 -41.5t36.5 -11.5h407q-41 29 -64.5 72.5t-23.5 94.5q0 40 12 73.5t36.5 57.5t61.5 37.5t88 13.5zM696 349q-48 0 -79 -28t-31 -81q0 -54 32 -90.5t78 -54.5q46 18 78 54.5t32 90.5q0 53 -31 81t-79 28zM723 508q-10 0 -10 10v73q0 10 10 10h68q10 0 10 -10v-73
q0 -10 -10 -10h-68zM601 508q-10 0 -10 10v73q0 10 10 10h68q10 0 10 -10v-73q0 -10 -10 -10h-68zM663 625q-10 0 -10 10v73q0 10 10 10h68q10 0 10 -10v-73q0 -10 -10 -10h-68z" />
    <glyph glyph-name="aVeh.init" unicode="&#x6a4;" horiz-adv-x="530" arabic-form="initial" 
d="M7 0q-21 0 -30.5 7.5t-9.5 33.5q0 20 10 28.5t30 8.5h113q-29 49 -29 131q0 57 14.5 98.5t40.5 68t60.5 39t75.5 12.5q89 0 140 -51.5t51 -166.5q0 -57 -13.5 -97t-38 -64.5t-60 -36t-79.5 -11.5h-275zM282 349q-53 0 -80 -36t-27 -98q0 -74 25.5 -105.5t81.5 -31.5
t81.5 29.5t25.5 101.5q0 66 -25.5 103t-81.5 37zM306 508q-10 0 -10 10v73q0 10 10 10h68q10 0 10 -10v-73q0 -10 -10 -10h-68zM184 508q-10 0 -10 10v73q0 10 10 10h68q10 0 10 -10v-73q0 -10 -10 -10h-68zM246 625q-10 0 -10 10v73q0 10 10 10h68q10 0 10 -10v-73
q0 -10 -10 -10h-68z" />
    <glyph glyph-name="aVeh.medi" unicode="&#x6a4;" horiz-adv-x="520" arabic-form="medial" 
d="M257 427q51 0 88 -13.5t61.5 -37.5t36.5 -57.5t12 -73.5q0 -51 -23.5 -95t-65.5 -73q5 1 15 1h139q20 0 30 -7t10 -28q0 -25 -9.5 -34t-30.5 -9h-133q-36 0 -68 3t-61 21q-33 -18 -70.5 -21t-66.5 -3h-121q-40 0 -40 40q0 25 9.5 31.5t30.5 6.5h147q-41 29 -64.5 72.5
t-23.5 94.5q0 40 12 73.5t36.5 57.5t61.5 37.5t88 13.5zM257 349q-48 0 -79 -28t-31 -81q0 -54 32 -90.5t78 -54.5q46 18 78 54.5t32 90.5q0 53 -31 81t-79 28zM285 508q-10 0 -10 10v73q0 10 10 10h68q10 0 10 -10v-73q0 -10 -10 -10h-68zM163 508q-10 0 -10 10v73
q0 10 10 10h68q10 0 10 -10v-73q0 -10 -10 -10h-68zM225 625q-10 0 -10 10v73q0 10 10 10h68q10 0 10 -10v-73q0 -10 -10 -10h-68z" />
    <glyph glyph-name="aTcheh.fina" unicode="&#x686;" horiz-adv-x="602" arabic-form="final" 
d="M361 -126q-7 0 -7 7v51q0 7 7 7h48q7 0 7 -7v-51q0 -7 -7 -7h-48zM276 -126q-7 0 -7 7v51q0 7 7 7h48q7 0 7 -7v-51q0 -7 -7 -7h-48zM319 -208q-7 0 -7 7v51q0 7 7 7h47q7 0 7 -7v-51q0 -7 -7 -7h-47zM195 -199q-77 0 -122.5 32.5t-45.5 104.5q0 41 13.5 68t34.5 43
t46 22.5t48 6.5h158q28 0 45 4.5t26 15.5t12 29.5t3 45.5q0 39 -7 71.5t-22.5 56t-41.5 36t-65 12.5q-34 0 -62.5 -14t-50.5 -38q-6 -7 -14 -1l-44 36q-9 7 -3 14q28 35 69.5 58t101.5 23q69 0 113 -21.5t69.5 -56.5t35.5 -81t10 -95q0 -9 -0.5 -17t-0.5 -16
q2 -31 26.5 -46.5t63.5 -15.5h11q20 0 30 -8.5t10 -28.5q0 -26 -9.5 -33.5t-30.5 -7.5h-21q-34 0 -61 14.5t-38 43.5q-17 -32 -47.5 -45t-76.5 -13h-189q-31 0 -43.5 -17.5t-12.5 -42.5q0 -32 17.5 -46.5t68.5 -14.5h41q10 0 10 -10v-58q0 -10 -10 -10h-45z" />
    <glyph glyph-name="aTcheh.init" unicode="&#x686;" horiz-adv-x="514" arabic-form="initial" 
d="M234 349q-34 0 -62.5 -14t-50.5 -38q-6 -7 -14 -1l-44 36q-9 7 -3 14q28 35 69.5 58t101.5 23q69 0 113 -21.5t69.5 -56.5t35.5 -81t10 -95q0 -50 -8.5 -83t-26 -53t-45 -28.5t-64.5 -8.5h-315q-40 0 -40 40q0 25 9.5 31.5t30.5 6.5h284q28 0 45 4.5t26 15.5t12 29.5
t3 45.5q0 39 -7 71.5t-22.5 56t-41.5 36t-65 12.5zM282 -186q-10 0 -10 10v73q0 10 10 10h68q10 0 10 -10v-73q0 -10 -10 -10h-68zM160 -186q-10 0 -10 10v73q0 10 10 10h68q10 0 10 -10v-73q0 -10 -10 -10h-68zM221 -303q-10 0 -10 10v73q0 10 10 10h68q10 0 10 -10v-73
q0 -10 -10 -10h-68z" />
    <glyph glyph-name="aTcheh.medi" unicode="&#x686;" horiz-adv-x="559" arabic-form="medial" 
d="M234 349q-34 0 -62.5 -14t-50.5 -38q-6 -7 -14 -1l-44 36q-9 7 -3 14q28 35 69.5 58t101.5 23q69 0 113 -21.5t69.5 -56.5t35.5 -81t10 -95q0 -9 -0.5 -17t-0.5 -16q2 -31 26.5 -46.5t63.5 -15.5h11q20 0 30 -8.5t10 -28.5q0 -26 -9.5 -33.5t-30.5 -7.5h-21
q-34 0 -61 14.5t-38 43.5q-17 -32 -47.5 -45t-76.5 -13h-315q-40 0 -40 40q0 25 9.5 31.5t30.5 6.5h284q28 0 45 4.5t26 15.5t12 29.5t3 45.5q0 39 -7 71.5t-22.5 56t-41.5 36t-65 12.5zM282 -186q-10 0 -10 10v73q0 10 10 10h68q10 0 10 -10v-73q0 -10 -10 -10h-68z
M160 -186q-10 0 -10 10v73q0 10 10 10h68q10 0 10 -10v-73q0 -10 -10 -10h-68zM221 -303q-10 0 -10 10v73q0 10 10 10h68q10 0 10 -10v-73q0 -10 -10 -10h-68z" />
    <glyph glyph-name="aDdal.fina" unicode="&#x688;" horiz-adv-x="534" arabic-form="final" 
d="M433 146q0 -34 24.5 -51t65.5 -17h11q20 0 30 -8.5t10 -28.5q0 -26 -9.5 -33.5t-30.5 -7.5h-21q-34 0 -61 14.5t-38 43.5q-17 -33 -47 -45.5t-78 -12.5h-222q-10 0 -10 10v58q0 10 10 10h191q28 0 45 4.5t26 15t12 27.5t3 43v80q0 101 -114 101h-116q-10 0 -10 10v58
q0 10 10 10h147q76 0 124 -43t48 -135v-103zM135 540q10 0 10 11v166q0 7 8 7h23q8 0 8 -7v-84q15 8 32.5 12.5t34.5 4.5q45 0 62.5 -23.5t17.5 -56.5q0 -35 -13 -50.5t-41 -15.5h-133h-5h-16q-7 0 -7 7v22q0 7 7 7h12zM249 614q-16 0 -33 -5.5t-32 -11.5v-47v-10h84
q16 0 20 6t4 25q0 20 -9 31.5t-34 11.5z" />
    <glyph glyph-name="aJeh.fina" unicode="&#x698;" horiz-adv-x="299" arabic-form="final" 
d="M10 -199q-10 0 -10 10v58q0 10 10 10h23q81 0 81 85v435q0 10 10 10h64q10 0 10 -10v-253q0 -34 24.5 -51t65.5 -17h11q20 0 30 -8.5t10 -28.5q0 -26 -9.5 -33.5t-30.5 -7.5h-21q-52 0 -80 32v-66q0 -81 -41 -123t-120 -42h-27zM184 508q-10 0 -10 10v73q0 10 10 10h68
q10 0 10 -10v-73q0 -10 -10 -10h-68zM62 508q-10 0 -10 10v73q0 10 10 10h68q10 0 10 -10v-73q0 -10 -10 -10h-68zM124 625q-10 0 -10 10v73q0 10 10 10h68q10 0 10 -10v-73q0 -10 -10 -10h-68z" />
    <glyph glyph-name="aRreh.fina" unicode="&#x691;" horiz-adv-x="299" arabic-form="final" 
d="M10 -199q-10 0 -10 10v58q0 10 10 10h23q81 0 81 85v435q0 10 10 10h64q10 0 10 -10v-253q0 -34 24.5 -51t65.5 -17h11q20 0 30 -8.5t10 -28.5q0 -26 -9.5 -33.5t-30.5 -7.5h-21q-52 0 -80 32v-66q0 -81 -41 -123t-120 -42h-27zM67 540q10 0 10 11v166q0 7 8 7h23
q8 0 8 -7v-84q15 8 32.5 12.5t34.5 4.5q45 0 62.5 -23.5t17.5 -56.5q0 -35 -13 -50.5t-41 -15.5h-133h-5h-16q-7 0 -7 7v22q0 7 7 7h12zM181 614q-16 0 -33 -5.5t-32 -11.5v-47v-10h84q16 0 20 6t4 25q0 20 -9 31.5t-34 11.5z" />
    <glyph glyph-name="aKeheh.fina" unicode="&#x6a9;" horiz-adv-x="888" arabic-form="final" 
d="M614 78q28 0 45 4.5t26 15t12 27.5t3 43v62q0 101 -114 101h-161q-10 0 -10 10v56q0 5 3.5 9.5t5.5 6.5l219 258q6 7 13 3l48 -40q8 -6 4 -14l-180 -211h89q76 0 124 -43t48 -135v-97q0 -28 25 -42t63 -14h11q20 0 30 -8.5t10 -28.5q0 -26 -9.5 -33.5t-30.5 -7.5h-21
q-33 0 -60 14.5t-39 41.5q-17 -32 -46.5 -44t-76.5 -12h-481q-63 0 -90 30.5t-27 95.5v209q0 10 10 10h64q10 0 10 -10v-204q0 -30 11.5 -41.5t36.5 -11.5h435z" />
    <glyph glyph-name="aKeheh.init" unicode="&#x6a9;" horiz-adv-x="493" arabic-form="initial" 
d="M177 409h89q76 0 124 -43t48 -135v-60q0 -50 -8.5 -83t-26 -52.5t-44.5 -27.5t-65 -8h-294q-40 0 -40 40q0 25 9.5 31.5t30.5 6.5h263q28 0 45 4.5t26 15t12 27.5t3 43v62q0 101 -114 101h-161q-10 0 -10 10v56q0 5 3.5 9.5t5.5 6.5l219 258q6 7 13 3l48 -40q8 -6 4 -14z
" />
    <glyph glyph-name="aKeheh.medi" unicode="&#x6a9;" horiz-adv-x="538" arabic-form="medial" 
d="M177 409h89q76 0 124 -43t48 -135v-60q0 -8 -0.5 -16t-0.5 -16q2 -31 26.5 -46t63.5 -15h11q20 0 30 -8.5t10 -28.5q0 -26 -9.5 -33.5t-30.5 -7.5h-21q-33 0 -60.5 14.5t-38.5 42.5q-17 -32 -47 -44.5t-77 -12.5h-294q-40 0 -40 40q0 25 9.5 31.5t30.5 6.5h263
q28 0 45 4.5t26 15t12 27.5t3 43v62q0 101 -114 101h-161q-10 0 -10 10v56q0 5 3.5 9.5t5.5 6.5l219 258q6 7 13 3l48 -40q8 -6 4 -14z" />
    <glyph glyph-name="aGaf.fina" unicode="&#x6af;" horiz-adv-x="888" arabic-form="final" 
d="M614 78q28 0 45 4.5t26 15t12 27.5t3 43v62q0 101 -114 101h-161q-10 0 -10 10v56q0 5 3.5 9.5t5.5 6.5l219 258q6 7 13 3l48 -40q8 -6 4 -14l-180 -211h89q76 0 124 -43t48 -135v-97q0 -28 25 -42t63 -14h11q20 0 30 -8.5t10 -28.5q0 -26 -9.5 -33.5t-30.5 -7.5h-21
q-33 0 -60 14.5t-39 41.5q-17 -32 -46.5 -44t-76.5 -12h-481q-63 0 -90 30.5t-27 95.5v209q0 10 10 10h64q10 0 10 -10v-204q0 -30 11.5 -41.5t36.5 -11.5h435zM379 449q-6 -7 -13 -3l-48 40q-8 5 -4 14l219 258q6 7 13 3l48 -40q8 -6 4 -14z" />
    <glyph glyph-name="aGaf.init" unicode="&#x6af;" horiz-adv-x="493" arabic-form="initial" 
d="M177 409h89q76 0 124 -43t48 -135v-60q0 -50 -8.5 -83t-26 -52.5t-44.5 -27.5t-65 -8h-294q-40 0 -40 40q0 25 9.5 31.5t30.5 6.5h263q28 0 45 4.5t26 15t12 27.5t3 43v62q0 101 -114 101h-161q-10 0 -10 10v56q0 5 3.5 9.5t5.5 6.5l219 258q6 7 13 3l48 -40q8 -6 4 -14z
M34 449q-6 -7 -13 -3l-48 40q-8 5 -4 14l219 258q6 7 13 3l48 -40q8 -6 4 -14z" />
    <glyph glyph-name="aGaf.medi" unicode="&#x6af;" horiz-adv-x="538" arabic-form="medial" 
d="M177 409h89q76 0 124 -43t48 -135v-60q0 -8 -0.5 -16t-0.5 -16q2 -31 26.5 -46t63.5 -15h11q20 0 30 -8.5t10 -28.5q0 -26 -9.5 -33.5t-30.5 -7.5h-21q-33 0 -60.5 14.5t-38.5 42.5q-17 -32 -47 -44.5t-77 -12.5h-294q-40 0 -40 40q0 25 9.5 31.5t30.5 6.5h263
q28 0 45 4.5t26 15t12 27.5t3 43v62q0 101 -114 101h-161q-10 0 -10 10v56q0 5 3.5 9.5t5.5 6.5l219 258q6 7 13 3l48 -40q8 -6 4 -14zM24 449q-6 -7 -13 -3l-48 40q-8 5 -4 14l219 258q6 7 13 3l48 -40q8 -6 4 -14z" />
    <glyph glyph-name="aNunGhunna.fina" unicode="&#x6ba;" horiz-adv-x="610" arabic-form="final" 
d="M110 225q4 7 14 1l55 -30q8 -5 3 -13q-18 -28 -34.5 -69t-16.5 -86q0 -43 14.5 -71.5t37.5 -45t50 -23.5t53 -7q64 0 105 33t41 107v292q0 10 10 10h64q10 0 10 -10v-167q0 -34 24.5 -51t65.5 -17h4q20 0 30 -8.5t10 -28.5q0 -26 -9.5 -33.5t-30.5 -7.5h-14q-52 0 -80 32
v-12q0 -103 -60.5 -161t-174.5 -58q-54 0 -97.5 14.5t-74 42.5t-47.5 68.5t-17 93.5q0 59 19.5 113.5t45.5 91.5z" />
    <glyph glyph-name="aHehYeh.fina" unicode="&#x6c0;" horiz-adv-x="501" arabic-form="final" 
d="M325 427v43q0 10 10 10h64q10 0 10 -10v-339q0 -30 11.5 -41.5t36.5 -11.5h44q40 0 40 -40q0 -25 -9.5 -31.5t-30.5 -6.5h-59q-49 0 -76.5 18.5t-36.5 61.5q-20 -18 -48 -27t-61 -9q-39 0 -72.5 11t-58 33.5t-38.5 57t-14 81.5q0 56 16 94t42 61.5t60.5 34t71.5 10.5h98z
M221 122q57 0 80.5 33.5t23.5 93.5v100h-98q-47 0 -76.5 -26.5t-29.5 -95.5q0 -52 26 -78.5t74 -26.5zM168 570q-8 11 -13 27t-5 35q0 16 5 33.5t17 32t31.5 24t48.5 9.5q26 0 46.5 -9t32.5 -26q3 -7 0 -10l-21 -17q-7 -6 -11 -2q-9 10 -21 16.5t-27 6.5q-28 0 -41.5 -17
t-13.5 -40q0 -22 11.5 -38.5t22.5 -24.5h103q6 0 6 -7v-28q0 -7 -6 -7h-203q-6 0 -6 7v28q0 7 6 7h38z" />
    <glyph glyph-name="aHehGoal.fina" unicode="&#x6c1;" horiz-adv-x="492" arabic-form="final" 
d="M385 150q0 -35 13.5 -53.5t55.5 -18.5h38q21 0 30.5 -9t9.5 -34q0 -21 -10 -28t-30 -7h-47q-144 0 -144 141v184h-68q-61 0 -85 -31.5t-24 -94.5v-189q0 -10 -10 -10h-64q-10 0 -10 10v212q0 58 17.5 94.5t45.5 57t63 28t71 7.5h138q10 0 10 -10v-249z" />
    <glyph glyph-name="aHehGoal.init" unicode="&#x6c1;" horiz-adv-x="273" arabic-form="initial" 
d="M193 -145q-6 -1 -12.5 -1h-12.5q-23 0 -46 5.5t-41 18t-29.5 33.5t-11.5 52q0 18 4 37h-44q-20 0 -30 7t-10 28q0 25 9.5 34t30.5 9h63q25 0 36.5 11.5t11.5 41.5v268q0 10 10 10h64q10 0 10 -10v-273q0 -54 -17.5 -83.5t-58.5 -38.5q-4 -15 -4 -29q0 -32 24 -42.5
t54 -10.5q10 0 10 -10v-47q0 -8 -10 -10z" />
    <glyph glyph-name="aHehGoal.medi" unicode="&#x6c1;" horiz-adv-x="441" arabic-form="medial" 
d="M143 78q10 0 10 -10v-75q0 -48 18.5 -68.5t65.5 -20.5v24q0 78 39.5 114t102.5 36h62q20 0 30 -7t10 -28q0 -25 -9.5 -34t-30.5 -9h-58q-32 0 -47 -13.5t-15 -49.5v-107q0 -10 -10 -10h-50q-90 0 -141 36t-51 114v30h-69q-40 0 -40 40q0 25 9.5 31.5t30.5 6.5h143z" />
    <glyph glyph-name="aHehDoachashmi.fina" unicode="&#x6be;" horiz-adv-x="601" arabic-form="final" 
d="M90 -64q0 -10 -10 -10h-64q-10 0 -10 10v75q0 23 8.5 36.5t21 20t27 8.5t25.5 2h64v131q0 57 16 98.5t43 68t62.5 39t74.5 12.5q85 0 134 -48.5t49 -157.5q0 -42 -12 -81t-28 -62h111q21 0 30.5 -6.5t9.5 -31.5q0 -40 -40 -40h-101q21 -26 21 -69q0 -30 -11 -55.5
t-33.5 -44t-55.5 -29.5t-78 -11q-93 0 -142.5 37.5t-49.5 115.5v56h-26q-23 0 -29.5 -6.5t-6.5 -27.5v-30zM344 349q-49 0 -78.5 -35.5t-29.5 -104.5v-131h113q27 0 45.5 12t30.5 31.5t17 44t5 48.5q0 66 -26 100.5t-77 34.5zM340 -131q54 0 76 17t22 48q0 11 -3 22.5
t-11.5 21.5t-23 16t-37.5 6h-127v-56q0 -75 104 -75z" />
    <glyph glyph-name="aHehDoachashmi.init" unicode="&#x6be;" horiz-adv-x="602" arabic-form="initial" 
d="M287 363q-34 0 -71 -9t-77 -32q-4 -2 -8 -3.5t-6 2.5l-28 47q-6 11 0 15q46 30 98.5 44t101.5 14q75 0 123 -23t76.5 -60t39.5 -82t11 -89q0 -55 -8.5 -91t-26 -57.5t-44.5 -30t-65 -8.5h-403q-40 0 -40 40q0 25 9.5 31.5t30.5 6.5h125q-14 30 -14 70q0 71 37.5 107
t93.5 36q27 0 51 -9t42 -27t28 -44.5t10 -62.5q0 -40 -14 -70h13q28 0 45 5t26 17t12 33t3 54q0 34 -8.5 66t-28.5 56.5t-53 39t-81 14.5zM242 219q-28 0 -43.5 -18.5t-15.5 -52.5q0 -35 14 -51.5t39 -18.5h11q26 2 39 18.5t13 51.5q0 34 -14.5 52.5t-42.5 18.5z" />
    <glyph glyph-name="aHehDoachashmi.medi" unicode="&#x6be;" horiz-adv-x="560" arabic-form="medial" 
d="M-40 40q0 25 9.5 31.5t30.5 6.5h111v131q0 57 14.5 98.5t39.5 68t59.5 39t73.5 12.5q92 0 142 -50t50 -156q0 -42 -12 -81t-28 -62h111q21 0 30.5 -6.5t9.5 -31.5q0 -40 -40 -40h-101q21 -26 21 -69q0 -30 -11 -55.5t-33.5 -44t-55.5 -29.5t-78 -11q-93 0 -142.5 37.5
t-49.5 115.5v56h-111q-40 0 -40 40zM298 349q-48 0 -75.5 -34t-27.5 -95v-142h113q27 0 45.5 12t30.5 31.5t17 44t5 48.5q0 65 -27 100t-81 35zM299 -131q54 0 76 17t22 48q0 11 -3 22.5t-11.5 21.5t-23 16t-37.5 6h-127v-56q0 -75 104 -75z" />
    <glyph glyph-name="aYehBarri.fina" unicode="&#x6d2;" horiz-adv-x="334" arabic-form="final" 
d="M104 -65q0 -27 18 -41.5t68 -14.5h381q10 0 10 -10v-58q0 -10 -10 -10h-378q-46 0 -78.5 10t-52.5 28t-29.5 42t-9.5 51q0 36 13 63.5t36.5 46t55 27.5t67.5 9h139q20 0 30 -7t10 -28q0 -25 -9.5 -34t-30.5 -9h-149q-45 0 -63 -16.5t-18 -48.5z" />
    <glyph glyph-name="aYehBarriHamzaabove.fina" unicode="&#x6d3;" horiz-adv-x="334" arabic-form="final" 
d="M104 -65q0 -27 18 -41.5t68 -14.5h381q10 0 10 -10v-58q0 -10 -10 -10h-378q-46 0 -78.5 10t-52.5 28t-29.5 42t-9.5 51q0 36 13 63.5t36.5 46t55 27.5t67.5 9h139q20 0 30 -7t10 -28q0 -25 -9.5 -34t-30.5 -9h-149q-45 0 -63 -16.5t-18 -48.5zM94 179q-8 11 -13 27
t-5 35q0 16 5 33.5t17 32t31.5 24t48.5 9.5q26 0 46.5 -9t32.5 -26q3 -7 0 -10l-21 -17q-7 -6 -11 -2q-9 10 -21 16.5t-27 6.5q-28 0 -41.5 -17t-13.5 -40q0 -22 11.5 -38.5t22.5 -24.5h103q6 0 6 -7v-28q0 -7 -6 -7h-203q-6 0 -6 7v28q0 7 6 7h38z" />
    <glyph glyph-name="aAlifMaksura.init" unicode="&#x649;" horiz-adv-x="265" arabic-form="initial" 
d="M0 0q-20 0 -30 7t-10 28q0 25 9.5 34t30.5 9h63q25 0 36.5 11.5t11.5 41.5v268q0 10 10 10h64q10 0 10 -10v-273q0 -65 -27 -95.5t-90 -30.5h-78z" />
    <glyph glyph-name="aAlifMaksura.medi" unicode="&#x649;" horiz-adv-x="296" arabic-form="medial" 
d="M0 0q-20 0 -30 7t-10 28q0 25 9.5 34t30.5 9h63q25 0 36.5 11.5t11.5 41.5v268q0 10 10 10h64q10 0 10 -10v-253q0 -34 24.5 -51t65.5 -17h12q20 0 30 -8.5t10 -28.5q0 -26 -9.5 -33.5t-30.5 -7.5h-22q-32 0 -56 13t-37 39q-25 -52 -104 -52h-78z" />
    <glyph glyph-name="aYehFarsi.fina" unicode="&#x6cc;" horiz-adv-x="755" arabic-form="final" 
d="M440 149q32 -12 62 -24.5t58.5 -23t56.5 -17t57 -6.5h81q20 0 30 -7t10 -28q0 -25 -9.5 -34t-30.5 -9h-71q5 -8 12 -26.5t7 -40.5q0 -24 -9.5 -47.5t-31.5 -42.5t-58 -30.5t-88 -11.5h-234q-117 0 -178 58.5t-61 160.5q0 59 19.5 113.5t45.5 91.5q4 7 14 1l55 -30
q8 -5 3 -13q-18 -28 -34.5 -69t-16.5 -86q0 -41 13.5 -69.5t36.5 -45.5t52.5 -24.5t62.5 -7.5h221q60 0 83.5 18t23.5 43q0 22 -13.5 38t-40 29.5t-66 27.5t-90.5 33q-9 3 -6 12l22 60q3 10 12 7z" />
    <glyph glyph-name="aYehFarsi.init" unicode="&#x6cc;" horiz-adv-x="276" arabic-form="initial" 
d="M0 0q-20 0 -30 7t-10 28q0 25 9.5 34t30.5 9h69q25 0 36.5 11.5t11.5 41.5v268q0 10 10 10h64q10 0 10 -10v-273q0 -65 -27 -95.5t-90 -30.5h-84zM155 -186q-10 0 -10 10v73q0 10 10 10h68q10 0 10 -10v-73q0 -10 -10 -10h-68zM33 -186q-10 0 -10 10v73q0 10 10 10h68
q10 0 10 -10v-73q0 -10 -10 -10h-68z" />
    <glyph glyph-name="aYehFarsi.medi" unicode="&#x6cc;" horiz-adv-x="309" arabic-form="medial" 
d="M7 0q-20 0 -30 7t-10 28q0 25 9.5 34t30.5 9h68q25 0 36.5 11.5t11.5 41.5v268q0 10 10 10h64q10 0 10 -10v-253q0 -34 24.5 -51t65.5 -17h12q20 0 30 -8.5t10 -28.5q0 -26 -9.5 -33.5t-30.5 -7.5h-22q-32 0 -56 13t-37 39q-25 -52 -104 -52h-83zM188 -186q-10 0 -10 10
v73q0 10 10 10h68q10 0 10 -10v-73q0 -10 -10 -10h-68zM66 -186q-10 0 -10 10v73q0 10 10 10h68q10 0 10 -10v-73q0 -10 -10 -10h-68z" />
    <glyph glyph-name="aShadda_aDammatan" unicode="&#xfc5e;" horiz-adv-x="0" arabic-form="isolated" 
d="M-127 898q0 10 10 10h18q10 0 10 -10v-74q0 -19 9.5 -29.5t25.5 -10.5t25.5 9.5t9.5 26.5v78q0 10 10 10h18q10 0 10 -10v-78q0 -17 9.5 -26.5t25.5 -9.5t25.5 10.5t9.5 29.5v74q0 10 10 10h18q10 0 10 -10v-71q0 -35 -19.5 -57t-53.5 -22q-35 0 -54 22q-19 -22 -54 -22
q-34 0 -53.5 22t-19.5 57v71zM-143 1073q-10 0 -10 10v14q0 10 10 10h6q32 0 54 -21t22 -68q0 -26 15 -31.5t44 -5.5q22 0 36.5 4.5t24 10.5t14.5 13.5t7 13.5h-33q-34 0 -53.5 18t-19.5 49q0 32 21.5 53.5t52.5 21.5q32 0 53.5 -21.5t21.5 -69.5q0 -36 -9.5 -60.5
t-26 -39.5t-39.5 -21t-50 -6q-20 0 -37.5 2t-30 9.5t-20 21.5t-7.5 38q0 29 -9.5 42t-26.5 13h-10zM87 1056q1 4 1 9v9q0 28 -11.5 42.5t-28.5 14.5q-20 0 -29.5 -13.5t-9.5 -27.5q0 -10 4.5 -16.5t11.5 -10.5t14 -5.5t13 -1.5h35z" />
    <glyph glyph-name="aShadda_aKasratan" unicode="&#xfc5f;" horiz-adv-x="0" arabic-form="isolated" 
d="M-127 1050q0 10 10 10h18q10 0 10 -10v-74q0 -19 9.5 -29.5t25.5 -10.5t25.5 9.5t9.5 26.5v78q0 10 10 10h18q10 0 10 -10v-78q0 -17 9.5 -26.5t25.5 -9.5t25.5 10.5t9.5 29.5v74q0 10 10 10h18q10 0 10 -10v-71q0 -35 -19.5 -57t-53.5 -22q-35 0 -54 22q-19 -22 -54 -22
q-34 0 -53.5 22t-19.5 57v71zM-128 818q-10 0 -10 10v14q0 10 10 10h254q10 0 10 -10v-14q0 -10 -10 -10h-254zM-128 750q-10 0 -10 10v14q0 10 10 10h254q10 0 10 -10v-14q0 -10 -10 -10h-254z" />
    <glyph glyph-name="aShadda_aFatha" unicode="&#xfc60;" horiz-adv-x="0" arabic-form="isolated" 
d="M-127 898q0 10 10 10h18q10 0 10 -10v-74q0 -19 9.5 -29.5t25.5 -10.5t25.5 9.5t9.5 26.5v78q0 10 10 10h18q10 0 10 -10v-78q0 -17 9.5 -26.5t25.5 -9.5t25.5 10.5t9.5 29.5v74q0 10 10 10h18q10 0 10 -10v-71q0 -35 -19.5 -57t-53.5 -22q-35 0 -54 22q-19 -22 -54 -22
q-34 0 -53.5 22t-19.5 57v71zM-130 960q-10 0 -10 10v14q0 10 10 10h254q10 0 10 -10v-14q0 -10 -10 -10h-254z" />
    <glyph glyph-name="aShadda_aDamma" unicode="&#xfc61;" horiz-adv-x="0" arabic-form="isolated" 
d="M-127 898q0 10 10 10h18q10 0 10 -10v-74q0 -19 9.5 -29.5t25.5 -10.5t25.5 9.5t9.5 26.5v78q0 10 10 10h18q10 0 10 -10v-78q0 -17 9.5 -26.5t25.5 -9.5t25.5 10.5t9.5 29.5v74q0 10 10 10h18q10 0 10 -10v-71q0 -35 -19.5 -57t-53.5 -22q-35 0 -54 22q-19 -22 -54 -22
q-34 0 -53.5 22t-19.5 57v71zM44 1063q1 4 1 9v9q0 28 -11.5 42.5t-28.5 14.5q-20 0 -29.5 -13.5t-9.5 -27.5q0 -10 4.5 -16.5t11.5 -10.5t14 -5.5t13 -1.5h35zM-45 988q22 0 36.5 4.5t24 10.5t14.5 13.5t7 13.5h-33q-34 0 -53.5 18t-19.5 49q0 32 21.5 53.5t52.5 21.5
q32 0 53.5 -21.5t21.5 -69.5q0 -36 -9.5 -60.5t-26 -39.5t-39.5 -21t-50 -6h-28q-10 0 -10 10v14q0 10 10 10h28z" />
    <glyph glyph-name="aShadda_aKasra" unicode="&#xfc62;" horiz-adv-x="0" arabic-form="isolated" 
d="M-127 985q0 10 10 10h18q10 0 10 -10v-74q0 -19 9.5 -29.5t25.5 -10.5t25.5 9.5t9.5 26.5v78q0 10 10 10h18q10 0 10 -10v-78q0 -17 9.5 -26.5t25.5 -9.5t25.5 10.5t9.5 29.5v74q0 10 10 10h18q10 0 10 -10v-71q0 -35 -19.5 -57t-53.5 -22q-35 0 -54 22q-19 -22 -54 -22
q-34 0 -53.5 22t-19.5 57v71zM-130 752q-10 0 -10 10v14q0 10 10 10h254q10 0 10 -10v-14q0 -10 -10 -10h-254z" />
    <glyph glyph-name="aShadda_aAlifabove" unicode="&#xfc63;" horiz-adv-x="0" arabic-form="isolated" 
d="M-127 898q0 10 10 10h18q10 0 10 -10v-74q0 -19 9.5 -29.5t25.5 -10.5t25.5 9.5t9.5 26.5v78q0 10 10 10h18q10 0 10 -10v-78q0 -17 9.5 -26.5t25.5 -9.5t25.5 10.5t9.5 29.5v74q0 10 10 10h18q10 0 10 -10v-71q0 -35 -19.5 -57t-53.5 -22q-35 0 -54 22q-19 -22 -54 -22
q-34 0 -53.5 22t-19.5 57v71zM19 959q0 -10 -10 -10h-18q-10 0 -10 10v124q0 10 10 10h18q10 0 10 -10v-124z" />
    <glyph glyph-name="aAllah" unicode="&#xfdf2;" horiz-adv-x="1338" arabic-form="isolated" 
d="M325 427v43q0 10 10 10h64q10 0 10 -10v-339q0 -30 11.5 -41.5t36.5 -11.5h107q25 0 36.5 11.5t11.5 41.5v539q0 10 10 10h64q10 0 10 -10v-524q0 -34 24.5 -51t65.5 -17h75q25 0 36.5 11.5t11.5 41.5v539q0 10 10 10h64q10 0 10 -10v-544q0 -65 -27 -95.5t-90 -30.5
h-100q-32 0 -56 13t-37 39q-25 -52 -104 -52h-137q-49 0 -76.5 18.5t-36.5 61.5q-20 -18 -48 -27t-61 -9q-39 0 -72.5 11t-58 33.5t-38.5 57t-14 81.5q0 56 16 94t42 61.5t60.5 34t71.5 10.5h98zM221 122q57 0 80.5 33.5t23.5 93.5v100h-98q-47 0 -76.5 -26.5t-29.5 -95.5
q0 -52 26 -78.5t74 -26.5zM1268 10q0 -10 -10 -10h-64q-10 0 -10 10v660q0 10 10 10h64q10 0 10 -10v-660z" />
    <glyph glyph-name="aAllahlong" unicode="&#xfdfa;" horiz-adv-x="1057" arabic-form="isolated" 
d="M1017 437q0 -14 -16 -39q-15 -24 -31 -31q-47 -21 -116 -21h-23t-25 2q-24 -47 -38 -47q-4 0 -4 6q0 16 22 47q-43 17 -48 26q-40 -26 -50 -26q8 -141 25 -176q19 -38 87 -39q-22 17 -22 44q0 33 32 76q24 32 61 32q28 0 53 -17q24 -17 24 -31q-26 9 -52 9q-35 0 -65 -14
q-26 -14 -26 -27q0 -14 25 -39q24 -25 44 -29q19 2 68 18q25 8 42 14t25 11l-17 -37q-101 -53 -191 -53q-97 0 -119 73q-30 -65 -57 -65q-26 0 -67 44q-65 -56 -197 -56q-20 0 -37.5 1.5t-32.5 3.5q4 -32 9 -52q9 -36 23 -50q44 -44 176 -44q113 0 165 32q15 37 28 37
q4 0 4 -8q0 -14 -12 -44q6 -13 27 -13q26 0 49 12q21 66 33 66q4 0 4 -11q0 -19 -10 -43q30 -13 44 -13q1 0 4.5 0.5t3.5 3.5q0 4 -8 38l17 36q12 -36 12 -52q0 -67 -44 -67q-23 0 -48 19q-15 -26 -59 -26q-48 0 -48 26q-20 -14 -64 -24q-53 -11 -121 -11q-97 0 -143 28
q-59 34 -60 126l-22 -32q-16 -24 -26 -26q12 -21 12 -41q0 -26 -16 -42q-8 -8 -21 -8q-20 0 -61 23q-13 -30 -42 -47q-3 -2 -9.5 -3t-13.5 -1.5t-13 -1t-9 -1.5l-11 -4q-6 0 -6 5q0 4 24 15q31 12 39 19l34 26q-10 17 -10 40q0 21 18 41q18 21 34 21q2 0 6 -2q17 -10 29 -10
q18 0 36 23l23 42q-39 12 -55 27q-29 26 -41 85q-29 -50 -79 -50q-18 0 -39 8q-16 7 -16 12q0 25 43 58q20 16 41.5 26.5t43.5 17.5l-2 17l20 33q7 -108 21 -141q13 -31 56 -45l-13 132l19 43l17 -180q52 -6 95 -6q104 0 177 40q14 38 19 38q4 0 4 -9q0 -10 -4 -25
q37 -35 59 -35q26 0 42 43l-13 161q-73 0 -90 74q-7 -28 -14 -42q-11 -26 -27 -30l3 -3q35 0 52 -8t17 -30q0 -30 -25 -46q-86 -59 -160 -59q-46 0 -74 23.5t-28 65.5q0 32 16 67q-27 7 -38 43q-18 -51 -57 -51q-47 0 -47 77l-27 -24q-7 -7 -39 -7q-49 0 -49 18q0 11 13 31
q13 22 25 27l76 37v10l17 36l4 -120q1 -42 32 -42q15 0 29.5 10.5t16.5 22.5l-16 114l18 39l28 -161q9 -21 33 -21q23 0 23 13q0 22 -16 74l-10 32t-10 33l13 33q40 -124 40 -157q0 -21 -10 -44q-10 -28 -25 -28q-5 0 -9 3q-7 -20 -7 -39q0 -75 91 -75q71 0 142 48q2 2 2 3
q0 6 -38 12q-59 9 -61 10q-4 3 -4 8q0 10 17 32q60 25 64 53q1 3 1 14q0 49 -5 106.5t-15 124.5l17 56q24 -211 38 -256q18 -57 72 -66l-5 96l21 45l8 -140q28 10 60 36l30 -21q19 -12 39 -15q23 24 65 55q52 38 70 38t41 -14q26 -15 26 -33zM1008 2q0 -50 -39 -108
q-42 -64 -89 -64q-23 0 -59 16q-37 16 -37 23q0 4 5 4q6 0 27 -7q8 -3 18.5 -5.5t18.5 -2.5q68 0 138 106l-7 22q-18 -26 -37 -26q-15 0 -25.5 14t-10.5 31q0 21 15 50q16 31 28 31t32 -24q22 -26 22 -60zM970 639q-36 -13 -116 -51q-96 -47 -96 -61q0 -11 26 -25l-9 -24
q-33 10 -33 40t26 44q128 74 211 102zM476 447q-3 -66 -13 -73l-25 242l22 57zM602 37l-26 -31l-48 35l-28 -36l-50 36l29 35l47 -35l27 33zM989 420q0 7 -18 16q-17 9 -26 9q-21 0 -60 -24q-30 -19 -47 -34q4 -1 20 -1q39 0 82 8q49 10 49 26zM632 -121q0 -20 -2 -30
q-6 -13 -25 -13q-10 0 -14 4q-15 -16 -30 -16q-8 0 -16.5 8.5t-12.5 8.5q-8 0 -37 -17q-29 -18 -70 -18q-44 0 -44 8q0 7 32 7q17 0 29 0.5t17 1.5q15 3 35 16q29 19 40 19q8 0 19 -8t13 -8q15 0 18 17q1 13 11 13q4 0 4 -6t-1 -9q1 -4 11 -6q12 0 12 12q0 16 11 16z
M815 705l-6 -22l-195 -96l4 25zM169 263q-88 -34 -88 -52q0 -10 31 -10q33 0 59 24zM324 665q0 -32 -21 -32q-13 0 -21 8q-18 -15 -30 -15q-21 0 -21 27q0 19 3 27l6 6q0 -37 17 -37q12 0 19 16l-2 23l9 14l4 -30q1 -16 15 -16q11 0 11 12q0 1 -0.5 4.5t-2.5 20.5l7 10
q7 -18 7 -38zM189 487q-10 -5 -20 -9t-21 -8q-34 -17 -34 -25q0 -10 25 -10q29 0 51 13zM214 -39q0 8 -7.5 18.5t-16.5 16.5q-19 14 -34 14q-14 0 -14 -12q0 -13 26 -27q24 -15 39 -15q7 0 7 5zM979 10q-6 32 -26 32q-16 0 -20 -25q4 -18 31 -18q13 0 15 11z" />
    <glyph glyph-name="aAlifMadda.fina" unicode="&#x622;" horiz-adv-x="246" arabic-form="final" 
d="M70 670q0 10 10 10h64q10 0 10 -10v-539q0 -30 11.5 -41.5t36.5 -11.5h44q40 0 40 -40q0 -25 -9.5 -31.5t-30.5 -6.5h-59q-63 0 -90 30.5t-27 95.5v544zM-55 771q7 32 27.5 49t46.5 17q22 0 46 -8t48.5 -18t48.5 -18t46 -8q17 0 23.5 7.5t6.5 26.5q0 10 10 10h22
q10 0 10 -10q0 -41 -18.5 -62t-50.5 -21q-26 0 -52.5 8t-51 17.5t-47.5 17.5t-41 8q-10 0 -19 -5.5t-14 -22.5q-3 -10 -13 -7l-21 6q-9 3 -7 13z" />
    <glyph glyph-name="aAlifHamza.fina" unicode="&#x623;" horiz-adv-x="246" arabic-form="final" 
d="M70 670q0 10 10 10h64q10 0 10 -10v-539q0 -30 11.5 -41.5t36.5 -11.5h44q40 0 40 -40q0 -25 -9.5 -31.5t-30.5 -6.5h-59q-63 0 -90 30.5t-27 95.5v544zM51 772q-8 11 -13 27t-5 35q0 16 5 33.5t17 32t31.5 24t48.5 9.5q26 0 46.5 -9t32.5 -26q3 -7 0 -10l-21 -17
q-7 -6 -11 -2q-9 10 -21 16.5t-27 6.5q-28 0 -41.5 -17t-13.5 -40q0 -22 11.5 -38.5t22.5 -24.5h103q6 0 6 -7v-28q0 -7 -6 -7h-203q-6 0 -6 7v28q0 7 6 7h38z" />
    <glyph glyph-name="aWawHamza.fina" unicode="&#x624;" horiz-adv-x="507" arabic-form="final" 
d="M140 -199q-10 0 -10 10v58q0 10 10 10h120q20 0 37 4.5t29.5 15t19.5 29t7 46.5v26h-107q-44 0 -79.5 10.5t-60.5 34t-38 62.5t-13 96t15.5 99.5t42 70t61.5 41t74 13.5q89 0 139 -51.5t50 -166.5v-131h69q20 0 30 -8.5t10 -28.5q0 -26 -9.5 -33.5t-30.5 -7.5h-69v-24
q0 -47 -12.5 -80t-35 -54t-54.5 -31t-71 -10h-124zM248 349q-50 0 -79.5 -40t-29.5 -106q0 -71 28.5 -98t84.5 -27h101v131q0 66 -24.5 103t-80.5 37zM173 546q-8 10 -13 24t-5 32q0 15 5 31.5t18 30.5t33.5 23.5t52.5 9.5q28 0 52 -10.5t35 -27.5q4 -6 -1 -11l-26 -22
q-3 -2 -8 3q-10 9 -23 15.5t-32 6.5q-29 0 -42 -16t-13 -35q0 -22 11 -35t22 -19h113q6 0 6 -7v-32q0 -7 -6 -7h-213q-6 0 -6 7v32q0 7 6 7h34z" />
    <glyph glyph-name="aAlifHamzabelow.fina" unicode="&#x625;" horiz-adv-x="246" arabic-form="final" 
d="M70 670q0 10 10 10h64q10 0 10 -10v-539q0 -30 11.5 -41.5t36.5 -11.5h44q40 0 40 -40q0 -25 -9.5 -31.5t-30.5 -6.5h-59q-63 0 -90 30.5t-27 95.5v544zM50 -231q-8 12 -13 27.5t-5 34.5q0 16 5 33.5t17 32t31.5 24t48.5 9.5q26 0 46.5 -9t32.5 -26q3 -7 0 -10l-21 -17
q-7 -6 -11 -2q-9 10 -21 16.5t-27 6.5q-28 0 -41.5 -17t-13.5 -40q0 -22 11.5 -38.5t22.5 -24.5h103q6 0 6 -7v-28q0 -7 -6 -7h-203q-6 0 -6 7v28q0 7 6 7h38z" />
    <glyph glyph-name="aYehHamza.fina" unicode="&#x626;" horiz-adv-x="755" arabic-form="final" 
d="M440 149q32 -12 62 -24.5t58.5 -23t56.5 -17t57 -6.5h81q20 0 30 -7t10 -28q0 -25 -9.5 -34t-30.5 -9h-71q5 -8 12 -26.5t7 -40.5q0 -24 -9.5 -47.5t-31.5 -42.5t-58 -30.5t-88 -11.5h-234q-117 0 -178 58.5t-61 160.5q0 59 19.5 113.5t45.5 91.5q4 7 14 1l55 -30
q8 -5 3 -13q-18 -28 -34.5 -69t-16.5 -86q0 -41 13.5 -69.5t36.5 -45.5t52.5 -24.5t62.5 -7.5h221q60 0 83.5 18t23.5 43q0 22 -13.5 38t-40 29.5t-66 27.5t-90.5 33q-9 3 -6 12l22 60q3 10 12 7zM116 369q-8 10 -13 24t-5 32q0 15 5 31.5t18 30.5t33.5 23.5t52.5 9.5
q28 0 52 -10.5t35 -27.5q4 -6 -1 -11l-26 -22q-3 -2 -8 3q-10 9 -23 15.5t-32 6.5q-29 0 -42 -16t-13 -35q0 -22 11 -35t22 -19h113q6 0 6 -7v-32q0 -7 -6 -7h-213q-6 0 -6 7v32q0 7 6 7h34z" />
    <glyph glyph-name="aYehHamza.init" unicode="&#x626;" horiz-adv-x="281" arabic-form="initial" 
d="M84 546q-8 10 -13 24t-5 32q0 15 5 31.5t18 30.5t33.5 23.5t52.5 9.5q28 0 52 -10.5t35 -27.5q4 -6 -1 -11l-26 -22q-3 -2 -8 3q-10 9 -23 15.5t-32 6.5q-29 0 -42 -16t-13 -35q0 -22 11 -35t22 -19h113q6 0 6 -7v-32q0 -7 -6 -7h-213q-6 0 -6 7v32q0 7 6 7h34zM7 0
q-20 0 -30 7t-10 28q0 25 9.5 34t30.5 9h63q25 0 36.5 11.5t11.5 41.5v268q0 10 10 10h64q10 0 10 -10v-273q0 -65 -27 -95.5t-90 -30.5h-78z" />
    <glyph glyph-name="aYehHamza.medi" unicode="&#x626;" horiz-adv-x="296" arabic-form="medial" 
d="M7 0q-20 0 -30 7t-10 28q0 25 9.5 34t30.5 9h63q25 0 36.5 11.5t11.5 41.5v268q0 10 10 10h64q10 0 10 -10v-253q0 -34 24.5 -51t65.5 -17h12q20 0 30 -8.5t10 -28.5q0 -26 -9.5 -33.5t-30.5 -7.5h-22q-32 0 -56 13t-37 39q-25 -52 -104 -52h-78zM84 546q-8 10 -13 24
t-5 32q0 15 5 31.5t18 30.5t33.5 23.5t52.5 9.5q28 0 52 -10.5t35 -27.5q4 -6 -1 -11l-26 -22q-3 -2 -8 3q-10 9 -23 15.5t-32 6.5q-29 0 -42 -16t-13 -35q0 -22 11 -35t22 -19h113q6 0 6 -7v-32q0 -7 -6 -7h-213q-6 0 -6 7v32q0 7 6 7h34z" />
    <glyph glyph-name="aAlif.fina" unicode="&#x627;" horiz-adv-x="246" arabic-form="final" 
d="M70 670q0 10 10 10h64q10 0 10 -10v-539q0 -30 11.5 -41.5t36.5 -11.5h44q40 0 40 -40q0 -25 -9.5 -31.5t-30.5 -6.5h-59q-63 0 -90 30.5t-27 95.5v544z" />
    <glyph glyph-name="aBeh.fina" unicode="&#x628;" horiz-adv-x="865" arabic-form="final" 
d="M638 78q26 0 37.5 11.5t11.5 41.5v268q0 10 10 10h64q10 0 10 -10v-257q0 -32 25 -48t65 -16h11q20 0 30 -8.5t10 -28.5q0 -26 -9.5 -33.5t-30.5 -7.5h-21q-32 0 -56 13t-37 39q-13 -26 -38.5 -39t-67.5 -13h-481q-63 0 -90 30.5t-27 95.5v209q0 10 10 10h64q10 0 10 -10
v-204q0 -30 11.5 -41.5t36.5 -11.5h452v0zM375 -186q-10 0 -10 10v73q0 10 10 10h68q10 0 10 -10v-73q0 -10 -10 -10h-68z" />
    <glyph glyph-name="aBeh.init" unicode="&#x628;" horiz-adv-x="265" arabic-form="initial" 
d="M0 0q-20 0 -30 7t-10 28q0 25 9.5 34t30.5 9h63q25 0 36.5 11.5t11.5 41.5v268q0 10 10 10h64q10 0 10 -10v-273q0 -65 -27 -95.5t-90 -30.5h-78zM96 -183q-10 0 -10 10v73q0 10 10 10h68q10 0 10 -10v-73q0 -10 -10 -10h-68z" />
    <glyph glyph-name="aBeh.medi" unicode="&#x628;" horiz-adv-x="296" arabic-form="medial" 
d="M7 0q-20 0 -30 7t-10 28q0 25 9.5 34t30.5 9h63q25 0 36.5 11.5t11.5 41.5v268q0 10 10 10h64q10 0 10 -10v-253q0 -34 24.5 -51t65.5 -17h12q20 0 30 -8.5t10 -28.5q0 -26 -9.5 -33.5t-30.5 -7.5h-22q-32 0 -56 13t-37 39q-25 -52 -104 -52h-78zM128 -183q-10 0 -10 10
v73q0 10 10 10h68q10 0 10 -10v-73q0 -10 -10 -10h-68z" />
    <glyph glyph-name="aTehMarbuta.fina" unicode="&#x629;" horiz-adv-x="501" arabic-form="final" 
d="M325 427v43q0 10 10 10h64q10 0 10 -10v-339q0 -30 11.5 -41.5t36.5 -11.5h44q40 0 40 -40q0 -25 -9.5 -31.5t-30.5 -6.5h-59q-49 0 -76.5 18.5t-36.5 61.5q-20 -18 -48 -27t-61 -9q-39 0 -72.5 11t-58 33.5t-38.5 57t-14 81.5q0 56 16 94t42 61.5t60.5 34t71.5 10.5h98z
M221 122q57 0 80.5 33.5t23.5 93.5v100h-98q-47 0 -76.5 -26.5t-29.5 -95.5q0 -52 26 -78.5t74 -26.5zM256 548q-10 0 -10 10v73q0 10 10 10h68q10 0 10 -10v-73q0 -10 -10 -10h-68zM134 548q-10 0 -10 10v73q0 10 10 10h68q10 0 10 -10v-73q0 -10 -10 -10h-68z" />
    <glyph glyph-name="aTeh.fina" unicode="&#x62a;" horiz-adv-x="865" arabic-form="final" 
d="M638 78q26 0 37.5 11.5t11.5 41.5v268q0 10 10 10h64q10 0 10 -10v-257q0 -32 25 -48t65 -16h11q20 0 30 -8.5t10 -28.5q0 -26 -9.5 -33.5t-30.5 -7.5h-21q-32 0 -56 13t-37 39q-13 -26 -38.5 -39t-67.5 -13h-481q-63 0 -90 30.5t-27 95.5v209q0 10 10 10h64q10 0 10 -10
v-204q0 -30 11.5 -41.5t36.5 -11.5h452v0zM441 449q-10 0 -10 10v73q0 10 10 10h68q10 0 10 -10v-73q0 -10 -10 -10h-68zM319 449q-10 0 -10 10v73q0 10 10 10h68q10 0 10 -10v-73q0 -10 -10 -10h-68z" />
    <glyph glyph-name="aTeh.init" unicode="&#x62a;" horiz-adv-x="276" arabic-form="initial" 
d="M0 0q-20 0 -30 7t-10 28q0 25 9.5 34t30.5 9h69q25 0 36.5 11.5t11.5 41.5v268q0 10 10 10h64q10 0 10 -10v-273q0 -65 -27 -95.5t-90 -30.5h-84zM186 508q-10 0 -10 10v73q0 10 10 10h68q10 0 10 -10v-73q0 -10 -10 -10h-68zM64 508q-10 0 -10 10v73q0 10 10 10h68
q10 0 10 -10v-73q0 -10 -10 -10h-68z" />
    <glyph glyph-name="aTeh.medi" unicode="&#x62a;" horiz-adv-x="309" arabic-form="medial" 
d="M7 0q-20 0 -30 7t-10 28q0 25 9.5 34t30.5 9h68q25 0 36.5 11.5t11.5 41.5v268q0 10 10 10h64q10 0 10 -10v-253q0 -34 24.5 -51t65.5 -17h12q20 0 30 -8.5t10 -28.5q0 -26 -9.5 -33.5t-30.5 -7.5h-22q-32 0 -56 13t-37 39q-25 -52 -104 -52h-83zM190 508q-10 0 -10 10
v73q0 10 10 10h68q10 0 10 -10v-73q0 -10 -10 -10h-68zM68 508q-10 0 -10 10v73q0 10 10 10h68q10 0 10 -10v-73q0 -10 -10 -10h-68z" />
    <glyph glyph-name="aTheh.fina" unicode="&#x62b;" horiz-adv-x="865" arabic-form="final" 
d="M638 78q26 0 37.5 11.5t11.5 41.5v268q0 10 10 10h64q10 0 10 -10v-257q0 -32 25 -48t65 -16h11q20 0 30 -8.5t10 -28.5q0 -26 -9.5 -33.5t-30.5 -7.5h-21q-32 0 -56 13t-37 39q-13 -26 -38.5 -39t-67.5 -13h-481q-63 0 -90 30.5t-27 95.5v209q0 10 10 10h64q10 0 10 -10
v-204q0 -30 11.5 -41.5t36.5 -11.5h452v0zM441 449q-10 0 -10 10v73q0 10 10 10h68q10 0 10 -10v-73q0 -10 -10 -10h-68zM319 449q-10 0 -10 10v73q0 10 10 10h68q10 0 10 -10v-73q0 -10 -10 -10h-68zM381 566q-10 0 -10 10v73q0 10 10 10h68q10 0 10 -10v-73q0 -10 -10 -10
h-68z" />
    <glyph glyph-name="aTheh.init" unicode="&#x62b;" horiz-adv-x="276" arabic-form="initial" 
d="M0 0q-20 0 -30 7t-10 28q0 25 9.5 34t30.5 9h69q25 0 36.5 11.5t11.5 41.5v268q0 10 10 10h64q10 0 10 -10v-273q0 -65 -27 -95.5t-90 -30.5h-84zM184 508q-10 0 -10 10v73q0 10 10 10h68q10 0 10 -10v-73q0 -10 -10 -10h-68zM62 508q-10 0 -10 10v73q0 10 10 10h68
q10 0 10 -10v-73q0 -10 -10 -10h-68zM124 625q-10 0 -10 10v73q0 10 10 10h68q10 0 10 -10v-73q0 -10 -10 -10h-68z" />
    <glyph glyph-name="aTheh.medi" unicode="&#x62b;" horiz-adv-x="309" arabic-form="medial" 
d="M7 0q-20 0 -30 7t-10 28q0 25 9.5 34t30.5 9h68q25 0 36.5 11.5t11.5 41.5v268q0 10 10 10h64q10 0 10 -10v-253q0 -34 24.5 -51t65.5 -17h12q20 0 30 -8.5t10 -28.5q0 -26 -9.5 -33.5t-30.5 -7.5h-22q-32 0 -56 13t-37 39q-25 -52 -104 -52h-83zM191 508q-10 0 -10 10
v73q0 10 10 10h68q10 0 10 -10v-73q0 -10 -10 -10h-68zM69 508q-10 0 -10 10v73q0 10 10 10h68q10 0 10 -10v-73q0 -10 -10 -10h-68zM131 625q-10 0 -10 10v73q0 10 10 10h68q10 0 10 -10v-73q0 -10 -10 -10h-68z" />
    <glyph glyph-name="aJim.fina" unicode="&#x62c;" horiz-adv-x="609" arabic-form="final" 
d="M199 -199q-77 0 -121 32.5t-44 104.5q0 41 13.5 68t34.5 43t46 22.5t48 6.5h158q28 0 45 4.5t26 15.5t12 29.5t3 45.5q0 39 -7 71.5t-22.5 56t-41.5 36t-65 12.5q-34 0 -62.5 -14t-50.5 -38q-6 -7 -14 -1l-44 36q-9 7 -3 14q28 35 69.5 58t101.5 23q69 0 113 -21.5
t69.5 -56.5t35.5 -81t10 -95q0 -9 -0.5 -17t-0.5 -16q2 -31 26.5 -46.5t63.5 -15.5h11q20 0 30 -8.5t10 -28.5q0 -26 -9.5 -33.5t-30.5 -7.5h-21q-34 0 -61 14.5t-38 43.5q-17 -32 -47.5 -45t-76.5 -13h-189q-31 0 -43.5 -17.5t-12.5 -42.5q0 -32 17.5 -46.5t68.5 -14.5h34
q10 0 10 -10v-58q0 -10 -10 -10h-41zM300 -186q-10 0 -10 10v73q0 10 10 10h68q10 0 10 -10v-73q0 -10 -10 -10h-68z" />
    <glyph glyph-name="aJim.init" unicode="&#x62c;" horiz-adv-x="514" arabic-form="initial" 
d="M234 349q-34 0 -62.5 -14t-50.5 -38q-6 -7 -14 -1l-44 36q-9 7 -3 14q28 35 69.5 58t101.5 23q69 0 113 -21.5t69.5 -56.5t35.5 -81t10 -95q0 -50 -8.5 -83t-26 -53t-45 -28.5t-64.5 -8.5h-315q-40 0 -40 40q0 25 9.5 31.5t30.5 6.5h284q28 0 45 4.5t26 15.5t12 29.5
t3 45.5q0 39 -7 71.5t-22.5 56t-41.5 36t-65 12.5zM216 -184q-10 0 -10 10v73q0 10 10 10h68q10 0 10 -10v-73q0 -10 -10 -10h-68z" />
    <glyph glyph-name="aJim.medi" unicode="&#x62c;" horiz-adv-x="559" arabic-form="medial" 
d="M234 349q-34 0 -62.5 -14t-50.5 -38q-6 -7 -14 -1l-44 36q-9 7 -3 14q28 35 69.5 58t101.5 23q69 0 113 -21.5t69.5 -56.5t35.5 -81t10 -95q0 -9 -0.5 -17t-0.5 -16q2 -31 26.5 -46.5t63.5 -15.5h11q20 0 30 -8.5t10 -28.5q0 -26 -9.5 -33.5t-30.5 -7.5h-21
q-34 0 -61 14.5t-38 43.5q-17 -32 -47.5 -45t-76.5 -13h-315q-40 0 -40 40q0 25 9.5 31.5t30.5 6.5h284q28 0 45 4.5t26 15.5t12 29.5t3 45.5q0 39 -7 71.5t-22.5 56t-41.5 36t-65 12.5zM215 -184q-10 0 -10 10v73q0 10 10 10h68q10 0 10 -10v-73q0 -10 -10 -10h-68z" />
    <glyph glyph-name="aHah.fina" unicode="&#x62d;" horiz-adv-x="602" arabic-form="final" 
d="M169 0q-31 0 -43.5 -17.5t-12.5 -42.5q0 -32 17.5 -46.5t68.5 -14.5h96q10 0 10 -10v-58q0 -10 -10 -10h-103q-77 0 -121 32.5t-44 104.5q0 41 13.5 68t34.5 43t46 22.5t48 6.5h158q28 0 45 4.5t26 15.5t12 29.5t3 45.5q0 39 -7 71.5t-22.5 56t-41.5 36t-65 12.5
q-34 0 -62.5 -14t-50.5 -38q-6 -7 -14 -1l-44 36q-9 7 -3 14q28 35 69.5 58t101.5 23q69 0 113 -21.5t69.5 -56.5t35.5 -81t10 -95q0 -9 -0.5 -17t-0.5 -16q2 -31 26.5 -46.5t63.5 -15.5h11q20 0 30 -8.5t10 -28.5q0 -26 -9.5 -33.5t-30.5 -7.5h-21q-34 0 -61 14.5t-38 43.5
q-17 -32 -47.5 -45t-76.5 -13h-189z" />
    <glyph glyph-name="aHah.init" unicode="&#x62d;" horiz-adv-x="514" arabic-form="initial" 
d="M234 349q-34 0 -62.5 -14t-50.5 -38q-6 -7 -14 -1l-44 36q-9 7 -3 14q28 35 69.5 58t101.5 23q69 0 113 -21.5t69.5 -56.5t35.5 -81t10 -95q0 -50 -8.5 -83t-26 -53t-45 -28.5t-64.5 -8.5h-315q-40 0 -40 40q0 25 9.5 31.5t30.5 6.5h284q28 0 45 4.5t26 15.5t12 29.5
t3 45.5q0 39 -7 71.5t-22.5 56t-41.5 36t-65 12.5z" />
    <glyph glyph-name="aHah.medi" unicode="&#x62d;" horiz-adv-x="559" arabic-form="medial" 
d="M234 349q-34 0 -62.5 -14t-50.5 -38q-6 -7 -14 -1l-44 36q-9 7 -3 14q28 35 69.5 58t101.5 23q69 0 113 -21.5t69.5 -56.5t35.5 -81t10 -95q0 -9 -0.5 -17t-0.5 -16q2 -31 26.5 -46.5t63.5 -15.5h11q20 0 30 -8.5t10 -28.5q0 -26 -9.5 -33.5t-30.5 -7.5h-21
q-34 0 -61 14.5t-38 43.5q-17 -32 -47.5 -45t-76.5 -13h-315q-40 0 -40 40q0 25 9.5 31.5t30.5 6.5h284q28 0 45 4.5t26 15.5t12 29.5t3 45.5q0 39 -7 71.5t-22.5 56t-41.5 36t-65 12.5z" />
    <glyph glyph-name="aKhah.fina" unicode="&#x62e;" horiz-adv-x="602" arabic-form="final" 
d="M176 0q-31 0 -43.5 -17.5t-12.5 -42.5q0 -32 17.5 -46.5t68.5 -14.5h96q10 0 10 -10v-58q0 -10 -10 -10h-103q-77 0 -121 32.5t-44 104.5q0 41 13.5 68t34.5 43t46 22.5t48 6.5h158q28 0 45 4.5t26 15.5t12 29.5t3 45.5q0 39 -7 71.5t-22.5 56t-41.5 36t-65 12.5
q-34 0 -62.5 -14t-50.5 -38q-6 -7 -14 -1l-44 36q-9 7 -3 14q28 35 69.5 58t101.5 23q69 0 113 -21.5t69.5 -56.5t35.5 -81t10 -95q0 -9 -0.5 -17t-0.5 -16q2 -31 26.5 -46.5t63.5 -15.5h11q20 0 30 -8.5t10 -28.5q0 -26 -9.5 -33.5t-30.5 -7.5h-21q-34 0 -61 14.5t-38 43.5
q-17 -32 -47.5 -45t-76.5 -13h-189zM256 508q-10 0 -10 10v73q0 10 10 10h68q10 0 10 -10v-73q0 -10 -10 -10h-68z" />
    <glyph glyph-name="aKhah.init" unicode="&#x62e;" horiz-adv-x="514" arabic-form="initial" 
d="M234 349q-34 0 -62.5 -14t-50.5 -38q-6 -7 -14 -1l-44 36q-9 7 -3 14q28 35 69.5 58t101.5 23q69 0 113 -21.5t69.5 -56.5t35.5 -81t10 -95q0 -50 -8.5 -83t-26 -53t-45 -28.5t-64.5 -8.5h-315q-40 0 -40 40q0 25 9.5 31.5t30.5 6.5h284q28 0 45 4.5t26 15.5t12 29.5
t3 45.5q0 39 -7 71.5t-22.5 56t-41.5 36t-65 12.5zM210 507q-10 0 -10 10v73q0 10 10 10h68q10 0 10 -10v-73q0 -10 -10 -10h-68z" />
    <glyph glyph-name="aKhah.medi" unicode="&#x62e;" horiz-adv-x="559" arabic-form="medial" 
d="M234 349q-34 0 -62.5 -14t-50.5 -38q-6 -7 -14 -1l-44 36q-9 7 -3 14q28 35 69.5 58t101.5 23q69 0 113 -21.5t69.5 -56.5t35.5 -81t10 -95q0 -9 -0.5 -17t-0.5 -16q2 -31 26.5 -46.5t63.5 -15.5h11q20 0 30 -8.5t10 -28.5q0 -26 -9.5 -33.5t-30.5 -7.5h-21
q-34 0 -61 14.5t-38 43.5q-17 -32 -47.5 -45t-76.5 -13h-315q-40 0 -40 40q0 25 9.5 31.5t30.5 6.5h284q28 0 45 4.5t26 15.5t12 29.5t3 45.5q0 39 -7 71.5t-22.5 56t-41.5 36t-65 12.5zM210 507q-10 0 -10 10v73q0 10 10 10h68q10 0 10 -10v-73q0 -10 -10 -10h-68z" />
    <glyph glyph-name="aDal.fina" unicode="&#x62f;" horiz-adv-x="534" arabic-form="final" 
d="M433 146q0 -34 24.5 -51t65.5 -17h11q20 0 30 -8.5t10 -28.5q0 -26 -9.5 -33.5t-30.5 -7.5h-21q-34 0 -61 14.5t-38 43.5q-17 -33 -47 -45.5t-78 -12.5h-222q-10 0 -10 10v58q0 10 10 10h191q28 0 45 4.5t26 15t12 27.5t3 43v80q0 101 -114 101h-116q-10 0 -10 10v58
q0 10 10 10h147q76 0 124 -43t48 -135v-103z" />
    <glyph glyph-name="aDhal.fina" unicode="&#x630;" horiz-adv-x="534" arabic-form="final" 
d="M440 146q0 -34 24.5 -51t65.5 -17h11q20 0 30 -8.5t10 -28.5q0 -26 -9.5 -33.5t-30.5 -7.5h-21q-34 0 -61 14.5t-38 43.5q-17 -33 -47 -45.5t-78 -12.5h-222q-10 0 -10 10v58q0 10 10 10h191q28 0 45 4.5t26 15t12 27.5t3 43v80q0 101 -114 101h-116q-10 0 -10 10v58
q0 10 10 10h147q76 0 124 -43t48 -135v-103zM177 508q-10 0 -10 10v73q0 10 10 10h68q10 0 10 -10v-73q0 -10 -10 -10h-68z" />
    <glyph glyph-name="aReh.fina" unicode="&#x631;" horiz-adv-x="299" arabic-form="final" 
d="M10 -199q-10 0 -10 10v58q0 10 10 10h23q81 0 81 85v435q0 10 10 10h64q10 0 10 -10v-253q0 -34 24.5 -51t65.5 -17h11q20 0 30 -8.5t10 -28.5q0 -26 -9.5 -33.5t-30.5 -7.5h-21q-52 0 -80 32v-66q0 -81 -41 -123t-120 -42h-27z" />
    <glyph glyph-name="aZeh.fina" unicode="&#x632;" horiz-adv-x="299" arabic-form="final" 
d="M10 -199q-10 0 -10 10v58q0 10 10 10h23q81 0 81 85v435q0 10 10 10h64q10 0 10 -10v-253q0 -34 24.5 -51t65.5 -17h11q20 0 30 -8.5t10 -28.5q0 -26 -9.5 -33.5t-30.5 -7.5h-21q-52 0 -80 32v-66q0 -81 -41 -123t-120 -42h-27zM122 508q-10 0 -10 10v73q0 10 10 10h68
q10 0 10 -10v-73q0 -10 -10 -10h-68z" />
    <glyph glyph-name="aSin.fina" unicode="&#x633;" horiz-adv-x="1107" arabic-form="final" 
d="M596 0q-52 0 -80 32v-12q0 -103 -60.5 -161t-174.5 -58q-54 0 -97.5 14.5t-74 42.5t-47.5 68.5t-17 93.5q0 59 19.5 113.5t45.5 91.5q4 7 14 1l55 -30q8 -5 3 -13q-18 -28 -34.5 -69t-16.5 -86q0 -43 14.5 -71.5t37.5 -45t50 -23.5t53 -7q64 0 105 33t41 107v292
q0 10 10 10h64q10 0 10 -10v-167q0 -34 24 -51t64 -17h25q25 0 36.5 11.5t11.5 41.5v182q0 10 10 10h64q10 0 10 -10v-171q0 -32 25 -48t65 -16h23q25 0 36.5 11.5t11.5 41.5v268q0 10 10 10h64q10 0 10 -10v-253q0 -34 24.5 -51t65.5 -17h10q20 0 30 -8.5t10 -28.5
q0 -26 -9.5 -33.5t-30.5 -7.5h-20q-32 0 -56 13t-37 39q-25 -52 -104 -52h-48q-32 0 -56 13t-37 39q-25 -52 -104 -52h-48z" />
    <glyph glyph-name="aSin.init" unicode="&#x633;" horiz-adv-x="780" arabic-form="initial" 
d="M305 0q-32 0 -56 13t-37 39q-25 -52 -104 -52h-108q-20 0 -30 7t-10 28q0 25 9.5 34t30.5 9h93q25 0 36.5 11.5t11.5 41.5v182q0 10 10 10h64q10 0 10 -10v-167q0 -34 24 -51t64 -17h25q25 0 36.5 11.5t11.5 41.5v182q0 10 10 10h64q10 0 10 -10v-167q0 -34 24 -51
t64 -17h25q25 0 36.5 11.5t11.5 41.5v268q0 10 10 10h64q10 0 10 -10v-273q0 -65 -27 -95.5t-90 -30.5h-48q-32 0 -56 13t-37 39q-25 -52 -104 -52h-48z" />
    <glyph glyph-name="aSin.medi" unicode="&#x633;" horiz-adv-x="816" arabic-form="medial" 
d="M305 0q-32 0 -56 13t-37 39q-25 -52 -104 -52h-108q-20 0 -30 7t-10 28q0 25 9.5 34t30.5 9h93q25 0 36.5 11.5t11.5 41.5v182q0 10 10 10h64q10 0 10 -10v-167q0 -34 24 -51t64 -17h25q25 0 36.5 11.5t11.5 41.5v182q0 10 10 10h64q10 0 10 -10v-171q0 -32 25 -48
t65 -16h23q25 0 36.5 11.5t11.5 41.5v268q0 10 10 10h64q10 0 10 -10v-253q0 -34 24.5 -51t65.5 -17h11q20 0 30 -8.5t10 -28.5q0 -26 -9.5 -33.5t-30.5 -7.5h-21q-32 0 -56 13t-37 39q-25 -52 -104 -52h-48q-32 0 -56 13t-37 39q-25 -52 -104 -52h-48z" />
    <glyph glyph-name="aShin.fina" unicode="&#x634;" horiz-adv-x="1107" arabic-form="final" 
d="M596 0q-52 0 -80 32v-12q0 -103 -60.5 -161t-174.5 -58q-54 0 -97.5 14.5t-74 42.5t-47.5 68.5t-17 93.5q0 59 19.5 113.5t45.5 91.5q4 7 14 1l55 -30q8 -5 3 -13q-18 -28 -34.5 -69t-16.5 -86q0 -43 14.5 -71.5t37.5 -45t50 -23.5t53 -7q64 0 105 33t41 107v292
q0 10 10 10h64q10 0 10 -10v-167q0 -34 24 -51t64 -17h25q25 0 36.5 11.5t11.5 41.5v182q0 10 10 10h64q10 0 10 -10v-171q0 -32 25 -48t65 -16h23q25 0 36.5 11.5t11.5 41.5v268q0 10 10 10h64q10 0 10 -10v-253q0 -34 24.5 -51t65.5 -17h10q20 0 30 -8.5t10 -28.5
q0 -26 -9.5 -33.5t-30.5 -7.5h-20q-32 0 -56 13t-37 39q-25 -52 -104 -52h-48q-32 0 -56 13t-37 39q-25 -52 -104 -52h-48zM744 508q-10 0 -10 10v73q0 10 10 10h68q10 0 10 -10v-73q0 -10 -10 -10h-68zM622 508q-10 0 -10 10v73q0 10 10 10h68q10 0 10 -10v-73
q0 -10 -10 -10h-68zM684 625q-10 0 -10 10v73q0 10 10 10h68q10 0 10 -10v-73q0 -10 -10 -10h-68z" />
    <glyph glyph-name="aShin.init" unicode="&#x634;" horiz-adv-x="780" arabic-form="initial" 
d="M305 0q-32 0 -56 13t-37 39q-25 -52 -104 -52h-108q-20 0 -30 7t-10 28q0 25 9.5 34t30.5 9h93q25 0 36.5 11.5t11.5 41.5v182q0 10 10 10h64q10 0 10 -10v-167q0 -34 24 -51t64 -17h25q25 0 36.5 11.5t11.5 41.5v182q0 10 10 10h64q10 0 10 -10v-167q0 -34 24 -51
t64 -17h25q25 0 36.5 11.5t11.5 41.5v268q0 10 10 10h64q10 0 10 -10v-273q0 -65 -27 -95.5t-90 -30.5h-48q-32 0 -56 13t-37 39q-25 -52 -104 -52h-48zM453 508q-10 0 -10 10v73q0 10 10 10h68q10 0 10 -10v-73q0 -10 -10 -10h-68zM331 508q-10 0 -10 10v73q0 10 10 10h68
q10 0 10 -10v-73q0 -10 -10 -10h-68zM393 625q-10 0 -10 10v73q0 10 10 10h68q10 0 10 -10v-73q0 -10 -10 -10h-68z" />
    <glyph glyph-name="aShin.medi" unicode="&#x634;" horiz-adv-x="816" arabic-form="medial" 
d="M312 0q-32 0 -56 13t-37 39q-25 -52 -104 -52h-108q-20 0 -30 7t-10 28q0 25 9.5 34t30.5 9h93q25 0 36.5 11.5t11.5 41.5v182q0 10 10 10h64q10 0 10 -10v-167q0 -34 24 -51t64 -17h25q25 0 36.5 11.5t11.5 41.5v182q0 10 10 10h64q10 0 10 -10v-171q0 -32 25 -48
t65 -16h23q25 0 36.5 11.5t11.5 41.5v268q0 10 10 10h64q10 0 10 -10v-253q0 -34 24.5 -51t65.5 -17h11q20 0 30 -8.5t10 -28.5q0 -26 -9.5 -33.5t-30.5 -7.5h-21q-32 0 -56 13t-37 39q-25 -52 -104 -52h-48q-32 0 -56 13t-37 39q-25 -52 -104 -52h-48zM460 508
q-10 0 -10 10v73q0 10 10 10h68q10 0 10 -10v-73q0 -10 -10 -10h-68zM338 508q-10 0 -10 10v73q0 10 10 10h68q10 0 10 -10v-73q0 -10 -10 -10h-68zM400 625q-10 0 -10 10v73q0 10 10 10h68q10 0 10 -10v-73q0 -10 -10 -10h-68z" />
    <glyph glyph-name="aSad.fina" unicode="&#x635;" horiz-adv-x="1087" arabic-form="final" 
d="M110 225q4 7 14 1l55 -30q8 -5 3 -13q-18 -28 -34.5 -69t-16.5 -86q0 -43 14.5 -71.5t37.5 -45t50 -23.5t53 -7q64 0 105 33t41 107v379q0 10 10 10h64q10 0 10 -10v-35q49 26 109 44t123 18q70 0 116 -19t73.5 -51.5t38.5 -75.5t11 -91q0 -13 -0.5 -24.5t-0.5 -19.5
q0 -34 24.5 -51t65.5 -17h10q20 0 30 -8.5t10 -28.5q0 -26 -9.5 -33.5t-30.5 -7.5h-20q-35 0 -62.5 16t-38.5 46q-17 -34 -48.5 -48t-80.5 -14h-321q-6 -94 -66 -146.5t-168 -52.5q-54 0 -97.5 14.5t-74 42.5t-47.5 68.5t-17 93.5q0 59 19.5 113.5t45.5 91.5zM742 349
q-30 0 -61 -5.5t-60.5 -14.5t-56 -20t-48.5 -22v-209h291q28 0 46 5t28 17.5t13.5 35t3.5 57.5q0 37 -7.5 66t-25.5 49t-48 30.5t-75 10.5z" />
    <glyph glyph-name="aSad.init" unicode="&#x635;" horiz-adv-x="721" arabic-form="initial" 
d="M0 0q-20 0 -30 7t-10 28q0 25 9.5 34t30.5 9h63q25 0 36.5 11.5t11.5 41.5v268q0 10 10 10h64q10 0 10 -10v-34q49 26 109 44t123 18q70 0 116 -19t73.5 -51.5t38.5 -75.5t11 -91q0 -53 -8.5 -89.5t-26.5 -59t-47 -32t-69 -9.5h-336q-24 0 -34 13q-25 -13 -67 -13h-78z
M421 349q-30 0 -61 -5.5t-60.5 -14.5t-56 -20t-48.5 -22v-161q0 -25 -5 -48h296q28 0 46 5t28 17.5t13.5 35t3.5 57.5q0 37 -7.5 66t-25.5 49t-48 30.5t-75 10.5z" />
    <glyph glyph-name="aSad.medi" unicode="&#x635;" horiz-adv-x="766" arabic-form="medial" 
d="M0 0q-20 0 -30 7t-10 28q0 25 9.5 34t30.5 9h63q25 0 36.5 11.5t11.5 41.5v268q0 10 10 10h64q10 0 10 -10v-34q49 26 109 44t123 18q70 0 116 -19t73.5 -51.5t38.5 -75.5t11 -91q0 -13 -0.5 -24.5t-0.5 -19.5q0 -34 24.5 -51t65.5 -17h11q20 0 30 -8.5t10 -28.5
q0 -26 -9.5 -33.5t-30.5 -7.5h-21q-35 0 -62.5 16t-38.5 46q-17 -34 -48.5 -48t-80.5 -14h-336q-24 0 -34 13q-25 -13 -67 -13h-78zM421 349q-30 0 -61 -5.5t-60.5 -14.5t-56 -20t-48.5 -22v-161q0 -25 -5 -48h296q28 0 46 5t28 17.5t13.5 35t3.5 57.5q0 37 -7.5 66
t-25.5 49t-48 30.5t-75 10.5z" />
    <glyph glyph-name="aDad.fina" unicode="&#x636;" horiz-adv-x="1087" arabic-form="final" 
d="M110 225q4 7 14 1l55 -30q8 -5 3 -13q-18 -28 -34.5 -69t-16.5 -86q0 -43 14.5 -71.5t37.5 -45t50 -23.5t53 -7q64 0 105 33t41 107v379q0 10 10 10h64q10 0 10 -10v-35q49 26 109 44t123 18q70 0 116 -19t73.5 -51.5t38.5 -75.5t11 -91q0 -13 -0.5 -24.5t-0.5 -19.5
q0 -34 24.5 -51t65.5 -17h10q20 0 30 -8.5t10 -28.5q0 -26 -9.5 -33.5t-30.5 -7.5h-20q-35 0 -62.5 16t-38.5 46q-17 -34 -48.5 -48t-80.5 -14h-321q-6 -94 -66 -146.5t-168 -52.5q-54 0 -97.5 14.5t-74 42.5t-47.5 68.5t-17 93.5q0 59 19.5 113.5t45.5 91.5zM742 349
q-30 0 -61 -5.5t-60.5 -14.5t-56 -20t-48.5 -22v-209h291q28 0 46 5t28 17.5t13.5 35t3.5 57.5q0 37 -7.5 66t-25.5 49t-48 30.5t-75 10.5zM711 508q-10 0 -10 10v73q0 10 10 10h68q10 0 10 -10v-73q0 -10 -10 -10h-68z" />
    <glyph glyph-name="aDad.init" unicode="&#x636;" horiz-adv-x="721" arabic-form="initial" 
d="M0 0q-20 0 -30 7t-10 28q0 25 9.5 34t30.5 9h63q25 0 36.5 11.5t11.5 41.5v268q0 10 10 10h64q10 0 10 -10v-34q49 26 109 44t123 18q70 0 116 -19t73.5 -51.5t38.5 -75.5t11 -91q0 -53 -8.5 -89.5t-26.5 -59t-47 -32t-69 -9.5h-336q-24 0 -34 13q-25 -13 -67 -13h-78z
M421 349q-30 0 -61 -5.5t-60.5 -14.5t-56 -20t-48.5 -22v-161q0 -25 -5 -48h296q28 0 46 5t28 17.5t13.5 35t3.5 57.5q0 37 -7.5 66t-25.5 49t-48 30.5t-75 10.5zM392 508q-10 0 -10 10v73q0 10 10 10h68q10 0 10 -10v-73q0 -10 -10 -10h-68z" />
    <glyph glyph-name="aDad.medi" unicode="&#x636;" horiz-adv-x="766" arabic-form="medial" 
d="M7 0q-20 0 -30 7t-10 28q0 25 9.5 34t30.5 9h63q25 0 36.5 11.5t11.5 41.5v268q0 10 10 10h64q10 0 10 -10v-34q49 26 109 44t123 18q70 0 116 -19t73.5 -51.5t38.5 -75.5t11 -91q0 -13 -0.5 -24.5t-0.5 -19.5q0 -34 24.5 -51t65.5 -17h11q20 0 30 -8.5t10 -28.5
q0 -26 -9.5 -33.5t-30.5 -7.5h-21q-35 0 -62.5 16t-38.5 46q-17 -34 -48.5 -48t-80.5 -14h-336q-24 0 -34 13q-25 -13 -67 -13h-78zM428 349q-30 0 -61 -5.5t-60.5 -14.5t-56 -20t-48.5 -22v-161q0 -25 -5 -48h296q28 0 46 5t28 17.5t13.5 35t3.5 57.5q0 37 -7.5 66
t-25.5 49t-48 30.5t-75 10.5zM399 508q-10 0 -10 10v73q0 10 10 10h68q10 0 10 -10v-73q0 -10 -10 -10h-68z" />
    <glyph glyph-name="aTah.fina" unicode="&#x637;" horiz-adv-x="780" arabic-form="final" 
d="M77 78q25 0 36.5 11.5t11.5 41.5v539q0 10 10 10h64q10 0 10 -10v-305q49 26 109 44t123 18q70 0 116 -19t73.5 -51.5t38.5 -75.5t11 -91q0 -13 -0.5 -24.5t-0.5 -19.5q0 -34 24.5 -51t65.5 -17h10q20 0 30 -8.5t10 -28.5q0 -26 -9.5 -33.5t-30.5 -7.5h-20
q-35 0 -62.5 16t-38.5 46q-17 -34 -48.5 -48t-80.5 -14h-336q-24 0 -34 13q-25 -13 -67 -13h-55q-10 0 -10 10v58q0 10 10 10h40zM435 349q-30 0 -61 -5.5t-60.5 -14.5t-56 -20t-48.5 -22v-161q0 -25 -5 -48h296q28 0 46 5t28 17.5t13.5 35t3.5 57.5q0 37 -7.5 66t-25.5 49
t-48 30.5t-75 10.5z" />
    <glyph glyph-name="aTah.init" unicode="&#x637;" horiz-adv-x="721" arabic-form="initial" 
d="M0 0q-20 0 -30 7t-10 28q0 25 9.5 34t30.5 9h63q25 0 36.5 11.5t11.5 41.5v538q0 10 10 10h64q10 0 10 -10v-304q49 26 109 44t123 18q70 0 116 -19t73.5 -51.5t38.5 -75.5t11 -91q0 -53 -8.5 -89.5t-26.5 -59t-47 -32t-69 -9.5h-336q-24 0 -34 13q-25 -13 -67 -13h-78z
M421 349q-30 0 -61 -5.5t-60.5 -14.5t-56 -20t-48.5 -22v-161q0 -25 -5 -48h296q28 0 46 5t28 17.5t13.5 35t3.5 57.5q0 37 -7.5 66t-25.5 49t-48 30.5t-75 10.5z" />
    <glyph glyph-name="aTah.medi" unicode="&#x637;" horiz-adv-x="766" arabic-form="medial" 
d="M0 0q-20 0 -30 7t-10 28q0 25 9.5 34t30.5 9h63q25 0 36.5 11.5t11.5 41.5v539q0 10 10 10h64q10 0 10 -10v-305q49 26 109 44t123 18q70 0 116 -19t73.5 -51.5t38.5 -75.5t11 -91q0 -13 -0.5 -24.5t-0.5 -19.5q0 -34 24.5 -51t65.5 -17h11q20 0 30 -8.5t10 -28.5
q0 -26 -9.5 -33.5t-30.5 -7.5h-21q-35 0 -62.5 16t-38.5 46q-17 -34 -48.5 -48t-80.5 -14h-336q-24 0 -34 13q-25 -13 -67 -13h-78zM421 349q-30 0 -61 -5.5t-60.5 -14.5t-56 -20t-48.5 -22v-161q0 -25 -5 -48h296q28 0 46 5t28 17.5t13.5 35t3.5 57.5q0 37 -7.5 66
t-25.5 49t-48 30.5t-75 10.5z" />
    <glyph glyph-name="aZah.fina" unicode="&#x638;" horiz-adv-x="780" arabic-form="final" 
d="M84 78q25 0 36.5 11.5t11.5 41.5v539q0 10 10 10h64q10 0 10 -10v-305q49 26 109 44t123 18q70 0 116 -19t73.5 -51.5t38.5 -75.5t11 -91q0 -13 -0.5 -24.5t-0.5 -19.5q0 -34 24.5 -51t65.5 -17h10q20 0 30 -8.5t10 -28.5q0 -26 -9.5 -33.5t-30.5 -7.5h-20
q-35 0 -62.5 16t-38.5 46q-17 -34 -48.5 -48t-80.5 -14h-336q-24 0 -34 13q-25 -13 -67 -13h-55q-10 0 -10 10v58q0 10 10 10h40zM442 349q-30 0 -61 -5.5t-60.5 -14.5t-56 -20t-48.5 -22v-161q0 -25 -5 -48h296q28 0 46 5t28 17.5t13.5 35t3.5 57.5q0 37 -7.5 66t-25.5 49
t-48 30.5t-75 10.5zM410 508q-10 0 -10 10v73q0 10 10 10h68q10 0 10 -10v-73q0 -10 -10 -10h-68z" />
    <glyph glyph-name="aZah.init" unicode="&#x638;" horiz-adv-x="721" arabic-form="initial" 
d="M0 0q-20 0 -30 7t-10 28q0 25 9.5 34t30.5 9h63q25 0 36.5 11.5t11.5 41.5v538q0 10 10 10h64q10 0 10 -10v-304q49 26 109 44t123 18q70 0 116 -19t73.5 -51.5t38.5 -75.5t11 -91q0 -53 -8.5 -89.5t-26.5 -59t-47 -32t-69 -9.5h-336q-24 0 -34 13q-25 -13 -67 -13h-78z
M421 349q-30 0 -61 -5.5t-60.5 -14.5t-56 -20t-48.5 -22v-161q0 -25 -5 -48h296q28 0 46 5t28 17.5t13.5 35t3.5 57.5q0 37 -7.5 66t-25.5 49t-48 30.5t-75 10.5zM392 508q-10 0 -10 10v73q0 10 10 10h68q10 0 10 -10v-73q0 -10 -10 -10h-68z" />
    <glyph glyph-name="aZah.medi" unicode="&#x638;" horiz-adv-x="766" arabic-form="medial" 
d="M7 0q-20 0 -30 7t-10 28q0 25 9.5 34t30.5 9h63q25 0 36.5 11.5t11.5 41.5v539q0 10 10 10h64q10 0 10 -10v-305q49 26 109 44t123 18q70 0 116 -19t73.5 -51.5t38.5 -75.5t11 -91q0 -13 -0.5 -24.5t-0.5 -19.5q0 -34 24.5 -51t65.5 -17h11q20 0 30 -8.5t10 -28.5
q0 -26 -9.5 -33.5t-30.5 -7.5h-21q-35 0 -62.5 16t-38.5 46q-17 -34 -48.5 -48t-80.5 -14h-336q-24 0 -34 13q-25 -13 -67 -13h-78zM428 349q-30 0 -61 -5.5t-60.5 -14.5t-56 -20t-48.5 -22v-161q0 -25 -5 -48h296q28 0 46 5t28 17.5t13.5 35t3.5 57.5q0 37 -7.5 66
t-25.5 49t-48 30.5t-75 10.5zM399 508q-10 0 -10 10v73q0 10 10 10h68q10 0 10 -10v-73q0 -10 -10 -10h-68z" />
    <glyph glyph-name="aAyn.fina" unicode="&#x639;" horiz-adv-x="573" arabic-form="final" 
d="M284 427q107 0 158 -42t51 -114q0 -32 -10 -60t-25.5 -52t-35.5 -43.5t-39 -32.5q11 -2 22 -3.5t21 -1.5h146q20 0 30 -7t10 -28q0 -25 -9.5 -34t-30.5 -9h-149q-29 0 -62 7t-59 24q-29 -11 -61 -19.5t-58 -18.5t-43 -25t-17 -40q0 -24 18.5 -36.5t67.5 -12.5h96
q10 0 10 -10v-58q0 -10 -10 -10h-103q-81 0 -123 29t-42 98q0 43 18.5 71t46.5 45t61 26.5t63 15.5q-7 40 -21 69t-32 50.5t-39.5 38t-43.5 32.5q-9 6 -11.5 10.5t-2.5 9.5v60q0 14 10 20q12 7 31.5 16t45 17t56.5 13t65 5zM284 349q-45 0 -79 -9.5t-45 -16.5
q51 -29 89.5 -81t55.5 -124q16 10 34 25.5t32.5 34t24 41t9.5 46.5q0 25 -9.5 41t-25.5 25.5t-38.5 13.5t-47.5 4z" />
    <glyph glyph-name="aAyn.init" unicode="&#x639;" horiz-adv-x="516" arabic-form="initial" 
d="M461 78q10 0 10 -10v-58q0 -10 -10 -10h-461q-40 0 -40 40q0 25 9.5 31.5t30.5 6.5h114q-23 23 -39 58t-16 84q0 31 9 67.5t33 67.5t65.5 51.5t106.5 20.5q59 0 102 -21.5t69 -59.5q5 -8 -3 -14l-44 -36q-8 -6 -14 1q-45 52 -113 52q-62 0 -92 -36.5t-30 -91.5
q0 -37 12 -63t27.5 -43t31.5 -25.5t25 -11.5h217z" />
    <glyph glyph-name="aAyn.medi" unicode="&#x639;" horiz-adv-x="543" arabic-form="medial" 
d="M272 427q107 0 158 -42t51 -114q0 -32 -10.5 -61.5t-27 -54t-37 -44t-40.5 -31.5q7 -2 14.5 -2h15.5h147q20 0 30 -7t10 -28q0 -25 -9.5 -34t-30.5 -9h-141q-36 0 -68.5 6.5t-61.5 24.5q-33 -18 -70 -24.5t-66 -6.5h-136q-40 0 -40 40q0 25 9.5 31.5t30.5 6.5h129
q13 0 34.5 1.5t50.5 9.5q-8 40 -21.5 68t-31.5 49.5t-39.5 37.5t-43.5 32q-9 6 -11.5 10.5t-2.5 9.5v60q0 14 10 20q12 7 31.5 16t45 17t56.5 13t65 5zM272 349q-45 0 -79 -9.5t-45 -16.5q51 -29 89.5 -81t55.5 -124q16 10 34 25.5t32.5 34t24 41t9.5 46.5q0 25 -9.5 41
t-25.5 25.5t-38.5 13.5t-47.5 4z" />
    <glyph glyph-name="aGhayn.fina" unicode="&#x63a;" horiz-adv-x="573" arabic-form="final" 
d="M284 427q107 0 158 -42t51 -114q0 -32 -10 -60t-25.5 -52t-35.5 -43.5t-39 -32.5q11 -2 22 -3.5t21 -1.5h146q20 0 30 -7t10 -28q0 -25 -9.5 -34t-30.5 -9h-149q-29 0 -62 7t-59 24q-29 -11 -61 -19.5t-58 -18.5t-43 -25t-17 -40q0 -24 18.5 -36.5t67.5 -12.5h96
q10 0 10 -10v-58q0 -10 -10 -10h-103q-81 0 -123 29t-42 98q0 43 18.5 71t46.5 45t61 26.5t63 15.5q-7 40 -21 69t-32 50.5t-39.5 38t-43.5 32.5q-9 6 -11.5 10.5t-2.5 9.5v60q0 14 10 20q12 7 31.5 16t45 17t56.5 13t65 5zM284 349q-45 0 -79 -9.5t-45 -16.5
q51 -29 89.5 -81t55.5 -124q16 10 34 25.5t32.5 34t24 41t9.5 46.5q0 25 -9.5 41t-25.5 25.5t-38.5 13.5t-47.5 4zM268 508q-10 0 -10 10v73q0 10 10 10h68q10 0 10 -10v-73q0 -10 -10 -10h-68z" />
    <glyph glyph-name="aGhayn.init" unicode="&#x63a;" horiz-adv-x="516" arabic-form="initial" 
d="M461 78q10 0 10 -10v-58q0 -10 -10 -10h-461q-40 0 -40 40q0 25 9.5 31.5t30.5 6.5h114q-23 23 -39 58t-16 84q0 31 9 67.5t33 67.5t65.5 51.5t106.5 20.5q59 0 102 -21.5t69 -59.5q5 -8 -3 -14l-44 -36q-8 -6 -14 1q-45 52 -113 52q-62 0 -92 -36.5t-30 -91.5
q0 -37 12 -63t27.5 -43t31.5 -25.5t25 -11.5h217zM233 508q-10 0 -10 10v73q0 10 10 10h68q10 0 10 -10v-73q0 -10 -10 -10h-68z" />
    <glyph glyph-name="aGhayn.medi" unicode="&#x63a;" horiz-adv-x="543" arabic-form="medial" 
d="M272 427q107 0 158 -42t51 -114q0 -32 -10.5 -61.5t-27 -54t-37 -44t-40.5 -31.5q7 -2 14.5 -2h15.5h147q20 0 30 -7t10 -28q0 -25 -9.5 -34t-30.5 -9h-141q-36 0 -68.5 6.5t-61.5 24.5q-33 -18 -70 -24.5t-66 -6.5h-136q-40 0 -40 40q0 25 9.5 31.5t30.5 6.5h129
q13 0 34.5 1.5t50.5 9.5q-8 40 -21.5 68t-31.5 49.5t-39.5 37.5t-43.5 32q-9 6 -11.5 10.5t-2.5 9.5v60q0 14 10 20q12 7 31.5 16t45 17t56.5 13t65 5zM272 349q-45 0 -79 -9.5t-45 -16.5q51 -29 89.5 -81t55.5 -124q16 10 34 25.5t32.5 34t24 41t9.5 46.5q0 25 -9.5 41
t-25.5 25.5t-38.5 13.5t-47.5 4zM238 508q-10 0 -10 10v73q0 10 10 10h68q10 0 10 -10v-73q0 -10 -10 -10h-68z" />
    <glyph glyph-name="aFeh.fina" unicode="&#x641;" horiz-adv-x="959" arabic-form="final" 
d="M696 427q51 0 88 -13.5t61.5 -37.5t36.5 -57.5t12 -73.5q0 -51 -23.5 -95t-65.5 -73q5 1 15 1h139q20 0 30 -7t10 -28q0 -25 -9.5 -34t-30.5 -9h-133q-36 0 -68 3t-61 21q-33 -18 -70.5 -21t-66.5 -3h-396q-63 0 -90 30.5t-27 95.5v209q0 10 10 10h64q10 0 10 -10v-204
q0 -30 11.5 -41.5t36.5 -11.5h407q-41 29 -64.5 72.5t-23.5 94.5q0 40 12 73.5t36.5 57.5t61.5 37.5t88 13.5zM696 349q-48 0 -79 -28t-31 -81q0 -54 32 -90.5t78 -54.5q46 18 78 54.5t32 90.5q0 53 -31 81t-79 28zM662 508q-10 0 -10 10v73q0 10 10 10h68q10 0 10 -10v-73
q0 -10 -10 -10h-68z" />
    <glyph glyph-name="aFeh.init" unicode="&#x641;" horiz-adv-x="530" arabic-form="initial" 
d="M7 0q-21 0 -30.5 7.5t-9.5 33.5q0 20 10 28.5t30 8.5h113q-29 49 -29 131q0 57 14.5 98.5t40.5 68t60.5 39t75.5 12.5q89 0 140 -51.5t51 -166.5q0 -57 -13.5 -97t-38 -64.5t-60 -36t-79.5 -11.5h-275zM282 349q-53 0 -80 -36t-27 -98q0 -74 25.5 -105.5t81.5 -31.5
t81.5 29.5t25.5 101.5q0 66 -25.5 103t-81.5 37zM247 508q-10 0 -10 10v73q0 10 10 10h68q10 0 10 -10v-73q0 -10 -10 -10h-68z" />
    <glyph glyph-name="aFeh.medi" unicode="&#x641;" horiz-adv-x="520" arabic-form="medial" 
d="M257 427q51 0 88 -13.5t61.5 -37.5t36.5 -57.5t12 -73.5q0 -51 -23.5 -95t-65.5 -73q5 1 15 1h139q20 0 30 -7t10 -28q0 -25 -9.5 -34t-30.5 -9h-133q-36 0 -68 3t-61 21q-33 -18 -70.5 -21t-66.5 -3h-121q-40 0 -40 40q0 25 9.5 31.5t30.5 6.5h147q-41 29 -64.5 72.5
t-23.5 94.5q0 40 12 73.5t36.5 57.5t61.5 37.5t88 13.5zM257 349q-48 0 -79 -28t-31 -81q0 -54 32 -90.5t78 -54.5q46 18 78 54.5t32 90.5q0 53 -31 81t-79 28zM223 508q-10 0 -10 10v73q0 10 10 10h68q10 0 10 -10v-73q0 -10 -10 -10h-68z" />
    <glyph glyph-name="aQaf.fina" unicode="&#x642;" horiz-adv-x="769" arabic-form="final" 
d="M706 0v-59q0 -26 -10 -51.5t-32.5 -45t-59 -31.5t-88.5 -12h-234q-117 0 -178 58.5t-61 160.5q0 59 19.5 113.5t45.5 91.5q4 7 14 1l55 -30q8 -5 3 -13q-18 -28 -34.5 -69t-16.5 -86q0 -41 13.5 -69.5t36.5 -45.5t52.5 -24.5t62.5 -7.5h221q60 0 83.5 18t23.5 43v58h-107
q-44 0 -79.5 11.5t-60.5 36t-38 64.5t-13 97t15 98.5t41 68t61 39t74 12.5q89 0 140 -51.5t51 -166.5v-131h70q20 0 30 -8.5t10 -28.5q0 -26 -9.5 -33.5t-30.5 -7.5h-70zM515 349q-51 0 -79 -37t-28 -103q0 -72 28.5 -101.5t84.5 -29.5h101v131q0 66 -25.5 103t-81.5 37z
M540 508q-10 0 -10 10v73q0 10 10 10h68q10 0 10 -10v-73q0 -10 -10 -10h-68zM418 508q-10 0 -10 10v73q0 10 10 10h68q10 0 10 -10v-73q0 -10 -10 -10h-68z" />
    <glyph glyph-name="aQaf.init" unicode="&#x642;" horiz-adv-x="540" arabic-form="initial" 
d="M14 0q-21 0 -30.5 7.5t-9.5 33.5q0 20 10 28.5t30 8.5h113q-29 49 -29 131q0 57 14.5 98.5t40.5 68t60.5 39t75.5 12.5q89 0 140 -51.5t51 -166.5q0 -57 -13.5 -97t-38 -64.5t-60 -36t-79.5 -11.5h-275zM289 349q-53 0 -80 -36t-27 -98q0 -74 25.5 -105.5t81.5 -31.5
t81.5 29.5t25.5 101.5q0 66 -25.5 103t-81.5 37zM314 508q-10 0 -10 10v73q0 10 10 10h68q10 0 10 -10v-73q0 -10 -10 -10h-68zM192 508q-10 0 -10 10v73q0 10 10 10h68q10 0 10 -10v-73q0 -10 -10 -10h-68z" />
    <glyph glyph-name="aQaf.medi" unicode="&#x642;" horiz-adv-x="520" arabic-form="medial" 
d="M257 427q51 0 88 -13.5t61.5 -37.5t36.5 -57.5t12 -73.5q0 -51 -23.5 -95t-65.5 -73q5 1 15 1h139q20 0 30 -7t10 -28q0 -25 -9.5 -34t-30.5 -9h-133q-36 0 -68 3t-61 21q-33 -18 -70.5 -21t-66.5 -3h-121q-40 0 -40 40q0 25 9.5 31.5t30.5 6.5h147q-41 29 -64.5 72.5
t-23.5 94.5q0 40 12 73.5t36.5 57.5t61.5 37.5t88 13.5zM257 349q-48 0 -79 -28t-31 -81q0 -54 32 -90.5t78 -54.5q46 18 78 54.5t32 90.5q0 53 -31 81t-79 28zM284 508q-10 0 -10 10v73q0 10 10 10h68q10 0 10 -10v-73q0 -10 -10 -10h-68zM162 508q-10 0 -10 10v73
q0 10 10 10h68q10 0 10 -10v-73q0 -10 -10 -10h-68z" />
    <glyph glyph-name="aKaf.fina" unicode="&#x643;" horiz-adv-x="865" arabic-form="final" 
d="M631 78q26 0 37.5 11.5t11.5 41.5v539q0 10 10 10h64q10 0 10 -10v-524q0 -34 24.5 -51t65.5 -17h11q20 0 30 -8.5t10 -28.5q0 -26 -9.5 -33.5t-30.5 -7.5h-21q-32 0 -56 13t-37 39q-13 -26 -38.5 -39t-67.5 -13h-481q-63 0 -90 30.5t-27 95.5v209q0 10 10 10h64
q10 0 10 -10v-204q0 -30 11.5 -41.5t36.5 -11.5h452zM427 323q12 0 15 5t3 16v20q0 25 -27 25h-54q-14 0 -14 14v17q0 5 1.5 7.5t3.5 4.5l79 94q5 5 9.5 4.5t6.5 -2.5l20 -17q5 -5 3.5 -9.5t-3.5 -7.5l-51 -60h16q59 0 59 -70v-18q0 -40 -13.5 -54t-44.5 -14h-113
q-10 0 -10 10v25q0 10 10 10h104z" />
    <glyph glyph-name="aKaf.init" unicode="&#x643;" horiz-adv-x="493" arabic-form="initial" 
d="M177 409h89q76 0 124 -43t48 -135v-60q0 -50 -8.5 -83t-26 -52.5t-44.5 -27.5t-65 -8h-294q-40 0 -40 40q0 25 9.5 31.5t30.5 6.5h263q28 0 45 4.5t26 15t12 27.5t3 43v62q0 101 -114 101h-161q-10 0 -10 10v56q0 5 3.5 9.5t5.5 6.5l219 258q6 7 13 3l48 -40q8 -6 4 -14z
" />
    <glyph glyph-name="aKaf.medi" unicode="&#x643;" horiz-adv-x="538" arabic-form="medial" 
d="M177 409h89q76 0 124 -43t48 -135v-60q0 -8 -0.5 -16t-0.5 -16q2 -31 26.5 -46t63.5 -15h11q20 0 30 -8.5t10 -28.5q0 -26 -9.5 -33.5t-30.5 -7.5h-21q-33 0 -60.5 14.5t-38.5 42.5q-17 -32 -47 -44.5t-77 -12.5h-294q-40 0 -40 40q0 25 9.5 31.5t30.5 6.5h263
q28 0 45 4.5t26 15t12 27.5t3 43v62q0 101 -114 101h-161q-10 0 -10 10v56q0 5 3.5 9.5t5.5 6.5l219 258q6 7 13 3l48 -40q8 -6 4 -14z" />
    <glyph glyph-name="aLam.fina" unicode="&#x644;" horiz-adv-x="617" arabic-form="final" 
d="M110 225q4 7 14 1l55 -30q8 -5 3 -13q-18 -28 -34.5 -69t-16.5 -86q0 -43 14.5 -71.5t37.5 -45t50 -23.5t53 -7q64 0 105 33t41 107v649q0 10 10 10h64q10 0 10 -10v-524q0 -34 24.5 -51t65.5 -17h11q20 0 30 -8.5t10 -28.5q0 -26 -9.5 -33.5t-30.5 -7.5h-21
q-52 0 -80 32v-12q0 -103 -60.5 -161t-174.5 -58q-54 0 -97.5 14.5t-74 42.5t-47.5 68.5t-17 93.5q0 59 19.5 113.5t45.5 91.5z" />
    <glyph glyph-name="aLam.init" unicode="&#x644;" horiz-adv-x="265" arabic-form="initial" 
d="M0 0q-20 0 -30 7t-10 28q0 25 9.5 34t30.5 9h63q25 0 36.5 11.5t11.5 41.5v539q0 10 10 10h64q10 0 10 -10v-544q0 -65 -27 -95.5t-90 -30.5h-78z" />
    <glyph glyph-name="aLam.medi" unicode="&#x644;" horiz-adv-x="296" arabic-form="medial" 
d="M0 0q-20 0 -30 7t-10 28q0 25 9.5 34t30.5 9h63q25 0 36.5 11.5t11.5 41.5v539q0 10 10 10h64q10 0 10 -10v-524q0 -34 24.5 -51t65.5 -17h12q20 0 30 -8.5t10 -28.5q0 -26 -9.5 -33.5t-30.5 -7.5h-22q-32 0 -56 13t-37 39q-25 -52 -104 -52h-78z" />
    <glyph glyph-name="aMim.fina" unicode="&#x645;" horiz-adv-x="625" arabic-form="final" 
d="M347 -7q-52 0 -91.5 17t-64.5 54q-10 -16 -23.5 -23t-26 -15t-21.5 -21t-9 -41v-163h-84v184q0 31 9 51.5t23 34t30.5 22.5t31 18t25 20.5t12.5 30.5q-1 11 -1.5 22.5t-0.5 24.5q0 115 51 166.5t140 51.5t140 -51.5t51 -166.5q0 -11 -0.5 -22t-1.5 -21q1 -51 20.5 -69.5
t41.5 -18.5h28q20 0 30 -8.5t10 -28.5q0 -26 -9.5 -33.5t-30.5 -7.5h-21q-14 0 -30 1.5t-31.5 6.5t-29.5 14.5t-24 25.5q-25 -29 -61 -42t-82 -13zM347 349q-56 0 -81.5 -37t-25.5 -103q0 -72 25.5 -105t81.5 -33t81.5 33t25.5 105q0 66 -25.5 103t-81.5 37z" />
    <glyph glyph-name="aMim.init" unicode="&#x645;" horiz-adv-x="548" arabic-form="initial" 
d="M302 -7q-47 0 -83 13.5t-61 42.5q-21 -32 -54 -40.5t-61 -8.5h-43q-40 0 -40 40q0 25 9.5 31.5t30.5 6.5h50q11 0 22 4.5t20 15t14.5 28t5.5 43.5q-1 10 -1 19.5v20.5q0 115 51 166.5t140 51.5t140 -51.5t51 -166.5q0 -57 -13.5 -98t-38 -67t-60 -38.5t-79.5 -12.5z
M302 349q-56 0 -81.5 -37t-25.5 -103q0 -72 25.5 -105t81.5 -33t81.5 33t25.5 105q0 66 -25.5 103t-81.5 37z" />
    <glyph glyph-name="aMim.medi" unicode="&#x645;" horiz-adv-x="581" arabic-form="medial" 
d="M302 -7q-47 0 -83 13.5t-61 42.5q-21 -32 -54 -40.5t-61 -8.5h-43q-40 0 -40 40q0 25 9.5 31.5t30.5 6.5h50q11 0 22 4.5t20 15t14.5 28t5.5 43.5q-1 10 -1 19.5v20.5q0 115 51 166.5t140 51.5t140 -51.5t51 -166.5q0 -11 -0.5 -22t-1.5 -21q1 -51 20.5 -69.5t41.5 -18.5
h29q20 0 30 -8.5t10 -28.5q0 -26 -9.5 -33.5t-30.5 -7.5h-22q-14 0 -30 1.5t-31.5 6.5t-29.5 14.5t-24 25.5q-25 -29 -61 -42t-82 -13zM302 349q-56 0 -81.5 -37t-25.5 -103q0 -72 25.5 -105t81.5 -33t81.5 33t25.5 105q0 66 -25.5 103t-81.5 37z" />
    <glyph glyph-name="aNun.fina" unicode="&#x646;" horiz-adv-x="610" arabic-form="final" 
d="M110 225q4 7 14 1l55 -30q8 -5 3 -13q-18 -28 -34.5 -69t-16.5 -86q0 -43 14.5 -71.5t37.5 -45t50 -23.5t53 -7q64 0 105 33t41 107v292q0 10 10 10h64q10 0 10 -10v-167q0 -34 24.5 -51t65.5 -17h4q20 0 30 -8.5t10 -28.5q0 -26 -9.5 -33.5t-30.5 -7.5h-14q-52 0 -80 32
v-12q0 -103 -60.5 -161t-174.5 -58q-54 0 -97.5 14.5t-74 42.5t-47.5 68.5t-17 93.5q0 59 19.5 113.5t45.5 91.5zM281 348q-10 0 -10 10v73q0 10 10 10h68q10 0 10 -10v-73q0 -10 -10 -10h-68z" />
    <glyph glyph-name="aNun.init" unicode="&#x646;" horiz-adv-x="252" arabic-form="initial" 
d="M7 0q-20 0 -30 7t-10 28q0 25 9.5 34t30.5 9h63q25 0 36.5 11.5t11.5 41.5v268q0 10 10 10h64q10 0 10 -10v-273q0 -65 -27 -95.5t-90 -30.5h-78zM126 508q-10 0 -10 10v73q0 10 10 10h68q10 0 10 -10v-73q0 -10 -10 -10h-68z" />
    <glyph glyph-name="aNun.medi" unicode="&#x646;" horiz-adv-x="296" arabic-form="medial" 
d="M7 0q-20 0 -30 7t-10 28q0 25 9.5 34t30.5 9h63q25 0 36.5 11.5t11.5 41.5v268q0 10 10 10h64q10 0 10 -10v-253q0 -34 24.5 -51t65.5 -17h12q20 0 30 -8.5t10 -28.5q0 -26 -9.5 -33.5t-30.5 -7.5h-22q-32 0 -56 13t-37 39q-25 -52 -104 -52h-78zM126 508q-10 0 -10 10
v73q0 10 10 10h68q10 0 10 -10v-73q0 -10 -10 -10h-68z" />
    <glyph glyph-name="aHeh.isol" unicode="&#x647;" horiz-adv-x="662" arabic-form="isolated" 
d="M90 -64q0 -10 -10 -10h-64q-10 0 -10 10v75q0 23 8.5 36.5t21 20t27 8.5t25.5 2h85q-13 27 -13 70q0 71 35.5 103.5t91.5 32.5q55 0 91 -32.5t36 -103.5q0 -21 -3.5 -38.5t-9.5 -31.5h16q28 0 45 5t26 17t12 33t3 54q0 34 -8.5 66t-27.5 56.5t-50.5 39t-76.5 14.5
q-40 0 -77 -11.5t-75 -42.5q-8 -6 -14 -1l-35 41q-9 8 -3 14q43 42 97 60t109 18q75 0 123 -23t76.5 -60t39.5 -82t11 -89q0 -55 -8.5 -91t-26 -57.5t-44.5 -30t-65 -8.5h-322q-23 0 -29.5 -6.5t-6.5 -27.5v-30zM287 219q-28 0 -43.5 -18.5t-15.5 -52.5q0 -37 15.5 -53.5
t43.5 -16.5t42.5 16.5t14.5 53.5q0 34 -14.5 52.5t-42.5 18.5z" />
    <glyph glyph-name="aHeh.fina" unicode="&#x647;" horiz-adv-x="501" arabic-form="final" 
d="M325 427v43q0 10 10 10h64q10 0 10 -10v-339q0 -30 11.5 -41.5t36.5 -11.5h44q40 0 40 -40q0 -25 -9.5 -31.5t-30.5 -6.5h-59q-49 0 -76.5 18.5t-36.5 61.5q-20 -18 -48 -27t-61 -9q-39 0 -72.5 11t-58 33.5t-38.5 57t-14 81.5q0 56 16 94t42 61.5t60.5 34t71.5 10.5h98z
M221 122q57 0 80.5 33.5t23.5 93.5v100h-98q-47 0 -76.5 -26.5t-29.5 -95.5q0 -52 26 -78.5t74 -26.5z" />
    <glyph glyph-name="aHeh.init" unicode="&#x647;" horiz-adv-x="602" arabic-form="initial" 
d="M287 363q-34 0 -71 -9t-77 -32q-4 -2 -8 -3.5t-6 2.5l-28 47q-6 11 0 15q46 30 98.5 44t101.5 14q75 0 123 -23t76.5 -60t39.5 -82t11 -89q0 -55 -8.5 -91t-26 -57.5t-44.5 -30t-65 -8.5h-403q-40 0 -40 40q0 25 9.5 31.5t30.5 6.5h125q-14 30 -14 70q0 71 37.5 107
t93.5 36q27 0 51 -9t42 -27t28 -44.5t10 -62.5q0 -40 -14 -70h13q28 0 45 5t26 17t12 33t3 54q0 34 -8.5 66t-28.5 56.5t-53 39t-81 14.5zM242 219q-28 0 -43.5 -18.5t-15.5 -52.5q0 -35 14 -51.5t39 -18.5h11q26 2 39 18.5t13 51.5q0 34 -14.5 52.5t-42.5 18.5z" />
    <glyph glyph-name="aHeh.medi" unicode="&#x647;" horiz-adv-x="560" arabic-form="medial" 
d="M-40 40q0 25 9.5 31.5t30.5 6.5h111v131q0 57 14.5 98.5t39.5 68t59.5 39t73.5 12.5q92 0 142 -50t50 -156q0 -42 -12 -81t-28 -62h111q21 0 30.5 -6.5t9.5 -31.5q0 -40 -40 -40h-101q21 -26 21 -69q0 -30 -11 -55.5t-33.5 -44t-55.5 -29.5t-78 -11q-93 0 -142.5 37.5
t-49.5 115.5v56h-111q-40 0 -40 40zM298 349q-48 0 -75.5 -34t-27.5 -95v-142h113q27 0 45.5 12t30.5 31.5t17 44t5 48.5q0 65 -27 100t-81 35zM299 -131q54 0 76 17t22 48q0 11 -3 22.5t-11.5 21.5t-23 16t-37.5 6h-127v-56q0 -75 104 -75z" />
    <glyph glyph-name="aWaw.fina" unicode="&#x648;" horiz-adv-x="507" arabic-form="final" 
d="M140 -199q-10 0 -10 10v58q0 10 10 10h120q20 0 37 4.5t29.5 15t19.5 29t7 46.5v26h-107q-44 0 -79.5 10.5t-60.5 34t-38 62.5t-13 96t15.5 99.5t42 70t61.5 41t74 13.5q89 0 139 -51.5t50 -166.5v-131h69q20 0 30 -8.5t10 -28.5q0 -26 -9.5 -33.5t-30.5 -7.5h-69v-24
q0 -47 -12.5 -80t-35 -54t-54.5 -31t-71 -10h-124zM248 349q-50 0 -79.5 -40t-29.5 -106q0 -71 28.5 -98t84.5 -27h101v131q0 66 -24.5 103t-80.5 37z" />
    <glyph glyph-name="aAlifMaksura.fina" unicode="&#x649;" horiz-adv-x="748" arabic-form="final" 
d="M433 149q32 -12 62 -24.5t58.5 -23t56.5 -17t57 -6.5h81q20 0 30 -7t10 -28q0 -25 -9.5 -34t-30.5 -9h-71q5 -8 12 -26.5t7 -40.5q0 -24 -9.5 -47.5t-31.5 -42.5t-58 -30.5t-88 -11.5h-234q-117 0 -178 58.5t-61 160.5q0 59 19.5 113.5t45.5 91.5q4 7 14 1l55 -30
q8 -5 3 -13q-18 -28 -34.5 -69t-16.5 -86q0 -41 13.5 -69.5t36.5 -45.5t52.5 -24.5t62.5 -7.5h221q60 0 83.5 18t23.5 43q0 22 -13.5 38t-40 29.5t-66 27.5t-90.5 33q-9 3 -6 12l22 60q3 10 12 7z" />
    <glyph glyph-name="aYeh.fina" unicode="&#x64a;" horiz-adv-x="755" arabic-form="final" 
d="M440 149q32 -12 62 -24.5t58.5 -23t56.5 -17t57 -6.5h81q20 0 30 -7t10 -28q0 -25 -9.5 -34t-30.5 -9h-71q5 -8 12 -26.5t7 -40.5q0 -24 -9.5 -47.5t-31.5 -42.5t-58 -30.5t-88 -11.5h-234q-117 0 -178 58.5t-61 160.5q0 59 19.5 113.5t45.5 91.5q4 7 14 1l55 -30
q8 -5 3 -13q-18 -28 -34.5 -69t-16.5 -86q0 -41 13.5 -69.5t36.5 -45.5t52.5 -24.5t62.5 -7.5h221q60 0 83.5 18t23.5 43q0 22 -13.5 38t-40 29.5t-66 27.5t-90.5 33q-9 3 -6 12l22 60q3 10 12 7zM398 -372q-10 0 -10 10v73q0 10 10 10h68q10 0 10 -10v-73q0 -10 -10 -10
h-68zM276 -372q-10 0 -10 10v73q0 10 10 10h68q10 0 10 -10v-73q0 -10 -10 -10h-68z" />
    <glyph glyph-name="aYeh.init" unicode="&#x64a;" horiz-adv-x="276" arabic-form="initial" 
d="M0 0q-20 0 -30 7t-10 28q0 25 9.5 34t30.5 9h69q25 0 36.5 11.5t11.5 41.5v268q0 10 10 10h64q10 0 10 -10v-273q0 -65 -27 -95.5t-90 -30.5h-84zM165 -186q-10 0 -10 10v73q0 10 10 10h68q10 0 10 -10v-73q0 -10 -10 -10h-68zM43 -186q-10 0 -10 10v73q0 10 10 10h68
q10 0 10 -10v-73q0 -10 -10 -10h-68z" />
    <glyph glyph-name="aYeh.medi" unicode="&#x64a;" horiz-adv-x="309" arabic-form="medial" 
d="M7 0q-20 0 -30 7t-10 28q0 25 9.5 34t30.5 9h68q25 0 36.5 11.5t11.5 41.5v268q0 10 10 10h64q10 0 10 -10v-253q0 -34 24.5 -51t65.5 -17h12q20 0 30 -8.5t10 -28.5q0 -26 -9.5 -33.5t-30.5 -7.5h-22q-32 0 -56 13t-37 39q-25 -52 -104 -52h-83zM180 -186q-10 0 -10 10
v73q0 10 10 10h68q10 0 10 -10v-73q0 -10 -10 -10h-68zM58 -186q-10 0 -10 10v73q0 10 10 10h68q10 0 10 -10v-73q0 -10 -10 -10h-68z" />
    <glyph glyph-name=".notdef" horiz-adv-x="379" 
d="M379 533v-533h-379v533h379zM343 37v459h-306v-459h306zM167 173l-1 13q0 50 15 71q8 10 15 18t13 14q24 24 30.5 36t6.5 29q0 27 -17 44.5t-39 17.5q-23 0 -40 -17t-22 -54l-36 6q6 51 33.5 76.5t65.5 25.5q40 0 66.5 -25.5t26.5 -71.5q0 -25 -9.5 -43.5t-36.5 -45.5
q-28 -26 -32 -40q-5 -17 -5 -51zM159 111q0 11 7.5 19t18.5 8q10 0 18 -8.5t8 -18.5q0 -11 -8 -19t-18 -8q-11 0 -18.5 7.5t-7.5 19.5z" />
    <glyph glyph-name=".null" horiz-adv-x="500" 
 />
    <glyph glyph-name=".null" horiz-adv-x="500" 
 />
    <glyph glyph-name="nonmarkingreturn" unicode="&#xd;" horiz-adv-x="200" 
 />
    <glyph glyph-name="space" unicode=" " horiz-adv-x="240" 
 />
    <glyph glyph-name="space" unicode="&#xa0;" horiz-adv-x="240" 
 />
    <glyph glyph-name="exclam" unicode="!" horiz-adv-x="288" 
d="M123 184q-10 0 -10 10l-16 476q0 10 10 10h74q10 0 10 -10l-16 -476q0 -10 -10 -10h-42zM96 96q0 10 10 10h76q10 0 10 -10v-86q0 -10 -10 -10h-76q-10 0 -10 10v86z" />
    <glyph glyph-name="quotedbl" unicode="&#x22;" horiz-adv-x="329" 
d="M208 503q-10 0 -10 10v157q0 10 10 10h44q10 0 10 -10v-157q0 -10 -10 -10h-44zM77 503q-10 0 -10 10v157q0 10 10 10h44q10 0 10 -10v-157q0 -10 -10 -10h-44z" />
    <glyph glyph-name="numbersign" unicode="#" horiz-adv-x="517" 
d="M107 214h-73q-10 0 -10 10v43q0 10 10 10h81l19 140h-75q-10 0 -10 10v42q0 10 10 10h84l26 191q2 10 11 10h45q11 0 9 -10l-26 -191h133l26 191q2 10 11 10h45q11 0 9 -10l-26 -191h77q10 0 10 -10v-42q0 -10 -10 -10h-86l-19 -140h79q10 0 10 -10v-43q0 -10 -10 -10
h-87l-28 -204q-2 -10 -11 -10h-45q-11 0 -9 10l28 204h-133l-28 -204q-2 -10 -11 -10h-45q-11 0 -9 10zM313 277l19 140h-133l-19 -140h133z" />
    <glyph glyph-name="dollar" unicode="$" 
d="M61 56q-3 2 -3.5 6.5t2.5 7.5l37 50q6 7 14 1q26 -19 62 -35t79 -19v240q-91 17 -135.5 64.5t-44.5 121.5q0 42 13 76.5t37 60t57 41t73 19.5v51q0 10 10 10h29q10 0 10 -10v-51q43 -4 81 -17t68 -33q7 -6 2 -14l-32 -49q-6 -8 -14 -3q-53 31 -105 37v-230
q92 -16 137 -63.5t45 -122.5q0 -84 -48 -138.5t-134 -64.5v-53q0 -10 -10 -10h-29q-10 0 -10 10v50q-57 2 -105.5 20.5t-85.5 46.5zM252 611q-45 -6 -71.5 -35.5t-26.5 -75.5q0 -42 21 -69t77 -41v221zM301 70q47 8 73.5 38.5t26.5 81.5q0 41 -22.5 68t-77.5 40v-228z" />
    <glyph glyph-name="percent" unicode="%" horiz-adv-x="778" 
d="M552 681q6 10 16 10h48q5 0 6 -3t-1 -7l-395 -682q-6 -10 -15 -10h-48q-5 0 -6.5 3t0.5 7zM198 330q-43 0 -73 21t-42 56q-2 7 -3.5 14t-2.5 17.5t-1.5 27t-0.5 43.5t0.5 43.5t1.5 27t2.5 17.5t3.5 14q12 35 42 56t73 21t73 -21t42 -56q2 -7 3.5 -14t2.5 -17.5t1.5 -27
t0.5 -43.5t-0.5 -43.5t-1.5 -27t-2.5 -17.5t-3.5 -14q-12 -35 -42 -56t-73 -21zM198 388q20 0 34 9t20 26q1 4 2 9t1.5 14.5t1 24.5t0.5 38t-0.5 38t-1 24.5t-1.5 14.5t-2 9q-6 17 -20 26t-34 9t-34 -9t-20 -26q-1 -4 -2 -9t-1.5 -14.5t-1 -24.5t-0.5 -38t0.5 -38t1 -24.5
t1.5 -14.5t2 -9q6 -17 20 -26t34 -9zM465 68q-2 7 -3.5 14t-2.5 17.5t-1.5 27t-0.5 43.5t0.5 43.5t1.5 27t2.5 17.5t3.5 14q12 35 42 56t73 21t73 -21t42 -56q2 -7 3.5 -14t2.5 -17.5t1.5 -27t0.5 -43.5t-0.5 -43.5t-1.5 -27t-2.5 -17.5t-3.5 -14q-12 -35 -42 -56t-73 -21
t-73 21t-42 56zM526 84q6 -17 20 -26t34 -9t34 9t20 26q1 4 2 9t1.5 14.5t1 24.5t0.5 38t-0.5 38t-1 24.5t-1.5 14.5t-2 9q-6 17 -20 26t-34 9t-34 -9t-20 -26q-1 -4 -2 -9t-1.5 -14.5t-1 -24.5t-0.5 -38t0.5 -38t1 -24.5t1.5 -14.5t2 -9z" />
    <glyph glyph-name="ampersand" unicode="&#x26;" horiz-adv-x="633" 
d="M70 167q0 56 32 106t103 107q-23 29 -39 51.5t-26 41.5t-15 36.5t-5 35.5q0 31 11.5 58t32.5 46.5t49.5 30.5t62.5 11q36 0 64.5 -11.5t49 -31.5t31.5 -46.5t11 -56.5q0 -23 -6.5 -43t-20.5 -40.5t-37 -43t-57 -49.5l129 -166l69 85q6 8 14 2l39 -34q8 -6 2 -14l-78 -99
l33 -43q10 -12 19 -18t21 -6h15q10 0 10 -10v-56q0 -10 -10 -10h-27q-30 0 -48 9t-39 38l-27 35q-45 -48 -87.5 -70.5t-96.5 -22.5q-43 0 -76.5 13.5t-56 37t-34.5 56t-12 71.5zM267 429q28 22 45.5 38.5t26.5 30t12 25.5t3 24q0 31 -21.5 52t-56.5 21q-36 0 -55.5 -21
t-19.5 -53q0 -11 3 -21.5t10.5 -23.5t20.5 -30t32 -42zM149 172q0 -51 27.5 -80t78.5 -29q35 0 65.5 18t67.5 60l-138 180q-54 -42 -77.5 -76.5t-23.5 -72.5z" />
    <glyph glyph-name="quotesingle" unicode="'" horiz-adv-x="198" 
d="M77 503q-10 0 -10 10v157q0 10 10 10h44q10 0 10 -10v-157q0 -10 -10 -10h-44v0z" />
    <glyph glyph-name="parenleft" unicode="(" horiz-adv-x="285" 
d="M182 -74q-60 91 -89.5 195t-29.5 207t29.5 207t89.5 195q7 10 16 10h35q11 0 6 -10q-45 -91 -70 -195t-25 -207t25 -208t70 -194q5 -10 -6 -10h-35q-9 0 -16 10z" />
    <glyph glyph-name="parenright" unicode=")" horiz-adv-x="285" 
d="M46 -74q45 89 70 194t25 208t-25 207t-70 195q-5 10 6 10h35q9 0 16 -10q60 -91 89.5 -195t29.5 -207t-29.5 -207t-89.5 -195q-7 -10 -16 -10h-35q-11 0 -6 10z" />
    <glyph glyph-name="asterisk" unicode="*" horiz-adv-x="342" 
d="M156 396q-10 0 -10 10v89l-76 -45q-4 -3 -8 -2t-6 5l-15 28q-6 9 4 14l76 42l-76 44q-10 5 -4 14l15 28q2 4 6 5t8 -2l76 -46v90q0 10 10 10h30q10 0 10 -10l-1 -90l77 46q4 3 8 2t6 -5l15 -28q6 -9 -4 -14l-76 -44l76 -42q10 -5 4 -14l-15 -28q-2 -4 -6 -5t-8 2l-77 45
l1 -89q0 -10 -10 -10h-30v0z" />
    <glyph glyph-name="plus" unicode="+" 
d="M233 233q0 6 -6 6h-156q-10 0 -10 10v54q0 10 10 10h156q6 0 6 6v158q0 10 10 10h56q10 0 10 -10v-158q0 -6 6 -6h156q10 0 10 -10v-54q0 -10 -10 -10h-156q-6 0 -6 -6v-158q0 -10 -10 -10h-56q-10 0 -10 10v158z" />
    <glyph glyph-name="comma" unicode="," horiz-adv-x="230" 
d="M70 96q0 10 10 10h70q10 0 10 -10v-93q0 -8 -1 -12.5t-5 -9.5l-62 -82q-6 -7 -13 -7q-9 0 -9 9v195v0z" />
    <glyph glyph-name="hyphen" unicode="-" horiz-adv-x="380" 
d="M57 227q-10 0 -10 10v58q0 10 10 10h266q10 0 10 -10v-58q0 -10 -10 -10h-266v0z" />
    <glyph glyph-name="hyphen" unicode="&#x2010;" horiz-adv-x="380" 
d="M57 227q-10 0 -10 10v58q0 10 10 10h266q10 0 10 -10v-58q0 -10 -10 -10h-266v0z" />
    <glyph glyph-name="hyphen" unicode="&#xad;" horiz-adv-x="380" 
d="M57 227q-10 0 -10 10v58q0 10 10 10h266q10 0 10 -10v-58q0 -10 -10 -10h-266v0z" />
    <glyph glyph-name="period" unicode="." horiz-adv-x="236" 
d="M70 96q0 10 10 10h76q10 0 10 -10v-86q0 -10 -10 -10h-76q-10 0 -10 10v86z" />
    <glyph glyph-name="slash" unicode="/" horiz-adv-x="417" 
d="M282 681q3 10 13 10h54q10 0 7 -10l-222 -682q-3 -10 -13 -10h-53q-10 0 -7 10z" />
    <glyph glyph-name="zero" unicode="0" 
d="M85 118q-3 10 -5.5 23.5t-5 37.5t-3.5 62.5t-1 98.5t1 98.5t3.5 62.5t5 37.5t5.5 23.5q20 63 67.5 96t118.5 33t118.5 -33t67.5 -96q3 -10 5.5 -23.5t5 -37.5t3.5 -62.5t1 -98.5t-1 -98.5t-3.5 -62.5t-5 -37.5t-5.5 -23.5q-20 -63 -67.5 -96t-118.5 -33t-118.5 33
t-67.5 96zM168 135q12 -34 38.5 -51t64.5 -17t64.5 17t38.5 51q3 8 5 19t3.5 33t2 58.5t0.5 94.5t-0.5 94.5t-2 58.5t-3.5 33t-5 19q-12 34 -38.5 51t-64.5 17t-64.5 -17t-38.5 -51q-3 -8 -5 -19t-3.5 -33t-2 -58.5t-0.5 -94.5t0.5 -94.5t2 -58.5t3.5 -33t5 -19z" />
    <glyph glyph-name="one" unicode="1" 
d="M244 574h-2l-113 -79q-11 -7 -11 6v74q0 8 7 14l117 85q7 6 16 6h60q10 0 10 -10v-660q0 -10 -10 -10h-64q-10 0 -10 10v564z" />
    <glyph glyph-name="two" unicode="2" 
d="M79 62q0 8 5 14l245 312q23 29 35.5 57.5t12.5 60.5q0 46 -28.5 76.5t-78.5 30.5q-49 0 -76 -27t-35 -73q-2 -10 -11 -8l-61 13q-9 3 -8 12q3 30 17 59t38 51.5t58.5 36.5t79.5 14t80 -14t60 -39t38 -59t13 -73q0 -46 -17.5 -85t-48.5 -78l-210 -264v-1h266q10 0 10 -10
v-58q0 -10 -10 -10h-364q-10 0 -10 10v52z" />
    <glyph glyph-name="three" unicode="3" 
d="M67 133q-1 9 8 12l61 15q9 3 12 -7q5 -16 14.5 -31.5t24 -27.5t35 -19.5t47.5 -7.5q55 0 86 34t31 86q0 57 -34 91.5t-91 34.5h-30q-10 0 -10 10v58q0 10 10 10h29q51 0 82 31t31 83q0 48 -29 78t-80 30q-48 0 -73.5 -24t-34.5 -59q-3 -9 -12 -8l-60 15q-10 2 -8 12
q5 28 20.5 54t39.5 45.5t57 31t74 11.5q45 0 80.5 -13.5t60.5 -38t38 -58.5t13 -74q0 -51 -24.5 -87.5t-59.5 -58.5v-2q16 -7 33 -21t31 -35.5t23.5 -49.5t9.5 -63q0 -45 -15 -82t-42 -63.5t-64.5 -41t-81.5 -14.5q-83 0 -135.5 40.5t-66.5 103.5z" />
    <glyph glyph-name="four" unicode="4" 
d="M63 119q-10 0 -10 10v55q0 6 3 12l220 476q4 8 14 8h67q11 0 7 -9l-217 -473v-2h180q6 0 6 6v178q0 10 10 10h64q10 0 10 -10v-178q0 -6 6 -6h62q10 0 10 -10v-57q0 -10 -10 -10h-62q-6 0 -6 -6v-103q0 -10 -10 -10h-64q-10 0 -10 10v103q0 6 -6 6h-264v0z" />
    <glyph glyph-name="five" unicode="5" 
d="M86 131q-2 10 8 12l59 15q10 1 13 -8q8 -36 35.5 -59.5t75.5 -23.5q35 0 62 17t38 50q5 14 7 34.5t2 50.5q0 32 -2.5 52t-7.5 34q-11 35 -37.5 50.5t-61.5 15.5q-41 0 -66.5 -19.5t-33.5 -43.5q-4 -10 -12 -10h-59q-10 0 -10 10v362q0 10 10 10h342q10 0 10 -10v-58
q0 -10 -10 -10h-268q-6 0 -6 -6v-191h3q12 16 41 30t71 14q63 0 106.5 -28.5t61.5 -83.5q7 -22 11 -49t4 -69q0 -36 -3.5 -63t-10.5 -47q-19 -58 -67.5 -89t-113.5 -31q-39 0 -72 10.5t-58 29.5t-40.5 45t-20.5 57z" />
    <glyph glyph-name="six" unicode="6" 
d="M63 197q0 41 12.5 80t32.5 75l173 321q3 7 13 7h68q11 0 6 -10l-152 -282l2 -2q10 7 28.5 11.5t40.5 4.5q40 0 75 -14t61.5 -40.5t41.5 -64t15 -83.5q0 -50 -16 -89t-44 -66t-66.5 -41.5t-82.5 -14.5q-45 0 -83 14t-65.5 41t-43.5 65.5t-16 87.5zM149 196q0 -57 33 -93
t89 -36t89.5 36t33.5 93t-33.5 92.5t-89.5 35.5t-89 -35.5t-33 -92.5z" />
    <glyph glyph-name="seven" unicode="7" 
d="M379 599v3h-207q-6 0 -6 -6v-85q0 -10 -10 -10h-60q-10 0 -10 10v159q0 10 10 10h363q10 0 10 -10v-62q0 -4 -2 -10l-234 -589q-2 -5 -4.5 -7t-8.5 -2h-67q-11 0 -6 11z" />
    <glyph glyph-name="eight" unicode="8" 
d="M61 189q0 60 27.5 103t68.5 65v2q-32 18 -56 55.5t-24 88.5q0 38 13.5 72.5t38.5 60t61 40.5t81 15q46 0 82 -15t61 -40.5t38 -60t13 -72.5q0 -51 -24 -88.5t-56 -55.5v-2q41 -22 68.5 -65t27.5 -103q0 -45 -15.5 -81.5t-43 -63t-66.5 -41t-85 -14.5q-47 0 -85.5 14.5
t-66 41t-43 63t-15.5 81.5zM271 396q50 0 79 32t29 77t-29.5 76.5t-78.5 31.5t-78.5 -31.5t-29.5 -76.5t29 -77t79 -32zM147 193q0 -55 34 -90.5t90 -35.5q57 0 90.5 35.5t33.5 90.5q0 54 -33.5 89.5t-90.5 35.5t-90.5 -35.5t-33.5 -89.5z" />
    <glyph glyph-name="nine" unicode="9" 
d="M326 292l-2 2q-10 -7 -28.5 -11.5t-40.5 -4.5q-40 0 -75 14t-61.5 40.5t-41.5 63.5t-15 84q0 50 16 89t44 66t66.5 41.5t82.5 14.5q45 0 83 -14t65.5 -41t43.5 -65.5t16 -87.5q0 -41 -12.5 -80t-32.5 -75l-173 -321q-4 -7 -13 -7h-68q-11 0 -6 10zM271 356q56 0 89 35.5
t33 92.5t-33 93t-89 36t-89.5 -36t-33.5 -93t33.5 -92.5t89.5 -35.5z" />
    <glyph glyph-name="colon" unicode=":" horiz-adv-x="244" 
d="M84 373q-10 0 -10 10v86q0 10 10 10h76q10 0 10 -10v-86q0 -10 -10 -10h-76zM74 96q0 10 10 10h76q10 0 10 -10v-86q0 -10 -10 -10h-76q-10 0 -10 10v86z" />
    <glyph glyph-name="semicolon" unicode=";" horiz-adv-x="244" 
d="M84 373q-10 0 -10 10v86q0 10 10 10h76q10 0 10 -10v-86q0 -10 -10 -10h-76zM77 96q0 10 10 10h70q10 0 10 -10v-93q0 -8 -1 -12t-5 -9l-62 -83q-6 -7 -13 -7q-9 0 -9 9v195z" />
    <glyph glyph-name="less" unicode="&#x3c;" 
d="M71 239q-10 3 -10 13v47q0 10 10 14l400 164q10 3 10 -6v-62q0 -9 -10 -13l-301 -119v-2l301 -119q10 -4 10 -13v-62q0 -9 -10 -6l-400 164v0z" />
    <glyph glyph-name="equal" unicode="=" 
d="M71 339q-10 0 -10 10v54q0 10 10 10h400q10 0 10 -10v-54q0 -10 -10 -10h-400zM71 139q-10 0 -10 10v54q0 10 10 10h400q10 0 10 -10v-54q0 -10 -10 -10h-400z" />
    <glyph glyph-name="greater" unicode="&#x3e;" 
d="M61 143q0 9 10 13l301 119v2l-301 119q-10 4 -10 13v62q0 9 10 6l400 -164q10 -4 10 -14v-47q0 -10 -10 -13l-400 -164q-10 -3 -10 6v62z" />
    <glyph glyph-name="question" unicode="?" horiz-adv-x="456" 
d="M190 182q-10 0 -10 10v41q0 30 7 49t23 41l67 92q13 18 22 32t14.5 26t8 23t2.5 24q0 43 -27 68t-70 25q-42 0 -68.5 -24.5t-35.5 -70.5q-2 -10 -11 -8l-63 11q-10 2 -8 11q11 72 60.5 115.5t127.5 43.5q40 0 73.5 -12.5t57.5 -35t37 -54t13 -68.5q0 -36 -12.5 -65.5
t-38.5 -64.5l-67 -92q-15 -20 -20.5 -35t-5.5 -40v-32q0 -10 -10 -10h-66zM175 96q0 10 10 10h76q10 0 10 -10v-86q0 -10 -10 -10h-76q-10 0 -10 10v86z" />
    <glyph glyph-name="at" unicode="@" horiz-adv-x="887" 
d="M47 268q0 87 29 159t81 123.5t125 80.5t160 29t159.5 -29t124.5 -81t81 -124t29 -158q0 -56 -12.5 -96t-34.5 -66t-50.5 -38.5t-61.5 -12.5q-44 0 -74.5 19.5t-44.5 51.5h-1q-17 -33 -50.5 -51.5t-84.5 -18.5q-110 0 -143 98q-6 20 -9.5 44.5t-3.5 64.5t3.5 64.5
t9.5 44.5q17 50 52.5 74t87.5 24q45 0 73.5 -16t41.5 -38h2v35q0 9 8 9h53q9 0 9 -9v-246q0 -45 21.5 -65t49.5 -20q18 0 34 7t28 24.5t19 46t7 70.5q0 72 -23 132.5t-65 103.5t-101.5 67t-133.5 24t-134 -23.5t-102 -66.5t-65 -103.5t-23 -133.5q0 -74 23 -134t65 -103.5
t102 -67t134 -23.5q72 0 122.5 12.5t93.5 33.5q10 5 14 -4l16 -40q5 -8 -4 -13q-51 -27 -107.5 -40.5t-134.5 -13.5q-87 0 -160 28.5t-125 80.5t-81 124.5t-29 159.5zM347 184q21 -62 90 -62t91 62q5 14 6.5 31.5t1.5 47.5t-1.5 47.5t-6.5 31.5q-22 62 -91 62t-90 -62
q-5 -14 -7 -31.5t-2 -47.5t2 -47.5t7 -31.5z" />
    <glyph glyph-name="A" unicode="A" horiz-adv-x="607" 
d="M260 670q3 10 12 10h65q10 0 13 -10l233 -660q3 -10 -7 -10h-70q-10 0 -13 10l-52 148h-275l-52 -148q-4 -10 -13 -10h-70q-10 0 -7 10zM412 240l-107 309h-2l-108 -309h217z" />
    <glyph glyph-name="B" unicode="B" horiz-adv-x="604" 
d="M84 670q0 10 10 10h241q103 0 154 -48.5t51 -130.5q0 -60 -25.5 -96t-65.5 -52v-2q17 -5 35.5 -17.5t33.5 -32t24.5 -46.5t9.5 -61q0 -96 -57.5 -145t-164.5 -49h-236q-10 0 -10 10v660zM333 386q57 0 88 29t31 77q0 49 -31 78t-88 29h-154q-6 0 -6 -6v-201q0 -6 6 -6
h154zM173 87q0 -6 6 -6h159q61 0 93 30.5t32 81.5t-32 81.5t-93 30.5h-159q-6 0 -6 -6v-212z" />
    <glyph glyph-name="C" unicode="C" horiz-adv-x="566" 
d="M78 149q-5 15 -8.5 30.5t-5.5 37t-3 51.5t-1 72t1 72t3 51.5t5.5 37t8.5 30.5q26 81 84 120.5t142 39.5q76 0 132.5 -35.5t85.5 -101.5q3 -9 -4 -13l-60 -29q-10 -5 -14 5q-20 40 -53 65.5t-87 25.5q-56 0 -90 -26t-51 -74q-3 -11 -5.5 -23.5t-4 -31t-2.5 -46t-1 -67.5
t1 -67.5t2.5 -46t4 -31.5t5.5 -23q17 -48 51 -74t90 -26q54 0 87 25.5t53 65.5q4 10 14 5l60 -29q7 -4 4 -13q-29 -66 -85.5 -101.5t-132.5 -35.5q-84 0 -142 39.5t-84 120.5z" />
    <glyph glyph-name="D" unicode="D" horiz-adv-x="623" 
d="M84 670q0 10 10 10h229q175 0 222 -145q4 -14 7.5 -29t6 -37t3.5 -53t1 -76t-1 -76t-3.5 -53t-6 -37t-7.5 -29q-47 -145 -222 -145h-229q-10 0 -10 10v660zM173 89q0 -6 6 -6h125q62 0 100 21.5t55 71.5q3 9 6 21t4.5 30.5t2.5 45.5t1 67t-1 67t-2.5 45.5t-4.5 30.5
t-6 21q-17 50 -55 71.5t-100 21.5h-125q-6 0 -6 -6v-502z" />
    <glyph glyph-name="E" unicode="E" horiz-adv-x="563" 
d="M84 670q0 10 10 10h409q10 0 10 -10v-63q0 -10 -10 -10h-324q-6 0 -6 -6v-200q0 -6 6 -6h275q10 0 10 -10v-63q0 -10 -10 -10h-275q-6 0 -6 -6v-207q0 -6 6 -6h324q10 0 10 -10v-63q0 -10 -10 -10h-409q-10 0 -10 10v660z" />
    <glyph glyph-name="F" unicode="F" horiz-adv-x="556" 
d="M84 670q0 10 10 10h409q10 0 10 -10v-63q0 -10 -10 -10h-324q-6 0 -6 -6v-207q0 -6 6 -6h275q10 0 10 -10v-63q0 -10 -10 -10h-275q-6 0 -6 -6v-279q0 -10 -10 -10h-69q-10 0 -10 10v660z" />
    <glyph glyph-name="G" unicode="G" horiz-adv-x="619" 
d="M78 148q-5 15 -8 31t-5.5 37.5t-3.5 51.5t-1 72t1 72t3.5 51.5t5.5 37.5t8 31q26 79 86 119t147 40q45 0 81 -10.5t64 -29t48 -43t33 -52.5q5 -9 -3 -14l-60 -29q-9 -5 -14 5q-25 46 -60 68t-89 22q-58 0 -94.5 -26t-52.5 -75q-3 -9 -6 -22t-4.5 -32t-2.5 -46.5t-1 -66.5
t1 -66.5t2.5 -46.5t4.5 -32t6 -22q16 -49 52.5 -75t94.5 -26q52 0 91 25t55 73q5 17 9 43t4 64q0 6 -6 6h-132q-10 0 -10 10v58q0 10 10 10h217q10 0 10 -10v-51q0 -46 -4.5 -85.5t-12.5 -64.5q-25 -78 -85.5 -119.5t-145.5 -41.5q-87 0 -147 40t-86 119z" />
    <glyph glyph-name="H" unicode="H" horiz-adv-x="653" 
d="M84 670q0 10 10 10h69q10 0 10 -10v-279q0 -6 6 -6h295q6 0 6 6v279q0 10 10 10h69q10 0 10 -10v-660q0 -10 -10 -10h-69q-10 0 -10 10v286q0 6 -6 6h-295q-6 0 -6 -6v-286q0 -10 -10 -10h-69q-10 0 -10 10v660z" />
    <glyph glyph-name="I" unicode="I" horiz-adv-x="257" 
d="M84 670q0 10 10 10h69q10 0 10 -10v-660q0 -10 -10 -10h-69q-10 0 -10 10v660z" />
    <glyph glyph-name="J" unicode="J" horiz-adv-x="491" 
d="M33 59q-7 7 0 14l50 43q7 6 15 -2q16 -15 41.5 -28.5t57.5 -13.5q60 0 93 35.5t33 110.5v452q0 10 10 10h69q10 0 10 -10v-452q0 -114 -59 -171.5t-159 -57.5q-50 0 -93 20t-68 50z" />
    <glyph glyph-name="K" unicode="K" horiz-adv-x="616" 
d="M84 670q0 10 10 10h69q10 0 10 -10v-354l289 355q6 9 16 9h82q5 0 6.5 -3.5t-2.5 -8.5l-212 -255l233 -402q7 -11 -6 -11h-80q-9 0 -14 9l-191 335l-121 -146v-188q0 -10 -10 -10h-69q-10 0 -10 10v660z" />
    <glyph glyph-name="L" unicode="L" horiz-adv-x="538" 
d="M84 670q0 10 10 10h69q10 0 10 -10v-581q0 -6 6 -6h324q10 0 10 -10v-63q0 -10 -10 -10h-409q-10 0 -10 10v660z" />
    <glyph glyph-name="M" unicode="M" horiz-adv-x="755" 
d="M84 670q0 10 10 10h65q12 0 16 -10l203 -458h3l199 458q4 10 16 10h65q10 0 10 -10v-660q0 -10 -10 -10h-63q-10 0 -10 10v473h-3l-169 -374q-5 -12 -18 -12h-40q-14 0 -19 12l-169 374h-3v-473q0 -10 -10 -10h-63q-10 0 -10 10v660z" />
    <glyph glyph-name="N" unicode="N" horiz-adv-x="654" 
d="M84 670q0 10 10 10h64q12 0 17 -10l308 -510h4v510q0 10 10 10h63q10 0 10 -10v-660q0 -10 -10 -10h-64q-12 0 -17 10l-309 508h-3v-508q0 -10 -10 -10h-63q-10 0 -10 10v660z" />
    <glyph glyph-name="O" unicode="O" horiz-adv-x="619" 
d="M309 -11q-86 0 -145.5 40t-85.5 119q-5 15 -8.5 31t-5.5 37.5t-3 51.5t-1 72t1 72t3 51.5t5.5 37.5t8.5 31q26 79 85.5 119t145.5 40q87 0 146.5 -40t85.5 -119q5 -15 8.5 -31t5.5 -37.5t3 -51.5t1 -72t-1 -72t-3 -51.5t-5.5 -37.5t-8.5 -31q-26 -79 -85.5 -119
t-146.5 -40zM309 72q57 0 93 26t52 75q3 9 5.5 22.5t5 33.5t3.5 47t1 64t-1 64t-3.5 47t-5 33.5t-5.5 22.5q-16 49 -52 75t-93 26t-92.5 -26t-51.5 -75q-3 -9 -5.5 -22.5t-5 -33.5t-3.5 -47t-1 -64t1 -64t3.5 -47t5 -33.5t5.5 -22.5q16 -49 51.5 -75t92.5 -26z" />
    <glyph glyph-name="P" unicode="P" horiz-adv-x="592" 
d="M94 0q-10 0 -10 10v660q0 10 10 10h242q49 0 89 -14.5t68 -41t43.5 -64t15.5 -83.5t-15.5 -83.5t-43.5 -64t-68 -41t-89 -14.5h-157q-6 0 -6 -6v-258q0 -10 -10 -10h-69zM331 357q63 0 98 32t35 88t-35 88t-98 32h-152q-6 0 -6 -6v-228q0 -6 6 -6h152z" />
    <glyph glyph-name="Q" unicode="Q" horiz-adv-x="619" 
d="M309 -11q-86 0 -145.5 40t-85.5 119q-5 15 -8.5 31t-5.5 37.5t-3 51.5t-1 72t1 72t3 51.5t5.5 37.5t8.5 31q26 79 85.5 119t145.5 40q87 0 146.5 -40t85.5 -119q5 -15 8.5 -31t5.5 -37.5t3 -51.5t1 -72t-1 -72t-3 -51.5t-5.5 -37.5t-8.5 -31q-5 -16 -11.5 -29.5
t-14.5 -26.5l71 -70q6 -6 0 -14l-44 -47q-3 -3 -7 -3.5t-8 3.5l-70 69q-59 -41 -148 -41zM309 72q51 0 86 21l-74 75q-6 6 0 14l44 48q8 6 14 0l70 -71l5 14q3 9 5.5 22.5t5 33.5t3.5 47t1 64t-1 64t-3.5 47t-5 33.5t-5.5 22.5q-16 49 -52 75t-93 26t-92.5 -26t-51.5 -75
q-3 -9 -5.5 -22.5t-5 -33.5t-3.5 -47t-1 -64t1 -64t3.5 -47t5 -33.5t5.5 -22.5q16 -49 51.5 -75t92.5 -26z" />
    <glyph glyph-name="R" unicode="R" horiz-adv-x="617" 
d="M478 0q-9 0 -13 10l-136 278h-150q-6 0 -6 -6v-272q0 -10 -10 -10h-69q-10 0 -10 10v660q0 10 10 10h246q48 0 87 -14t67 -39.5t43.5 -62t15.5 -80.5q0 -69 -36 -117t-98 -68l145 -287q3 -5 1 -8.5t-7 -3.5h-80zM338 371q60 0 93 29.5t33 83.5t-33 83.5t-93 29.5h-159
q-6 0 -6 -6v-214q0 -6 6 -6h159z" />
    <glyph glyph-name="S" unicode="S" horiz-adv-x="591" 
d="M290 -11q-36 0 -71 7t-66 18.5t-57 27t-45 32.5q-7 7 -1 15l44 52q6 7 14 1q33 -26 82 -48t108 -22q71 0 110.5 32t39.5 84q0 22 -7 40t-23.5 32t-43.5 24t-68 15l-34 5q-200 27 -200 188q0 45 15.5 82t44.5 63t70 40t92 14q60 0 114.5 -17.5t92.5 -45.5q8 -6 2 -14
l-34 -55q-6 -7 -14 -2q-42 26 -81 38.5t-83 12.5q-63 0 -96 -30.5t-33 -79.5q0 -43 32 -70.5t111 -38.5l33 -5q100 -14 150 -60t50 -130q0 -45 -15.5 -82.5t-47 -64.5t-78 -42.5t-107.5 -15.5z" />
    <glyph glyph-name="T" unicode="T" horiz-adv-x="537" 
d="M234 0q-10 0 -10 10v581q0 6 -6 6h-186q-10 0 -10 10v63q0 10 10 10h473q10 0 10 -10v-63q0 -10 -10 -10h-186q-6 0 -6 -6v-581q0 -10 -10 -10h-69z" />
    <glyph glyph-name="U" unicode="U" horiz-adv-x="639" 
d="M320 -11q-113 0 -177 63.5t-64 184.5v433q0 10 10 10h69q10 0 10 -10v-432q0 -83 41.5 -124.5t110.5 -41.5q68 0 109.5 41.5t41.5 124.5v432q0 10 10 10h69q10 0 10 -10v-433q0 -121 -64 -184.5t-176 -63.5z" />
    <glyph glyph-name="V" unicode="V" horiz-adv-x="562" 
d="M252 0q-9 0 -12 10l-220 658q-2 6 0 9t7 3h68q11 0 14 -10l174 -525h2l168 525q3 10 13 10h69q11 0 7 -12l-219 -658q-3 -10 -12 -10h-59z" />
    <glyph glyph-name="W" unicode="W" horiz-adv-x="823" 
d="M568 0q-8 0 -11 10l-145 507h-2l-144 -507q-3 -10 -12 -10h-55q-9 0 -11 10l-164 660q-3 10 8 10h66q11 0 12 -10l121 -505h2l141 505q3 10 12 10h51q9 0 12 -10l144 -505h2l118 505q3 10 13 10h65q10 0 8 -10l-164 -660q-2 -10 -12 -10h-55z" />
    <glyph glyph-name="X" unicode="X" horiz-adv-x="558" 
d="M449 0q-10 0 -14 9l-156 259h-1l-156 -259q-6 -9 -15 -9h-78q-5 0 -6.5 3.5t1.5 8.5l205 342l-187 314q-3 5 -1.5 8.5t6.5 3.5h78q6 0 9 -2t6 -7l138 -230h1l139 230q4 9 14 9h78q5 0 6.5 -3.5t-0.5 -8.5l-188 -314l206 -342q2 -5 0.5 -8.5t-6.5 -3.5h-79z" />
    <glyph glyph-name="Y" unicode="Y" horiz-adv-x="526" 
d="M229 0q-10 0 -10 10v268l-201 391q-4 11 8 11h71q9 0 15 -10l152 -291h2l151 291q4 10 14 10h69q12 0 8 -11l-201 -391v-268q0 -10 -10 -10h-68z" />
    <glyph glyph-name="Z" unicode="Z" horiz-adv-x="536" 
d="M59 0q-10 0 -10 10v63q0 6 4 11l332 512v1h-314q-10 0 -10 10v63q0 10 10 10h406q10 0 10 -10v-63q0 -6 -4 -11l-333 -512v-1h327q10 0 10 -10v-63q0 -10 -10 -10h-418z" />
    <glyph glyph-name="bracketleft" unicode="[" horiz-adv-x="281" 
d="M90 -84q-10 0 -10 10v804q0 10 10 10h144q10 0 10 -10v-48q0 -10 -10 -10h-69q-6 0 -6 -6v-676q0 -6 6 -6h69q10 0 10 -10v-48q0 -10 -10 -10h-144z" />
    <glyph glyph-name="backslash" unicode="\" horiz-adv-x="417" 
d="M295 -11q-10 0 -13 10l-221 682q-3 10 7 10h53q10 0 13 -10l222 -682q3 -10 -7 -10h-54z" />
    <glyph glyph-name="bracketright" unicode="]" horiz-adv-x="281" 
d="M47 -84q-10 0 -10 10v48q0 10 10 10h69q6 0 6 6v676q0 6 -6 6h-69q-10 0 -10 10v48q0 10 10 10h144q10 0 10 -10v-804q0 -10 -10 -10h-144z" />
    <glyph glyph-name="asciicircum" unicode="^" 
d="M416 272q-10 0 -14 10l-130 292h-2l-130 -292q-4 -10 -13 -10h-59q-11 0 -6 10l173 388q5 10 14 10h44q9 0 14 -10l173 -388q5 -10 -6 -10h-58z" />
    <glyph glyph-name="underscore" unicode="_" horiz-adv-x="476" 
d="M0 -132v56h476v-56h-476z" />
    <glyph glyph-name="grave" unicode="`" horiz-adv-x="421" 
d="M239 557q-12 0 -19 10l-92 123q-3 4 -1.5 7t6.5 3h66q12 0 18 -10l75 -123q5 -10 -6 -10h-47z" />
    <glyph glyph-name="a" unicode="a" horiz-adv-x="519" 
d="M372 0q-10 0 -10 10v42h-1q-17 -27 -52 -45t-90 -18q-34 0 -63.5 9t-51 27t-34 45t-12.5 63q0 76 49.5 112t137.5 36h109q6 0 6 6v35q0 50 -24 72t-91 22q-41 0 -68 -9.5t-48 -24.5q-9 -7 -14 1l-27 46q-4 8 2 14q27 21 68 34t95 13q102 0 145 -37.5t43 -125.5v-317
q0 -10 -10 -10h-59zM239 61q57 0 89 24.5t32 69.5v53q0 6 -6 6h-96q-63 0 -91 -18.5t-28 -59.5q0 -37 26 -56t74 -19z" />
    <glyph glyph-name="b" unicode="b" horiz-adv-x="538" 
d="M92 0q-10 0 -10 10v660q0 10 10 10h64q10 0 10 -10v-246h1q17 29 49.5 47.5t86.5 18.5q63 0 105 -29t60 -86q10 -29 13.5 -59.5t3.5 -75.5t-3.5 -76t-13.5 -60q-18 -57 -60 -86t-105 -29q-54 0 -86.5 19t-49.5 48h-1v-46q0 -10 -10 -10h-64zM283 67q80 0 105 73
q6 19 8.5 43t2.5 57q0 32 -2.5 56t-8.5 44q-25 72 -105 72q-82 0 -106 -72q-6 -18 -8.5 -41t-2.5 -59t2.5 -59.5t8.5 -40.5q24 -73 106 -73z" />
    <glyph glyph-name="c" unicode="c" horiz-adv-x="472" 
d="M53 240q0 40 4 69.5t11 51.5q20 63 70 96t119 33q55 0 96.5 -21.5t67.5 -59.5q5 -8 -3 -14l-44 -36q-8 -6 -14 1q-21 26 -44 39t-59 13q-39 0 -67 -18.5t-40 -56.5q-6 -19 -8.5 -42t-2.5 -55t2.5 -55.5t8.5 -42.5q12 -38 40 -56.5t67 -18.5q36 0 59 13t44 39q6 7 14 1
l44 -36q8 -6 3 -14q-26 -38 -67.5 -59.5t-96.5 -21.5q-69 0 -119 33t-70 96q-7 22 -11 51.5t-4 70.5z" />
    <glyph glyph-name="d" unicode="d" horiz-adv-x="538" 
d="M382 0q-10 0 -10 10v46h-1q-17 -29 -49.5 -48t-86.5 -19q-63 0 -105 29t-60 86q-10 29 -13.5 60t-3.5 76t3.5 75.5t13.5 59.5q18 57 60 86t105 29q54 0 86.5 -18.5t49.5 -47.5h1v246q0 10 10 10h64q10 0 10 -10v-660q0 -10 -10 -10h-64zM255 67q82 0 106 73
q6 17 8.5 40.5t2.5 59.5t-2.5 59t-8.5 41q-24 72 -106 72q-80 0 -105 -72q-6 -20 -8.5 -44t-2.5 -56q0 -33 2.5 -57t8.5 -43q25 -73 105 -73z" />
    <glyph glyph-name="e" unicode="e" horiz-adv-x="512" 
d="M261 -11q-73 0 -122.5 33.5t-69.5 96.5q-8 23 -12 51t-4 70t3.5 70.5t11.5 50.5q20 63 69.5 96t118.5 33t118.5 -33.5t69.5 -95.5q4 -12 6.5 -24.5t4.5 -28.5t3 -36.5t1 -47.5q0 -10 -11 -10h-303q-6 0 -6 -6q0 -20 2 -33t6 -25q14 -42 45 -62.5t76 -20.5q43 0 73 15
t50 38q8 8 15 2l41 -37q7 -6 1 -14q-29 -36 -76.5 -59t-110.5 -23zM367 281q6 0 6 6q0 33 -7 54q-12 36 -40.5 55.5t-69.5 19.5t-69.5 -19.5t-40.5 -55.5q-7 -21 -7 -54q0 -6 6 -6h222z" />
    <glyph glyph-name="f" unicode="f" horiz-adv-x="318" 
d="M108 0q-10 0 -10 10v395q0 6 -6 6h-41q-10 0 -10 10v48q0 10 10 10h41q6 0 6 6v41q0 85 35.5 119.5t110.5 34.5h37q10 0 10 -10v-58q0 -10 -10 -10h-26q-23 0 -37 -3t-22 -11t-11 -22t-3 -36v-45q0 -6 6 -6h93q10 0 10 -10v-48q0 -10 -10 -10h-93q-6 0 -6 -6v-395
q0 -10 -10 -10h-64z" />
    <glyph glyph-name="g" unicode="g" horiz-adv-x="529" 
d="M238 -191q-51 0 -96.5 19.5t-69.5 51.5q-6 7 1 14l41 41q7 7 15 0q25 -23 51.5 -35.5t61.5 -12.5q60 0 90.5 31.5t30.5 97.5v56h-1q-17 -30 -48.5 -48t-84.5 -18q-61 0 -102 29.5t-59 86.5q-9 27 -12.5 55.5t-3.5 70.5t3.5 70.5t12.5 55.5q18 57 59 86.5t102 29.5
q53 0 84.5 -18t48.5 -48h1v45q0 10 10 10h64q10 0 10 -10v-448q0 -103 -53.5 -157.5t-155.5 -54.5zM250 83q77 0 102 72q6 18 8.5 40t2.5 53t-2.5 52.5t-8.5 40.5q-25 71 -102 71q-76 0 -101 -71q-6 -19 -9 -41.5t-3 -51.5q0 -57 12 -93q25 -72 101 -72z" />
    <glyph glyph-name="h" unicode="h" horiz-adv-x="544" 
d="M393 0q-10 0 -10 10v280q0 58 -26.5 90t-80.5 32q-49 0 -79.5 -31.5t-30.5 -85.5v-285q0 -10 -10 -10h-64q-10 0 -10 10v660q0 10 10 10h64q10 0 10 -10v-245h1q17 28 51 46.5t83 18.5q78 0 122 -49t44 -131v-300q0 -10 -10 -10h-64z" />
    <glyph glyph-name="i" unicode="i" horiz-adv-x="248" 
d="M90 587q-10 0 -10 10v73q0 10 10 10h68q10 0 10 -10v-73q0 -10 -10 -10h-68zM92 0q-10 0 -10 10v459q0 10 10 10h64q10 0 10 -10v-459q0 -10 -10 -10h-64z" />
    <glyph glyph-name="j" unicode="j" horiz-adv-x="248" 
d="M90 587q-10 0 -10 10v73q0 10 10 10h68q10 0 10 -10v-73q0 -10 -10 -10h-68zM3 -180q-10 0 -10 10v58q0 10 10 10h16q35 0 49 13t14 51v507q0 10 10 10h64q10 0 10 -10v-505q0 -78 -35 -111t-108 -33h-20z" />
    <glyph glyph-name="k" unicode="k" horiz-adv-x="511" 
d="M401 0q-10 0 -16 10l-136 223l-83 -97v-126q0 -10 -10 -10h-64q-10 0 -10 10v660q0 10 10 10h64q10 0 10 -10v-423l189 223q8 9 18 9h74q5 0 6 -3t-2 -7l-147 -171l177 -288q2 -3 0.5 -6.5t-6.5 -3.5h-74z" />
    <glyph glyph-name="l" unicode="l" horiz-adv-x="277" 
d="M197 -5q-63 0 -90 30.5t-27 95.5v549q0 10 10 10h64q10 0 10 -10v-544q0 -30 11.5 -41.5t36.5 -11.5h19q10 0 10 -10v-58q0 -10 -10 -10h-34z" />
    <glyph glyph-name="m" unicode="m" horiz-adv-x="845" 
d="M694 0q-10 0 -10 10v280q0 58 -26.5 90t-80.5 32q-48 0 -79 -31.5t-31 -85.5v-285q0 -10 -10 -10h-64q-10 0 -10 10v280q0 58 -26.5 90t-80.5 32q-49 0 -79.5 -31.5t-30.5 -85.5v-285q0 -10 -10 -10h-64q-10 0 -10 10v459q0 10 10 10h64q10 0 10 -10v-44h1q17 28 51 46.5
t83 18.5t84.5 -19.5t55.5 -55.5h1q25 35 62.5 55t92.5 20q84 0 127.5 -49t43.5 -131v-300q0 -10 -10 -10h-64z" />
    <glyph glyph-name="n" unicode="n" horiz-adv-x="544" 
d="M393 0q-10 0 -10 10v280q0 58 -26.5 90t-80.5 32q-49 0 -79.5 -31.5t-30.5 -85.5v-285q0 -10 -10 -10h-64q-10 0 -10 10v459q0 10 10 10h64q10 0 10 -10v-44h1q17 28 51 46.5t83 18.5q78 0 122 -49t44 -131v-300q0 -10 -10 -10h-64z" />
    <glyph glyph-name="o" unicode="o" horiz-adv-x="516" 
d="M258 -11q-70 0 -119.5 34t-69.5 95q-8 25 -12 52.5t-4 69.5t4 69t12 52q20 62 69.5 95.5t119.5 33.5t119.5 -33.5t69.5 -95.5q8 -25 12 -52t4 -69t-4 -69.5t-12 -52.5q-20 -61 -69.5 -95t-119.5 -34zM258 67q40 0 68 19.5t40 55.5q6 20 8.5 41.5t2.5 56.5t-2.5 56
t-8.5 41q-12 36 -40 55.5t-68 19.5t-68 -19.5t-40 -55.5q-6 -20 -8.5 -41t-2.5 -56t2.5 -56.5t8.5 -41.5q12 -36 40 -55.5t68 -19.5z" />
    <glyph glyph-name="p" unicode="p" horiz-adv-x="538" 
d="M92 -180q-10 0 -10 10v639q0 10 10 10h64q10 0 10 -10v-45h1q17 29 49.5 47.5t86.5 18.5q63 0 105 -29t60 -86q10 -29 13.5 -59.5t3.5 -75.5t-3.5 -76t-13.5 -60q-18 -57 -60 -86t-105 -29q-54 0 -86.5 19t-49.5 48h-1v-226q0 -10 -10 -10h-64zM283 67q80 0 105 73
q6 19 8.5 43t2.5 57q0 32 -2.5 56t-8.5 44q-25 72 -105 72q-82 0 -106 -72q-6 -18 -8.5 -41t-2.5 -59t2.5 -59.5t8.5 -40.5q24 -73 106 -73z" />
    <glyph glyph-name="q" unicode="q" horiz-adv-x="538" 
d="M382 -180q-10 0 -10 10v226h-1q-17 -29 -49.5 -48t-86.5 -19q-63 0 -105 29t-60 86q-10 29 -13.5 60t-3.5 76t3.5 75.5t13.5 59.5q18 57 60 86t105 29q54 0 86.5 -18.5t49.5 -47.5h1v45q0 10 10 10h64q10 0 10 -10v-639q0 -10 -10 -10h-64zM255 67q82 0 106 73
q6 17 8.5 40.5t2.5 59.5t-2.5 59t-8.5 41q-24 72 -106 72q-80 0 -105 -72q-6 -20 -8.5 -44t-2.5 -56q0 -33 2.5 -57t8.5 -43q25 -73 105 -73z" />
    <glyph glyph-name="r" unicode="r" horiz-adv-x="410" 
d="M92 0q-10 0 -10 10v459q0 10 10 10h64q10 0 10 -10v-49h1q16 31 47.5 50.5t79.5 19.5q29 0 54.5 -9.5t43.5 -26.5q7 -7 2 -14l-37 -49q-6 -8 -14 -2q-17 11 -35 17t-39 6q-55 0 -79 -38.5t-24 -101.5v-262q0 -10 -10 -10h-64z" />
    <glyph glyph-name="s" unicode="s" horiz-adv-x="490" 
d="M247 -11q-35 0 -65 6.5t-54.5 17t-44 23t-34.5 25.5q-7 7 0 14l41 44q7 7 14 0q27 -23 65.5 -39t82.5 -16q53 0 79 20.5t26 52.5q0 28 -18.5 44.5t-74.5 22.5l-51 5q-71 8 -107 42t-36 93q0 69 46.5 107.5t131.5 38.5q53 0 96.5 -15t73.5 -38q8 -5 2 -14l-34 -43
q-6 -7 -14 -2q-23 15 -57.5 27t-71.5 12q-45 0 -68 -18.5t-23 -47.5t20 -44.5t74 -20.5l50 -5q73 -7 108.5 -42t35.5 -93q0 -71 -49.5 -114t-143.5 -43z" />
    <glyph glyph-name="t" unicode="t" horiz-adv-x="316" 
d="M221 -5q-70 0 -99.5 32.5t-29.5 103.5v274q0 6 -6 6h-40q-10 0 -10 10v48q0 10 10 10h40q6 0 6 6v135q0 10 10 10h64q10 0 10 -10v-135q0 -6 6 -6h76q10 0 10 -10v-48q0 -10 -10 -10h-76q-6 0 -6 -6v-271q0 -36 14.5 -48.5t46.5 -12.5h21q10 0 10 -10v-58q0 -10 -10 -10
h-37z" />
    <glyph glyph-name="u" unicode="u" horiz-adv-x="539" 
d="M383 0q-10 0 -10 10v45h-1q-19 -30 -51.5 -48t-79.5 -18q-79 0 -122.5 49.5t-43.5 131.5v299q0 10 10 10h64q10 0 10 -10v-279q0 -59 26 -91t80 -32q49 0 78.5 32t29.5 86v284q0 10 10 10h64q10 0 10 -10v-459q0 -10 -10 -10h-64z" />
    <glyph glyph-name="v" unicode="v" horiz-adv-x="477" 
d="M210 0q-9 0 -12 10l-172 459q-3 10 8 10h69q9 0 13 -10l124 -344h2l121 344q3 10 12 10h68q11 0 8 -10l-171 -459q-3 -10 -13 -10h-57z" />
    <glyph glyph-name="w" unicode="w" horiz-adv-x="745" 
d="M494 0q-9 0 -12 10l-108 343h-2l-109 -343q-3 -10 -12 -10h-58q-9 0 -12 10l-150 459q-3 10 7 10h68q9 0 13 -10l106 -346h2l108 346q3 10 12 10h52q10 0 13 -10l109 -346h2l103 346q2 10 13 10h68q10 0 7 -10l-151 -459q-3 -10 -12 -10h-57z" />
    <glyph glyph-name="x" unicode="x" horiz-adv-x="480" 
d="M371 0q-9 0 -15 9l-116 169h-1l-116 -169q-5 -9 -15 -9h-71q-6 0 -7.5 3t0.5 7l163 240l-149 219q-2 4 -0.5 7t7.5 3h72q5 0 8.5 -1.5t6.5 -7.5l101 -149h1l103 149q5 9 14 9h72q6 0 7.5 -3t-0.5 -7l-150 -219l164 -240q2 -4 0.5 -7t-7.5 -3h-72z" />
    <glyph glyph-name="y" unicode="y" horiz-adv-x="477" 
d="M86 -180q-10 0 -10 10v58q0 10 10 10h18q29 0 47 15.5t34 56.5l16 44l-176 455q-3 10 8 10h70q9 0 12 -10l126 -346h2l121 346q3 10 12 10h68q11 0 8 -10l-189 -506q-16 -42 -31.5 -70t-33 -44t-38.5 -22.5t-48 -6.5h-26z" />
    <glyph glyph-name="z" unicode="z" horiz-adv-x="477" 
d="M65 0q-10 0 -10 10v53q0 7 4 11l263 327v2h-244q-10 0 -10 10v56q0 10 10 10h334q10 0 10 -10v-56q0 -6 -4 -11l-261 -324v-2h255q10 0 10 -10v-56q0 -10 -10 -10h-347z" />
    <glyph glyph-name="braceleft" unicode="{" horiz-adv-x="333" 
d="M240 -84q-107 0 -107 113v182q0 43 -15.5 61.5t-46.5 19.5q-10 0 -10 10v57q0 10 10 10q31 1 46.5 19.5t15.5 60.5v178q0 113 107 113h46q10 0 10 -10v-48q0 -10 -10 -10h-29q-23 0 -34 -11.5t-11 -37.5v-173q0 -56 -14.5 -81.5t-47.5 -37.5v-1q33 -12 47.5 -37.5
t14.5 -81.5v-178q0 -26 11 -37.5t34 -11.5h29q10 0 10 -10v-48q0 -10 -10 -10h-46z" />
    <glyph glyph-name="bar" unicode="|" horiz-adv-x="290" 
d="M119 -84q-10 0 -10 10v804q0 10 10 10h52q10 0 10 -10v-804q0 -10 -10 -10h-52z" />
    <glyph glyph-name="braceright" unicode="}" horiz-adv-x="333" 
d="M47 -84q-10 0 -10 10v48q0 10 10 10h29q23 0 34 11.5t11 37.5v178q0 56 14.5 81.5t47.5 37.5v1q-33 12 -47.5 37.5t-14.5 81.5v173q0 26 -11 37.5t-34 11.5h-29q-10 0 -10 10v48q0 10 10 10h46q107 0 107 -113v-178q0 -42 15.5 -60.5t46.5 -19.5q10 0 10 -10v-57
q0 -10 -10 -10q-31 -1 -46.5 -19.5t-15.5 -61.5v-182q0 -113 -107 -113h-46z" />
    <glyph glyph-name="asciitilde" unicode="~" 
d="M286 307q17 -11 35.5 -20t35.5 -9q26 0 42.5 14t32.5 40q5 8 14 2l38 -22q8 -5 4 -14q-20 -42 -55 -66t-77 -24q-31 0 -55.5 11.5t-44.5 25.5q-17 11 -35.5 20t-35.5 9q-26 0 -42.5 -14t-32.5 -40q-5 -8 -14 -2l-38 22q-8 5 -4 14q20 42 55 66t77 24q31 0 55.5 -11.5
t44.5 -25.5z" />
    <glyph glyph-name="exclamdown" unicode="&#xa1;" horiz-adv-x="288" 
d="M165 295q10 0 10 -10l16 -476q0 -10 -10 -10h-74q-10 0 -10 10l16 476q0 10 10 10h42zM192 383q0 -10 -10 -10h-76q-10 0 -10 10v86q0 10 10 10h76q10 0 10 -10v-86z" />
    <glyph glyph-name="cent" unicode="&#xa2;" 
d="M313 489q51 -3 88 -24t61 -56q5 -8 -3 -14l-44 -36q-8 -6 -14 1q-19 23 -38.5 35.5t-49.5 15.5v-343q30 3 49.5 15.5t38.5 35.5q6 7 14 1l44 -36q8 -6 3 -14q-24 -35 -61 -56t-88 -24v-80q0 -10 -10 -10h-26q-10 0 -10 10v81q-62 6 -105 38t-61 89q-7 22 -11 51.5
t-4 70.5q0 40 4 69.5t11 51.5q18 57 61 89t105 38v82q0 10 10 10h26q10 0 10 -10v-81zM183 142q19 -62 84 -73v341q-64 -11 -84 -73q-6 -19 -8.5 -42t-2.5 -55t2.5 -55.5t8.5 -42.5z" />
    <glyph glyph-name="sterling" unicode="&#xa3;" 
d="M108 0q-10 0 -10 10v56q0 7 5 12q9 9 16 18t11.5 19.5t6.5 24.5t2 34v105q0 6 -6 6h-48q-10 0 -10 10v47q0 10 10 10h48q6 0 6 6v152q0 88 44.5 134.5t119.5 46.5q64 0 104 -34.5t53 -89.5q2 -9 -9 -11l-61 -16q-9 -2 -11 8q-7 29 -26 47t-50 18q-36 0 -57 -22.5
t-21 -67.5v-165q0 -6 6 -6h127q10 0 10 -10v-47q0 -10 -10 -10h-127q-6 0 -6 -6v-92q0 -38 -7 -63.5t-21 -44.5v-1h256q10 0 10 -10v-58q0 -10 -10 -10h-345z" />
    <glyph glyph-name="currency" unicode="&#xa4;" horiz-adv-x="538" 
d="M456 98q-8 -6 -14 0l-62 61q-23 -16 -51.5 -24.5t-60.5 -8.5q-64 0 -112 34l-61 -61q-6 -6 -14 0l-37 39q-6 8 0 14l60 60q-32 47 -32 111t32 111l-60 61q-7 7 0 14l37 39q7 7 14 0l61 -62q24 16 52 25t60 9t60 -9t52 -25l61 62q8 8 14 0l38 -39q7 -7 0 -14l-61 -61
q15 -23 23.5 -51.5t8.5 -59.5q0 -32 -8.5 -59.5t-23.5 -50.5l61 -61q8 -8 0 -14zM268 196q27 0 50.5 9.5t40 27t26 40.5t9.5 50t-9.5 50t-26 40.5t-40 27t-50.5 9.5t-50 -9.5t-39.5 -27t-26 -40.5t-9.5 -50t9.5 -50t26 -40.5t39.5 -27t50 -9.5z" />
    <glyph glyph-name="yen" unicode="&#xa5;" 
d="M239 0q-10 0 -10 10v132q0 6 -6 6h-126q-10 0 -10 10v42q0 10 10 10h126q6 0 6 6v51q0 6 -6 6h-126q-10 0 -10 10v42q0 10 10 10h108v2l-155 332q-6 11 7 11h68q11 0 14 -10l133 -298h3l129 298q4 10 14 10h67q12 0 7 -11l-155 -332v-2h108q10 0 10 -10v-42
q0 -10 -10 -10h-126q-6 0 -6 -6v-51q0 -6 6 -6h126q10 0 10 -10v-42q0 -10 -10 -10h-126q-6 0 -6 -6v-132q0 -10 -10 -10h-64z" />
    <glyph glyph-name="brokenbar" unicode="&#xa6;" horiz-adv-x="290" 
d="M119 388q-10 0 -10 10v332q0 10 10 10h52q10 0 10 -10v-332q0 -10 -10 -10h-52zM119 -84q-10 0 -10 10v336q0 10 10 10h52q10 0 10 -10v-336q0 -10 -10 -10h-52z" />
    <glyph glyph-name="section" unicode="&#xa7;" horiz-adv-x="556" 
d="M275 -191q-81 0 -122.5 38.5t-46.5 101.5q-2 10 7 11l58 13q9 2 11 -7q2 -43 26 -64.5t66 -21.5q43 0 67.5 21.5t24.5 61.5q0 42 -29 67t-100 40q-75 17 -109.5 63.5t-34.5 118.5q0 56 25.5 99.5t74.5 60.5v1q-42 22 -59.5 52.5t-17.5 76.5q0 31 12 58t34 47.5t52 32
t66 11.5q40 0 70.5 -11.5t50.5 -30t30.5 -43t11.5 -50.5q0 -10 -7 -11l-57 -12q-5 -2 -8 0.5t-3 6.5q-2 35 -23.5 57.5t-62.5 22.5q-40 0 -63.5 -20.5t-23.5 -57.5q0 -43 27.5 -67t96.5 -41q74 -17 109 -63t35 -119q0 -57 -26.5 -99.5t-72.5 -59.5v-1q40 -19 60.5 -50
t20.5 -83q0 -33 -12.5 -60.5t-35 -47.5t-54 -31t-68.5 -11zM278 141q48 0 77 28.5t29 82.5t-29 82.5t-77 28.5t-77 -28.5t-29 -82.5t29 -82.5t77 -28.5z" />
    <glyph glyph-name="dieresis" unicode="&#xa8;" horiz-adv-x="421" 
d="M280 587q-10 0 -10 10v73q0 10 10 10h59q10 0 10 -10v-73q0 -10 -10 -10h-59zM83 587q-10 0 -10 10v73q0 10 10 10h59q10 0 10 -10v-73q0 -10 -10 -10h-59z" />
    <glyph glyph-name="copyright" unicode="&#xa9;" horiz-adv-x="828" 
d="M414 -11q-74 0 -138.5 27t-111.5 74t-74 111.5t-27 138.5t27 138t74 111.5t111.5 74.5t138.5 27t138 -27t111.5 -74.5t74.5 -111.5t27 -138t-27 -138.5t-74.5 -111.5t-111.5 -74t-138 -27zM414 50q61 0 114 22t91.5 61t60.5 92t22 115t-22 115t-60.5 92t-91.5 61t-114 22
q-62 0 -114.5 -22t-91 -61t-60.5 -92t-22 -115t22 -115t60.5 -92t91 -61t114.5 -22zM423 143q-57 0 -96.5 26.5t-56.5 78.5q-5 15 -8 35.5t-3 56.5t3 56.5t8 35.5q17 52 56.5 78.5t96.5 26.5q45 0 77.5 -17.5t52.5 -45.5q6 -8 -2 -14l-32 -29q-7 -5 -14 2q-15 20 -33.5 31
t-47.5 11q-69 0 -90 -62q-4 -11 -5.5 -26t-1.5 -47t1.5 -47t5.5 -26q21 -62 90 -62q29 0 47.5 11t33.5 31q7 7 14 2l32 -29q8 -6 2 -14q-20 -28 -52.5 -45.5t-77.5 -17.5z" />
    <glyph glyph-name="ordfeminine" unicode="&#xaa;" horiz-adv-x="343" 
d="M240 392q-10 0 -10 10v17h-1q-12 -15 -33.5 -23.5t-54.5 -8.5q-42 0 -72 21t-30 65q0 48 32 70.5t92 22.5h60q6 0 6 6v14q0 22 -14.5 32t-53.5 10q-23 0 -40 -4.5t-30 -12.5q-9 -5 -14 2l-19 35q-6 8 2 14q19 12 45.5 19t63.5 7q71 0 99 -23.5t28 -77.5v-185
q0 -10 -10 -10h-46zM159 442q33 0 51.5 11.5t18.5 34.5v22q0 6 -6 6h-55q-33 0 -47.5 -10t-14.5 -28q0 -36 53 -36z" />
    <glyph glyph-name="guillemotleft" unicode="&#xab;" horiz-adv-x="535" 
d="M266 257q-7 7 0 14l189 192q3 3 6.5 2t3.5 -6v-73q0 -10 -9 -20l-99 -98q-4 -4 0 -8l99 -98q9 -10 9 -20v-73q0 -5 -3.5 -6t-6.5 2zM51 257q-7 7 0 14l189 192q3 3 6.5 2t3.5 -6v-73q0 -10 -9 -20l-99 -98q-4 -4 0 -8l99 -98q9 -10 9 -20v-73q0 -5 -3.5 -6t-6.5 2z" />
    <glyph glyph-name="logicalnot" unicode="&#xac;" 
d="M415 103q-10 0 -10 10v120q0 6 -6 6h-328q-10 0 -10 10v54q0 10 10 10h400q10 0 10 -10v-190q0 -10 -10 -10h-56z" />
    <glyph glyph-name="registered" unicode="&#xae;" horiz-adv-x="452" 
d="M226 301q-41 0 -75.5 14.5t-60.5 40.5t-40.5 61t-14.5 76q0 40 14.5 75t40.5 61t60.5 40.5t75.5 14.5t76 -14.5t60.5 -40.5t40 -61t14.5 -75q0 -41 -14.5 -76t-40 -61t-60.5 -40.5t-76 -14.5zM226 334q34 0 62.5 12t49.5 33.5t33 50.5t12 63t-12 63t-33 50t-49.5 33
t-62.5 12t-62.5 -12t-49.5 -33t-33 -50t-12 -63t12 -63t33 -50.5t49.5 -33.5t62.5 -12zM159 388q-7 0 -7 7v198q0 7 7 7h80q35 0 54 -16.5t19 -46.5q0 -22 -11 -37t-31 -22l43 -83q3 -7 -4 -7h-28q-6 0 -9 7l-40 78h-38q-4 0 -4 -4v-74q0 -7 -7 -7h-24zM239 507q35 0 35 30
q0 29 -35 29h-45q-4 0 -4 -4v-51q0 -4 4 -4h45z" />
    <glyph glyph-name="macron" unicode="&#xaf;" horiz-adv-x="421" 
d="M83 601q-10 0 -10 10v45q0 10 10 10h255q10 0 10 -10v-45q0 -10 -10 -10h-255z" />
    <glyph glyph-name="degree" unicode="&#xb0;" horiz-adv-x="456" 
d="M228 397q-32 0 -58.5 11t-46 30.5t-30.5 46.5t-11 58t11 58t30.5 46.5t46 30.5t58.5 11q31 0 58 -11t46.5 -30.5t30.5 -46.5t11 -58t-11 -58t-30.5 -46.5t-46.5 -30.5t-58 -11zM228 449q40 0 65.5 26.5t25.5 67.5t-25.5 67.5t-65.5 26.5t-65.5 -26.5t-25.5 -67.5
t25.5 -67.5t65.5 -26.5z" />
    <glyph glyph-name="plusminus" unicode="&#xb1;" 
d="M243 134q-10 0 -10 10v158q0 6 -6 6h-156q-10 0 -10 10v54q0 10 10 10h156q6 0 6 6v158q0 10 10 10h56q10 0 10 -10v-158q0 -6 6 -6h156q10 0 10 -10v-54q0 -10 -10 -10h-156q-6 0 -6 -6v-158q0 -10 -10 -10h-56zM71 0q-10 0 -10 10v54q0 10 10 10h400q10 0 10 -10v-54
q0 -10 -10 -10h-400z" />
    <glyph glyph-name="twosuperior" unicode="&#xb2;" horiz-adv-x="341" 
d="M52 430q-10 0 -10 10v41q0 8 7 14l149 169q14 14 22.5 30.5t8.5 33.5q0 24 -15.5 39t-41.5 15q-50 0 -61 -50q-2 -10 -11 -8l-45 10q-10 2 -8 11q2 16 11 33.5t24.5 32t38 23.5t52.5 9q58 0 90.5 -33.5t32.5 -81.5q0 -29 -11 -52.5t-33 -47.5l-122 -135v-2h158
q10 0 10 -10v-41q0 -10 -10 -10h-236z" />
    <glyph glyph-name="threesuperior" unicode="&#xb3;" horiz-adv-x="341" 
d="M172 423q-52 0 -87 22t-46 65q-3 10 6 12l45 12q8 1 12 -7q8 -17 25 -30t43 -13q29 0 47 17.5t18 44.5q0 28 -18.5 45t-50.5 17h-19q-10 0 -10 10v41q0 10 10 10h15q29 0 46 15.5t17 41.5t-15.5 41t-43.5 15q-26 0 -39 -10.5t-21 -26.5q-3 -9 -12 -7l-42 10q-9 1 -7 12
q8 34 38.5 58.5t84.5 24.5q59 0 92 -31t33 -81q0 -26 -12 -48.5t-34 -37.5v-1q18 -8 36.5 -33t18.5 -64q0 -57 -35 -90.5t-95 -33.5z" />
    <glyph glyph-name="acute" unicode="&#xb4;" horiz-adv-x="421" 
d="M135 557q-11 0 -6 10l76 123q6 10 17 10h66q5 0 6.5 -3t-1.5 -7l-92 -123q-8 -10 -19 -10h-47z" />
    <glyph glyph-name="micron" unicode="&#xb5;" horiz-adv-x="546" 
d="M390 0q-10 0 -10 10v45h-1q-14 -29 -45 -47.5t-75 -18.5q-33 0 -55 10t-36 27h-2v-196q0 -10 -10 -10h-64q-10 0 -10 10v639q0 10 10 10h64q10 0 10 -10v-284q0 -56 26.5 -87t79.5 -31q49 0 78.5 31.5t29.5 86.5v284q0 10 10 10h64q10 0 10 -10v-459q0 -10 -10 -10h-64z
" />
    <glyph glyph-name="paragraph" unicode="&#xb6;" horiz-adv-x="603" 
d="M451 -180q-10 0 -10 10v770q0 6 -6 6h-84q-6 0 -6 -6v-770q0 -10 -10 -10h-54q-10 0 -10 10v432q-45 3 -81.5 20t-62 44.5t-39 64.5t-13.5 80t14.5 81.5t43 66.5t70 44.5t95.5 16.5h207q10 0 10 -10v-840q0 -10 -10 -10h-54z" />
    <glyph glyph-name="periodcentered" unicode="&#xb7;" horiz-adv-x="236" 
d="M80 212q-10 0 -10 10v86q0 10 10 10h76q10 0 10 -10v-86q0 -10 -10 -10h-76z" />
    <glyph glyph-name="cedilla" unicode="&#xb8;" horiz-adv-x="421" 
d="M157 -152q-10 0 -7 10l57 142q4 10 13 10h47q10 0 7 -10l-46 -142q-3 -10 -16 -10h-55z" />
    <glyph glyph-name="onesuperior" unicode="&#xb9;" horiz-adv-x="341" 
d="M173 430q-10 0 -10 10v315h-2l-66 -44q-4 -2 -7 -0.5t-3 6.5v53q0 10 8 15l65 44q8 7 16 7h46q10 0 10 -10v-386q0 -10 -10 -10h-47z" />
    <glyph glyph-name="ordmasculine" unicode="&#xba;" horiz-adv-x="351" 
d="M175 384q-49 0 -81.5 20.5t-46.5 63.5q-9 27 -9 68t9 68q14 43 46.5 63.5t81.5 20.5q101 0 129 -84q9 -27 9 -68t-9 -68q-28 -84 -129 -84zM175 447q46 0 61 42q6 18 6 47t-6 47q-15 42 -61 42q-45 0 -60 -42q-6 -18 -6 -47t6 -47q15 -42 60 -42z" />
    <glyph glyph-name="guillemotright" unicode="&#xbb;" horiz-adv-x="535" 
d="M295 65q-3 -3 -6.5 -2t-3.5 6v73q0 10 9 20l99 98q4 4 0 8l-99 98q-9 10 -9 20v73q0 5 3.5 6t6.5 -2l189 -192q7 -7 0 -14zM80 65q-3 -3 -6.5 -2t-3.5 6v73q0 10 9 20l99 98q4 4 0 8l-99 98q-9 10 -9 20v73q0 5 3.5 6t6.5 -2l189 -192q7 -7 0 -14z" />
    <glyph glyph-name="onequarter" unicode="&#xbc;" horiz-adv-x="835" 
d="M182 274q-10 0 -10 10v315h-2l-66 -44q-4 -2 -7 -0.5t-3 6.5v53q0 10 8 15l65 44q8 7 16 7h46q10 0 10 -10v-386q0 -10 -10 -10h-47zM644 0q-10 0 -10 10v51q0 6 -6 6h-162q-10 0 -10 10v40q0 8 4 16l128 263q5 10 14 10h52q11 0 6 -10l-128 -267v-1h96q6 0 6 6v89
q0 10 10 10h45q10 0 10 -10v-89q0 -6 6 -6h26q10 0 10 -10v-41q0 -10 -10 -10h-26q-6 0 -6 -6v-51q0 -10 -10 -10h-45zM179 -11q-5 0 -6 3t1 7l394 682q6 10 15 10h47q5 0 6.5 -3t-0.5 -7l-395 -682q-3 -5 -6 -7.5t-9 -2.5h-47z" />
    <glyph glyph-name="onehalf" unicode="&#xbd;" horiz-adv-x="870" 
d="M182 274q-10 0 -10 10v315h-2l-66 -44q-4 -2 -7 -0.5t-3 6.5v53q0 10 8 15l65 44q8 7 16 7h46q10 0 10 -10v-386q0 -10 -10 -10h-47zM530 0q-10 0 -10 10v41q0 8 7 14l149 169q14 14 22.5 30.5t8.5 33.5q0 24 -15.5 39t-41.5 15q-50 0 -61 -50q-2 -10 -11 -8l-45 10
q-10 2 -8 11q2 16 11 33.5t24.5 32t38 23.5t52.5 9q58 0 90.5 -33.5t32.5 -81.5q0 -29 -11 -52.5t-33 -47.5l-122 -135v-2h158q10 0 10 -10v-41q0 -10 -10 -10h-236zM179 -11q-5 0 -6 3t1 7l394 682q6 10 15 10h47q5 0 6.5 -3t-0.5 -7l-395 -682q-3 -5 -6 -7.5t-9 -2.5h-47z
" />
    <glyph glyph-name="threequarters" unicode="&#xbe;" horiz-adv-x="906" 
d="M715 0q-10 0 -10 10v51q0 6 -6 6h-162q-10 0 -10 10v40q0 8 4 16l128 263q5 10 14 10h52q11 0 6 -10l-128 -267v-1h96q6 0 6 6v89q0 10 10 10h45q10 0 10 -10v-89q0 -6 6 -6h26q10 0 10 -10v-41q0 -10 -10 -10h-26q-6 0 -6 -6v-51q0 -10 -10 -10h-45zM251 -11q-5 0 -6 3
t1 7l394 682q6 10 15 10h47q5 0 6.5 -3t-0.5 -7l-395 -682q-3 -5 -6 -7.5t-9 -2.5h-47zM228 267q-52 0 -87 22t-46 65q-3 10 6 12l45 12q8 1 12 -7q8 -17 25 -30t43 -13q29 0 47 17.5t18 44.5q0 28 -18.5 45t-50.5 17h-19q-10 0 -10 10v41q0 10 10 10h15q29 0 46 15.5
t17 41.5t-15.5 41t-43.5 15q-26 0 -39 -10.5t-21 -26.5q-3 -9 -12 -7l-42 10q-9 1 -7 12q8 34 38.5 58.5t84.5 24.5q59 0 92 -31t33 -81q0 -26 -12 -48.5t-34 -37.5v-1q18 -8 36.5 -33t18.5 -64q0 -57 -35 -90.5t-95 -33.5z" />
    <glyph glyph-name="questiondown" unicode="&#xbf;" horiz-adv-x="456" 
d="M266 297q10 0 10 -10v-41q0 -30 -7 -49t-23 -41l-67 -92q-26 -36 -36.5 -58t-10.5 -47q0 -43 27 -68t70 -25q42 0 68.5 24.5t35.5 70.5q2 10 11 8l63 -11q10 -2 8 -11q-11 -72 -60.5 -115.5t-127.5 -43.5q-41 0 -74 12.5t-57 35t-37 54t-13 68.5q0 36 12.5 65.5
t38.5 64.5l67 92q7 10 12 18.5t8 16.5t4.5 17.5t1.5 22.5v32q0 10 10 10h66zM281 383q0 -10 -10 -10h-76q-10 0 -10 10v86q0 10 10 10h76q10 0 10 -10v-86z" />
    <glyph glyph-name="Agrave" unicode="&#xc0;" horiz-adv-x="607" 
d="M260 670q3 10 12 10h65q10 0 13 -10l233 -660q3 -10 -7 -10h-70q-10 0 -13 10l-52 148h-275l-52 -148q-4 -10 -13 -10h-70q-10 0 -7 10zM412 240l-107 309h-2l-108 -309h217zM277 762q-6 0 -9.5 1.5t-8.5 7.5l-107 107q-4 4 -2.5 7t6.5 3h70q11 0 19 -10l85 -106
q4 -4 2.5 -7t-6.5 -3h-49z" />
    <glyph glyph-name="Aacute" unicode="&#xc1;" horiz-adv-x="607" 
d="M260 670q3 10 12 10h65q10 0 13 -10l233 -660q3 -10 -7 -10h-70q-10 0 -13 10l-52 148h-275l-52 -148q-4 -10 -13 -10h-70q-10 0 -7 10zM412 240l-107 309h-2l-108 -309h217zM281 762q-5 0 -6 3t2 7l86 106q4 5 7.5 7.5t10.5 2.5h70q5 0 6.5 -3t-1.5 -7l-107 -107
q-5 -6 -9 -7.5t-9 -1.5h-50z" />
    <glyph glyph-name="Acircumflex" unicode="&#xc2;" horiz-adv-x="607" 
d="M260 670q3 10 12 10h65q10 0 13 -10l233 -660q3 -10 -7 -10h-70q-10 0 -13 10l-52 148h-275l-52 -148q-4 -10 -13 -10h-70q-10 0 -7 10zM412 240l-107 309h-2l-108 -309h217zM386 754q-10 0 -19 10l-63 70h-2l-64 -70q-5 -6 -8.5 -8t-10.5 -2h-45q-5 0 -6 3t2 7l95 123
q7 10 16 10h43q9 0 16 -10l95 -123q3 -4 2 -7t-6 -3h-45z" />
    <glyph glyph-name="Atilde" unicode="&#xc3;" horiz-adv-x="607" 
d="M260 670q3 10 12 10h65q10 0 13 -10l233 -660q3 -10 -7 -10h-70q-10 0 -13 10l-52 148h-275l-52 -148q-4 -10 -13 -10h-70q-10 0 -7 10zM412 240l-107 309h-2l-108 -309h217zM358 767q-18 0 -32.5 6t-30.5 15q-14 8 -26 13t-27 5q-20 0 -34.5 -9.5t-28.5 -22.5
q-3 -3 -5.5 -2t-2.5 4v48q0 6 1 9.5t6 8.5q14 14 31 23t37 9q19 0 33.5 -6t29.5 -14q14 -8 26 -13t27 -5q20 0 34.5 9t28.5 23q3 3 5.5 2t2.5 -5v-48q0 -5 -1 -8.5t-6 -8.5q-14 -14 -31 -23.5t-37 -9.5z" />
    <glyph glyph-name="Adieresis" unicode="&#xc4;" horiz-adv-x="607" 
d="M260 670q3 10 12 10h65q10 0 13 -10l233 -660q3 -10 -7 -10h-70q-10 0 -13 10l-52 148h-275l-52 -148q-4 -10 -13 -10h-70q-10 0 -7 10zM412 240l-107 309h-2l-108 -309h217zM374 777q-10 0 -10 10v72q0 10 10 10h56q10 0 10 -10v-72q0 -10 -10 -10h-56zM174 777
q-10 0 -10 10v72q0 10 10 10h56q10 0 10 -10v-72q0 -10 -10 -10h-56z" />
    <glyph glyph-name="Aring" unicode="&#xc5;" horiz-adv-x="607" 
d="M260 670q3 10 12 10h65q10 0 13 -10l233 -660q3 -10 -7 -10h-70q-10 0 -13 10l-52 148h-275l-52 -148q-4 -10 -13 -10h-70q-10 0 -7 10zM412 240l-107 309h-2l-108 -309h217zM303 729q-40 0 -67.5 26.5t-27.5 67.5t27.5 67.5t67.5 26.5t67.5 -26.5t27.5 -67.5
t-27.5 -67.5t-67.5 -26.5zM303 770q22 0 36.5 15t14.5 38t-14.5 38t-36.5 15t-36.5 -15t-14.5 -38t14.5 -38t36.5 -15z" />
    <glyph glyph-name="AE" unicode="&#xc6;" horiz-adv-x="933" 
d="M464 0q-10 0 -10 10v142q0 6 -6 6h-241l-82 -148q-6 -10 -14 -10h-80q-11 0 -6 10l369 661q4 9 14 9h464q10 0 10 -10v-63q0 -10 -10 -10h-323q-6 0 -6 -6v-200q0 -6 6 -6h275q10 0 10 -10v-63q0 -10 -10 -10h-275q-6 0 -6 -6v-207q0 -6 6 -6h323q10 0 10 -10v-63
q0 -10 -10 -10h-408zM253 240h195q6 0 6 6v350h-2z" />
    <glyph glyph-name="Ccedilla" unicode="&#xc7;" horiz-adv-x="566" 
d="M220 -152q-10 0 -7 10l53 133q-69 10 -117 47.5t-71 110.5q-5 15 -8.5 30.5t-5.5 37t-3 51.5t-1 72t1 72t3 51.5t5.5 37t8.5 30.5q26 81 84 120.5t142 39.5q76 0 132.5 -35.5t85.5 -101.5q3 -9 -4 -13l-60 -29q-10 -5 -14 5q-20 40 -53 65.5t-87 25.5q-56 0 -90 -26
t-51 -74q-3 -11 -5.5 -23.5t-4 -31t-2.5 -46t-1 -67.5t1 -67.5t2.5 -46t4 -31.5t5.5 -23q17 -48 51 -74t90 -26q54 0 87 25.5t53 65.5q4 10 14 5l60 -29q7 -4 4 -13q-26 -57 -74 -92.5t-114 -43.5l-43 -132q-3 -10 -16 -10h-55z" />
    <glyph glyph-name="Egrave" unicode="&#xc8;" horiz-adv-x="563" 
d="M292 762q-6 0 -9.5 1.5t-8.5 7.5l-107 107q-4 4 -2.5 7t6.5 3h70q11 0 19 -10l85 -106q4 -4 2.5 -7t-6.5 -3h-49zM84 670q0 10 10 10h409q10 0 10 -10v-63q0 -10 -10 -10h-324q-6 0 -6 -6v-200q0 -6 6 -6h275q10 0 10 -10v-63q0 -10 -10 -10h-275q-6 0 -6 -6v-207
q0 -6 6 -6h324q10 0 10 -10v-63q0 -10 -10 -10h-409q-10 0 -10 10v660z" />
    <glyph glyph-name="Eacute" unicode="&#xc9;" horiz-adv-x="563" 
d="M245 762q-5 0 -6 3t2 7l86 106q4 5 7.5 7.5t10.5 2.5h70q5 0 6.5 -3t-1.5 -7l-107 -107q-5 -6 -9 -7.5t-9 -1.5h-50zM84 670q0 10 10 10h409q10 0 10 -10v-63q0 -10 -10 -10h-324q-6 0 -6 -6v-200q0 -6 6 -6h275q10 0 10 -10v-63q0 -10 -10 -10h-275q-6 0 -6 -6v-207
q0 -6 6 -6h324q10 0 10 -10v-63q0 -10 -10 -10h-409q-10 0 -10 10v660z" />
    <glyph glyph-name="Ecircumflex" unicode="&#xca;" horiz-adv-x="563" 
d="M84 670q0 10 10 10h409q10 0 10 -10v-63q0 -10 -10 -10h-324q-6 0 -6 -6v-200q0 -6 6 -6h275q10 0 10 -10v-63q0 -10 -10 -10h-275q-6 0 -6 -6v-207q0 -6 6 -6h324q10 0 10 -10v-63q0 -10 -10 -10h-409q-10 0 -10 10v660zM382 754q-10 0 -19 10l-63 70h-2l-64 -70
q-5 -6 -8.5 -8t-10.5 -2h-45q-5 0 -6 3t2 7l95 123q7 10 16 10h43q9 0 16 -10l95 -123q3 -4 2 -7t-6 -3h-45z" />
    <glyph glyph-name="Edieresis" unicode="&#xcb;" horiz-adv-x="563" 
d="M367 777q-10 0 -10 10v72q0 10 10 10h56q10 0 10 -10v-72q0 -10 -10 -10h-56zM167 777q-10 0 -10 10v72q0 10 10 10h56q10 0 10 -10v-72q0 -10 -10 -10h-56zM84 670q0 10 10 10h409q10 0 10 -10v-63q0 -10 -10 -10h-324q-6 0 -6 -6v-200q0 -6 6 -6h275q10 0 10 -10v-63
q0 -10 -10 -10h-275q-6 0 -6 -6v-207q0 -6 6 -6h324q10 0 10 -10v-63q0 -10 -10 -10h-409q-10 0 -10 10v660z" />
    <glyph glyph-name="Igrave" unicode="&#xcc;" horiz-adv-x="257" 
d="M84 670q0 10 10 10h69q10 0 10 -10v-660q0 -10 -10 -10h-69q-10 0 -10 10v660zM106 762q-6 0 -9.5 1.5t-8.5 7.5l-107 107q-4 4 -2.5 7t6.5 3h70q11 0 19 -10l85 -106q4 -4 2.5 -7t-6.5 -3h-49z" />
    <glyph glyph-name="Iacute" unicode="&#xcd;" horiz-adv-x="257" 
d="M84 670q0 10 10 10h69q10 0 10 -10v-660q0 -10 -10 -10h-69q-10 0 -10 10v660zM106 762q-5 0 -6 3t2 7l86 106q4 5 7.5 7.5t10.5 2.5h70q5 0 6.5 -3t-1.5 -7l-107 -107q-5 -6 -9 -7.5t-9 -1.5h-50z" />
    <glyph glyph-name="Icircumflex" unicode="&#xce;" horiz-adv-x="257" 
d="M84 670q0 10 10 10h69q10 0 10 -10v-660q0 -10 -10 -10h-69q-10 0 -10 10v660zM213 754q-10 0 -19 10l-63 70h-2l-64 -70q-5 -6 -8.5 -8t-10.5 -2h-45q-5 0 -6 3t2 7l95 123q7 10 16 10h43q9 0 16 -10l95 -123q3 -4 2 -7t-6 -3h-45z" />
    <glyph glyph-name="Idieresis" unicode="&#xcf;" horiz-adv-x="257" 
d="M84 670q0 10 10 10h69q10 0 10 -10v-660q0 -10 -10 -10h-69q-10 0 -10 10v660zM201 777q-10 0 -10 10v72q0 10 10 10h56q10 0 10 -10v-72q0 -10 -10 -10h-56zM1 777q-10 0 -10 10v72q0 10 10 10h56q10 0 10 -10v-72q0 -10 -10 -10h-56z" />
    <glyph glyph-name="Eth" unicode="&#xd0;" horiz-adv-x="622" 
d="M94 0q-10 0 -10 10v292q0 6 -6 6h-32q-10 0 -10 10v52q0 10 10 10h32q6 0 6 6v284q0 10 10 10h229q175 0 222 -145q4 -14 7.5 -29t6 -37t3.5 -53t1 -76t-1 -76t-3.5 -53t-6 -37t-7.5 -29q-47 -145 -222 -145h-229zM304 83q62 0 100 21.5t55 71.5q3 9 6 21t4.5 30.5
t2.5 45.5t1 67t-1 67t-2.5 45.5t-4.5 30.5t-6 21q-17 50 -55 71.5t-100 21.5h-125q-6 0 -6 -6v-205q0 -6 6 -6h113q10 0 10 -10v-52q0 -10 -10 -10h-113q-6 0 -6 -6v-213q0 -6 6 -6h125z" />
    <glyph glyph-name="Ntilde" unicode="&#xd1;" horiz-adv-x="654" 
d="M382 767q-18 0 -32.5 6t-30.5 15q-14 8 -26 13t-27 5q-20 0 -34.5 -9.5t-28.5 -22.5q-3 -3 -5.5 -2t-2.5 4v48q0 6 1 9.5t6 8.5q14 14 31 23t37 9q19 0 33.5 -6t29.5 -14q14 -8 26 -13t27 -5q20 0 34.5 9t28.5 23q3 3 5.5 2t2.5 -5v-48q0 -5 -1 -8.5t-6 -8.5
q-14 -14 -31 -23.5t-37 -9.5zM84 670q0 10 10 10h64q12 0 17 -10l308 -510h4v510q0 10 10 10h63q10 0 10 -10v-660q0 -10 -10 -10h-64q-12 0 -17 10l-309 508h-3v-508q0 -10 -10 -10h-63q-10 0 -10 10v660z" />
    <glyph glyph-name="Ograve" unicode="&#xd2;" horiz-adv-x="619" 
d="M302 762q-6 0 -9.5 1.5t-8.5 7.5l-107 107q-4 4 -2.5 7t6.5 3h70q11 0 19 -10l85 -106q4 -4 2.5 -7t-6.5 -3h-49zM309 -11q-86 0 -145.5 40t-85.5 119q-5 15 -8.5 31t-5.5 37.5t-3 51.5t-1 72t1 72t3 51.5t5.5 37.5t8.5 31q26 79 85.5 119t145.5 40q87 0 146.5 -40
t85.5 -119q5 -15 8.5 -31t5.5 -37.5t3 -51.5t1 -72t-1 -72t-3 -51.5t-5.5 -37.5t-8.5 -31q-26 -79 -85.5 -119t-146.5 -40zM309 72q57 0 93 26t52 75q3 9 5.5 22.5t5 33.5t3.5 47t1 64t-1 64t-3.5 47t-5 33.5t-5.5 22.5q-16 49 -52 75t-93 26t-92.5 -26t-51.5 -75
q-3 -9 -5.5 -22.5t-5 -33.5t-3.5 -47t-1 -64t1 -64t3.5 -47t5 -33.5t5.5 -22.5q16 -49 51.5 -75t92.5 -26z" />
    <glyph glyph-name="Oacute" unicode="&#xd3;" horiz-adv-x="619" 
d="M267 762q-5 0 -6 3t2 7l86 106q4 5 7.5 7.5t10.5 2.5h70q5 0 6.5 -3t-1.5 -7l-107 -107q-5 -6 -9 -7.5t-9 -1.5h-50zM309 -11q-86 0 -145.5 40t-85.5 119q-5 15 -8.5 31t-5.5 37.5t-3 51.5t-1 72t1 72t3 51.5t5.5 37.5t8.5 31q26 79 85.5 119t145.5 40q87 0 146.5 -40
t85.5 -119q5 -15 8.5 -31t5.5 -37.5t3 -51.5t1 -72t-1 -72t-3 -51.5t-5.5 -37.5t-8.5 -31q-26 -79 -85.5 -119t-146.5 -40zM309 72q57 0 93 26t52 75q3 9 5.5 22.5t5 33.5t3.5 47t1 64t-1 64t-3.5 47t-5 33.5t-5.5 22.5q-16 49 -52 75t-93 26t-92.5 -26t-51.5 -75
q-3 -9 -5.5 -22.5t-5 -33.5t-3.5 -47t-1 -64t1 -64t3.5 -47t5 -33.5t5.5 -22.5q16 -49 51.5 -75t92.5 -26z" />
    <glyph glyph-name="Ocircumflex" unicode="&#xd4;" horiz-adv-x="619" 
d="M309 -11q-86 0 -145.5 40t-85.5 119q-5 15 -8.5 31t-5.5 37.5t-3 51.5t-1 72t1 72t3 51.5t5.5 37.5t8.5 31q26 79 85.5 119t145.5 40q87 0 146.5 -40t85.5 -119q5 -15 8.5 -31t5.5 -37.5t3 -51.5t1 -72t-1 -72t-3 -51.5t-5.5 -37.5t-8.5 -31q-26 -79 -85.5 -119
t-146.5 -40zM309 72q57 0 93 26t52 75q3 9 5.5 22.5t5 33.5t3.5 47t1 64t-1 64t-3.5 47t-5 33.5t-5.5 22.5q-16 49 -52 75t-93 26t-92.5 -26t-51.5 -75q-3 -9 -5.5 -22.5t-5 -33.5t-3.5 -47t-1 -64t1 -64t3.5 -47t5 -33.5t5.5 -22.5q16 -49 51.5 -75t92.5 -26zM392 754
q-10 0 -19 10l-63 70h-2l-64 -70q-5 -6 -8.5 -8t-10.5 -2h-45q-5 0 -6 3t2 7l95 123q7 10 16 10h43q9 0 16 -10l95 -123q3 -4 2 -7t-6 -3h-45z" />
    <glyph glyph-name="Otilde" unicode="&#xd5;" horiz-adv-x="619" 
d="M364 767q-18 0 -32.5 6t-30.5 15q-14 8 -26 13t-27 5q-20 0 -34.5 -9.5t-28.5 -22.5q-3 -3 -5.5 -2t-2.5 4v48q0 6 1 9.5t6 8.5q14 14 31 23t37 9q19 0 33.5 -6t29.5 -14q14 -8 26 -13t27 -5q20 0 34.5 9t28.5 23q3 3 5.5 2t2.5 -5v-48q0 -5 -1 -8.5t-6 -8.5
q-14 -14 -31 -23.5t-37 -9.5zM309 -11q-86 0 -145.5 40t-85.5 119q-5 15 -8.5 31t-5.5 37.5t-3 51.5t-1 72t1 72t3 51.5t5.5 37.5t8.5 31q26 79 85.5 119t145.5 40q87 0 146.5 -40t85.5 -119q5 -15 8.5 -31t5.5 -37.5t3 -51.5t1 -72t-1 -72t-3 -51.5t-5.5 -37.5t-8.5 -31
q-26 -79 -85.5 -119t-146.5 -40zM309 72q57 0 93 26t52 75q3 9 5.5 22.5t5 33.5t3.5 47t1 64t-1 64t-3.5 47t-5 33.5t-5.5 22.5q-16 49 -52 75t-93 26t-92.5 -26t-51.5 -75q-3 -9 -5.5 -22.5t-5 -33.5t-3.5 -47t-1 -64t1 -64t3.5 -47t5 -33.5t5.5 -22.5q16 -49 51.5 -75
t92.5 -26z" />
    <glyph glyph-name="Odieresis" unicode="&#xd6;" horiz-adv-x="619" 
d="M381 777q-10 0 -10 10v72q0 10 10 10h56q10 0 10 -10v-72q0 -10 -10 -10h-56zM181 777q-10 0 -10 10v72q0 10 10 10h56q10 0 10 -10v-72q0 -10 -10 -10h-56zM309 -11q-86 0 -145.5 40t-85.5 119q-5 15 -8.5 31t-5.5 37.5t-3 51.5t-1 72t1 72t3 51.5t5.5 37.5t8.5 31
q26 79 85.5 119t145.5 40q87 0 146.5 -40t85.5 -119q5 -15 8.5 -31t5.5 -37.5t3 -51.5t1 -72t-1 -72t-3 -51.5t-5.5 -37.5t-8.5 -31q-26 -79 -85.5 -119t-146.5 -40zM309 72q57 0 93 26t52 75q3 9 5.5 22.5t5 33.5t3.5 47t1 64t-1 64t-3.5 47t-5 33.5t-5.5 22.5
q-16 49 -52 75t-93 26t-92.5 -26t-51.5 -75q-3 -9 -5.5 -22.5t-5 -33.5t-3.5 -47t-1 -64t1 -64t3.5 -47t5 -33.5t5.5 -22.5q16 -49 51.5 -75t92.5 -26z" />
    <glyph glyph-name="multiply" unicode="&#xd7;" 
d="M412 97q-7 -7 -14 0l-123 121q-4 4 -8 0l-122 -121q-7 -7 -14 0l-38 39q-7 7 0 14l122 122q4 4 0 8l-122 122q-7 7 0 14l38 39q7 7 14 0l122 -121q4 -5 9 0l122 121q7 7 14 0l37 -39q7 -7 0 -14l-122 -121q-5 -5 0 -9l122 -122q7 -7 0 -14z" />
    <glyph glyph-name="Oslash" unicode="&#xd8;" horiz-adv-x="619" 
d="M71 -30q-5 0 -6.5 3t0.5 7l53 91q-24 30 -40 77q-5 15 -8.5 31t-5.5 37.5t-3 51.5t-1 72t1 72t3 51.5t5.5 37.5t8.5 31q26 79 85.5 119t145.5 40q89 0 149 -42l30 52q5 9 15 9h45q5 0 6 -3t-1 -7l-53 -91q13 -17 23 -35.5t18 -41.5q5 -15 8.5 -31t5.5 -37.5t3 -51.5
t1 -72t-1 -72t-3 -51.5t-5.5 -37.5t-8.5 -31q-26 -79 -85.5 -119t-146.5 -40q-90 0 -148 42l-30 -52q-5 -9 -15 -9h-45zM150 340q0 -35 0.5 -62t2.5 -48.5t6 -39t11 -33.5l242 417q-40 34 -103 34q-57 0 -92.5 -26t-51.5 -75q-3 -9 -5.5 -22.5t-5 -33.5t-3.5 -47t-1 -64z
M309 72q57 0 93 26t52 75q3 9 5.5 22.5t5 33.5t3.5 47t1 64q0 40 -1 68t-3 48t-6.5 35.5t-10.5 30.5l-242 -416q40 -34 103 -34z" />
    <glyph glyph-name="Ugrave" unicode="&#xd9;" horiz-adv-x="639" 
d="M310 762q-6 0 -9.5 1.5t-8.5 7.5l-107 107q-4 4 -2.5 7t6.5 3h70q11 0 19 -10l85 -106q4 -4 2.5 -7t-6.5 -3h-49zM320 -11q-113 0 -177 63.5t-64 184.5v433q0 10 10 10h69q10 0 10 -10v-432q0 -83 41.5 -124.5t110.5 -41.5q68 0 109.5 41.5t41.5 124.5v432q0 10 10 10h69
q10 0 10 -10v-433q0 -121 -64 -184.5t-176 -63.5z" />
    <glyph glyph-name="Uacute" unicode="&#xda;" horiz-adv-x="639" 
d="M279 762q-5 0 -6 3t2 7l86 106q4 5 7.5 7.5t10.5 2.5h70q5 0 6.5 -3t-1.5 -7l-107 -107q-5 -6 -9 -7.5t-9 -1.5h-50zM320 -11q-113 0 -177 63.5t-64 184.5v433q0 10 10 10h69q10 0 10 -10v-432q0 -83 41.5 -124.5t110.5 -41.5q68 0 109.5 41.5t41.5 124.5v432q0 10 10 10
h69q10 0 10 -10v-433q0 -121 -64 -184.5t-176 -63.5z" />
    <glyph glyph-name="Ucircumflex" unicode="&#xdb;" horiz-adv-x="639" 
d="M320 -11q-113 0 -177 63.5t-64 184.5v433q0 10 10 10h69q10 0 10 -10v-432q0 -83 41.5 -124.5t110.5 -41.5q68 0 109.5 41.5t41.5 124.5v432q0 10 10 10h69q10 0 10 -10v-433q0 -121 -64 -184.5t-176 -63.5zM402 754q-10 0 -19 10l-63 70h-2l-64 -70q-5 -6 -8.5 -8
t-10.5 -2h-45q-5 0 -6 3t2 7l95 123q7 10 16 10h43q9 0 16 -10l95 -123q3 -4 2 -7t-6 -3h-45z" />
    <glyph glyph-name="Udieresis" unicode="&#xdc;" horiz-adv-x="639" 
d="M391 777q-10 0 -10 10v72q0 10 10 10h56q10 0 10 -10v-72q0 -10 -10 -10h-56zM191 777q-10 0 -10 10v72q0 10 10 10h56q10 0 10 -10v-72q0 -10 -10 -10h-56zM320 -11q-113 0 -177 63.5t-64 184.5v433q0 10 10 10h69q10 0 10 -10v-432q0 -83 41.5 -124.5t110.5 -41.5
q68 0 109.5 41.5t41.5 124.5v432q0 10 10 10h69q10 0 10 -10v-433q0 -121 -64 -184.5t-176 -63.5z" />
    <glyph glyph-name="Yacute" unicode="&#xdd;" horiz-adv-x="526" 
d="M229 0q-10 0 -10 10v268l-201 391q-4 11 8 11h71q9 0 15 -10l152 -291h2l151 291q4 10 14 10h69q12 0 8 -11l-201 -391v-268q0 -10 -10 -10h-68zM230 762q-5 0 -6 3t2 7l86 106q4 5 7.5 7.5t10.5 2.5h70q5 0 6.5 -3t-1.5 -7l-107 -107q-5 -6 -9 -7.5t-9 -1.5h-50z" />
    <glyph glyph-name="Thorn" unicode="&#xde;" horiz-adv-x="592" 
d="M94 0q-10 0 -10 10v660q0 10 10 10h69q10 0 10 -10v-110q0 -6 6 -6h157q49 0 89 -14.5t68 -41t43.5 -64t15.5 -83.5t-15.5 -83.5t-43.5 -64t-68 -41t-89 -14.5h-157q-6 0 -6 -6v-132q0 -10 -10 -10h-69zM331 231q63 0 98 32t35 88t-35 88t-98 32h-152q-6 0 -6 -6v-228
q0 -6 6 -6h152z" />
    <glyph glyph-name="germandbls" unicode="&#xdf;" horiz-adv-x="539" 
d="M283 -4q-10 0 -10 10v58q0 10 10 10h20q36 0 57.5 11t31.5 40q1 5 2.5 11.5t2 17t1 27t0.5 42.5q0 25 -0.5 41.5t-1 28t-2 19t-3.5 13.5q-10 29 -34 42t-63 13h-11q-10 0 -10 10v58q0 10 10 10h20q45 0 66 18t21 59q0 38 -27.5 58.5t-79.5 20.5q-63 0 -90 -28t-27 -91
v-485q0 -10 -10 -10h-64q-10 0 -10 10v482q0 47 11 84t35 62.5t61.5 39t91.5 13.5q95 0 144 -40.5t49 -115.5q0 -78 -63 -112v-2q21 -10 36.5 -26t24.5 -42q3 -10 5 -20.5t3.5 -25t2 -35t0.5 -49.5q0 -30 -1 -51.5t-2.5 -36.5t-3.5 -25.5t-5 -19.5q-17 -51 -58 -72.5
t-108 -21.5h-22z" />
    <glyph glyph-name="agrave" unicode="&#xe0;" horiz-adv-x="519" 
d="M372 0q-10 0 -10 10v42h-1q-17 -27 -52 -45t-90 -18q-34 0 -63.5 9t-51 27t-34 45t-12.5 63q0 76 49.5 112t137.5 36h109q6 0 6 6v35q0 50 -24 72t-91 22q-41 0 -68 -9.5t-48 -24.5q-9 -7 -14 1l-27 46q-4 8 2 14q27 21 68 34t95 13q102 0 145 -37.5t43 -125.5v-317
q0 -10 -10 -10h-59zM239 61q57 0 89 24.5t32 69.5v53q0 6 -6 6h-96q-63 0 -91 -18.5t-28 -59.5q0 -37 26 -56t74 -19zM269 557q-12 0 -19 10l-92 123q-3 4 -1.5 7t6.5 3h66q12 0 18 -10l75 -123q5 -10 -6 -10h-47z" />
    <glyph glyph-name="aacute" unicode="&#xe1;" horiz-adv-x="519" 
d="M372 0q-10 0 -10 10v42h-1q-17 -27 -52 -45t-90 -18q-34 0 -63.5 9t-51 27t-34 45t-12.5 63q0 76 49.5 112t137.5 36h109q6 0 6 6v35q0 50 -24 72t-91 22q-41 0 -68 -9.5t-48 -24.5q-9 -7 -14 1l-27 46q-4 8 2 14q27 21 68 34t95 13q102 0 145 -37.5t43 -125.5v-317
q0 -10 -10 -10h-59zM239 61q57 0 89 24.5t32 69.5v53q0 6 -6 6h-96q-63 0 -91 -18.5t-28 -59.5q0 -37 26 -56t74 -19zM225 557q-11 0 -6 10l76 123q6 10 17 10h66q5 0 6.5 -3t-1.5 -7l-92 -123q-8 -10 -19 -10h-47z" />
    <glyph glyph-name="acircumflex" unicode="&#xe2;" horiz-adv-x="519" 
d="M372 0q-10 0 -10 10v42h-1q-17 -27 -52 -45t-90 -18q-34 0 -63.5 9t-51 27t-34 45t-12.5 63q0 76 49.5 112t137.5 36h109q6 0 6 6v35q0 50 -24 72t-91 22q-41 0 -68 -9.5t-48 -24.5q-9 -7 -14 1l-27 46q-4 8 2 14q27 21 68 34t95 13q102 0 145 -37.5t43 -125.5v-317
q0 -10 -10 -10h-59zM239 61q57 0 89 24.5t32 69.5v53q0 6 -6 6h-96q-63 0 -91 -18.5t-28 -59.5q0 -37 26 -56t74 -19zM342 557q-10 0 -19 10l-63 70h-2l-64 -70q-5 -6 -8.5 -8t-10.5 -2h-45q-5 0 -6 3t2 7l95 123q7 10 16 10h43q9 0 16 -10l95 -123q3 -4 2 -7t-6 -3h-45z
" />
    <glyph glyph-name="atilde" unicode="&#xe3;" horiz-adv-x="519" 
d="M372 0q-10 0 -10 10v42h-1q-17 -27 -52 -45t-90 -18q-34 0 -63.5 9t-51 27t-34 45t-12.5 63q0 76 49.5 112t137.5 36h109q6 0 6 6v35q0 50 -24 72t-91 22q-41 0 -68 -9.5t-48 -24.5q-9 -7 -14 1l-27 46q-4 8 2 14q27 21 68 34t95 13q102 0 145 -37.5t43 -125.5v-317
q0 -10 -10 -10h-59zM239 61q57 0 89 24.5t32 69.5v53q0 6 -6 6h-96q-63 0 -91 -18.5t-28 -59.5q0 -37 26 -56t74 -19zM314 576q-18 0 -32.5 6t-30.5 15q-14 8 -26 13t-27 5q-20 0 -34.5 -9.5t-28.5 -22.5q-3 -3 -5.5 -2t-2.5 4v48q0 5 1 9t6 9q14 14 31 23t37 9
q19 0 33.5 -6t29.5 -15q14 -8 26 -13t27 -5q20 0 34.5 9.5t28.5 22.5q3 3 5.5 2t2.5 -4v-48q0 -5 -1 -9t-6 -9q-14 -14 -31 -23t-37 -9z" />
    <glyph glyph-name="adieresis" unicode="&#xe4;" horiz-adv-x="519" 
d="M372 0q-10 0 -10 10v42h-1q-17 -27 -52 -45t-90 -18q-34 0 -63.5 9t-51 27t-34 45t-12.5 63q0 76 49.5 112t137.5 36h109q6 0 6 6v35q0 50 -24 72t-91 22q-41 0 -68 -9.5t-48 -24.5q-9 -7 -14 1l-27 46q-4 8 2 14q27 21 68 34t95 13q102 0 145 -37.5t43 -125.5v-317
q0 -10 -10 -10h-59zM239 61q57 0 89 24.5t32 69.5v53q0 6 -6 6h-96q-63 0 -91 -18.5t-28 -59.5q0 -37 26 -56t74 -19zM327 587q-10 0 -10 10v73q0 10 10 10h59q10 0 10 -10v-73q0 -10 -10 -10h-59zM130 587q-10 0 -10 10v73q0 10 10 10h59q10 0 10 -10v-73q0 -10 -10 -10
h-59z" />
    <glyph glyph-name="aring" unicode="&#xe5;" horiz-adv-x="519" 
d="M372 0q-10 0 -10 10v42h-1q-17 -27 -52 -45t-90 -18q-34 0 -63.5 9t-51 27t-34 45t-12.5 63q0 76 49.5 112t137.5 36h109q6 0 6 6v35q0 50 -24 72t-91 22q-41 0 -68 -9.5t-48 -24.5q-9 -7 -14 1l-27 46q-4 8 2 14q27 21 68 34t95 13q102 0 145 -37.5t43 -125.5v-317
q0 -10 -10 -10h-59zM239 61q57 0 89 24.5t32 69.5v53q0 6 -6 6h-96q-63 0 -91 -18.5t-28 -59.5q0 -37 26 -56t74 -19zM263 535q-40 0 -67.5 26.5t-27.5 67.5t27.5 67.5t67.5 26.5t67.5 -26.5t27.5 -67.5t-27.5 -67.5t-67.5 -26.5zM263 576q22 0 36.5 15t14.5 38t-14.5 38
t-36.5 15t-36.5 -15t-14.5 -38t14.5 -38t36.5 -15z" />
    <glyph glyph-name="ae" unicode="&#xe6;" horiz-adv-x="814" 
d="M563 -11q-61 0 -102 23.5t-64 60.5h-1q-21 -42 -66 -63t-111 -21q-34 0 -63.5 9t-51 27t-34 45t-12.5 63q0 76 49.5 112t137.5 36h109q6 0 6 6v35q0 50 -24 72t-91 22q-41 0 -68 -9.5t-48 -24.5q-9 -7 -14 1l-27 46q-4 8 2 14q27 21 68 34t95 13q60 0 101 -15t58 -49h2
q23 32 60.5 48t83.5 16q70 0 119 -33.5t69 -95.5q4 -12 6.5 -24.5t4.5 -28.5t3 -36.5t1 -47.5q0 -10 -11 -10h-303q-6 0 -6 -6q0 -20 2 -33t6 -25q14 -42 45 -62.5t76 -20.5q43 0 73 15t50 38q8 8 15 2l41 -37q7 -6 1 -14q-29 -36 -76.5 -59t-110.5 -23zM669 281q6 0 6 6
q0 33 -7 54q-12 36 -40.5 55.5t-69.5 19.5t-69.5 -19.5t-40.5 -55.5q-7 -21 -7 -54q0 -6 6 -6h222zM239 61q57 0 89 24.5t32 69.5v53q0 6 -6 6h-96q-63 0 -91 -18.5t-28 -59.5q0 -37 26 -56t74 -19z" />
    <glyph glyph-name="ccedilla" unicode="&#xe7;" horiz-adv-x="472" 
d="M173 -152q-10 0 -7 10l53 134q-54 8 -94 40t-57 86q-7 22 -11 51.5t-4 70.5q0 40 4 69.5t11 51.5q20 63 70 96t119 33q55 0 96.5 -21.5t67.5 -59.5q5 -8 -3 -14l-44 -36q-8 -6 -14 1q-21 26 -44 39t-59 13q-39 0 -67 -18.5t-40 -56.5q-6 -19 -8.5 -42t-2.5 -55t2.5 -55.5
t8.5 -42.5q12 -38 40 -56.5t67 -18.5q36 0 59 13t44 39q6 7 14 1l44 -36q8 -6 3 -14q-23 -32 -56 -52.5t-78 -26.5l-43 -133q-3 -10 -16 -10h-55z" />
    <glyph glyph-name="egrave" unicode="&#xe8;" horiz-adv-x="512" 
d="M261 -11q-73 0 -122.5 33.5t-69.5 96.5q-8 23 -12 51t-4 70t3.5 70.5t11.5 50.5q20 63 69.5 96t118.5 33t118.5 -33.5t69.5 -95.5q4 -12 6.5 -24.5t4.5 -28.5t3 -36.5t1 -47.5q0 -10 -11 -10h-303q-6 0 -6 -6q0 -20 2 -33t6 -25q14 -42 45 -62.5t76 -20.5q43 0 73 15
t50 38q8 8 15 2l41 -37q7 -6 1 -14q-29 -36 -76.5 -59t-110.5 -23zM367 281q6 0 6 6q0 33 -7 54q-12 36 -40.5 55.5t-69.5 19.5t-69.5 -19.5t-40.5 -55.5q-7 -21 -7 -54q0 -6 6 -6h222zM250 557q-12 0 -19 10l-92 123q-3 4 -1.5 7t6.5 3h66q12 0 18 -10l75 -123
q5 -10 -6 -10h-47z" />
    <glyph glyph-name="eacute" unicode="&#xe9;" horiz-adv-x="512" 
d="M218 557q-11 0 -6 10l76 123q6 10 17 10h66q5 0 6.5 -3t-1.5 -7l-92 -123q-8 -10 -19 -10h-47zM261 -11q-73 0 -122.5 33.5t-69.5 96.5q-8 23 -12 51t-4 70t3.5 70.5t11.5 50.5q20 63 69.5 96t118.5 33t118.5 -33.5t69.5 -95.5q4 -12 6.5 -24.5t4.5 -28.5t3 -36.5
t1 -47.5q0 -10 -11 -10h-303q-6 0 -6 -6q0 -20 2 -33t6 -25q14 -42 45 -62.5t76 -20.5q43 0 73 15t50 38q8 8 15 2l41 -37q7 -6 1 -14q-29 -36 -76.5 -59t-110.5 -23zM367 281q6 0 6 6q0 33 -7 54q-12 36 -40.5 55.5t-69.5 19.5t-69.5 -19.5t-40.5 -55.5q-7 -21 -7 -54
q0 -6 6 -6h222z" />
    <glyph glyph-name="ecircumflex" unicode="&#xea;" horiz-adv-x="512" 
d="M339 557q-10 0 -19 10l-63 70h-2l-64 -70q-5 -6 -8.5 -8t-10.5 -2h-45q-5 0 -6 3t2 7l95 123q7 10 16 10h43q9 0 16 -10l95 -123q3 -4 2 -7t-6 -3h-45zM261 -11q-73 0 -122.5 33.5t-69.5 96.5q-8 23 -12 51t-4 70t3.5 70.5t11.5 50.5q20 63 69.5 96t118.5 33t118.5 -33.5
t69.5 -95.5q4 -12 6.5 -24.5t4.5 -28.5t3 -36.5t1 -47.5q0 -10 -11 -10h-303q-6 0 -6 -6q0 -20 2 -33t6 -25q14 -42 45 -62.5t76 -20.5q43 0 73 15t50 38q8 8 15 2l41 -37q7 -6 1 -14q-29 -36 -76.5 -59t-110.5 -23zM367 281q6 0 6 6q0 33 -7 54q-12 36 -40.5 55.5
t-69.5 19.5t-69.5 -19.5t-40.5 -55.5q-7 -21 -7 -54q0 -6 6 -6h222z" />
    <glyph glyph-name="edieresis" unicode="&#xeb;" horiz-adv-x="512" 
d="M324 587q-10 0 -10 10v73q0 10 10 10h59q10 0 10 -10v-73q0 -10 -10 -10h-59zM127 587q-10 0 -10 10v73q0 10 10 10h59q10 0 10 -10v-73q0 -10 -10 -10h-59zM261 -11q-73 0 -122.5 33.5t-69.5 96.5q-8 23 -12 51t-4 70t3.5 70.5t11.5 50.5q20 63 69.5 96t118.5 33
t118.5 -33.5t69.5 -95.5q4 -12 6.5 -24.5t4.5 -28.5t3 -36.5t1 -47.5q0 -10 -11 -10h-303q-6 0 -6 -6q0 -20 2 -33t6 -25q14 -42 45 -62.5t76 -20.5q43 0 73 15t50 38q8 8 15 2l41 -37q7 -6 1 -14q-29 -36 -76.5 -59t-110.5 -23zM367 281q6 0 6 6q0 33 -7 54
q-12 36 -40.5 55.5t-69.5 19.5t-69.5 -19.5t-40.5 -55.5q-7 -21 -7 -54q0 -6 6 -6h222z" />
    <glyph glyph-name="igrave" unicode="&#xec;" horiz-adv-x="248" 
d="M92 0q-10 0 -10 10v459q0 10 10 10h64q10 0 10 -10v-459q0 -10 -10 -10h-64zM104 557q-12 0 -19 10l-92 123q-3 4 -1.5 7t6.5 3h66q12 0 18 -10l75 -123q5 -10 -6 -10h-47z" />
    <glyph glyph-name="iacute" unicode="&#xed;" horiz-adv-x="248" 
d="M100 557q-11 0 -6 10l76 123q6 10 17 10h66q5 0 6.5 -3t-1.5 -7l-92 -123q-8 -10 -19 -10h-47zM92 0q-10 0 -10 10v459q0 10 10 10h64q10 0 10 -10v-459q0 -10 -10 -10h-64z" />
    <glyph glyph-name="icircumflex" unicode="&#xee;" horiz-adv-x="248" 
d="M208 557q-10 0 -19 10l-63 70h-2l-64 -70q-5 -6 -8.5 -8t-10.5 -2h-45q-5 0 -6 3t2 7l95 123q7 10 16 10h43q9 0 16 -10l95 -123q3 -4 2 -7t-6 -3h-45zM92 0q-10 0 -10 10v459q0 10 10 10h64q10 0 10 -10v-459q0 -10 -10 -10h-64z" />
    <glyph glyph-name="idieresis" unicode="&#xef;" horiz-adv-x="248" 
d="M193 587q-10 0 -10 10v73q0 10 10 10h59q10 0 10 -10v-73q0 -10 -10 -10h-59zM-4 587q-10 0 -10 10v73q0 10 10 10h59q10 0 10 -10v-73q0 -10 -10 -10h-59zM92 0q-10 0 -10 10v459q0 10 10 10h64q10 0 10 -10v-459q0 -10 -10 -10h-64z" />
    <glyph glyph-name="eth" unicode="&#xf0;" horiz-adv-x="516" 
d="M258 -11q-70 0 -119.5 33.5t-69.5 95.5q-7 22 -11.5 49.5t-4.5 61.5q0 33 4 62t11 51q20 59 63.5 91.5t103.5 32.5q23 0 41.5 -5.5t36.5 -17.5h1l-76 100l-94 -29q-10 -3 -13 7l-12 42q-3 10 7 13l71 21l-55 73q-3 4 -1.5 7t6.5 3h72q11 0 18 -10l38 -49l93 28
q10 3 13 -6l12 -43q3 -9 -7 -12l-70 -22l29 -38q61 -80 89.5 -148.5t28.5 -137.5q0 -45 -4.5 -73.5t-11.5 -50.5q-20 -62 -69.5 -95.5t-119.5 -33.5zM258 67q82 0 108 75q6 18 8.5 39t2.5 48t-2.5 48t-8.5 39q-13 37 -38 56t-70 19q-82 0 -108 -75q-6 -18 -8.5 -39t-2.5 -48
t2.5 -48t8.5 -39q26 -75 108 -75z" />
    <glyph glyph-name="ntilde" unicode="&#xf1;" horiz-adv-x="544" 
d="M393 0q-10 0 -10 10v280q0 58 -26.5 90t-80.5 32q-49 0 -79.5 -31.5t-30.5 -85.5v-285q0 -10 -10 -10h-64q-10 0 -10 10v459q0 10 10 10h64q10 0 10 -10v-44h1q17 28 51 46.5t83 18.5q78 0 122 -49t44 -131v-300q0 -10 -10 -10h-64zM327 576q-18 0 -32.5 6t-30.5 15
q-14 8 -26 13t-27 5q-20 0 -34.5 -9.5t-28.5 -22.5q-3 -3 -5.5 -2t-2.5 4v48q0 5 1 9t6 9q14 14 31 23t37 9q19 0 33.5 -6t29.5 -15q14 -8 26 -13t27 -5q20 0 34.5 9.5t28.5 22.5q3 3 5.5 2t2.5 -4v-48q0 -5 -1 -9t-6 -9q-14 -14 -31 -23t-37 -9z" />
    <glyph glyph-name="ograve" unicode="&#xf2;" horiz-adv-x="516" 
d="M258 -11q-70 0 -119.5 34t-69.5 95q-8 25 -12 52.5t-4 69.5t4 69t12 52q20 62 69.5 95.5t119.5 33.5t119.5 -33.5t69.5 -95.5q8 -25 12 -52t4 -69t-4 -69.5t-12 -52.5q-20 -61 -69.5 -95t-119.5 -34zM258 67q40 0 68 19.5t40 55.5q6 20 8.5 41.5t2.5 56.5t-2.5 56
t-8.5 41q-12 36 -40 55.5t-68 19.5t-68 -19.5t-40 -55.5q-6 -20 -8.5 -41t-2.5 -56t2.5 -56.5t8.5 -41.5q12 -36 40 -55.5t68 -19.5zM247 557q-12 0 -19 10l-92 123q-3 4 -1.5 7t6.5 3h66q12 0 18 -10l75 -123q5 -10 -6 -10h-47z" />
    <glyph glyph-name="oacute" unicode="&#xf3;" horiz-adv-x="516" 
d="M222 557q-11 0 -6 10l76 123q6 10 17 10h66q5 0 6.5 -3t-1.5 -7l-92 -123q-8 -10 -19 -10h-47zM258 -11q-70 0 -119.5 34t-69.5 95q-8 25 -12 52.5t-4 69.5t4 69t12 52q20 62 69.5 95.5t119.5 33.5t119.5 -33.5t69.5 -95.5q8 -25 12 -52t4 -69t-4 -69.5t-12 -52.5
q-20 -61 -69.5 -95t-119.5 -34zM258 67q40 0 68 19.5t40 55.5q6 20 8.5 41.5t2.5 56.5t-2.5 56t-8.5 41q-12 36 -40 55.5t-68 19.5t-68 -19.5t-40 -55.5q-6 -20 -8.5 -41t-2.5 -56t2.5 -56.5t8.5 -41.5q12 -36 40 -55.5t68 -19.5z" />
    <glyph glyph-name="ocircumflex" unicode="&#xf4;" horiz-adv-x="516" 
d="M341 557q-10 0 -19 10l-63 70h-2l-64 -70q-5 -6 -8.5 -8t-10.5 -2h-45q-5 0 -6 3t2 7l95 123q7 10 16 10h43q9 0 16 -10l95 -123q3 -4 2 -7t-6 -3h-45zM258 -11q-70 0 -119.5 34t-69.5 95q-8 25 -12 52.5t-4 69.5t4 69t12 52q20 62 69.5 95.5t119.5 33.5t119.5 -33.5
t69.5 -95.5q8 -25 12 -52t4 -69t-4 -69.5t-12 -52.5q-20 -61 -69.5 -95t-119.5 -34zM258 67q40 0 68 19.5t40 55.5q6 20 8.5 41.5t2.5 56.5t-2.5 56t-8.5 41q-12 36 -40 55.5t-68 19.5t-68 -19.5t-40 -55.5q-6 -20 -8.5 -41t-2.5 -56t2.5 -56.5t8.5 -41.5q12 -36 40 -55.5
t68 -19.5z" />
    <glyph glyph-name="otilde" unicode="&#xf5;" horiz-adv-x="516" 
d="M258 -11q-70 0 -119.5 34t-69.5 95q-8 25 -12 52.5t-4 69.5t4 69t12 52q20 62 69.5 95.5t119.5 33.5t119.5 -33.5t69.5 -95.5q8 -25 12 -52t4 -69t-4 -69.5t-12 -52.5q-20 -61 -69.5 -95t-119.5 -34zM258 67q40 0 68 19.5t40 55.5q6 20 8.5 41.5t2.5 56.5t-2.5 56
t-8.5 41q-12 36 -40 55.5t-68 19.5t-68 -19.5t-40 -55.5q-6 -20 -8.5 -41t-2.5 -56t2.5 -56.5t8.5 -41.5q12 -36 40 -55.5t68 -19.5zM313 576q-18 0 -32.5 6t-30.5 15q-14 8 -26 13t-27 5q-20 0 -34.5 -9.5t-28.5 -22.5q-3 -3 -5.5 -2t-2.5 4v48q0 5 1 9t6 9q14 14 31 23
t37 9q19 0 33.5 -6t29.5 -15q14 -8 26 -13t27 -5q20 0 34.5 9.5t28.5 22.5q3 3 5.5 2t2.5 -4v-48q0 -5 -1 -9t-6 -9q-14 -14 -31 -23t-37 -9z" />
    <glyph glyph-name="odieresis" unicode="&#xf6;" horiz-adv-x="516" 
d="M326 587q-10 0 -10 10v73q0 10 10 10h59q10 0 10 -10v-73q0 -10 -10 -10h-59zM129 587q-10 0 -10 10v73q0 10 10 10h59q10 0 10 -10v-73q0 -10 -10 -10h-59zM258 -11q-70 0 -119.5 34t-69.5 95q-8 25 -12 52.5t-4 69.5t4 69t12 52q20 62 69.5 95.5t119.5 33.5
t119.5 -33.5t69.5 -95.5q8 -25 12 -52t4 -69t-4 -69.5t-12 -52.5q-20 -61 -69.5 -95t-119.5 -34zM258 67q40 0 68 19.5t40 55.5q6 20 8.5 41.5t2.5 56.5t-2.5 56t-8.5 41q-12 36 -40 55.5t-68 19.5t-68 -19.5t-40 -55.5q-6 -20 -8.5 -41t-2.5 -56t2.5 -56.5t8.5 -41.5
q12 -36 40 -55.5t68 -19.5z" />
    <glyph glyph-name="divide" unicode="&#xf7;" 
d="M215 438q0 23 16.5 39.5t39.5 16.5t39.5 -16.5t16.5 -39.5t-16.5 -39.5t-39.5 -16.5t-39.5 16.5t-16.5 39.5zM71 239q-10 0 -10 10v54q0 10 10 10h400q10 0 10 -10v-54q0 -10 -10 -10h-400zM215 114q0 23 16.5 39.5t39.5 16.5t39.5 -16.5t16.5 -39.5t-16.5 -39.5
t-39.5 -16.5t-39.5 16.5t-16.5 39.5z" />
    <glyph glyph-name="oslash" unicode="&#xf8;" horiz-adv-x="516" 
d="M258 -11q-72 0 -121 35l-30 -44q-7 -10 -18 -10h-29q-5 0 -6 3t1 7l49 73q-23 28 -35 65q-8 25 -12 52.5t-4 69.5t4 69t12 52q20 62 69.5 95.5t119.5 33.5q71 0 121 -35l30 44q6 10 18 10h29q5 0 6 -3t-1 -7l-49 -74q24 -28 35 -64q8 -25 12 -52t4 -69t-4 -69.5
t-12 -52.5q-20 -61 -69.5 -95t-119.5 -34zM258 67q40 0 68.5 19.5t40.5 55.5q6 20 8.5 41.5t2.5 56.5q0 38 -4 63.5t-14 49.5l-177 -262q30 -24 75 -24zM332 388q-30 24 -74 24q-40 0 -68.5 -19.5t-40.5 -55.5q-6 -20 -8.5 -41t-2.5 -56t3 -61.5t14 -52.5z" />
    <glyph glyph-name="ugrave" unicode="&#xf9;" horiz-adv-x="539" 
d="M383 0q-10 0 -10 10v45h-1q-19 -30 -51.5 -48t-79.5 -18q-79 0 -122.5 49.5t-43.5 131.5v299q0 10 10 10h64q10 0 10 -10v-279q0 -59 26 -91t80 -32q49 0 78.5 32t29.5 86v284q0 10 10 10h64q10 0 10 -10v-459q0 -10 -10 -10h-64zM260 557q-12 0 -19 10l-92 123
q-3 4 -1.5 7t6.5 3h66q12 0 18 -10l75 -123q5 -10 -6 -10h-47z" />
    <glyph glyph-name="uacute" unicode="&#xfa;" horiz-adv-x="539" 
d="M233 557q-11 0 -6 10l76 123q6 10 17 10h66q5 0 6.5 -3t-1.5 -7l-92 -123q-8 -10 -19 -10h-47zM383 0q-10 0 -10 10v45h-1q-19 -30 -51.5 -48t-79.5 -18q-79 0 -122.5 49.5t-43.5 131.5v299q0 10 10 10h64q10 0 10 -10v-279q0 -59 26 -91t80 -32q49 0 78.5 32t29.5 86
v284q0 10 10 10h64q10 0 10 -10v-459q0 -10 -10 -10h-64z" />
    <glyph glyph-name="ucircumflex" unicode="&#xfb;" horiz-adv-x="539" 
d="M352 557q-10 0 -19 10l-63 70h-2l-64 -70q-5 -6 -8.5 -8t-10.5 -2h-45q-5 0 -6 3t2 7l95 123q7 10 16 10h43q9 0 16 -10l95 -123q3 -4 2 -7t-6 -3h-45zM383 0q-10 0 -10 10v45h-1q-19 -30 -51.5 -48t-79.5 -18q-79 0 -122.5 49.5t-43.5 131.5v299q0 10 10 10h64
q10 0 10 -10v-279q0 -59 26 -91t80 -32q49 0 78.5 32t29.5 86v284q0 10 10 10h64q10 0 10 -10v-459q0 -10 -10 -10h-64z" />
    <glyph glyph-name="udieresis" unicode="&#xfc;" horiz-adv-x="539" 
d="M338 587q-10 0 -10 10v73q0 10 10 10h59q10 0 10 -10v-73q0 -10 -10 -10h-59zM141 587q-10 0 -10 10v73q0 10 10 10h59q10 0 10 -10v-73q0 -10 -10 -10h-59zM383 0q-10 0 -10 10v45h-1q-19 -30 -51.5 -48t-79.5 -18q-79 0 -122.5 49.5t-43.5 131.5v299q0 10 10 10h64
q10 0 10 -10v-279q0 -59 26 -91t80 -32q49 0 78.5 32t29.5 86v284q0 10 10 10h64q10 0 10 -10v-459q0 -10 -10 -10h-64z" />
    <glyph glyph-name="yacute" unicode="&#xfd;" horiz-adv-x="477" 
d="M86 -180q-10 0 -10 10v58q0 10 10 10h18q29 0 47 15.5t34 56.5l16 44l-176 455q-3 10 8 10h70q9 0 12 -10l126 -346h2l121 346q3 10 12 10h68q11 0 8 -10l-189 -506q-16 -42 -31.5 -70t-33 -44t-38.5 -22.5t-48 -6.5h-26zM207 557q-11 0 -6 10l76 123q6 10 17 10h66
q5 0 6.5 -3t-1.5 -7l-92 -123q-8 -10 -19 -10h-47z" />
    <glyph glyph-name="thorn" unicode="&#xfe;" horiz-adv-x="538" 
d="M92 -180q-10 0 -10 10v840q0 10 10 10h64q10 0 10 -10v-246h1q17 29 49.5 47.5t86.5 18.5q63 0 105 -29t60 -86q10 -29 13.5 -59.5t3.5 -75.5t-3.5 -76t-13.5 -60q-18 -57 -60 -86t-105 -29q-54 0 -86.5 19t-49.5 48h-1v-226q0 -10 -10 -10h-64zM283 67q80 0 105 73
q6 19 8.5 43t2.5 57q0 32 -2.5 56t-8.5 44q-25 72 -105 72q-82 0 -106 -72q-6 -18 -8.5 -41t-2.5 -59t2.5 -59.5t8.5 -40.5q24 -73 106 -73z" />
    <glyph glyph-name="ydieresis" unicode="&#xff;" horiz-adv-x="477" 
d="M86 -180q-10 0 -10 10v58q0 10 10 10h18q29 0 47 15.5t34 56.5l16 44l-176 455q-3 10 8 10h70q9 0 12 -10l126 -346h2l121 346q3 10 12 10h68q11 0 8 -10l-189 -506q-16 -42 -31.5 -70t-33 -44t-38.5 -22.5t-48 -6.5h-26zM309 587q-10 0 -10 10v73q0 10 10 10h59
q10 0 10 -10v-73q0 -10 -10 -10h-59zM112 587q-10 0 -10 10v73q0 10 10 10h59q10 0 10 -10v-73q0 -10 -10 -10h-59z" />
    <glyph glyph-name="dotlessi" unicode="&#x131;" horiz-adv-x="248" 
d="M92 0q-10 0 -10 10v459q0 10 10 10h64q10 0 10 -10v-459q0 -10 -10 -10h-64z" />
    <glyph glyph-name="Lslash" unicode="&#x141;" horiz-adv-x="538" 
d="M94 0q-10 0 -10 10v264l-54 -27q-10 -5 -10 6v61q0 9 10 14l54 27v315q0 10 10 10h69q10 0 10 -10v-272l142 73q10 5 10 -6v-61q0 -9 -10 -14l-142 -73v-228q0 -6 6 -6h324q10 0 10 -10v-63q0 -10 -10 -10h-409z" />
    <glyph glyph-name="lslash" unicode="&#x142;" horiz-adv-x="278" 
d="M164 340v-214q0 -30 11.5 -41.5t36.5 -11.5h19q10 0 10 -10v-58q0 -10 -10 -10h-34q-63 0 -90 30.5t-27 95.5v180l-35 -18q-10 -5 -10 6v54q0 10 10 15l35 18v294q0 10 10 10h64q10 0 10 -10v-254l67 35q10 5 10 -6v-55q0 -10 -10 -15z" />
    <glyph glyph-name="OE" unicode="&#x152;" horiz-adv-x="948" 
d="M479 0q-10 0 -10 10v49h-1q-25 -35 -65.5 -52.5t-93.5 -17.5q-86 0 -145.5 40t-85.5 119q-5 15 -8 31t-5.5 37.5t-3.5 51.5t-1 72t1 72t3.5 51.5t5.5 37.5t8 31q26 79 85.5 119t145.5 40q53 0 93.5 -17.5t65.5 -52.5h1v49q0 10 10 10h409q10 0 10 -10v-63q0 -10 -10 -10
h-324q-6 0 -6 -6v-200q0 -6 6 -6h275q10 0 10 -10v-63q0 -10 -10 -10h-275q-6 0 -6 -6v-207q0 -6 6 -6h324q10 0 10 -10v-63q0 -10 -10 -10h-409zM309 72q57 0 93 26t52 75q3 9 5.5 22.5t5 33.5t3.5 47t1 64t-1 64t-3.5 47t-5 33.5t-5.5 22.5q-16 49 -52 75t-93 26
t-92.5 -26t-51.5 -75q-3 -9 -5.5 -22.5t-5 -33.5t-3.5 -47t-1 -64t1 -64t3.5 -47t5 -33.5t5.5 -22.5q16 -49 51.5 -75t92.5 -26z" />
    <glyph glyph-name="oe" unicode="&#x153;" horiz-adv-x="835" 
d="M585 -11q-113 0 -164 82h-1q-53 -82 -162 -82q-70 0 -119.5 34t-69.5 95q-8 25 -12 52.5t-4 69.5t4 69t12 52q20 62 69.5 95.5t119.5 33.5q52 0 93.5 -19.5t67.5 -60.5h2q24 41 65.5 60.5t92.5 19.5q70 0 119 -33.5t69 -95.5q4 -12 7 -24.5t5 -28.5t3 -36.5t1 -47.5
q0 -10 -11 -10h-304q-6 0 -6 -6q1 -20 2.5 -33t6.5 -25q14 -42 44.5 -62.5t75.5 -20.5q44 0 74 15t49 38q8 8 15 2l41 -37q7 -6 1 -14q-29 -36 -76 -59t-110 -23zM691 281q6 0 6 6q0 17 -2 30t-6 24q-12 36 -40.5 55.5t-69.5 19.5q-40 0 -69 -19.5t-40 -55.5q-4 -11 -6 -24
t-2 -30q0 -6 6 -6h223zM258 67q40 0 68 19.5t40 55.5q6 20 8.5 41.5t2.5 56.5t-2.5 56t-8.5 41q-12 36 -40 55.5t-68 19.5t-68 -19.5t-40 -55.5q-6 -20 -8.5 -41t-2.5 -56t2.5 -56.5t8.5 -41.5q12 -36 40 -55.5t68 -19.5z" />
    <glyph glyph-name="Scaron" unicode="&#x160;" horiz-adv-x="591" 
d="M290 -11q-36 0 -71 7t-66 18.5t-57 27t-45 32.5q-7 7 -1 15l44 52q6 7 14 1q33 -26 82 -48t108 -22q71 0 110.5 32t39.5 84q0 22 -7 40t-23.5 32t-43.5 24t-68 15l-34 5q-200 27 -200 188q0 45 15.5 82t44.5 63t70 40t92 14q60 0 114.5 -17.5t92.5 -45.5q8 -6 2 -14
l-34 -55q-6 -7 -14 -2q-42 26 -81 38.5t-83 12.5q-63 0 -96 -30.5t-33 -79.5q0 -43 32 -70.5t111 -38.5l33 -5q100 -14 150 -60t50 -130q0 -45 -15.5 -82.5t-47 -64.5t-78 -42.5t-107.5 -15.5zM276 751q-9 0 -16 10l-95 124q-3 4 -2 7t6 3h45q7 0 10.5 -2t8.5 -8l64 -71h2
l63 71q9 10 19 10h45q5 0 6 -3t-2 -7l-95 -124q-7 -10 -16 -10h-43z" />
    <glyph glyph-name="scaron" unicode="&#x161;" horiz-adv-x="490" 
d="M225 555q-9 0 -16 10l-95 124q-3 4 -2 7t6 3h45q7 0 10.5 -2t8.5 -8l64 -71h2l63 71q9 10 19 10h45q5 0 6 -3t-2 -7l-95 -124q-7 -10 -16 -10h-43zM247 -11q-35 0 -65 6.5t-54.5 17t-44 23t-34.5 25.5q-7 7 0 14l41 44q7 7 14 0q27 -23 65.5 -39t82.5 -16q53 0 79 20.5
t26 52.5q0 28 -18.5 44.5t-74.5 22.5l-51 5q-71 8 -107 42t-36 93q0 69 46.5 107.5t131.5 38.5q53 0 96.5 -15t73.5 -38q8 -5 2 -14l-34 -43q-6 -7 -14 -2q-23 15 -57.5 27t-71.5 12q-45 0 -68 -18.5t-23 -47.5t20 -44.5t74 -20.5l50 -5q73 -7 108.5 -42t35.5 -93
q0 -71 -49.5 -114t-143.5 -43z" />
    <glyph glyph-name="Ydieresis" unicode="&#x178;" horiz-adv-x="526" 
d="M229 0q-10 0 -10 10v268l-201 391q-4 11 8 11h71q9 0 15 -10l152 -291h2l151 291q4 10 14 10h69q12 0 8 -11l-201 -391v-268q0 -10 -10 -10h-68zM334 777q-10 0 -10 10v72q0 10 10 10h56q10 0 10 -10v-72q0 -10 -10 -10h-56zM134 777q-10 0 -10 10v72q0 10 10 10h56
q10 0 10 -10v-72q0 -10 -10 -10h-56z" />
    <glyph glyph-name="Zcaron" unicode="&#x17d;" horiz-adv-x="536" 
d="M249 752q-9 0 -16 10l-95 124q-3 4 -2 7t6 3h45q7 0 10.5 -2t8.5 -8l64 -71h2l63 71q9 10 19 10h45q5 0 6 -3t-2 -7l-95 -124q-7 -10 -16 -10h-43zM59 0q-10 0 -10 10v63q0 6 4 11l332 512v1h-314q-10 0 -10 10v63q0 10 10 10h406q10 0 10 -10v-63q0 -6 -4 -11l-333 -512
v-1h327q10 0 10 -10v-63q0 -10 -10 -10h-418z" />
    <glyph glyph-name="zcaron" unicode="&#x17e;" horiz-adv-x="477" 
d="M219 555q-9 0 -16 10l-95 124q-3 4 -2 7t6 3h45q7 0 10.5 -2t8.5 -8l64 -71h2l63 71q9 10 19 10h45q5 0 6 -3t-2 -7l-95 -124q-7 -10 -16 -10h-43zM65 0q-10 0 -10 10v53q0 7 4 11l263 327v2h-244q-10 0 -10 10v56q0 10 10 10h334q10 0 10 -10v-56q0 -6 -4 -11l-261 -324
v-2h255q10 0 10 -10v-56q0 -10 -10 -10h-347z" />
    <glyph glyph-name="florin" unicode="&#x192;" 
d="M325 335l-56 -362q-6 -42 -18 -71t-31 -47.5t-46 -26.5t-64 -8h-24q-10 0 -10 10v56q0 10 10 10h20q38 0 55.5 15t25.5 60l56 364h-75q-10 0 -10 10v47q0 10 10 10h85l20 127q13 80 48.5 115.5t109.5 35.5h26q10 0 10 -10v-56q0 -10 -10 -10h-22q-35 0 -54 -16t-25 -58
l-20 -128h93q10 0 10 -10v-47q0 -10 -10 -10h-104z" />
    <glyph glyph-name="circumflex" unicode="&#x2c6;" horiz-adv-x="421" 
d="M294 557q-10 0 -19 10l-63 70h-2l-64 -70q-5 -6 -8.5 -8t-10.5 -2h-45q-5 0 -6 3t2 7l95 123q7 10 16 10h43q9 0 16 -10l95 -123q3 -4 2 -7t-6 -3h-45z" />
    <glyph glyph-name="caron" unicode="&#x2c7;" horiz-adv-x="421" 
d="M189 555q-9 0 -16 10l-95 124q-3 4 -2 7t6 3h45q7 0 10.5 -2t8.5 -8l64 -71h2l63 71q9 10 19 10h45q5 0 6 -3t-2 -7l-95 -124q-7 -10 -16 -10h-43z" />
    <glyph glyph-name="breve" unicode="&#x2d8;" horiz-adv-x="421" 
d="M211 561q-59 0 -95 31.5t-41 81.5q0 10 9 10h36q8 0 11 -10q17 -52 80 -52q64 0 79 52q3 10 12 10h35q9 0 9 -10q-5 -50 -41 -81.5t-94 -31.5z" />
    <glyph glyph-name="dotaccent" unicode="&#x2d9;" horiz-adv-x="421" 
d="M176 587q-10 0 -10 10v73q0 10 10 10h69q10 0 10 -10v-73q0 -10 -10 -10h-69z" />
    <glyph glyph-name="ring" unicode="&#x2da;" horiz-adv-x="421" 
d="M211 535q-40 0 -67.5 26.5t-27.5 67.5t27.5 67.5t67.5 26.5t67.5 -26.5t27.5 -67.5t-27.5 -67.5t-67.5 -26.5zM211 576q22 0 36.5 15t14.5 38t-14.5 38t-36.5 15t-36.5 -15t-14.5 -38t14.5 -38t36.5 -15z" />
    <glyph glyph-name="ogonek" unicode="&#x2db;" horiz-adv-x="421" 
d="M205 -182q-38 0 -61 20.5t-23 58.5q0 28 16 52.5t53 50.5q14 10 25 10h58q5 0 5.5 -4t-3.5 -6q-24 -16 -40 -28.5t-25.5 -23t-13.5 -19.5t-4 -18q0 -27 26 -27q8 0 13.5 2t13.5 6q9 4 13 -4l18 -35q4 -7 -4 -14q-13 -9 -31 -15t-36 -6z" />
    <glyph glyph-name="tilde" unicode="&#x2dc;" horiz-adv-x="421" 
d="M265 576q-18 0 -32.5 6t-30.5 15q-14 8 -26 13t-27 5q-20 0 -34.5 -9.5t-28.5 -22.5q-3 -3 -5.5 -2t-2.5 4v48q0 5 1 9t6 9q14 14 31 23t37 9q19 0 33.5 -6t29.5 -15q14 -8 26 -13t27 -5q20 0 34.5 9.5t28.5 22.5q3 3 5.5 2t2.5 -4v-48q0 -5 -1 -9t-6 -9q-14 -14 -31 -23
t-37 -9z" />
    <glyph glyph-name="hungarumlaut" unicode="&#x2dd;" horiz-adv-x="421" 
d="M219 557q-11 0 -6 10l66 123q3 5 6.5 7.5t9.5 2.5h57q5 0 6 -3t-1 -7l-77 -124q-5 -9 -16 -9h-45zM77 557q-11 0 -6 10l66 123q3 5 6.5 7.5t9.5 2.5h57q5 0 6 -3t-1 -7l-77 -124q-5 -9 -16 -9h-45z" />
    <glyph glyph-name="pi" unicode="&#x3c0;" horiz-adv-x="578" 
d="M489 -6q-56 0 -79 28t-23 85v288q0 6 -6 6h-185q-6 0 -6 -6v-385q0 -10 -10 -10h-64q-10 0 -10 10v385q0 6 -6 6h-43q-10 0 -10 10v58q0 10 10 10h462q10 0 10 -10v-58q0 -10 -10 -10h-42q-6 0 -6 -6v-286q0 -21 7 -29t23 -8h5q10 0 10 -10v-58q0 -10 -10 -10h-17z" />
    <glyph glyph-name="aComma" unicode="&#x60c;" horiz-adv-x="230" 
d="M160 10q0 -10 -10 -10h-70q-10 0 -10 10v93q0 8 1 12.5t5 9.5l62 82q6 7 13 7q9 0 9 -9v-195v0z" />
    <glyph glyph-name="aTahabove" unicode="&#x615;" horiz-adv-x="0" 
d="M-95 540q10 0 10 11v166q0 7 8 7h23q8 0 8 -7v-84q15 8 32.5 12.5t34.5 4.5q45 0 62.5 -23.5t17.5 -56.5q0 -35 -13 -50.5t-41 -15.5h-133h-5h-16q-7 0 -7 7v22q0 7 7 7h12zM19 614q-16 0 -33 -5.5t-32 -11.5v-47v-10h84q16 0 20 6t4 25q0 20 -9 31.5t-34 11.5z" />
    <glyph glyph-name="aSemicolon" unicode="&#x61b;" horiz-adv-x="236" 
d="M160 244q0 -10 -10 -10h-70q-10 0 -10 10v93q0 8 1 12.5t5 9.5l62 82q6 7 13 7q9 0 9 -9v-195v0zM70 96q0 10 10 10h76q10 0 10 -10v-86q0 -10 -10 -10h-76q-10 0 -10 10v86z" />
    <glyph glyph-name="aQuestion" unicode="&#x61f;" horiz-adv-x="496" 
d="M214 161q-10 0 -10 10v12q0 25 -5.5 40t-20.5 35l-67 92q-26 35 -38.5 64.5t-12.5 65.5q0 37 13 68.5t37 54t57 35t74 12.5q78 0 127.5 -43.5t60.5 -115.5q2 -9 -8 -11l-63 -11q-9 -2 -11 8q-9 46 -35.5 70.5t-68.5 24.5q-43 0 -70 -25t-27 -68q0 -13 2.5 -24t8 -23
t14.5 -26t22 -32l67 -92q16 -22 23 -41t7 -49v-21q0 -10 -10 -10h-66zM295 10q0 -10 -10 -10h-76q-10 0 -10 10v86q0 10 10 10h76q10 0 10 -10v-86z" />
    <glyph glyph-name="aKashida" unicode="&#x640;" horiz-adv-x="111" 
d="M1 0q-20 0 -27 8.5t-7 29.5q0 25 6.5 32.5t27.5 7.5h110q20 0 30 -8t10 -29q0 -25 -9.5 -33t-30.5 -8h-110z" />
    <glyph glyph-name="aHeh" unicode="&#x647;" horiz-adv-x="482" 
d="M236 -7q-89 0 -140 51t-51 165q0 115 51 166.5t140 51.5t140 -51.5t51 -166.5q0 -57 -13.5 -98t-38 -67t-60 -38.5t-79.5 -12.5zM236 349q-56 0 -81.5 -37t-25.5 -103q0 -72 25.5 -105t81.5 -33t81.5 33t25.5 105q0 66 -25.5 103t-81.5 37z" />
    <glyph glyph-name="aFathatan" unicode="&#x64b;" horiz-adv-x="0" 
d="M-125 818q-10 0 -10 10v14q0 10 10 10h254q10 0 10 -10v-14q0 -10 -10 -10h-254zM-125 750q-10 0 -10 10v14q0 10 10 10h254q10 0 10 -10v-14q0 -10 -10 -10h-254z" />
    <glyph glyph-name="aDammatan" unicode="&#x64c;" horiz-adv-x="0" 
d="M-140 873q-10 0 -10 10v14q0 10 10 10h6q32 0 54 -21t22 -68q0 -26 15 -31.5t44 -5.5q22 0 36.5 4.5t24 10.5t14.5 13.5t7 13.5h-33q-34 0 -53.5 18t-19.5 49q0 32 21.5 53.5t52.5 21.5q32 0 53.5 -21.5t21.5 -69.5q0 -36 -9.5 -60.5t-26 -39.5t-39.5 -21t-50 -6
q-20 0 -37.5 2t-30 9.5t-20 21.5t-7.5 38q0 29 -9.5 42t-26.5 13h-10zM90 856q1 4 1 9v9q0 28 -11.5 42.5t-28.5 14.5q-20 0 -29.5 -13.5t-9.5 -27.5q0 -10 4.5 -16.5t11.5 -10.5t14 -5.5t13 -1.5h35z" />
    <glyph glyph-name="aKasratan" unicode="&#x64d;" horiz-adv-x="0" 
d="M-123 -131q-10 0 -10 10v14q0 10 10 10h254q10 0 10 -10v-14q0 -10 -10 -10h-254zM-123 -199q-10 0 -10 10v14q0 10 10 10h254q10 0 10 -10v-14q0 -10 -10 -10h-254z" />
    <glyph glyph-name="aFatha" unicode="&#x64e;" horiz-adv-x="0" 
d="M-125 750q-10 0 -10 10v14q0 10 10 10h254q10 0 10 -10v-14q0 -10 -10 -10h-254z" />
    <glyph glyph-name="aDamma" unicode="&#x64f;" horiz-adv-x="0" 
d="M40 853q1 4 1 9v9q0 28 -11.5 42.5t-28.5 14.5q-20 0 -29.5 -13.5t-9.5 -27.5q0 -10 4.5 -16.5t11.5 -10.5t14 -5.5t13 -1.5h35zM-49 778q22 0 36.5 4.5t24 10.5t14.5 13.5t7 13.5h-33q-34 0 -53.5 18t-19.5 49q0 32 21.5 53.5t52.5 21.5q32 0 53.5 -21.5t21.5 -69.5
q0 -36 -9.5 -60.5t-26 -39.5t-39.5 -21t-50 -6h-28q-10 0 -10 10v14q0 10 10 10h28z" />
    <glyph glyph-name="aKasra" unicode="&#x650;" horiz-adv-x="0" 
d="M-123 -138q-10 0 -10 10v14q0 10 10 10h254q10 0 10 -10v-14q0 -10 -10 -10h-254z" />
    <glyph glyph-name="aShadda" unicode="&#x651;" horiz-adv-x="0" 
d="M-128 898q0 10 10 10h18q10 0 10 -10v-74q0 -19 9.5 -29.5t25.5 -10.5t25.5 9.5t9.5 26.5v78q0 10 10 10h18q10 0 10 -10v-78q0 -17 9.5 -26.5t25.5 -9.5t25.5 10.5t9.5 29.5v74q0 10 10 10h18q10 0 10 -10v-71q0 -35 -19.5 -57t-53.5 -22q-35 0 -54 22q-19 -22 -54 -22
q-34 0 -53.5 22t-19.5 57v71z" />
    <glyph glyph-name="aSukun" unicode="&#x652;" horiz-adv-x="0" 
d="M-80 826q0 33 23 56.5t56 23.5t56.5 -23.5t23.5 -56.5t-23.5 -56t-56.5 -23t-56 23t-23 56zM-44 827q0 -18 13 -31t31 -13t31 13t13 31t-13 31t-31 13t-31 -13t-13 -31z" />
    <glyph glyph-name="aMadda" unicode="&#x653;" horiz-adv-x="0" 
d="M-176 771q7 32 27.5 49t46.5 17q22 0 46 -8t48.5 -18t48.5 -18t46 -8q17 0 23.5 7.5t6.5 26.5q0 10 10 10h22q10 0 10 -10q0 -41 -18.5 -62t-50.5 -21q-26 0 -52.5 8t-51 17.5t-47.5 17.5t-41 8q-10 0 -19 -5.5t-14 -22.5q-3 -10 -13 -7l-21 6q-9 3 -7 13z" />
    <glyph glyph-name="aHamzaabove" unicode="&#x654;" horiz-adv-x="0" 
d="M-66 772q-8 11 -13 27t-5 35q0 16 5 33.5t17 32t31.5 24t48.5 9.5q26 0 46.5 -9t32.5 -26q3 -7 0 -10l-21 -17q-7 -6 -11 -2q-9 10 -21 16.5t-27 6.5q-28 0 -41.5 -17t-13.5 -40q0 -22 11.5 -38.5t22.5 -24.5h103q6 0 6 -7v-28q0 -7 -6 -7h-203q-6 0 -6 7v28q0 7 6 7h38z
" />
    <glyph glyph-name="aHamzabelow" unicode="&#x655;" horiz-adv-x="0" 
d="M-66 -231q-8 12 -13 27.5t-5 34.5q0 16 5 33.5t17 32t31.5 24t48.5 9.5q26 0 46.5 -9t32.5 -26q3 -7 0 -10l-21 -17q-7 -6 -11 -2q-9 10 -21 16.5t-27 6.5q-28 0 -41.5 -17t-13.5 -40q0 -22 11.5 -38.5t22.5 -24.5h103q6 0 6 -7v-28q0 -7 -6 -7h-203q-6 0 -6 7v28
q0 7 6 7h38z" />
    <glyph glyph-name="aAlifbelow" unicode="&#x656;" horiz-adv-x="0" 
d="M19 -238q0 -10 -10 -10h-18q-10 0 -10 10v124q0 10 10 10h18q10 0 10 -10v-124z" />
    <glyph glyph-name="aNasalnun" unicode="&#x658;" horiz-adv-x="0" 
d="M-88 888q0 10 10 10h18q10 0 10 -10v-50q0 -26 13.5 -41t36.5 -15t36 15t13 41v50q0 10 10 10h18q10 0 10 -10v-48q0 -42 -23 -67t-64 -25t-64.5 25t-23.5 67v48z" />
    <glyph glyph-name="aZero" unicode="&#x660;" horiz-adv-x="450" 
d="M253 135q-14 -14 -26 -14.5t-29 14.5l-45 46q-15 15 -16 26.5t16 27.5l45 45q13 13 24.5 15.5t26.5 -12.5l49 -48q14 -14 15 -26.5t-15 -28.5z" />
    <glyph glyph-name="aOne" unicode="&#x661;" horiz-adv-x="450" 
d="M267 10q0 -10 -10 -10h-64q-10 0 -10 10v585q0 10 10 10h64q10 0 10 -10v-585z" />
    <glyph glyph-name="aTwo" unicode="&#x662;" horiz-adv-x="450" 
d="M105 478q0 63 28.5 95t91.5 32h173q10 0 10 -10v-58q0 -10 -10 -10h-148q-37 0 -49 -16t-12 -50v-451q0 -10 -10 -10h-64q-10 0 -10 10v468z" />
    <glyph glyph-name="aThree" unicode="&#x663;" horiz-adv-x="450" 
d="M126 435h70v113q0 10 10 10h64q10 0 10 -10v-113q38 2 53 13.5t15 42.5v104q0 10 10 10h64q10 0 10 -10v-100q0 -41 -11 -67.5t-30.5 -41.5t-48 -21t-62.5 -6h-154v-349q0 -10 -10 -10h-64q-10 0 -10 10v585q0 10 10 10h64q10 0 10 -10v-160z" />
    <glyph glyph-name="aFour" unicode="&#x664;" horiz-adv-x="450" 
d="M384 78q10 0 10 -10v-58q0 -10 -10 -10h-127q-39 0 -74.5 9t-62.5 29t-43 50.5t-16 74.5q0 16 3.5 36t13.5 41t28 41t47 35q-32 21 -47 56t-15 67q0 82 52 124t136 42h65q10 0 10 -10v-58q0 -10 -10 -10h-67q-48 0 -74.5 -20.5t-26.5 -68.5q0 -24 9 -40.5t23 -27.5
t32.5 -16t36.5 -5h66q10 0 10 -10v-58q0 -10 -10 -10h-93q-43 0 -73 -26.5t-30 -75.5q0 -25 9.5 -42.5t24.5 -28t35 -15.5t41 -5h127z" />
    <glyph glyph-name="aFive" unicode="&#x665;" horiz-adv-x="450" 
d="M223 0q-32 0 -63.5 6.5t-56 27t-40 59.5t-15.5 105v128q0 81 13.5 135.5t37.5 86.5t56.5 45.5t70.5 13.5q37 0 69.5 -12.5t56 -45t37 -87t13.5 -138.5v-121q0 -64 -14.5 -103.5t-39 -61.5t-57 -30t-68.5 -8zM225 81q23 0 40.5 5t29 19t17.5 38.5t6 63.5v112
q0 114 -22 163.5t-71 49.5q-24 0 -41.5 -11t-29 -36t-17 -65t-5.5 -98v-115q0 -41 6 -65.5t18 -38t29.5 -18t39.5 -4.5z" />
    <glyph glyph-name="aSix" unicode="&#x666;" horiz-adv-x="450" 
d="M71 527q-10 0 -10 10v58q0 10 10 10h173q63 0 91.5 -32t28.5 -95v-468q0 -10 -10 -10h-64q-10 0 -10 10v451q0 34 -12 50t-49 16h-148z" />
    <glyph glyph-name="aSeven" unicode="&#x667;" horiz-adv-x="450" 
d="M342 604q3 10 12 7l65 -16q11 -3 9 -11l-161 -575q-3 -11 -14.5 -12.5t-28.5 -1.5q-16 0 -27.5 1.5t-14.5 12.5l-160 575q-2 8 9 11l65 16q9 3 12 -7l116 -462z" />
    <glyph glyph-name="aEight" unicode="&#x668;" horiz-adv-x="450" 
d="M108 -3q-3 -10 -12 -7l-65 16q-11 3 -9 11l161 575q3 11 14.5 12.5t28.5 1.5q16 0 27.5 -1.5t14.5 -12.5l160 -575q2 -8 -9 -11l-65 -16q-9 -3 -12 7l-116 462z" />
    <glyph glyph-name="aNine" unicode="&#x669;" horiz-adv-x="450" 
d="M236 260q-36 0 -68 10t-56 30.5t-38 52t-14 75.5q0 40 12.5 72.5t35 56t53.5 36t67 12.5q81 0 119.5 -43t38.5 -115v-437q0 -10 -10 -10h-64q-10 0 -10 10v250h-66zM302 339v98q0 43 -19.5 66.5t-56.5 23.5q-36 0 -60.5 -25t-24.5 -71q0 -49 27 -70.5t64 -21.5h70z" />
    <glyph glyph-name="aPercent" unicode="&#x66a;" horiz-adv-x="670" 
d="M480 620q2 4 5 7t8 3h68q10 0 7 -10l-386 -622q-2 -4 -5 -7t-8 -3h-68q-5 0 -7 3t0 7zM215 454q-13 -13 -23.5 -13.5t-25.5 13.5l-40 41q-14 14 -14.5 24t14.5 24l40 40q11 12 21.5 14.5t23.5 -11.5l44 -43q12 -12 13 -23.5t-13 -25.5zM479 25q-13 -13 -23.5 -13.5
t-25.5 13.5l-40 41q-14 14 -14.5 24t14.5 24l40 40q11 12 21.5 14.5t23.5 -11.5l44 -43q12 -12 13 -23.5t-13 -25.5z" />
    <glyph glyph-name="aDecimal" unicode="&#x66b;" horiz-adv-x="230" 
d="M70 96q0 10 10 10h70q10 0 10 -10v-93q0 -8 -1 -12.5t-5 -9.5l-62 -82q-6 -7 -13 -7q-9 0 -9 9v195v0z" />
    <glyph glyph-name="aThousands" unicode="&#x66c;" horiz-adv-x="230" 
d="M70 230q0 10 10 10h70q10 0 10 -10v-93q0 -8 -1 -12.5t-5 -9.5l-62 -82q-6 -7 -13 -7q-9 0 -9 9v195v0z" />
    <glyph glyph-name="aStar" unicode="&#x66d;" horiz-adv-x="343" 
d="M106 490q-6 -9 -14 -3l-3 2q-9 5 -4 14l45 90l-93 49q-6 3 -3 11l2 6q2 6 8 5l104 -13l18 99q0 10 10 10h6q10 0 10 -10l16 -99l104 13q6 1 8 -5l2 -6q3 -8 -3 -11l-93 -49l45 -90q5 -9 -4 -14l-3 -2q-6 -5 -14 3l-72 70z" />
    <glyph glyph-name="aAlifabove" unicode="&#x670;" horiz-adv-x="0" 
d="M19 760q0 -10 -10 -10h-18q-10 0 -10 10v124q0 10 10 10h18q10 0 10 -10v-124z" />
    <glyph glyph-name="aHehYeh" unicode="&#x6c0;" horiz-adv-x="482" 
d="M236 -7q-89 0 -140 51t-51 165q0 115 51 166.5t140 51.5t140 -51.5t51 -166.5q0 -57 -13.5 -98t-38 -67t-60 -38.5t-79.5 -12.5zM236 349q-56 0 -81.5 -37t-25.5 -103q0 -72 25.5 -105t81.5 -33t81.5 33t25.5 105q0 66 -25.5 103t-81.5 37zM172 535q-8 11 -13 27t-5 35
q0 16 5 33.5t17 32t31.5 24t48.5 9.5q26 0 46.5 -9t32.5 -26q3 -7 0 -10l-21 -17q-7 -6 -11 -2q-9 10 -21 16.5t-27 6.5q-28 0 -41.5 -17t-13.5 -40q0 -22 11.5 -38.5t22.5 -24.5h103q6 0 6 -7v-28q0 -7 -6 -7h-203q-6 0 -6 7v28q0 7 6 7h38z" />
    <glyph glyph-name="aHehGoalHamzaabove" unicode="&#x6c2;" horiz-adv-x="482" 
d="M236 -7q-89 0 -140 51t-51 165q0 115 51 166.5t140 51.5t140 -51.5t51 -166.5q0 -57 -13.5 -98t-38 -67t-60 -38.5t-79.5 -12.5zM236 349q-56 0 -81.5 -37t-25.5 -103q0 -72 25.5 -105t81.5 -33t81.5 33t25.5 105q0 66 -25.5 103t-81.5 37zM172 535q-8 11 -13 27t-5 35
q0 16 5 33.5t17 32t31.5 24t48.5 9.5q26 0 46.5 -9t32.5 -26q3 -7 0 -10l-21 -17q-7 -6 -11 -2q-9 10 -21 16.5t-27 6.5q-28 0 -41.5 -17t-13.5 -40q0 -22 11.5 -38.5t22.5 -24.5h103q6 0 6 -7v-28q0 -7 -6 -7h-203q-6 0 -6 7v28q0 7 6 7h38z" />
    <glyph glyph-name="aTehMarbutaGoal" unicode="&#x6c3;" horiz-adv-x="482" 
d="M236 -7q-89 0 -140 51t-51 165q0 115 51 166.5t140 51.5t140 -51.5t51 -166.5q0 -57 -13.5 -98t-38 -67t-60 -38.5t-79.5 -12.5zM236 349q-56 0 -81.5 -37t-25.5 -103q0 -72 25.5 -105t81.5 -33t81.5 33t25.5 105q0 66 -25.5 103t-81.5 37zM259 508q-10 0 -10 10v73
q0 10 10 10h68q10 0 10 -10v-73q0 -10 -10 -10h-68zM137 508q-10 0 -10 10v73q0 10 10 10h68q10 0 10 -10v-73q0 -10 -10 -10h-68z" />
    <glyph glyph-name="aPeriodUrdu" unicode="&#x6d4;" horiz-adv-x="294" 
d="M261 78q10 0 10 -10v-58q0 -10 -10 -10h-87q-35 0 -72 9.5t-74 35.5q-7 4 -1 14l28 51q5 8 13 3q28 -18 55 -26.5t71 -8.5h67z" />
    <glyph glyph-name="aAe" unicode="&#x6d5;" horiz-adv-x="482" 
d="M236 -7q-89 0 -140 51t-51 165q0 115 51 166.5t140 51.5t140 -51.5t51 -166.5q0 -57 -13.5 -98t-38 -67t-60 -38.5t-79.5 -12.5zM236 349q-56 0 -81.5 -37t-25.5 -103q0 -72 25.5 -105t81.5 -33t81.5 33t25.5 105q0 66 -25.5 103t-81.5 37z" />
    <glyph glyph-name="aZeroFarsi" unicode="&#x6f0;" horiz-adv-x="450" 
d="M253 135q-14 -14 -26 -14.5t-29 14.5l-45 46q-15 15 -16 26.5t16 27.5l45 45q13 13 24.5 15.5t26.5 -12.5l49 -48q14 -14 15 -26.5t-15 -28.5z" />
    <glyph glyph-name="aOneFarsi" unicode="&#x6f1;" horiz-adv-x="450" 
d="M267 10q0 -10 -10 -10h-64q-10 0 -10 10v585q0 10 10 10h64q10 0 10 -10v-585z" />
    <glyph glyph-name="aTwoFarsi" unicode="&#x6f2;" horiz-adv-x="450" 
d="M105 478q0 63 28.5 95t91.5 32h173q10 0 10 -10v-58q0 -10 -10 -10h-148q-37 0 -49 -16t-12 -50v-451q0 -10 -10 -10h-64q-10 0 -10 10v468z" />
    <glyph glyph-name="aThreeFarsi" unicode="&#x6f3;" horiz-adv-x="450" 
d="M126 435h70v113q0 10 10 10h64q10 0 10 -10v-113q38 2 53 13.5t15 42.5v104q0 10 10 10h64q10 0 10 -10v-100q0 -41 -11 -67.5t-30.5 -41.5t-48 -21t-62.5 -6h-154v-349q0 -10 -10 -10h-64q-10 0 -10 10v585q0 10 10 10h64q10 0 10 -10v-160z" />
    <glyph glyph-name="aFourFarsi" unicode="&#x6f4;" horiz-adv-x="450" 
d="M303 606q10 0 10 -10v-47q0 -10 -10 -10q-33 0 -45.5 -14t-12.5 -44v-46q29 0 48.5 1.5t31.5 7.5t17 17t5 30v11q0 10 10 10h64q10 0 10 -10v-7q0 -71 -32 -100.5t-87 -34.5q-8 -1 -16.5 -1h-16.5h-158v-349q0 -10 -10 -10h-64q-10 0 -10 10v585q0 10 10 10h64
q10 0 10 -10v-160h56v63q0 57 29 82.5t82 25.5h15z" />
    <glyph glyph-name="aFiveFarsi" unicode="&#x6f5;" horiz-adv-x="450" 
d="M336 255q0 63 -8 115t-22.5 89t-35.5 57.5t-46 20.5q-26 0 -46.5 -20t-35.5 -57t-23 -89t-8 -116q0 -96 17 -135.5t45 -39.5q9 0 17 4t14.5 9t12 9t9.5 4t9 -4t11 -9t15 -9t21 -4t22 9t17 29t11 53.5t4 83.5zM37 256q0 91 15 159q22 101 68.5 146.5t103.5 45.5
q33 0 63.5 -15.5t55 -48.5t42 -83.5t24.5 -119.5q2 -20 3 -41t1 -44q0 -42 -3 -79q-3 -38 -10.5 -70.5t-19.5 -56.5t-29.5 -37.5t-40.5 -13.5t-42 7.5t-40 25.5q-20 -18 -39 -25t-38 -7q-57 0 -85.5 64.5t-28.5 192.5z" />
    </font>
</defs>
</svg>
